<svg xmlns="http://www.w3.org/2000/svg" xmlns:xlink="http://www.w3.org/1999/xlink" version="1.1" id="Ebene_1" x="0" y="0" viewBox="0 0 395.7 369.9" style="enable-background:new 0 0 395.7 369.9" xml:space="preserve"><style type="text/css" id="style2">.st0{clip-path:url(#SVGID_2_);fill:#fff}</style><g id="g16"><defs id="defs5"><path id="SVGID_1_" d="M0 0h395.7v369.9H0z"/></defs><clipPath id="SVGID_2_"><use xlink:href="#SVGID_1_" style="overflow:visible" id="use7"/></clipPath><path class="st0" d="m357.4 253.1-16-32V.2H54.2v220.9l-16 32L0 240.3c22.3 86.4 110.1 129.6 197.8 129.6 87.7 0 175.5-43.2 197.8-129.6l-38.2 12.8" clip-path="url(#SVGID_2_)" id="path10"/><path d="M137.7 25.6c1 0 1.8-.4 2.6-1.3.7-.8 1.1-2.2 1.1-3.9 0-1.7-.3-3-1-3.8-.7-.8-1.5-1.3-2.5-1.3s-1.8.4-2.5 1.3-1.1 2.2-1.1 3.9.3 3 1 3.8c.6.9 1.4 1.3 2.4 1.3m124.1 86.3h-18.9l-15 40.5v-18.1h-20.1l-7.9-19.3h-4.7l-12.7 33.1h4.6l3.6-10h13.8l3.9 10h5l-2.3-5.6h7.7v13c-2 1.7-4.8 3.4-8.6 4.9-3.8 1.5-7.7 2.3-11.6 2.3-4.6 0-8.9-1-13-3s-7.2-5.1-9.3-9.3c-2.1-4.2-3.2-9.4-3.2-15.6 0-5 .9-9.7 2.7-14 1-2.5 2.5-4.8 4.4-6.9 1.9-2.1 4.4-3.8 7.4-5.1 3.1-1.3 6.7-1.9 10.9-1.9 3.5 0 6.7.6 9.6 1.8 2.9 1.2 5.1 2.8 6.6 4.9 1.5 2 2.8 4.8 3.9 8.4l8.3-2.3c-1.2-4.7-3-8.5-5.3-11.4-2.3-2.9-5.5-5.2-9.5-6.8-4.1-1.6-8.6-2.4-13.6-2.4-6.9 0-13 1.4-18.3 4.3-5.3 2.9-9.4 7.2-12.2 13.1-2.8 5.9-4.2 12.2-4.2 19 0 1.6.1 3.2.3 4.8L154 112.1h-20l54 140.1h19l54.8-140.3zm-69.7 22.6 3.6-9.7c.8-2.1 1.4-4.2 1.8-6.3.5 1.8 1.3 4.1 2.3 6.9l3.4 9.2h-11.1zm5.5 102.3c-2-7.1-4.4-14.8-7.3-23l-20.1-56.4c2.7 3.8 6.1 6.9 10.4 9.1 5.6 2.9 11.8 4.4 18.6 4.4 5 0 10-.9 14.8-2.7 3.4-1.3 6.8-3.1 10-5.3l-.3.7-18.6 50.2c-2.8 7.7-5.4 15.4-7.5 23zm117.6-215c-.4.2-.7.4-.9.7-.2.3-.3.7-.3 1.1 0 .6.2 1.1.7 1.5.5.4 1.1.6 2 .6.9 0 1.6-.2 2.3-.6.7-.4 1.2-.9 1.5-1.6.2-.5.4-1.3.4-2.3v-.8c-.8.3-2 .6-3.7.9-1 .1-1.7.3-2 .5zM297.7 173c0-55.9-44.4-101.2-99.8-102.1h-.6c-55.4.9-100.2 46.3-100.2 102.1 0 55.9 44.7 101.2 100.2 102.1h.1c55.5-.8 100.3-46.2 100.3-102.1zm-188.5 0c0-49.2 39.8-89.2 88.6-90 48.9.8 87.8 40.8 87.8 90s-38.9 89.2-87.8 90c-48.8-.8-88.6-40.7-88.6-90zm248.2 80.1-16-32V.2H54.2v220.9l-16 32L0 240.3c22.3 86.4 110.1 129.6 197.8 129.6 87.7 0 175.5-43.2 197.8-129.6l-38.2 12.8zM334 10.6l2.2-1.4v4.6h2.3v1.8h-2.3v7.8c0 .6 0 1.1.1 1.2.1.2.2.3.4.4.2.1.4.2.8.2.2 0 .6 0 1-.1l.3 2c-.6.1-1.2.2-1.7.2-.8 0-1.4-.1-1.9-.4-.4-.3-.8-.6-.9-1-.2-.4-.3-1.3-.3-2.7v-7.6h-1.6v-1.8h1.6v-3.2zM197.8 275.8c-56.1-.5-101.4-46.3-101.4-102.8 0-56.4 45.3-102.2 101.4-102.8V35.3h140.5V221c-15.9 62.9-78.2 83.2-140.5 83.2v-28.4zm127.3-262h2v-1.4c0-.9.1-1.6.2-2 .2-.6.6-1.1 1.1-1.4.5-.4 1.3-.5 2.3-.5.6 0 1.3.1 2.1.2l-.3 2c-.5-.1-.9-.1-1.3-.1-.7 0-1.2.1-1.4.4-.3.3-.4.8-.4 1.6v1.2h2.6v1.8h-2.6v11.5h-2.2V15.6h-2v-1.8zm-4.9 2.4c-.6-.5-1.4-.8-2.6-.8-1.1 0-1.8.2-2.3.6-.5.4-.9 1-1.1 2l-2.2-.3c.2-.9.5-1.7 1-2.3.5-.6 1.1-1 2-1.3.9-.3 1.9-.5 3-.5s2 .1 2.8.4c.7.3 1.2.6 1.6 1 .3.4.6.9.7 1.5.1.4.1 1.1.1 2.1v3c0 2.1 0 3.4.1 4 .1.6.3 1.1.6 1.6h-2.3c-.2-.5-.4-1-.4-1.6-.8.7-1.6 1.2-2.4 1.5-.8.3-1.6.4-2.5.4-1.5 0-2.6-.4-3.4-1.1-.8-.7-1.2-1.6-1.2-2.7 0-.7.1-1.2.4-1.8.3-.5.7-1 1.2-1.3.5-.3 1-.6 1.6-.7.4-.1 1.1-.2 2-.3 1.8-.2 3.1-.5 4-.8v-.6c-.1-1-.3-1.7-.7-2zm-22.1-7.4h2.2v6.6c1-1.2 2.4-1.8 4-1.8 1 0 1.8.2 2.6.6.7.4 1.2.9 1.6 1.6.3.7.5 1.7.5 3v8.4h-2.2v-8.4c0-1.1-.2-1.9-.7-2.5-.5-.5-1.2-.8-2.1-.8-.7 0-1.3.2-1.9.5-.6.3-1 .8-1.3 1.4-.2.6-.4 1.4-.4 2.5v7.3h-2.2V8.8zm-12.7 8c.5-1.1 1.2-1.9 2.2-2.4 1-.5 2-.8 3.2-.8 1.4 0 2.6.4 3.5 1.1.9.7 1.5 1.8 1.8 3.1l-2.2.3c-.2-.9-.6-1.6-1.1-2-.5-.5-1.2-.7-1.9-.7-1.1 0-2 .4-2.8 1.2-.7.8-1.1 2.1-1.1 3.9 0 1.8.3 3.1 1 3.9.7.8 1.6 1.2 2.7 1.2.9 0 1.6-.3 2.2-.8.6-.5 1-1.4 1.1-2.5l2.2.3c-.2 1.5-.9 2.7-1.9 3.6-1 .9-2.2 1.3-3.7 1.3-1.8 0-3.3-.6-4.4-1.8-1.1-1.2-1.7-2.9-1.7-5.1.2-1.5.4-2.8.9-3.8zm-5.7 5.5c-.3-.2-1.1-.5-2.3-.8-1.6-.4-2.8-.8-3.4-1.1-.6-.3-1.1-.7-1.4-1.3-.3-.5-.5-1.1-.5-1.8 0-.6.1-1.1.4-1.6.3-.5.6-.9 1.1-1.3.3-.3.8-.5 1.4-.7.6-.2 1.2-.3 1.9-.3 1 0 1.9.2 2.7.5.8.3 1.4.7 1.7 1.2.4.5.6 1.2.8 2.1l-2.2.3c-.1-.7-.4-1.2-.9-1.6-.5-.4-1.2-.6-2-.6-1 0-1.8.2-2.2.5-.4.3-.7.7-.7 1.2 0 .3.1.6.3.8.2.2.5.4.9.6.2.1.9.3 2 .6 1.6.4 2.7.8 3.3 1 .6.3 1.1.7 1.5 1.2.4.5.5 1.2.5 1.9s-.2 1.5-.7 2.1c-.4.7-1.1 1.2-1.9 1.5-.8.4-1.8.5-2.8.5-1.7 0-3-.4-3.9-1.1-.9-.7-1.5-1.8-1.7-3.2l2.2-.4c.1.9.5 1.6 1 2.1.6.5 1.4.7 2.4.7s1.8-.2 2.3-.6c.5-.4.7-.9.7-1.5.2-.3 0-.7-.5-.9zm-21.3-8.5h2v1.9c1-1.5 2.4-2.2 4.2-2.2.8 0 1.5.1 2.2.4.7.3 1.2.7 1.5 1.1.3.5.6 1 .7 1.7.1.4.1 1.1.1 2.2v8.2h-2.2V19c0-.9-.1-1.6-.3-2.1-.2-.5-.5-.8-.9-1.1-.4-.3-1-.4-1.6-.4-1 0-1.8.3-2.5.9-.7.6-1 1.8-1 3.5v7.3h-2.2V13.8zm-5.7-5h2.2v2.6h-2.2V8.8zm0 5h2.2v13.3h-2.2V13.8zm-13.2 1.6c1.1-1.2 2.6-1.9 4.5-1.9 1.8 0 3.2.6 4.3 1.8 1.1 1.2 1.7 2.9 1.7 5.1v.6h-9.9c.1 1.5.5 2.6 1.2 3.4.7.8 1.7 1.2 2.8 1.2.8 0 1.5-.2 2.1-.7.6-.4 1-1.1 1.4-2.1l2.3.3c-.4 1.4-1 2.4-2 3.2-1 .7-2.3 1.1-3.8 1.1-1.9 0-3.5-.6-4.6-1.8-1.1-1.2-1.7-2.9-1.7-5 0-2.2.6-4 1.7-5.2zm-22.2-1.6h2v1.9c.4-.6 1-1.2 1.7-1.6.7-.4 1.5-.6 2.4-.6 1 0 1.8.2 2.4.6.6.4 1.1 1 1.3 1.7 1-1.5 2.4-2.3 4.1-2.3 1.3 0 2.3.4 3 1.1.7.7 1.1 1.9 1.1 3.4v9.1H233v-8.4c0-.9-.1-1.5-.2-1.9-.1-.4-.4-.7-.8-1-.4-.2-.8-.4-1.3-.4-.9 0-1.7.3-2.3.9-.6.6-.9 1.6-.9 3V27h-2.2v-8.6c0-1-.2-1.8-.5-2.3-.4-.5-1-.7-1.8-.7-.6 0-1.2.2-1.8.5-.5.3-.9.8-1.2 1.5-.2.6-.4 1.6-.4 2.8v6.9h-2.2V13.8zm-13.2 1.6c1.1-1.2 2.6-1.9 4.5-1.9 1.8 0 3.2.6 4.3 1.8 1.1 1.2 1.7 2.9 1.7 5.1v.6h-9.9c.1 1.5.5 2.6 1.2 3.4.7.8 1.7 1.2 2.8 1.2.8 0 1.5-.2 2.1-.7.6-.4 1-1.1 1.4-2.1l2.3.3c-.4 1.4-1 2.4-2 3.2-1 .7-2.3 1.1-3.8 1.1-1.9 0-3.5-.6-4.6-1.8-1.1-1.2-1.7-2.9-1.7-5-.1-2.2.5-4 1.7-5.2zM184 13c.7-1.5 1.8-2.7 3.2-3.4 1.4-.8 3-1.1 4.8-1.1 1.3 0 2.5.2 3.6.6 1.1.4 1.9 1 2.5 1.8.6.8 1.1 1.8 1.4 3l-2.2.6c-.3-.9-.6-1.7-1-2.2-.4-.5-1-1-1.7-1.3-.8-.3-1.6-.5-2.5-.5-1.1 0-2.1.2-2.9.5-.8.3-1.5.8-2 1.3s-.9 1.2-1.2 1.8c-.5 1.1-.7 2.4-.7 3.7 0 1.6.3 3 .8 4.1.6 1.1 1.4 1.9 2.5 2.5 1.1.5 2.2.8 3.4.8 1 0 2.1-.2 3.1-.6 1-.4 1.8-.8 2.3-1.3v-3.4H192v-2.2h7.7v6.8c-1.2 1-2.4 1.7-3.7 2.1-1.3.5-2.6.7-3.9.7-1.8 0-3.4-.4-4.9-1.2-1.5-.8-2.6-1.9-3.3-3.3-.7-1.5-1.1-3.1-1.1-4.9.1-1.6.5-3.3 1.2-4.9zm-16.2.8h1.6v-3.3l2.2-1.4v4.6h2.3v1.8h-2.3v7.8c0 .6 0 1.1.1 1.2.1.2.2.3.4.4.2.1.4.2.8.2.2 0 .6 0 1-.1l.3 2c-.6.1-1.2.2-1.7.2-.8 0-1.4-.1-1.9-.4-.4-.3-.8-.6-.9-1-.2-.4-.3-1.3-.3-2.7v-7.6h-1.6v-1.7zm-7.3 0h2v2c.5-.9 1-1.6 1.4-1.9.4-.3.9-.5 1.4-.5.8 0 1.5.2 2.3.7l-.8 2.1c-.5-.3-1.1-.5-1.6-.5s-.9.1-1.3.4c-.4.3-.7.7-.8 1.2-.2.8-.4 1.7-.4 2.6v7h-2.2V13.8zM147.6 15c1.1-1 2.5-1.5 4.2-1.5 1.8 0 3.3.6 4.5 1.8 1.2 1.2 1.7 2.8 1.7 5 0 1.7-.3 3.1-.8 4-.5 1-1.3 1.7-2.2 2.3-1 .5-2 .8-3.2.8-1.9 0-3.4-.6-4.5-1.8-1.1-1.2-1.7-2.9-1.7-5.2-.1-2.4.6-4.2 2-5.4zm-15.4-1.2h2v1.7c.5-.7 1-1.2 1.6-1.5.6-.3 1.3-.5 2.2-.5 1.1 0 2.1.3 3 .9.9.6 1.5 1.4 2 2.5.4 1.1.7 2.2.7 3.5 0 1.4-.2 2.6-.7 3.7-.5 1.1-1.2 1.9-2.1 2.5-.9.6-1.9.9-2.9.9-.7 0-1.4-.2-2-.5-.6-.3-1.1-.7-1.5-1.2v6.5h-2.2V13.8zm-5.7 8.5c-.3-.2-1.1-.5-2.3-.8-1.6-.4-2.8-.8-3.4-1.1-.6-.3-1.1-.7-1.4-1.3-.3-.5-.5-1.1-.5-1.8 0-.6.1-1.1.4-1.6.3-.5.6-.9 1.1-1.3.3-.3.8-.5 1.4-.7.6-.2 1.2-.3 1.9-.3 1 0 1.9.2 2.7.5.8.3 1.4.7 1.7 1.2.4.5.6 1.2.8 2.1l-2.2.3c-.1-.7-.4-1.2-.9-1.6-.5-.4-1.2-.6-2-.6-1 0-1.8.2-2.2.5-.4.3-.7.7-.7 1.2 0 .3.1.6.3.8.2.2.5.4.9.6.2.1.9.3 2 .6 1.6.4 2.7.8 3.3 1 .6.3 1.1.7 1.5 1.2.4.5.5 1.2.5 1.9s-.2 1.5-.7 2.1c-.4.7-1.1 1.2-1.9 1.5-.8.4-1.8.5-2.8.5-1.7 0-3-.4-3.9-1.1-.9-.7-1.5-1.8-1.7-3.2l2.2-.4c.1.9.5 1.6 1 2.1.6.5 1.4.7 2.4.7s1.8-.2 2.3-.6c.5-.4.7-.9.7-1.5.2-.3 0-.7-.5-.9zm-12.7 0c-.3-.2-1.1-.5-2.3-.8-1.6-.4-2.8-.8-3.4-1.1-.6-.3-1.1-.7-1.4-1.3-.3-.5-.5-1.1-.5-1.8 0-.6.1-1.1.4-1.6.3-.5.6-.9 1.1-1.3.3-.3.8-.5 1.4-.7.6-.2 1.2-.3 1.9-.3 1 0 1.9.2 2.7.5.8.3 1.4.7 1.7 1.2.4.5.6 1.2.8 2.1l-2.2.3c-.1-.7-.4-1.2-.9-1.6-.5-.4-1.2-.6-2-.6-1 0-1.8.2-2.2.5-.4.3-.7.7-.7 1.2 0 .3.1.6.3.8.2.2.5.4.9.6.2.1.9.3 2 .6 1.6.4 2.7.8 3.3 1 .6.3 1.1.7 1.5 1.2.4.5.5 1.2.5 1.9s-.2 1.5-.7 2.1c-.4.7-1.1 1.2-1.9 1.5-.8.4-1.8.5-2.8.5-1.7 0-3-.4-3.9-1.1-.9-.7-1.5-1.8-1.7-3.2l2.2-.4c.1.9.5 1.6 1 2.1.6.5 1.4.7 2.4.7s1.8-.2 2.3-.6c.5-.4.7-.9.7-1.5.1-.3-.1-.7-.5-.9zM93.9 8.8h2.2v10.5l5.3-5.4h2.9l-5.1 4.9 5.6 8.4H102l-4.4-6.8-1.6 1.5v5.3h-2.2V8.8zm-5.8 0h2.2v18.3h-2.2V8.8zM75.2 15c1.1-1 2.5-1.5 4.2-1.5 1.8 0 3.3.6 4.5 1.8 1.2 1.2 1.7 2.8 1.7 5 0 1.7-.3 3.1-.8 4-.5 1-1.3 1.7-2.2 2.3-1 .5-2 .8-3.2.8-1.9 0-3.4-.6-4.5-1.8-1.1-1.2-1.7-2.9-1.7-5.2 0-2.4.6-4.2 2-5.4zM59.4 8.8l4.7 13.3c.4 1.1.7 2.1 1 3 .3-1 .6-2 1-3L71 8.8h2.5l-7.2 18.3h-2.5l-7-18.3h2.6zm138.4 354.9c-19.1.8-149.1-3.8-189.8-114.8 3.4 1.2 28.9 11 33 11.9 0 0 11.3-24 14.2-30 15.7 58.2 77 77.3 142.5 79.7 65.5-2.4 126.8-21.5 142.5-79.7 2.9 6 14.2 30 14.2 30 4.2-1 29.6-10.8 33.1-11.9-40.6 111-170.5 115.6-189.7 114.8zM151.7 25.6c1.1 0 2-.4 2.8-1.3.7-.8 1.1-2.1 1.1-3.9 0-1.6-.4-2.9-1.1-3.7-.7-.8-1.7-1.3-2.8-1.3-1.1 0-2.1.4-2.8 1.3-.7.8-1.1 2.1-1.1 3.8 0 1.7.4 3 1.1 3.8.8.8 1.7 1.3 2.8 1.3zm95.1-8.9c-.7-.9-1.6-1.3-2.8-1.3-1 0-1.9.3-2.6 1-.7.7-1.1 1.6-1.2 2.8h7.4c-.1-1.1-.4-2-.8-2.5zM79.4 25.6c1.1 0 2-.4 2.8-1.3.7-.8 1.1-2.1 1.1-3.9 0-1.6-.4-2.9-1.1-3.7-.7-.8-1.7-1.3-2.8-1.3-1.1 0-2.1.4-2.8 1.3-.7.8-1.1 2.1-1.1 3.8 0 1.7.4 3 1.1 3.8.7.8 1.6 1.3 2.8 1.3zm131.9-8.9c-.7-.9-1.6-1.3-2.8-1.3-1 0-1.9.3-2.6 1-.7.7-1.1 1.6-1.2 2.8h7.4c0-1.1-.3-2-.8-2.5zm-13.5 258.4h-.4.4zm119.3 11.3-4.9 3.1-5.1 22.3-8.6-13.7-3.6 2.3 17.3 27.6 3.6-2.3-6-9.6 1.7-7.2 18.5 7.8 4.8-3-22.3-8.8 4.6-18.5zM296.4 323c.5 2.8.2 5.1-.9 7-1 1.9-2.7 3.3-4.9 4.2-1.8.7-3.7.9-5.7.6-2-.3-3.7-1.3-5.2-2.9-1.5-1.6-2.8-3.7-3.8-6.3-.8-2-1.2-4.1-1.3-6.2-.1-2.1.4-4.1 1.5-5.8 1.1-1.7 2.8-3.1 5.2-4 2-.8 3.9-1 5.6-.5 1.7.5 3.4 1.7 4.9 3.6l3.6-2.5c-1.9-2.5-4.2-4.1-6.9-4.8-2.7-.7-5.5-.5-8.5.7-2.7 1.1-4.9 2.6-6.6 4.7-1.7 2.1-2.7 4.6-3 7.4-.3 2.8.2 5.8 1.5 9 1.1 2.9 2.7 5.4 4.8 7.5 2.1 2.1 4.4 3.4 6.9 3.9 2.6.5 5.5.1 8.7-1.2 3.1-1.2 5.5-3.2 7-5.8 1.5-2.6 2-5.7 1.6-9.3l-4.5.7zm58.6-33.8-14.3 14-7.7-7.9 12.8-12.6-2.7-2.7-12.8 12.6-7-7.1L337 272l-2.7-2.7-16.8 16.5 22.7 23.3 17.3-17-2.5-2.9zm-212.6 25.2c-1.6-1.3-3.5-2.3-5.8-2.9-3.1-.9-6-1.1-8.8-.6-2.8.6-5.2 2-7.2 4.2-2.1 2.3-3.5 4.9-4.4 7.9-.9 3.1-1.1 6-.6 8.9.5 2.9 1.8 5.3 3.9 7.4 2.1 2.1 4.7 3.6 7.7 4.5 2.3.7 4.6.9 7 .8 2.4-.2 4.8-.8 7.4-1.8l3.5-11.6-13.2-4-1.1 3.7 9.1 2.8-1.7 5.8c-1.1.5-2.6.9-4.5 1-1.9.2-3.7 0-5.5-.5-2.1-.6-3.9-1.7-5.4-3.1-1.6-1.5-2.5-3.3-2.9-5.4-.4-2.2-.2-4.6.7-7.4.7-2.3 1.7-4.2 3.1-5.9.8-1 1.8-1.8 2.9-2.5 1.1-.7 2.5-1.1 4-1.3 1.5-.2 3.3 0 5.1.6 1.6.5 2.9 1.2 4 2.1 1.1.9 1.9 2 2.3 3.1.4 1.1.6 2.5.6 4.3l4 .1c.1-2.3-.2-4.2-.8-5.8-.7-1.6-1.8-3.1-3.4-4.4zm113.5.2 8.3 31.5 4.2-1.1-8.3-31.5-4.2 1.1zm-96.8 2.9-4.2-.7-5.1 32.2 20 3.2.6-3.8-15.8-2.5 4.5-28.4zm-39.8-10.9-23.2-11.2-1.7 3.5 9.7 4.6-12.4 25.9 3.9 1.9 12.4-25.9 9.7 4.7 1.6-3.5zm-52.9-34.1-31.4 15 3.3 3.1 9.4-4.7 9.9 9.4-4 9.8 3.6 3.4 12.7-32.8-3.5-3.2zM62.7 283l-3.7 8.9-8-7.6 9.1-4.5c2-1 3.8-2.1 5.5-3.3-.8 1.6-1.8 3.8-2.9 6.5zm17.8 2-17.8 27.3 17 11.2 2.1-3.2-13.4-8.8 15.7-24-3.6-2.5zm163.7 32.3 3.8 25.3-20.7-22.7-4.4.7 4.9 32.2 4.1-.6-3.8-25.3 20.7 22.7 4.4-.7-4.9-32.2-4.1.6zM198.6 350l-.2-11.1 18-.3-.1-3.8-18 .3-.2-10 19.2-.3-.1-3.8-23.5.4.6 32.6 24.2-.4-.1-3.8-19.8.2zm-19.6 2.9 4.3.3 2.4-32.5-4.3-.3-2.4 32.5z" clip-path="url(#SVGID_2_)" id="path12" style="clip-path:url(#SVGID_2_);fill:#17509e"/><path class="st0" d="M197.8 277.7c-27.6-.3-53.5-11.3-73-31s-30.2-45.8-30.2-73.6c0-27.7 10.7-53.9 30.2-73.6 19.4-19.7 45.4-30.7 73-31v2.1c-55.7.6-101 46.5-101 102.4 0 55.9 45.3 101.9 101 102.4v2.3" clip-path="url(#SVGID_2_)" id="path14"/></g></svg>