<svg width="680.2" height="851.413" version="1.2" viewBox="0 0 510.15 638.56" xmlns="http://www.w3.org/2000/svg" xmlns:xlink="http://www.w3.org/1999/xlink"><g fill="#0073b0"><use x="499.474" y="219.215" width="100%" height="100%" xlink:href="#a" transform="translate(-46.903 -57.335)"/><use x="210.407" y="217.798" width="100%" height="100%" xlink:href="#a" transform="translate(-46.903 -57.335)"/><use x="220.631" y="217.798" width="100%" height="100%" xlink:href="#b" transform="translate(-46.903 -57.335)"/><use x="89.076" y="243.77" width="100%" height="100%" xlink:href="#b" transform="translate(-46.903 -57.335)"/><use x="115.731" y="253.37" width="100%" height="100%" xlink:href="#c" transform="translate(-46.903 -57.335)"/><use x="116.992" y="253.37" width="100%" height="100%" xlink:href="#c" transform="translate(-46.903 -57.335)"/><use x="134.856" y="253.37" width="100%" height="100%" xlink:href="#c" transform="translate(-46.903 -57.335)"/><use x="139.321" y="253.37" width="100%" height="100%" xlink:href="#c" transform="translate(-46.903 -57.335)"/><use x="153.839" y="253.37" width="100%" height="100%" xlink:href="#c" transform="translate(-46.903 -57.335)"/><g transform="translate(-46.903 -57.335)"><use x="161.071" y="253.37" width="100%" height="100%" xlink:href="#c"/><use x="197.071" y="253.37" width="100%" height="100%" xlink:href="#c"/></g><use x="78.432" y="799.372" width="100%" height="100%" xlink:href="#c" transform="translate(-46.903 -57.335)"/><use x="82.163" y="799.372" width="100%" height="100%" xlink:href="#c" transform="translate(-46.903 -57.335)"/><use x="100.027" y="799.372" width="100%" height="100%" xlink:href="#c" transform="translate(-46.903 -57.335)"/><use x="104.493" y="799.372" width="100%" height="100%" xlink:href="#c" transform="translate(-46.903 -57.335)"/><g transform="translate(-46.903 -57.335)"><use x="119.019" y="799.372" width="100%" height="100%" xlink:href="#c"/><use x="120.769" y="799.372" width="100%" height="100%" xlink:href="#c"/><use x="122.519" y="799.372" width="100%" height="100%" xlink:href="#c"/><use x="124.269" y="799.372" width="100%" height="100%" xlink:href="#c"/><use x="126.019" y="799.372" width="100%" height="100%" xlink:href="#c"/></g><use x="127.769" y="799.372" width="100%" height="100%" xlink:href="#c" transform="translate(-46.903 -57.335)"/><use x="220.792" y="799.372" width="100%" height="100%" xlink:href="#c" transform="translate(-46.903 -57.335)"/><use x="539.757" y="799.372" width="100%" height="100%" xlink:href="#d" transform="translate(-46.903 -57.335)"/><use x="54.248" y="806.372" width="100%" height="100%" xlink:href="#d" transform="translate(-46.903 -57.335)"/><use x="82.166" y="806.372" width="100%" height="100%" xlink:href="#d" transform="translate(-46.903 -57.335)"/><use x="100.034" y="806.372" width="100%" height="100%" xlink:href="#d" transform="translate(-46.903 -57.335)"/><use x="104.498" y="806.372" width="100%" height="100%" xlink:href="#d" transform="translate(-46.903 -57.335)"/><use x="119.012" y="806.372" width="100%" height="100%" xlink:href="#d" transform="translate(-46.903 -57.335)"/><use x="172.25" y="806.372" width="100%" height="100%" xlink:href="#d" transform="translate(-46.903 -57.335)"/><use x="534.103" y="806.372" width="100%" height="100%" xlink:href="#d" transform="translate(-46.903 -57.335)"/><use x="54.248" y="813.372" width="100%" height="100%" xlink:href="#d" transform="translate(-46.903 -57.335)"/><use x="82.166" y="813.372" width="100%" height="100%" xlink:href="#d" transform="translate(-46.903 -57.335)"/><use x="100.034" y="813.372" width="100%" height="100%" xlink:href="#d" transform="translate(-46.903 -57.335)"/><use x="104.498" y="813.372" width="100%" height="100%" xlink:href="#d" transform="translate(-46.903 -57.335)"/><use x="119.012" y="813.372" width="100%" height="100%" xlink:href="#d" transform="translate(-46.903 -57.335)"/><use x="172.25" y="813.372" width="100%" height="100%" xlink:href="#d" transform="translate(-46.903 -57.335)"/><use x="129.817" y="297.937" width="100%" height="100%" xlink:href="#c" transform="translate(-46.903 -57.335)"/><g transform="translate(-46.903 -57.335)"><use x="161.751" y="297.937" width="100%" height="100%" xlink:href="#c"/><use x="197.752" y="297.937" width="100%" height="100%" xlink:href="#c"/><use x="233.753" y="297.937" width="100%" height="100%" xlink:href="#c"/><use x="269.754" y="297.937" width="100%" height="100%" xlink:href="#c"/><use x="305.755" y="297.937" width="100%" height="100%" xlink:href="#c"/><use x="341.756" y="297.937" width="100%" height="100%" xlink:href="#c"/></g><use x="79.298" y="413.138" width="100%" height="100%" xlink:href="#e" transform="translate(-46.903 -57.335)"/><use x="143.708" y="521.174" width="100%" height="100%" xlink:href="#f" transform="translate(-46.903 -57.335)"/><use x="290.748" y="521.174" width="100%" height="100%" xlink:href="#f" transform="translate(-46.903 -57.335)"/><use x="305.748" y="521.174" width="100%" height="100%" xlink:href="#f" transform="translate(-46.903 -57.335)"/><use x="91.717" y="536.009" width="100%" height="100%" xlink:href="#b" transform="translate(-46.903 -57.335)"/><use x="186.538" y="536.009" width="100%" height="100%" xlink:href="#b" transform="translate(-46.903 -57.335)"/><use x="290.748" y="536.009" width="100%" height="100%" xlink:href="#b" transform="translate(-46.903 -57.335)"/><use x="305.748" y="536.009" width="100%" height="100%" xlink:href="#b" transform="translate(-46.903 -57.335)"/><use x="91.717" y="548.009" width="100%" height="100%" xlink:href="#b" transform="translate(-46.903 -57.335)"/><use x="159.148" y="548.009" width="100%" height="100%" xlink:href="#b" transform="translate(-46.903 -57.335)"/><use x="290.748" y="548.009" width="100%" height="100%" xlink:href="#b" transform="translate(-46.903 -57.335)"/><use x="305.748" y="548.009" width="100%" height="100%" xlink:href="#b" transform="translate(-46.903 -57.335)"/><use x="91.717" y="560.009" width="100%" height="100%" xlink:href="#b" transform="translate(-46.903 -57.335)"/><use x="163.688" y="560.009" width="100%" height="100%" xlink:href="#b" transform="translate(-46.903 -57.335)"/><use x="290.748" y="560.009" width="100%" height="100%" xlink:href="#b" transform="translate(-46.903 -57.335)"/><use x="305.748" y="560.009" width="100%" height="100%" xlink:href="#b" transform="translate(-46.903 -57.335)"/><use x="57.647" y="595.278" width="100%" height="100%" xlink:href="#e" transform="translate(-46.903 -57.335)"/><use x="367.677" y="595.278" width="100%" height="100%" xlink:href="#e" transform="translate(-46.903 -57.335)"/><use x="369.277" y="595.278" width="100%" height="100%" xlink:href="#e" transform="translate(-46.903 -57.335)"/><use x="53.748" y="603.278" width="100%" height="100%" xlink:href="#e" transform="translate(-46.903 -57.335)"/><use x="61.546" y="611.278" width="100%" height="100%" xlink:href="#e" transform="translate(-46.903 -57.335)"/><use x="372.131" y="611.278" width="100%" height="100%" xlink:href="#e" transform="translate(-46.903 -57.335)"/></g><use x="480.707" y="731.768" width="100%" height="100%" xlink:href="#b" transform="translate(-46.903 -57.335)" fill="#fff"/><g stroke-width=".148"><path d="M306.761 339.2c-.027-4.466-1.691-8.932-3.33-12.341-1.4-2.934-2.827-5.048-3.198-5.577-.079-1.506-.792-2.8-2.008-3.62-1.295-.872-3.066-1.269-5.206-1.269h-64.91c-.264-.026-3.435-.396-6.554-.74-1.559-.185-3.118-.37-4.307-.502a23.767 23.767 0 0 0-1.454-.159l-.45-.052-.264-.027c-6.607 0-10.915 1.93-13.558 4.15-1.347 1.11-2.246 2.299-2.827 3.33-.555 1.057-.82 1.902-.846 2.59v4.889c0 2.061.898 3.515 2.114 4.625 1.824 1.665 4.308 2.775 6.29 4.915 1.982 2.115 3.594 5.233 3.594 11.074v51.483c0 6.263-.554 10.36-1.427 13.161-1.348 4.176-3.25 5.418-5.444 6.898-2.22 1.453-4.73 3.092-6.37 7.506a10.282 10.282 0 0 0-.686 3.7c0 3.805 2.14 7.215 5.47 9.646 3.304 2.458 7.823 3.964 12.712 3.964h22.465c10.677 0 17.258-.581 21.565-2.114 2.167-.766 3.753-1.797 4.942-3.145 1.19-1.348 1.956-2.96 2.511-4.836.08-.185.238-.608.37-1.269.132-.687.265-1.638.265-3.013 0-.872-.054-1.902-.159-3.145-.184-2.352-1.374-3.99-2.907-5.127-2.3-1.691-5.338-2.51-7.717-3.964-1.189-.714-2.22-1.586-2.933-2.749-.74-1.162-1.19-2.642-1.19-4.73v-20.588c-.027-.423.397-1.19 1.11-1.745.688-.58 1.586-.977 2.141-.95 1.612 0 2.801.29 3.7.766 1.56.819 2.379 2.22 2.934 4.07.819 2.748.872 6.342 1.955 9.329.529 1.506 1.348 2.907 2.696 3.885 1.374 1.004 3.224 1.559 5.682 1.559 2.51 0 4.572-1.348 6.132-3.277 2.378-2.88 3.858-7.162 4.81-11.074.925-3.91 1.295-7.453 1.295-8.932.158-2.934.29-6.237.29-10.466 0-3.119-.079-6.766-.29-11.153-.265-5.391-2.617-9.487-5.154-12.21a19.316 19.316 0 0 0-3.726-3.092 9.656 9.656 0 0 0-1.56-.793c-.475-.185-.872-.29-1.295-.29-3.065-.027-5.1 1.162-6.369 2.907-1.876 2.59-2.326 6.131-3.489 8.932-.58 1.428-1.294 2.617-2.378 3.436-1.057.846-2.537 1.374-4.757 1.4-.899 0-1.56-.131-2.035-.343-.687-.317-1.057-.766-1.348-1.638-.265-.846-.344-2.088-.344-3.674v-6.871c0-2.59.211-4.52.502-5.735.132-.608.291-1.057.423-1.295l.08-.132c.29-.027.554-.106.792-.265.502-.343.767-.792 1.03-1.268.397-.687.767-1.4 1.322-1.93.555-.502 1.269-.898 2.59-.898h10.493c3.858 0 6.712 1.004 9.064 2.484 3.542 2.247 5.92 5.682 8.352 8.642 1.215 1.48 2.458 2.854 3.911 3.859 1.454 1.03 3.145 1.691 5.154 1.691 3.25 0 6.21-1.084 8.325-3.092 2.14-1.982 3.41-4.89 3.41-8.43z"/><path d="M477.73 184.537c3.727-38.295 29.732-77.515 29.732-77.515L438.75 8.548s-88.218 46.514-188.513 46.514S67.3 6.724 67.3 6.724 56.147 29.532 39.444 60.533c-16.73 31-37.132 47.412-37.132 47.412s26.904 52.884 33.405 91.182c6.502 38.295-15.196 113.853-22.28 159.548-7.69 49.792 11.26 91.283 27.857 112.162 20.772 26.112 65.939 51.034 97.52 60.151 31.556 9.118 76.142 33.75 90.065 50.162 13.928 16.412 30.63 50.135 30.63 50.135s17.443-52.117 68.713-82.061c32.772-19.108 70.593-30.076 106.797-50.135 36.207-20.06 52.011-54.707 59.438-82.961 7.426-28.279 5.576-63.852-3.727-102.122-9.276-38.295-16.703-91.181-13.003-129.475m9.303-76.588s-24.155 35.547-26.93 80.235c-1.877 30.022 1.48 61.737 5.999 88.427H265.083V71.862c89.382-5.445 169.007-43.264 169.007-43.264zM248.384 72.45V276.61H221.32V71.53c8.827.687 17.892 1.03 27.063.925M95.337 276.616V39.445c9.7 4.202 23.178 9.54 39.457 14.747v222.422zm43.21-221.258c10.995 3.382 23.152 6.66 36.181 9.408v211.848h-36.18zm39.934 10.175a356.182 356.182 0 0 0 39.088 5.708v205.373H178.48zM27.153 112.708l51.43-81.135s4.678 2.485 13.003 6.211V276.62H48.825c11.179-67.578-.37-110.944-7.533-131.295-8.351-23.706-14.139-32.613-14.139-32.613m189.65 435.623c-22.28-13.69-77.988-35.572-100.295-43.766-11.073-4.07-24.922-11.285-38.322-21.883h171.125v97.23c-7.797-10.122-19.69-23.706-32.507-31.582m93.793-9.117c-22.755 15.513-38.612 34.806-46.435 45.563V482.685h168.405a310.282 310.282 0 0 1-7.743 5.47c-37.925 25.769-80.79 28.28-114.226 51.06m165.286-117.634c-5.1 17.337-9.673 30.498-24.843 45.589h-389.5c-7.269-7.902-13.929-16.967-19.32-27.327-16.28-31.37-19.98-53.624-.925-127.649a446.495 446.495 0 0 0 4.651-20.059h423.012a563.758 563.758 0 0 0 4.15 19.134c8.958 38.295 11.68 80.16 2.774 110.315"/><path d="M186.806 324.37c-2.247-2.405-5.18-3.99-8.749-3.99h-5.497c-3.541-.027-4.836-.846-7.294-2.114-2.431-1.295-5.84-2.934-13.03-4.229-2.087-.396-5.946-.714-10.412-.714-2.88 0-6.026.133-9.118.476-10.784 1.216-23.891 5.418-34.648 14.377-10.73 8.96-19.082 22.703-20.245 42.709a105.219 105.219 0 0 0-.184 6.316c-.027 22.65 7.743 34.992 16.016 45.457 10.254 13.056 28.357 21.381 47.861 21.408 1.665 0 3.357-.08 5.048-.212 15.302-1.136 25.715-4.36 32.878-9.752 7.162-5.391 10.967-12.87 13.082-22.226.343-1.586.898-3.7.898-6.132 0-.819-.079-1.691-.238-2.59v-.053c-.37-3.435-2.008-5.497-3.911-6.527-1.877-1.031-3.938-1.163-5.207-1.163-2.088 0-3.805.872-5.338 2.088-2.352 1.797-4.493 4.334-7.638 6.448-3.119 2.062-7.215 3.727-13.505 3.727-10.307.026-18.104-6.423-23.39-12.95a60.752 60.752 0 0 1-5.92-8.986c-.66-1.242-1.162-2.247-1.48-2.987-.157-.343-.29-.634-.37-.819-.078-.185-.105-.264-.105-.264l-.027-.027v-.026c-2.563-5.55-3.435-12.29-3.435-18.817 0-6.422 2.8-11.39 6.316-14.747 3.515-3.383 7.796-5.127 10.44-5.127 5.92.026 10.254 1.876 13.742 4.678 5.26 4.202 8.51 10.624 11.787 16.095 1.665 2.748 3.304 5.233 5.26 7.083 1.955 1.85 4.307 3.065 7.162 3.065 1.982-.026 4.043-.66 5.629-1.295.793-.317 1.453-.634 1.956-.872.238-.106.422-.211.554-.264l.159-.08.027-.026c3.7-1.189 6.025-4.44 7.453-7.77 1.427-3.409 1.956-6.976 1.956-9.064v-4.44c0-2.828-.793-10.07-3.278-16.756-1.268-3.33-2.933-6.501-5.206-8.906M412.78 324.634c-2.247-2.405-5.18-3.99-8.748-3.99h-5.497c-3.542-.027-4.837-.846-7.268-2.115-2.458-1.295-5.867-2.933-13.056-4.255-2.088-.37-5.946-.687-10.413-.687-2.88 0-6.026.132-9.118.476-10.783 1.216-23.891 5.418-34.648 14.377-10.73 8.96-19.081 22.702-20.244 42.709a105.219 105.219 0 0 0-.185 6.316c0 22.65 7.743 34.965 16.016 45.457 10.254 13.056 28.358 21.381 47.862 21.381 1.665 0 3.356-.052 5.048-.185 15.302-1.136 25.741-4.36 32.903-9.752 7.136-5.391 10.942-12.897 13.056-22.253.344-1.56.899-3.673.899-6.105 0-.819-.08-1.691-.211-2.59-.37-3.488-2.035-5.523-3.938-6.58-1.877-1.031-3.938-1.163-5.207-1.163-2.088 0-3.805.872-5.338 2.087-2.352 1.798-4.493 4.335-7.638 6.423-3.119 2.087-7.215 3.752-13.505 3.752-10.28 0-18.104-6.422-23.39-12.95-2.616-3.277-4.598-6.554-5.92-8.985a49.884 49.884 0 0 1-1.48-2.987c-.157-.343-.29-.634-.37-.819-.078-.185-.105-.264-.105-.264l-.027-.027v-.026c-2.563-5.55-3.435-12.316-3.435-18.817 0-6.422 2.8-11.39 6.342-14.747 3.489-3.383 7.77-5.127 10.413-5.127 5.92 0 10.255 1.85 13.743 4.678 5.26 4.202 8.536 10.624 11.787 16.095 1.665 2.722 3.304 5.233 5.26 7.083 1.955 1.85 4.307 3.039 7.162 3.039 1.982 0 4.043-.634 5.629-1.269.793-.317 1.453-.634 1.956-.872.238-.106.422-.211.554-.264l.159-.106h.027c3.7-1.19 6.025-4.413 7.453-7.77 1.427-3.409 1.956-6.976 1.956-9.064v-4.44c0-2.828-.793-10.07-3.278-16.756-1.268-3.33-2.933-6.528-5.206-8.906M330.712 83.187c.899.45 1.427 1.638 2.273 2.14 1.11.661 4.334.9 4.281 2.353-.054 1.03-1.823 1.03-2.67 1.585-.713.45-.95 1.586-1.902 1.85-1.638.45-3.383-.37-4.757-.555.634 3.885 4.229 6.74 8.854 5.233 1.268-.423 2.352-2.51 3.409-2.51.713 0 1.665 1.295 1.903 1.955.396 1.058.29 2.617-.186 3.542-.687.475-2.061.29-3.039.475.502 2.617 4.017 2.326 4.942 4.573-.37.819-.951 2.22-2.273 2.405.502 2.114 2.617 2.986 3.7 4.677.45.714.502 1.586.952 2.326.581 1.03 1.93 1.533 2.854 2.14.08-2.008-.925-4.333-.66-6.606.105-.925.634-2.51 1.506-2.617 1.77-.237 1.718 2.168 3.04 2.617-.423-2.088-1.613-3.594-1.031-5.973.184-.793.845-1.56 1.427-2.14.502-.53 1.506-1.401 1.506-1.877 0-1.507-2.563-3.62-3.515-4.493-2.299-2.088-6.158-4.678-4.387-9.33.502-1.241 1.797-3.118 2.775-3.435.899-.317 1.877.106 2.643-.37.925-.581.476-1.982.687-3.462.158-1.242.793-1.824.767-2.986-.106-3.013-3.093-4.097-4.678-5.524h-.08c-.131 1.03.132 3.541-.396 4.572-.211.476-1.11.74-1.427 1.216-1.348 2.299.528 6-1.982 7.664-2.247-1.56-.054-4.15-.476-6.264-.264-1.321-1.216-1.902-2.008-3.171-.608-1.004-.714-2.114-1.613-2.696-1.321-.872-3.726-.502-5.787-.29.132 1.162 2.457 1.982 2.748 3.647.158.925-.317 2.114-.185 2.88.318 1.983 2.934 2.96 3.145 4.678.132 1.295-.66 1.982-1.242 2.537-.687-2.431-1.48-5.259-4.387-5.602-.687-.106-1.374.185-2.167.158-1.56 0-3.119-.66-4.572 0-1.744.82-2.247 2.749-2.96 4.414 1.56-.476 3.726-.344 4.968.264m4.837 12.13c-3.806.662-5.762-1.241-6.554-3.831 1.638.423 4.44.74 5.232-.635 1.216.635 1.877 2.643 1.322 4.467M349.715 70.5c2.193 1.005 4.52 3.938 2.643 6.713-2.009.925-3.251-.74-3.78-2.14.952-.952 1.11-2.696 1.137-4.573m-10.836 3.912c-.08-1.797-1.56-2.696-2.194-3.647 2.696-.608 5.022.264 5.418 2.431-.502.951-1.744 1.533-3.224 1.216m-5.709 4.757c.423 1.56.291 3.647-.475 4.783-1.057-1.4-3.092-2.325-5.709-1.876.186-2.564 3.092-3.938 6.185-2.907"/><path d="M362.375 93.728c3.648.343 7.612-.82 9.805.66.82.556 1.322 1.877 1.507 2.802-1.797-.238-2.379-1.691-4.255-1.876-.608.29-.45 1.03-.687 1.691-.265.766-.899 1.216-.66 1.956.264.845 1.638.951 2.378 1.48 2.828 2.035-.793 4.545-3.594 4.387-3.383-.159-6.502-3.277-7.427-6.607-2.405 1.374-.08 4.545-.767 7.004-2.484-.344-2.51-3.066-3.515-4.863-1.189.793-2.246 1.929-2.378 3.462-.186 2.246 1.823 4.52 1.03 6.792-2.51.211-2.537-2.088-3.514-3.436-1.639 2.326-.132 6.528-.08 9.145-1.982.264-2.854-1.295-4.175-1.956-.106 1.136-.159 2.326-.476 3.25-2.643-.026-3.568-2.298-5.338-2.88-.291 2.801 1.268 3.806 1.823 5.788-.82.581-1.506 1.004-2.59.925-2.14-.159-2.801-2.775-3.224-4.863-.238-1.163-.318-3.013-.846-3.171-.951-.265-1.295 1.348-1.533 1.876-1.242 3.013-.607 5.814.952 7.929.58.793 2.431 2.273 2.272 3.462-.054.581-1.162 1.453-1.69 2.035-1.058 1.216-1.983 2.431-1.058 4.123 1.4-1.057 2.537-3.647 4.942-2.062 1.242 1.903 3.119 2.934 5.63 3.463 2.8.58 6.765.132 7.584 2.431 4.07-2.484 5.418-7.664 8.193-11.39-.37 4.148-2.722 7.161-5.048 9.699-.793.872-1.691 2.22-2.458 2.51-1.004.397-2.035.29-2.88.582-.952.317-2.141 1.057-2.643 1.85-1.058 1.638-.502 6.131-3.145 5.893-1.322-.132-1.903-2.775-2.934-3.726-.317-.317-.925-.502-1.163-.767-.555-.634-.687-1.559-1.321-2.14-1.322-1.216-3.594-1.005-5.894-.185.581 1.057 1.692 1.903 2.088 3.092.45 1.295.027 2.563.581 3.62.37.714 1.137 1.348 1.718 1.771 1.03.793 2.617 1.03 3.013 2.432-2.67 1.955-4.017-2.273-6.818-1.956-.688.08-1.058.634-1.639.74-1.295.29-2.379.053-3.41.66-1.664 1.005-2.034 2.908-1.796 5.868.977-.423 2.854-1.533 4.36-1.19.608.133.714.794 1.242.846 2.141-.211 4.097-.581 6.264-.766.211 3.04-3.066 3.911-2.934 7.083.027 1.03.767 3.541 1.507 4.784 1.03 1.69 2.933 2.246 5.418 1.585-.238-.555-.687-1.215-.74-1.876-.185-1.692.74-1.982 1.136-2.987.317-.845.344-2.246.581-3.356.159-.872.37-2.67 1.137-2.801.872-.159 1.876 1.189 2.352 1.691.793.82 1.268 1.454 2.008 2.035.265 1.136-.027 2.458 0 3.647 2.855-.476 5.312-1.823 4.942-5.127-.131-1.295-1.32-3.383-2.008-4.017-.661-.634-2.405-.899-2.458-1.877-.08-1.717 3.092-1.03 4.176-1.77.237-.397.185-1.057.185-1.665.95-1.03 3.039-.37 4.28-.106.53-3.145 1.798-6.158 3.807-8.034.898-.82 2.352-1.612 3.805-1.4-1.136.924-2.193 1.69-3.435 2.8-.899.846-2.67 2.168-2.643 3.648 0 .898.793 1.691.845 2.616.106 1.744-.792 2.749-.95 4.572 2.8 1.427 5.787 2.405 8.483 3.912 2.59 1.48 5.18 3.145 7.109 5.232 1.876 2.009 3.911 4.625 5.339 7.004 1.665 2.802 1.215 6.475 1.506 10.73-2.14 2.51-4.36 8.087-1.982 11.76.45.714 1.268 1.27 1.903 1.956 1.823 2.088 3.039 4.705 2.933 8.59-1.427.264-3.515-.106-4.466.66.185 3.277 4.281 1.877 6.184 3.172.74.528 1.004 1.585 1.692 2.431 1.242 1.454 2.907 2.035 4.968 2.405-4.89 4.678-6.633 12.818-8.748 20.165-.344 1.137-.502 2.432-.951 3.277-.582 1.058-2.828 2.775-4.467 1.956-1.374-.687-.872-3.303-1.903-4.202-.264-.211-.74-.185-1.136-.37-1.19-.529-2.379-1.56-3.62-1.48-1.084.053-1.93.793-2.485 1.4-.265.265-.634.688-.555 1.005 1.216.344 2.696.846 3.119 2.061.158.397.054.925.21 1.322.688 1.876 2.829 2.59 3.33 4.281-2.563.132-4.519-.026-6.183.925-1.375.793-2.511 3.145-2.485 4.863.054 2.167 1.718 3.674 3.33 4.572.238-2.193.344-4.413 2.088-5.048.74-.237 1.533-.105 2.194-.37 1.4-.555 1.902-1.665 3.039-2.51.37.449 1.242 1.215 1.136 2.246-.158 1.507-2.061 1.612-3.118 2.696-1.745 1.744-2.617 5.312-.952 7.294.767.925 1.85 1.295 3.225 1.85-.054-2.14-.397-3.62.475-4.757.608-.793 1.692-1.11 2.273-1.877 1.057-1.295 1.374-2.775 1.533-5.02.793-.345 1.19-1.613 2.167-1.507.793.105 1.004 1.532 1.348 2.431.423 1.136.978 1.85 1.427 2.432 1.612.026 1.242 2.008 1.507 3.356 1.215-.687 2.352-1.56 2.484-3.172.054-.766-.397-1.823-.37-2.907 0-.766.264-1.506.079-2.14-.238-.793-1.48-1.322-1.507-2.22-.054-.793 1.058-2.458 1.507-3.198 1.057-1.718 2.378-2.722 4.466-3.066.555-1.876.318-3.647.952-5.154.713-1.665 3.224-1.77 3.911-3.435-2.775-3.172 1.797-4.652 3.7-5.788-1.295-2.088.344-4.652 1.057-7.11.555-2.06.899-4.017.846-6.527.45-.74 1.216-1.427 1.982-2.035.714-.582 1.903-1.216 1.824-1.982-1.269-.08-2.3-.185-3.436-.37-.951-.133-2.484-.767-3.145-.74-1.48.079-1.797 1.85-3.41 1.955-.66-4.89-2.96-8.166-5.417-11.285 1.744-4.466 3.673-8.774 3.7-14.932 4.916.212 8.985-.396 11.126-2.907.687-1.797 1.507-3.885 1.612-6.237.08-1.507-.079-4.176-.555-5.312-.21-.529-.898-1.057-1.427-1.692-.475-.581-.872-1.295-1.348-1.876-.951-1.216-2.193-2.352-2.933-3.436-2.379-3.568-.846-7.532 1.057-9.91.238-.317.872-.687.661-.925-3.541.211-6.396 2.431-5.894 6.158.159 1.162 1.163 1.929.74 3.171-3.435-2.194-7.294-6.184-8.272-11.02-.766-3.86 1.057-9.013 3.806-10.07 1.559-.608 2.986-.502 4.202-1.03 4.255-1.93 6.924-9.356 3.885-14.378.105-2.722 1.163-4.466 3.145-5.312-.846-1.057-1.77-2.326-3.727-2.061-1.215.158-2.272 1.268-3.118 2.325-.925 1.163-1.348 2.59-1.427 4.123-.132 2.537 1.004 4.414 1.797 6.343-1.639-.317-1.507-2.458-2.194-3.832-.29-.634-1.004-.925-1.136-1.586-.08-.476-.027-1.11 0-1.48.45-5.1 5.233-7.876 7.981-10.571.529-4.44-3.594-3.806-3.488-7.533.079-3.224 5.26-5.444 2.458-8.8-1.48-.37-2.3-.185-3.436-.635-3.356-1.374-3.04-7.902.872-7.928 2.273-.027 2.67 2.22 3.885 3.435 1.084-.026 1.824 0 2.484-.449.45-.344 2.088-3.383.37-3.277-1.242.08-.29 2.563-2.087 2.326-1.137-1.454-1.745-2.723-3.33-3.251-3.833-1.322-6.396 3.013-6 6.237.238 1.797 1.718 3.726 3.436 4.308 1.136.37 2.854.106 3.224.846.555 1.03-1.453 2.907-1.876 3.541-1.85 2.564-1.77 5.444.37 7.638.45.475 2.035 1.638 1.691 2.907-.132.502-1.453 1.321-1.982 1.77-2.246 1.877-3.885 3.7-5.338 6.159-.793-1.058.713-5.894-.661-6.053-.767-.105-.899 1.005-.952 2.035-.158 3.463 1.005 6 .397 8.696-1.401 1.03-3.251 1.163-4.387 2.405-1.005 1.136-1.639 3.224-1.322 5.523.265 1.85 1.85 3.198 2.564 4.942.264.661.607 1.586.475 2.326-.079.476-.713 1.19-1.057 1.692-1.136 1.77-2.167 3.435-2.352 6.052-.317 4.308 2.458 7.188 4.36 9.805 1.772 2.431 3.78 4.492 6.476 5.338.105 1.11.37 2.035.555 3.066-2.194-.238-3.515 4.704-1.137 4.757.45-.846-.079-2.22.767-2.51.502-.186 1.532.29 1.797.449 1.691.977 3.673 3.012 3.7 5.787.054 1.797-.502 3.251-.767 4.678-3.541 2.458-8.113-.317-10.81-1.77-3.17-3.463-5.866-7.717-7.902-12.686-.898-2.194-2.008-4.017-1.982-6.634 0-3.092.661-7.11.661-10.36-.027-2.854-.687-4.36-1.903-5.972-.475-.634-1.559-1.374-1.612-2.14-.264-3.384 4.176-.133 5.682-.477 1.613-.37.423-2.484-.079-3.462-.449-.872-1.03-1.665-1.242-2.325-1.242-3.991-.872-9.145 1.718-11.391 1.163-1.005 2.59-1.533 4.36-1.956-.554-2.193-2.246-3.753-2.933-5.497 1.295-.08 2.326.132 3.594.08.344-3.304-.792-5.18-1.902-7.084.819-1.823 1.638-3.515 1.823-5.788.317-4.387-2.273-7.346-3.911-9.99.845-1.083 2.325-1.295 3.435-2.061 1.11-.767 1.877-1.718 2.564-2.881-3.568-.185-4.202-3.224-7.241-3.938.66-1.11 2.035-1.48 2.008-3.25-3.568 1.585-8.06.079-11.787-.37-1.374-.186-3.066-.476-4.281-.291-1.137.158-3.463 1.11-4.07 2.246-.502.846-.37 1.824-.211 3.092-1.64.08-3.78-.317-4.731.45-.159.925.396 1.136.37 1.955-1.877-.052-2.51 1.93-1.903 3.462.238.608 1.03 1.058 1.427 1.771.397.714.344 1.454.952 1.586 5.946-1.903 10.254 2.537 10.73 8.034-.9-.766-1.666-1.665-2.564-2.537-.82-.793-1.745-2.009-2.749-2.431-2.008-.82-4.968.079-7.32-.45-3.225-.713-4.07-5.312-7.32-5.682-1.957-.238-2.75 1.322-2.564 2.96.343 3.594 4.149 6.132 7.876 6.449m-26.218 49.29c-.054-1.824-1.215-2.485-1.823-3.727 1.533-.317 3.33-.555 4.387.45.396.396 1.057 1.373 1.03 1.955-.026 1.242-2.114 2.246-3.594 1.321m-3.541 10.915c-.423.027-.634-.449-1.136-.555-1.348-.29-2.96.502-3.991.74-.08-3.224 1.348-4.942 4.757-4.757.846.82.846 3.304.37 4.572m9.145 13.162c-3.753.66-4.335-2.511-4.943-5.233 1.983-.159 4.308-.212 5.418.74-.74 1.03-1.242 3.092-.475 4.493m10.65-10.73c2.194 2.22.846 6.634-2.378 6.713-.054-1.322.237-2.96-.476-3.647.37-1.586.952-2.987 2.854-3.066m20.905 78.306c-.714-.793-1.48-1.533-2.67-1.876.609-1.85 3.621-1.507 4.758-.37-.08.978-.925 1.982-2.088 2.246m-.766 10.73c-.106.529-.952.925-1.322 1.48-.66 1.004-.713 1.982-.846 3.092-2.775-1.083-2.325-6.131-.105-7.453 1.295.344 2.537 1.533 2.273 2.88m5.708 7.084c-.634 1.057-.554 2.352-.475 3.832-3.145-.714-3.383-5.26-1.137-7.189 1.665-.132 2.987.846 2.855 1.982-.08.503-.846.74-1.243 1.375m12.554-5.603c.476 1.638.265 3.858-.951 4.228-.159-1.03-.211-2.167-1.137-2.431.397-.899.925-1.665 2.088-1.797M372.735 80.12c-.054-1.348.978-1.85 2.193-2.062 1.903-.317 3.278.397 3.436 1.665.344 2.987-5.47 2.987-5.63.397m-15.01 5.021c2.695 1.057 3.25 4.784 6.474 5.524 2.009.45 5.154-.238 7.03.37.978.29 2.115 1.638 2.934 2.431.978.899 1.85 1.956 2.484 2.881-.607.238-1.374.344-2.008.555-1.057-1.163-.793-2.246-2.088-3.066-2.484-1.585-5.762-.396-9.99-.766-3.013-.238-5.524-1.718-6.74-3.911-.74-1.375-1.215-5.233 1.903-4.018"/><path d="M374.148 80.014c.027.74.528 1.48 2.008 1.295.423-.37.793-.555.846-1.11.265-2.167-2.854-1.93-2.854-.185M371.78 213.663c.502-.185.898-.528 1.427-.74.951 2.062 2.193 4.308 5.127 4.123-.29-.74-1.084-.978-1.533-1.506-.528-.635-1.136-1.665-1.506-2.617-.423-1.004-1.031-2.299-1.057-3.171-.055-.978.422-2.273.58-3.357.185-1.242.37-2.51.37-3.647-.026-3.25-2.457-5.047-4.466-6.527-.633-.476-1.559-1.031-2.484-1.692-.713-.502-2.035-1.268-2.273-1.85-.264-.634-.237-1.744-.29-2.537-.106-2.088.105-4.493.396-6.052 3.858-.212 6.131-.687 8.536-1.956 2.616-1.4 3.964-4.281 6.66-5.338-.396-2.009-.37-4.202-1.136-5.973-.45-1.03-1.269-1.877-2.009-2.802-.713-.925-1.665-2.167-2.643-2.325l-.29.29c.053 2.009 2.299 2.432 2.378 4.176.027.74-.767 1.427-.661 2.247.105 1.03 1.56 1.295 1.612 2.246-1.586.159-3.277-.951-2.854-2.616.132-.555.978-.688 1.057-1.295.132-1.11-1.057-1.64-1.242-2.617-1.507 1.982-3.489 3.489-5.894 4.572-2.722-.634-5.629-1.163-8.853-.925-4.123.264-7.215 1.797-9.594 3.99-2.432 2.274-3.859 5.207-5.339 8.22-2.907.528-5.206.238-7.215-.925-1.189-.714-2.088-1.744-3.409-2.14-1.136-.344-3.224-.582-3.726.37.634.528 1.559.131 2.193.37.872.29 1.639 1.717 2.194 2.51.713 1.057 1.348 1.956 1.982 2.722 1.56 1.612 4.598 1.77 7.506 2.061.687 2.564 1.189 4.15 3.066 5.313 2.457 1.532 6.342 1.162 8.536 2.88.687.555 2.537 2.802 2.378 4.017-.105.846-1.506 1.665-1.902 1.956-2.273 1.85-4.573 3.568-6.264 5.524-1.956 2.22-3.171 4.519-4.757 7.003-.502.793-.978 1.983-1.612 2.326-2.405 1.269-2.855-2.51-3.806-4.017-.74-1.19-2.009-2.933-3.145-3.647-1.612-1.03-3.62-.502-4.942.29-.529.318-1.374.635-1.242 1.031 2.933.37 3.356 2.485 4.493 4.572.713 1.296 2.325 1.93 2.061 3.542-1.903.08-3.78-.899-5.682-.37-.37.106-.529.45-1.137.74-.317.159-.951.211-1.242.37-2.458 1.427-3.858 4.916-1.718 7.189.185.21.555.607.767.475.264-2.299 2.326-3.303 4.651-3.277 1.612-.581 2.934-1.903 4.202-2.51-.449 2.563-2.405 3.62-2.59 6.421-3.726.608-4.889 8.51.291 8.405 0-1.797-.027-3.013.661-4.017.978-1.322 3.04-1.269 3.991-2.22 1.374-1.375.45-4.387 1.824-5.894 2.801-.819 2.669 1.295 3.594 2.907.344.555 1.242 1.11 1.533 1.771.607 1.295.343 3.224-.106 4.387 3.78-.396 3.7-4.81 3.515-8.219-.054-1.348-2.405-1.77-2.167-2.88.899-.133 1.718-.37 2.564-.582.74.37 1.057 1.163 2.193 1.137.74-.529.634-1.877.846-2.908.581.053 1.19.08 1.718.185.396.74.29 1.956 1.136 2.247.397-.634.608-1.454.846-2.326.238-.846.634-1.638.872-2.431.423-1.454.423-2.696 1.692-2.881.687.159 1.189.766 1.427 1.295.238.45.29 1.824 1.057 1.691.555-.105.396-.977.66-1.691.212-.581 2.089-3.859 2.855-3.911 1.718-.159 3.145 3.515 4.757 2.88a20.222 20.222 0 0 1-3.515 13.453c-.555.766-1.506 2.114-2.193 2.22-1.665.317-3.621-.952-4.467-2.036.186-.607 1.137-.845.846-1.585-1.4-.608-2.14.925-1.982 2.035.238 1.77 2.695 2.458 4.07 2.986-2.062 1.93-7.162 1.348-11.391 1.586-2.061.132-4.52.66-5.339 1.586-1.215 1.453.106 3.277.767 4.202-3.938.793-6.184 2.748-8.272 5.418-2.484 3.198-4.52 7.215-4.176 13.082.397 6.792 4.678 11.205 11.021 11.655 4.863.344 8.352-1.876 9.594-5.603.29-.845.925-2.537-.74-2.616-.687 1.19-.529 2.51-.952 3.568-.951 2.405-3.911 3.726-6.95 3.726-6.052 0-9.884-4.255-10.175-10.36-.264-6.21 1.269-9.25 4.097-12.685 1.85-2.247 3.99-5.075 7.796-5.233.767-.053 1.639.396 1.797-.582-.184-.528-1.11-.343-1.612-.634-.766-.45-1.321-1.612-1.03-2.616.502-1.797 3.779-1.877 5.867-1.877 5.233 0 9.276-.185 12.078-2.616 4.308-3.674 8.192-11.735 5.444-19.134m-38.242 10.36c-2.115.475-4.123 1.03-4.731 2.986-2.564-2.379 1.639-8.246 4.36-5.392.476.503.661 1.401.37 2.405m1.534 12.342c-2.458-.052-2.855-3.62-1.322-5.602 1.163-1.586 4.017-2.115 4.07.74-2.008.475-2.88 2.563-2.748 4.863m1.427-21.302c-.846-1.559-1.692-3.118-3.515-3.726 1.876-1.876 5.391-.634 6.184 1.4-.237 1.428-.793 2.511-2.67 2.326m13.611 12.316c.397 2.405-.21 5.1-1.823 5.524.238-1.56 0-3.278-.767-4.123.265-1.057 1.084-1.824 2.59-1.401"/><g fill="#fff"><path d="M292.486 321.042h-8.484c-5.655.423-17.39.925-28.093.634-.766 0-1.639-.026-2.537-.053-8.404-.185-20.72-.317-20.985-.37l-17.337-.211c-5.18 0-12.474.872-12.474 6.871 0 5.286 11.496 3.832 11.496 18.632v60.337c0 18.34-11.708 18.816-11.998 24.525-.502 9.91 11.179 9.303 14.482 9.303h24.975c4.89 0 8.827-.106 11.84-.66 5.339-.926 7.823-3.12 7.638-8.167-.132-3.62-3.938-4.572-7.638-6.158-3.488-1.48-6.845-3.567-6.845-9.038v-25.503c0-3.885 3.013-6.607 6.845-7.215.529-.106 1.084-.132 1.639-.132 15.354 0 9.012 19.61 15.487 19.61 6.792 0 8.51-19.717 8.51-20.113v-16.2c0-6.608-3.356-13.241-7.506-13.241-7.48 0 .502 15.698-15.487 15.698-.899 0-1.771-.079-2.643-.21-4.308-.635-7.85-3.014-7.85-8.616v-3.912c0-16.914 4.282-19.927 7.85-21.407.581-.238 1.136-.45 1.638-.66h14.51c17.495 0 18.473 16.675 25.978 16.675 1.903 0 6.475-2.801 6.475-6.871v-3.938s-4.175-19.61-9.487-19.61M139.107 337.293c7.929-.106 16.888 2.749 22.966 11.787 8.193 12.051 10.651 18.632 16.492 18.632 6 0 11.998-3.647 11.998-16.2 0-3.33-3.964-25.98-12.5-25.98h-11.496c-3.145-3.54-16.227-7.372-20.985-7.372-2.379 0-2.801-.185-6.977 0-9.434.449-28.675 3.092-41.81 18.156-15.302 17.549-13.584 42.075-13.161 48.074 1.427 19.293 14.985 48.496 47.175 53.227 8.827 1.321 12.474 1.4 22.2.45 26.402-2.617 35.043-21.355 35.043-31.134 0-4.942-3.541-5.576-3.99-5.867-5.154 5.788-16.65 11.39-25.768 11.39-9.224 0-18.42-5.311-22.623-8.35-11.259-8.14-20.006-24.447-18.025-45.987 1.216-12.924 14.245-20.72 21.46-20.825M410.074 401.33c-5.154 5.762-16.65 11.391-25.742 11.391-9.25 0-18.447-5.312-22.65-8.352-11.258-8.14-20.006-24.446-17.997-45.985 1.189-12.924 14.245-20.72 21.433-20.826 7.929-.132 16.888 2.749 22.966 11.761 8.193 12.078 10.651 18.632 16.492 18.632 6 0 11.998-3.62 11.998-16.174 0-3.33-3.964-25.979-12.5-25.979h-11.47c-3.172-3.541-16.254-7.373-21.011-7.373-2.379 0-2.775-.185-6.977 0-9.435.45-28.675 3.092-41.81 18.156-15.302 17.55-13.584 42.048-13.135 48.074 1.401 19.267 14.959 48.496 47.15 53.227 8.826 1.295 12.5 1.4 22.199.45 26.402-2.617 35.044-21.382 35.044-31.134 0-4.942-3.541-5.576-3.99-5.867M174.695 276.618V64.771c-13.03-2.749-25.187-6.026-36.181-9.409v221.259zM248.373 276.618V72.456c-9.17.106-18.235-.237-27.062-.898v205.061zM91.544 37.782c-8.325-3.726-13.003-6.21-13.003-6.21l-51.43 81.134s5.788 8.906 14.14 32.612c7.161 20.35 18.71 63.746 7.532 131.296h42.76zM78.148 482.668c13.4 10.597 27.248 17.786 38.322 21.883 22.306 8.192 78.015 30.102 100.295 43.766 12.817 7.85 24.71 21.46 32.507 31.582v-97.23zM352.362 77.213c1.85-2.775-.475-5.709-2.67-6.713 0 1.876-.157 3.62-1.136 4.572.529 1.4 1.771 3.066 3.806 2.14M342.078 73.194c-.396-2.167-2.722-3.04-5.418-2.432.634.952 2.115 1.85 2.194 3.648 1.48.317 2.722-.265 3.224-1.216M332.674 83.924c.766-1.11.899-3.198.476-4.757-3.093-1.03-6 .344-6.185 2.907 2.617-.449 4.652.45 5.709 1.85M374.148 93.464c-.82-.793-1.956-2.14-2.934-2.432-1.876-.607-5.021.08-7.03-.37-3.224-.74-3.78-4.466-6.475-5.523-3.119-1.19-2.643 2.643-1.903 4.017 1.004 1.797 2.907 3.066 5.207 3.62.184.054.343.08.528.106.344.053.661.16 1.004.185 1.216.106 2.352.08 3.41.027h.054c2.616-.132 4.757-.397 6.527.74 1.296.82 1.031 1.903 2.088 3.066.634-.212 1.401-.318 2.009-.555a17.393 17.393 0 0 0-2.484-2.881M334.23 90.852c-.793 1.375-3.594 1.058-5.233.661.793 2.564 2.749 4.467 6.555 3.806.554-1.797-.106-3.832-1.322-4.467M334.298 139.295c.608 1.242 1.77 1.93 1.823 3.726 1.48.925 3.568-.08 3.595-1.295.027-.608-.634-1.586-1.031-1.982-1.057-1.004-2.88-.766-4.387-.45M327.464 154.118c1.031-.237 2.643-1.03 3.991-.74.502.106.714.582 1.163.555.45-1.268.45-3.752-.397-4.572-3.409-.185-4.836 1.533-4.757 4.757M349.994 163.076c3.224-.08 4.572-4.493 2.379-6.713-1.93.08-2.485 1.507-2.855 3.066.714.687.423 2.352.476 3.647M336.801 161.865c.608 2.722 1.19 5.894 4.942 5.233-.766-1.4-.264-3.462.476-4.466-1.11-.978-3.436-.925-5.418-.767M333.012 211.336c1.824.608 2.67 2.14 3.515 3.726 1.877.185 2.432-.898 2.67-2.325-.793-2.035-4.308-3.278-6.185-1.401M328.818 227.012c.608-1.956 2.616-2.51 4.73-2.986.291-1.005.106-1.903-.37-2.432-2.696-2.828-6.924 3.04-4.36 5.418M347.49 228.805c.767.846 1.005 2.564.767 4.096 1.586-.422 2.22-3.118 1.797-5.497-1.453-.449-2.299.317-2.563 1.401M333.757 230.76c-1.507 2.009-1.137 5.55 1.321 5.603-.132-2.3.74-4.387 2.749-4.863-.055-2.854-2.908-2.325-4.07-.74M370.63 232.797c1.189.343 1.929 1.083 2.669 1.876 1.163-.238 2.008-1.268 2.088-2.246-1.137-1.137-4.15-1.48-4.757.37M370.224 242.526c-2.22 1.321-2.67 6.37.105 7.453.132-1.11.185-2.088.846-3.066.396-.581 1.242-.978 1.321-1.506.265-1.348-.978-2.537-2.273-2.881M388.694 248.683c.925.264.978 1.4 1.136 2.431 1.216-.37 1.428-2.59.952-4.228-1.163.132-1.692.898-2.088 1.797M376.651 249.13c-2.246 1.928-2.008 6.474 1.136 7.188-.079-1.48-.158-2.775.476-3.806.397-.66 1.163-.899 1.242-1.4.159-1.137-1.189-2.115-2.854-1.983"/></g><path d="M134.777 276.618V54.196c-16.28-5.18-29.758-10.545-39.457-14.747V276.62zM217.522 276.618V71.245a356.182 356.182 0 0 1-39.088-5.708V276.62z" fill="#009cde"/><path d="M264.137 584.762c7.823-10.756 23.68-30.05 46.435-45.563 33.433-22.808 76.297-25.292 114.226-51.06a309.28 309.28 0 0 0 7.743-5.47H264.136z" fill="#009930"/><path d="M460.072 188.184c2.775-44.691 26.931-80.235 26.931-80.235l-52.936-79.341S354.435 66.427 265.06 71.87v204.744h201.015c-4.519-26.693-7.876-58.407-5.999-88.428M328.7 78.508c1.453-.66 3.013 0 4.572 0 .793.027 1.48-.264 2.167-.185 2.88.37 3.7 3.225 4.387 5.603.581-.555 1.374-1.216 1.242-2.51-.21-1.718-2.828-2.67-3.145-4.678-.132-.767.344-1.956.185-2.881-.291-1.665-2.616-2.484-2.749-3.647 2.062-.212 4.467-.582 5.788.29.899.582 1.005 1.692 1.612 2.696.793 1.269 1.745 1.85 2.009 3.172.396 2.114-1.77 4.704.476 6.263 2.51-1.665.634-5.365 1.982-7.664.317-.476 1.215-.74 1.453-1.216.502-1.03.238-3.515.37-4.572h.08c1.585 1.454 4.572 2.51 4.677 5.524.027 1.163-.58 1.744-.766 2.986-.238 1.48.237 2.855-.661 3.436-.793.529-1.77.08-2.67.396-.977.317-2.272 2.194-2.748 3.436-1.797 4.625 2.035 7.241 4.36 9.33.952.871 3.542 2.986 3.516 4.492 0 .476-1.004 1.348-1.507 1.876-.58.582-1.242 1.348-1.427 2.141-.58 2.379.608 3.885 1.031 5.973-1.321-.45-1.269-2.854-3.04-2.616-.871.105-1.4 1.691-1.506 2.616-.264 2.273.74 4.599.66 6.634-.924-.635-2.272-1.137-2.854-2.168-.449-.74-.502-1.612-.951-2.325-1.084-1.692-3.198-2.564-3.7-4.678 1.321-.185 1.903-1.586 2.273-2.405-.925-2.247-4.44-1.956-4.942-4.572.978-.185 2.352 0 3.039-.476.476-.925.581-2.484.185-3.541-.238-.661-1.189-1.983-1.903-1.983-1.057.027-2.14 2.115-3.409 2.538-4.625 1.506-8.219-1.348-8.853-5.233 1.374.158 3.118 1.004 4.757.555.951-.265 1.189-1.401 1.902-1.85.846-.555 2.617-.555 2.67-1.586.054-1.454-3.172-1.691-4.282-2.352-.845-.502-1.374-1.692-2.273-2.14-1.215-.609-3.409-.741-4.968-.265.714-1.665 1.216-3.594 2.96-4.414M366.333 232.8c-2.801 2.432-6.845 2.616-12.05 2.616-2.115 0-5.392.08-5.894 1.877-.291 1.004.264 2.167 1.03 2.616.502.291 1.427.106 1.612.635-.132.977-1.03.528-1.797.581-3.805.132-5.946 2.987-7.797 5.206-2.827 3.463-4.36 6.502-4.096 12.713.291 6.105 4.123 10.36 10.175 10.36 3.04 0 6-1.322 6.95-3.727.423-1.057.265-2.379.952-3.568 1.665.08 1.03 1.77.74 2.616-1.242 3.727-4.73 5.947-9.594 5.603-6.343-.45-10.624-4.863-11.02-11.655-.344-5.867 1.69-9.884 4.175-13.082 2.088-2.67 4.334-4.625 8.272-5.418-.66-.925-1.982-2.749-.767-4.202.82-.925 3.278-1.454 5.339-1.586 4.255-.238 9.33.344 11.39-1.586-1.374-.502-3.831-1.215-4.07-2.986-.158-1.11.609-2.643 2.01-2.035.264.74-.688.978-.873 1.586.846 1.083 2.802 2.352 4.467 2.035.687-.106 1.638-1.454 2.193-2.22a20.22 20.22 0 0 0 3.515-13.453c-1.612.635-3.04-3.039-4.757-2.88-.766.052-2.643 3.33-2.854 3.911-.265.714-.106 1.586-.661 1.665-.767.159-.82-1.216-1.031-1.665-.265-.529-.766-1.136-1.454-1.295-1.268.159-1.268 1.427-1.691 2.88-.238.794-.634 1.586-.872 2.432-.211.872-.45 1.692-.846 2.326-.846-.29-.74-1.507-1.136-2.247-.529-.105-1.137-.132-1.718-.185-.211 1.031-.106 2.379-.846 2.908-1.163.026-1.453-.767-2.193-1.137-.846.212-1.639.45-2.564.582-.238 1.11 2.114 1.532 2.167 2.88.186 3.41.265 7.823-3.515 8.22.45-1.164.687-3.093.106-4.388-.291-.66-1.19-1.216-1.507-1.77-.951-1.613-.819-3.727-3.62-2.908-1.375 1.507-.45 4.52-1.824 5.894-.951.951-3.013.898-3.99 2.22-.688 1.004-.662 2.22-.662 4.017-5.18.106-4.017-7.796-.29-8.404.185-2.802 2.14-3.859 2.59-6.423-1.27.608-2.59 1.93-4.203 2.511-2.325-.026-4.36.978-4.651 3.277-.211.159-.555-.264-.767-.475-2.14-2.273-.74-5.762 1.718-7.189.291-.159.925-.211 1.242-.37.582-.29.767-.634 1.137-.74 1.903-.529 3.78.45 5.708.37.239-1.612-1.374-2.246-2.087-3.541-1.163-2.088-1.56-4.203-4.493-4.573-.132-.396.713-.713 1.242-1.03 1.321-.793 3.356-1.322 4.942-.291 1.136.714 2.405 2.458 3.145 3.647.951 1.507 1.4 5.286 3.806 4.017.634-.343 1.11-1.533 1.612-2.352 1.586-2.458 2.801-4.757 4.757-6.977 1.691-1.955 3.99-3.673 6.264-5.523.396-.291 1.797-1.11 1.902-1.956.159-1.216-1.691-3.462-2.378-4.017-2.194-1.718-6.079-1.348-8.537-2.88-1.876-1.164-2.378-2.75-3.065-5.313-2.907-.29-5.947-.45-7.506-2.061-.634-.767-1.269-1.665-1.982-2.722-.555-.793-1.322-2.194-2.194-2.511-.634-.238-1.56.158-2.193-.37.475-.952 2.59-.714 3.726-.37 1.321.396 2.22 1.427 3.41 2.14 2.008 1.163 4.307 1.454 7.24.926 1.454-3.013 2.881-5.947 5.313-8.22 2.378-2.193 5.47-3.726 9.594-3.99 3.224-.238 6.13.29 8.853.925 2.405-1.084 4.387-2.59 5.894-4.572.185.978 1.374 1.506 1.242 2.616-.08.608-.925.74-1.057 1.295-.423 1.665 1.268 2.775 2.854 2.617-.054-.952-1.507-1.216-1.612-2.247-.106-.819.687-1.506.66-2.246-.078-1.744-2.325-2.167-2.378-4.176l.291-.29c.978.158 1.93 1.4 2.643 2.325.74.925 1.56 1.77 2.009 2.801.766 1.771.74 3.965 1.136 5.973-2.696 1.057-4.044 3.938-6.66 5.339-2.405 1.268-4.678 1.744-8.536 1.956-.291 1.585-.502 3.964-.397 6.052.054.793.027 1.903.291 2.537.238.581 1.56 1.348 2.273 1.85.925.66 1.85 1.216 2.484 1.691 2.009 1.48 4.44 3.277 4.467 6.528 0 1.137-.185 2.405-.37 3.647-.159 1.084-.634 2.379-.582 3.357.055.872.634 2.167 1.058 3.171.37.951.977 1.982 1.506 2.616.45.529 1.242.767 1.533 1.48-2.934.212-4.176-2.035-5.154-4.096-.502.211-.898.555-1.4.74 2.748 7.4-1.137 15.461-5.445 19.134m44.876-63.64c-.106 2.353-.925 4.44-1.612 6.238-2.167 2.51-6.211 3.118-11.126 2.907-.028 6.158-1.956 10.466-3.7 14.932 2.457 3.118 4.757 6.395 5.417 11.285 1.613-.106 1.93-1.876 3.436-1.956.634-.026 2.167.608 3.119.74 1.136.185 2.167.291 3.435.37.08.767-1.11 1.401-1.823 1.982-.767.608-1.533 1.296-1.982 2.035.079 2.511-.291 4.467-.872 6.555-.66 2.431-2.326 4.995-1.031 7.083-1.903 1.136-6.475 2.616-3.7 5.788-.687 1.665-3.198 1.77-3.912 3.435-.634 1.507-.396 3.277-.951 5.154-2.088.343-3.436 1.348-4.466 3.066-.45.74-1.56 2.405-1.507 3.197.027.9 1.269 1.428 1.507 2.22.184.635-.106 1.375-.106 2.141 0 1.084.476 2.14.397 2.907-.132 1.612-1.27 2.485-2.458 3.172-.291-1.348.079-3.33-1.533-3.357-.45-.581-1.005-1.295-1.427-2.431-.344-.899-.555-2.326-1.348-2.432-.978-.105-1.375 1.163-2.167 1.507-.159 2.246-.502 3.726-1.533 5.021-.581.767-1.665 1.084-2.273 1.877-.872 1.136-.528 2.616-.476 4.757-1.374-.555-2.458-.925-3.224-1.85-1.665-1.982-.793-5.55.925-7.294 1.084-1.084 2.986-1.19 3.145-2.696.106-1.03-.766-1.797-1.136-2.246-1.137.845-1.639 1.955-3.04 2.51-.66.265-1.453.132-2.193.37-1.745.635-1.85 2.855-2.088 5.048-1.612-.898-3.277-2.405-3.33-4.572-.027-1.718 1.11-4.07 2.484-4.863 1.665-.951 3.62-.793 6.158-.925-.476-1.691-2.643-2.405-3.304-4.281-.158-.397-.054-.925-.21-1.322-.45-1.215-1.903-1.718-3.12-2.061-.078-.317.292-.74.556-1.004.554-.608 1.4-1.348 2.484-1.401 1.242-.08 2.431.951 3.594 1.48.423.185.899.158 1.137.37 1.057.898.554 3.515 1.929 4.202 1.638.846 3.885-.899 4.466-1.956.45-.845.608-2.14.952-3.277 2.114-7.347 3.858-15.487 8.748-20.139-2.062-.396-3.753-.977-4.942-2.431-.714-.846-.978-1.903-1.718-2.431-1.903-1.296-6 .105-6.185-3.172.925-.766 3.04-.396 4.467-.66.105-3.886-1.11-6.502-2.934-8.59-.634-.687-1.453-1.242-1.902-1.955-2.38-3.674-.159-9.25 1.982-11.761-.291-4.255.158-7.929-1.533-10.73-1.401-2.378-3.436-4.995-5.312-7.004-1.93-2.088-4.52-3.753-7.136-5.233-2.67-1.506-5.656-2.484-8.457-3.911.158-1.824 1.057-2.828.951-4.572-.054-.925-.82-1.718-.846-2.617-.027-1.48 1.745-2.801 2.67-3.647 1.215-1.11 2.273-1.876 3.409-2.801-1.427-.212-2.907.581-3.806 1.4-2.008 1.877-3.277 4.89-3.805 8.035-1.243-.264-3.33-.925-4.282.106.027.607.054 1.268-.185 1.665-1.083.74-4.255.052-4.175 1.77.054.978 1.797 1.242 2.458 1.877.687.634 1.876 2.722 2.008 4.017.37 3.303-2.088 4.651-4.942 5.127-.027-1.19.265-2.51 0-3.647-.74-.582-1.216-1.216-2.009-2.035-.449-.502-1.48-1.85-2.352-1.692-.766.133-.978 1.93-1.163 2.802-.21 1.11-.238 2.51-.554 3.356-.397 1.005-1.322 1.295-1.137 2.987.054.66.502 1.321.74 1.876-2.458.66-4.387.106-5.418-1.586-.713-1.242-1.48-3.753-1.506-4.783-.132-3.172 3.145-4.044 2.934-7.083-2.168.185-4.123.555-6.264.74-.502-.027-.634-.687-1.242-.82-1.507-.343-3.383.767-4.387 1.19-.211-2.96.158-4.863 1.823-5.867 1.031-.608 2.115-.37 3.41-.661.58-.106.951-.66 1.638-.74 2.802-.317 4.15 3.885 6.845 1.956-.423-1.401-1.982-1.639-3.066-2.432-.554-.423-1.321-1.057-1.691-1.77-.555-1.058-.132-2.353-.581-3.621-.397-1.19-1.48-2.035-2.088-3.092 2.3-.82 4.572-1.031 5.893.185.661.58.767 1.506 1.322 2.14.238.265.82.45 1.163.767 1.03.951 1.612 3.594 2.933 3.726 2.643.238 2.088-4.255 3.145-5.893.502-.793 1.692-1.507 2.643-1.85.846-.291 1.876-.185 2.88-.582.767-.29 1.666-1.639 2.459-2.51 2.325-2.538 4.678-5.55 5.048-9.7-2.802 3.726-4.123 8.906-8.193 11.39-.82-2.298-4.784-1.85-7.585-2.43-2.51-.53-4.387-1.56-5.63-3.463-2.404-1.586-3.54 1.005-4.941 2.062-.925-1.692 0-2.907 1.057-4.123.528-.582 1.638-1.454 1.718-2.035.131-1.19-1.718-2.67-2.3-3.462-1.559-2.115-2.193-4.916-.951-7.93.238-.528.581-2.14 1.533-1.875.528.158.608 2.008.845 3.17.423 2.089 1.084 4.705 3.251 4.864 1.057.08 1.744-.344 2.564-.925-.555-1.982-2.115-2.987-1.824-5.788 1.797.581 2.67 2.854 5.339 2.88.317-.898.37-2.114.475-3.25 1.322.66 2.194 2.22 4.176 1.956-.054-2.617-1.56-6.819.08-9.145.977 1.348 1.003 3.647 3.54 3.436.767-2.273-1.242-4.572-1.057-6.792.132-1.533 1.19-2.67 2.379-3.462.978 1.797 1.03 4.519 3.515 4.862.687-2.457-1.639-5.629.766-7.003.925 3.33 4.044 6.448 7.427 6.607 2.802.158 6.422-2.353 3.594-4.387-.74-.53-2.114-.635-2.378-1.48-.211-.74.396-1.19.687-1.956.211-.66.054-1.4.634-1.692 1.903.159 2.484 1.639 4.281 1.877-.184-.925-.66-2.247-1.506-2.802-2.22-1.48-6.184-.317-9.805-.66-3.726-.344-7.532-2.855-7.876-6.449-.158-1.639.581-3.198 2.564-2.96 3.25.37 4.122 4.969 7.32 5.682 2.352.529 5.312-.343 7.32.45 1.005.422 1.93 1.638 2.75 2.43.898.873 1.69 1.772 2.563 2.538-.476-5.497-4.784-9.937-10.73-8.034-.607-.132-.555-.872-.951-1.586-.397-.714-1.19-1.163-1.427-1.77-.634-1.534.027-3.516 1.902-3.463.027-.82-.528-1.03-.37-1.956.952-.766 3.092-.37 4.731-.449-.158-1.268-.265-2.246.211-3.092.634-1.136 2.934-2.061 4.07-2.246 1.216-.185 2.88.105 4.281.29 3.727.476 8.193 1.956 11.788.37.027 1.771-1.348 2.141-1.982 3.251 3.012.714 3.647 3.753 7.214 3.938-.687 1.163-1.453 2.114-2.563 2.88-1.11.767-2.59.978-3.436 2.062 1.612 2.643 4.229 5.603 3.912 9.99-.159 2.273-1.005 3.965-1.798 5.788 1.084 1.903 2.22 3.78 1.903 7.083-1.295.053-2.325-.158-3.62-.08.687 1.745 2.378 3.304 2.933 5.498-1.77.423-3.198.951-4.36 1.956-2.59 2.246-2.96 7.4-1.718 11.39.21.661.792 1.454 1.242 2.326.502.978 1.691 3.092.079 3.462-1.48.344-5.946-2.907-5.709.476.08.766 1.137 1.506 1.639 2.14 1.216 1.613 1.876 3.12 1.903 5.974 0 3.25-.661 7.267-.687 10.36 0 2.616 1.11 4.44 2.008 6.633 2.035 4.968 4.73 9.223 7.903 12.685 2.722 1.454 7.267 4.229 10.835 1.771.239-1.427.793-2.88.74-4.678-.027-2.775-2.008-4.81-3.7-5.788-.264-.158-1.294-.634-1.797-.449-.845.29-.317 1.665-.766 2.51-2.379-.026-1.057-4.994 1.136-4.756-.158-1.031-.449-1.956-.58-3.066-2.67-.872-4.679-2.907-6.45-5.339-1.902-2.616-4.677-5.47-4.36-9.804.158-2.617 1.216-4.282 2.352-6.053.344-.502.978-1.215 1.057-1.691.132-.74-.21-1.665-.475-2.326-.714-1.744-2.3-3.065-2.564-4.942-.317-2.3.317-4.387 1.321-5.523 1.137-1.243 2.987-1.375 4.388-2.405.607-2.696-.555-5.233-.37-8.696.027-1.03.158-2.14.924-2.035 1.375.159-.131 5.022.661 6.052 1.454-2.457 3.093-4.281 5.339-6.157.528-.45 1.85-1.269 1.982-1.771.344-1.269-1.268-2.432-1.691-2.907-2.141-2.194-2.22-5.075-.397-7.638.45-.634 2.458-2.51 1.903-3.542-.37-.74-2.061-.449-3.224-.845-1.718-.582-3.198-2.51-3.436-4.308-.396-3.224 2.167-7.559 6-6.237 1.585.528 2.193 1.797 3.33 3.25 1.797.238.819-2.246 2.087-2.325 1.718-.106.08 2.933-.37 3.277-.66.45-1.4.423-2.484.45-1.216-1.217-1.612-3.463-3.885-3.436-3.912.026-4.202 6.554-.872 7.928 1.136.45 1.955.265 3.435.635 2.802 3.356-2.378 5.55-2.484 8.8-.079 3.7 4.044 3.092 3.515 7.533-2.748 2.695-7.506 5.47-7.981 10.571-.027.37-.106 1.004 0 1.48.158.66.845.951 1.136 1.586.687 1.374.555 3.515 2.194 3.832-.793-1.903-1.956-3.806-1.797-6.343.079-1.533.502-2.96 1.427-4.123.845-1.03 1.929-2.14 3.118-2.326 1.982-.264 2.881 1.005 3.727 2.062-1.982.846-3.066 2.616-3.145 5.312 3.039 5.022.37 12.448-3.912 14.377-1.189.529-2.616.423-4.175 1.03-2.749 1.058-4.573 6.212-3.806 10.07.978 4.837 4.836 8.827 8.272 11.02.423-1.241-.608-2.008-.74-3.17-.502-3.727 2.352-5.947 5.894-6.158.21.238-.423.607-.661.925-1.93 2.378-3.436 6.342-1.057 9.91.74 1.084 1.955 2.22 2.96 3.436.423.581.845 1.295 1.321 1.876.528.634 1.216 1.163 1.427 1.665.476 1.163.634 3.832.555 5.339" fill="#ffeb00"/><path d="M374.892 78.058c-1.216.212-2.246.688-2.194 2.035.159 2.59 5.973 2.617 5.63-.37-.159-1.295-1.533-1.982-3.436-1.665m1.242 3.278c-1.48.158-1.982-.582-2.008-1.322 0-1.744 3.118-1.982 2.854.185-.054.555-.423.74-.846 1.137" fill="#ffeb00"/><path d="M473.062 311.265a563.973 563.973 0 0 1-4.149-19.134H45.901a454.98 454.98 0 0 1-4.651 20.06c-19.055 74.023-15.355 96.275.925 127.648 5.391 10.36 12.05 19.425 19.32 27.327h389.5c15.17-15.09 19.716-28.252 24.844-45.563 8.906-30.181 6.184-72.041-2.776-110.342m-277.813 43.21c0 2.089-.528 5.656-1.982 9.065-1.4 3.33-3.726 6.555-7.426 7.77l-.027.027-.158.079c-.132.053-.318.158-.555.29-.502.238-1.163.53-1.956.846-1.585.635-3.647 1.295-5.629 1.295-2.854 0-5.206-1.215-7.162-3.065-1.956-1.85-3.62-4.361-5.26-7.083-3.277-5.471-6.527-11.893-11.787-16.095-3.488-2.802-7.822-4.652-13.742-4.678-2.643 0-6.924 1.744-10.413 5.127-3.542 3.356-6.343 8.325-6.343 14.747 0 6.528.846 13.267 3.436 18.817v.053s.054.079.132.264c.079.185.21.476.37.82.317.74.819 1.743 1.48 2.986a60.735 60.735 0 0 0 5.92 8.985c5.285 6.528 13.082 12.977 23.389 12.95 6.29 0 10.386-1.665 13.505-3.752 3.145-2.088 5.285-4.625 7.611-6.423 1.56-1.215 3.277-2.087 5.365-2.087 1.269 0 3.33.132 5.206 1.162 1.903 1.031 3.542 3.093 3.912 6.528v.053c.158.899.238 1.77.238 2.59 0 2.432-.555 4.546-.899 6.131-2.114 9.356-5.92 16.836-13.082 22.227-7.162 5.392-17.574 8.616-32.877 9.779-1.691.105-3.383.185-5.048.185-19.504-.027-37.608-8.352-47.862-21.408-8.272-10.466-16.042-22.808-16.016-45.457 0-2.035.055-4.123.185-6.317 1.163-20.006 9.488-33.749 20.244-42.708s23.865-13.161 34.648-14.377c3.092-.344 6.237-.476 9.118-.476 4.467 0 8.326.317 10.414.714 7.188 1.295 10.597 2.933 13.029 4.228 2.458 1.269 3.753 2.088 7.294 2.115h5.497c3.568 0 6.475 1.585 8.748 3.99 2.273 2.405 3.938 5.577 5.18 8.907 2.51 6.686 3.304 13.928 3.304 16.756zm99.74 2.617c-2.008 0-3.7-.66-5.153-1.691-1.454-1.005-2.696-2.379-3.912-3.859-2.431-2.986-4.81-6.395-8.351-8.642-2.352-1.48-5.207-2.484-9.065-2.484h-10.492c-1.322 0-2.035.397-2.59.899-.555.528-.925 1.242-1.322 1.929a3.67 3.67 0 0 1-.74.978c-.105.106-.158.211-.29.29-.239.16-.503.238-.793.291l-.08.106c-.132.238-.29.687-.422 1.295-.291 1.216-.502 3.145-.502 5.735v6.871c0 1.586.079 2.828.343 3.674.291.872.661 1.321 1.348 1.638.106.053.265.08.397.106.449.132.951.238 1.638.238 2.22-.026 3.7-.555 4.757-1.374 1.084-.846 1.797-2.035 2.379-3.462 1.163-2.802 1.612-6.343 3.488-8.933 1.269-1.744 3.304-2.934 6.37-2.907.423 0 .819.106 1.295.29.475.185 1.004.45 1.559.793 1.163.714 2.458 1.745 3.726 3.092 2.538 2.723 4.89 6.819 5.154 12.21.211 4.388.29 8.035.29 11.153a185.9 185.9 0 0 1-.29 10.466c0 1.48-.37 5.021-1.321 8.933-.925 3.911-2.405 8.192-4.784 11.073-1.56 1.93-3.62 3.277-6.132 3.277-2.457 0-4.307-.555-5.682-1.559-1.347-.978-2.167-2.379-2.722-3.885-1.057-2.986-1.11-6.58-1.929-9.33-.555-1.85-1.374-3.276-2.934-4.07-.898-.475-2.087-.766-3.7-.766-.317 0-.74.106-1.162.317-.344.16-.688.37-.978.635-.714.581-1.137 1.321-1.11 1.744v20.588c0 2.088.449 3.568 1.189 4.73.238.424.581.74.899 1.084.607.635 1.268 1.216 2.035 1.665 2.378 1.454 5.417 2.273 7.717 3.965 1.532 1.136 2.722 2.775 2.907 5.127.105 1.242.158 2.273.158 3.145 0 1.4-.132 2.325-.265 3.013-.131.66-.317 1.083-.343 1.268-.581 1.877-1.348 3.489-2.537 4.837-1.19 1.347-2.775 2.378-4.942 3.144-1.322.476-2.908.846-4.731 1.163-4.07.661-9.461.952-16.835.952h-22.464c-4.89 0-9.382-1.507-12.712-3.965-3.33-2.431-5.471-5.84-5.471-9.646 0-1.216.21-2.458.687-3.7 1.638-4.414 4.15-6.079 6.343-7.506 2.22-1.48 4.123-2.722 5.47-6.898.873-2.801 1.428-6.897 1.428-13.16V350.48c0-5.84-1.612-8.959-3.595-11.073-1.982-2.141-4.466-3.251-6.29-4.916-1.215-1.11-2.114-2.59-2.114-4.625v-4.916c.028-.66.291-1.506.846-2.563.581-1.031 1.48-2.22 2.828-3.33 2.643-2.22 6.95-4.15 13.558-4.15l.264.027.45.053c.37.026.872.079 1.453.158 1.19.132 2.749.317 4.308.502 3.119.344 6.29.714 6.554.74h64.91c2.14 0 3.91.397 5.206 1.269 1.215.82 1.929 2.114 2.008 3.62.37.53 1.797 2.643 3.198 5.577 1.665 3.383 3.304 7.876 3.33 12.342v6.37c0 3.54-1.269 6.448-3.41 8.43-2.114 2.009-5.074 3.092-8.325 3.092m126.275-2.352c0 2.088-.528 5.656-1.955 9.065-1.427 3.33-3.753 6.58-7.453 7.77h-.027l-.159.079a5.04 5.04 0 0 1-.554.29c-.476.238-1.163.555-1.956.873-1.586.634-3.62 1.268-5.63 1.268-2.854.027-5.18-1.19-7.162-3.04-1.955-1.875-3.594-4.36-5.259-7.082-3.277-5.47-6.528-11.893-11.76-16.095-3.516-2.801-7.85-4.678-13.77-4.678-2.643 0-6.924 1.718-10.413 5.1-3.542 3.384-6.343 8.352-6.343 14.774 0 6.502.872 13.267 3.435 18.817v.027h.028s.027.105.105.29c.08.185.211.476.37.82.317.713.82 1.744 1.48 2.96 1.322 2.457 3.304 5.735 5.92 9.011 5.286 6.528 13.109 12.977 23.39 12.95 6.29 0 10.386-1.664 13.53-3.752 3.12-2.088 5.26-4.625 7.612-6.422 1.533-1.216 3.25-2.088 5.339-2.088 1.268 0 3.33.132 5.206 1.163 1.903 1.03 3.568 3.092 3.938 6.58h-.027c.158.899.238 1.771.238 2.59 0 2.432-.555 4.546-.899 6.105-2.114 9.382-5.92 16.862-13.055 22.253-7.163 5.392-17.602 8.616-32.904 9.753a65.017 65.017 0 0 1-5.048.211c-19.504-.026-37.608-8.352-47.862-21.407-8.246-10.466-16.042-22.808-16.016-45.458 0-2.008.08-4.123.185-6.316 1.163-20.006 9.514-33.75 20.244-42.709 10.757-8.959 23.865-13.16 34.648-14.377 3.092-.343 6.237-.475 9.118-.475 4.493 0 8.326.317 10.414.687 7.188 1.321 10.597 2.96 13.029 4.228 2.484 1.295 3.753 2.115 7.294 2.141h5.497c3.568 0 6.502 1.586 8.748 3.99 2.273 2.406 3.938 5.577 5.207 8.907 2.484 6.686 3.277 13.928 3.277 16.756z" fill="#009cde"/></g></svg>