<svg width="560" height="547.1pt" version="1.2" viewBox="0 0 420 547.1" xmlns="http://www.w3.org/2000/svg"><defs><clipPath id="a"><path d="M0 127.4h595.27v78.805H0z"/></clipPath><clipPath id="b"><path d="M0 145h595.27v61.203H0z"/></clipPath><clipPath id="c"><path d="M0 176h595.27v30.203H0z"/></clipPath><clipPath id="d"><path d="M0 127.4h200v78.805H0z"/></clipPath><clipPath id="e"><path d="M0 127.4h215v78.805H0z"/></clipPath><clipPath id="f"><path d="M0 127.4h231v78.805H0z"/></clipPath><clipPath id="g"><path d="M0 127.4h246v78.805H0z"/></clipPath><clipPath id="h"><path d="M0 127.4h261v78.805H0z"/></clipPath><clipPath id="i"><path d="M0 127.4h277v78.805H0z"/></clipPath><clipPath id="j"><path d="M0 127.4h307v78.805H0z"/></clipPath><clipPath id="k"><path d="M0 127.4h338v78.805H0z"/></clipPath><clipPath id="l"><path d="M0 127.4h368v78.805H0z"/></clipPath><clipPath id="m"><path d="M0 127.4h399v78.805H0z"/></clipPath><clipPath id="n"><path d="M0 127.4h429v78.805H0z"/></clipPath><clipPath id="o"><path d="M0 127.4h460v78.805H0z"/></clipPath><clipPath id="p"><path d="M0 127.4h490v78.805H0z"/></clipPath><clipPath id="q"><path d="M0 127.4h521v78.805H0z"/></clipPath><clipPath id="r"><path d="M0 127.4h552v78.805H0z"/></clipPath><clipPath id="s"><path d="M0 127.4h582v78.805H0z"/></clipPath><clipPath id="t"><path d="M0 127.4h595.27v78.805H0z"/></clipPath><clipPath id="u"><path d="M0 127.4h595.27v78.805H0z"/></clipPath></defs><g clip-path="url(#a)" fill="#ebebeb" transform="translate(-33.941 -167.73)"><path d="m1437.9-419.55-15.391-15.391-861.62 861.61v.004l-1876.9 1876.9 15.391 15.391 1876.9-1876.9zM1453-404.39l-2738.5 2738.5 15.391 15.391 2738.5-2738.5zM1483.6-373.84l-2738.5 2738.5 15.391 15.391 2738.5-2738.5zM1514.1-343.3 652.48 518.32h.004l-1876.9 1876.9 15.391 15.391 2738.5-2738.5zM1544.7-312.75l-2738.5 2738.5 15.391 15.391 2738.5-2738.5zM1575.2-282.2l-2738.5 2738.5 15.391 15.391 2738.5-2738.5zM1605.8-251.65l-2738.5 2738.5 15.391 15.387 2738.5-2738.5zM1651.7-205.71l-15.391-15.391-2738.5 2738.5 15.391 15.391 1497.1-1497.1 379.8-379.8zM1682.3-175.16l-15.391-15.387-2738.5 2738.5 15.391 15.391zM1712.8-144.61l-15.391-15.391-861.62 861.62-1876.9 1876.9 15.391 15.391 1497.1-1497.1 379.8-379.8zM1743.5-113.7l-15.395-15.391-2738.5 2738.5 15.391 15.391 1110.3-1110.3 386.82-386.82zM1758.6-98.543l-1247.8 1247.8-1490.8 1490.8 15.391 15.391 2738.5-2738.5zM1789.2-67.992l-2738.5 2738.5 15.395 15.391 2738.5-2738.5zM1819.7-37.445l-1628.2 1628.2-1110.3 1110.3 15.391 15.391 2738.5-2738.5zM1850.3-6.894l-2738.5 2738.5 15.391 15.39 2738.5-2738.5zM1880.8 23.652l-2738.5 2738.5 15.391 15.391 2738.5-2738.5zM1911.4 54.203l-2738.5 2738.5 15.395 15.391 2738.5-2738.5zM1957.3 100.14l-15.391-15.391-2738.5 2738.5 15.391 15.391 1111-1111 386.14-386.14zM1987.9 130.69l-15.391-15.391-2738.5 2738.5 15.391 15.387 1497.1-1497.1 380.48-380.48z"/></g><g clip-path="url(#b)" transform="translate(-33.941 -167.73)"><path d="m2018.4 161.24-15.391-15.391-2738.5 2738.5 15.391 15.391 1111-1111 386.14-386.14z" fill="#ebebeb"/></g><g clip-path="url(#c)" transform="translate(-33.941 -167.73)"><path d="m2049.3 191.9-15.391-15.395-2738.5 2738.5 15.391 15.391 1876.9-1876.9z" fill="#ebebeb"/></g><g clip-path="url(#d)" transform="translate(-33.941 -167.73)"><path d="m184.31-1673.1-860.93 860.94-1877.6 1877.6 15.394 15.391 1490.8-1490.8 1247.8-1247.8z" fill="#fff"/></g><g clip-path="url(#e)" transform="translate(-33.941 -167.73)"><path d="m214.98-1642.4-15.391-15.391-2738.5 2738.5 15.387 15.391 1110.3-1110.3z" fill="#ebebeb"/></g><g clip-path="url(#f)" transform="translate(-33.941 -167.73)"><path d="m214.86-1642.6-2738.5 2738.5 15.391 15.395 2738.5-2738.5z" fill="#fff"/></g><g clip-path="url(#g)" transform="translate(-33.941 -167.73)"><path d="m230.13-1627.3-2738.5 2738.5 15.391 15.391 2738.5-2738.5z" fill="#ebebeb"/></g><g clip-path="url(#h)" transform="translate(-33.941 -167.73)"><path d="m245.41-1612-860.93 860.94-1877.6 1877.6 15.391 15.391 2738.5-2738.5z" fill="#fff"/></g><g clip-path="url(#i)" transform="translate(-33.941 -167.73)"><path d="m260.68-1596.7-2738.5 2738.5 15.394 15.391 2738.5-2738.5z" fill="#ebebeb"/></g><g clip-path="url(#j)" transform="translate(-33.941 -167.73)"><path d="M291.23-1566.2-956.57-318.4l-1490.8 1490.8 15.391 15.391 2738.5-2738.5z" fill="#ebebeb"/></g><g clip-path="url(#k)" transform="translate(-33.941 -167.73)"><path d="M321.78-1535.6-1306.42 92.6l-1110.3 1110.3 15.391 15.391 2738.5-2738.5z" fill="#ebebeb"/></g><g clip-path="url(#l)" transform="translate(-33.941 -167.73)"><path d="m352.33-1505.1-2738.5 2738.5 15.391 15.391 2738.5-2738.5z" fill="#ebebeb"/></g><g clip-path="url(#m)" transform="translate(-33.941 -167.73)"><path d="M382.88-1474.5-860.62-231l-384.71 384.7v.004l-1110.3 1110.3 15.391 15.391 2738.5-2738.5z" fill="#ebebeb"/></g><g clip-path="url(#n)" transform="translate(-33.941 -167.73)"><path d="m428.82-1428.6-15.391-15.391-2738.5 2738.5 15.391 15.395 1110.3-1110.3z" fill="#ebebeb"/></g><g clip-path="url(#o)" transform="translate(-33.941 -167.73)"><path d="m459.36-1398.1-15.391-15.391-1628.2 1628.2-1110.3 1110.3 15.391 15.391z" fill="#ebebeb"/></g><g clip-path="url(#p)" transform="translate(-33.941 -167.73)"><path d="m489.91-1367.5-15.391-15.391-2738.5 2738.5 15.391 15.391z" fill="#ebebeb"/></g><g clip-path="url(#q)" transform="translate(-33.941 -167.73)"><path d="m520.57-1336.6-15.391-15.394-1628.2 1628.2-1110.3 1110.3 15.391 15.391 1876.9-1876.9z" fill="#ebebeb"/></g><g clip-path="url(#r)" transform="translate(-33.941 -167.73)"><path d="m535.73-1321.4-2738.5 2738.5 15.395 15.391 2738.5-2738.5z" fill="#ebebeb"/></g><g clip-path="url(#s)" transform="translate(-33.941 -167.73)"><path d="m566.28-1290.9-2738.5 2738.5 15.391 15.391 2738.5-2738.5z" fill="#ebebeb"/></g><g clip-path="url(#t)" transform="translate(-33.941 -167.73)"><g fill="#ebebeb"><path d="m596.82-1260.3-861.61 861.62-1876.9 1876.9 15.387 15.391 2738.5-2738.5zM627.38-1229.8l-2738.5 2738.5 15.391 15.391 2738.5-2738.5zM657.92-1199.2l-2738.5 2738.5 15.395 15.391 2738.5-2738.5zM688.47-1168.7l-2738.5 2738.5 15.391 15.391 2738.5-2738.5zM734.41-1122.8l-15.391-15.391-2738.5 2738.5 15.391 15.394 1497.1-1497.1 380.48-380.48zM764.96-1092.2l-15.391-15.391-2738.5 2738.5 15.391 15.391zM795.51-1061.7l-15.391-15.394-2738.5 2738.5 15.391 15.391 1877.6-1877.6zM826.42-1031l-15.391-15.391-2738.5 2738.5 15.391 15.391 1493.9-1493.9L-35.2-169.37zM841.58-1015.8l-2738.5 2738.5 15.391 15.391 2738.5-2738.5zM872.13-985.29l-2738.5 2738.5 15.391 15.391 2738.5-2738.5zM902.68-954.74l-2738.5 2738.5 15.391 15.391 2738.5-2738.5z"/></g><path d="M933.23-924.2-311.37 320.4l-1493.9 1493.9 15.391 15.391 2738.5-2738.5z" fill="#0c3582"/><path d="m963.78-893.65-2738.5 2738.5 15.391 15.391 2738.5-2738.5z" fill="#f8b000"/></g><g clip-path="url(#u)" fill="#ebebeb" transform="translate(-33.941 -167.73)"><path d="m1345.9-511.31-15.391-15.391-2738.5 2738.5 15.391 15.391zM1376.4-480.76l-15.391-15.391-2738.5 2738.5 15.391 15.391 1111-1111 766.62-766.63zM1407-450.21l-15.391-15.391-2738.5 2738.5 15.391 15.391L165.6 791.19z"/></g><g stroke-width=".295"><path d="M380.839 392.916c21.924-49.13 29.893-104.695 30.714-158.669V58.951C345.186 23.018 275.667 9.356 209.618 9.356c-66.035 0-139.777 16.007-201.817 49.595v175.296c.821 53.977 8.791 109.54 30.715 158.67 24.466 57.114 64.86 104.787 125.878 132.087 14.007 6.354 29.06 11.57 45.185 15.45.04 0 .066-.014.106-.028a.245.245 0 0 0 .106.028c16.125-3.88 31.165-9.096 45.185-15.45 61.019-27.3 101.411-74.973 125.864-132.088" fill="#fff"/><path d="M207.186 359.567V205.86L48.914 365.959c8.857 23.115 20.097 45.29 33.76 65.465l23.79 30.146z" fill="#f8b000"/><path d="M47.816 227.354c-.715.185-1.43.357-2.158.543l-18.575-11.373c.027 18.455.596 39.691 2.397 59.311 2.608 27.55 8.698 56.624 17.846 84.293l.437 2.065 155.57-155.611c-48.519 1.774-104.814 9.121-155.52 20.772" fill="#0c3582"/><path d="M398.056 231.184V73.386c-61.931-33.521-126.804-46.283-188.42-46.283-61.629 0-130.43 14.947-188.31 46.283v163.57c.768 50.346 8.195 102.205 28.662 148.054 22.825 53.288 60.504 97.771 117.443 123.228 13.067 5.944 27.114 10.803 42.165 14.43a.24.24 0 0 1 .093-.027c.026 0 .053.014.092.027 15.053-3.627 29.086-8.486 42.165-14.43 56.929-25.46 94.62-69.957 117.443-123.242 20.454-45.832 27.895-97.69 28.662-148.04 0 0-.013-3.853 0-5.772M113.267 460.178l90.092-89.986v140.414c-36.99-8.023-61.616-25.524-90.092-50.428m-59.416-94.141L203.359 216.05v139.421l-97.308 97.294-21.58-27.352c-12.39-18.296-22.585-38.42-30.621-59.378m-22.732-143.55 16.854 10.313a83.797 83.797 0 0 1 1.96-.49c45.977-10.564 97.042-17.224 141.061-18.839L49.863 354.613l-.384-1.88c-8.3-25.087-13.821-51.461-16.19-76.456-1.63-17.794-2.146-37.058-2.172-53.79m-.847-83.368c58.636 6.17 120.462 9.532 178.793 9.691h.16c58.33-.159 120.157-3.522 178.793-9.691v70.604l-18.389 11.372c-52.743-11.954-112.467-18.852-160.404-18.971h-.159c-47.94.119-107.661 7.016-160.39 18.971L30.27 209.723zm358.272-11.16c-44.005 7.559-133.396 10.14-178.858 10.18-45.463-.04-134.853-2.621-178.872-10.18V80.403c55.722-27.219 115.67-42.432 178.872-42.51 63.202.08 123.136 15.29 178.858 42.51zm.357 94.528c-.027 16.734-.556 35.996-2.17 53.79-2.37 24.995-7.904 51.366-16.192 76.456l-.133.662-.264 1.218-.12-.119c-25.088 73.53-75.91 139.368-155.994 156.805V213.117c47.025.477 104.523 7.375 155.77 19.118.755.198 1.497.37 2.251.569z"/><path d="M292.855 125.78c0 2.462 2 4.448 4.462 4.461a4.461 4.461 0 0 0 4.448-4.461V60.737a4.46 4.46 0 0 0-4.448-4.461c-2.463.013-4.462 1.999-4.462 4.461zM200.184 123.407c-.013 0-8.182-.238-12.537-.238h-.252c-1.813 0-4.315-.093-6.447-.212l-.37-.014V52.95a4.48 4.48 0 0 0-4.462-4.462 4.461 4.461 0 0 0-4.449 4.462v73.491l-.013.027c-.013.12-.026.238-.04.344 0 .12-.013.226-.013.318a4.472 4.472 0 0 0 4.131 4.448c.093 0 7.043.503 11.65.503h.265c4.104 0 12.273.225 12.3.225.039.014.079.014.132.014 2.396 0 4.369-1.92 4.448-4.33v-.132c0-2.41-1.92-4.382-4.329-4.448zM281.298 121.814c-.014 0-8.38.318-12.485.397-1.72.04-3.68.106-5.454.172V92.57h11.57c2.688 0 4.846-2.171 4.846-4.846s-2.158-4.845-4.845-4.845h-11.571V60.504c1.88.251 2.66.344 5.137.662 1.707.225 4.633.701 7.056 1.099 2.436.41 4.409.767 4.422.767.278.053.569.067.847.067a4.822 4.822 0 0 0 4.753-3.999c.477-2.634-1.284-5.136-3.919-5.613-.04 0-7.956-1.403-11.915-1.92-4.011-.53-3.548-.463-10.59-1.376a4.837 4.837 0 0 0-5.429 4.17 4.677 4.677 0 0 0-.027 1.046c-.014.12-.014.238-.014.357v71.665a4.851 4.851 0 0 0 3.019 4.488h.013c.133.053.278.106.41.146a.165.165 0 0 0 .08.013c.12.04.238.08.37.093l.213.04.251.04c.16.013.318.026.49.026.066 0 .146-.013.225-.013 0 0 6.077-.278 10.247-.358 4.276-.08 12.657-.397 12.67-.397a4.86 4.86 0 0 0 4.66-5.03 4.86 4.86 0 0 0-5.031-4.661M218.255 132.083c.053 0 5.826.305 10.287.305.517 0 .993 0 1.457-.014 4.263-.08 12.617-.33 12.643-.33a4.46 4.46 0 0 0 4.329-4.45v-.132a4.472 4.472 0 0 0-4.462-4.33h-.119l-.027-.383v.384c-.013 0-8.38.251-12.524.331-.397.014-.847.014-1.297.014-1.576 0-3.39-.04-5.031-.093l-.424-.013.053-.424c.913-7.467 3.31-22.427 8.698-36.197 1.231-3.177 4.898-11.213 8.182-18.296a1815.674 1815.674 0 0 1 6.262-13.332.332.332 0 0 0 .053-.106c.04-.092.079-.185.105-.264.014-.053.04-.12.053-.199.04-.08.053-.146.066-.212.027-.079.04-.159.066-.238 0-.066.014-.12.028-.172.013-.093.027-.186.04-.291 0-.04 0-.066.013-.08 0-.013-.014-.027 0-.052v-.463c0-.08-.014-.16-.014-.252-.013-.08-.013-.146-.027-.198a.528.528 0 0 0-.04-.186c-.013-.092-.027-.172-.04-.251-.013-.04-.026-.08-.039-.146-.027-.093-.053-.185-.08-.265-.013-.027-.026-.066-.052-.132a2.508 2.508 0 0 0-.12-.265c-.013-.04-.04-.08-.065-.146a1.137 1.137 0 0 0-.12-.225c-.04-.053-.066-.12-.12-.198-.052-.053-.078-.12-.105-.16l-.159-.198c-.053-.066-.08-.106-.106-.132-.052-.067-.119-.12-.185-.2-.053-.039-.08-.078-.12-.118-.052-.04-.105-.093-.171-.146-.066-.053-.12-.106-.16-.133-.039-.04-.092-.066-.145-.105-.093-.066-.159-.12-.238-.16-.027-.013-.066-.039-.12-.065l-.278-.16c-.027-.013-.027-.013-.04-.013l-.079-.04a7.018 7.018 0 0 0-.29-.119 1.669 1.669 0 0 0-.146-.04 1.01 1.01 0 0 0-.265-.079c-.053-.027-.133-.04-.212-.053a13.713 13.713 0 0 0-.199-.04 8.047 8.047 0 0 0-.264-.039c-.066 0-.106-.014-.133-.014-.013 0-8.46-.635-12.127-.953-3.932-.344-11.067-.649-11.12-.649-.066 0-.133-.013-.199-.013-2.37 0-4.342 1.88-4.448 4.276 0 .066-.013.133 0 .185-.013 1.973 1.284 3.668 3.098 4.25l-.186-.185 1.43.397h.225c.212.014.503.027.86.04.729.04 1.735.092 2.86.145 2.238.12 4.952.278 6.713.437 1.35.12 3.296.265 5.23.424l.555.04-.238.503c-.966 2.078-2.105 4.5-3.283 7.043-3.323 7.162-6.95 15.079-8.407 18.8-8.195 21.062-9.757 43.33-9.797 43.595-.013.119-.013.225-.013.33 0 1.59.847 3.006 2.171 3.814a4.478 4.478 0 0 0 2.264.834zM162.242 126.322l-.384.04c0-.028-.33-3.178-.86-7.083-.543-3.919-1.258-8.487-2.185-11.796-.49-1.735-1.324-3.985-2.356-6.593-2.079-5.27-4.899-11.783-6.5-15.41l-.107-.252.212-.186a42.287 42.287 0 0 0 3.773-3.773c2.542-2.926 4.713-6.315 5.455-10.406.397-2.052.596-3.918.596-5.626v-.053c0-2.873-.596-5.362-1.55-7.361-.953-2-2.25-3.469-3.27-4.462-1.482-1.284-2.21-1.231-2.939-1.43-.675-.105-1.204-.119-1.76-.132-2.026.013-4.422.33-7.057.728-2.608.41-5.348.913-7.586 1.35-1.946.371-4.144 1.258-5.811 3.151-1.642 1.854-2.41 4.396-2.41 6.95v61.973c0 2.463 2 4.449 4.448 4.462 2.463-.014 4.462-2 4.462-4.462V94.363l.198-.12a77.41 77.41 0 0 0 5.534-3.27l.384-.25.172.423a455.968 455.968 0 0 1 2.198 5.07 355.378 355.378 0 0 1 3.27 7.944c.98 2.462 1.774 4.647 2.079 5.746.675 2.37 1.416 6.87 1.92 10.59.25 1.868.463 3.576.608 4.807.106 1.02.186 1.708.212 1.906v.08a4.46 4.46 0 0 0 4.435 3.985c.146 0 .305 0 .464-.014a4.47 4.47 0 0 0 3.998-4.435c0-.146-.013-.304-.027-.463zm-12.484-57.22-.014.08c-.225 1.495-1.323 3.6-3.203 5.719-2.45 2.833-6.104 5.626-9.36 7.745V64.098c0-.291.026-.503.053-.622a2.61 2.61 0 0 1 .33-.093c2.158-.41 4.806-.9 7.229-1.284 1.734-.265 3.416-.477 4.54-.556.094.146.186.29.266.463.304.662.582 1.55.595 3.23v.028c0 .98-.119 2.224-.423 3.76zM118.898 125.17c0-1.179-.014-6.872-.212-13.557-.212-6.726-.596-14.352-1.43-19.766-.834-5.322-2.383-10.883-3.84-15.477-1.442-4.567-2.82-8.274-3.177-9.333-.225-.543-.317-1.43-1.337-2.913a6.158 6.158 0 0 0-2.317-1.92 6.881 6.881 0 0 0-2.926-.635h-.013c-1.403.014-6.023 1.324-7.096 1.55-.53.105-1.139.224-1.906.529-.742.278-1.655.794-2.37 1.496-1.589 1.588-2.277 3.098-2.966 4.514a35.633 35.633 0 0 0-.78 1.827c-.186.463-.305.794-.372.94-2.767 6.408-3.971 9.744-5.308 18.482-.729 4.554-1.417 12.471-1.973 19.408-.53 6.686-.887 12.38-.914 12.736l-.092-.013.092.027c-.013.106-.013.198-.013.291 0 2.33 1.814 4.29 4.17 4.448.093 0 .2.014.292.014 2.33 0 4.29-1.814 4.448-4.157 0-.066.37-5.799.9-12.657.239-3.005.517-6.222.795-9.24l.04-.345h18.68l.026.357c.225 3.297.37 6.832.477 10.115.198 6.54.212 12.167.212 13.279v.238c.013 2.45 1.999 4.435 4.461 4.435h.013a4.458 4.458 0 0 0 4.435-4.461v-.212M92.525 91.728c1.311-7.904 1.88-9.161 4.541-15.516.172-.384.278-.702.45-1.139.252-.622.583-1.403.914-2.025.093-.172.185-.344.265-.477.635-.132 1.694-.317 2.965-.702.636 1.761 1.55 4.343 2.516 7.414 1.218 3.84 2.475 8.34 3.23 12.445zM65.013 125.983c2.634.013 5.851-.755 6.937-3.019.503-.993.583-2.144.583-3.336 0-.45-.014-.9-.014-1.35v-.014c0-2.092-.026-4.197-.053-6.302-.053-2.833-1.734-5.56-4.355-5.534-.517 0-1.086.093-1.695.332-2.502.94-2.939 3.256-2.952 5.865 0 1.35.132 2.727.132 3.932v.423l-.41-.04c-2.132-.171-4.25-.37-6.368-.595-.278-.04-1.139-.04-1.96-.093-.847-.092-1.588-.079-2.078-.53l-.08-.092-.013-.105a47.572 47.572 0 0 1-.251-2.317c-.305-3.336-.45-6.686-.49-10.035-.013-.265-.013-.543-.013-.808 0-3.985.357-8.023 1.191-11.915.185-.755.265-2.304.914-3.111l.04-.066.066-.027c.675-.358 1.35-.649 2.038-.927 2.171-.887 4.383-1.642 6.554-2.476l.516-.198v.556c0 .834-.053 1.708-.053 2.568 0 1.297.132 2.529.755 3.482.887 1.403 2.25 2.012 3.627 2.012 2.317-.013 4.58-1.708 4.594-4.422v-8.208c.013-2.94-2.833-5.918-5.759-6.262-.212-.027-.41-.027-.609-.027-2.039-.014-3.865 1.23-5.944 2.052-2.9 1.125-5.839 2.065-8.619 3.336-2.754 1.284-4.54 2.74-5.627 5.573-.953 2.53-1.47 5.256-1.853 7.944-.516 3.535-.715 7.07-.715 10.63 0 2.45.093 4.913.238 7.375.146 2.516.133 5.653.808 8.314.688 2.674 1.999 4.806 4.819 5.547 4.832 1.271 10.168 1.51 15.185 1.84.305.014.596.028.914.028M316.647 128.965c1.443 0 3.8.146 6.355.146 1.946 0 4.038-.08 6.13-.45 2.091-.37 4.236-.98 6.249-2.462 1.284-.967 2.581-2.304 3.746-4.197 1.139-1.88 2.079-4.33 2.079-7.202v-7.957c-.027-1.8-.503-3.243-1.099-4.66-2.171-4.82-6.434-9.744-10.485-14.378-2.026-2.264-3.985-4.382-5.521-6.103a61.846 61.846 0 0 1-1.92-2.224c-.476-.556-.78-.98-.847-1.099l-.013-.014s-.014 0-.014-.04c-.37-.621-.636-1.429-.649-2.157 0-.027.014-.053.014-.053.027-.781.185-1.615 1.35-2.807.384-.397.821-.609 1.39-.768.57-.145 1.205-.185 1.84-.185h.252l.027.014c1.655.317 3.919 1.059 5.706 1.734.98.37 1.827.715 2.436.966.291.133.53.239.689.305.159.066.225.106.225.106a4.486 4.486 0 0 0 1.827.383 4.43 4.43 0 0 0 4.064-2.62 4.297 4.297 0 0 0 .397-1.828 4.43 4.43 0 0 0-2.621-4.064l-.12-.053c-.423-.185-1.853-.82-3.746-1.536-2.238-.834-5.005-1.774-7.732-2.25l-.37-.067h-.967c-.913 0-2.41.028-4.13.477-1.722.437-3.76 1.35-5.482 3.085-2.687 2.634-3.958 6.023-3.958 8.976v.145c.013 2.714.86 5.005 1.92 6.805.569.927 1.151 1.655 1.906 2.555 2.582 3.059 6.95 7.586 10.67 12.048 1.84 2.211 3.495 4.409 4.608 6.209.556.9.953 1.681 1.191 2.264.12.291.186.53.225.688 0 .053.014.08.014.133l.013.013v8.023c-.013.86-.317 1.721-.794 2.516-.49.82-1.165 1.47-1.43 1.655-.317.264-1.138.622-2.475.847-1.285.225-2.9.318-4.555.318h-.066c-1.218 0-2.423-.04-3.575-.08l-.344-.013-.027-.345c-.04-.569-.066-1.191-.066-1.76 0-.65.027-1.232.053-1.642 0-.212.013-.384.027-.477v-.146c.014-.133.014-.265.014-.384 0-2.29-1.761-4.236-4.091-4.435-.12 0-.238-.014-.37-.014a4.441 4.441 0 0 0-4.423 4.091c-.013.08-.12 1.337-.12 3.005.014 1.55.067 3.363.49 5.256.239.98.504 1.96 1.298 3.138a5.88 5.88 0 0 0 1.787 1.721c.782.503 1.88.847 2.887.847zm5.124-51.156c-.027-.014-.04-.014-.04-.014.014 0 .027 0 .04.014M353.59 126.66h.211l.093-.013c1.522-.066 5.388-.212 9.28-.675 1.973-.225 3.932-.53 5.76-1.006 1.88-.556 3.48-.9 5.387-2.661a10.393 10.393 0 0 0 2.622-4.422c.45-1.536.53-2.94.53-4.197 0-1.191-.08-2.264-.12-3.23-.172-2.94-1.417-5.283-2.873-7.322-2.21-3.045-5.11-5.534-7.758-7.625-2.608-2.04-5.07-3.694-5.918-4.356a3.444 3.444 0 0 1-1.112-1.456 5.644 5.644 0 0 1-.397-2.119v-.093c.013-.993.278-1.932.503-2.356l.053-.08c.079-.079.251-.224.542-.357a2.691 2.691 0 0 1 1.113-.251h.027c.251 0 .53.04.807.132 1.47.45 3.76 1.39 5.6 2.198.914.41 1.734.78 2.317 1.059.516.225.834.384.914.41l.013.014a4.5 4.5 0 0 0 1.907.437c1.668 0 3.27-.94 4.037-2.542a4.496 4.496 0 0 0 .424-1.92c0-1.668-.927-3.257-2.502-4.011-.172-.066-5.892-2.833-10.022-4.144a11.577 11.577 0 0 0-3.495-.543c-2.039 0-3.919.516-5.534 1.403-1.615.887-3.018 2.132-3.985 3.853-1.085 2.025-1.615 4.276-1.628 6.778 0 1.788.304 3.68 1.085 5.56a12.416 12.416 0 0 0 3.906 5.098c.913.701 2.131 1.535 3.588 2.594 2.17 1.576 4.753 3.601 6.659 5.6.953 1.007 1.72 1.987 2.197 2.794.477.834.61 1.377.623 1.668v-.013c.052 1.099.119 2.039.119 2.793v.08c0 .78-.08 1.31-.172 1.628a1.553 1.553 0 0 1-.172.397l-.067.093-.105.053c-.464.211-1.523.516-2.807.754-2.582.49-5.891.755-8.46.914l-.384.027-.027-.371c0-.106-.013-.199-.027-.291a40.903 40.903 0 0 1-.092-2.727v-.371c0-2.41-1.92-4.382-4.343-4.462h-.119a4.462 4.462 0 0 0-4.448 4.343v.49c0 .94.013 3.044.317 5.216.16 1.112.344 2.197.848 3.455.277.649.609 1.337 1.376 2.145l-.277.264.277-.264c.662.741 2.132 1.628 3.708 1.628M230.687 482.73c-1.02-.728-1.734-1.827-1.734-3.111v-.066c0-.027 0-.053.013-.066v-2.675l-.027-234.014c-.013-.238-.026-.569-.026-.98 0-1.125.08-2.912.702-4.99.609-2.052 1.88-4.674 4.62-6.5 1.8-1.219 4.064-1.867 6.395-1.867h.066c5.719.013 13.437.436 17.687.74 9.612.716 20.68 2.185 21.408 2.278l.953.133c1.893.251 2.555 2.965 2.555 5.017 0 .318-.013.636-.053.967-.384 2.674-2.118 4.898-4.527 4.951-.146 0-.292 0-.477-.027-.027 0-4.951-.662-4.951-.662v-.014c-.556-.066-1.152-.145-1.774-.211-4.025-.477-9.241-1.033-13.954-1.364-3.985-.304-11.65-.715-16.84-.715h-.014c-.133 0-.238.014-.304.014-.014.027-.028.052-.04.092-.146.186-.37 2.039-.37 2.039l.026 126.99 37.204.027v.146c.873.264 1.615.86 2.144 1.602.715 1.006 1.139 2.317 1.139 3.76v.052c-.014 1.457-.424 2.78-1.165 3.787-.728 1.006-1.827 1.734-3.111 1.734h-.12l-36.078-.013v100.828h-.159c-.609 2.04-2.886 3.284-5.348 3.284h-.053c-1.456 0-2.78-.424-3.786-1.165M332.882 237.59c15.132 2.925 41.544 9.69 41.558 9.69l.741.186-.185 4.5c0 .014.013.014 0 .028v.066c0 .066 0 .16-.014.291 0 .239-.027.61-.04 1.073-.052.94-.105 2.303-.198 3.998a837.73 837.73 0 0 1-.781 13.45c-.702 10.698-1.774 23.897-3.244 34.025-1.019 6.898-3.124 13.65-3.124 13.703l-.251.966-.067-.013-1.403 4.805-.172-.092c-.86 1.23-2.423 1.827-4.038 1.827-.649 0-1.31-.093-1.973-.278-2.41-.715-4.223-2.516-4.263-4.7 0-.318.04-.636.133-.94a.346.346 0 0 1 .04-.093c.105-.397 2.158-7.427 2.436-8.512.582-2.317 1.284-5.388 1.707-8.275 1.933-13.16 3.668-42.165 3.959-47.303a942.57 942.57 0 0 0-8.79-2.144c-7.507-1.814-16.88-3.972-24.136-5.375-7.149-1.39-19.196-3.495-26.795-4.29a84.816 84.816 0 0 0-1.986-.212c-.16.954-.318 2.383-.37 4.263-.61 14.815-2.516 42.803-2.516 71.543v.053c0 41.463.675 66.313 1.47 81.978.7 13.716 1.469 20.309 1.972 25.247.053-.053.106-.106.146-.16 1.959-2.051 4.024-4.739 5.494-6.632 13.636-17.489 24.452-37.878 30.092-49.408l2.158-4.845h.08c.807-1.165 2.25-1.708 3.72-1.708.913 0 1.88.198 2.806.609 2.132.966 3.614 2.793 3.64 4.793 0 .476-.092.966-.304 1.443-.013.027-.027.052-.027.066l-.013.013c-.106.239-1.615 3.403-2.158 4.515-.014.027-16.946 32.952-31.245 51.33-1.072 1.376-2.62 3.402-4.369 5.44-1.774 2.026-3.693 4.104-6.023 5.76-1.483 1.019-3.39 2.184-6.143 2.237-.053.013-.08.013-.093.013-1.257-.013-2.634-.33-3.852-1.046-1.231-.714-2.158-1.734-2.82-2.766-1.245-2.04-1.681-4.17-1.92-6.554-.45-4.872-1.403-11.875-2.21-27.775-.808-15.94-1.497-40.949-1.497-82.544 0-29.206 1.933-57.512 2.529-72.061.106-2.397.265-4.37.596-6.17.344-1.747.834-3.495 2.025-5.163.821-1.152 1.986-2.131 3.27-2.714 1.668-.781 3.23-.9 4.462-.9 1.522 0 2.86.185 4.263.33 8.274.888 20.348 3.006 27.722 4.436zM190.24 196.75h.212c.066 0 .08.013.08 0 1.774 0 3.402-2.08 3.402-4.846 0-2.754-1.628-4.832-3.402-4.846h-11.929v.014h-11.902v-8.036h15.16c.065 0 .079.013.079.013 1.774-.013 3.402-2.091 3.402-4.858 0-2.754-1.628-4.833-3.402-4.846h-15.238v-5.15h19.752c1.76 0 3.39-2.078 3.402-4.845 0-2.754-1.628-4.833-3.402-4.846h-25.498l-.212.027a4.128 4.128 0 0 0-3.72 3.998l-.014.225v33.853a4.14 4.14 0 0 0 3.734 4.117l.304.027zm.689-10.075h-.398zM107.286 201.02c1.139.82 2.304 1.138 4.012 1.138.278 0 6.036-.53 11.637-1.059 5.613-.53 11.134-1.059 11.134-1.059 2.33-.344 3.905-2.012 3.972-4.184l.013-.542V158.67l-.013-.212c-.053-2.052-1.55-3.747-3.482-4.025l-15.516-.993h-.066c-.053-.013-.106-.013-.16-.013-1.707-.027-3.375 1.959-3.534 4.633-.013.146-.013.291-.013.437-.013 2.555 1.416 4.528 3.098 4.608l.357.027 5.839.357 3.8.238v27.206l-16.113 1.35-.119-.065c0-.014-7.453-4.978-7.506-5.031a2.663 2.663 0 0 0-1.536-.464c-1.324 0-2.939.861-4.05 2.423-.795 1.112-1.18 2.344-1.18 3.416 0 1.085.385 1.972 1.113 2.502l.265.199zM242.458 194.716c1.297 1.324 3.124 3.058 4.872 3.032 1.27 0 2.277-.16 2.899-.503.635-.358.94-.821.953-1.695V157.9c0-1.775-2.092-3.403-4.845-3.403s-4.846 1.628-4.846 3.39v21.95l-23.46-23.314c-1.059-1.046-2.541-2.026-4.514-2.026-2.754 0-4.832 1.628-4.846 3.39v36.115c0 .675.53 1.376 1.457 1.893.913.53 2.171.86 3.389.847 2.462.014 4.435-1.297 4.766-2.793l.08-.57V170.436zM311.563 201.698c.504.94 1.602 1.482 2.98 1.482.913 0 1.932-.251 2.899-.754 1.866-.993 2.965-2.688 2.952-4.091 0-.344-.053-.675-.185-.98l-18.932-35.56.013-.013-3.521-6.527c-.265-.542-1.642-1.151-3.337-1.496a29.023 29.023 0 0 0-5.388-.53c-4.369-.026-9.558.861-10.657 3.337l-12.604 30.649c0 .013-2.171 5.097-2.198 5.15a3.17 3.17 0 0 0-.225 1.217c0 1.748 1.126 3.959 3.059 4.753.82.345 1.668.503 2.436.503 1.602 0 2.886-.675 3.336-1.774l.066-.145.913-2.238 1.708-4.104 2.238-5.375h25.697l3.667 6.845-.014.013c.927 1.761 5.084 9.599 5.097 9.639m-29.92-26.187h-.583l3.8-9.255 1.112-2.687a2.85 2.85 0 0 1 2.622-1.734c1.125 0 2.078.648 2.555 1.562l6.487 12.114z"/></g></svg>