<svg width="462.587" height="462.587" version="1.2" viewBox="0 0 346.94 346.94" xmlns="http://www.w3.org/2000/svg" xmlns:xlink="http://www.w3.org/1999/xlink"><g fill="#fff"><use x="383.664" y="47.345" width="100%" height="100%" xlink:href="#a" transform="translate(-43.922 -133.33)"/><path d="m309.38 399.91-2.356 9.004c-.054.258-.187.3-.449.3h-.57c-.246 0-.395-.054-.45-.284l-1.632-6.055a8.459 8.459 0 0 1-.242-1.414h-.082a8.23 8.23 0 0 1-.258 1.414l-1.648 6.039c-.067.258-.204.3-.45.3h-.57c-.246 0-.395-.042-.45-.284l-2.339-9.02c-.066-.246-.027-.352.23-.352h.723c.297 0 .422.051.477.31l1.414 5.89c.093.449.203 1.36.23 1.632h.07c.04-.3.149-1.144.286-1.617l1.605-5.797c.082-.257.215-.312.473-.312h.574c.27 0 .406.055.477.312l1.59 5.797c.136.516.257 1.332.285 1.617h.07c.027-.246.133-1.128.242-1.605l1.402-5.918c.055-.258.176-.309.477-.309h.625c.258 0 .297.106.246.352M310.85 399.56h.598c.273 0 .367.094.367.352v8.949c0 .258-.094.355-.367.355h-.598c-.262 0-.355-.097-.355-.355v-8.95c0-.257.093-.351.355-.351M317.27 400.78h-2.734v3.332h2.734c1.078 0 1.688-.598 1.688-1.66 0-1.074-.61-1.672-1.688-1.672m3.063 1.672c0 1.469-.75 2.422-2 2.707.3.164.488.422.68.762l1.51 2.925c.11.203.083.367-.19.367h-.598c-.45 0-.586-.054-.707-.312l-1.239-2.492c-.394-.801-.789-1.074-1.796-1.074h-1.457v3.523c0 .258-.094.355-.364.355h-.601c-.258 0-.352-.097-.352-.355v-8.95c0-.257.094-.35.352-.35h3.824c1.82 0 2.937 1.058 2.937 2.894M326.3 399.91v8.078h3.523c.27 0 .368.094.368.356v.515c0 .258-.098.356-.368.356h-4.488c-.258 0-.355-.098-.355-.356v-8.949c0-.258.097-.352.355-.352h.598c.273 0 .367.094.367.352M331.61 399.56h.598c.273 0 .367.094.367.352v8.949c0 .258-.094.355-.367.355h-.598c-.262 0-.355-.097-.355-.355v-8.95c0-.257.093-.351.355-.351M335.14 399.91v8.078h3.523c.27 0 .364.094.364.356v.515c0 .258-.094.356-.364.356h-4.488c-.258 0-.355-.098-.355-.356v-8.949c0-.258.097-.352.355-.352h.598c.273 0 .367.094.367.352M340.46 399.56h.598c.273 0 .367.094.367.352v8.949c0 .258-.094.355-.367.355h-.598c-.262 0-.355-.097-.355-.355v-8.95c0-.257.093-.351.355-.351M348.86 399.91v.516c0 .257-.082.355-.352.355h-4.503v2.922h3.875c.273 0 .355.098.355.367v.504c0 .274-.082.356-.355.356h-3.875v3.058h4.664c.273 0 .355.094.355.356v.515c0 .258-.082.356-.355.356h-5.63c-.261 0-.355-.098-.355-.356v-8.949c0-.258.094-.352.356-.352h5.469c.27 0 .351.094.351.352M357.68 399.91v8.95c0 .257-.094.355-.352.355h-.597c-.18 0-.274-.043-.371-.18l-3.875-5.645c-.559-.84-.965-1.902-1.102-2.093h-.066c0 .257.23 1.402.23 2.53v5.032c0 .258-.094.356-.367.356h-.559c-.257 0-.351-.098-.351-.356v-8.95c0-.257.094-.35.351-.35h.598c.191 0 .29.066.356.175l3.82 5.547c.625.926 1.008 1.945 1.172 2.176h.066c0-.297-.215-1.414-.215-2.625v-4.922c0-.258.082-.352.352-.352h.558c.258 0 .352.094.352.352M360.03 408.51v.105c0 .52-.164.68-.691.68h-.082c-.532 0-.696-.148-.696-.68v-.105c0-.52.164-.695.696-.695h.082c.527 0 .691.175.691.695M300.72 413.07h-.027c0 .047-.012.215-.078.402l-1.332 3.336h2.867l-1.336-3.336c-.066-.187-.086-.355-.094-.402m2.762 6.285h-.168c-.14 0-.188-.02-.207-.101l-.836-2.078h-3.121l-.824 2.078c-.028.082-.075.101-.22.101h-.155c-.098 0-.114-.047-.086-.113l2.601-6.492c.04-.086.078-.114.16-.114h.188c.086 0 .133.028.16.114l2.602 6.492c.027.066.011.113-.094.113M306.71 419.09c1.375 0 2.04-.781 2.04-1.992v-4.293c0-.094.026-.125.112-.125h.207c.086 0 .114.031.114.125v4.293c0 1.453-.817 2.394-2.473 2.394-1.66 0-2.48-.941-2.48-2.394v-4.293c0-.094.03-.125.124-.125h.196c.086 0 .113.031.113.125v4.293c0 1.21.668 1.992 2.047 1.992M312.61 412.55c1.258 0 1.973.457 2.46 1.453.048.086.02.133-.058.16l-.187.086c-.074.027-.102.027-.149-.058-.422-.836-1.015-1.23-2.066-1.23-1.215 0-1.918.526-1.918 1.429 0 1.11 1.043 1.285 2.105 1.398 1.145.133 2.34.328 2.34 1.777 0 1.22-.847 1.915-2.48 1.915-1.317 0-2.078-.524-2.528-1.641-.039-.098-.03-.133.067-.172l.176-.066c.086-.028.113-.016.16.078.406.949 1.07 1.39 2.125 1.39 1.351 0 2.047-.492 2.047-1.484 0-1.11-.977-1.25-2-1.371-1.176-.145-2.453-.34-2.453-1.797 0-1.145.875-1.867 2.359-1.867M322.4 412.8v.172c0 .082-.027.113-.125.113h-2.04v6.145c0 .09-.027.12-.108.12h-.2c-.093 0-.12-.03-.12-.12v-6.145h-2.04c-.094 0-.121-.031-.121-.113v-.172c0-.094.027-.121.121-.121h4.508c.098 0 .125.027.125.121M325.89 413.09h-2.336v2.93h2.336c.941 0 1.504-.516 1.504-1.457 0-.938-.543-1.473-1.504-1.473m1.957 1.473c0 1.082-.64 1.73-1.656 1.816.36.149.566.383.77.77l1.054 2.086c.047.066.027.12-.066.12h-.18c-.149 0-.195-.019-.234-.1l-.977-1.938c-.309-.622-.668-.895-1.457-.895h-1.547v2.813c0 .093-.031.12-.117.12h-.195c-.094 0-.122-.027-.122-.12v-6.43c0-.094.028-.121.122-.121h2.695c1.187 0 1.91.687 1.91 1.879M331.17 413.07h-.027c0 .047-.012.215-.078.402l-1.332 3.336h2.863l-1.332-3.336c-.067-.187-.086-.355-.094-.402m2.762 6.285h-.168c-.145 0-.191-.02-.207-.101l-.836-2.078H329.6l-.828 2.078c-.028.082-.074.101-.215.101h-.16c-.094 0-.114-.047-.082-.113l2.601-6.492c.035-.086.075-.114.16-.114h.188c.086 0 .129.028.16.114l2.602 6.492c.027.066.008.113-.094.113M336.79 413.09h-1.617v5.86h1.617c1.465 0 2.281-.77 2.281-2.075v-1.71c0-1.305-.804-2.075-2.281-2.075m2.715 2.074v1.711c0 1.531-.977 2.48-2.727 2.48h-1.914c-.094 0-.121-.027-.121-.12v-6.43c0-.094.027-.121.121-.121h1.914c1.75 0 2.727.949 2.727 2.48M340.76 412.68h.2c.085 0 .113.027.113.121v6.43c0 .09-.028.12-.114.12h-.199c-.094 0-.121-.03-.121-.12v-6.43c0-.094.027-.121.121-.121M346.55 412.8v.172c0 .082-.031.113-.125.113h-2.04v6.145c0 .09-.026.12-.112.12h-.196c-.093 0-.12-.03-.12-.12v-6.145h-2.04c-.094 0-.121-.031-.121-.113v-.172c0-.094.027-.121.121-.121h4.508c.094 0 .125.027.125.121M347.39 412.68h.2c.081 0 .109.027.109.121v6.43c0 .09-.028.12-.11.12h-.199c-.094 0-.121-.03-.121-.12v-6.43c0-.094.027-.121.121-.121M351.41 412.96c-1.371 0-2.102.715-2.102 1.918v2.29c0 1.202.73 1.917 2.102 1.917 1.355 0 2.086-.715 2.086-1.918v-2.289c0-1.203-.73-1.918-2.086-1.918m0-.402c1.637 0 2.52.882 2.52 2.32v2.29c0 1.437-.883 2.32-2.52 2.32-1.652 0-2.535-.883-2.535-2.32v-2.29c0-1.438.883-2.32 2.535-2.32M360.03 412.8v6.43c0 .09-.027.12-.113.12h-.2c-.066 0-.093-.007-.128-.073l-3.336-4.758c-.313-.442-.563-.95-.762-1.219h-.02c0 .355.06.957.06 1.55v4.38c0 .09-.028.12-.114.12h-.188c-.093 0-.125-.03-.125-.12v-6.43c0-.094.032-.121.125-.121h.188c.074 0 .113.039.133.066l3.238 4.633c.348.496.64 1.023.863 1.344h.024c0-.414-.07-1.043-.07-1.692v-4.238c0-.086.03-.113.124-.113h.188c.086 0 .113.027.113.121M300.72 423.19h-.027c0 .047-.012.215-.078.402l-1.332 3.336h2.867l-1.336-3.336c-.066-.187-.086-.355-.094-.402m2.762 6.285h-.168c-.14 0-.188-.02-.207-.101l-.836-2.078h-3.121l-.824 2.078c-.028.082-.075.101-.22.101h-.155c-.098 0-.114-.047-.086-.113l2.601-6.492c.04-.086.078-.114.16-.114h.188c.086 0 .133.028.16.114l2.602 6.492c.027.066.011.113-.094.113M309.21 422.93v6.426c0 .093-.027.12-.113.12h-.196c-.066 0-.093-.007-.132-.073l-3.336-4.754c-.309-.442-.563-.95-.762-1.223h-.016c0 .36.055.961.055 1.551v4.379c0 .094-.027.121-.113.121h-.188c-.093 0-.12-.027-.12-.121v-6.426c0-.098.027-.125.12-.125h.188c.074 0 .113.04.133.066l3.242 4.633c.347.496.637 1.024.863 1.344h.02c0-.414-.067-1.043-.067-1.691v-4.239c0-.086.027-.113.121-.113h.188c.086 0 .113.028.113.125M312.63 423.21h-1.617v5.86h1.617c1.465 0 2.281-.77 2.281-2.075v-1.71c0-1.305-.808-2.075-2.281-2.075m2.715 2.074v1.711c0 1.531-.98 2.48-2.727 2.48h-1.914c-.098 0-.125-.027-.125-.12v-6.43c0-.094.027-.121.125-.121h1.914c1.746 0 2.727.949 2.727 2.48M320.56 422.93v.168c0 .086-.027.113-.121.113h-3.524v2.688h3.118c.086 0 .113.027.113.113v.168c0 .094-.027.121-.113.121h-3.117v2.774h3.656c.082 0 .12.027.12.109v.172c0 .093-.038.12-.12.12h-3.965c-.094 0-.125-.027-.125-.12v-6.426c0-.098.031-.125.125-.125h3.832c.094 0 .121.027.121.125M324.44 423.21h-2.336v2.93h2.336c.941 0 1.504-.516 1.504-1.457 0-.938-.543-1.473-1.504-1.473m1.957 1.473c0 1.082-.64 1.73-1.656 1.812.36.153.566.387.77.774l1.054 2.086c.047.062.027.12-.066.12h-.18c-.149 0-.195-.019-.234-.105l-.977-1.933c-.309-.622-.668-.895-1.457-.895h-1.547v2.813c0 .093-.031.12-.117.12h-.195c-.094 0-.121-.027-.121-.12v-6.43c0-.094.027-.121.12-.121h2.696c1.187 0 1.91.687 1.91 1.879M329.62 422.67c1.262 0 1.973.457 2.46 1.453.048.086.02.133-.054.16l-.187.086c-.075.027-.106.027-.153-.058-.422-.836-1.011-1.23-2.066-1.23-1.21 0-1.914.526-1.914 1.429 0 1.11 1.043 1.285 2.101 1.398 1.149.133 2.34.328 2.34 1.777 0 1.22-.843 1.915-2.48 1.915-1.313 0-2.074-.524-2.528-1.645-.035-.094-.027-.129.067-.168l.18-.066c.082-.028.113-.016.16.078.402.945 1.07 1.39 2.12 1.39 1.356 0 2.052-.492 2.052-1.484 0-1.11-.98-1.25-2.004-1.375-1.172-.14-2.45-.336-2.45-1.793 0-1.145.872-1.867 2.356-1.867M297.67 396.24h62.516v-.676H297.67zM297.67 433.6h62.516v-.676H297.67z"/><g transform="translate(-43.922 -133.33)"><use x="399.422" y="476.178" width="100%" height="100%" xlink:href="#b"/></g></g><g stroke-width=".255"><path d="M346.34 173.47c0 95.46-77.387 172.844-172.86 172.844C78.02 346.314.637 268.926.637 173.469.636 77.993 78.024.61 173.481.61c95.476 0 172.86 77.388 172.86 172.86" fill="#fff"/><g fill="#004c9e"><path d="M173.473 1.236C78.502 1.236 1.239 78.498 1.239 173.469c0 94.972 77.263 172.234 172.234 172.234s172.234-77.262 172.234-172.234c0-94.97-77.263-172.233-172.234-172.233m0 345.704C77.828 346.94.003 269.126.003 173.47S77.832-.002 173.472-.002c95.66 0 173.47 77.814 173.47 173.47S269.13 346.94 173.473 346.94"/><path d="M173.473 61.674c-62.141 0-112.523 50.398-112.523 112.54s50.382 112.523 112.523 112.523 112.523-50.383 112.523-112.524S235.614 61.674 173.473 61.674"/><path d="M173.473 15.367c-87.585 0-158.839 71.254-158.839 158.838s71.254 158.839 158.839 158.839S332.31 261.79 332.31 174.205 261.058 15.367 173.473 15.367m0 323.87c-90.994 0-165.031-74.038-165.031-165.032 0-91.01 74.037-165.046 165.03-165.046 91.01 0 165.048 74.037 165.048 165.046 0 90.994-74.037 165.031-165.047 165.031"/><path d="m50.475 209.404-1.193-4.114-15.26 4.435 1.193 4.113c.948 3.241 2.95 4.51 5.871 3.654l6.361-1.85c2.92-.84 3.976-2.997 3.028-6.239m-1.285 12.233-6.36 1.85c-6.147 1.789-11.07-.994-13.12-8.012l-2.508-8.655c-.32-1.116-.076-1.62 1.07-1.957l23.212-6.743c1.147-.336 1.636-.032 1.957 1.07l2.523 8.654c2.034 7.019-.642 12.019-6.774 13.792M59.051 231.324l-.183-.336s-2.416 1.254-5.276 1.667l-6.27.902 2.799 5.581 4.434-4.48c2.08-2.034 4.496-3.333 4.496-3.333m-14.13 20-1.299-2.584c-.856-1.728-.84-2.37 0-3.18l2.691-2.692-4.281-8.502-3.777.52c-1.177.169-1.667-.153-2.538-1.865l-1.193-2.37c-.52-1.04-.199-1.499.902-1.621l26.025-2.798c1.131-.138 1.544.183 2.033 1.147l1.33 2.645c.475.963.505 1.514-.244 2.263l-17.798 19.266c-.765.81-1.346.765-1.85-.23M72.11 252.031l-3.212-4.265-5.046 3.792 3.227 4.281c1.223 1.621 2.844 1.85 4.434.642 1.606-1.208 1.835-2.813.596-4.45m3.334 9.65c-3.089 2.323-6.24 2.675-8.991 1.192-.153.49-.383.963-.597 1.452l-3.67 7.738c-.428.948-1.1 1.269-1.804.351l-1.85-2.462c-1.193-1.575-1.36-2.309-.75-3.486l3.013-5.841c.902-1.743.856-2.63-.474-4.419l-.963-1.254-6.483 4.893c-.948.719-1.514.612-2.202-.32l-1.88-2.478c-.704-.933-.643-1.498.305-2.217l19.297-14.557c.963-.719 1.514-.612 2.217.306l6.422 8.517c3.364 4.45 2.86 9.22-1.59 12.584M103.472 276.927l-15.734 18.471c-.75.872-1.285.918-2.187.138l-2.202-1.866c-.886-.749-.917-1.3-.183-2.171l5.673-6.651c1.513-1.79 3.41-3.517 6.575-5.765l-.26-.23a37.337 37.337 0 0 1-6.957 3.472l-5.245 1.957c-.84.336-1.315.352-2.049-.275l-1.345-1.147c-.734-.627-.841-1.024-.627-2.003l1.07-5.52c.398-2.37 1.223-4.648 2.462-7.294l-.26-.23c-1.835 3.594-3.089 5.414-4.755 7.37l-5.643 6.637c-.749.872-1.3.917-2.17.168l-2.08-1.773c-.887-.75-.948-1.315-.214-2.187l15.733-18.471c.75-.887 1.316-.902 2.202-.153l1.896 1.62c.979.826 1.117 1.254.933 2.31l-3.073 14.464 13.792-5.275c1.1-.397 1.452-.336 2.37.444l2.08 1.758c.901.78.947 1.315.198 2.202M116.53 281.468c4.97 2.63 6.682 5.672 6.468 9.832-.03 1.207-.55 1.544-1.713 1.437l-3.18-.245c-1.101-.06-1.392-.428-1.407-1.62.03-1.805-.688-3.227-2.829-4.359-2.798-1.483-4.388-1.422-5.26.215-.978 1.834 1.178 3.455 3.762 5.214 3.73 2.584 8.027 6.177 4.847 12.156-2.462 4.663-7.967 5.75-14.22 2.43-5.322-2.813-7.218-6.299-6.652-10.565.184-1.177.688-1.468 1.82-1.3l2.951.429c1.193.153 1.468.52 1.376 1.773-.092 1.82.963 3.517 3.15 4.664 2.89 1.544 4.924 1.651 5.948-.275.902-1.713-.918-3.288-3.303-4.893-3.822-2.646-8.807-6.147-5.489-12.416 2.324-4.389 7.37-5.841 13.73-2.477M146.514 295.246l-.78 2.462c-.336 1.101-.825 1.361-1.957.994l-5.733-1.789-5.994 19.144c-.352 1.131-.841 1.391-1.988 1.024l-2.966-.932c-1.101-.337-1.361-.826-.994-1.958l5.994-19.143-5.78-1.805c-1.132-.351-1.392-.84-1.04-1.942l.764-2.461c.367-1.147.841-1.392 1.988-1.04l17.447 5.459c1.146.366 1.391.84 1.04 1.987M154.543 300.492l-.382-.061s-.398 2.706-1.728 5.26l-2.92 5.627 6.161.963-1.055-6.208c-.428-2.874-.076-5.58-.076-5.58m7.982 23.134-2.844-.459c-1.912-.29-2.432-.688-2.6-1.85l-.611-3.761-9.389-1.484-1.789 3.38c-.55 1.04-1.085 1.269-2.997.963l-2.614-.413c-1.147-.184-1.33-.719-.795-1.682l12.92-22.737c.55-1.01 1.04-1.162 2.11-.994l2.92.459c1.071.168 1.53.474 1.713 1.513l5.245 25.704c.214 1.086-.168 1.529-1.27 1.36M176.867 301.823l-4.266.106.397 15.903 4.266-.122c3.395-.077 5.123-1.698 5.046-4.74l-.168-6.621c-.076-3.043-1.88-4.618-5.275-4.526m11.513 4.358.169 6.636c.168 6.376-3.777 10.459-11.101 10.642l-8.991.23c-1.162.016-1.606-.352-1.621-1.544l-.612-24.175c-.03-1.193.383-1.59 1.53-1.62l9.006-.23c7.324-.184 11.468 3.685 11.62 10.061M210.476 292.585l.55 2.507c.245 1.132-.046 1.59-1.208 1.85l-5.871 1.285 4.296 19.602c.26 1.163-.03 1.621-1.192 1.881l-3.058.658c-1.117.26-1.59-.032-1.835-1.208l-4.312-19.588-5.902 1.3c-1.163.245-1.621-.046-1.866-1.177l-.55-2.523c-.26-1.162.03-1.621 1.192-1.88l17.875-3.915c1.162-.26 1.62.031 1.88 1.208M232.126 283.112l10.444 21.804c.52 1.07.306 1.606-.734 2.11l-2.814 1.346c-1.055.49-1.59.336-2.11-.75l-7.798-16.284-2.462 3.532c-.78 1.132-1.483 1.177-2.416.474l-2.263-1.605c-.917-.673-.886-1.239-.214-2.248l4.542-6.652c.535-.825.871-1.1 1.743-1.529l1.988-.948c1.024-.489 1.575-.336 2.095.75M249.541 289.257c-.688 1.117-1.33 2.768-.091 4.572 1.04 1.545 2.676 1.774 5.382-.06 2.676-1.82 2.951-3.35 1.911-4.878-1.468-2.172-3.853-.872-7.201.366m-4.71-10.305c-2.003 1.376-2.492 2.859-1.452 4.388 1.04 1.53 2.523 1.315 4.633.581l1.575-.566c.672-1.146 1.04-2.645-.016-4.22-1.04-1.514-2.767-1.514-4.74-.183m-3.042-4.343c5.412-3.685 9.786-3.349 12.477.642 1.712 2.508 1.36 5 .734 6.621 2.6-.275 5.122.336 7.11 3.272 2.752 4.052 2.11 8.67-4.328 13.028-6.391 4.358-10.626 3.547-13.21-.275-1.927-2.83-1.209-5.75-.322-7.6-2.248-.016-4.419-.963-6.162-3.501-2.829-4.175-1.36-8.747 3.7-12.187M262.631 264.832c-2.171 2.14-2.4 3.975-.902 5.52 1.544 1.575 3.18 1.529 5.535-.78 1.79-1.759 2.539-3.028 2.783-3.593l-1.208-1.24c-1.972-2.017-4.052-2.002-6.207.093m8.333 9.036c-5.061 4.97-9.51 5.107-13.655.872-3.945-4.006-3.425-9.251 1.361-13.945 5-4.908 10.367-4.771 14.847-.214l5.597 5.734c4.48 4.556 4.48 9.954-.49 14.832-3.944 3.853-7.782 4.602-11.697 2.813-1.055-.474-1.177-1.04-.703-2.095l1.284-2.722c.459-1.055.979-1.116 2.126-.672 1.651.688 3.226.275 4.938-1.392 2.141-2.11 2.218-4.235.123-6.376l-.566-.58c-.581.901-1.529 2.14-3.165 3.745M285.354 255.046c-.244 1.284-.275 3.042 1.514 4.312 1.514 1.07 3.135.718 5.03-1.958 1.866-2.645 1.576-4.174.062-5.229-2.14-1.514-3.914.52-6.606 2.875m-8.027-7.982c-1.407 1.972-1.315 3.532.183 4.603 1.514 1.07 2.829.336 4.542-1.086l1.284-1.07c.214-1.315.032-2.86-1.514-3.945-1.513-1.07-3.119-.459-4.495 1.498m-4.373-3.012c3.777-5.337 7.982-6.56 11.911-3.792 2.478 1.758 3.013 4.205 2.997 5.948 2.355-1.178 4.924-1.468 7.814.565 3.99 2.83 5.015 7.37.535 13.716-4.465 6.315-8.7 7.05-12.477 4.389-2.798-1.988-3.15-4.954-2.966-7.004-2.11.78-4.48.658-6.988-1.116-4.129-2.92-4.373-7.707-.826-12.706M297.92 229.367c-.765 1.713-.383 2.982 1.1 3.64l.474.213 2.325-5.244-.46-.214c-1.482-.658-2.675-.122-3.44 1.605m-3.547-1.575c2.187-4.893 6.01-5.84 9.404-4.327l1.789.81c.887.382 1.3 1.04.795 2.187l-3.67 8.196.75.32c1.59.72 2.767.047 3.5-1.605.628-1.391.551-2.477.077-3.333-.459-.795-.443-1.223.383-1.88l1.376-1.117c.78-.642 1.376-.52 1.957.306 1.254 1.865 1.346 4.358-.153 7.706-2.263 5.077-5.979 5.796-9.694 4.129l-3.12-1.392c-4.25-1.896-5.428-5.428-3.394-10M313.734 220.638l.382.122c1.147.398 1.376.902.979 2.034l-.122.336c-.398 1.147-.872 1.376-2.019.979l-.382-.123c-1.147-.397-1.392-.886-.994-2.018l.122-.351c.398-1.132.887-1.392 2.034-.979M299.524 198.365l17.83 12.6c.78.55.856 1.009.626 1.85l-.703 2.523c-.245.871-.55 1.223-1.422 1.269l-21.835 1.62c-.933.077-1.27-.29-1.025-1.192l.658-2.324c.428-1.59.81-1.957 1.789-1.988l12.615-.413c1.82-.031 3.96.26 3.96.26l.061-.244s-1.926-.81-3.486-1.82l-10.643-6.804c-.825-.536-.963-1.04-.52-2.6l.627-2.263c.245-.902.72-1.009 1.468-.474M318.353 203.258l.397.092c1.178.244 1.468.718 1.208 1.896l-.06.352c-.26 1.177-.72 1.467-1.882 1.207l-.397-.076c-1.208-.26-1.483-.703-1.239-1.88l.077-.352c.244-1.178.703-1.483 1.896-1.239M55.841 81.638c3.471-4.42 6.759-5.566 10.826-4.618 1.177.244 1.407.81 1.1 1.942l-.81 3.088c-.244 1.07-.657 1.285-1.834 1.101-1.774-.366-3.303.092-4.802 2.003-1.957 2.478-2.171 4.068-.718 5.214 1.636 1.285 3.608-.55 5.81-2.783 3.196-3.21 7.493-6.804 12.813-2.614 4.144 3.257 4.251 8.868-.122 14.45-3.715 4.724-7.492 5.963-11.59 4.648-1.116-.383-1.315-.933-.963-2.019l.948-2.828c.367-1.147.78-1.361 1.988-1.04 1.789.428 3.639-.321 5.168-2.263 2.018-2.569 2.492-4.557.764-5.902-1.514-1.193-3.394.32-5.382 2.37-3.288 3.302-7.63 7.584-13.196 3.21-3.914-3.073-4.45-8.302 0-13.96M85.626 65.236c-1.437-1.666-3.318-1.82-5.03-.336l-3.747 3.257 4.587 5.29 3.762-3.256c1.682-1.468 1.865-3.303.428-4.954m4.923-4.266c3.777 4.358 3.288 9.327-1.1 13.135l-4.251 3.67 4.786 5.535c.78.902.719 1.468-.153 2.217l-2.355 2.049c-.871.764-1.452.749-2.232-.153L69.403 69.15c-.78-.902-.704-1.468.168-2.232l7.798-6.759c4.328-3.746 9.389-3.562 13.18.81M101.573 49.422c-2.798 1.62-3.654 3.853-2.156 6.453l4.021 6.926c1.499 2.6 3.854 2.982 6.652 1.361 2.829-1.636 3.685-3.869 2.171-6.468l-4.006-6.927c-1.498-2.6-3.853-2.981-6.682-1.345M98.7 44.468c6.33-3.67 11.85-2.279 15.046 3.257l3.899 6.728c3.196 5.535 1.651 11.009-4.679 14.679-6.315 3.639-11.82 2.247-15.03-3.288l-3.884-6.728c-3.211-5.535-1.652-11.01 4.648-14.648M129.22 37.679l-5.076 1.697 2.003 5.994 5.077-1.697c1.926-.643 2.66-2.11 2.018-4.006-.627-1.896-2.095-2.63-4.021-1.988m10.199-.076c1.223 3.639.55 6.742-1.728 8.899.428.305.795.657 1.193 1.009l6.162 5.932c.764.72.856 1.468-.245 1.835l-2.92.979c-1.85.627-2.615.55-3.533-.398l-4.587-4.724c-1.36-1.407-2.217-1.652-4.327-.933l-1.499.505 2.584 7.69c.367 1.132.092 1.637-1.009 2.004l-2.95.978c-1.087.382-1.622.138-2.004-.994l-7.676-22.92c-.367-1.132-.092-1.621.994-1.988l10.122-3.395c5.291-1.773 9.649.23 11.423 5.52M162.583 26.601l.367 2.554c.168 1.147-.153 1.575-1.346 1.743l-5.932.871 2.905 19.848c.168 1.177-.153 1.62-1.346 1.789l-3.073.458c-1.147.169-1.575-.168-1.758-1.345l-2.906-19.847-5.978.871c-1.177.184-1.62-.138-1.774-1.284l-.382-2.554c-.168-1.177.153-1.62 1.33-1.789l18.104-2.645c1.178-.184 1.606.153 1.79 1.33M189.816 26.953 180.38 51.19c-.413 1.07-.917 1.284-1.957 1.27l-3.12-.092c-1.07-.032-1.574-.276-1.88-1.285l-8.15-24.801c-.367-1.04-.046-1.53 1.07-1.499l2.89.077c1.957.046 2.493.367 2.814 1.498l4.113 14.48c.55 2.095.841 4.649.841 4.649h.306s.367-2.447 1.085-4.557l4.817-14.266c.367-1.116.918-1.407 2.844-1.36l2.814.09c1.116.032 1.36.536.948 1.56M212.523 31.494l-.52 2.523c-.23 1.132-.673 1.437-1.85 1.193l-10.566-2.14-.994 4.862 8.686 1.758c1.162.245 1.467.703 1.238 1.835l-.52 2.523c-.23 1.162-.688 1.468-1.85 1.238l-8.685-1.773-1.04 5.137 10.948 2.217c1.132.23 1.453.734 1.223 1.866l-.52 2.523c-.229 1.177-.718 1.468-1.85 1.238l-15.55-3.165c-1.132-.23-1.468-.688-1.224-1.865l4.817-23.685c.23-1.178.719-1.468 1.85-1.239l15.169 3.089c1.177.23 1.483.688 1.238 1.865M230.474 42.494l-4.923-2.095-2.462 5.81 4.924 2.095c1.88.795 3.394.184 4.174-1.666.78-1.85.168-3.364-1.713-4.144m7.707 6.682c-1.498 3.547-4.052 5.428-7.186 5.52.122.52.152 1.024.229 1.56l.688 8.532c.107 1.04-.321 1.666-1.376 1.208l-2.844-1.208c-1.804-.75-2.324-1.315-2.386-2.63l-.32-6.575c-.092-1.958-.582-2.707-2.63-3.578l-1.453-.612-3.165 7.477c-.46 1.101-1.01 1.3-2.065.841l-2.874-1.208c-1.055-.458-1.3-.978-.841-2.064l9.419-22.278c.458-1.086 1.009-1.285 2.064-.841l9.832 4.159c5.137 2.17 7.08 6.544 4.908 11.697M263.794 57.094l-1.438 2.141c-.657.963-1.177 1.07-2.17.398l-8.946-6.025-2.768 4.128 7.34 4.94c.994.672 1.086 1.207.443 2.17l-1.437 2.126c-.673.994-1.208 1.1-2.187.428l-7.354-4.939-2.92 4.343 9.265 6.239c.948.642 1.07 1.223.428 2.186l-1.452 2.14c-.658.995-1.223 1.071-2.187.429l-13.15-8.868c-.963-.643-1.1-1.193-.428-2.187l13.502-20.046c.673-.994 1.238-1.07 2.186-.428l12.844 8.639c.994.673 1.086 1.208.428 2.186M272.08 62.3l2.37 2.141c.857.78.887 1.315.108 2.187l-16.254 17.997c-.765.856-1.315.886-2.171.107l-2.37-2.14c-.857-.765-.887-1.316-.107-2.172l16.238-17.997c.78-.872 1.315-.902 2.187-.122M294.24 88.801l-18.654 15.382c-.918.765-1.453.704-2.187-.183l-1.988-2.4c-.49-.597-.611-1.056-.413-1.652l4.037-13.135c1.009-3.257 2.89-6.177 3.501-7.064l-.168-.214c-.719.886-2.829 3.715-5.963 6.315l-7.11 5.856c-.918.765-1.483.688-2.217-.199l-1.82-2.202c-.734-.887-.703-1.468.214-2.217l18.655-15.397c.917-.765 1.483-.673 2.217.214l2.033 2.461c.52.627.566 1.04.398 1.621l-4.098 13.364c-1.04 3.456-2.844 5.994-3.303 6.835l.199.23c.673-1.055 2.6-3.747 5.78-6.361l7.095-5.857c.917-.764 1.452-.718 2.217.2l1.82 2.201c.718.887.672 1.437-.245 2.202M40.184 142.741c.52.979 1.712 2.462 3.257 4.006 1.529 1.53 3.027 2.722 3.99 3.242-.963.52-2.462 1.713-4.006 3.257-1.544 1.529-2.737 3.027-3.241 4.006h-.016c-.504-.979-1.712-2.477-3.241-4.006-1.53-1.53-3.028-2.722-4.006-3.242.978-.52 2.477-1.712 4.021-3.257 1.53-1.544 2.722-3.042 3.242-4.006M307 142.741c.52.979 1.713 2.462 3.258 4.006 1.529 1.53 3.027 2.722 3.99 3.242-.963.52-2.461 1.713-4.005 3.257-1.545 1.529-2.737 3.027-3.242 4.006h-.016c-.52-.979-1.712-2.477-3.241-4.006-1.53-1.53-3.028-2.722-4.006-3.242.978-.52 2.477-1.712 4.02-3.257 1.53-1.544 2.723-3.042 3.243-4.006"/></g><path d="M241.576 149.24c-19.328-2.325-34.511 10.137-42.464 21.39s-9.495 24.986-10.26 28.304c-.718 3.134-.978 4.51-2.981 4.51-2.432 0-1.912-2.997-1.79-3.99.26-2.05 1.774-21.117 6.163-30.948 8.608-19.282 12.43-26.438 12.43-40.522 0-15.582-17.446-31.056-23.562-41.822-3.517-6.208-4.97-6.865-5.596-6.865-.642 0-2.08.657-5.612 6.865-6.116 10.765-23.547 26.239-23.547 41.822 0 14.082 3.822 21.238 12.416 40.522 4.388 9.831 5.902 28.899 6.162 30.948.122.994.657 3.99-1.79 3.99-2.002 0-2.247-1.376-2.966-4.51-.764-3.318-2.308-17.05-10.275-28.303-7.95-11.254-23.12-23.716-42.448-21.392s-28.486 16.3-26.743 29.771c1.743 13.471 11.33 16.728 17.31 19.71 5.978 2.997 6.436 7.538 6.605 9.786.153 2.248 1.162 2.11 3.639.658 1.972-1.163 4.71-4.205 3.64-9.343-.689-3.394-3.38-4.71-3.38-11.82 0-8.792 7.813-12.798 14.22-12.798 6.988 0 17.722 5.536 25.383 24.649.688 1.743.734 2.722-.627 2.982-1.361.275-5.505.749-5.505 6.91 0 6.178 1.621 8.426 5.23 8.426s2.064 2.4 1.36 3.807c-.611 1.224-2.905 6.392-12.843 6.392-9.94 0-14.052 7.385-14.052 12.89 0 5.52 2.049 2.92 4.159 2.37 3.838-1.01 6.437.734 10.244 1.437 3.991.734 13.548-1.789 17.661-6.514 4.113-4.74 7.554-12.66 7.554-17.049 0-4.388 1.284-4.923 2.37-4.923 1.085 0 2.247.504 2.247 4.541 0 14.16-6.315 18.7-6.315 27.05 0 6.681 3.532 10 7.37 14.28 3.058 3.41 6.254 6.866 8.533 6.866 2.263 0 5.458-3.456 8.517-6.865 3.853-4.282 7.385-7.6 7.385-14.282 0-8.348-6.315-12.89-6.315-27.049 0-4.037 1.162-4.541 2.247-4.541s2.37.535 2.37 4.923 3.44 12.309 7.554 17.05c4.113 4.724 13.655 7.247 17.66 6.513 3.793-.703 6.392-2.446 10.245-1.437 2.095.55 4.144 3.15 4.144-2.37 0-5.505-4.113-12.89-14.052-12.89-9.923 0-12.232-5.168-12.844-6.392-.688-1.406-2.247-3.807 1.361-3.807s5.245-2.248 5.245-8.425c0-6.162-4.16-6.636-5.52-6.911-1.346-.26-1.315-1.239-.612-2.982 7.645-19.113 18.395-24.649 25.383-24.649 6.406 0 14.22 4.006 14.22 12.799 0 7.11-2.691 8.425-3.395 11.82-1.055 5.137 1.667 8.18 3.655 9.342 2.477 1.452 3.486 1.59 3.639-.658.153-2.248.627-6.79 6.59-9.786 5.979-2.982 15.566-6.239 17.31-19.71 1.758-13.47-7.401-27.446-26.729-29.77" fill="#fff"/></g></svg>