<?xml version="1.0" encoding="UTF-8"?>
<!-- Generator: Adobe Illustrator 26.0.2, SVG Export Plug-In . SVG Version: 6.00 Build 0)  -->
<svg width="297" height="337" version="1.1" viewBox="0 0 297 337" xml:space="preserve" xmlns="http://www.w3.org/2000/svg" xmlns:xlink="http://www.w3.org/1999/xlink">
<style type="text/css">
	.st0{clip-path:url(#SVGID_00000110473005222074405130000015878175063018982319_);fill:#24356E;}
	.st1{fill:#FFFDF2;}
	.st2{fill:#FFFDF2;stroke:#24356E;stroke-width:7.1803;stroke-miterlimit:10;}
	.st3{fill:#01438F;}
	.st4{fill:#24356E;}
	.st5{fill:#FFFDF3;}
	.st6{fill:#FFFDF3;stroke:#FFFDF3;stroke-width:1.8621;stroke-miterlimit:10;}
</style>
<g transform="matrix(.60095 0 0 .60095 2.4005 3.0006)"><g transform="translate(.045719)">
	
		<defs>
			<path id="SVGID_1_" d="m486.9 267.2c0-109.9-2.1-267.2-2.1-267.2h-482.1s-2.1 157.3-2.1 267.2c0 0-11.4 116 61.6 179.3 71.7 62.2 166.7 100.7 181.5 106.5 14.8-5.8 109.8-44.3 181.5-106.5 73.1-63.3 61.7-179.3 61.7-179.3z"/>
		</defs>
		<use width="100%" height="100%" fill="#fffdf3" xlink:href="#SVGID_1_"/>
		<clipPath id="SVGID_00000025411630804409337150000005490632367238720918_">
			<use width="100%" height="100%" xlink:href="#SVGID_1_"/>
		</clipPath>
	
	
		<defs>
			<path id="SVGID_00000110437004019556292150000015674677188626796180_" d="m467.8 265.6c0-101.3-1.9-246.3-1.9-246.3h-444.3s-1.9 144.9-1.9 246.3c0 0-10.5 106.9 56.7 165.2 66.1 57.3 153.7 92.8 167.3 98.1 13.6-5.3 101.2-40.8 167.3-98.1 67.3-58.3 56.8-165.2 56.8-165.2z"/>
		</defs>
		<use width="100%" height="100%" fill="#fffdf2" xlink:href="#SVGID_00000110437004019556292150000015674677188626796180_"/>
		<clipPath id="SVGID_00000082334661839748682200000005117891953008924309_">
			<use width="100%" height="100%" xlink:href="#SVGID_00000110437004019556292150000015674677188626796180_"/>
		</clipPath><g fill="#24356e">
		
			<rect x="-78.1" y="190.4" width="706" height="85.6" clip-path="url(#SVGID_00000082334661839748682200000005117891953008924309_)"/>
		
			<rect x="-91.4" y="358.8" width="706" height="85.6" clip-path="url(#SVGID_00000082334661839748682200000005117891953008924309_)"/>
		
			<rect x="-51.4" y="20" width="706" height="85.6" clip-path="url(#SVGID_00000082334661839748682200000005117891953008924309_)"/>
		
			<rect x="-84" y="509.8" width="706" height="85.6" clip-path="url(#SVGID_00000082334661839748682200000005117891953008924309_)"/>
		
			</g><use width="100%" height="100%" fill="none" stroke="#22356c" stroke-miterlimit="10" stroke-width="7.4485" xlink:href="#SVGID_00000110437004019556292150000015674677188626796180_"/>
	
	
		<circle class="st1" cx="243.8" cy="206.4" r="163.4"/>
		
			
				
					<circle class="st2" cx="243.2" cy="206.3" r="153.5"/>
				
				
					
						<path class="st3" d="m288.7 94.3c-6 7.3-14.7 13.1-21.9 19.4-8.1-6.4-15.7-19.6-27.1-18.1-3.7 2.2-4.5 6.3-3.3 9.9 20.5 35.8 78.1 66.7 47.6 113.5-12.5 16.8-31.7 24.6-52.4 21-14-2.9-28.6-13.4-34.6-26.7-6.4-12-6.5-30-0.7-42.5l28.4 13.6c-0.2 5.3-0.5 11.8 3.3 16.1 3.4 3.7 7.3 6 11.8 6.4 5.3 0.4 9.4-1.8 12.7-5.8 3.7-4.2 3.9-11 2.2-16.5-14.5-22.3-33.7-42.8-48.6-65.1-5.4-11.8-4.9-27.5 3.1-37.8 9.3-12.6 23.3-17.1 38.6-15 16.4 2.8 29 15.3 40.9 27.6z"/>
						<path class="st3" d="m334.2 102.4c38.6 34.1 55.4 81.8 45.8 133.2-5.9 25.4-17.8 48.9-37.3 68.3-9.3-2.9-17.7-7.2-26.6-10.6 32.6-31.3 47.2-77 32.2-120.6-4.6-12.4-11.2-23.9-19.9-34.3h-2.4l-35.3 17.6-0.7 0.4-18.3-23.3c20.8-10.3 40.9-21.9 62.5-30.7z"/>
						<path class="st3" d="m200.3 127.9c13.1 16.6 26 33.3 39.1 49.7-27-12.2-55-24.8-82.5-38-5.9 5-9.6 12.7-13.4 19.4-18.1 34.2-13.4 83.9 9.6 114.2l19.6 21.5-26.5 11.6c-35.6-33.8-49.7-83.2-39.1-130.9 7.1-26.6 20.1-51.3 43-71.1z"/>
						<path class="st3" d="m325.1 152.6c18.7 25 23.5 66.3 9.5 95.1-15.7 37.9-54.6 69.2-89.5 87.5-48.7-23.5-102.9-69.9-101.4-129.5 0.9-19.1 5.5-36.4 15.6-51.6l26.6 12c-3.4 4.9-6.4 10.1-7.9 15.8-15.3 41.2 11 77.6 41.8 104.3 7.5 6 15.6 10.9 24.1 14.6 38.2-18.4 71.6-58.2 68.3-102.5-0.9-12-5.7-23.2-14.4-32.3 8.5-5 18.1-9.4 27.3-13.4z"/>
					
					
						<path class="st4" d="m288.7 94.3c-6 7.3-14.7 13.1-21.9 19.4-8.1-6.4-15.7-19.6-27.1-18.1-3.7 2.2-4.5 6.3-3.3 9.9 20.5 35.8 78.1 66.7 47.6 113.5-12.5 16.8-31.7 24.6-52.4 21-14-2.9-28.6-13.4-34.6-26.7-6.4-12-6.5-30-0.7-42.5l28.4 13.6c-0.2 5.3-0.5 11.8 3.3 16.1 3.4 3.7 7.3 6 11.8 6.4 5.3 0.4 9.4-1.8 12.7-5.8 3.7-4.2 3.9-11 2.2-16.5-14.5-22.3-33.7-42.8-48.6-65.1-5.4-11.8-4.9-27.5 3.1-37.8 9.3-12.6 23.3-17.1 38.6-15 16.4 2.8 29 15.3 40.9 27.6z"/>
						<path class="st4" d="m334.2 102.4c38.6 34.1 55.4 81.8 45.8 133.2-5.9 25.4-17.8 48.9-37.3 68.3-9.3-2.9-17.7-7.2-26.6-10.6 32.6-31.3 47.2-77 32.2-120.6-4.6-12.4-11.2-23.9-19.9-34.3h-2.4l-35.3 17.6-0.7 0.4-18.3-23.3c20.8-10.3 40.9-21.9 62.5-30.7z"/>
						<path class="st4" d="m200.3 127.9c13.1 16.6 26 33.3 39.1 49.7-27-12.2-55-24.8-82.5-38-5.9 5-9.6 12.7-13.4 19.4-18.1 34.2-13.4 83.9 9.6 114.2l19.6 21.5-26.5 11.6c-35.6-33.8-49.7-83.2-39.1-130.9 7.1-26.6 20.1-51.3 43-71.1z"/>
						<path class="st4" d="m325.1 152.6c18.7 25 23.5 66.3 9.5 95.1-15.7 37.9-54.6 69.2-89.5 87.5-48.7-23.5-102.9-69.9-101.4-129.5 0.9-19.1 5.5-36.4 15.6-51.6l26.6 12c-3.4 4.9-6.4 10.1-7.9 15.8-15.3 41.2 11 77.6 41.8 104.3 7.5 6 15.6 10.9 24.1 14.6 38.2-18.4 71.6-58.2 68.3-102.5-0.9-12-5.7-23.2-14.4-32.3 8.5-5 18.1-9.4 27.3-13.4z"/>
					
				
			
		
	
	
		
			
				<path class="st5" d="m192.1 426.2c0.1-0.5 0.3-1.1 0.4-1.8s0.2-1.6 0.3-2.6 0.2-2.3 0.2-3.7 0.1-3.1 0.1-5v-22c0-1.9-0.1-3.4-0.4-4.6-0.3-1.1-0.6-2-1-2.6s-0.8-1-1.1-1.3c-0.4-0.3-0.7-0.5-1-0.7v-0.1c4.1-1.6 6.2-2.3 10.4-3.9v0.1c-0.1 0.5-0.3 1.1-0.4 1.8s-0.2 1.6-0.3 2.6-0.2 2.3-0.2 3.7-0.1 3.1-0.1 5v22c0 1.9 0 3.6 0.1 5 0 1.4 0.1 2.7 0.2 3.7s0.2 1.9 0.3 2.6 0.3 1.3 0.4 1.8v0.1h-7.8c-0.1 0-0.1-0.1-0.1-0.1z"/>
				<path class="st5" d="m212.4 423.9c0.7-0.7 1.6-1.6 2.5-2.6s2-2.1 3-3.4c1.1-1.2 2.2-2.6 3.2-4 1.1-1.4 2.1-3 3.1-4.6s1.9-3.3 2.6-5.1c0.8-1.8 1.4-3.6 1.8-5.5 0.5-1.9 0.7-3.9 0.7-5.9 0-2.1-0.3-4-0.8-5.6s-1.2-2.9-2.1-3.9-1.9-1.8-3.1-2.3-2.5-0.7-3.8-0.7c-1.7 0-3.3 0.3-4.6 0.9-1.4 0.6-2.6 1.2-3.6 2s-1.9 1.5-2.5 2.3-1.1 1.4-1.3 1.8c-0.2-0.1-0.3-0.1-0.5-0.2 0.9-2.7 1.4-4.1 2.3-6.9 1.2-0.5 2.3-1 3.4-1.4 1-0.4 2.1-0.7 3.2-1l3.3-0.6c1.1-0.1 2.4-0.2 3.8-0.2 0.9 0 1.9 0.1 2.9 0.3s2.1 0.5 3.1 1 2 1 2.9 1.7 1.7 1.6 2.4 2.6 1.3 2.2 1.7 3.6 0.6 2.9 0.6 4.6c0 1.8-0.3 3.7-0.8 5.6-0.6 1.9-1.3 3.7-2.2 5.5s-2 3.5-3.2 5.2-2.4 3.3-3.7 4.9-2.5 3-3.7 4.4-2.4 2.6-3.3 3.7h13c0.8 0 1.6 0 2.4-0.1 0.8 0 1.5-0.1 2.2-0.2s1.3-0.2 1.8-0.3 0.9-0.3 1.2-0.5h0.1v7.2h-29.6v-0.7c0.4-0.3 0.9-0.9 1.6-1.6z"/>
				<path class="st5" d="m245.1 402.2c0-2.3 0.3-4.5 0.9-6.6s1.4-4.1 2.5-6 2.4-3.5 3.9-5.1c1.5-1.5 3.2-2.8 5.1-3.9s3.9-1.9 6-2.5 4.4-0.9 6.6-0.9c2.3 0 4.5 0.3 6.6 0.9s4.1 1.4 6 2.5 3.6 2.4 5.1 3.9 2.8 3.2 3.9 5.1 1.9 3.9 2.5 6 0.9 4.4 0.9 6.6c0 2.3-0.3 4.5-0.9 6.7-0.6 2.1-1.4 4.1-2.5 6s-2.4 3.6-3.9 5.1-3.2 2.8-5.1 3.9-3.9 1.9-6 2.5-4.4 0.9-6.6 0.9c-2.3 0-4.5-0.3-6.6-0.9s-4.1-1.4-6-2.5-3.6-2.4-5.1-3.9-2.8-3.2-3.9-5.1-1.9-3.9-2.5-6-0.9-4.3-0.9-6.7zm5.3 0.2c0 1.8 0.2 3.6 0.7 5.3s1.1 3.3 2 4.8c0.8 1.5 1.9 2.9 3.1 4.1s2.5 2.3 4 3.2 3.1 1.6 4.7 2c1.7 0.5 3.5 0.7 5.3 0.7s3.6-0.2 5.3-0.7 3.3-1.2 4.8-2c1.5-0.9 2.8-1.9 4-3.2 1.2-1.2 2.2-2.6 3.1-4.1s1.5-3.1 2-4.8 0.7-3.5 0.7-5.3c0-2.8-0.5-5.4-1.6-7.8-1-2.4-2.4-4.6-4.2-6.4s-3.9-3.3-6.3-4.4-5-1.6-7.8-1.6-5.4 0.5-7.8 1.6-4.5 2.5-6.3 4.4c-1.8 1.8-3.2 4-4.2 6.4s-1.5 5-1.5 7.8z"/>
			
			
				
					<path class="st5" d="m123.4 411.2c0.1-0.2 0.1-0.4 0.1-0.7s0.1-0.6 0.1-1 0.1-0.8 0.1-1.4v-1.9-8.2c0-0.7-0.1-1.3-0.2-1.7s-0.2-0.7-0.4-1c-0.1-0.2-0.3-0.4-0.4-0.5s-0.3-0.2-0.4-0.3v-0.1c1.5-0.6 2.3-0.9 3.9-1.5v0.1c-0.1 0.2-0.1 0.4-0.1 0.7s-0.1 0.6-0.1 1-0.1 0.9-0.1 1.4v1.9 8.2 1.9c0 0.5 0 1 0.1 1.4 0 0.4 0.1 0.7 0.1 1s0.1 0.5 0.1 0.7v0.1c-1-0.1-1.6-0.1-2.8-0.1z"/>
					<path class="st5" d="m127.4 413.2c0.9-0.1 1.8-0.2 2.7-0.5s1.7-0.7 2.5-1.1c0.8-0.5 1.5-1 2.3-1.6 0.7-0.6 1.3-1.3 1.9-2s1-1.5 1.4-2.4 0.7-1.7 0.9-2.7c-0.4 0.2-0.7 0.4-1 0.6s-0.6 0.3-0.9 0.4-0.7 0.2-1 0.2c-0.4 0.1-0.8 0.1-1.2 0.1-0.6 0-1.2-0.1-1.8-0.3s-1.2-0.6-1.8-1c-0.5-0.5-1-1-1.3-1.7-0.4-0.7-0.5-1.5-0.5-2.5 0-0.7 0.1-1.3 0.4-2s0.6-1.3 1.1-1.8 1.1-1 1.9-1.3 1.7-0.5 2.7-0.5c0.8 0 1.6 0.2 2.4 0.5s1.4 0.8 2 1.4 1.1 1.4 1.4 2.3 0.5 2 0.5 3.3c0 1.1-0.2 2.2-0.5 3.3s-0.8 2.1-1.4 3.1-1.4 1.9-2.2 2.7c-0.9 0.8-1.8 1.6-2.9 2.2s-2.2 1.1-3.4 1.5-2.4 0.6-3.7 0.7c-0.3-0.6-0.4-0.7-0.5-0.9zm8.8-10.5c0.5 0 1-0.1 1.5-0.2s1-0.4 1.4-0.7c0-0.2 0.1-0.5 0.1-0.7v-0.8c0-1.1-0.1-2-0.3-2.8s-0.5-1.5-0.9-2.1-0.8-1-1.3-1.3-1-0.4-1.6-0.4c-0.4 0-0.8 0.1-1.2 0.2-0.4 0.2-0.8 0.4-1.1 0.7s-0.6 0.7-0.8 1.2-0.3 1.1-0.3 1.8 0.1 1.3 0.3 1.9 0.5 1.1 0.9 1.6c0.4 0.4 0.9 0.8 1.4 1 0.6 0.5 1.3 0.6 1.9 0.6z"/>
					<path class="st5" d="m144 402.2c0-0.9 0.1-1.7 0.3-2.5s0.5-1.5 0.9-2.2 0.9-1.3 1.5-1.9 1.2-1.1 1.9-1.5 1.4-0.7 2.2-0.9 1.6-0.3 2.5-0.3 1.7 0.1 2.5 0.3 1.5 0.5 2.2 0.9 1.3 0.9 1.9 1.5 1.1 1.2 1.5 1.9 0.7 1.4 0.9 2.2 0.3 1.6 0.3 2.5-0.1 1.7-0.3 2.5-0.5 1.5-0.9 2.2-0.9 1.3-1.5 1.9-1.2 1.1-1.9 1.5-1.4 0.7-2.2 0.9-1.6 0.3-2.5 0.3-1.7-0.1-2.5-0.3-1.5-0.5-2.2-0.9-1.3-0.9-1.9-1.5-1.1-1.2-1.5-1.9-0.7-1.4-0.9-2.2-0.3-1.6-0.3-2.5zm2 0.1c0 0.7 0.1 1.4 0.3 2s0.4 1.2 0.7 1.8 0.7 1.1 1.1 1.5c0.4 0.5 0.9 0.9 1.5 1.2s1.1 0.6 1.8 0.8c0.6 0.2 1.3 0.3 2 0.3s1.4-0.1 2-0.3 1.2-0.4 1.8-0.8c0.6-0.3 1-0.7 1.5-1.2 0.4-0.5 0.8-1 1.1-1.5 0.3-0.6 0.6-1.2 0.7-1.8 0.2-0.6 0.3-1.3 0.3-2 0-1-0.2-2-0.6-2.9s-0.9-1.7-1.6-2.4-1.5-1.2-2.4-1.6-1.9-0.6-2.9-0.6-2 0.2-2.9 0.6-1.7 0.9-2.4 1.6-1.2 1.5-1.6 2.4c-0.2 0.9-0.4 1.8-0.4 2.9z"/>
					<path class="st5" d="m166.4 410.3c0.3-0.3 0.6-0.6 0.9-1 0.4-0.4 0.7-0.8 1.1-1.3l1.2-1.5c0.4-0.5 0.8-1.1 1.2-1.7s0.7-1.2 1-1.9 0.5-1.4 0.7-2.1 0.3-1.4 0.3-2.2-0.1-1.5-0.3-2.1-0.4-1.1-0.8-1.4c-0.3-0.4-0.7-0.7-1.2-0.9-0.4-0.2-0.9-0.3-1.4-0.3-0.6 0-1.2 0.1-1.7 0.3s-1 0.5-1.3 0.8c-0.4 0.3-0.7 0.6-0.9 0.9s-0.4 0.5-0.5 0.7c-0.1 0-0.1 0-0.2-0.1 0.3-1 0.5-1.5 0.9-2.6 0.4-0.2 0.9-0.4 1.3-0.5s0.8-0.3 1.2-0.4 0.8-0.2 1.2-0.2 0.9-0.1 1.4-0.1c0.3 0 0.7 0 1.1 0.1s0.8 0.2 1.1 0.4c0.4 0.2 0.7 0.4 1.1 0.6 0.3 0.3 0.6 0.6 0.9 1s0.5 0.8 0.6 1.3c0.2 0.5 0.2 1.1 0.2 1.7 0 0.7-0.1 1.4-0.3 2.1s-0.5 1.4-0.8 2c-0.3 0.7-0.7 1.3-1.2 2-0.4 0.6-0.9 1.2-1.4 1.8s-0.9 1.1-1.4 1.6-0.9 1-1.2 1.4h4.9 0.9c0.3 0 0.6 0 0.8-0.1 0.3 0 0.5-0.1 0.7-0.1s0.3-0.1 0.4-0.2h0.1v2.7h-11.1v-0.3c0 0.1 0.2-0.1 0.5-0.4z"/>
				
				<path class="st6" d="m178.2 386.1h-56.9"/>
				<path class="st6" d="m178.2 418.3h-56.9"/>
			
			
				
					<path class="st5" d="m306 410.3c0.3-0.3 0.6-0.6 0.9-1 0.4-0.4 0.7-0.8 1.1-1.3l1.2-1.5c0.4-0.5 0.8-1.1 1.2-1.7s0.7-1.2 1-1.9 0.5-1.4 0.7-2.1 0.3-1.4 0.3-2.2-0.1-1.5-0.3-2.1-0.4-1.1-0.8-1.4c-0.3-0.4-0.7-0.7-1.2-0.9-0.4-0.2-0.9-0.3-1.4-0.3-0.6 0-1.2 0.1-1.7 0.3s-1 0.5-1.3 0.8c-0.4 0.3-0.7 0.6-0.9 0.9s-0.4 0.5-0.5 0.7c-0.1 0-0.1 0-0.2-0.1 0.3-1 0.5-1.5 0.9-2.6 0.4-0.2 0.9-0.4 1.3-0.5s0.8-0.3 1.2-0.4 0.8-0.2 1.2-0.2 0.9-0.1 1.4-0.1c0.3 0 0.7 0 1.1 0.1s0.8 0.2 1.1 0.4c0.4 0.2 0.7 0.4 1.1 0.6 0.3 0.3 0.6 0.6 0.9 1s0.5 0.8 0.6 1.3c0.2 0.5 0.2 1.1 0.2 1.7 0 0.7-0.1 1.4-0.3 2.1s-0.5 1.4-0.8 2c-0.3 0.7-0.7 1.3-1.2 2-0.4 0.6-0.9 1.2-1.4 1.8s-0.9 1.1-1.4 1.6-0.9 1-1.2 1.4h4.9 0.9c0.3 0 0.6 0 0.8-0.1 0.3 0 0.5-0.1 0.7-0.1 0.2-0.1 0.3-0.1 0.4-0.2h0.1v2.7h-11.1v-0.3c0 0.1 0.2-0.1 0.5-0.4z"/>
					<path class="st5" d="m318.2 402.2c0-0.9 0.1-1.7 0.3-2.5s0.5-1.5 0.9-2.2 0.9-1.3 1.5-1.9 1.2-1.1 1.9-1.5 1.4-0.7 2.2-0.9 1.6-0.3 2.5-0.3 1.7 0.1 2.5 0.3 1.5 0.5 2.2 0.9 1.3 0.9 1.9 1.5 1.1 1.2 1.5 1.9 0.7 1.4 0.9 2.2 0.3 1.6 0.3 2.5-0.1 1.7-0.3 2.5-0.5 1.5-0.9 2.2-0.9 1.3-1.5 1.9-1.2 1.1-1.9 1.5-1.4 0.7-2.2 0.9-1.6 0.3-2.5 0.3-1.7-0.1-2.5-0.3-1.5-0.5-2.2-0.9-1.3-0.9-1.9-1.5-1.1-1.2-1.5-1.9-0.7-1.4-0.9-2.2-0.3-1.6-0.3-2.5zm2 0.1c0 0.7 0.1 1.4 0.3 2s0.4 1.2 0.7 1.8 0.7 1.1 1.1 1.5c0.4 0.5 0.9 0.9 1.5 1.2s1.1 0.6 1.8 0.8c0.6 0.2 1.3 0.3 2 0.3s1.4-0.1 2-0.3 1.2-0.4 1.8-0.8c0.6-0.3 1-0.7 1.5-1.2 0.4-0.5 0.8-1 1.1-1.5 0.3-0.6 0.6-1.2 0.7-1.8 0.2-0.6 0.3-1.3 0.3-2 0-1-0.2-2-0.6-2.9s-0.9-1.7-1.6-2.4-1.5-1.2-2.4-1.6-1.9-0.6-2.9-0.6-2 0.2-2.9 0.6-1.7 0.9-2.4 1.6-1.2 1.5-1.6 2.4c-0.2 0.9-0.4 1.8-0.4 2.9z"/>
					<path class="st5" d="m340.5 410.3c0.3-0.3 0.6-0.6 0.9-1 0.4-0.4 0.7-0.8 1.1-1.3l1.2-1.5c0.4-0.5 0.8-1.1 1.2-1.7s0.7-1.2 1-1.9 0.5-1.4 0.7-2.1 0.3-1.4 0.3-2.2-0.1-1.5-0.3-2.1-0.4-1.1-0.8-1.4c-0.3-0.4-0.7-0.7-1.2-0.9-0.4-0.2-0.9-0.3-1.4-0.3-0.6 0-1.2 0.1-1.7 0.3s-1 0.5-1.3 0.8c-0.4 0.3-0.7 0.6-0.9 0.9s-0.4 0.5-0.5 0.7c-0.1 0-0.1 0-0.2-0.1 0.3-1 0.5-1.5 0.9-2.6 0.4-0.2 0.9-0.4 1.3-0.5s0.8-0.3 1.2-0.4 0.8-0.2 1.2-0.2 0.9-0.1 1.4-0.1c0.3 0 0.7 0 1.1 0.1s0.8 0.2 1.1 0.4c0.4 0.2 0.7 0.4 1.1 0.6 0.3 0.3 0.6 0.6 0.9 1s0.5 0.8 0.6 1.3c0.2 0.5 0.2 1.1 0.2 1.7 0 0.7-0.1 1.4-0.3 2.1s-0.5 1.4-0.8 2c-0.3 0.7-0.7 1.3-1.2 2-0.4 0.6-0.9 1.2-1.4 1.8s-0.9 1.1-1.4 1.6-0.9 1-1.2 1.4h4.9 0.9c0.3 0 0.6 0 0.8-0.1 0.3 0 0.5-0.1 0.7-0.1 0.2-0.1 0.3-0.1 0.4-0.2h0.1v2.7h-11.1v-0.3c0.1 0.1 0.3-0.1 0.5-0.4z"/>
					<path class="st5" d="m354.3 410.3c0.3-0.3 0.6-0.6 0.9-1 0.4-0.4 0.7-0.8 1.1-1.3l1.2-1.5c0.4-0.5 0.8-1.1 1.2-1.7s0.7-1.2 1-1.9 0.5-1.4 0.7-2.1 0.3-1.4 0.3-2.2-0.1-1.5-0.3-2.1-0.4-1.1-0.8-1.5c-0.3-0.4-0.7-0.7-1.2-0.9-0.4-0.2-0.9-0.3-1.4-0.3-0.6 0-1.2 0.1-1.7 0.3s-1 0.5-1.3 0.8c-0.4 0.3-0.7 0.6-0.9 0.9s-0.4 0.5-0.5 0.7c-0.1 0-0.1 0-0.2-0.1 0.3-1 0.5-1.5 0.9-2.6 0.4-0.2 0.9-0.4 1.3-0.5s0.8-0.3 1.2-0.4 0.8-0.2 1.2-0.2 0.9-0.1 1.4-0.1c0.3 0 0.7 0 1.1 0.1s0.8 0.2 1.1 0.4c0.4 0.2 0.7 0.4 1.1 0.6 0.3 0.3 0.6 0.6 0.9 1s0.5 0.8 0.6 1.3c0.2 0.5 0.2 1.1 0.2 1.7 0 0.7-0.1 1.4-0.3 2.1s-0.5 1.4-0.8 2c-0.3 0.7-0.7 1.3-1.2 2-0.4 0.6-0.9 1.2-1.4 1.8s-0.9 1.1-1.4 1.6-0.9 1-1.2 1.4h4.9 0.9c0.3 0 0.6 0 0.8-0.1 0.3 0 0.5-0.1 0.7-0.1 0.2-0.1 0.3-0.1 0.4-0.2h0.1v2.7h-11.1v-0.3c0 0.2 0.2 0 0.5-0.3z"/>
				
				<path class="st6" d="m366.2 386.1h-62.4"/>
				<path class="st6" d="m366.2 418.3h-62.4"/>
			
		
	
</g></g>
</svg>
