<svg xmlns="http://www.w3.org/2000/svg" version="1.0" width="190" height="300"><g style="display:inline"><path d="m31.969 35.855 168.494-.027v250.238l-84.429 30.392-84.092-30.318.027-250.285z" style="fill:#fff;fill-opacity:1;fill-rule:evenodd;stroke:none;stroke-width:6.46967077;stroke-linecap:butt;stroke-linejoin:miter;stroke-miterlimit:4;stroke-dasharray:none;stroke-opacity:1" transform="translate(-21.202 -26.143)"/><path d="m31.228 34.438 170.196-.028V287.176l-85.282 30.7-84.941-30.625.027-252.813zM30.981 144.785h170.32" style="fill:none;fill-rule:evenodd;stroke:#000;stroke-width:6.53502798;stroke-linecap:butt;stroke-linejoin:miter;stroke-miterlimit:4;stroke-dasharray:none;stroke-opacity:1" transform="translate(-21.202 -26.143)"/><path d="M41.048 155.009v73.156h14.999v.318c0 33.308 27.027 60.358 60.335 60.358h.068v17.88l74.949-27.047v-51.509h-14.681c-.173-33.138-27.097-59.981-60.268-60.018V155.01H41.048zm75.334 18.561c30.313 0 54.913 24.6 54.913 54.913 0 30.312-24.6 54.935-54.913 54.935-30.312 0-54.912-24.623-54.912-54.935 0-30.313 24.6-54.913 54.912-54.913zm6.853 12.367v21.624a22.018 22.018 0 0 1 7.896 4.561L149.83 201.3c-6.54-8.028-15.918-13.655-26.594-15.362zm-14.205.09c-10.456 1.8-19.617 7.36-26.049 15.25l18.652 10.868a22.006 22.006 0 0 1 7.397-4.425v-21.692zM75.924 213.62a42.994 42.994 0 0 0-2.632 14.863 42.956 42.956 0 0 0 2.882 15.498l18.674-10.824a22.182 22.182 0 0 1-.499-4.674c0-1.346.132-2.646.363-3.926L75.924 213.62zm80.94 0-18.812 10.892c.237 1.293.363 2.61.363 3.97 0 1.643-.203 3.249-.544 4.788l18.674 10.892a42.913 42.913 0 0 0 2.95-15.68c0-5.222-.927-10.23-2.632-14.862zm-40.482 4.334c-5.816 0-10.528 4.713-10.528 10.529 0 5.815 4.712 10.551 10.528 10.551 5.816 0 10.529-4.736 10.529-10.551 0-5.816-4.713-10.529-10.529-10.529zm-14.204 27.365-18.766 10.892c6.408 7.617 15.394 12.988 25.618 14.75v-21.693a21.915 21.915 0 0 1-6.852-3.949zm28.318.091a21.982 21.982 0 0 1-7.261 4.017v21.624c10.372-1.66 19.517-7.034 26.027-14.704l-18.766-10.937z" style="fill:#e31818;fill-opacity:1;fill-rule:evenodd;stroke:none;stroke-width:9;stroke-linejoin:miter;stroke-miterlimit:4;stroke-dashoffset:0;stroke-opacity:1;display:inline" transform="translate(-21.202 -26.143)"/><path d="m73.742 42.189 36.41.017v11.95l-20.867-.017v5.708l19.125-.037.018 12.096h-19.18V87.86l-15.469.02-.037-45.69zM157.915 58.881H142.33c.03-2.414-.764-6.387-6.785-6.418-5.93-.03-10.04 3.117-10.086 12.836-.045 9.72 4.721 12.47 10.086 12.47 5.363 0 7.854-3.454 7.793-7.794h15.678c.03 13.172-9.978 18.337-24.388 18.337-14.41 0-23.823-7.029-23.838-22.463-.016-15.433 8.557-23.64 25.122-23.655 16.656-.015 22.004 7.733 22.004 16.687zM43.158 92.245v44.974h14.885v-16.814h10.143c2.72 1.581 1.615 14.643 3.45 16.814h15.02c-2.128-2.115-2.18-14.345-2.835-18.13-.721-3.112-2.912-4.858-5.4-4.924 2.44.098 6.141-4.602 6.126-10.597.033-6.13-4.153-11.284-10.801-11.323H43.158zm14.885 10.733h7.829c4.43-.016 4.594 6.692 0 6.694h-7.829v-6.694zM84.554 92.245l10.838 44.982h15.397l6.621-24.15 7.017 24.15h15.244l11.25-44.982h-13.67l-6.05 23.227-7.137-23.227H110.79l-6.566 23.227-5.928-23.227h-13.74zM152.01 92.245v44.982h37.02v-11.143h-22.502v-6.533h20.204v-11.13h-20.204v-4.84h21.656V92.246H152.01z" style="fill:#000;fill-opacity:1;fill-rule:evenodd;stroke:none;stroke-width:1px;stroke-linecap:butt;stroke-linejoin:miter;stroke-opacity:1" transform="translate(-21.202 -26.143)"/></g></svg>