<svg width="71.459" height="78.23" version="1.2" viewBox="0 0 53.595 58.673" xmlns="http://www.w3.org/2000/svg" xmlns:xlink="http://www.w3.org/1999/xlink"><defs><clipPath id="g"><path d="M300.57 612.4h17.344v19.309H300.57z"/></clipPath><clipPath id="h"><path d="M301 613h16.91v18H301z"/></clipPath></defs><g fill="#191917"><use x="305.194" y="181.196" width="100%" height="100%" xlink:href="#a" transform="translate(-300.57 -612.4)"/><use x="89.903" y="151.229" width="100%" height="100%" xlink:href="#b" transform="translate(-300.57 -612.4)"/><use x="108.246" y="151.229" width="100%" height="100%" xlink:href="#b" transform="translate(-300.57 -612.4)"/><use x="64.224" y="181.196" width="100%" height="100%" xlink:href="#a" transform="translate(-300.57 -612.4)"/><use x="64.958" y="246.677" width="100%" height="100%" xlink:href="#a" transform="translate(-300.57 -612.4)"/><use x="50.74" y="325.985" width="100%" height="100%" xlink:href="#c" transform="translate(-300.57 -612.4)"/><use x="250.384" y="325.985" width="100%" height="100%" xlink:href="#c" transform="translate(-300.57 -612.4)"/><use x="292.756" y="325.985" width="100%" height="100%" xlink:href="#d" transform="translate(-300.57 -612.4)"/><use x="352.413" y="325.985" width="100%" height="100%" xlink:href="#c" transform="translate(-300.57 -612.4)"/><use x="337.829" y="76.11" width="100%" height="100%" xlink:href="#b" transform="translate(-300.57 -612.4)"/></g><use x="320.848" y="99.639" width="100%" height="100%" xlink:href="#a" fill="#858585" transform="translate(-300.57 -612.4)"/><use x="334.416" y="99.639" width="100%" height="100%" xlink:href="#a" fill="#858585" transform="translate(-300.57 -612.4)"/><use x="306.536" y="110.975" width="100%" height="100%" xlink:href="#a" fill="#191917" transform="translate(-300.57 -612.4)"/><g fill="#858585"><use x="320.848" y="120.047" width="100%" height="100%" xlink:href="#a" transform="translate(-300.57 -612.4)"/><use x="334.416" y="120.047" width="100%" height="100%" xlink:href="#a" transform="translate(-300.57 -612.4)"/><use x="80.196" y="99.639" width="100%" height="100%" xlink:href="#a" transform="translate(-300.57 -612.4)"/><use x="93.763" y="99.639" width="100%" height="100%" xlink:href="#a" transform="translate(-300.57 -612.4)"/></g><use x="65.883" y="110.975" width="100%" height="100%" xlink:href="#a" fill="#191917" transform="translate(-300.57 -612.4)"/><use x="80.196" y="120.047" width="100%" height="100%" xlink:href="#a" fill="#858585" transform="translate(-300.57 -612.4)"/><use x="93.763" y="120.047" width="100%" height="100%" xlink:href="#a" fill="#858585" transform="translate(-300.57 -612.4)"/><g fill="#191917"><use x="20.772" y="52.691" width="100%" height="100%" xlink:href="#e" transform="translate(-300.57 -612.4)"/><use x="174.123" y="52.691" width="100%" height="100%" xlink:href="#e" transform="translate(-300.57 -612.4)"/><use x="280.797" y="52.691" width="100%" height="100%" xlink:href="#e" transform="translate(-300.57 -612.4)"/><use x="391.902" y="52.691" width="100%" height="100%" xlink:href="#f" transform="translate(-300.57 -612.4)"/><use x="411.527" y="52.691" width="100%" height="100%" xlink:href="#f" transform="translate(-300.57 -612.4)"/><use x="104.941" y="380.611" width="100%" height="100%" xlink:href="#a" transform="translate(-300.57 -612.4)"/><use x="121.749" y="405.051" width="100%" height="100%" xlink:href="#a" transform="translate(-300.57 -612.4)"/><use x="105.813" y="429.491" width="100%" height="100%" xlink:href="#a" transform="translate(-300.57 -612.4)"/><use x="135.501" y="429.491" width="100%" height="100%" xlink:href="#a" transform="translate(-300.57 -612.4)"/><use x="128.269" y="453.931" width="100%" height="100%" xlink:href="#a" transform="translate(-300.57 -612.4)"/><use x="125.405" y="478.371" width="100%" height="100%" xlink:href="#a" transform="translate(-300.57 -612.4)"/><use x="130.101" y="502.811" width="100%" height="100%" xlink:href="#a" transform="translate(-300.57 -612.4)"/><use x="136.941" y="527.251" width="100%" height="100%" xlink:href="#a" transform="translate(-300.57 -612.4)"/><use x="132.381" y="551.691" width="100%" height="100%" xlink:href="#a" transform="translate(-300.57 -612.4)"/><use x="110.765" y="576.131" width="100%" height="100%" xlink:href="#a" transform="translate(-300.57 -612.4)"/><use x="133.405" y="576.131" width="100%" height="100%" xlink:href="#a" transform="translate(-300.57 -612.4)"/><use x="106.541" y="600.571" width="100%" height="100%" xlink:href="#a" transform="translate(-300.57 -612.4)"/><use x="117.493" y="625.011" width="100%" height="100%" xlink:href="#a" transform="translate(-300.57 -612.4)"/><use x="129.893" y="625.011" width="100%" height="100%" xlink:href="#a" transform="translate(-300.57 -612.4)"/><use x="102.941" y="649.451" width="100%" height="100%" xlink:href="#a" transform="translate(-300.57 -612.4)"/><use x="119.637" y="649.451" width="100%" height="100%" xlink:href="#a" transform="translate(-300.57 -612.4)"/><use x="144.461" y="649.451" width="100%" height="100%" xlink:href="#a" transform="translate(-300.57 -612.4)"/><use x="128.269" y="673.891" width="100%" height="100%" xlink:href="#a" transform="translate(-300.57 -612.4)"/><use x="105.261" y="698.331" width="100%" height="100%" xlink:href="#a" transform="translate(-300.57 -612.4)"/><use x="134.197" y="698.331" width="100%" height="100%" xlink:href="#a" transform="translate(-300.57 -612.4)"/><use x="102.941" y="722.771" width="100%" height="100%" xlink:href="#a" transform="translate(-300.57 -612.4)"/><use x="114.589" y="722.771" width="100%" height="100%" xlink:href="#a" transform="translate(-300.57 -612.4)"/><use x="105.261" y="747.211" width="100%" height="100%" xlink:href="#a" transform="translate(-300.57 -612.4)"/><use x="136.133" y="747.211" width="100%" height="100%" xlink:href="#a" transform="translate(-300.57 -612.4)"/><use x="109.725" y="771.651" width="100%" height="100%" xlink:href="#a" transform="translate(-300.57 -612.4)"/><use x="108.517" y="796.091" width="100%" height="100%" xlink:href="#a" transform="translate(-300.57 -612.4)"/><use x="346.206" y="380.611" width="100%" height="100%" xlink:href="#a" transform="translate(-300.57 -612.4)"/><use x="389.317" y="380.611" width="100%" height="100%" xlink:href="#a" transform="translate(-300.57 -612.4)"/><use x="343.886" y="405.051" width="100%" height="100%" xlink:href="#a" transform="translate(-300.57 -612.4)"/><use x="355.534" y="405.051" width="100%" height="100%" xlink:href="#a" transform="translate(-300.57 -612.4)"/><use x="380.166" y="405.051" width="100%" height="100%" xlink:href="#a" transform="translate(-300.57 -612.4)"/><use x="352.326" y="429.491" width="100%" height="100%" xlink:href="#a" transform="translate(-300.57 -612.4)"/><use x="383.774" y="429.491" width="100%" height="100%" xlink:href="#a" transform="translate(-300.57 -612.4)"/><use x="349.462" y="453.931" width="100%" height="100%" xlink:href="#a" transform="translate(-300.57 -612.4)"/><use x="382.982" y="453.931" width="100%" height="100%" xlink:href="#a" transform="translate(-300.57 -612.4)"/><use x="346.758" y="478.371" width="100%" height="100%" xlink:href="#a" transform="translate(-300.57 -612.4)"/><use x="389.269" y="478.371" width="100%" height="100%" xlink:href="#a" transform="translate(-300.57 -612.4)"/><use x="346.958" y="502.811" width="100%" height="100%" xlink:href="#a" transform="translate(-300.57 -612.4)"/><use x="381.086" y="502.811" width="100%" height="100%" xlink:href="#a" transform="translate(-300.57 -612.4)"/><use x="354.014" y="527.251" width="100%" height="100%" xlink:href="#a" transform="translate(-300.57 -612.4)"/><use x="361.182" y="551.691" width="100%" height="100%" xlink:href="#a" transform="translate(-300.57 -612.4)"/><use x="396.502" y="551.691" width="100%" height="100%" xlink:href="#a" transform="translate(-300.57 -612.4)"/><use x="379.686" y="576.131" width="100%" height="100%" xlink:href="#a" transform="translate(-300.57 -612.4)"/><use x="343.886" y="600.571" width="100%" height="100%" xlink:href="#a" transform="translate(-300.57 -612.4)"/><use x="355.534" y="600.571" width="100%" height="100%" xlink:href="#a" transform="translate(-300.57 -612.4)"/><use x="403.47" y="600.571" width="100%" height="100%" xlink:href="#a" transform="translate(-300.57 -612.4)"/><use x="346.206" y="625.011" width="100%" height="100%" xlink:href="#a" transform="translate(-300.57 -612.4)"/><use x="386.934" y="625.011" width="100%" height="100%" xlink:href="#a" transform="translate(-300.57 -612.4)"/><use x="367.957" y="649.451" width="100%" height="100%" xlink:href="#a" transform="translate(-300.57 -612.4)"/><use x="343.886" y="698.331" width="100%" height="100%" xlink:href="#a" transform="translate(-300.57 -612.4)"/><use x="355.534" y="698.331" width="100%" height="100%" xlink:href="#a" transform="translate(-300.57 -612.4)"/><use x="346.486" y="722.771" width="100%" height="100%" xlink:href="#a" transform="translate(-300.57 -612.4)"/><use x="388.494" y="722.771" width="100%" height="100%" xlink:href="#a" transform="translate(-300.57 -612.4)"/><use x="346.206" y="747.211" width="100%" height="100%" xlink:href="#a" transform="translate(-300.57 -612.4)"/><use x="358.23" y="747.211" width="100%" height="100%" xlink:href="#a" transform="translate(-300.57 -612.4)"/><use x="351.51" y="771.651" width="100%" height="100%" xlink:href="#a" transform="translate(-300.57 -612.4)"/><use x="371.43" y="771.651" width="100%" height="100%" xlink:href="#a" transform="translate(-300.57 -612.4)"/><use x="346.758" y="796.091" width="100%" height="100%" xlink:href="#a" transform="translate(-300.57 -612.4)"/></g><g stroke-width=".338"><g clip-path="url(#g)" transform="translate(-889.09 -1812.1) scale(2.961)"><path d="M317.91 614.18v-.172l-.156-.07c-2.188-.996-4.969-1.504-8.5-1.543h-.008c-3.543.039-6.328.543-8.516 1.539l-.156.07v.172c-.027 3.54.187 5.8 1.535 9.852 1.215 3.664 4.102 6.738 7.176 7.652l.074.023.078-.023c2.969-.879 5.696-3.879 6.946-7.648 1.34-4.051 1.554-6.313 1.527-9.852" fill="#fff"/><path d="M300.94 614.25c-.023 3.46.195 5.691 1.516 9.668 1.175 3.547 3.949 6.516 6.902 7.406 2.848-.855 5.465-3.758 6.672-7.398 1.316-3.977 1.535-6.211 1.512-9.672-2.133-.957-4.848-1.445-8.297-1.485-3.457.04-6.176.524-8.305 1.481m8.418 17.285-.027-.008c-1.418-.422-2.887-1.371-4.133-2.676a13.008 13.008 0 0 1-2.934-4.87c-1.336-4.028-1.55-6.278-1.523-9.798v-.062l.058-.028c2.165-.988 4.926-1.484 8.446-1.527 3.511.043 6.27.543 8.437 1.531l.059.027v.063c.027 3.52-.184 5.77-1.52 9.8-1.23 3.716-3.914 6.677-6.832 7.54z"/></g><g clip-path="url(#h)" transform="translate(-889.09 -1812.1) scale(2.961)"><path d="M317.02 614.71v-.078l-.07-.031c-1.977-.91-4.492-1.371-7.7-1.41-3.207.035-5.73.496-7.707 1.402l-.07.035v.074c-.023 3.239.172 5.309 1.39 9.016 1.09 3.308 3.684 6.086 6.458 6.918l.035.008.035-.008c2.676-.801 5.129-3.512 6.242-6.914 1.22-3.707 1.414-5.778 1.387-9.012"/></g><path d="M26.925 33.462V54.57c-.729-.312-5.818-1.77-10.502-6.685a38.88 38.88 0 0 1-4.997-6.5s10.548-5.413 15.499-7.923" fill="#de0014"/><g fill="#fff"><path d="M19.315 42.848v-2.96h.949l.011 2.96zm1.816-3.389c-.15-.139-.277-.277-.405-.405-.636-.011-1.26-.011-1.885-.011-.15.138-.29.289-.416.44-.012 1.26-.012 2.52-.012 3.805l.358.358h1.955c.127-.139.254-.266.405-.393zM11.143 40.864c-.925-1.642-1.33-2.37-2.013-3.955-.613-1.435-1.365-3.725-1.365-3.76 13.741-6.986 27.54-14.006 41.28-20.992.046 2.22-.14 3.747-.382 6.13a72.79 72.79 0 0 1-.486 3.747 18690.57 18690.57 0 0 0-37.036 18.83M10.255 31.3l.069-1.99 3.366-1.526-.116 1.839zM6.997 30.649c-.196-.66-.196-.66-.242-.96.104-2.684.127-2.672.15-2.903 1.099-.51 2.21-1.018 3.331-1.527-.058 1.318-.104 2.637-.162 3.955-1.03.475-2.059.96-3.077 1.435M17.242 27.717c.012-.566.024-1.133.047-1.688 1.11-.52 2.22-1.03 3.33-1.539l-.034 1.527c-1.122.555-2.232 1.134-3.343 1.7M13.808 27.51l.173-3.99 3.331-1.538-.196 3.978zM6.02 26.977c-.243-1.157-.52-2.429-.752-3.585 0-.012 1.065-.475 1.585-.694-.046 1.318-.104 2.648-.139 3.99a9.52 9.52 0 0 0-.694.29M10.432 24.993l.162-3.99 3.297-1.539-.14 3.98zM20.825 24.164 21 20.21l3.32-1.527-.128 3.932zM26.422 21.825v1.25c-.706.346-1.4.705-2.094 1.075.012-.474.024-.937.046-1.4.683-.3 1.354-.624 2.048-.925"/></g><path d="M29.679 13.445c4.233.162 8.593.428 12.734 1.458-5.147 2.614-10.363 5.262-15.499 7.888-.012-3.123-.034-6.269-.034-9.38z" fill="#de0014"/><g fill="#fff"><path d="M7.057 22.447c.034-1.33.092-2.649.139-3.98 1.11-.52 2.22-1.04 3.342-1.56-.046 1.26-.127 3.92-.139 4.001-1.098.51-2.255 1.018-3.342 1.539M17.509 21.677l.139-3.99 3.32-1.55-.14 3.978zM4.688 19.456c-.093-.844-.231-2.544-.231-2.544s1.006-.405 2.66-.972c-.035.81-.07 1.62-.116 2.429-.775.358-1.55.729-2.313 1.087M14.133 19.16c.047-1.342.104-2.672.15-4.002.903-.416 1.794-.833 2.696-1.25.208-.023.416-.045.636-.057-.07 1.25-.116 2.498-.174 3.759-1.098.509-2.209 1.03-3.308 1.55M26.422 13.741v3.771c-.637.29-1.273.578-1.897.879.046-1.33.104-2.521.15-3.852.578-.277 1.157-.532 1.747-.798M10.728 16.614l.081-1.678 3.32-.647-.058.798z"/><path d="M4.184 8.145c1.4-.543 10.005-4.06 22.44-3.955 13.104.115 19.951 2.937 22.403 3.944v3.423c0 .012-3.92 1.897-5.84 2.88-1.898-.393-7.947-1.665-17.142-1.665-12.62 0-21.132 3.146-21.664 3.365-.278-4.129-.231-7.842-.197-7.992M22.69 41.456l.683-1.214v1.214zm2.013 1.377-.428.012v-.602c.093-.012.336-.012.428-.012v-.763h-.462v-2.406c-.29 0-.717 0-1.007.012-.509.775-1.098 1.55-1.538 2.36v.798c.382 0 1.214 0 1.596.011v.613h-.474v.799l1.885.011z"/></g><g fill="#de0014"><path d="M6.524 10.1v-.59c-.116.023-.208.057-.313.08L6.2 8.804c.971-.197 1.977-.474 2.949-.625l.012 1.238c-.29.046-.59.116-.868.185v-.463c-.3.046-.601.116-.89.185l.012.972c.22-.058.45-.092.67-.139l.012.752c-.22.046-.45.092-.67.15l.011 1.018c.093-.024.197-.035.3-.046l.013.752c-.51.104-1.007.196-1.504.324l-.012-.752c.105-.024.197-.058.313-.07zM43.714 12.26v-.75c.07.011.243.045.324.057l-.024-2.788-.29-.057v.532s-.474-.093-.705-.15l-.012-1.262c.96.186 1.932.37 2.904.567l.011 1.261-.694-.15V9l-.277-.047.024 2.787s.173.024.289.047l.012.751a73.741 73.741 0 0 0-1.562-.277M9.633 12.024 9.598 8.45c.185-.208.393-.428.393-.428.602-.104 1.77-.3 1.77-.3l.544.277v1.145l-.868.127-.012-.705-.96.15.024 2.765c.335-.07.613-.116.96-.162a7.958 7.958 0 0 1 0-.752c.289-.058.578-.104.879-.14v1.111l-.44.474c-.647.105-1.226.197-1.862.301a4.811 4.811 0 0 1-.393-.29M14.133 11.58l-.011-.752c.104-.012.208-.035.312-.046l-.024-2.764c-.116 0-.208 0-.312.023l-.012-.752c.509-.069 1.006-.127 1.515-.196l.012.775-.289.034.024 2.765c.092-.012.185-.024.289-.046l.012.775a54.44 54.44 0 0 0-1.516.185M16.591 10.544l-.035-2.765-.335.024V7.05l1.226-.116 1.041 2.626-.024-1.955-.277.035-.012-.775s.856-.07 1.376-.116v.763l-.277.024.035 2.753s.162-.024.277-.024l.012.775-1.134.081L17.4 8.601l.024 1.862.208-.024.012.764c-.497.058-.844.08-1.33.139l-.012-.775zM40.842 11.017l-.024-2.776c.266.035.532.081.81.14l.023 2.764c-.277-.047-.543-.093-.81-.128m1.69-2.857-.533-.485c-.832-.128-1.654-.266-2.463-.394v.787c.104.012.196.024.312.046l.024 2.776-.313-.035.012.74c.787.116 1.585.232 2.383.36.231-.047.416-.174.613-.313zM34.09 10.958l-.011-.763.266.034-.024-2.787c-.092-.012-.174-.012-.277-.024v.498c-.255-.012-.475-.024-.706-.024l-.012-1.272c.96.069 1.943.15 2.926.23.012.417 0 .845.012 1.273-.243-.024-.462-.046-.705-.058v-.52c-.093-.012-.22-.012-.313-.012l.035 2.799.289.046v.717a536.7 536.7 0 0 1-1.48-.139M30.093 10.336l-.012-.833c.29.012.891.047.891.047v.52l1.006.035-.012-1.006c-.474-.035-1.492-.104-1.492-.104-.139-.128-.277-.255-.393-.382l-.024-1.747a8.2 8.2 0 0 1 .37-.324c1.736.047 1.978.082 1.978.082.15.15.301.289.451.44l.012.832c-.312-.024-.613-.035-.913-.046v-.498c-.336-.023-.671-.034-1.007-.046l.012.949 1.515.115c.128.128.255.243.382.382l.012 1.77c-.127.116-.243.231-.37.347-.648-.035-1.319-.07-1.978-.093-.15-.15-.29-.3-.428-.44M20.203 10.603l-.023-3.574.347-.37 2.186-.105.37.336.012.856c-.3.012-.602.012-.89.034v-.45c-.394.023-.764.034-1.146.057l.035 2.764c.37-.023.752-.046 1.133-.057v-.729L21.5 9.4l-.012-.775c.393-.024.775-.058 1.18-.07.138.128.289.255.44.394l.01 1.48a5.943 5.943 0 0 0-.38.382c-.718.035-1.423.08-2.129.127a57.268 57.268 0 0 0-.405-.335M27.073 10.75v-.763h.3l-.034-2.775-.289.011-.012-.786 1.504.012v.763h-.29l.036 2.776c.265 0 .242.012.52.024v-.567c.266 0 .578.012.856.024l.012 1.318c-.532-.012-2.603-.034-2.603-.034M24.704 10.01l-.023-2.775h.936l.024 2.764s-.798.012-.937.012m1.793-3.18c-.15-.14-.44-.394-.44-.394l-1.85.058c-.174.162-.278.277-.417.416 0 1.18.012 2.371.024 3.574.093.081.197.185.312.277.278 0 1.944-.011 1.944-.011l.462-.405zM37.377 9.655l.266-1.295.29 1.342zm1.724 1.157-.197-.035-.775-2.868.243.023-.012-.82c-.44-.047-1.018-.128-1.446-.174v.81l.174.034s-.405 1.804-.613 2.718l-.266-.035.011.74c.382.035.845.093 1.238.14v-.73l-.22-.023.07-.3.694.069.046.324-.197-.024v.74c.405.046.856.104 1.25.15z"/></g><path d="m21.24 13.534-.046 2.383 3.227-1.527.034-.971z" fill="#fff" fill-rule="evenodd"/><g fill-rule="evenodd"><path d="m10.995 37.785 1.133-.579.359.706 1.33-.682-.729-1.4-1.908.983-.821-.254-1.215-2.348.278-.787 2.544-1.295.81.243.601 1.168-1.168.613-.347-.682-1.307.682.683 1.307 1.908-.983.81.254 1.237 2.394-.277.833-2.418 1.226-.936-.3zM17.568 34.054l1.134-.59.786 1.515-.254.798-2.406 1.215-.833-.266-2.452-4.754.231-.763 2.453-1.261.798.254.578 1.122-1.134.578-.3-.59-1.226.625 1.943 3.76 1.214-.625zM20.736 31.981l.718 1.4.289-.14.509.996-1.793.913-.509-1.006.405-.197-1.966-3.793-.405.208-.52-1.041 1.815-.914.52 1.018-.3.162.66 1.272 1.283-.659-.66-1.272-.335.173-.52-1.018 1.85-.925.533 1.006-.382.197 1.943 3.782.382-.197.52 1.007-1.827.937-.532-1.007.324-.162-.718-1.4zM26.54 29.05l-1.214-1.596.532 1.966zm.555 2.73-1.642.82-.532-1.017.324-.162-1.03-4.257-.29.15-.543-1.029 2.094-1.04.532 1.017-.29.15 2.87 3.32.288-.15.52 1.018-1.56.786-.521-1.006.266-.139-.324-.405-1.145.602.127.486.336-.162zM31.81 29.346l-1.757.89-.533-1.017.405-.208-1.943-3.783-.416.209-.532-1.018 1.596-.821 2.822 2.625-1.18-2.151-.289.139-.532-1.018 1.816-.914.52 1.018-.404.208 1.954 3.782.394-.22.532 1.03-1.492.775-3.089-2.88 1.33 2.463.278-.127zM38.384 26.06l-3.389 1.746-.509-1.007.093-4.892-1.018.509.416.798-1.064.543-.925-1.804L35.4 20.23l.532 1.04-.012 4.766.833-.428-.44-.867 1.099-.567zM42.855 23.78l-3.747 1.885-.52-1.018.346-.174-1.955-3.793-.37.196-.52-1.018 3.747-1.92.868 1.666-1.122.578-.347-.66-1.122.58.717 1.364.867-.451.521 1.03-.867.45.717 1.388 1.145-.578-.405-.775 1.11-.567zM43.625 17.295l-.925.45.67 1.354.914-.486zm1.747 5.181-1.816.926-.51-1.03.394-.208-1.909-3.828-.335.162-.509-1.007 3.077-1.561.867.37 1.088 2.174-.301.914-.347.197 1.62.925.277-.15.532 1.029-1.62.821-.52-.994.173-.093-1.526-.925-.058.034.67 1.33.232-.115z"/></g><path d="m30.034 34.824-.104-.081c.324.069.74.15 1.064.15-.22-.104-.578-.197-.671-.347-.024-.024-.046-.07-.035-.081.07.058.14.07.22.116.451.208 1.18.381 1.18.416-.451-.024-1.25.104-1.654-.173m1.492-.024c-.312-.15-.66-.3-.89-.59-.197-.601-.29-.648-.95-.786.21.289.475.624.498 1.017-.104-.069-.243-.115-.289-.266-.139-.44-.37-.566-.81-.566.162.231.313.428.313.717-.024.012-.081-.012-.128-.035-.069-.034-.104-.104-.127-.173-.174-.44-.3-.463-.775-.498.231.313.359.613.289.671-.243.208-.74.417-.752.845.74-.209.983-.243 1.62-.232.555.024.844.255 1.4.278.496.012 1.156-.128 1.248-.15-.208-.07-.44-.151-.648-.232" fill="#fff"/><path d="M33.972 34.528c.648-.775.925-.15.925-.15s-.67.069-.925.15m5.864 2.498c.22-.012.22-.532-.404-.44-.324.047-.937.405-.96.255-.047-.428 1.376-.613 1.48-.752.393-.486-1.214-.231-1.723.22-.52.462-.602 1.145-.405 1.746l.034.162c-.485.3-1.075.787-1.121 1.053-.047.231.046.405.242.289.185-.092.475-.601 1.041-.601-.012.011-.867.578-.728 1.04.034.128.173.232.323.012.162-.22.74-.659 1.192-.45.486.219.613.844.358 1.306-.208.382-.555.44-.971.51-1.122.196-1.273-1.238-2.117-1.967-.277-.243-.162-.08-.729-.602-.011-.023-.08-.069-.127-.127-.208-.266.833.22.88.15.196-.323.045-.612.057-.902a3.372 3.372 0 0 0 .902.081c-.012-.266-.324-.821-.324-.821s.602-.08.798-.104c-.104-.382-.485-.74-.485-.74s.15-.116.832-.22c-.289-.428-.728-.706-.728-.706.23-.012.624-.127.844-.058 0 0-.162-.358-.208-.416-.266-.405-.567-.243-.96-.208.208-.22.613-.613.613-1.006-.52.196-1.353.15-1.92.266-.463-.105-.764-.186-1.26-.15-.649.034-1.088.358-1.586.508-.185-.035-.323-.116-.52-.058-.139.046-.231.07-.3.185-.07.105-.058.185-.058.313.566.057 1.11-.15 1.665-.012.046.046.046.046.046.254-.15.3-.566.312-.867.324h-.405c-.092 0-.174 0-.254.012.08.254.277.52.59.613.196.07.52 0 .52 0 .092-.012 2.984-.833 2.29.22-.81.497-1.839.751-2.58 1.341-.728-.254-1.075-.266-1.746-.659 0 0-.023-.08-.046-.127-.231-.625.024-1.296-.971-1.388-.082 0 .22.208.242.289.058.197.012.254-.08.277-.186.047-.44-.312-.753-.323-.335-.012-.543.069-.786.277.277-.104 1.006.44.937.428-.243-.024-.613-.07-.914.024-.197.057-.416.312-.509.601.231-.208.474-.266.775-.208.382.092.625.277.694.752-.139.185-.428.289-.798.474-.174.081.532.254.867.197.255-.035.266-.324.59-.29.74.29 1.504.544 2.186.949-.011.012-.011.046-.011.07-.544.416-1.076.832-1.608 1.248-.347.081-.336-.543-.683-.694-.44-.185-.82-.139-1.214.116.324-.058 1.006.231.89.578-.208 0-1.006-.011-1.214.336l.52.034c.186.012.313.035.475.162.497.37-.764.301-.208 1.215l.092.116c.092-.14.139-.498.393-.636.266-.14.474-.266.764.011.254.243.208.51-.093.891 1.11.185.949-.763.868-1.041.532-.555 1.203-.89 1.885-1.214.451.104 1.238.717 1.238 1.19-.66.383-1.932.128-1.932 1.227.127.532.567 1.064.567 1.584a3.805 3.805 0 0 1-.243.336c-.197.254-.52.613-.636.636-.116.012-.231.012-.266-.104-.266-.925-.833-.925-1.295-.613-.082.046-.174.15-.174.15.648-.116.717.185.648.486-.07.335-.579-.15-.856.035a.735.735 0 0 0-.347.532c.37-.197 1.099-.266 1.064.22-.277.208-.752 1.052-.15 1.202.057-.15.057-.37.196-.532.278-.335.868-.347 1.11-.115 0 .289 0 .659-.3.786a.812.812 0 0 0 .983-.497c.058-.185.024-.336.024-.498.578-.636 1.376-1.11 1.804-1.862-.012-.092-.613-.844-.116-1.25.486-.242.96-.496 1.458-.728-.081.336-.209.625-.15 1.03.103.705.751.96 1.179 1.4-.07.37-.335.867-.66 1.063-.485.058-.416-.613-.82-.705-.255-.058-.417-.081-.671.034.254.128.277.081.45.278.301.312-.647.15-.902.463-.08.115-.15.22-.196.37.312-.278 1.04-.347 1.04.196-.08.14-.774.405-.45.972.127-.104.185-.208.347-.3.405-.22 1.26-.325 1.168.08-.046.197-.15.231-.3.312.254.231.728.14.878-.185.058-.15 0-.3 0-.428.926-.798 2.07-2.278 1.377-3.55-.208 0-.532.196-.567.196-.058-.174-.127-.3-.162-.509-.058-.37.07-.625.104-.937.821.07 1.642-.173 1.99-.96.242-.532.161-.902-.058-1.503-.301-.822-1.47-1.226-1.284-1.863.162-.509 1.11-.601 1.4-.624" fill="#fff"/></g></svg>