<svg width="705.32" height="807.42" version="1.2" viewBox="0 0 528.99 605.57" xmlns="http://www.w3.org/2000/svg"><defs><clipPath id="a"><path d="M456 16.156h41V64h-41z"/></clipPath></defs><g stroke-width=".081"><path d="M518.082 7.992H10.2V339.48c0 71.143 28.88 135.09 75.077 181.34 46.102 46.535 109.953 75.414 180.42 75.51 70.473-.096 134.28-28.976 180.384-75.51 46.245-46.244 75.125-110.193 75.125-181.34V7.99z" fill="#0069b8"/><g clip-path="url(#a)" transform="translate(-5588.4 -190.42) scale(12.281)"><path d="M496.97 43.148c0 5.644-2.277 10.711-5.969 14.402-3.683 3.684-8.734 5.96-14.328 5.969-5.594-.008-10.645-2.285-14.328-5.969-3.691-3.691-5.972-8.758-5.972-14.402V16.699h40.598z" fill="#fff"/></g><path d="M25.49 25.787V337.7c0 133.31 107.988 240.867 239.96 240.867V25.775z" fill="#0069b8"/><path d="M132.335 70.22 54.14 78.663v18.23l33.292-3.79v121.083h44.902zM167.46 222.197c10.649 0 19.523-8.875 19.523-19.524 0-10.698-8.875-19.574-19.524-19.574-10.65 0-19.573 8.875-19.573 19.574 0 10.65 8.923 19.524 19.573 19.524" fill="#fff"/><path d="m477.186 159.11-42.216.431c-1.343 23.555-7.532 39.098-28.448 39.098-24.418.432-29.743-24.897-29.743-55.984s6.62-57.328 29.743-56.895c22.212 0 25.33 12.472 28.448 31.998l40.872-.432c-10.218-27.537-37.323-47.109-68.408-47.109-40.01 0-72.008 32.43-72.008 72.007 0 39.53 31.998 71.96 72.008 71.96 33.772 0 62.172-23.555 69.752-55.073" fill="#0069b8"/><g fill="#fff"><path d="m103.475 408.856-11.13 8.011-7.531-19.093 18.66-1.775 18.23-1.343zm37.323-8.395-8.875-22.26h-6.668l-21.779.912-52.434 1.775 7.1 19.093 11.562-1.343 10.65 27.584-9.307 7.1 7.1 19.093 25.33-20.867 21.779-18.661zM86.159 339.05l-39.098-.863-.48 17.75 56.895.912 20.005.431.43-22.643-20.436-10.219-21.348-10.697 21.348-8.875 20.868-8.875.48-24.034-21.348-.432-55.552-.864v17.75l38.666.912c1.775 0 3.981-.48 6.668-.48 3.118-.432 6.236-.432 9.786-.864-3.118.864-6.668 2.207-11.13 4.462-.863.432-1.774.432-2.206.863l-43.99 20.005 43.511 21.779h.48c4.893 2.686 9.307 4.414 12.425 5.757-3.118-.864-6.237-1.343-9.307-1.343-2.686-.432-4.893-.432-6.668-.432M238.32 517.518c-2.398 6.908-5.42 11.562-10.122 14.297-1.87 1.199-4.173 1.918-5.996 2.206-3.167.624-6.716.336-10.17-.863l-5.182-1.775 13.864-43.416 4.75 1.727.43.048c6.093 1.823 10.267 5.277 12.57 9.93 1.774 5.085 2.206 10.89-.145 17.846m20.294-13.912c-1.248-6.38-3.886-11.945-8.348-17.222-2.015-2.398-4.51-4.797-7.915-6.86-3.406-1.63-7.676-3.79-12.953-5.133l-2.11-1.055-20.485-6.189-21.205 67.354-2.255 6.093 1.727.575 20.82 6.62c4.846 1.296 9.163 2.543 13.145 2.879.48.048 1.343.144 1.775.144 3.166-.144 6.284-.336 8.587-1.056 6.812-1.63 12.857-4.701 17.27-9.259 4.797-4.509 7.963-10.026 10.313-16.982 1.92-6.956 2.495-13.624 1.632-19.908M142.16 481.535l15.064 13.288c-3.982 1.823-7.963 2.686-11.993 2.255-4.414-.432-7.964-2.255-11.561-5.325-4.846-4.03-7.1-8.923-7.1-14.68s1.774-11.13 6.236-16.023c4.461-5.325 9.786-7.963 15.112-8.875 5.756-.432 11.081.912 15.543 4.893 2.686 2.687 4.461 5.325 5.804 8.012 1.295 3.118 1.295 6.236.863 9.786h19.094c0-4.03-.431-7.148-1.295-10.698-.912-2.206-1.776-3.981-2.687-6.188-2.207-4.893-5.757-9.787-10.65-13.816-4.03-3.55-8.923-6.62-13.816-7.964-4.845-1.775-9.738-2.686-15.064-2.254-5.373.48-10.218 1.823-15.112 4.03-2.686 1.343-4.893 3.118-7.58 5.324-1.774 1.344-3.118 3.119-4.893 4.893-3.55 3.982-6.188 8.875-8.01 13.769-1.728 4.893-2.64 9.786-2.208 15.111.48 5.325 1.775 10.219 4.462 15.112 2.206 4.462 6.476 10.122 10.65 13.336 5.804 4.414 11.561 7.1 17.318 8.443 6.668 1.296 13.336.864 20.916-1.343 3.118-.432 5.757-2.207 9.307-4.461 3.118-2.207 5.805-4.846 8.443-7.964l1.775-1.775c.48-.911.911-1.343 1.343-1.775l-30.222-26.24z"/></g><g fill="#0069b8"><path d="m436.29 432.84-12.472-9.786-24.85-19.573-11.561 14.68 32.429 25.329c1.343.911 2.638 2.207 3.982 3.118 2.686 2.639 4.461 5.325 5.325 7.532.91 3.118.48 6.236-2.207 9.354-.863 1.344-1.775 2.207-3.118 3.119-1.775.863-3.55 1.295-5.757 1.295-3.118-.432-7.1-2.638-12.425-6.62l-29.79-23.123-2.208-1.775-11.561 14.68 13.768 10.65 23.555 18.182c6.668 5.373 13.768 7.58 20.868 6.668 1.343-.432 2.686-.432 3.55-.864 5.805-1.775 11.13-5.804 16.023-11.993 5.757-7.58 8.443-14.68 8.011-22.211-.91-7.1-4.461-13.336-11.561-18.661M438.992 385.301l-.863 5.325-14.249-2.687-5.756-1.343.91-4.845c.864-4.03 2.207-6.668 4.414-8.011 0-.48.432-.48.432-.48 1.775-1.295 4.462-1.775 7.58-.864 3.118.432 5.325 2.207 6.668 4.462 1.344 2.207 1.775 4.893.864 8.443m8.011-24.466c-2.686-3.55-7.1-5.757-12.425-7.1-4.03-.912-7.58-.912-10.698 0-2.638.432-5.325 1.775-7.963 3.55-4.893 3.982-8.443 9.786-10.218 17.797l-5.805 26.626 23.986 4.893 48.452 10.65 3.982-18.182-30.655-6.668 33.773-9.355 4.893-21.78-33.772 12.473c.432-4.893-.431-9.354-3.55-12.905M419.834 336.754c1.343 1.344 2.686 2.639 3.981 3.55 2.687 1.775 5.373 3.55 8.444 4.462 4.461 2.206 9.354 3.118 15.111 3.118 5.373 0 10.218-.912 15.112-3.118 4.462-1.775 8.875-4.462 12.473-8.012 3.55-3.55 6.188-8.011 7.963-12.424 1.775-4.894 2.687-9.787 2.687-15.112 0-7.58-1.344-13.816-4.462-19.574-3.118-5.325-7.963-10.218-14.2-14.199-2.254-1.343-5.324-2.686-8.874-3.598-3.598-.863-7.58-1.295-11.13-1.295h-4.461v38.665h13.816v-19.14c4.413 1.342 7.532 4.029 9.738 7.147 2.255 3.55 3.119 7.532 3.119 11.993 0 5.757-2.207 10.218-6.189 14.2-4.03 3.55-9.355 5.324-15.59 5.324-6.669 0-11.514-1.775-15.976-5.325-4.03-3.981-5.804-8.443-5.804-14.199 0-3.598.48-6.668 1.775-9.355 1.823-2.638 3.598-4.893 6.668-6.668l-10.218-11.561-1.775-2.207c-4.414 3.982-7.532 8.443-9.739 13.336-2.255 4.893-3.598 10.218-3.598 16.454 0 5.325.912 10.65 3.118 15.112 1.776 4.845 4.462 8.875 8.012 12.424M317.656 537.23l-22.26 4.029-2.638-15.112 22.211-3.982-2.207-13.816-22.691 4.03-2.639-15.112 22.644-4.03-2.638-14.199-40.92 7.532 12.904 72.438 38.666-6.668 2.206-.432-2.206-12.425zM370.464 511.906c-.431 2.254-2.255 4.03-4.461 5.373l-4.894 2.638-.43.432-9.355-15.975 4.03-2.207c2.206-1.343 3.981-1.775 5.756-2.255.911 0 1.775 0 2.255.48 2.638 0 4.413 1.775 5.756 4.414 1.775 2.254 2.207 4.893 1.344 7.1m-23.986-16.887h-.48l-8.876-15.064 2.687-1.823c2.638-1.295 4.893-2.206 6.668-2.206.431-.432 1.295-.432 1.775-.432 2.207.432 3.982 2.207 5.757 4.893 1.343 2.207 1.775 4.893.91 6.668-.48 2.207-2.254 3.982-4.892 5.757zm31.518-5.757c-.864-.431-1.296-.431-2.207-.911a24.936 24.936 0 0 0-8.012 0c2.255-3.07 3.119-6.189 3.119-9.307 0-3.118-.864-6.236-2.687-9.306-1.775-3.598-4.413-5.805-7.1-7.58-1.775-.912-3.55-1.775-5.325-2.207-3.118-.48-6.236-.48-9.306.432-2.207.863-4.894 1.775-7.148 3.118l-21.3 11.993-2.207 1.344 2.207 3.981 28.447 48.885 6.189 11.13 8.443-4.462 13.768-8.011c.48-.432.48-.432.911-.432 6.669-3.982 10.65-8.443 12.425-13.768 2.255-5.325 1.343-11.13-2.207-17.319-2.207-3.598-4.893-6.236-8.011-7.58"/></g><g><path d="M256.25 135.653V89.79h9.116V70.217h-53.97v143.54h44.855v-58.526h9.114v-19.573z" fill="#fff"/><path d="M319.375 70.22h-54.017v19.573h54.017zM319.375 135.653h-54.017v19.573h54.017z" fill="#0069b8"/></g></g></svg>