<svg xmlns="http://www.w3.org/2000/svg" width="768" height="768" viewBox="-2.635 -2.635 93.117 93.133"><path d="M0 43.93C-.001 19.666 19.661 0 43.919 0c24.258.001 43.925 19.67 43.927 43.934.001 24.261-19.661 43.928-43.92 43.928S.003 68.192 0 43.93" style="fill:#ad1732;fill-opacity:1;fill-rule:nonzero;stroke:none"/><path d="m5.321 43.729 1.258-.001v-.003c0-10.349 4.19-19.707 10.97-26.49C24.33 10.453 33.686 6.263 44.034 6.263V5.101l-.018 1.161.018.001V5.101l-.018 1.161.01.001h.01c20.688-.001 37.462 16.776 37.463 37.467v.002c0 10.35-4.19 19.708-10.97 26.492-6.782 6.781-16.139 10.971-26.486 10.972l-.06.001.058 1.255v-1.256c-20.688 0-37.462-16.778-37.462-37.469H4.064C4.066 65.808 21.963 83.71 44.041 83.71h.03l.03-.001-.058-1.23v1.231l.058-.001-.058-1.23v1.231c22.077 0 39.97-17.897 39.971-39.977v-.003c-.004-22.081-17.9-39.98-39.979-39.983v1.258l.02-1.258h-.02c-22.077.001-39.97 17.898-39.97 39.977v.005-.001h1.257" style="fill:#fff;fill-opacity:1;fill-rule:nonzero;stroke:none"/><path d="m46.594 34.816 4.793.001v-4.839h-4.793M34.81 17.112l5.931.001.001 17.703h4.312L45.053 9.73h-3.208c-.586 3.01-3.724 4.192-7.034 4.156v3.225m18.793 46.634h4.104l-.001-18.814h.102l11.21 18.815h4.551V38.16h-4.104v18.85h-.068L58.154 38.16l-4.552-.001m-1.021 8.135c-.518-5.52-4.898-8.71-10.45-8.745-7.38 0-11.794 6.09-11.793 13.402 0 7.311 4.415 13.404 11.795 13.404 5.966 0 10.139-4.229 10.483-10.356h-4.208c-.344 3.726-2.447 6.7-6.276 6.7-5.276 0-7.484-4.838-7.484-9.748 0-4.909 2.206-9.747 7.483-9.747 3.586 0 5.415 2.15 6.138 5.09h4.312m-38.613 17.45h4.311v-11.36h11.138v-3.656H18.278v-6.701h12.69v-3.87l-17.002-.001" style="fill:#fff;fill-opacity:1;fill-rule:nonzero;stroke:none"/></svg>