<?xml version="1.0" encoding="utf-8"?>
<!-- Generator: Adobe Illustrator 13.0.0, SVG Export Plug-In . SVG Version: 6.00 Build 14948)  -->
<!DOCTYPE svg PUBLIC "-//W3C//DTD SVG 1.1 Basic//EN" "http://www.w3.org/Graphics/SVG/1.1/DTD/svg11-basic.dtd">
<svg version="1.1" baseProfile="basic" id="Layer_1"
	 xmlns="http://www.w3.org/2000/svg" xmlns:xlink="http://www.w3.org/1999/xlink" x="0px" y="0px" width="183.135px"
	 height="193.381px" viewBox="0 0 183.135 193.381" xml:space="preserve">
<g>
	<path stroke="#000000" stroke-miterlimit="3.8637" d="M38.228,163.441L160.285,58.78c0,0-2.07,21.705,0.193,34.911
		c1.26,7.351,5.15,17.251,5,26.5c-1,61-55.486,47.087-76.237,63.337L38.228,163.441L38.228,163.441z"/>
	<path fill="#E2001A" stroke="#000000" stroke-miterlimit="3.8637" d="M138.729,14.691c0,0-35,1.5-47.751-9.25
		c-22.5,18-60.25,6.75-60.25,4l-25.75,33.75c19.25,17.5,9,78,9,78L138.729,14.691L138.729,14.691z"/>
	<path fill="none" stroke="#FFED00" stroke-width="8" stroke-miterlimit="3.8637" d="M29.728,7.941
		c31.695,17.5,54-2.432,59.627-3.789c9.017,2.916,33.694,17.56,60.407,1.898l27.594,35.39c-25.018,17.017-9.695,57.694-7.627,79.5
		c-4.307,64.839-57.051,48.5-79.696,67.212c-10.915-9.356-58.172-15.782-70.305-33.356c-20.61-25.694,5.966-63.661-5-98.355
		c-1.94-6.139-9.5-13.5-9.5-13.5L29.728,7.941L29.728,7.941z"/>
	<path fill="none" stroke="#FFED00" stroke-width="5.5" stroke-miterlimit="3.8637" d="M13.05,123.492L144.678,10.119
		 M33.372,164.153L167.457,49.458"/>
	<path fill="#FFFFFF" stroke="#FFFFFF" stroke-miterlimit="3.8637" d="M15.999,124.492L148.406,11.136l23.822,30.055L33.165,160.911
		c0,0-7.912-4.554-13.098-11.401C14.779,142.052,15.999,124.492,15.999,124.492L15.999,124.492z"/>
	<polygon points="41.887,141.405 30.099,119.855 25.85,123.549 34.721,138.138 34.672,138.18 21.456,127.369 17.206,131.063 
		36.889,145.75 41.887,141.405 	"/>
	<path d="M47.892,136.186l3.839-3.338l-9.322-10.719l1.642-1.428l-2.415-2.776l-1.642,1.427l-1.197-1.376
		c-0.294-0.338-0.013-0.795,0.422-1.172l0.821-0.714l-2.415-2.776l-1.69,1.469c-2.487,2.162-3.007,4.099-0.809,6.724l1.005,1.204
		l-1.521,1.322l2.414,2.776l1.545-1.343L47.892,136.186L47.892,136.186z"/>
	<path fill-rule="evenodd" clip-rule="evenodd" d="M52.297,118.79c1.874-1.502,3.039-2.601,4.866-0.499
		c2.121,2.438,1.102,3.07-0.981,4.965L52.297,118.79L52.297,118.79z M46.104,111.667c1.497-1.301,2.666-2.444,4.219-0.657
		c1.869,2.148,0.894,2.783-0.86,4.521L46.104,111.667L46.104,111.667z M60.754,125.004c3.453-3.001,4.165-6.375,0.973-10.045
		c-1.953-2.245-3.203-2.854-6.1-2.286l-0.042-0.048c0.78-2.077,0.121-4.006-1.265-5.6c-3.17-3.646-6.584-2.501-9.796,0.291
		l-5.505,4.785l15.747,18.108L60.754,125.004L60.754,125.004z"/>
	<path d="M84.646,104.279l-8.566-9.851l-5.771,5.016l2.834,3.26l1.521-1.322l1.239,1.424c1.008,1.159,1.967,2.36,0.519,3.62
		c-1.111,0.965-2.094,0.76-2.976-0.254l-7.79-8.957c-1.029-1.183-1.345-2.18,0.004-3.311c1.156-0.962,2.021-0.357,3.365,1.188
		l0.861,0.99l4.25-3.694l-1.176-1.352c-3.212-3.694-6.705-3.371-10.327-0.223c-3.887,3.379-4.103,6.788-0.68,10.724l6.467,7.437
		c2.855,3.283,6.177,4.763,9.774,1.636c1.835-1.596,2.381-2.918,1.906-5.219l0.049-0.042l1.6,1.45L84.646,104.279L84.646,104.279z"
		/>
	<path fill-rule="evenodd" clip-rule="evenodd" d="M82.682,90.725l-0.777-0.894c-0.818-0.941-1.309-2.042-0.222-2.986
		c0.99-0.861,2.081-0.24,2.5,0.242l1.155,1.328L82.682,90.725L82.682,90.725z M91.381,87.613l-3.359-3.863
		c-2.54-2.921-5.909-1.774-8.568,0.58c-2.949,2.606-4.159,5.65-1.136,9.127l4.787,5.505c2.688,3.09,6.089,2.126,8.82-0.291
		c3.29-2.944,3.788-6.175,0.571-9.484l-3.815,3.316c0.914,1.197,2.172,2.351,0.685,3.517c-0.887,0.686-1.771,0.352-2.422-0.396
		l-2.058-2.366L91.381,87.613L91.381,87.613z"/>
	<path d="M86.576,78.818l11.758,13.521l3.838-3.337l-7.242-8.33c-0.895-1.173-0.648-1.769,0.438-2.713
		c0.387-0.335,0.795-0.647,1.244-0.91l-3.78-4.346c-1.594,1.385-1.674,3.193-0.849,5.02l-0.048,0.042l-1.785-2.052L86.576,78.818
		L86.576,78.818z"/>
	<path d="M94.295,72.108l11.758,13.52l3.84-3.337l-8.398-9.657c-0.582-0.767-0.604-1.426,0.17-2.097
		c0.65-0.566,1.258-0.162,1.883,0.313l8.398,9.657l3.838-3.337l-8.398-9.657c-0.607-0.7-0.582-1.402,0.072-2.013
		c0.684-0.678,1.387-0.357,1.98,0.229l8.398,9.657l3.84-3.337l-9.637-11.082c-1.596-1.835-4.074-1.418-5.887,0.156
		c-1.086,0.944-1.596,2.405-1.246,4.221l-0.049,0.042c-1.422-0.757-3.234-0.453-4.402,0.69c-0.975,0.975-1.615,2.676-1.172,4.453
		l-0.049,0.042l-1.365-1.569L94.295,72.108L94.295,72.108z"/>
	<path fill-rule="evenodd" clip-rule="evenodd" d="M125.75,60.707c0.73,0.89,1.518,2.283,0.385,3.27
		c-0.918,0.797-1.951,0.634-2.686-0.21c-0.797-0.917-0.807-1.757-0.617-2.515c0.166-0.782,0.654-1.587,1.07-2.669L125.75,60.707
		L125.75,60.707z M130.023,64.792l3.742-3.253c-0.588-0.335-1.174-0.717-1.615-1.224l-7.201-8.281
		c-2.584-2.97-4.967-2.933-8.758,0.363c-3.092,2.686-4.248,5.939-1.139,9.172l3.838-3.337c-0.914-1.198-1.754-2.164-0.354-3.381
		c0.773-0.671,1.773-0.397,2.426,0.351c1.26,1.449-0.26,3.066-1.443,5.069c-1.207,2.024-2.033,4.438,0.633,7.505
		c1.869,2.148,4.502,2.446,6.676,0.557c1.521-1.322,1.838-2.616,1.879-4.517L130.023,64.792L130.023,64.792z"/>
	<path d="M123.627,46.611l11.758,13.521l3.84-3.337l-8.398-9.658c-0.609-0.7-0.584-1.401,0.072-2.013
		c0.682-0.678,1.385-0.357,1.979,0.229l8.398,9.658l3.84-3.337l-9.637-11.082c-1.596-1.835-4.074-1.418-5.885,0.156
		c-1.209,1.049-1.416,3.053-0.875,4.406l-0.049,0.042l-1.469-1.69L123.627,46.611L123.627,46.611z"/>
	<path fill-rule="evenodd" clip-rule="evenodd" d="M151.346,46.258l-11.758-13.521l-3.838,3.337l11.756,13.521L151.346,46.258
		L151.346,46.258z M138.434,31.41l-2.834-3.26l-3.84,3.337l2.834,3.26L138.434,31.41L138.434,31.41z"/>
	<path fill-rule="evenodd" clip-rule="evenodd" d="M155.951,34.455c0.73,0.89,1.52,2.283,0.385,3.27
		c-0.918,0.797-1.951,0.635-2.686-0.21c-0.797-0.917-0.807-1.757-0.617-2.515c0.168-0.782,0.654-1.587,1.07-2.669L155.951,34.455
		L155.951,34.455z M160.225,38.54l3.742-3.253c-0.588-0.336-1.174-0.717-1.615-1.224l-7.201-8.282
		c-2.584-2.969-4.967-2.932-8.758,0.363c-3.09,2.687-4.248,5.939-1.139,9.173l3.838-3.337c-0.914-1.198-1.754-2.163-0.354-3.381
		c0.773-0.671,1.775-0.397,2.426,0.351c1.26,1.448-0.26,3.065-1.443,5.069c-1.207,2.024-2.033,4.438,0.633,7.504
		c1.869,2.149,4.502,2.447,6.676,0.557c1.521-1.322,1.838-2.615,1.879-4.517L160.225,38.54L160.225,38.54z"/>
	<path fill-rule="evenodd" clip-rule="evenodd" fill="#FFFFFF" d="M107.439,157.597c-0.055,2.987,1.043,4.265,3.74,4.265
		c2.393,0,3.328-1.439,3.238-3.707h-2.338c0.035,1.277-0.217,1.907-1.08,1.907c-0.701,0-1.205-0.251-1.223-1.583v-1.475h4.676
		v-1.368c0-2.771-0.342-4.461-3.598-4.461c-2.301,0-3.523,1.367-3.416,3.76V157.597L107.439,157.597z M109.777,155.204v-0.413
		c0-0.918-0.055-1.817,1.115-1.817c0.936,0,1.205,0.323,1.223,1.35v0.881H109.777L109.777,155.204z"/>
	<polygon fill="#FFFFFF" points="118.793,161.591 118.793,159.216 116.418,159.216 116.418,161.591 118.793,161.591 	"/>
	<path fill="#FFFFFF" d="M125.211,156.752c-0.145,0.755-0.234,1.529-0.307,2.303c-0.035,0.359-0.107,0.737-0.107,1.115h-0.037
		c0-0.378-0.07-0.756-0.107-1.115c-0.072-0.773-0.162-1.548-0.305-2.303l-1.584-8.653h-2.697l2.984,13.492h3.365l2.912-13.492
		h-2.697L125.211,156.752L125.211,156.752z"/>
	<polygon fill="#FFFFFF" points="131.322,161.591 131.322,159.216 128.949,159.216 128.949,161.591 131.322,161.591 	"/>
	<polygon fill="#FFFFFF" points="85.052,143.591 85.052,137.42 88.578,137.42 88.578,143.591 91.096,143.591 91.096,130.099 
		88.578,130.099 88.578,135.441 85.052,135.441 85.052,130.099 82.534,130.099 82.534,143.591 85.052,143.591 	"/>
	<path fill-rule="evenodd" clip-rule="evenodd" fill="#FFFFFF" d="M99.314,143.591c-0.127-0.468-0.197-0.936-0.197-1.421v-5.991
		c0.035-1.331-0.162-3.004-3.346-3.004c-2.932,0-3.562,1.349-3.544,3.274h2.229c-0.018-0.918,0.162-1.476,1.225-1.476
		c0.629,0,0.988,0.072,1.096,0.521c0.199,0.828-0.16,1.277-1.15,1.691c-1.834,0.756-3.471,1.313-3.471,3.634
		c0,2.087,0.827,3.041,2.715,3.041c0.791,0,1.512-0.468,2.051-1.313h0.035c-0.035,0.359-0.018,0.719,0.145,1.043H99.314
		L99.314,143.591z M96.777,139.345c-0.053,0.972,0.199,2.717-1.186,2.717c-0.863,0-1.098-0.521-1.098-1.295
		c0-0.432,0.055-0.936,0.395-1.224c0.613-0.503,1.314-0.899,1.889-1.295V139.345L96.777,139.345z"/>
	<polygon fill="#FFFFFF" points="103.168,143.591 103.168,130.099 100.828,130.099 100.828,143.591 103.168,143.591 	"/>
	<path fill-rule="evenodd" clip-rule="evenodd" fill="#FFFFFF" d="M107.084,137.223c-0.035-0.81,0-2.249,1.098-2.249
		s0.988,0.954,1.061,1.961v3.382c-0.053,0.972-0.305,1.745-1.025,1.745c-0.754,0-1.133-0.63-1.133-1.799V137.223L107.084,137.223z
		 M104.746,143.591h2.23v-1.079h0.035c0.521,1.007,1.17,1.295,2.141,1.35c1.979,0,2.375-1.8,2.428-3.419v-3.67
		c-0.053-2.788-0.916-3.562-2.428-3.598c-0.988-0.018-1.619,0.323-2.086,1.295h-0.037c0.02-0.485,0.055-0.81,0.055-1.133v-3.238
		h-2.338V143.591L104.746,143.591z"/>
	<path fill-rule="evenodd" clip-rule="evenodd" fill="#FFFFFF" d="M112.627,139.597c-0.053,2.987,1.045,4.265,3.742,4.265
		c2.393,0,3.328-1.439,3.238-3.707h-2.34c0.037,1.277-0.215,1.907-1.078,1.907c-0.701,0-1.205-0.251-1.223-1.583v-1.475h4.676
		v-1.368c0-2.771-0.342-4.461-3.598-4.461c-2.303,0-3.525,1.367-3.418,3.76V139.597L112.627,139.597z M114.967,137.204v-0.413
		c0-0.918-0.055-1.817,1.115-1.817c0.936,0,1.205,0.323,1.223,1.35v0.881H114.967L114.967,137.204z"/>
	<path fill="#FFFFFF" d="M123.117,133.444h-2.248v10.146h2.338v-5.864c0.037-1.493,1.025-1.817,2.32-1.691v-2.771
		c-0.342,0.018-0.791-0.019-1.457,0.54c-0.342,0.287-0.629,0.701-0.916,1.438h-0.037V133.444L123.117,133.444z"/>
	<path fill="#FFFFFF" d="M125.381,140.245c-0.27,3.094,2.051,3.616,3.291,3.616c3.238,0,3.67-1.836,3.473-3.599
		c-0.072-0.684-1.008-1.655-1.602-1.997l-1.906-1.295c-0.449-0.306-0.881-0.576-0.881-1.17c0-0.575,0.432-0.827,0.988-0.827
		c0.809,0,1.133,0.432,1.08,1.565h2.338c0.053-2.177-0.99-3.364-3.256-3.364c-2.248,0-3.49,0.899-3.49,2.465
		c0,1.457,0.756,2.393,1.926,3.202l1.277,0.881c0.449,0.307,1.115,0.63,1.15,1.206c0.162,0.647-0.307,1.133-0.971,1.133
		c-0.541,0-1.26,0.055-1.08-1.816H125.381L125.381,140.245z"/>
	<path fill="#FFFFFF" d="M136.494,141.792c-0.287,0.036-0.936,0.09-0.99-0.342v-6.297h0.99v-1.709h-0.99v-2.788h-2.355v2.788h-0.936
		v1.709h0.953v6.872c0,1.89,1.943,1.764,3.328,1.602V141.792L136.494,141.792z"/>
	<path fill-rule="evenodd" clip-rule="evenodd" fill="#FFFFFF" d="M143.973,143.591c-0.127-0.468-0.199-0.936-0.199-1.421v-5.991
		c0.037-1.331-0.16-3.004-3.344-3.004c-2.934,0-3.563,1.349-3.545,3.274h2.23c-0.018-0.918,0.162-1.476,1.225-1.476
		c0.629,0,0.988,0.072,1.096,0.521c0.199,0.828-0.162,1.277-1.15,1.691c-1.834,0.756-3.471,1.313-3.471,3.634
		c0,2.087,0.826,3.041,2.715,3.041c0.791,0,1.512-0.468,2.051-1.313h0.035c-0.035,0.359-0.018,0.719,0.145,1.043H143.973
		L143.973,143.591z M141.436,139.345c-0.053,0.972,0.199,2.717-1.188,2.717c-0.863,0-1.096-0.521-1.096-1.295
		c0-0.432,0.053-0.936,0.395-1.224c0.611-0.503,1.314-0.899,1.889-1.295V139.345L141.436,139.345z"/>
	<path fill-rule="evenodd" clip-rule="evenodd" fill="#FFFFFF" d="M149.605,140.263c0,1.169-0.377,1.799-1.133,1.799
		c-0.719,0-0.971-0.773-1.025-1.745v-3.382c0.072-1.007-0.035-1.961,1.061-1.961c1.098,0,1.135,1.439,1.098,2.249V140.263
		L149.605,140.263z M149.605,143.591h2.338v-13.492h-2.338v3.472c0,0.306,0.018,0.594,0.072,0.899h-0.035
		c-0.469-0.972-1.098-1.313-2.088-1.295c-1.51,0.036-2.393,0.81-2.445,3.598v3.67c0.053,1.619,0.467,3.419,2.445,3.419
		c0.918-0.055,1.566-0.324,2.016-1.35h0.035V143.591L149.605,143.591z"/>
	<path fill="#FFFFFF" d="M156.787,141.792c-0.289,0.036-0.936,0.09-0.99-0.342v-6.297h0.99v-1.709h-0.99v-2.788h-2.355v2.788h-0.936
		v1.709h0.953v6.872c0,1.89,1.941,1.764,3.328,1.602V141.792L156.787,141.792z"/>
	<path fill="#FFFFFF" stroke="#000000" stroke-width="0.1" stroke-miterlimit="3.8637" d="M27.728,30.45l13.468,0.034v35.112
		c-7.628,0.178-10.976-6.16-10.976-6.16C26.447,53.865,27.728,30.45,27.728,30.45L27.728,30.45z"/>
	<line fill="none" stroke="#000000" stroke-miterlimit="3.8637" x1="41.486" y1="29.939" x2="41.476" y2="65.441"/>
	<path stroke="#000000" stroke-width="0.5" stroke-miterlimit="3.8637" d="M33.478,41.191l-3.125,2.125c0,0,1.578-3.127,2.194-5.264
		c0.491-1.701,0.858-4.457,0.858-4.457l15.572,20.596l3.06-1.266c0,0-0.954,2.23-1.485,3.686c-0.573,1.571-1.324,4.08-1.324,4.08
		L33.478,41.191L33.478,41.191z"/>
	<path fill="none" stroke="#000000" stroke-miterlimit="3.8637" d="M27.603,30.066h27.875v17.5c0,0,1.375,18-13.75,18
		c-15.375,0-14.125-18-14.125-18V30.066L27.603,30.066z"/>
</g>
</svg>
