<?xml version="1.0" encoding="utf-8"?>
<!-- Generator: Adobe Illustrator 13.0.2, SVG Export Plug-In . SVG Version: 6.00 Build 14948)  -->
<!DOCTYPE svg PUBLIC "-//W3C//DTD SVG 1.1 Tiny//EN" "http://www.w3.org/Graphics/SVG/1.1/DTD/svg11-tiny.dtd">
<svg version="1.1" baseProfile="tiny" id="Ebene_1" xmlns="http://www.w3.org/2000/svg" xmlns:xlink="http://www.w3.org/1999/xlink"
	 x="0px" y="0px" width="567px" height="567px" viewBox="0 0 567 567" xml:space="preserve">
<circle fill="#E2001A" cx="283.5" cy="283.5" r="283.5"/>
<circle fill="#FFFFFF" cx="283.5" cy="283.5" r="274.5"/>
<path fill="#E2001A" d="M75.512,178.447l21.033,11.868l-5.529,9.798l-46.899-26.463l5.528-9.798l17.767,10.025l10.32-18.29
	l-17.767-10.025l5.528-9.798l46.899,26.463l-5.528,9.798l-21.033-11.868L75.512,178.447z"/>
<path fill="#E2001A" d="M123.096,149.471l-8.18,8.573l-25.707-51.065l8.957-9.387l52.06,23.445l-8.439,8.845l-10.413-5.167
	l-13.72,14.379L123.096,149.471z M112.996,130.505l9.475-9.93l-20.019-9.875l-0.104,0.109L112.996,130.505z"/>
<path fill="#E2001A" d="M159.293,103.824l22.417-14.641l5.332,8.163l-31.836,20.793l-29.446-45.086l9.419-6.152L159.293,103.824z"/>
<path fill="#E2001A" d="M200.187,81.541l25.019-9.536l3.473,9.11l-35.531,13.543l-19.18-50.318l10.512-4.007L200.187,81.541z"/>
<path fill="#E2001A" d="M267.947,30.258l-28.294,3.994l1.583,11.214l25.993-3.668l1.331,9.431l-25.993,3.669l1.95,13.813
	l29.557-4.172l1.331,9.432l-40.474,5.713l-7.526-53.322l39.211-5.534L267.947,30.258z"/>
<path fill="#E2001A" d="M292.535,58.247c-0.066,0.747-0.008,1.631,0.178,2.651c0.185,1.021,0.636,2.015,1.354,2.982
	c0.716,0.968,1.794,1.83,3.232,2.585c1.438,0.757,3.378,1.243,5.818,1.46c1.345,0.12,2.686,0.14,4.023,0.058
	c1.337-0.081,2.563-0.323,3.679-0.726c1.115-0.401,2.05-1.022,2.802-1.858s1.192-1.976,1.321-3.421
	c0.094-1.046-0.065-1.938-0.477-2.678c-0.411-0.739-1.031-1.384-1.86-1.936c-0.829-0.551-1.825-1.054-2.99-1.509
	c-1.164-0.455-2.429-0.919-3.791-1.393l-5.632-1.857c-2.147-0.693-4.215-1.43-6.203-2.21c-1.989-0.78-3.718-1.8-5.187-3.061
	c-1.469-1.261-2.607-2.842-3.416-4.748c-0.81-1.904-1.083-4.325-0.821-7.264c0.089-0.996,0.299-2.082,0.629-3.257
	c0.331-1.175,0.823-2.348,1.481-3.52c0.656-1.171,1.522-2.299,2.598-3.383c1.076-1.083,2.424-1.992,4.046-2.726
	c1.621-0.733,3.527-1.278,5.719-1.636c2.189-0.356,4.729-0.406,7.618-0.148c4.083,0.364,7.417,1.264,9.999,2.699
	c2.583,1.435,4.593,3.096,6.031,4.98c1.438,1.886,2.391,3.865,2.859,5.94c0.466,2.075,0.628,3.934,0.48,5.578l-10.757-0.96
	c-0.047-0.606-0.141-1.379-0.282-2.322c-0.142-0.941-0.549-1.868-1.221-2.782c-0.671-0.913-1.688-1.744-3.053-2.494
	c-1.363-0.749-3.267-1.232-5.706-1.45c-1.046-0.093-2.139-0.078-3.279,0.046c-1.141,0.124-2.182,0.396-3.122,0.813
	c-0.941,0.418-1.735,1.013-2.381,1.783c-0.646,0.771-1.022,1.753-1.129,2.949c-0.093,1.046,0.017,1.922,0.33,2.627
	s0.739,1.284,1.276,1.732c0.536,0.451,1.133,0.805,1.788,1.063c0.654,0.259,1.248,0.488,1.783,0.686l12.786,4.378
	c1.803,0.613,3.521,1.319,5.158,2.117c1.634,0.799,3.051,1.804,4.248,3.015c1.197,1.211,2.108,2.673,2.734,4.385
	c0.625,1.712,0.831,3.764,0.618,6.154c-0.24,2.689-0.856,4.957-1.85,6.8c-0.992,1.845-2.207,3.355-3.642,4.532
	c-1.436,1.178-2.985,2.081-4.647,2.71c-1.663,0.63-3.296,1.073-4.899,1.333c-1.604,0.258-3.085,0.39-4.44,0.395
	c-1.355,0.003-2.433-0.029-3.229-0.1c-4.882-0.436-8.772-1.411-11.675-2.924s-5.093-3.252-6.574-5.217
	c-1.481-1.964-2.403-4.017-2.764-6.157c-0.362-2.141-0.468-4.033-0.322-5.676L292.535,58.247z"/>
<path fill="#E2001A" d="M375.197,56.083c0.022-0.837,0.031-1.826,0.025-2.965c-0.006-1.138-0.27-2.299-0.789-3.481
	c-0.52-1.182-1.355-2.328-2.508-3.437c-1.153-1.109-2.818-2.036-4.993-2.782c-1.276-0.438-2.734-0.66-4.37-0.666
	c-1.637-0.006-3.32,0.435-5.052,1.321c-1.73,0.887-3.408,2.347-5.029,4.381c-1.623,2.034-3.05,4.849-4.282,8.442
	c-0.778,2.271-1.292,4.54-1.54,6.806c-0.249,2.267-0.141,4.379,0.325,6.335s1.328,3.68,2.589,5.168
	c1.26,1.49,3.025,2.623,5.296,3.401c2.979,1.021,5.719,1.048,8.218,0.082c2.498-0.967,4.613-2.898,6.347-5.792l10.642,3.648
	c-1.478,2.613-3.2,4.863-5.169,6.751c-1.969,1.889-4.159,3.345-6.571,4.367c-2.412,1.024-5.03,1.566-7.853,1.629
	c-2.823,0.063-5.819-0.449-8.988-1.535c-3.405-1.167-6.332-2.805-8.781-4.913c-2.448-2.108-4.316-4.638-5.604-7.59
	c-1.287-2.951-1.939-6.294-1.954-10.026c-0.017-3.732,0.73-7.797,2.238-12.195c1.523-4.445,3.465-8.141,5.822-11.086
	c2.356-2.944,4.973-5.179,7.848-6.705c2.874-1.524,5.938-2.365,9.188-2.519c3.251-0.154,6.508,0.328,9.771,1.447
	c3.831,1.313,6.892,3.024,9.183,5.13c2.291,2.107,4.019,4.351,5.185,6.733c1.166,2.381,1.824,4.775,1.979,7.18
	c0.153,2.405-0.023,4.578-0.529,6.518L375.197,56.083z"/>
<path fill="#E2001A" d="M402.138,82.967l-13.239,20.197l-9.409-6.167l29.522-45.036l9.409,6.168l-11.185,17.061L424.8,86.703
	l11.184-17.061l9.409,6.167l-29.523,45.036l-9.408-6.167l13.24-20.197L402.138,82.967z"/>
<path fill="#E2001A" d="M482.188,125.715l-19.507-20.881l-8.275,7.731l17.919,19.182l-6.96,6.502l-17.92-19.182l-10.193,9.523
	l20.377,21.813l-6.96,6.502l-27.903-29.869l39.35-36.761l27.033,28.938L482.188,125.715z"/>
<path fill="#E2001A" d="M501.971,136.504l13.334,23.736c1.763,3.139,2.682,5.948,2.757,8.43c0.074,2.481-0.297,4.653-1.113,6.518
	c-0.817,1.864-1.873,3.403-3.169,4.619c-1.296,1.214-2.445,2.104-3.447,2.668c-2.615,1.469-5.286,2.152-8.011,2.048
	c-2.725-0.104-5.141-1.112-7.248-3.025c0.103,1.204,0.133,2.304,0.092,3.303c-0.041,0.998-0.347,1.986-0.914,2.965
	c-0.569,0.979-1.456,1.979-2.66,3c-1.204,1.021-2.896,2.144-5.075,3.368c-1.7,0.955-3.112,1.761-4.232,2.42
	c-1.122,0.659-1.983,1.243-2.585,1.753c-0.603,0.511-1.01,1.011-1.221,1.502c-0.212,0.492-0.258,1.048-0.138,1.669l-1.242,0.698
	L471,191.322c0.937-0.986,2.043-1.952,3.319-2.896c1.274-0.946,3.133-2.104,5.574-3.476c1.612-0.905,2.944-1.726,3.995-2.459
	c1.05-0.734,1.794-1.554,2.232-2.458c0.438-0.906,0.531-1.962,0.283-3.17c-0.249-1.208-0.887-2.728-1.916-4.559l-5.693-10.135
	l-18.374,10.322l-5.399-9.612L501.971,136.504z M493.172,169.232c1.445,2.571,2.996,4.21,4.653,4.913
	c1.656,0.704,3.662,0.395,6.017-0.928c0.609-0.343,1.226-0.804,1.847-1.382c0.621-0.579,1.096-1.29,1.425-2.134
	c0.328-0.844,0.448-1.83,0.361-2.956c-0.088-1.126-0.535-2.409-1.344-3.847l-6.869-12.228l-12.555,7.053L493.172,169.232z"/>
<path fill="#E2001A" d="M20.982,278.142L20.8,266.893l53.843-0.873l0.621,38.319l-9.524,0.155l-0.439-27.072l-12.148,0.197
	l0.384,23.697l-9.524,0.154l-0.384-23.697L20.982,278.142z"/>
<path fill="#E2001A" d="M51.238,360.331c-3.458,0.808-6.543,1.002-9.26,0.585c-2.716-0.418-5.097-1.377-7.142-2.875
	c-2.045-1.5-3.755-3.487-5.129-5.964c-1.375-2.479-2.449-5.372-3.223-8.683c-0.285-1.217-0.509-2.564-0.675-4.04
	c-0.165-1.477-0.177-3.014-0.038-4.612s0.443-3.211,0.911-4.834c0.468-1.624,1.222-3.174,2.264-4.649
	c1.277-1.788,2.903-3.233,4.879-4.337c1.975-1.104,4.267-2.012,6.873-2.723l34.763-8.125l2.611,11.174l-34.033,7.954
	c-1.851,0.433-3.376,1.045-4.577,1.84c-1.201,0.793-2.128,1.717-2.78,2.768c-0.653,1.051-1.053,2.197-1.199,3.438
	c-0.147,1.24-0.072,2.493,0.225,3.76c0.887,3.798,2.385,6.31,4.496,7.537c2.109,1.228,4.771,1.465,7.984,0.714l34.544-8.073
	l2.611,11.174L51.238,360.331z"/>
<path fill="#E2001A" d="M59.061,384.62c-0.668,0.34-1.387,0.858-2.153,1.557c-0.768,0.697-1.371,1.606-1.811,2.728
	c-0.44,1.121-0.6,2.492-0.477,4.112c0.121,1.621,0.737,3.522,1.847,5.707c0.611,1.204,1.306,2.351,2.084,3.442
	c0.777,1.09,1.633,2.001,2.566,2.733c0.932,0.732,1.953,1.195,3.061,1.39c1.108,0.194,2.308-0.036,3.601-0.693
	c0.937-0.476,1.608-1.083,2.018-1.824c0.408-0.74,0.626-1.608,0.654-2.604c0.027-0.995-0.075-2.106-0.306-3.335
	c-0.232-1.229-0.509-2.547-0.83-3.953l-1.412-5.76c-0.552-2.188-1.022-4.332-1.416-6.432s-0.445-4.105-0.155-6.02
	c0.29-1.914,1.027-3.718,2.213-5.414c1.186-1.695,3.093-3.211,5.724-4.548c0.892-0.452,1.923-0.851,3.095-1.193
	s2.427-0.547,3.77-0.61c1.341-0.064,2.756,0.072,4.246,0.409c1.489,0.338,2.974,0.999,4.457,1.984
	c1.481,0.985,2.954,2.313,4.419,3.98c1.463,1.667,2.853,3.794,4.166,6.38c1.856,3.655,2.861,6.959,3.014,9.91
	c0.153,2.95-0.189,5.534-1.024,7.754c-0.836,2.22-2.009,4.077-3.521,5.573s-3.002,2.619-4.473,3.366l-4.891-9.63
	c0.489-0.361,1.095-0.851,1.819-1.47c0.722-0.62,1.292-1.456,1.711-2.51c0.418-1.054,0.583-2.357,0.495-3.911
	c-0.088-1.554-0.687-3.423-1.796-5.606c-0.476-0.937-1.068-1.855-1.778-2.757c-0.71-0.9-1.493-1.639-2.345-2.215
	c-0.854-0.576-1.778-0.935-2.774-1.073c-0.996-0.14-2.029,0.063-3.099,0.606c-0.937,0.476-1.621,1.033-2.052,1.674
	c-0.432,0.64-0.697,1.307-0.792,2c-0.098,0.693-0.082,1.388,0.046,2.08c0.127,0.692,0.249,1.316,0.364,1.876l3.068,13.162
	c0.436,1.853,0.749,3.685,0.94,5.495c0.189,1.81,0.088,3.543-0.303,5.201c-0.393,1.656-1.148,3.204-2.269,4.643
	c-1.12,1.438-2.75,2.7-4.89,3.787c-2.407,1.223-4.656,1.902-6.746,2.038c-2.09,0.137-4.015-0.092-5.773-0.685
	c-1.76-0.593-3.347-1.427-4.762-2.502c-1.417-1.076-2.658-2.226-3.729-3.448c-1.069-1.224-1.966-2.408-2.688-3.556
	c-0.722-1.147-1.266-2.077-1.628-2.79c-2.219-4.369-3.456-8.186-3.711-11.448c-0.256-3.264,0.057-6.043,0.937-8.341
	c0.88-2.297,2.131-4.167,3.755-5.608c1.623-1.441,3.17-2.535,4.642-3.282L59.061,384.62z"/>
<path fill="#E2001A" d="M88.033,433.057c-0.574,0.482-1.155,1.151-1.743,2.006c-0.589,0.854-0.969,1.876-1.143,3.068
	c-0.174,1.19-0.017,2.563,0.471,4.112c0.487,1.551,1.52,3.263,3.097,5.138c0.869,1.033,1.806,1.992,2.813,2.877
	c1.005,0.885,2.045,1.577,3.121,2.078c1.074,0.501,2.174,0.72,3.297,0.657c1.124-0.063,2.239-0.561,3.349-1.495
	c0.804-0.676,1.319-1.421,1.55-2.235c0.229-0.814,0.244-1.709,0.045-2.684c-0.2-0.976-0.552-2.035-1.057-3.179
	c-0.505-1.143-1.075-2.364-1.708-3.66l-2.685-5.288c-1.035-2.005-1.981-3.985-2.842-5.94c-0.861-1.955-1.368-3.896-1.521-5.826
	s0.154-3.854,0.923-5.776c0.769-1.92,2.281-3.83,4.539-5.729c0.765-0.644,1.679-1.267,2.742-1.867
	c1.063-0.6,2.239-1.084,3.532-1.452c1.291-0.368,2.7-0.557,4.228-0.567c1.526-0.01,3.124,0.296,4.792,0.919
	c1.666,0.622,3.403,1.579,5.208,2.87c1.804,1.291,3.641,3.046,5.508,5.265c2.639,3.137,4.37,6.126,5.189,8.964
	c0.82,2.839,1.075,5.434,0.767,7.784c-0.31,2.352-1.029,4.427-2.16,6.229c-1.131,1.801-2.328,3.232-3.59,4.295l-6.953-8.264
	c0.394-0.464,0.873-1.078,1.437-1.846c0.563-0.768,0.927-1.712,1.096-2.833c0.167-1.121,0.031-2.428-0.408-3.921
	c-0.439-1.493-1.448-3.178-3.025-5.052c-0.676-0.803-1.462-1.563-2.358-2.279c-0.896-0.716-1.827-1.257-2.788-1.624
	c-0.962-0.366-1.944-0.505-2.945-0.413c-1.001,0.091-1.961,0.523-2.879,1.296c-0.803,0.676-1.343,1.375-1.618,2.096
	c-0.275,0.722-0.381,1.432-0.316,2.129c0.063,0.697,0.236,1.369,0.519,2.015c0.281,0.646,0.542,1.226,0.781,1.743l5.982,12.12
	c0.846,1.704,1.568,3.417,2.166,5.137c0.596,1.719,0.892,3.43,0.888,5.133c-0.005,1.703-0.389,3.382-1.152,5.037
	c-0.764,1.655-2.063,3.256-3.9,4.801c-2.066,1.738-4.102,2.912-6.105,3.52c-2.004,0.608-3.931,0.824-5.778,0.647
	c-1.849-0.177-3.584-0.628-5.207-1.354c-1.625-0.726-3.094-1.563-4.415-2.51c-1.32-0.947-2.462-1.897-3.427-2.85
	c-0.964-0.953-1.705-1.735-2.22-2.348c-3.155-3.75-5.227-7.185-6.219-10.303c-0.992-3.12-1.32-5.897-0.985-8.336
	c0.334-2.437,1.127-4.543,2.38-6.315c1.252-1.773,2.51-3.19,3.773-4.253L88.033,433.057z"/>
<path fill="#E2001A" d="M142.886,439.018l21.09,15.504c2.659,1.954,4.58,3.94,5.765,5.959c1.183,2.02,1.862,3.945,2.036,5.778
	c0.172,1.834-0.014,3.543-0.559,5.129c-0.545,1.585-1.232,2.942-2.061,4.069c-1.155,1.571-2.302,2.729-3.439,3.476
	c-1.139,0.746-2.223,1.252-3.256,1.517c-1.032,0.265-1.994,0.349-2.885,0.253c-0.892-0.097-1.647-0.188-2.268-0.271
	c0.974,1.46,1.612,2.892,1.917,4.294c0.303,1.402,0.366,2.751,0.189,4.049c-0.178,1.297-0.544,2.532-1.097,3.708
	c-0.554,1.175-1.23,2.307-2.03,3.395c-1.273,1.732-2.813,3.13-4.618,4.192s-3.707,1.729-5.704,1.997
	c-1.048,0.16-2.093,0.229-3.133,0.21c-1.041-0.021-2.191-0.229-3.449-0.627c-1.259-0.397-2.69-1.047-4.294-1.946
	c-1.604-0.9-3.514-2.164-5.729-3.793l-18.371-13.504L142.886,439.018z M125.202,481.31l11.119,8.174
	c2.215,1.628,4.298,2.384,6.247,2.265c1.948-0.118,3.737-1.285,5.367-3.501c0.71-0.967,1.119-1.924,1.225-2.87
	c0.105-0.946,0.012-1.853-0.281-2.72c-0.293-0.867-0.767-1.68-1.418-2.438c-0.652-0.759-1.382-1.435-2.188-2.027l-11.542-8.484
	L125.202,481.31z M139.105,462.396l10.636,7.818c1.813,1.332,3.606,2.078,5.384,2.235c1.776,0.158,3.301-0.629,4.575-2.361
	c1.333-1.813,1.641-3.479,0.927-4.997c-0.715-1.518-2.099-3.032-4.154-4.542l-10.394-7.641L139.105,462.396z"/>
<path fill="#E2001A" d="M169.763,520.457l-10.935-4.567l38.471-42.29l11.973,5l-3.245,57.003l-11.28-4.711l1.094-11.572
	l-18.339-7.66L169.763,520.457z M183.854,504.234l12.665,5.289l2.05-22.227l-0.139-0.059L183.854,504.234z"/>
<path fill="#E2001A" d="M236.005,531.786l26.415,4.38l-1.595,9.618l-37.513-6.219l8.808-53.125l11.099,1.84L236.005,531.786z"/>
<path fill="#E2001A" d="M289.297,536.179l26.747-1.227l0.446,9.74l-37.985,1.741l-2.465-53.794l11.238-0.515L289.297,536.179z"/>
<path fill="#E2001A" d="M357.706,497.646c-0.459-0.701-1.014-1.518-1.668-2.451c-0.653-0.932-1.531-1.735-2.631-2.412
	c-1.101-0.675-2.44-1.142-4.02-1.396c-1.58-0.255-3.476-0.069-5.688,0.557c-1.299,0.368-2.623,1.016-3.971,1.942
	c-1.349,0.927-2.481,2.249-3.399,3.963c-0.918,1.715-1.465,3.871-1.64,6.466c-0.175,2.596,0.256,5.722,1.29,9.378
	c0.653,2.31,1.523,4.467,2.61,6.471c1.086,2.006,2.379,3.68,3.876,5.022s3.188,2.268,5.072,2.773c1.884,0.507,3.98,0.433,6.29-0.221
	c3.031-0.857,5.297-2.396,6.801-4.613c1.503-2.218,2.141-5.01,1.917-8.376l10.825-3.063c0.273,2.989,0.139,5.82-0.403,8.493
	c-0.543,2.675-1.514,5.118-2.913,7.333c-1.4,2.216-3.242,4.152-5.526,5.812c-2.285,1.66-5.039,2.946-8.262,3.857
	c-3.465,0.98-6.803,1.302-10.017,0.964c-3.213-0.338-6.189-1.353-8.929-3.046c-2.739-1.692-5.18-4.069-7.317-7.128
	c-2.14-3.058-3.841-6.824-5.106-11.299c-1.28-4.521-1.789-8.664-1.529-12.428c0.26-3.763,1.137-7.09,2.632-9.981
	c1.494-2.89,3.532-5.325,6.117-7.304c2.584-1.979,5.536-3.438,8.855-4.377c3.897-1.103,7.388-1.439,10.47-1.014
	c3.083,0.428,5.781,1.287,8.096,2.581c2.314,1.293,4.22,2.886,5.716,4.773c1.496,1.89,2.589,3.776,3.277,5.659L357.706,497.646z"/>
<path fill="#E2001A" d="M400.79,507.436l23.408-12.999l4.733,8.524l-33.243,18.46l-26.144-47.078l9.835-5.461L400.79,507.436z"/>
<path fill="#E2001A" d="M463.108,449.489c2.384,2.632,4.051,5.236,5.004,7.813c0.952,2.578,1.269,5.125,0.949,7.64
	c-0.318,2.516-1.228,4.976-2.727,7.379c-1.501,2.404-3.51,4.747-6.029,7.029c-0.927,0.84-1.996,1.689-3.206,2.55
	c-1.211,0.86-2.549,1.617-4.015,2.271c-1.466,0.654-3.022,1.17-4.669,1.548c-1.647,0.38-3.369,0.471-5.164,0.276
	c-2.184-0.249-4.236-0.971-6.159-2.163c-1.924-1.191-3.828-2.755-5.715-4.689l-23.967-26.459l8.504-7.703l23.464,25.902
	c1.276,1.409,2.552,2.445,3.829,3.11c1.275,0.665,2.533,1.028,3.769,1.089c1.235,0.062,2.433-0.145,3.588-0.619
	c1.156-0.474,2.216-1.147,3.18-2.021c2.891-2.618,4.36-5.146,4.41-7.587c0.051-2.439-1.032-4.883-3.248-7.329l-23.816-26.292
	l8.505-7.704L463.108,449.489z"/>
<path fill="#E2001A" d="M445.261,416.897l14.53-21.771c1.832-2.745,3.729-4.754,5.691-6.029c1.964-1.273,3.856-2.039,5.681-2.296
	c1.824-0.255,3.54-0.146,5.147,0.325c1.609,0.474,2.996,1.098,4.16,1.874c1.621,1.083,2.831,2.176,3.628,3.278
	c0.796,1.104,1.351,2.164,1.662,3.184s0.439,1.977,0.384,2.871c-0.057,0.895-0.112,1.653-0.168,2.277
	c1.415-1.039,2.816-1.741,4.203-2.109c1.387-0.366,2.732-0.49,4.035-0.372c1.305,0.119,2.555,0.428,3.755,0.928
	c1.198,0.5,2.36,1.124,3.482,1.874c1.789,1.193,3.255,2.668,4.397,4.422c1.144,1.755,1.896,3.625,2.254,5.607
	c0.208,1.04,0.325,2.08,0.353,3.12c0.026,1.041-0.129,2.199-0.47,3.474c-0.341,1.276-0.924,2.735-1.75,4.378
	c-0.826,1.644-2.002,3.608-3.528,5.896l-12.657,18.964L445.261,416.897z M468.785,419.614l7.327-10.979
	c1.249-1.872,1.913-3.697,1.99-5.48c0.077-1.781-0.778-3.27-2.567-4.463c-1.871-1.249-3.549-1.481-5.033-0.699
	c-1.484,0.783-2.935,2.234-4.35,4.355l-7.161,10.729L468.785,419.614z M488.311,432.646l7.661-11.479
	c1.526-2.287,2.187-4.401,1.979-6.344c-0.207-1.94-1.454-3.675-3.742-5.202c-0.998-0.666-1.972-1.03-2.922-1.093
	s-1.852,0.071-2.704,0.403c-0.854,0.333-1.644,0.842-2.372,1.528c-0.729,0.686-1.37,1.445-1.926,2.276l-7.952,11.915
	L488.311,432.646z"/>
<path fill="#E2001A" d="M530.52,330.433c2.139,1.294,3.831,2.765,5.073,4.415c1.243,1.649,2.142,3.377,2.696,5.18
	c0.556,1.804,0.811,3.618,0.764,5.441c-0.046,1.825-0.287,3.56-0.724,5.201c-0.72,2.707-1.742,5.138-3.065,7.295
	c-1.323,2.158-3.036,3.876-5.135,5.153c-2.099,1.278-4.633,2.054-7.604,2.323c-2.969,0.271-6.435-0.121-10.397-1.175
	c-0.771-0.205-1.771-0.535-2.995-0.991c-1.225-0.454-2.504-1.093-3.838-1.913c-1.333-0.82-2.628-1.836-3.883-3.051
	c-1.256-1.213-2.291-2.666-3.109-4.358c-0.817-1.691-1.334-3.64-1.55-5.845c-0.215-2.203,0.05-4.708,0.795-7.511
	c0.502-1.884,1.313-3.814,2.434-5.794c1.122-1.978,2.706-3.651,4.751-5.022c2.047-1.369,4.604-2.28,7.673-2.731
	s6.803-0.092,11.199,1.077l1.813,0.482l-7.038,26.455c0.737,0.146,1.665,0.262,2.778,0.351c1.114,0.091,2.259-0.032,3.435-0.366
	s2.271-0.999,3.287-1.998c1.016-0.997,1.793-2.511,2.333-4.54c0.372-1.4,0.379-2.835,0.019-4.302
	c-0.359-1.466-1.188-2.579-2.487-3.34L530.52,330.433z M516.045,337.292c-1.585-0.267-2.967-0.271-4.147-0.017
	c-1.181,0.256-2.181,0.661-3.002,1.219c-0.82,0.558-1.479,1.236-1.978,2.035c-0.496,0.8-0.854,1.609-1.073,2.431
	c-0.643,2.417-0.421,4.455,0.663,6.113c1.085,1.66,2.869,2.976,5.353,3.946L516.045,337.292z"/>
<path fill="#E2001A" d="M543.948,316.337l-1.634,11.131l-10.834-1.59l1.634-11.131L543.948,316.337z"/>
<path fill="#E2001A" d="M492.282,276.212l0.252-11.697l53.442,19.458l-0.231,10.723l-54.229,16.984l0.261-12.072l41.039-10.667
	l0.004-0.15L492.282,276.212z"/>
<path fill="#E2001A" d="M545.023,260.903l0.718,11.227l-10.928,0.699l-0.718-11.227L545.023,260.903z"/>
<circle fill="#E2001A" cx="283.5" cy="283.5" r="196.5"/>
<circle fill="#FFFFFF" cx="283.5" cy="283.5" r="189"/>
<polygon fill="#E2001A" points="168.349,160.667 168.349,380.522 283.333,451.334 398.318,380.522 398.318,160.667 "/>
<rect x="181.348" y="173.667" fill="#FFFFFF" width="203.968" height="61.5"/>
<polygon fill="#FFFFFF" points="210.665,246.167 210.665,391.313 283.332,436.065 355.999,391.313 355.999,246.167 "/>
<polygon fill="#E2001A" points="192.38,229.946 192.38,178.761 212.076,178.761 212.076,196.199 230.518,196.199 230.518,178.761 
	250.214,178.761 250.214,229.946 230.518,229.946 230.518,210.127 212.076,210.127 212.076,229.946 192.38,229.946 "/>
<polygon fill="#E2001A" points="261.879,229.946 261.879,178.761 308.171,178.761 308.171,191.683 281.451,191.683 281.451,199.585 
	302.775,199.585 302.775,211.88 281.451,211.88 281.451,229.946 261.879,229.946 "/>
<path fill="#E2001A" d="M355.591,210.127h18.693c-0.502,6.647-3.387,11.913-8.533,15.678c-5.144,3.64-12.166,5.519-20.947,5.519
	c-9.785,0-17.564-2.384-23.209-7.148c-5.647-4.891-8.529-11.419-8.529-19.818c0-8.284,2.882-14.809,8.403-19.699
	c5.645-4.765,13.297-7.148,22.959-7.148c8.905,0,15.805,1.753,20.948,5.266c5.146,3.639,8.028,8.786,8.659,15.307H355.09
	c-0.249-2.511-1.256-4.516-3.012-5.896c-1.757-1.256-4.264-2.006-7.401-2.006c-3.888,0-6.772,1.255-8.782,3.513
	c-1.879,2.381-2.885,5.894-2.885,10.665c0,4.638,1.006,8.151,3.138,10.535c2.005,2.384,5.017,3.636,9.031,3.636
	c3.011,0,5.521-0.751,7.277-2.258C354.213,214.892,355.338,212.756,355.591,210.127L355.591,210.127z"/>
<path fill="#E2001A" d="M301.038,249.528c19.188,7.177,32.853,25.672,32.853,47.364c0,27.923-22.636,50.56-50.559,50.56
	s-50.56-22.637-50.56-50.56c0-21.692,13.665-40.188,32.854-47.364c-26.34,7.662-45.597,31.962-45.597,60.774
	c0,34.962,28.342,63.304,63.303,63.304s63.303-28.342,63.303-63.304C346.635,281.49,327.378,257.19,301.038,249.528z"/>
<polygon fill="#E2001A" points="283.332,334.667 294.012,314.129 320.902,315.188 307.012,295.725 320.717,276.522 294.057,277.573 
	292.643,275.592 292.56,275.72 282.999,257.333 272.326,277.857 245.762,276.811 259.653,296.275 245.949,315.479 272.608,314.428 
	273.344,315.459 "/>
<polygon fill="#E2001A" points="293.542,402.041 306.028,390.021 288.041,394.019 283.332,378 278.623,394.019 260.636,390.021 
	273.122,402.041 260.636,414.063 278.623,410.064 283.332,426.083 288.041,410.064 306.028,414.063 "/>
</svg>
