<svg width="478.72" height="555.27" version="1.2" viewBox="0 0 359.04 416.45" xmlns="http://www.w3.org/2000/svg" xmlns:xlink="http://www.w3.org/1999/xlink"><use x="309.792" y="349.868" width="100%" height="100%" xlink:href="#a" transform="translate(-37.68 -376.41)" fill="#b51111"/><g stroke-width=".092"><path d="M180.077 395.529c-40.462 0-79.006-15.179-108.638-42.723C42.02 325.434 24.113 288.383 21 248.432l-.468-12.535V22.028H339.62v213.825l-.47 12.492c-3.069 40.037-21.02 77.088-50.438 104.46-29.59 27.543-68.177 42.723-108.639 42.723" fill="#fff"/><g fill="#e3000c"><path d="M339.622 22.017v213.825l-.47 12.493c-3.07 40.036-21.02 77.087-50.439 104.46-29.589 27.542-68.176 42.722-108.638 42.722S101.07 380.338 71.48 352.794c-29.462-27.372-47.37-64.423-50.44-104.417l-.511-12.492V22.016zM8.635 236.093l.47 12.962c3.282 42.935 22.512 82.843 54.148 112.348 31.85 29.676 73.335 46.048 116.823 46.048 43.49 0 84.975-16.372 116.78-46.048 31.678-29.504 50.908-69.413 54.19-112.392l.47-12.961V10.076H8.63z"/><path d="M160.55 150.596h21.703c10.53 0 17.609 10.318 17.609 21.233s-7.078 21.233-17.61 21.233H160.55zm46.773 142.79c13.047-6.353 23.407-17.182 29.079-30.613l-30.23-45.536c18.59-2.857 34.58-27.16 34.792-45.409.341-30.016-21.36-53.04-55.854-53.04h-64.765v128.251c3.283 22.725 18.888 41.101 39.907 48.35l.043-76.02z"/><path d="M55.613 54.544v64.296H97.91v-22h164.325v143.554c-1.15 44.385-37.52 80.029-82.16 80.029-42.38 0-77.258-32.148-81.65-73.336H55.958c4.648 64.51 58.456 115.633 124.115 115.633 67.75 0 122.88-54.404 124.453-121.81V54.545z"/></g><path d="M23.72 25.183v210.67l.469 12.365c3.027 39.097 20.55 75.425 49.415 102.285 29.036 26.989 66.812 41.827 106.464 41.827 39.61 0 77.429-14.838 106.464-41.827 28.865-26.86 46.389-63.188 49.415-102.328l.47-12.407V25.185zm156.346 370.346c-40.462 0-79.006-15.179-108.638-42.723-29.419-27.372-47.326-64.466-50.44-104.417l-.468-12.492V22.028h319.089v213.825l-.469 12.492c-3.113 39.994-21.02 77.088-50.44 104.46-29.589 27.543-68.176 42.723-108.637 42.723M8.62 10.098v226.016l.469 12.962c3.283 42.935 22.512 82.842 54.148 112.348 31.85 29.675 73.336 46.004 116.823 46.004 43.49 0 84.976-16.33 116.78-46.004 31.678-29.505 50.908-69.413 54.19-112.392l.47-12.962V10.097zm171.442 400.525c-44.3 0-86.553-16.628-118.952-46.858-32.276-30.059-51.846-70.735-55.172-114.52l-.512-13.047V6.94h349.28v229.17l-.511 13.09c-3.326 43.83-22.897 84.506-55.172 114.564-32.405 30.23-74.657 46.858-118.952 46.858" fill="#fff"/></g></svg>