<svg width="300" height="300" version="1.2" viewBox="0 0 225 225" xmlns="http://www.w3.org/2000/svg" xmlns:xlink="http://www.w3.org/1999/xlink"><g fill="#211e1e"><use x="246.546" y="509.437" width="100%" height="100%" xlink:href="#a" transform="translate(-142.16 -95.527)"/><use x="244.763" y="547.137" width="100%" height="100%" xlink:href="#a" transform="translate(-142.16 -95.527)"/><use x="245.929" y="603.688" width="100%" height="100%" xlink:href="#a" transform="translate(-142.16 -95.527)"/></g><use x="117.131" y="33.012" width="100%" height="100%" xlink:href="#b" transform="translate(-142.16 -95.527)" fill="#eb1923"/><use x="119.581" y="33.012" width="100%" height="100%" xlink:href="#b" transform="translate(-142.16 -95.527)" fill="#eb1923"/><g stroke-width=".097"><path d="M112.855 223.14c60.637 0 109.776-49.179 109.776-109.818S173.493 3.546 112.855 3.546C52.218 3.546 3.037 52.685 3.037 113.322S52.217 223.14 112.855 223.14" fill="#00579c"/><path d="M12.983 113.353c0-55.028 44.782-99.81 99.851-99.81 55.03 0 99.811 44.78 99.811 99.81 0 55.07-44.78 99.852-99.81 99.852-55.07 0-99.852-44.782-99.852-99.852zm-3.025 0c0 56.724 46.153 102.877 102.876 102.877S215.67 170.076 215.67 113.353c0-56.683-46.113-102.835-102.836-102.835S9.958 56.67 9.958 113.353" fill="#fff"/><path d="m24.447 147.126-1.412-5.85 11.983-2.904v-.042l-13.314-2.622-1.493-6.294 14.646 3.39 15.492-11.5 1.573 6.617-10.328 7.222 3.308.847 8.472-2.017 1.412 5.85-30.338 7.302" fill="#fff"/><path d="m24.447 147.126-1.412-5.85 11.983-2.904v-.042l-13.314-2.622-1.493-6.294 14.646 3.39 15.492-11.5 1.573 6.617-10.328 7.222 3.308.847 8.472-2.017 1.412 5.85z" fill="none" stroke="#00579c" stroke-width=".020656"/><path d="m19.077 122.959-.525-6.012 31.065-2.743.565 5.97-31.105 2.785" fill="#fff"/><path d="m19.077 122.959-.525-6.012 31.065-2.743.565 5.97z" fill="none" stroke="#00579c" stroke-width=".020656"/><path d="m18.56 110.049 1.493-15.008 5.85.847-.847 8.754 6.213.606.807-8.19 5.93.565-.847 8.23 7.1.686.807-8.593 5.93.605-1.411 14.564-31.024-3.066" fill="#fff"/><path d="m18.56 110.049 1.493-15.008 5.85.847-.847 8.754 6.213.606.807-8.19 5.93.565-.847 8.23 7.1.686.807-8.593 5.93.605-1.411 14.564z" fill="none" stroke="#00579c" stroke-width=".020656"/><path d="m22.485 85.674 2.26-5.567 23.398 9.48 3.067-7.544 5.527 2.26-5.366 13.07-28.886-11.699" fill="#fff"/><path d="m22.485 85.674 2.26-5.567 23.398 9.48 3.067-7.544 5.527 2.26-5.366 13.07z" fill="none" stroke="#00579c" stroke-width=".020656"/><path d="m31.47 65.535 8.553-12.426 4.72 3.59-4.962 7.222 5.164 3.55 4.64-6.818 4.922 3.349-4.64 6.818 5.85 3.994 4.962-7.1 4.922 3.348-8.391 12.104-25.74-17.63" fill="#fff"/><path d="m31.47 65.535 8.553-12.426 4.72 3.59-4.962 7.222 5.164 3.55 4.64-6.818 4.922 3.349-4.64 6.818 5.85 3.994 4.962-7.1 4.922 3.348-8.391 12.104z" fill="none" stroke="#00579c" stroke-width=".020656"/><path d="m59.356 52.212 1.412-1.17c1.896-1.533.968-3.672-.201-5.084-1.493-1.815-3.066-2.582-4.882-1.048l-1.412 1.17zm-13.03-6.173 7.826-6.536c3.913-3.267 7.746-1.412 10.449 1.856 2.904 3.51 3.147 6.213 1.533 8.634l.041.041c3.389-1.896 5.406.201 8.11 3.389 4.034 4.68 4.558 5.043 5.486 4.841l.242.282-5.003 4.156c-1.009-.525-2.26-1.776-4.518-4.519-3.43-4.155-4.64-4.64-6.092-3.43l-1.776 1.453 8.392 10.006-4.357 3.832L46.325 46.04" fill="#fff"/><path d="m59.356 52.212 1.412-1.17c1.896-1.533.968-3.672-.201-5.084-1.493-1.815-3.066-2.582-4.882-1.048l-1.412 1.17z" fill="none" stroke="#00579c" stroke-width=".020656"/><path d="m46.343 46.067 7.826-6.536c3.914-3.268 7.746-1.412 10.45 1.856 2.904 3.51 3.146 6.213 1.532 8.633l.042.042c3.389-1.897 5.406.2 8.109 3.388 4.034 4.68 4.559 5.043 5.486 4.842l.242.282-5.002 4.155c-1.01-.525-2.26-1.735-4.519-4.478-3.43-4.196-4.64-4.68-6.092-3.47l-1.775 1.453 8.392 10.005-4.358 3.833z" fill="none" stroke="#00579c" stroke-width=".020656"/><path d="m85.073 46.583.444 1.009c.927 2.138 2.138 3.55 4.034 2.743 1.937-.847 1.735-2.864 1.01-4.518-2.704-6.173-11.256 1.734-15.977-8.916-2.017-4.56-1.694-9.28 3.954-11.78 5.527-2.462 8.996.08 10.933 4.478l.282.685-5.285 2.34c-.605-1.371-1.17-2.3-1.816-2.824-.605-.524-1.25-.605-2.097-.242-1.372.605-1.735 1.977-.847 4.035 2.662 5.97 11.377-1.453 15.814 8.593 2.864 6.455 1.049 10.368-3.994 12.628-3.994 1.735-8.351 1.896-10.974-4.035l-.806-1.855 5.325-2.34" fill="#fff"/><path d="m85.073 46.583.444 1.009c.927 2.138 2.138 3.55 4.034 2.743 1.937-.847 1.735-2.864 1.01-4.518-2.704-6.173-11.256 1.734-15.977-8.916-2.017-4.56-1.694-9.28 3.954-11.78 5.527-2.462 8.996.08 10.933 4.478l.282.685-5.285 2.34c-.605-1.371-1.17-2.3-1.816-2.824-.605-.524-1.25-.605-2.097-.242-1.372.605-1.735 1.977-.847 4.035 2.662 5.97 11.377-1.453 15.814 8.593 2.864 6.455 1.049 10.368-3.994 12.628-3.994 1.735-8.351 1.896-10.974-4.035l-.806-1.855z" fill="none" stroke="#00579c" stroke-width=".020656"/><path d="m95.607 20.081 6.415-1.008 5.688 23.923h.042l.444-24.569 6.334-.202-2.3 31.388-7.584.848-9.037-30.38" fill="#fff"/><path d="m95.607 20.081 6.415-1.008 5.688 23.923h.042l.444-24.569 6.334-.202-2.3 31.388-7.584.848z" fill="none" stroke="#00579c" stroke-width=".020656"/><path d="m129.07 20.081 5.85 1.372-2.945 11.458 4.64 1.25 3.227-11.457 5.81 1.775-8.513 30.137-5.729-1.856L135 40.172l-4.639-1.25-3.308 12.628-5.85-1.332 7.867-30.137" fill="#fff"/><path d="m129.07 20.081 5.85 1.372-2.945 11.458 4.64 1.25 3.227-11.457 5.81 1.775-8.513 30.137-5.729-1.856L135 40.172l-4.639-1.25-3.308 12.628-5.85-1.332z" fill="none" stroke="#00579c" stroke-width=".020656"/><path d="M146.524 55c2.098 1.21 3.793-.967 8.07-8.391 4.276-7.423 5.365-9.965 3.267-11.175-2.058-1.21-3.752 1.009-8.028 8.432-4.317 7.383-5.366 9.965-3.309 11.134zm-2.42 4.277c-6.859-3.994-4.64-9.965.322-18.559 4.962-8.552 9.037-13.475 15.896-9.52 7.383 4.276 4.034 11.053-.322 18.558-4.358 7.463-8.513 13.757-15.896 9.52" fill="#fff"/><path d="M146.524 55c2.098 1.21 3.793-.967 8.07-8.391 4.276-7.423 5.365-9.965 3.267-11.175-2.058-1.21-3.752 1.009-8.028 8.432-4.317 7.383-5.366 9.965-3.309 11.134z" fill="none" stroke="#00579c" stroke-width=".020656"/><path d="M144.149 59.235c-6.859-3.994-4.64-9.965.322-18.559 4.962-8.552 9.037-13.475 15.896-9.52 7.383 4.276 4.034 11.053-.322 18.558-4.357 7.463-8.513 13.797-15.896 9.52z" fill="none" stroke="#00579c" stroke-width=".020656"/><path d="m172.964 40.417 4.357 4.115-17.348 18.356 6.132 5.648-4.074 4.317-10.49-9.803 21.423-22.633" fill="#fff"/><path d="m172.964 40.417 4.357 4.115-17.348 18.356 6.132 5.648-4.074 4.317-10.49-9.803z" fill="none" stroke="#00579c" stroke-width=".020656"/><path d="m172.86 72.455-.927.605c-1.977 1.21-3.227 2.662-2.138 4.397 1.13 1.775 3.107 1.291 4.6.323 5.688-3.55-3.35-10.893 6.575-17.066 4.196-2.663 8.916-3.067 12.225 2.218 3.187 5.084 1.17 8.876-2.905 11.418l-.646.404-3.066-4.922c1.25-.807 2.098-1.493 2.501-2.179.445-.685.445-1.371-.04-2.098-.807-1.29-2.18-1.452-4.116-.241-5.527 3.47 3.107 11.014-6.213 16.863-6.011 3.793-10.086 2.542-13.03-2.098-2.34-3.711-3.148-7.988 2.38-11.457l1.694-1.09 3.106 4.922" fill="#fff"/><path d="m172.86 72.455-.927.605c-1.977 1.21-3.227 2.662-2.138 4.397 1.13 1.775 3.107 1.291 4.6.323 5.688-3.55-3.35-10.893 6.575-17.066 4.196-2.663 8.916-3.067 12.225 2.218 3.187 5.084 1.17 8.876-2.905 11.418l-.646.404-3.066-4.922c1.25-.807 2.098-1.493 2.501-2.179.445-.685.445-1.371-.04-2.098-.807-1.29-2.18-1.452-4.116-.241-5.527 3.47 3.107 11.014-6.213 16.863-6.011 3.793-10.086 2.542-13.03-2.098-2.34-3.711-3.148-7.988 2.38-11.457l1.694-1.09z" fill="none" stroke="#00579c" stroke-width=".020656"/><path d="m195.066 81.027-1.775-5.083 5.608-1.937 5.486 15.856-5.607 1.896-1.776-5.043-23.843 8.23-1.977-5.689 23.884-8.23" fill="#fff"/><path d="m195.066 81.027-1.775-5.083 5.608-1.937 5.486 15.856-5.607 1.896-1.776-5.043-23.843 8.23-1.977-5.689z" fill="none" stroke="#00579c" stroke-width=".020656"/><path d="m205.497 95.073 1.372 15.048-5.93.241-.807-8.754-6.213.565.726 8.19-5.89.565-.767-8.23-7.1.645.847 8.835-5.93.525-1.373-14.806 31.065-2.824" fill="#fff"/><path d="m205.497 95.073 1.372 15.048-5.93.241-.807-8.754-6.213.565.726 8.19-5.89.565-.767-8.23-7.1.645.847 8.835-5.93.525-1.373-14.806z" fill="none" stroke="#00579c" stroke-width=".020656"/><path d="m207.046 116.658-.524 6.012-31.065-2.703.525-6.012 31.064 2.703" fill="#fff"/><path d="m207.046 116.658-.524 6.012-31.065-2.703.525-6.012z" fill="none" stroke="#00579c" stroke-width=".020656"/><path d="M47.479 151.36c1.372 2.26.605 5.286-1.695 6.617-2.3 1.372-5.285.605-6.656-1.695-1.332-2.3-.605-5.285 1.735-6.616 2.259-1.372 5.285-.645 6.616 1.695" fill="#fff"/><path d="M47.479 151.36c1.372 2.26.605 5.286-1.695 6.617-2.3 1.372-5.285.605-6.656-1.695-1.332-2.3-.605-5.285 1.735-6.616 2.259-1.372 5.285-.645 6.616 1.695z" fill="none" stroke="#00579c" stroke-width=".020656"/><path d="M184.945 149.811c2.3 1.372 3.025 4.398 1.654 6.657-1.372 2.3-4.357 3.066-6.657 1.654-2.3-1.372-3.026-4.357-1.654-6.657 1.372-2.259 4.357-3.025 6.657-1.654" fill="#fff"/><path d="M184.945 149.811c2.3 1.372 3.025 4.398 1.654 6.657-1.372 2.3-4.357 3.066-6.657 1.654-2.3-1.372-3.026-4.357-1.654-6.657 1.372-2.259 4.357-3.025 6.657-1.654z" fill="none" stroke="#00579c" stroke-width=".020656"/><path d="M117.193 45.137c1.049.686 1.452 2.26.847 3.47-.646 1.17-1.977 1.613-3.066.887-1.05-.686-1.412-2.219-.807-3.429.605-1.21 1.977-1.614 3.026-.928" fill="#fff"/><path d="M117.193 45.137c1.049.686 1.452 2.26.847 3.47-.646 1.17-1.977 1.613-3.066.887-1.05-.686-1.412-2.219-.807-3.429.605-1.21 1.977-1.614 3.026-.928z" fill="none" stroke="#00579c" stroke-width=".020656"/><path d="M101.288 46.83c1.09.687 1.452 2.26.847 3.47-.606 1.21-1.977 1.614-3.026.928-1.05-.686-1.412-2.26-.847-3.47.645-1.21 1.977-1.613 3.026-.928" fill="#fff"/><path d="M101.288 46.83c1.09.687 1.452 2.26.847 3.47-.606 1.21-1.977 1.614-3.026.928-1.05-.686-1.412-2.26-.847-3.47.645-1.21 1.977-1.613 3.026-.928z" fill="none" stroke="#00579c" stroke-width=".020656"/><path d="m60.492 150.534 4.6 4.479-14.726 19.365.041.04 19.082-15.047 4.6 4.518-25.982 18.195-5.487-5.365 17.873-26.184" fill="#fff"/><path d="m60.492 150.534 4.6 4.479-14.726 19.365.041.04 19.082-15.047 4.6 4.518-25.982 18.195-5.487-5.365z" fill="none" stroke="#00579c" stroke-width=".020656"/><path d="M66.792 191.02c2.058 1.25 3.793-.927 8.23-8.27 4.398-7.343 5.528-9.885 3.43-11.135-2.018-1.21-3.752.968-8.19 8.27-4.398 7.343-5.527 9.885-3.47 11.135zm-2.541 4.196c-6.778-4.075-4.438-10.046.685-18.518 5.124-8.513 9.28-13.354 16.098-9.239 7.302 4.357 3.792 11.094-.686 18.518s-8.755 13.636-16.097 9.239" fill="#fff"/><path d="M66.792 191.02c2.058 1.25 3.793-.927 8.23-8.27 4.398-7.343 5.528-9.885 3.43-11.135-2.018-1.21-3.752.968-8.19 8.27-4.398 7.343-5.527 9.885-3.47 11.135z" fill="none" stroke="#00579c" stroke-width=".020656"/><path d="M64.21 195.255c-6.778-4.075-4.438-10.046.686-18.519 5.124-8.512 9.279-13.354 16.057-9.238 7.302 4.397 3.792 11.094-.646 18.518-4.478 7.423-8.754 13.636-16.097 9.239z" fill="none" stroke="#00579c" stroke-width=".020656"/><path d="m88.481 172.326 6.495 1.897-.322 20.776.083.042 5.123-19.486 5.406 1.25-7.907 30.218-6.576-1.735.322-22.148h-.041l-5.447 20.817-5.648-1.493 8.513-30.137" fill="#fff"/><path d="m88.481 172.326 6.495 1.897-.322 20.776.083.042 5.123-19.486 5.406 1.25-7.907 30.218-6.576-1.735.322-22.148h-.041l-5.447 20.817-5.648-1.493z" fill="none" stroke="#00579c" stroke-width=".020656"/><path d="m170.795 138.864 1.896-6.496 20.817.444v-.082l-19.445-5.204 1.29-5.407 30.138 8.029-1.735 6.576-22.108-.444-.041.082 20.777 5.527-1.493 5.649-30.097-8.674" fill="#fff"/><path d="m170.795 138.864 1.896-6.496 20.817.444v-.082l-19.445-5.204 1.29-5.407 30.138 8.029-1.735 6.576-22.108-.444-.041.082 20.777 5.527-1.493 5.649z" fill="none" stroke="#00579c" stroke-width=".020656"/><path d="m116.16 186.166-4.841.242-.242-4.64.766-.041c4.519-.202 5.447-3.147 5.649-5.124l4.236-.201 1.492 30.903-6.01.282-1.05-21.422" fill="#fff"/><path d="m116.16 186.166-4.841.242-.242-4.64.766-.041c4.519-.202 5.447-3.147 5.649-5.124l4.236-.201 1.492 30.903-6.01.282z" fill="none" stroke="#00579c" stroke-width=".020656"/><path d="M136.093 183.79c-1.049-3.47-2.138-5.527-3.832-5.043-1.655.525-1.534 2.582-.606 5.81 1.09 3.59 1.937 5.124 3.752 4.559 1.695-.485 1.493-2.663.686-5.326zm-1.614 14.04c.161.807.444 1.574.847 2.139.404.524.968.726 1.654.565 1.977-.445 2.058-2.461.485-9.078h-.042c-.363 2.017-1.694 3.187-3.792 3.672-3.792.887-6.536-1.17-8.15-7.948-1.411-6.011-1.008-11.336 5.528-12.87 7.302-1.694 9.48 3.752 11.619 12.749 2.34 10.045 3.147 16.178-4.842 18.074-4.397 1.009-7.624-.605-8.956-5.971l5.648-1.331" fill="#fff"/><path d="M136.093 183.79c-1.049-3.47-2.138-5.527-3.832-5.043-1.655.525-1.534 2.582-.606 5.81 1.09 3.59 1.937 5.124 3.752 4.559 1.695-.485 1.493-2.663.686-5.326z" fill="none" stroke="#00579c" stroke-width=".020656"/><path d="M134.44 197.837c.162.806.445 1.573.848 2.138.403.524.967.726 1.654.565 1.977-.444 2.057-2.461.484-9.078h-.041c-.364 2.018-1.695 3.188-3.793 3.672-3.792.887-6.535-1.17-8.149-7.948-1.412-6.011-1.01-11.336 5.527-12.87 7.302-1.694 9.48 3.752 11.619 12.75 2.34 10.045 3.147 16.177-4.841 18.073-4.398 1.01-7.625-.605-8.956-6.011z" fill="none" stroke="#00579c" stroke-width=".020656"/><path d="M158.298 191.536c1.816-.927 1.01-3.187-2.945-10.973-4.034-7.867-5.366-9.804-7.181-8.876-1.815.928-1.009 3.147 3.026 11.014 3.953 7.786 5.285 9.763 7.1 8.835zm2.3 4.035c-6.697 3.55-10.126-1.21-14.766-10.005-4.155-7.868-6.737-14.322-.083-17.873 6.738-3.55 10.127 1.25 14.807 10.005 4.115 7.867 6.697 14.322.04 17.873" fill="#fff"/><path d="M158.298 191.536c1.816-.927 1.01-3.187-2.945-10.973-4.034-7.867-5.366-9.804-7.181-8.876-1.815.928-1.009 3.147 3.026 11.014 3.953 7.786 5.285 9.763 7.1 8.835z" fill="none" stroke="#00579c" stroke-width=".020656"/><path d="M160.57 195.564c-6.697 3.55-10.126-1.21-14.765-10.005-4.156-7.867-6.738-14.322-.083-17.872 6.737-3.55 10.126 1.25 14.806 10.005 4.115 7.867 6.697 14.322.041 17.872z" fill="none" stroke="#00579c" stroke-width=".020656"/><path d="M176.992 177.18c1.493-1.411.083-3.348-5.89-9.722-6.011-6.455-7.827-7.988-9.32-6.576-1.492 1.371-.12 3.308 5.93 9.763 5.972 6.374 7.787 7.907 9.28 6.536zm3.308 3.228c-5.446 5.285-10.045 1.654-16.944-5.527-6.173-6.415-10.409-11.902-4.962-17.147 5.446-5.285 10.045-1.613 16.944 5.528 6.132 6.414 10.408 11.9 4.962 17.146" fill="#fff"/><path d="M176.992 177.18c1.493-1.411.083-3.348-5.89-9.722-6.011-6.455-7.827-7.988-9.32-6.576-1.492 1.371-.12 3.308 5.93 9.763 5.972 6.374 7.787 7.907 9.28 6.536z" fill="none" stroke="#00579c" stroke-width=".020656"/><path d="M180.297 180.382c-5.446 5.285-10.046 1.654-16.944-5.527-6.173-6.415-10.409-11.902-4.962-17.146 5.446-5.285 10.045-1.614 16.944 5.527 6.132 6.414 10.368 11.9 4.962 17.146z" fill="none" stroke="#00579c" stroke-width=".020656"/><g><path d="m113.268 166.336 1.01-.565c4.155-2.46 9.843-6.172 16.621-13.515 8.311-8.997 13.193-16.864 16.743-27.07 5.608-16.219 5.688-28.04 5.769-42.967v-2.986c7.786 9.239 12.426 21.1 12.426 34.05 0 29.129-23.52 52.81-52.568 53.053zm-53.496-53.052c0-12.95 4.64-24.81 12.426-34.05v2.985c.12 14.927.201 26.748 5.81 42.967 3.51 10.207 8.23 17.792 16.702 27.07 6.616 7.222 12.103 10.853 16.662 13.516l.968.565c-29.048-.242-52.568-23.924-52.568-53.052zm53.052-53.052c16.017 0 30.46 7.182 40.182 18.478l-2.3-.16c-.16-.042-19.324-1.534-37.882-1.534-18.6 0-37.721 1.493-37.924 1.533l-2.3.161c9.764-11.296 24.166-18.478 40.223-18.478zm0-3.106c-30.984 0-56.199 25.215-56.199 56.158 0 30.984 25.215 56.159 56.2 56.159 30.943 0 56.158-25.175 56.158-56.159 0-30.943-25.215-56.158-56.159-56.158" fill="#fff"/><path d="M112.855 79.994c-18.72 0-37.68 1.533-37.68 1.533.082 15.17.082 26.667 5.607 42.643 3.631 10.49 8.513 17.71 16.097 26.022 6.375 6.98 11.74 10.53 15.977 12.95 4.196-2.42 9.521-6.011 15.936-12.95 7.464-8.069 12.466-15.532 16.097-26.022 5.527-15.976 5.527-27.474 5.608-42.643 0 0-19.001-1.533-37.64-1.533" fill="#eb1938"/><path d="m112.855 159.107-9.32-7.101 6.577-11.902-16.703 4.398 8.836-11.983-15.21 2.017 10.731-11.255-15.976-.485 11.983-9.319-15.492-2.743 14.16-8.029-13.919-6.011-.12-12.023 11.457-.726 5.81 15.694 5.85-16.219 5.607 15.492 5.77-15.976 5.728 15.976 5.608-15.492 5.85 16.219 5.81-15.694 11.457.726-.16 12.023-13.88 6.011 14.161 8.029-15.451 2.743 11.94 9.32-15.976.484 10.732 11.255-15.21-2.017 8.835 11.983-16.702-4.398 6.616 11.902-9.4 7.1" fill="#fff"/></g><g fill="#575759"><path d="M131.239 103.748h-2.461c0 1.01-.364 1.856-.847 2.663-1.17 1.574-2.864 2.905-4.438 3.43v-2.865h-1.936v3.833c-1.01.322-1.977.685-3.066.967v2.26c4.357-1.05 8.23-3.228 11.296-6.294-1.049 9.561-7.947 16.823-16.944 16.864-8.996-.042-15.774-7.383-16.944-16.864a23.696 23.696 0 0 0 11.215 6.294v-2.26l-3.187-.967s-.041-3.712 0-3.833h-1.936v2.905c-2.38-1.05-5.124-3.308-5.285-6.213h-2.42c-.525 8.795 3.509 17.509 11.658 21.22 4.882 2.381 11.78 1.614 16.219-1.33 6.737-4.64 9.601-11.821 9.077-19.81"/><path d="M112.855 118.93c4.841 0 9.521-1.411 13.515-4.074a19.087 19.087 0 0 0 1.574-3.833c-4.357 3.268-9.602 5.043-15.088 5.043s-10.692-1.775-15.008-5.002a18.518 18.518 0 0 0 1.573 3.873c3.994 2.622 8.634 3.994 13.435 3.994"/><path d="M112.855 120.377c-4.196 0-8.23-1.05-11.82-3.026 2.864 3.671 7.06 5.93 11.82 5.97 4.841-.04 9.078-2.299 11.983-6.05-3.672 2.016-7.746 3.106-11.983 3.106M112.855 114.696c1.372 0 2.703-.161 3.994-.363v-2.421a30.283 30.283 0 0 1-8.109 0v2.42c1.331.242 2.703.364 4.115.364"/></g></g></svg>