<?xml version="1.0" encoding="UTF-8"?>
<svg width="345" height="348" version="1.1" viewBox="0 0 345 348" xmlns="http://www.w3.org/2000/svg">
 <g transform="matrix(.58614 0 0 .58614 -1.5418 -72.439)" fill-rule="evenodd">
  <g fill="#0060aa">
   <path d="m480.41 477.85-41.129-13.159 9.5596-29.879 7.1504 2.2879-6.8874 21.527 8.752 2.8001 6.2989-19.687 7.0355 2.251-6.2985 19.687 10.582 3.3857 7.2108-22.538 7.6082 2.4338zm-378.3-28.224 40.883-13.904 2.8618 8.4152-33.32 11.332 6.7879 19.958-7.5626 2.5722zm51.914 16.769 4.3682 7.8106-23.641 13.222c-2.9095 1.6271-4.7185 3.3957-5.4054 5.3054-0.6868 1.9097-0.3285 4.1292 1.0883 6.6625 1.4317 2.56 3.1365 4.0496 5.119 4.4773 1.9914 0.4233 4.4507-0.1836 7.3775-1.8207l23.64-13.222 4.339 7.7581-24.48 13.69c-4.6301 2.5898-8.9002 3.2806-12.819 2.0773-3.9186-1.2031-7.2408-4.231-9.9575-9.0885-2.7411-4.9011-3.6051-9.3381-2.5926-13.311 1.0162-3.9861 3.8438-7.2766 8.483-9.8711zm27.366 78.971c-3.6079 3.3392-7.6637 4.8781-12.161 4.61-4.4892-0.2619-8.7537-2.3066-12.785-6.1143-4.6499-4.3923-6.8913-9.2495-6.7255-14.586 0.1528-5.3362 2.7069-10.621 7.6488-15.853 5.0519-5.3487 10.232-8.1944 15.546-8.5584 5.3147-0.3643 10.432 1.7844 15.366 6.4443 4.0022 3.7803 6.247 7.7451 6.7192 11.895 0.4797 4.157-0.8515 8.1178-4.0011 11.904l-6.3745-6.0208c1.408-2.0299 1.9587-4.0708 1.667-6.1089-0.299-2.0447-1.453-4.0159-3.4543-5.906-2.8383-2.6807-5.8654-3.8052-9.0742-3.367-3.2097 0.4391-6.4738 2.4225-9.8008 5.9448-3.2165 3.4058-4.9771 6.7411-5.2594 9.9853-0.2894 3.2514 0.9193 6.1555 3.6332 8.7191 1.9578 1.8491 4.0399 2.8661 6.226 3.0444 2.1934 0.1854 4.3622-0.4926 6.4995-2.0123zm1.5594 19.373 21.683-37.344 7.6867 4.4631-8.9064 15.339 23.493-6.8701 9.6176 5.5843-23.691 6.4542 3.3579 31.674-9.3923-5.4533-2.2581-24.16-6.279 1.6441-7.6246 13.132zm44.581 22.637 11.456-41.636 30.247 8.3222-1.9917 7.2388-21.792-5.9961-2.4375 8.8597 19.929 5.4836-1.9596 7.1223-19.93-5.4836-2.9475 10.713 22.815 6.2776-2.1192 7.7017zm45.131 10.874 1.4071-43.159 9.294 0.3027 16.571 30.226 0.9669-29.654 8.7641 0.2858-1.4071 43.16-9.174-0.2988-16.691-30.23-0.9669 29.654zm63.705-3.0056-23.738-38.136 8.8565-2.5254 15.455 27.268-2.3638-31 9.1255-2.6017 14.339 27.586-1.2376-31.321 8.7885-2.5058-0.0581 44.92-8.1439 2.3216-15.488-29.975 2.6084 33.647zm35.528-59.074 8.9067-5.093 34.957 29.755-8.0986 4.6307-6.9588-6.2606-14.529 8.3081 1.9448 9.1278-8.1247 4.646zm8.7772 4.9439 3.9263 18.925 10.41-5.9525zm44.047 10.959-30.392-30.677 6.3144-6.2557 24.77 25.002 14.976-14.837 5.6223 5.6744zm29.136-29.893-36.555-22.989 9.0059-14.32c3.5331-5.618 7.6825-8.8501 12.44-9.7016 4.7568-0.8512 10.218 0.6557 16.37 4.5247 3.3468 2.1047 5.9675 4.4626 7.8786 7.0832 1.9108 2.6209 3.0294 5.3932 3.3647 8.3007 0.2446 2.1872 0.0301 4.3704-0.6284 6.5455-0.6616 2.1619-2.0435 4.9229-4.1483 8.27zm-1.9735-11.529 3.7942-6.0329c2.1957-3.4909 2.8737-6.6005 2.0242-9.3104-0.8444-2.7185-3.3199-5.3635-7.4208-7.9424-4.093-2.5742-7.5509-3.7316-10.391-3.4841-2.84 0.248-5.2256 1.9168-7.1759 5.0182l-4.3696 6.9483z"/>
   <path d="m452.8 381.31-48.146-139.59h31.839l29.703 104.41 30.286-104.41h31.451l-47.564 139.59z"/>
   <path d="m93.066 381.31v-139.59h100.5v24.267h-71.271v31.645h62.462v24.267h-62.462v59.407z"/>
   <path d="m297.93 446.33h12.907c0.032 3.9643 0.947 6.9497 2.7292 8.9402 1.798 2.0075 4.4464 3.0027 7.9622 3.0027 3.3871 0 6.0035-0.9277 7.8335-2.8003 1.8465-1.8553 2.7615-4.5374 2.7615-8.0291s-1.0757-6.1402-3.2266-7.9283c-2.1354-1.8048-5.3297-2.6988-9.5678-2.6988-0.2248 0-0.5618 0.0167-1.0114 0.0504-0.4493 0.0338-0.7866 0.0508-1.0111 0.0508v-9.8175h1.4607c3.8848 0 6.7583-0.7926 8.6363-2.3953 1.8623-1.6024 2.7935-4.0482 2.7935-7.3375 0-2.7329-0.7866-4.892-2.3757-6.4944-1.5897-1.6025-3.7406-2.3953-6.4695-2.3953-2.9699 0-5.2815 0.9278-6.9191 2.7663-1.6211 1.8556-2.4398 4.4702-2.4398 7.8775v0.5904h-12.714c0.1604-7.2365 2.1832-12.803 6.084-16.666 3.9169-3.863 9.4229-5.8028 16.551-5.8028 6.7422 0 12.088 1.7206 16.037 5.1786 3.949 3.458 5.9233 8.1136 5.9233 13.984 0 3.0869-0.6741 5.8025-2.0225 8.1473-1.3485 2.3278-3.371 4.2509-6.0681 5.7688 3.4514 1.5857 6.0681 3.7619 7.8338 6.5449 1.7818 2.7834 2.6648 6.1064 2.6648 9.9692 0 7.0849-2.2152 12.702-6.6296 16.852-4.4306 4.1493-10.467 6.2243-18.108 6.2243-7.5609 0-13.388-2.0242-17.482-6.0557-4.0935-4.0317-6.1325-9.7837-6.1325-17.223z"/>
   <path d="m258.63 426.92c1.5412-1.6362 3.3872-2.8846 5.5545-3.7111 2.1671-0.8433 4.5751-1.2651 7.24-1.2651 6.5973 0 11.863 2.1087 15.828 6.3255 3.9651 4.2171 5.9556 9.8342 5.9556 16.852 0 7.4389-2.1671 13.444-6.4854 18.032-4.3342 4.5714-10.049 6.8655-17.128 6.8655-8.1873 0-14.399-2.9687-18.654-8.8897-4.2543-5.9375-6.3732-14.608-6.3732-26.044 0-12.28 2.2797-21.676 6.8225-28.187 4.5431-6.4942 11.109-9.7498 19.665-9.7498 5.9556 0 10.772 1.6362 14.416 4.8918 3.6601 3.2556 5.6665 7.6583 6.0038 13.225h-13.677c-0.305-2.2771-1.1556-3.9977-2.5364-5.1449-1.3805-1.1639-3.3066-1.7373-5.779-1.7373-3.371 0-5.9715 1.5349-7.8015 4.6219-1.8142 3.0869-2.8256 7.7258-3.0504 13.916zm0.1928 18.471c0 4.0485 0.9632 7.2703 2.8896 9.6319 1.9423 2.3782 4.559 3.5591 7.882 3.5591 3.1142 0 5.5381-1.1471 7.3041-3.4579 1.7495-2.3111 2.6325-5.516 2.6325-9.6319 0-3.7953-0.915-6.7473-2.7289-8.856-1.8139-2.1084-4.3826-3.1544-7.6734-3.1544-3.2267 0-5.7628 1.046-7.5767 3.1544-1.8142 2.1087-2.7292 5.027-2.7292 8.7548z"/>
   <path d="m368.32 236.86c-13.5 2.6875-26.719 5.7498-40.219 8.4373-6.8293-13.854-17.783-25.308-32.391-25.5-15.707-0.2061-35.745 14.504-36.516 31.594-0.4816 10.673 5.436 18.393 12.515 26.063 8.6737 9.3977 46.166 32.428 70.782 48.423 31.813 20.672 65.073 57.305 64.219 104.62-0.8133 45.036-33.694 110.15-119.72 106.78-49.627-1.9437-100.87-43.278-101.91-109.59-0.2409-15.485 2.624-28.432 7.8746-39.001 14.484 2.5625 28.969 5.1248 43.454 7.6873-12.381 15.816-12.675 27.202-8.7188 46.172 6.4522 30.936 31.503 53.226 61.312 54.563 40.785 1.8301 77.155-23.386 76.688-67.687-0.3694-35.027-25.405-55.865-51.374-73.125-19.568-13.006-44.296-27.977-58.593-39.186-19.44-15.241-35.765-31.963-37.218-62.25-0.0467-42.129 36.68-75.966 78.562-75.281 33.572 0.5496 57.778 23.128 71.249 57.279z"/>
   <path d="m13.126 204.54c83.606-53.164 184.16-77.374 283.22-76.404 103.97 1.0179 206.42 29.789 285.96 81.942l5.8209 3.8166-0.0907 6.9959c-1.3731 105.86-30.895 202.3-78.524 283.71-52.032 88.938-125.71 159.96-207.94 205.75l-6.1637 3.4322-6.1937-3.4322c-82.431-45.679-156.06-112.87-207.44-203.15-45.086-79.215-72.971-176.12-74.522-291.75l-0.0952-7.1126zm283.02-50.992c-91.977-0.9002-185.2 20.919-263.35 68.771 2.5161 107.8 28.938 198.26 71.097 272.33 47.614 83.657 115.39 146.53 191.48 189.99 75.912-43.736 143.83-110.18 192.22-192.89 44.454-75.986 72.398-165.69 74.896-264.11-74.718-47.162-169.78-73.141-266.34-74.086z"/>
  </g>
  <g fill="#ffed00">
   <path d="m309.67 556.25-1.4071 43.16-9.174-0.2988-16.691-30.23-0.9669 29.654-8.7641-0.2857 1.4071-43.159 9.294 0.3027 16.571 30.226 0.9669-29.654zm97.042-125.75c-0.8133 45.036-33.694 110.15-119.72 106.78-49.627-1.9437-100.87-43.278-101.91-109.59-0.2409-15.485 2.624-28.432 7.8746-39.001l43.454 7.6873c-12.381 15.816-12.675 27.202-8.7188 46.172 6.4522 30.936 31.503 53.226 61.312 54.563 40.785 1.8301 77.155-23.386 76.688-67.687-0.3694-35.027-25.405-55.865-51.374-73.125-19.568-13.006-44.296-27.977-58.593-39.186-19.44-15.241-35.765-31.963-37.218-62.25-0.0467-42.129 36.68-75.966 78.562-75.281 33.572 0.5496 57.778 23.128 71.249 57.279-13.5 2.6875-26.719 5.7498-40.219 8.4373-6.8293-13.854-17.783-25.308-32.391-25.5-15.707-0.2061-35.745 14.504-36.516 31.594-0.4816 10.673 5.436 18.393 12.515 26.063 8.6737 9.3977 46.166 32.428 70.782 48.423 31.813 20.672 65.073 57.305 64.219 104.62zm-62.197 162.42-8.1439 2.3221-23.738-38.136 8.8565-2.5254 15.455 27.268-2.3638-31 9.1255-2.6017 14.339 27.586-1.2376-31.321 8.7885-2.5058-0.0581 44.92-8.1439 2.3216-15.488-29.975zm35.482-11.638-8.0977-45.114 8.9067-5.093 34.957 29.755-8.0986 4.6307-6.9588-6.2606-14.529 8.3081 1.9448 9.1278zm100.37-199.96h-27.568l-48.146-139.59h31.839l29.703 104.41 30.286-104.41h31.451zm7.2187 110.43c44.454-75.986 72.398-165.69 74.896-264.11-74.718-47.162-169.78-73.141-266.34-74.086-91.977-0.9002-185.2 20.919-263.35 68.771 2.5161 107.8 28.938 198.26 71.097 272.33 47.614 83.657 115.39 146.53 191.48 189.99 75.912-43.736 143.83-110.18 192.22-192.89zm-200.86-28.595c-4.3342 4.5714-10.049 6.8655-17.128 6.8655-8.1873 0-14.399-2.9687-18.654-8.8897-4.2543-5.9375-6.3732-14.608-6.3732-26.044 0-12.28 2.2797-21.676 6.8225-28.187 4.5431-6.4942 11.109-9.7498 19.665-9.7498 5.9556 0 10.772 1.6362 14.416 4.8918 3.6601 3.2556 5.6665 7.6583 6.0038 13.225h-13.677c-0.305-2.2771-1.1556-3.9977-2.5364-5.1449-1.3805-1.1639-3.3066-1.7373-5.779-1.7373-3.371 0-5.9715 1.5349-7.8015 4.6219-1.8142 3.0869-2.8256 7.7258-3.0504 13.916 1.5412-1.6362 3.3872-2.8846 5.5545-3.7111 2.1671-0.8433 4.5751-1.2651 7.24-1.2651 6.5973 0 11.863 2.1087 15.828 6.3255 3.9651 4.2171 5.9556 9.8342 5.9556 16.852 0 7.4389-2.1671 13.444-6.4854 18.032zm34.819 6.7643c-7.5609 0-13.388-2.0242-17.482-6.0557-4.0935-4.0317-6.1325-9.7837-6.1325-17.223v-0.3036h12.907c0.032 3.9643 0.947 6.9497 2.7292 8.9402 1.798 2.0075 4.4464 3.0027 7.9622 3.0027 3.3871 0 6.0035-0.9277 7.8335-2.8003 1.8465-1.8553 2.7615-4.5374 2.7615-8.0291s-1.0757-6.1402-3.2266-7.9283c-2.1354-1.8048-5.3297-2.6988-9.5678-2.6988-0.2248 0-0.5618 0.0167-1.0114 0.0504-0.4493 0.0338-0.7866 0.0508-1.0111 0.0508v-9.8175h1.4607c3.8848 0 6.7583-0.7926 8.6363-2.3953 1.8623-1.6024 2.7935-4.0482 2.7935-7.3375 0-2.7329-0.7866-4.892-2.3757-6.4944-1.5897-1.6025-3.7406-2.3953-6.4695-2.3953-2.9699 0-5.2815 0.9278-6.9191 2.7663-1.6211 1.8556-2.4398 4.4702-2.4398 7.8775v0.5904h-12.714c0.1604-7.2365 2.1832-12.803 6.084-16.666 3.9169-3.863 9.4229-5.8028 16.551-5.8028 6.7422 0 12.088 1.7206 16.037 5.1786 3.949 3.458 5.9233 8.1136 5.9233 13.984 0 3.0869-0.6741 5.8025-2.0225 8.1473-1.3485 2.3278-3.371 4.2509-6.0681 5.7688 3.4514 1.5857 6.0681 3.7619 7.8338 6.5449 1.7818 2.7834 2.6648 6.1064 2.6648 9.9692 0 7.0849-2.2152 12.702-6.6296 16.852-4.4306 4.1493-10.467 6.2243-18.108 6.2243zm-127.98-228.19v24.267h-71.271v31.645h62.462v24.267h-62.462v59.407h-29.229v-139.59zm231.15 310.34-30.392-30.677 6.3144-6.2557 24.77 25.002 14.976-14.837 5.6223 5.6744zm29.136-29.893-36.555-22.989 9.0059-14.32c3.5331-5.618 7.6825-8.8501 12.44-9.7016 4.7568-0.8512 10.218 0.6557 16.37 4.5247 3.3468 2.1047 5.9675 4.4626 7.8786 7.0832 1.9108 2.6209 3.0294 5.3932 3.3647 8.3007 0.2446 2.1872 0.0301 4.3704-0.6284 6.5455-0.6616 2.1619-2.0435 4.9229-4.1483 8.27zm-14.579-57.488 9.5596-29.879 7.1504 2.2879-6.8874 21.527 8.752 2.8001 6.2989-19.687 7.0355 2.251-6.2985 19.687 10.582 3.3857 7.2108-22.538 7.6082 2.4338-9.883 30.89zm-172.03 96.61-21.792-5.9961-2.4375 8.8597 19.929 5.4836-1.9596 7.1223-19.93-5.4836-2.9475 10.713 22.815 6.2776-2.1192 7.7017-31.27-8.6034 11.456-41.636 30.247 8.3222zm-124.25-125.58 2.8618 8.4152-33.32 11.332 6.7879 19.958-7.5626 2.5722-9.65-28.374zm11.031 30.673 4.3682 7.8106-23.641 13.222c-2.9095 1.6271-4.7185 3.3957-5.4054 5.3054-0.6868 1.9097-0.3285 4.1292 1.0883 6.6625 1.4317 2.56 3.1365 4.0496 5.119 4.4773 1.9914 0.4233 4.4507-0.1836 7.3775-1.8207l23.64-13.222 4.339 7.7581-24.48 13.69c-4.6301 2.5898-8.9002 3.2806-12.819 2.0773-3.9186-1.2031-7.2408-4.231-9.9575-9.0885-2.7411-4.9011-3.6051-9.3381-2.5926-13.311 1.0162-3.9861 3.8438-7.2766 8.483-9.8711zm82.499 79.516-23.691 6.4542 3.3579 31.674-9.3923-5.4533-2.2581-24.16-6.279 1.6441-7.6246 13.132-7.6867-4.4631 21.683-37.344 7.6867 4.4631-8.9064 15.339 23.493-6.8701zm-48.244-34.603c4.0022 3.7803 6.247 7.7451 6.7192 11.895 0.4797 4.157-0.8515 8.1178-4.0011 11.904l-6.3745-6.0208c1.408-2.0299 1.9587-4.0708 1.667-6.1089-0.299-2.0447-1.453-4.0159-3.4543-5.906-2.8383-2.6807-5.8654-3.8052-9.0742-3.367-3.2097 0.4391-6.4738 2.4225-9.8008 5.9448-3.2165 3.4058-4.9771 6.7411-5.2594 9.9853-0.2894 3.2514 0.9193 6.1555 3.6332 8.7191 1.9578 1.8491 4.0399 2.8661 6.226 3.0444 2.1934 0.1854 4.3622-0.4926 6.4995-2.0123l6.3309 5.9797c-3.6079 3.3392-7.6637 4.8781-12.161 4.61-4.4892-0.2619-8.7537-2.3066-12.785-6.1143-4.6499-4.3923-6.8913-9.2495-6.7255-14.586 0.1528-5.3362 2.7069-10.621 7.6488-15.853 5.0519-5.3487 10.232-8.1944 15.546-8.5584 5.3147-0.3643 10.432 1.7844 15.366 6.4443z"/>
   <path d="m269.59 458.58c3.1142 0 5.5381-1.1471 7.3041-3.4579 1.7495-2.3111 2.6325-5.516 2.6325-9.6319 0-3.7953-0.915-6.7473-2.7289-8.856-1.8139-2.1084-4.3826-3.1544-7.6734-3.1544-3.2267 0-5.7628 1.046-7.5767 3.1544-1.8142 2.1087-2.7292 5.027-2.7292 8.7548 0 4.0485 0.9632 7.2703 2.8896 9.6319 1.9423 2.3782 4.559 3.5591 7.882 3.5591z"/>
   <path d="m380.67 541.11 3.9263 18.925 10.41-5.9525z"/>
   <path d="m428.34 495.84 23.539 14.803 3.7942-6.0329c2.1957-3.4909 2.8737-6.6005 2.0242-9.3104-0.8444-2.7185-3.3199-5.3635-7.4208-7.9424-4.093-2.5742-7.5509-3.7316-10.391-3.4841-2.84 0.248-5.2256 1.9168-7.1759 5.0182z"/>
  </g>
 </g>
</svg>
