<svg xmlns="http://www.w3.org/2000/svg" width="550" height="550" version="1.2" viewBox="0 0 82.167 82.171"><path fill="#fff" fill-rule="evenodd" d="M41.081 81.336c22.227 0 40.246-18.02 40.246-40.246 0-22.227-18.02-40.246-40.246-40.246S.835 18.864.835 41.09c0 22.227 18.02 40.246 40.246 40.246"/><path fill="#00a668" d="M63.565 8.57 17.147 72.91c-3.008-1.973-4.527-3.445-6.785-6.246-1.438-1.781-2.195-2.856-3.258-4.887-.828-1.582-1.129-2.558-1.777-4.226-1.516-3.903-2.38-6.16-3.086-10.29-.711-4.156-.914-6.605-.516-10.804.403-4.215.867-6.672 2.574-10.547 1.38-3.133 2.684-4.641 4.63-7.461 2.155-3.121 3.163-5.11 5.917-7.715C18 7.75 20.116 6.265 24.104 4.558c3.781-1.617 6.203-1.844 10.29-2.312 6.155-.707 9.839-.79 15.87.625C55.76 4.16 58.838 5.488 63.565 8.57"/><path fill="none" stroke="#211e1e" stroke-miterlimit="3.864" stroke-width="2.944" d="M1.472 41.085c0-21.879 17.734-39.613 39.613-39.613 21.875 0 39.609 17.734 39.609 39.613 0 21.879-17.734 39.613-39.609 39.613-21.879 0-39.613-17.734-39.613-39.613z"/><g fill="#fff"><path d="m28.55 10.241 1.68 5.867 1.957-.558-2.157-7.524-3.035.871.477 1.653"/><path fill-rule="evenodd" d="m37.671 14.675 1.473-2.328c.593-.95 1.078-2.086.98-3.211-.07-.816-.558-1.61-1.234-2.062-.64-.434-1.528-.543-2.281-.477-1.778.156-3.262 1.328-3.094 3.242.125 1.438 1.215 2.664 2.746 2.531.41-.039.734-.148 1.074-.336l.024.02-1.997 2.82zm-.91-6.477a1.29 1.29 0 0 1 1.402 1.168 1.29 1.29 0 0 1-1.18 1.399c-.714.062-1.3-.461-1.363-1.172-.062-.715.426-1.332 1.14-1.395"/><path d="m43.979 8.452-.531 6.078 2.027.18.68-7.797-3.14-.277-.153 1.718"/><path fill-rule="evenodd" d="m50.925 15.784 2.152-1.719c.871-.703 1.7-1.62 1.973-2.719.2-.796-.004-1.703-.496-2.347-.465-.621-1.266-1.012-2-1.196-1.734-.433-3.516.192-3.98 2.055-.348 1.402.277 2.918 1.769 3.29.402.1.746.1 1.125.034l.016.024-2.805 2.02zm1.25-6.418c.695.172 1.121.867.945 1.563a1.29 1.29 0 0 1-1.57.937c-.695-.176-1.078-.86-.906-1.555.172-.695.836-1.117 1.531-.945"/></g><g fill="#211e1e"><path d="m25.409 66.472-1.469-.848-3.262 5.649 3.231 1.863.719-1.242-1.762-1.02"/><path fill-rule="evenodd" d="M30.639 66.292a.85.85 0 0 0-1.098.504c-.16.445.07.926.516 1.086a.847.847 0 0 0 .582-1.59zm2.078.758a.85.85 0 0 0-1.094.5c-.164.449.067.93.516 1.09a.846.846 0 1 0 .578-1.59zm-.808 2.348-1.172 3.226c-.29.797-.664 1.645-1.688 1.274-1.027-.375-.766-1.266-.476-2.063l1.175-3.227-1.593-.578-1.254 3.446c-.29.789-.54 1.582-.145 2.394.328.692 1.067 1.164 1.781 1.426.715.258 1.586.371 2.282.055.828-.372 1.144-1.141 1.43-1.93l1.253-3.445M36.069 74.331l.172.023c.547.079 1.39.118 1.281.899-.101.71-.937.566-1.434.496l-.214-.031zm.531 2.8c1.184.165 2.403-.116 2.594-1.472.125-.898-.18-1.578-1.09-1.828l.004-.016c.559-.195.817-.64.895-1.222.175-1.23-.532-1.786-1.68-1.946l-2.398-.34-.91 6.461zm-.18-5.3.122.016c.453.062.972.171.886.761-.074.547-.55.563-.992.5l-.191-.027"/><path d="m45.011 72.144-.078-1.438-3.703.196.34 6.515 3.707-.195-.075-1.433-2.015.105-.059-1.125 1.91-.098-.074-1.433-1.91.097-.059-1.09M51.143 69.57a3.995 3.995 0 0 0-1.582.027c-.895.207-1.707.801-2.184 1.586a3.432 3.432 0 0 0-.398 2.543c.219.946.73 1.696 1.574 2.168.797.446 1.719.59 2.602.383.515-.117.883-.336 1.39-.629l-.457-1.98a1.95 1.95 0 0 1-1.27 1c-1.026.238-1.886-.328-2.116-1.328-.227-.989.277-1.922 1.285-2.157.566-.129 1.172-.011 1.613.368M55.151 70.671l-.012.008L54 68.24l-1.536.719 2.758 5.91 1.535-.715-1.195-2.566.016-.008 3.18 1.64 1.992-.929-4.016-1.918 1.047-3.894-1.906.89M14.663 19.011c1.285 0 5.125 3.035 5.61 3.035.706 0 3.511-2.746 5.14-2.957l7.477 3.66v13.633l.078.157h.156l1.871-4.754h2.258v-3.817c0-.636-2.336-1.207-2.336-1.949 0-.379 2.305-2.758 3.04-3.348 1.608-1.316 3.097-3.195 3.894-3.195 1.12 0 10.047 4.52 10.047 4.52l4.906-3.04c.547.07.953.305 3.972 1.872v1.636c.82-.273 2.528-3.195 3.118-3.195 0 0 5.632 2.484 8.57 4.441v12.852c0 1.418-2.434 2.43-2.96 2.961.468.606 3.425 1.575 3.425 2.649v11.996c0 .46-.07.941-5.219 3.039-4.953 2.015-5.016 2.336-5.61 2.336-1.363 0-10.847-3.973-11.995-3.973-.48 0-2.774 2.102-3.27 2.102-.351 0-.547-.434-.547-.7 0-.453 6-4.37 6-5.453V25.71h-.468c-4.262 5.328-4.832 5.375-4.832 6.153 0 .086.011.148 0 .234h2.73v.39l-3.04 7.79h-2.026v20.332c0 .613-2.633 2.836-3.504 3.347-3.078 1.817-3.258 2.883-3.973 2.883-.219 0-.547-.195-.547-.469 0-.808 1.328-1.19 1.328-1.867V40.976h-4.988v12.152c-.934.625-2.102 2.16-5.063 4.676-3.343 2.836-3.636 3.973-4.675 3.973-.141 0-2.008-.813-5.996-2.883-5.008-2.602-5.532-2.64-5.532-3.273V29.215c0-.747-2.882-1.868-2.882-2.805 0-.465.546-1.652 2.648-3.973 1.754-1.93 2.105-3.426 3.195-3.426"/></g><path fill="none" stroke="#fff" stroke-miterlimit="3.864" stroke-width=".433" d="M14.663 19.011c1.285 0 5.125 3.04 5.61 3.04.706 0 3.511-2.75 5.14-2.962l7.477 3.66v13.633l.078.157h.156l1.871-4.75h2.258v-3.82c0-.637-2.336-1.208-2.336-1.946 0-.383 2.305-2.758 3.04-3.352 1.608-1.316 3.097-3.19 3.894-3.19 1.12 0 10.047 4.515 10.047 4.515l4.906-3.036c.547.07.953.301 3.972 1.868v1.636c.82-.273 2.524-3.195 3.118-3.195 0 0 5.632 2.484 8.57 4.441v12.852c0 1.418-2.434 2.434-2.96 2.961.468.61 3.425 1.575 3.425 2.649v11.996c0 .46-.07.945-5.219 3.039-4.953 2.02-5.016 2.336-5.61 2.336-1.363 0-10.847-3.973-11.995-3.973-.48 0-2.77 2.102-3.27 2.102-.351 0-.547-.434-.547-.7 0-.449 6-4.367 6-5.453V25.71h-.468c-4.262 5.328-4.832 5.375-4.832 6.153 0 .086.011.148 0 .234h2.73v.39l-3.04 7.79h-2.026v20.332c0 .617-2.633 2.836-3.504 3.347-3.078 1.817-3.258 2.883-3.973 2.883-.219 0-.547-.195-.547-.469 0-.808 1.328-1.187 1.328-1.867V40.98h-4.988v12.148c-.934.625-2.102 2.16-5.063 4.676-3.343 2.836-3.636 3.973-4.675 3.973-.137 0-2.008-.809-5.996-2.883-5.008-2.602-5.532-2.64-5.532-3.27v-26.41c0-.746-2.882-1.867-2.882-2.8 0-.47.546-1.653 2.648-3.977 1.754-1.93 2.105-3.426 3.195-3.426z"/><path fill="#00a668" d="M21.284 28.671c.61 0 1.574.762 2.18.855v22.281c-.14.114-.172.13-.23.387h-.626c-.086-.07-.918-.535-1.87-1.168V29.37c0-.426.148-.699.546-.699"/><path fill="none" stroke="#fff" stroke-miterlimit="3.864" stroke-width=".433" d="M21.284 28.671c.605 0 1.574.762 2.18.855v22.281c-.14.114-.172.13-.235.387h-.62c-.087-.07-.923-.535-1.872-1.168V29.37c0-.426.149-.699.547-.699z"/><path fill="#fff" d="M60.698 29.527h.39c.008 0 1.887 1.152 3.196 2.027v7.555s-2.586 2.148-3.586 2.648"/><path fill="none" stroke="#fff" stroke-miterlimit="3.864" stroke-width=".866" d="M60.698 29.527h.39c.008 0 1.887 1.152 3.196 2.027v7.555s-2.586 2.148-3.586 2.648z"/><path fill="#fff" d="M60.698 45.73h.469s1.293.496 3.351 1.246v8.566h-.937c-.41-.355-1.223-.496-2.883-1.324"/><path fill="none" stroke="#fff" stroke-miterlimit="3.864" stroke-width=".866" d="M60.698 45.73h.469s1.293.5 3.351 1.246v8.57h-.937c-.41-.359-1.223-.5-2.883-1.324z"/></svg>