<svg xmlns="http://www.w3.org/2000/svg" width="500" height="500" version="1.0"><path d="M784.857 523.93c0-91.626-.503-77.168 0-170.14H950.57c.335 93.477-74.117 170.14-165.713 170.14" style="fill:#c73847;fill-opacity:1;fill-rule:evenodd;stroke:none" transform="translate(-533.582 -108.802)"/><path d="M783.822 523.93c0-35.897-.079-55.515-.14-71.686l2.071-.008c.062 16.171.14 35.788.14 71.695h-2.071zm-.14-71.686c-.1-25.101-.166-41.915.14-98.458l2.072.008c-.305 56.536-.24 73.346-.141 98.442l-2.072.008zm.14-98.458.005-1.032h1.03v1.036l-1.035-.004zm1.035-1.032H950.57v2.072H784.857v-2.072zm165.713 0h1.032l.004 1.036h-1.036v-1.036zm1.036 1.036c.003.708 0 1.42-.005 2.121l-2.072-.015c.005-.7.006-1.405.005-2.106h2.072zm-.005 2.121c-.39 46.18-18.926 88.155-48.671 118.724l-1.483-1.442c29.386-30.2 47.695-71.668 48.082-117.297l2.072.015zM902.93 474.635c-29.754 30.576-70.726 49.747-115.99 50.32l-.025-2.073c44.694-.565 85.151-19.498 114.532-49.69l1.483 1.443zm-115.99 50.32c-.687.007-1.383.012-2.083.012v-2.072c.684 0 1.37-.005 2.058-.013" style="fill:#c73847;fill-opacity:1;fill-rule:nonzero;stroke:none" transform="translate(-533.582 -108.802)"/><path d="M549.064 357.992c0-130.295 105.544-235.71 235.625-235.71 130.083 0 235.627 105.415 235.627 235.71 0 130.129-105.544 235.542-235.627 235.542-130.081 0-235.625-105.413-235.625-235.542" style="fill:#fff;fill-opacity:1;fill-rule:evenodd;stroke:none" transform="translate(-533.582 -108.802)"/><path d="M547.582 357.992v-.009h2.963v.01h-2.963zm0-.009c.003-65.553 26.557-124.85 69.47-167.756l2.094 2.095c-42.376 42.369-68.6 100.926-68.601 165.661h-2.963zm69.47-167.756c42.91-42.902 102.18-69.42 167.618-69.425v2.962c-64.62.004-123.15 26.192-165.524 68.558l-2.094-2.095zm167.618-69.425h.02v2.962h-.02v-2.962zm.02 0h.008v2.962h-.009v-2.962zm.008 0c65.447.003 124.725 26.523 167.637 69.43l-2.095 2.095c-42.377-42.372-100.913-68.562-165.542-68.563v-2.962zm167.637 69.43c42.908 42.903 69.457 102.194 69.462 167.741h-2.962c-.004-64.728-26.223-123.28-68.595-165.646l2.095-2.095zm69.462 167.741v.02h-2.962v-.02h2.962zm0 .02V358h-2.962v-.009h2.962zm0 .008c-.002 65.466-26.558 124.722-69.475 167.611l-2.082-2.095c42.373-42.345 68.594-100.861 68.595-165.516h2.962zm-69.475 167.611c-42.91 42.88-102.178 69.399-167.614 69.404v-2.963c64.628-.004 123.159-26.192 165.532-68.536l2.082 2.095zm-167.614 69.404h-.019v-2.963h.02v2.963zm-.019 0h-.008v-2.963h.008v2.963zm-.008 0c-65.441-.003-124.717-26.524-167.63-69.41l2.083-2.095c42.376 42.35 100.914 68.541 165.547 68.542v2.963zm-167.63-69.41c-42.91-42.886-69.463-102.137-69.469-167.595h2.963c.004 64.648 26.222 123.157 68.589 165.5l-2.082 2.095zM547.583 358.01v-.019h2.963v.02" style="fill:#173885;fill-opacity:1;fill-rule:nonzero;stroke:none" transform="translate(-533.582 -108.802)"/><path d="M560.66 357.992c0-123.907 100.335-224.108 224.03-224.108 123.696 0 224.03 100.2 224.03 224.108 0 123.74-100.334 224.11-224.03 224.11-123.695 0-224.03-100.37-224.03-224.11" style="fill:#173885;fill-opacity:1;fill-rule:evenodd;stroke:none" transform="translate(-533.582 -108.802)"/><path d="M559.249 357.992v-.009h2.82v.01h-2.82zm0-.009c.003-62.336 25.25-118.718 66.051-159.511l1.984 1.996c-40.286 40.277-65.213 95.952-65.214 157.515h-2.821zm68.041-157.515h-.006l-.992-.998.998.998zm-1.996-1.996c40.797-40.788 97.151-65.995 159.376-66v2.823c-61.447.004-117.095 24.896-157.38 65.173l-1.996-1.996zm159.376-66h.02v2.823h-.02v-2.823zm.02 0h.008v2.823h-.009v-2.823zm.008 0c62.234.003 118.596 25.213 159.393 66.006l-1.996 1.996c-40.286-40.282-95.94-65.177-157.397-65.179v-2.823zm159.393 66.006c40.793 40.787 66.034 97.161 66.039 159.495h-2.821c-.004-61.553-24.93-117.22-65.214-157.499l1.996-1.996zm66.039 159.495v.02h-2.821v-.02h2.82zm0 .02V358h-2.821v-.009h2.82zm0 .008c-.003 62.251-25.245 118.631-66.044 159.445l-1.996-1.986c40.29-40.304 65.217-95.98 65.219-157.459h2.82zm-66.044 159.445c-40.798 40.81-97.154 66.062-159.378 66.068v-2.824c61.451-.004 117.1-24.936 157.382-65.23l1.996 1.986zm-159.378 66.068h-.019v-2.824h.02v2.824zm-.019 0h-.008v-2.824h.008v2.824zm-.008 0c-62.23-.003-118.593-25.259-159.393-66.075l1.996-1.986c40.285 40.3 95.94 65.236 157.397 65.237v2.824zm-159.393-66.075c-40.793-40.81-66.034-97.181-66.04-159.428h2.822c.004 61.473 24.93 117.141 65.214 157.442l-1.996 1.986zm-66.04-159.428v-.019h2.822v.02" style="fill:#173885;fill-opacity:1;fill-rule:nonzero;stroke:none" transform="translate(-533.582 -108.802)"/><path d="M618.81 357.992c0-91.795 74.285-166.105 165.88-166.105s165.88 74.31 165.88 166.105c0 91.627-74.285 165.939-165.88 165.939s-165.88-74.312-165.88-165.939" style="fill:#173885;fill-opacity:1;fill-rule:evenodd;stroke:none" transform="translate(-533.582 -108.802)"/><path d="M617.774 357.992v-.009h2.072v.01h-2.072zm0-.009c.002-46.177 18.692-87.962 48.899-118.198l1.465 1.457c-29.833 29.861-48.29 71.131-48.292 116.741h-2.072zm48.899-118.198c30.204-30.236 71.928-48.93 117.997-48.935v2.072c-45.503.004-86.708 18.464-116.532 48.32l-1.465-1.457zM784.67 190.85h.02v2.072h-.02v-2.072zm.02 0h.008v2.072h-.009v-2.072zm.008 0c46.077.003 87.809 18.7 118.015 48.94l-1.464 1.457c-29.829-29.86-71.04-48.323-116.55-48.325v-2.072zm118.015 48.94c30.202 30.234 48.888 72.011 48.893 118.183h-2.072c-.004-45.605-18.458-86.866-48.285-116.726l1.464-1.457zm48.893 118.183v.02h-2.072v-.02h2.072zm0 .02V358h-2.072v-.009h2.072zm0 .008c-.003 46.092-18.69 87.835-48.899 118.052l-1.465-1.457c29.833-29.842 48.29-71.068 48.292-116.595h2.072zm-48.899 118.052c-30.203 30.213-71.927 48.909-117.999 48.914v-2.072c45.504-.004 86.71-18.464 116.534-48.3l1.465 1.458zm-117.999 48.914h-.019v-2.072h.02v2.072zm-.019 0h-.008v-2.072h.008v2.072zm-.008 0c-46.076-.003-87.806-18.699-118.015-48.919l1.465-1.457c29.828 29.84 71.04 48.303 116.55 48.304v2.072zm-118.015-48.919c-30.2-30.213-48.887-71.95-48.892-118.037h2.072c.004 45.519 18.46 86.741 48.285 116.58l-1.465 1.457zm-48.892-118.037v-.019h2.072v.02" style="fill:#173885;fill-opacity:1;fill-rule:nonzero;stroke:none" transform="translate(-533.582 -108.802)"/><path d="M784.69 192.223c0 91.627.336 238.735 0 331.708-91.595 0-165.88-74.312-165.88-165.939 0-91.795 74.285-165.769 165.88-165.769" style="fill:#fff;fill-opacity:1;fill-rule:evenodd;stroke:none" transform="translate(-533.582 -108.802)"/><path d="M784.857 521.913c0-91.795-.503-235.709 0-328.682 91.596 0 165.88 73.302 165.88 164.93 0 91.626-74.284 163.752-165.88 163.752" style="fill:#cc2826;fill-opacity:1;fill-rule:evenodd;stroke:none" transform="translate(-533.582 -108.802)"/><path d="M784.857 521.913c0-91.795-.503-235.709 0-328.682 91.596 0 165.88 73.302 165.88 164.93 0 91.626-74.284 163.752-165.88 163.752" style="fill:#cc2826;fill-opacity:1;fill-rule:evenodd;stroke:none" transform="translate(-533.582 -108.802)"/><path d="M834.269 306.547c9.58-5.212 17.31-16.476 24.874-28.245 18.99 2.186 44.2 6.388 55.797 25.386 4.538 12.442 8.571 25.556 10.756 50.102h-82.351c-1.85-14.46-7.731-41.695-9.076-47.243M832.252 302.344c9.58-5.212 17.143-17.15 24.706-28.918-8.908-21.52-13.445-31.943-24.874-48.755-18.796-4.365-31.057-7.892-47.323-9.577-.041 11.546-.072 23.667-.09 36.204.02 13.89.104 29.017.355 43.312 15.462 4.876 33.108 7.23 47.226 7.734M919.689 261.848c-.296-.3-.59-.587-.884-.863.673 8.742-.84 21.184-.336 39.677 4.706 12.273 9.243 28.582 11.428 53.128h20.784a166.197 166.197 0 0 0-.822-12.775c-1.176-8.687-3.147-18.423-4.865-26.178a163.457 163.457 0 0 0-25.305-52.99M861.807 211.923c-8.941 1.652-21.57 4.014-29.723 8.545-18.79-4.364-31.048-7.89-47.307-9.575.012-3.047.026-6.055.039-9.015.088-2.739.194-4.618.21-8.645 27.708.027 53.827 6.77 76.78 18.69" style="fill:#fff;fill-opacity:1;fill-rule:evenodd;stroke:none" transform="translate(-533.582 -108.802)"/><path d="M696.624 258.296c-7.395-4.54-.337-1.178-3.865-3.027-6.89-3.699-8.067-12.441-7.9-12.441 7.228.84 25.042 6.893 33.781 5.885 21.513-2.186 31.26 3.867 31.428 15.299 0 6.893-5.546 12.104-9.58 16.476-1.512 1.681.673 12.44 7.9 16.308 4.034 2.185 6.555 2.354 5.714 5.716-1.176 5.716-10.756-2.859-14.958-10.76-1.848-3.698-2.016-5.045-2.353-9.078-.335-2.86-3.697-.168-3.697 1.008-1.008 8.742 3.529 13.282 5.882 16.98 8.067 11.938 22.184 14.122 22.184 14.122-4.37 4.709-2.016 34.803 1.681 43.376-.84 18.158-14.958 38.165-22.353 38.165 1.682-6.221 6.05-22.529 4.54-34.466-8.237 14.46-6.556 24.042-24.035 38.165-6.218 5.043-10.924 6.052-16.637 6.22 15.797-24.882 19.158-55.481 18.318-57.667-.504-1.008-10.924 20.176-22.857 32.785-14.454 15.3-24.37 11.096-29.411 11.264 5.378-8.406 14.118-8.575 25.713-34.466 8.237-18.661 10.084-29.253 9.413-28.58-6.891 7.398-6.555 6.893-15.295 11.936-14.957 8.744-22.52 1.681-22.352 1.681 13.613-10.423 33.108-32.28 33.108-39.004 0 0-7.898 2.354-12.772 1.345-14.958-3.362-15.126-10.423-14.958-10.423 17.479-5.885 30.251-15.637 29.411-15.805-26.05-6.22-25.042-23.705-24.873-23.705 9.747 2.69 14.117 3.867 18.823 2.69" style="fill:#cc2826;fill-opacity:1;fill-rule:evenodd;stroke:none" transform="translate(-533.582 -108.802)"/><path d="M696.355 258.737c-3.335-2.047-3.923-2.862-3.71-3.209l.883.542c-.064.103.747.176 3.365 1.784l-.538.883zm-3.71-3.209.002-.002.44.273-.442-.271zm.002-.002c.24-.385.702-.275 1.055-.189l-.243 1.01c-.04-.01.223-.527.066-.275l-.878-.546zm1.055-.189c.087.02-.505.603-.34.297l.91.491c-.181.338-.475.303-.813.221l.243-1.009zm.574.782-.003.006-.456-.245.46.239zm-.918-.478c.145-.279-.362.336-.839.087l.478-.918c1.18.618 1.455.972 1.28 1.309l-.92-.478zm-.839.087-.006-.004.246-.455-.24.459zm-.006-.004c-4.843-2.6-6.955-7.584-7.755-10.515l1-.27c.753 2.76 2.733 7.452 7.246 9.875l-.49.91zm-7.755-10.515c-.184-.672-.3-1.24-.363-1.643l1.024-.157c.06.375.168.905.338 1.53l-1 .27zm-.363-1.643a4.35 4.35 0 0 1-.069-.722l1.037.056a3.8 3.8 0 0 0 .056.509l-1.024.157zm-.069-.722.003-.016.516.045-.519-.029zm.003-.016c.03-.339.226-.519.53-.519v1.038c-.29 0 .526-.712.502-.43l-1.032-.09zm.53-.519.057.004-.057.515v-.519zm.057.004c.02.002.044.007.065.008l-.113 1.03c-.022-.002-.046-.007-.066-.008l.114-1.03zm.065.008h.002l-.058.514.056-.514zm.002 0c2.584.307 6.42 1.246 10.696 2.29l-.242 1.01c-4.257-1.04-8.072-1.973-10.57-2.27l.116-1.03zm10.696 2.29c7.897 1.927 17.332 4.23 22.905 3.587l.113 1.03c-5.757.663-15.287-1.661-23.26-3.608l.242-1.01zm22.905 3.587h.006l.05.515-.056-.515zm.006 0a84.037 84.037 0 0 1 7.199-.44l.012 1.038a82.424 82.424 0 0 0-7.11.431l-.101-1.029zm7.199-.44c7.907-.114 13.815 1.168 17.877 3.639l-.539.883c-3.892-2.367-9.616-3.595-17.326-3.484l-.012-1.037zm17.877 3.639c4.124 2.507 6.345 6.223 6.822 10.93l-1.027.1c-.443-4.369-2.506-7.82-6.334-10.147l.539-.883zm5.795 11.033v-.003l.513-.05-.513.053zm1.027-.107c.057.564.092 1.129.098 1.683l-1.037.012a18.077 18.077 0 0 0-.088-1.588l1.027-.107zm.098 1.683v.006h-.518l.518-.006zm0 .006c0 6.46-4.648 11.415-8.57 15.598l-.755-.708c3.794-4.044 8.288-8.836 8.288-14.89h1.037zm-8.57 15.598c-.385.409-.765.813-1.147 1.228l-.761-.7c.36-.391.753-.81 1.153-1.236l.754.708zm-1.91.527h.002l.38.351-.382-.35zm.764.701a.55.55 0 0 0-.077.114l-.91-.49c.065-.122.14-.234.223-.325l.764.701zm-.99-.374.003-.003.455.246-.458-.243zm.916.486c-.46.862-.306 3.156.539 5.797l-.985.316c-.93-2.903-1.044-5.523-.47-6.599l.916.486zm.539 5.797c.865 2.697 2.46 5.706 4.877 7.88l-.693.77c-2.566-2.31-4.256-5.488-5.169-8.334l.985-.316zm4.877 7.88a12.29 12.29 0 0 0 2.419 1.71l-.486.917a13.343 13.343 0 0 1-2.626-1.857l.693-.77zm2.419 1.71.003.003-.246.456.243-.458zm.003.003.178.095-.486.916c-.058-.03-.063-.035-.183-.1l.49-.91zm.178.095c.803.428 1.52.768 2.159 1.07l-.44.936a50.707 50.707 0 0 1-2.205-1.09l.486-.916zm2.159 1.07c2.843 1.343 4.397 2.08 3.633 5.132l-1.005-.25c.559-2.23-.722-2.838-3.068-3.946l.44-.936zm2.622 4.906.006-.024.503.125-.509-.101zm1.017.202c-.147.716-.42 1.253-.791 1.627l-.734-.729c.229-.23.405-.593.508-1.1l1.017.202zm-.791 1.627c-.669.669-1.602.796-2.69.496l.274-1c.723.2 1.31.148 1.682-.225l.734.729zm-2.69.496c-.971-.267-2.087-.886-3.253-1.754l.614-.835c1.07.796 2.071 1.358 2.913 1.59l-.275.999zm-3.253-1.754c-3.223-2.4-6.959-6.79-9.19-10.987l.916-.486c2.164 4.071 5.777 8.321 8.888 10.638l-.614.835zm-9.19-10.987-.005-.012.463-.23-.458.242zm-.005-.012c-.941-1.887-1.46-3.18-1.784-4.523l1.007-.242c.305 1.263.8 2.495 1.703 4.304l-.926.46zm-1.784-4.523c-.322-1.337-.453-2.704-.622-4.746l1.032-.08c.166 1.986.291 3.316.597 4.584l-1.007.242zm.408-4.843.002.016-.516.04.514-.056zm-1.027.114c-.054-.46-.187-.696-.353-.773l.432-.939c.486.226.845.724.948 1.598l-1.027.114zm-.353-.773h-.003l.219-.47-.216.47zm-.003 0c-.101-.047-.241-.048-.395-.016l-.21-1.011c.362-.077.723-.06 1.043.088l-.438.939zm-.395-.016a2.1 2.1 0 0 0-.632.273l-.539-.883c.309-.189.639-.333.961-.401l.21 1.011zm-.632.273-.003.002-.266-.444.27.442zm-.003.002c-.675.41-1.28 1.083-1.28 1.465h-1.037c0-.707.843-1.781 1.784-2.353l.533.888zm-1.28 1.465-.005.057-.513-.057h.518zm-.005.057c-.826 7.168 2.196 11.463 4.545 14.8l-.845.594c-2.449-3.478-5.597-7.954-4.727-15.508l1.027.114zm4.545 14.8c.46.655.9 1.28 1.261 1.846l-.875.555c-.378-.596-.795-1.187-1.23-1.807l.844-.594zm.395 2.413-.01-.012.439-.278-.43.29zm.857-.58c7.94 11.749 21.797 13.895 21.835 13.9l-.157 1.024c-.04-.004-14.34-2.22-22.535-14.344l.857-.58zm21.835 13.9.956.15-.653.712-.382-.35.079-.512zm.303.862-.014.016-.764-.7.014-.016.764.7zm-.014.016c-.547.598-.988 1.685-1.327 3.127l-1.007-.236c.38-1.615.9-2.86 1.57-3.592l.764.7zm-1.327 3.127c-.35 1.49-.592 3.363-.732 5.48l-1.037-.065c.141-2.154.393-4.082.762-5.65l1.007.235zm-.732 5.48h-.002l-.517-.032.519.033zm-.002 0c-.727 10.917 1.216 28.093 3.85 34.199l-.951.41c-2.683-6.22-4.667-23.632-3.932-34.674l1.033.066zm3.85 34.199.043.227-.519-.023.476-.204zm.043.227c-.001.053-.007.11-.008.165l-1.037-.046c.001-.054.006-.111.008-.164l1.037.045zm-.008.165-.518-.023.519.023zm0 0c-.129 2.563-.523 5.174-1.122 7.761l-1.007-.23c.581-2.512.964-5.06 1.092-7.578l1.037.048zm-1.122 7.761a56.436 56.436 0 0 1-2.351 7.591l-.967-.372a55.378 55.378 0 0 0 2.311-7.449l1.007.23zm-2.351 7.591c-4.91 12.7-13.902 23.143-19.39 23.143v-1.037c5.115 0 13.653-10.142 18.423-22.478l.967.372zm-19.39 23.143h-.677l.177-.652.5.134v.518zm-.5-.652c.838-3.102 2.348-8.725 3.457-15.043l1.02.175c-1.119 6.37-2.635 12.02-3.478 15.136l-.999-.268zm3.457-15.043c1.105-6.303 1.815-13.317 1.067-19.224l1.028-.13c.762 6.024.044 13.142-1.076 19.529l-1.019-.175zm1.132-19.544.963.19-.514.065-.449-.255zm.898.51c-2.572 4.516-4.179 8.577-5.708 12.445l-.964-.38c1.539-3.893 3.158-7.98 5.774-12.575l.898.51zm-5.708 12.445c-3.363 8.503-6.372 16.108-18.451 25.867l-.648-.805c11.862-9.584 14.824-17.07 18.135-25.441l.964.379zm-19.101 25.064.002-.002.324.403-.326-.401zm.653.801c-3.16 2.563-5.947 4.107-8.67 5.027l-.33-.979c2.609-.882 5.29-2.371 8.347-4.85l.653.802zm-8.67 5.027c-2.729.925-5.383 1.226-8.282 1.312l-.025-1.037c2.813-.082 5.373-.37 7.977-1.254l.33.98zm-8.282 1.312-.974.03.524-.825.438.276.012.52zm-.45-.795.143-.226.875.555-.143.225-.875-.554zm1.018.327v.002l-.438-.278.438.276zm-.875-.551a106.02 106.02 0 0 0 5.861-10.64l.937.446a107.176 107.176 0 0 1-5.923 10.745l-.875-.551zm5.861-10.64a125.855 125.855 0 0 0 4.553-10.746l.972.356a126.773 126.773 0 0 1-4.588 10.836l-.937-.446zm4.553-10.746c6.713-18.09 8.303-34.07 7.716-35.596l.967-.37c.615 1.604-.913 18-7.711 36.322l-.972-.356zm8.662-36.011.02.046-.483.184.463-.23zm-.925.46c-.136-.27.848.088.589.214l-.45-.931c.354-.172.614-.088.786.257l-.925.46zm.133-.716.005-.001.226.466-.23-.465zm.461.929c-.228.114-1.407 2.09-3.188 5.077l-.89-.53c1.874-3.145 3.115-5.225 3.617-5.476l.461.929zm-3.188 5.077c-4.132 6.93-11.435 19.18-19.424 27.622l-.754-.714c7.913-8.36 15.178-20.545 19.288-27.439l.89.531zm-20.178 26.91v-.002l.377.357-.377-.354zm.754.71c-12.255 12.971-21.32 12.12-26.96 11.59l.094-1.032c5.448.51 14.207 1.334 26.112-11.267l.754.708zm-26.96 11.59c-1.069-.1-2.014-.189-2.814-.162l-.028-1.038c.851-.027 1.829.064 2.936.168l-.094 1.032zm-2.814-.162-.983.034.531-.83.438.277.014.519zm-.452-.796c1.789-2.795 3.927-4.686 6.405-6.877l.684.774c-2.415 2.135-4.5 3.977-6.214 6.657l-.875-.554zm6.405-6.877c5.029-4.445 11.504-10.17 19.275-27.521l.943.42c-7.863 17.557-14.433 23.364-19.534 27.875l-.684-.774zm20.22-27.103-.002.002-.472-.21.473.208zm-.947-.417c5.624-12.745 8.26-21.7 9.143-25.858l1.012.21c-.894 4.204-3.55 13.246-9.209 26.065l-.946-.417zm9.143-25.858c.182-.86.291-1.508.333-1.932l1.027.101c-.045.467-.16 1.153-.348 2.04l-1.012-.209zm1.36-1.833v.002l-.514-.05.514.048zm-1.027-.096c.002-.036.82-.126.5-.099l-.08-1.032c.47-.04.69.377.607 1.227l-1.027-.096zm.5-.099c-.112.009.348-.19.277-.119l-.734-.734a.583.583 0 0 1 .377-.179l.08 1.032zm-.469-.837.012-.016.367.367-.379-.351zm.757.703c-6.374 6.842-6.62 6.984-13.418 10.885l-.514-.898c6.671-3.828 6.912-3.967 13.175-10.69l.757.703zm-13.418 10.885c-.585.335-1.216.697-1.995 1.147l-.519-.896c.67-.387 1.37-.788 2-1.15l.514.899zm-2.515.251h.001l.26.448-.261-.448zm.52.896c-15.29 8.938-22.945 1.63-22.967 1.61l.709-.754c.02.02 7.115 6.796 21.738-1.752l.52.896zm-22.967 1.61-.449-.42.494-.372.31.415-.355.377zm.045-.792.015-.01.62.829-.015.011-.62-.83zm.638.815-.003.004-.31-.415.313.411zm-.627-.822c1.901-1.456 3.915-3.135 5.967-4.956l.683.774c-2.08 1.847-4.113 3.542-6.023 5.004l-.627-.822zm5.967-4.956c2.06-1.83 4.167-3.81 6.248-5.867l.723.736a163.38 163.38 0 0 1-6.288 5.905l-.683-.774zm6.248-5.867c10.651-10.53 20.674-23.057 20.674-27.759h1.037c0 4.975-10.174 17.805-20.988 28.495l-.723-.736zm21.054-28.259.657-.182v.682h-.519l-.138-.5zm.276 1c-.021.005-8.012 2.388-13.011 1.353l.203-1.017c4.744.982 12.51-1.33 12.532-1.336l.276 1zm-13.011 1.353-.013-.002.114-.506-.101.508zm-.013-.002c-15.36-3.453-15.362-10.91-15.362-10.93h1.037c0 .02.001 6.647 14.553 9.918l-.228 1.012zm-15.362-10.93v-.369l.354-.12.164.49h-.518zm.354-.489c12.047-4.055 21.848-9.96 26.454-13.258l.602.842c-4.653 3.334-14.555 9.298-26.727 13.395l-.33-.979zm26.454-13.258c.962-.69 1.69-1.257 2.155-1.666l.68.777c-.5.44-1.258 1.033-2.233 1.731l-.602-.842zm2.155-1.666c.245-.214.723.116.59-.058l.817-.632c.245.318-.004.835-.726 1.467l-.681-.777zm1.365-.741.042.05-.41.317.368-.367zm-.734.733c-.057-.056.356.147.244.127l.183-1.02c.14.026.236.09.307.16l-.734.733zm.244.127-.028-.005.12-.505-.092.51zm-.028-.005c-16.868-4.028-22.569-12.763-24.44-18.55l.985-.316c1.794 5.553 7.303 13.943 23.693 17.856l-.238 1.01zm-24.44-18.55a18.377 18.377 0 0 1-.827-3.928l1.032-.094c.085.934.302 2.222.78 3.706l-.984.315zm-.827-3.928c-.095-1.04-.03-1.75.011-1.879l.985.324c-.022.069-.044.575.036 1.461l-1.032.094zm1.006-1.591-.01.036-.492-.162.502.126zm-1.004-.25a.533.533 0 0 1 .51-.41v1.038c-.198 0 .556-.629.494-.378l-1.004-.25zm.51-.41.138.02-.137.5v-.52zm.138.02c4.868 1.342 8.396 2.31 11.248 2.785l-.167 1.02c-2.94-.49-6.479-1.46-11.356-2.806l.275-1zm11.248 2.785c2.826.47 5.036.472 7.314-.097l.248 1.004c-2.425.606-4.759.607-7.729.113" style="fill:#cc2826;fill-opacity:1;fill-rule:nonzero;stroke:none" transform="translate(-533.582 -108.802)"/><path d="M783.513 500.561c-2.184-4.035-5.546-8.574-4.874-11.432-2.69.504-15.966 2.354-13.781-7.23 4.37-.336 9.748-2.185 10.084-7.06-2.521 2.017-15.293 8.07-15.798-3.867 5.714-1.009 17.142-4.372 15.462-13.787-4.37 5.045-13.613 5.55-14.957 6.557-4.37 3.363-4.706 9.247-4.203 13.114-7.226 0-8.066-2.858-10.252-10.76-4.033-.504-6.05 4.37-7.395 11.433-8.066-3.698-7.226-16.98-1.176-22.697 3.026-3.53 33.445-.504 36.807-23.201-4.034 3.193-7.563 2.354-9.412 2.522-2.185.168-10.253-5.548-10.253-5.548.673-1.513 1.681-2.859 2.186-4.54 1.008-2.522-.336 2.69 0 1.01 1.176-3.699 3.025-5.717 6.219-6.558 6.218-1.345 11.932-2.186 11.932-8.239 0-2.016 1.008-4.707 0-13.785-1.513 1.85-2.69 3.363-3.361 5.716-.505 2.186-2.353 9.247-8.068 7.23-1.513-.505-6.89-3.363-8.235-10.928-.673-3.362.84-7.734 2.016-9.752 3.195-5.043 7.227-5.211 8.572-13.786 0 0-.168-11.433-4.033-29.59-1.01-5.548-.504-9.751-1.176-16.98-.841-7.23-.337-13.114 2.353-16.476 2.016-2.522 6.218-1.176 7.394-1.513.504-2.522.84-5.548 1.009-6.221-4.874 3.194-10.756.168-8.908-.673 8.403-3.867 17.647-12.609 15.798-12.44-3.53 0-7.899 3.025-11.093 1.009.842-2.354 4.874-5.382 6.219-6.726 1.513-1.513 3.194-2.354 5.547-3.362 2.856-1.176-.505 1.344-.505-3.026v-3.363s4.136.379 7.28-1.95c.063 67.814.153 145.238.052 208.694-.262 9.007-.69 16.685-1.45 18.205zm1.382-242.986c-1.997-2.005-4.454-3.226-6.256-3.483-4.37-.84-6.387-6.725-6.554-6.894 1.345-2.689 5.546-5.043 9.075-5.043 0 0 1.32.285 3.723.59l.012 14.83" style="fill:#cc2826;fill-opacity:1;fill-rule:evenodd;stroke:none" transform="translate(-533.582 -108.802)"/><path d="m782.988 500.853-.025-.045 1.05-.585.025.046-1.05.584zm-.025-.045-.004-.008.528-.284-.524.292zm-.004-.008c-.467-.861-1.01-1.78-1.552-2.7l1.034-.611c.538.91 1.078 1.824 1.575 2.742l-1.057.57zm-1.552-2.7c-1.96-3.322-3.93-6.657-3.353-9.108l1.17.273c-.465 1.982 1.38 5.108 3.217 8.224l-1.034.612zm-2.878-9.562.906-.17-.21.897-.586-.136-.11-.591zm.22 1.182c-1.423.265-5.753.901-9.305.092l.263-1.177c3.347.763 7.467.156 8.822-.097l.22 1.182zm-9.305.092c-1.273-.29-2.458-.767-3.392-1.506l.749-.946c.781.617 1.8 1.023 2.906 1.275l-.263 1.177zm-3.392-1.506a5.158 5.158 0 0 1-1.927-3.195l1.182-.22a3.995 3.995 0 0 0 1.494 2.47l-.75.945zm-1.927-3.195c-.177-.945-.148-2.057.147-3.346l1.171.268c-.255 1.121-.285 2.067-.136 2.858l-1.182.22zm.147-3.346.097-.43.447-.035.042.6-.586-.135zm.544-.465.098-.008.084 1.2-.099.007-.083-1.2zm.187 1.191h-.005l-.042-.599.047.6zm-.094-1.199a19.413 19.413 0 0 0 1.82-.238l.212 1.187c-.642.115-1.298.199-1.938.25l-.094-1.199zm1.82-.238a17.15 17.15 0 0 0 1.827-.432l.34 1.158c-.636.19-1.296.344-1.955.461l-.213-1.187zm2.169.724-.003.002-.17-.579.173.577zm-.344-1.154c2.957-.884 5.572-2.663 5.788-5.823l1.2.076c-.261 3.793-3.258 5.89-6.644 6.901l-.344-1.154zm6.01-6.256 1.07-.856-.093 1.365-.6-.038-.376-.471zm.755.941c-.977.782-3.43 2.148-6.133 2.905l-.324-1.16c2.531-.707 4.806-1.968 5.703-2.686l.754.941zm-6.133 2.905c-1.78.498-3.691.74-5.394.397l.236-1.182c1.497.301 3.215.079 4.834-.374l.324 1.159zm-5.394.397c-1.774-.358-3.319-1.337-4.275-3.275l1.078-.532c.766 1.552 2.006 2.337 3.433 2.625l-.236 1.182zm-4.275-3.275c-.549-1.11-.9-2.54-.975-4.343l1.204-.043c.068 1.626.373 2.893.849 3.854l-1.078.532zm-.975-4.343-.023-.522.524-.093.101.594-.602.021zm.5-.615.073-.012.202 1.186-.072.013-.202-1.187zm.073-.012c2.806-.5 6.972-1.573 10.227-3.655l.645 1.017c-3.414 2.185-7.755 3.306-10.67 3.824l-.202-1.186zm10.227-3.655c3.146-2.01 5.434-4.995 4.684-9.354l1.186-.203c.853 4.96-1.703 8.324-5.225 10.574l-.645-1.017zm5.87-9.561v.005l-.593.1.593-.105zm-1.186.212-.013-.07 1.187-.213.012.07-1.186.213zm.126-.57.825-.953.223 1.24-.594.106-.454-.393zm.909.786-.066.076-.909-.786.066-.076.909.786zm-.066.076-.005.004-.45-.397.455.393zm-.005.004c-3.227 3.65-8.812 4.965-12.306 5.786l-.273-1.172c3.352-.786 8.71-2.047 11.68-5.408l.899.794zm-12.306 5.786c-1.36.319-2.383.56-2.676.78l-.719-.964c.495-.37 1.623-.636 3.122-.988l.273 1.172zm-3.402-.177.007-.007.36.482-.367-.475zm.733.951-.088.07-.754-.937.109-.084.733.951zm-.088.07-.005.005-.372-.473.377.468zm-.005.005a9.318 9.318 0 0 0-1.487 1.463l-.93-.756a10.576 10.576 0 0 1 1.673-1.653l.744.946zm-1.487 1.463a9.987 9.987 0 0 0-1.094 1.674l-1.067-.554c.339-.649.747-1.28 1.23-1.876l.931.756zm-1.094 1.674c-1.584 3.03-1.643 6.684-1.298 9.35l-1.194.152c-.37-2.847-.297-6.764 1.425-10.056l1.067.554zm-1.298 9.35.088.678h-.685v-.602l.597-.076zm-.597.678c-3.815 0-5.968-.781-7.482-2.64l.931-.757c1.256 1.543 3.141 2.193 6.551 2.193v1.204zm-7.482-2.64c-1.467-1.804-2.239-4.543-3.35-8.562l1.16-.319c1.073 3.878 1.817 6.521 3.121 8.124l-.93.756zm-2.7-9.318.403.05.108.387-.581.16.07-.597zm-.141 1.194c-1.735-.218-3.062.762-4.112 2.583l-1.045-.602c1.3-2.256 3.004-3.463 5.299-3.175l-.142 1.194zm-4.112 2.583c-1.14 1.976-1.96 4.898-2.62 8.362l-1.183-.22c.685-3.596 1.548-6.647 2.758-8.744l1.045.602zm-2.62 8.362-.145.757-.696-.32.25-.547.59.11zm-.841.437a9.706 9.706 0 0 1-3.026-2.165l.876-.825a8.494 8.494 0 0 0 2.648 1.897l-.498 1.093zm-3.026-2.165c-1.96-2.075-2.976-4.95-3.173-7.994l1.204-.076c.18 2.78 1.092 5.39 2.845 7.245l-.876.825zm-3.173-7.994c-.197-3.003.402-6.192 1.662-8.94l1.09.498c-1.175 2.562-1.733 5.546-1.548 8.366l-1.204.076zm1.662-8.94c.805-1.758 1.886-3.342 3.199-4.582l.822.875c-1.2 1.135-2.19 2.587-2.931 4.205l-1.09-.499zm4.07-3.754-.049.047-.411-.438.46.391zm-.92-.782.008-.009.919.782-.008.01-.918-.783zm.008-.009.008-.003.452.394-.46-.39zm.008-.003c.967-1.108 3.864-1.599 7.706-2.25l.192 1.187c-3.598.609-6.312 1.07-6.995 1.852l-.903-.79zm7.706-2.25c9.945-1.682 26.56-4.495 28.95-20.636l1.19.175c-2.519 17.006-19.678 19.912-29.948 21.648l-.192-1.186zm29.17-21.021.97.56-.595-.087-.374-.473zm.75.946c-3.41 2.7-6.458 2.658-8.522 2.63l.015-1.203c1.89.025 4.681.063 7.758-2.373l.748.946zm-8.522 2.63h-.002l.01-.601-.008.602zm-.002 0c-.465-.005-.88-.01-1.21.019l-.108-1.2c.394-.035.838-.03 1.336-.022l-.018 1.204zm-1.21.019h-.012l-.041-.6.054.6zm-.012 0c-2.387.183-10.622-5.643-10.644-5.658l.7-.98c.022.016 7.883 5.59 9.86 5.439l.084 1.199zm-10.644-5.658-.397-.286.2-.448.547.244-.35.49zm-.198-.734c.274-.613.585-1.178.897-1.74l1.05.584c-.304.55-.61 1.1-.851 1.644l-1.096-.488zm1.95-1.159-.003.003-.524-.292.527.29zm-1.055-.579c.48-.872.97-1.756 1.262-2.73l1.154.344c-.329 1.098-.85 2.038-1.36 2.965l-1.056-.579zm1.262-2.73.017-.05.56.222-.577-.172zm.017-.05c.378-.945.788-1.192 1.16-1.029l-.48 1.1c-.292-.127.483.264.44.372l-1.12-.442zm.702.082-.022-.01.24-.55-.218.56zm.437-1.12c.43.167.397.98.226 1.738l-1.177-.263c.057-.254.815-.238.514-.355l.437-1.12zm.226 1.738c-.177.79-.675 1.518-.968 1.464l.22-1.181c.254.046-.478-.323-.429-.546l1.177.263zm-.968 1.464-.055-.011.165-.58-.11.59zm-.055-.011c-.322-.093-.498-.413-.373-1.04l1.182.236c-.029.146-.785-.441-.48-.355l-.329 1.159zm-.373-1.04.017-.062.574.18-.59-.117zm.017-.062c.615-1.936 1.418-3.443 2.49-4.582l.874.825c-.94 1-1.655 2.356-2.216 4.118l-1.148-.361zm2.49-4.582c1.086-1.156 2.442-1.927 4.15-2.376l.306 1.162c-1.483.39-2.653 1.05-3.582 2.039l-.875-.825zm4.15-2.376.026-.007.127.588-.154-.58zm.026-.007 1.081-.23.246 1.176c-.285.06-.393.082-1.074.23l-.253-1.176zm1.081-.23c5.529-1.174 10.376-2.206 10.376-7.42h1.204c0 6.185-5.295 7.313-11.334 8.596l-.246-1.176zm10.376-7.42c0-.53.067-1.101.15-1.81l1.193.131c-.076.66-.139 1.194-.139 1.678H773.5zm.15-1.81c.232-2.008.601-5.188-.145-11.91l1.194-.131c.76 6.856.383 10.114.144 12.172l-1.194-.132zm-.014-12.357.905-1.105.158 1.42-.597.066-.466-.38zm.931.762c-.743.91-1.407 1.738-1.953 2.608l-1.017-.64c.587-.935 1.272-1.791 2.04-2.73l.93.762zm-1.953 2.608a11.013 11.013 0 0 0-1.295 2.892l-1.156-.33c.353-1.236.84-2.254 1.434-3.202l1.017.64zm-2.459 2.593.008-.03.578.164-.586-.134zm1.171.268c-.259 1.129-.871 3.523-2.171 5.4l-.987-.684c1.176-1.696 1.744-3.928 1.987-4.984l1.171.268zm-2.171 5.4c-1.38 1.987-3.49 3.388-6.68 2.262l.396-1.133c2.523.89 4.2-.23 5.297-1.813l.987.683zm-6.293 1.124.009.005-.198.567.189-.572zm-.377 1.143-.023-.007.377-1.144.023.008-.377 1.143zm-.023-.007-.003-.003.191-.569-.188.572zm-.003-.003a7.346 7.346 0 0 1-.93-.397l.536-1.078c.324.163.59.275.776.337L762.46 410zm-.93-.397c-.36-.18-.78-.419-1.236-.72l.662-1.003c.401.266.78.481 1.11.645l-.537 1.078zm-1.236-.72c-2.293-1.519-5.45-4.648-6.448-10.271l1.186-.202c.924 5.198 3.822 8.079 5.924 9.47l-.662 1.002zm-5.264-10.49.002.017-.593.1.591-.117zm-1.181.235-.008-.038 1.182-.235.007.038-1.181.235zm-.008-.038v-.002l.59-.115-.59.117zm0-.002a9.358 9.358 0 0 1-.166-1.567l1.204-.023c.012.465.059.924.144 1.36l-1.182.23zm1.038-1.592v.002l-.602.011.602-.013zm-1.204.027c-.014-.51.012-1.051.065-1.597l1.194.118a11.78 11.78 0 0 0-.055 1.452l-1.204.027zm.065-1.597c.268-2.72 1.321-5.473 2.196-6.97l1.04.607c-.813 1.392-1.793 3.95-2.042 6.481l-1.194-.118zm2.196-6.97.011-.017.508.32-.52-.303zm.011-.017c1.125-1.776 2.339-2.955 3.505-4.09l.838.86c-1.116 1.085-2.277 2.213-3.326 3.87l-1.017-.64zm3.505-4.09c2.138-2.078 4.125-4.012 4.98-9.469l1.19.185c-.918 5.852-3.044 7.92-5.332 10.143l-.838-.86zm6.177-9.376-.008.092-.594-.092h.602zm-1.205 0c0-.032-.168-11.373-4.018-29.467l1.176-.246c3.877 18.22 4.047 29.68 4.047 29.713h-1.205zm-4.018-29.467-.005-.017.593-.106-.588.123zm-.005-.017c-.587-3.231-.67-6.005-.76-9.165l1.204-.028c.09 3.105.17 5.829.742 8.98l-1.186.213zm-.76-9.165c-.066-2.304-.14-4.819-.423-7.867l1.2-.109c.285 3.09.36 5.627.427 7.948l-1.204.028zm.774-7.987.002.011-.6.055.598-.066zm-1.194.131c-.425-3.66-.51-6.988-.148-9.83l1.194.153c-.35 2.747-.266 5.979.148 9.546l-1.194.131zm-.148-9.83c.371-2.904 1.212-5.317 2.627-7.088l.941.754c-1.271 1.589-2.031 3.801-2.374 6.487l-1.194-.153zm2.627-7.088c1.638-2.05 4.392-1.86 6.29-1.73l-.077 1.2c-1.642-.113-4.024-.276-5.272 1.284l-.94-.754zm6.29-1.73c.643.045 1.177.082 1.414.014l.323 1.16c-.427.12-1.056.079-1.814.026l.077-1.2zm2.166.711-.072.361-.357.101-.162-.579.591.117zm-1.181-.235.023-.113 1.18.235-.022.113-1.181-.235zm1.204.119v.003l-.59-.118.59.115zm-1.181-.23c.284-1.454.512-3.022.684-4.219l1.189.17c-.179 1.232-.411 2.85-.692 4.279l-1.181-.23zm.684-4.219c.129-.904.233-1.609.308-1.916l1.167.286c-.062.25-.161.928-.286 1.8l-1.19-.17zm.563-2.276.912.646-.583-.143-.33-.503zm.658 1.006c-2.995 1.963-6.356 1.725-8.291.997l.422-1.126c1.678.63 4.599.834 7.21-.877l.659 1.006zm-8.291.997c-.525-.197-.961-.439-1.27-.686l.754-.935c.211.169.534.344.938.495l-.422 1.126zm-1.27-.686c-.407-.326-.631-.706-.626-1.083l1.204.015c0 .002.064.043.176.133l-.754.935zm-.626-1.083c.005-.404.23-.735.7-.95l.5 1.092s.004-.207.004-.127l-1.204-.015zm.7-.95c5.483-2.521 11.336-7.155 14.144-9.957l.847.853c-2.873 2.867-8.867 7.61-14.492 10.196l-.498-1.093zm14.144-9.957c.602-.6 1.059-1.112 1.332-1.489l.974.706c-.307.426-.808.988-1.459 1.636l-.847-.853zm1.332-1.489c.072-.1.578.204.392.06l.739-.946c.425.331.352.889-.157 1.592l-.974-.706zm.392.06-.008-.005.377-.468-.37.473zm-.008-.005c-.088-.071.304.09.235.096l-.094-1.2c.245-.02.447.034.613.168l-.754.936zm.235.096-.047.002v-.602l.047.6zm-.047.002h-.014v-1.204h.014v1.204zm-.014 0c-1.216.002-2.605.41-4 .817l-.334-1.158c1.474-.43 2.937-.86 4.334-.863v1.204zm-4 .817c-2.561.75-5.162 1.51-7.399.1l.64-1.018c1.774 1.12 4.118.436 6.425-.24l.334 1.158zm-7.399.1-.406-.256.16-.45.566.197-.32.508zm-.246-.707.007-.021 1.134.395-.008.021-1.133-.395zm.007-.021.003-.008.564.205-.567-.197zm.003-.008c.702-1.924 3.234-4.147 5.018-5.715l.79.904c-1.688 1.482-4.083 3.586-4.68 5.221l-1.128-.41zm5.81-4.811h-.003l-.395-.452.398.452zm-.795-.904c.538-.472 1.007-.884 1.334-1.21l.852.853c-.321.32-.82.758-1.391 1.26l-.795-.903zm1.334-1.21c.79-.791 1.632-1.41 2.584-1.965l.602 1.04a11.12 11.12 0 0 0-2.334 1.778l-.852-.853zm2.584-1.965c.941-.546 1.968-1.02 3.153-1.527l.47 1.111c-1.163.497-2.157.955-3.021 1.456l-.602-1.04zm3.153-1.527.008-.002.228.558-.236-.556zm.008-.002c.654-.268 1.042-.366 1.216-.389l.159 1.192c-.103.014-.37.086-.92.313l-.455-1.116zm1.216-.389c4.696-.637 4.647.677.122 1.232l-.142-1.195c4.276-.522 4.615.553.179 1.155l-.16-1.192zm.122 1.232a1.64 1.64 0 0 1-.908-.171l.542-1.073c.095.048.18.054.224.05l.142 1.194zm-.908-.171c-.611-.308-1.309-1.12-1.309-3.14h1.204c0 1.42.345 1.915.647 2.067l-.542 1.073zm-1.309-3.14v-3.363h1.204v3.363h-1.204zm0-3.363v-.67l.668.073-.066.597h-.602zm.668-.597c.008 0 3.896.356 6.856-1.839l.716.97c-3.323 2.463-7.694 2.063-7.704 2.063l.132-1.194zM784.469 258l-.06-.06.853-.852.06.06-.853.852zm.79-.912h.003l-.426.427.424-.427zm-.846.853a13.408 13.408 0 0 0-.826-.752l.771-.923c.304.253.607.529.902.822l-.847.853zm-.826-.752c-.287-.239-.574-.46-.858-.662l.69-.984c.32.227.635.47.94.723l-.772.923zm-.858-.662c-1.463-1.034-2.982-1.669-4.175-1.84l.17-1.191c1.365.194 3.076.902 4.695 2.047l-.69.984zm-4.175-1.84-.027-.005.112-.59-.085.595zm-.027-.005c-.064-.011-.138-.029-.22-.047l.27-1.171c.047.01.108.024.175.037l-.225 1.181zm-.22-.047c-3.956-.913-6.013-5.524-6.606-6.854l1.095-.489c.54 1.208 2.406 5.394 5.78 6.172l-.268 1.171zm-6.606-6.854c-.06-.135-.014-.13-.053-.171l.875-.825c.082.088.16.252.273.507l-1.095.489zm-.053-.171-.29-.305.188-.376.54.268-.438.413zm-.102-.68.008-.016 1.078.536-.008.016-1.078-.537zm.008-.016.003-.002.536.27-.539-.268zm.003-.002a6.79 6.79 0 0 1 .797-1.21l.93.756c-.26.32-.484.657-.655.995l-1.072-.541zm.797-1.21v-.004l.465.381-.465-.378zm0-.004a9.43 9.43 0 0 1 1.073-1.1l.79.903c-.342.3-.658.624-.932.96l-.931-.763zm1.073-1.1c2.02-1.767 5.058-3.046 7.733-3.046v1.204c-2.396 0-5.123 1.153-6.943 2.745l-.79-.903zm7.733-3.046.189.03-.189.572v-.602zm.189.03s1.254.266 3.61.566l-.152 1.194c-2.446-.311-3.833-.616-3.835-.616l.377-1.144zm4.216 240.787c-.13 4.493-.305 8.671-.54 11.936l-1.2-.08c.232-3.206.405-7.373.535-11.884l1.205.028zm-.54 11.936c-.24 3.312-.556 5.691-.973 6.523l-1.078-.536c.343-.686.622-2.91.851-6.068" style="fill:#cc2826;fill-opacity:1;fill-rule:nonzero;stroke:none" transform="translate(-533.582 -108.802)"/><path d="m778.975 248.208 2.185.168 1.85-.505c0 .673.168 1.01.503 1.513-.672.168-1.176.673-2.016.673-.672 0-1.513 0-2.017-.841-.168-.168-.505-.84-.505-1.008" style="fill:#fff;fill-opacity:1;fill-rule:evenodd;stroke:none" transform="translate(-533.582 -108.802)"/><path d="m778.975 248.208 2.185.168 1.85-.505c0 .673.168 1.01.503 1.513-.672.168-1.176.673-2.016.673-.672 0-1.513 0-2.017-.841-.168-.168-.505-.84-.505-1.008" style="fill:none;stroke:#fff;stroke-width:.96388537;stroke-linecap:butt;stroke-linejoin:miter;stroke-miterlimit:10;stroke-dasharray:none;stroke-opacity:1" transform="translate(-533.582 -108.802)"/><path d="M726.707 271.241c-.335 0 4.37 4.707 7.06-.168 2.352-4.203-3.026-6.053-2.858-6.221 4.705-1.176 4.034-6.556 1.008-8.07-2.69-1.345-7.227-.84-6.554 5.044-.168 0-3.53-3.867-6.218.337-2.857 4.202 3.361 6.892 3.361 6.892-2.857 17.484-1.176 29.253 4.201 38.837 7.06 12.609 27.563 18.661 32.1 20.006 0 0 .505-5.212.842-6.22-8.068-2.69-20.505-4.54-29.748-18.998-2.353-3.53-5.882-16.308-3.194-31.439" style="fill:#fff;fill-opacity:1;fill-rule:evenodd;stroke:none" transform="translate(-533.582 -108.802)"/><path d="M756.79 270.232c7.396.673 12.27-2.018 18.152-3.699 1.664-.463 6.076-.722 9.96-.75 0 .772 0 1.545.002 2.319-5.168 1.204-11.843 2.61-14.331 3.307-5.882 1.514-10.253 3.867-13.782-1.177" style="fill:#cc2826;fill-opacity:1;fill-rule:evenodd;stroke:none" transform="translate(-533.582 -108.802)"/><path d="M770.236 272.685c.488 0 1.115.074 1.936.169l-.162 1.47c-.76-.089-1.34-.157-1.774-.157v-1.482zm1.936.169c.905.106 2.074.243 3.654.335l-.086 1.483c-1.517-.089-2.764-.235-3.73-.348l.162-1.47zm3.654.335.009.003-.052.739.043-.742zm.009.003.052.001v1.482a2.1 2.1 0 0 1-.156-.006l.104-1.477zm.052.001h.006l-.006.741v-.741zm.006 0c.17.001.402-.029.673-.086l.301 1.447a4.73 4.73 0 0 1-.987.121l.013-1.482zm.673-.086h.002l.149.724-.151-.724zm.002 0c.298-.062.65-.16 1.036-.286l.453 1.407c-.43.139-.835.25-1.193.326l-.296-1.447zm1.036-.286c1.999-.645 4.839-1.996 6.884-3.397l.835 1.221c-2.151 1.475-5.15 2.901-7.266 3.583l-.453-1.407zm6.949-9.572a8.851 8.851 0 0 0-.266-.135l.63-1.338c.13.06.24.117.331.165l-.695 1.308zm-.266-.135c-2.216-1.057-5.362-1.053-7.235-1.051v-1.483c1.996-.002 5.345-.007 7.865 1.196l-.63 1.338zm-7.235-1.051h-.26v-1.483h.26v1.483zm-.26 0h-.008v-1.483h.007v1.483zm-.008 0h-.007l.007-.741v.74zm-.007 0c-.624-.005-1.332-.402-2.156-.865l.723-1.293c.645.363 1.2.674 1.446.675l-.013 1.483zm-2.156-.865c-1.36-.762-3.135-1.757-4.45-.792l-.876-1.194c2.085-1.53 4.331-.271 6.049.693l-.723 1.293zm-5.362-1.96.036-.026.437.597-.473-.57zm.948 1.141c-.077.065-.004-.003-.08.063l-.971-1.113c.135-.119.086-.078.103-.09l.948 1.14zm-.08.063-.007.008-.479-.564.486.556zm-.007.008c-.257.217-.517.455-.77.708l-1.047-1.047c.27-.27.56-.536.86-.79l.957 1.13zm-.77.708c-.252.253-.49.513-.7.768l-1.141-.938c.258-.314.526-.609.794-.877l1.047 1.047zm-.7.768v.003l-.57-.472.57.47zm0 .003c-1.082 1.309-1.811 2.871-1.707 4.561l-1.482.086c-.132-2.107.746-4.015 2.048-5.59l1.14.943zm-1.707 4.561-1.357.454.616-.41.741-.044zm-1.357.454-.007-.011 1.231-.822.008.01-1.232.823zm1.204-.86.02.027-.615.41.595-.437zm-1.191.875c-.014-.02-.3-.19-.668-.41l.759-1.276c.51.305.903.542 1.1.81l-1.191.876zm-.668-.41c-1.187-.711-3.077-1.845-3.636-3.665l1.412-.435c.39 1.27 1.984 2.225 2.983 2.824l-.76 1.275zm-2.231-4.132.007.032-.706.217.699-.249zm-1.397.499c-.47-1.303-.678-2.538-.678-3.698h1.482c0 .994.184 2.063.593 3.2l-1.397.498zm-.678-3.698c0-3.648 2.046-6.51 4.47-8.59l.96 1.128c-2.141 1.84-3.948 4.337-3.948 7.462h-1.482zm4.47-8.59c2.362-2.03 5.102-3.318 6.586-3.853l.498 1.396c-1.376.496-3.923 1.695-6.124 3.585l-.96-1.128zm7.086-2.46-.002.003-.25-.698.252.694zm-.503-1.39c.592-.213 1.045-.32 1.247-.32v1.482c-.064 0-.325.075-.744.227l-.503-1.388zm1.247-.32h.008v1.482h-.008v-1.483zm.008 0h.043l-.043.74v-.74zm.043 0c.845.05 2.458 2.714 3.685 4.743l-1.267.764c-1.052-1.74-2.434-4.021-2.504-4.025l.086-1.483zm3.685 4.743c.547.906 1.015 1.676 1.213 1.924l-1.159.925c-.243-.303-.739-1.121-1.322-2.085l1.268-.764zm.06 2.856-.006-.007.58-.462-.573.47zm1.146-.939c.685.837 1.551.783 2.424.729l.094 1.482c-1.254.079-2.496.156-3.663-1.272l1.145-.939zm2.424.729h.004l.043.741-.047-.741zm.004 0c.749-.046 1.508-.094 2.316.23l-.549 1.374c-.488-.195-1.088-.158-1.68-.122l-.087-1.482zm1.787 1.611-.02-.007.275-.687-.255.694zm.509-1.388c.58.212 1.11.517 1.592.891l-.903 1.17a4.45 4.45 0 0 0-1.198-.673l.509-1.388zm1.592.891c.477.368.906.808 1.292 1.294l-1.159.921a6.15 6.15 0 0 0-1.036-1.046l.903-1.169zm1.117 20.437c-.014.009.04-.02-.086.049l-.7-1.303c.092-.05-.007.002.01-.009l.776 1.263zm-.825-1.234.038-.02.351.652-.389-.632zm.777 1.263c-.527.324-1.1.624-1.69.894l-.616-1.343a14.079 14.079 0 0 0 1.53-.814l.776 1.263zm-1.69.894-.005.003-.303-.674.307.671zm-.005.003c-.585.265-1.179.5-1.764.7l-.481-1.401c.56-.192 1.112-.409 1.638-.648l.607 1.349zm-1.764.7h-.003l-.238-.7.24.7zm-.003 0c-3.032 1.037-6.154 1.346-7.688 1.346v-1.482c1.437 0 4.363-.291 7.213-1.265l.475 1.401zm-7.688 1.346c-1.455 0-2.816-.363-4.082-.928l.602-1.348c1.084.483 2.245.794 3.48.794v1.482zm-4.082-.928c-1.24-.553-2.378-1.297-3.42-2.077l.886-1.187c.974.73 2.025 1.42 3.136 1.916l-.602 1.348zm-3.42-2.077-.791-.593.792-.594.442.594-.442.593zm0-1.187c.006-.003 2.054-1.695 3.723-1.487l-.174 1.47c-1.015-.125-2.659 1.202-2.663 1.204M735.95 431.505c-3.66 0-4.947-4.943-5.913-8.647l1.385-.356c.844 3.244 1.973 7.574 4.529 7.574v1.43zm-5.913-8.647a56.543 56.543 0 0 0-.483-1.783l1.366-.408c.176.589.336 1.195.502 1.835l-1.385.356zm.84-2.306.043.115-.683.204.64-.319zm-1.278.638c-.026-.052.072.114.056.094l1.144-.856c.023.03.047.062.077.124l-1.277.638zm.056.094-.002-.007.574-.421-.572.428zm-.002-.007c-.023-.031-1.255-.417-2.438-.785l.426-1.361c1.401.436 2.86.892 3.16 1.304l-1.148.842zm-2.438-.785c-.743-.23-1.472-.46-1.932-.631l.495-1.341c.488.182 1.17.395 1.863.61l-.426 1.362zm-1.462-1.98.025.008-.247.67.222-.678zm-.445 1.356-.045-.015.444-1.356.046.015-.445 1.356zm-.045-.015a25.438 25.438 0 0 0-.88-.272l.396-1.374c.301.087.617.187.928.29l-.444 1.356zm-.88-.272h-.004l.202-.687-.199.687zm-.004 0c-.37-.11-.684-.196-.971-.273l.37-1.38c.389.105.74.202 1.004.28l-.403 1.373zm-.606-1.652h.004l-.184.69.18-.69zm-.361 1.379a58.95 58.95 0 0 0-5.051-1.096l.223-1.406c1.464.242 3.444.661 5.19 1.123l-.362 1.379zm-5.051-1.096-.04-.005.151-.698-.111.703zm-.04-.005a.457.457 0 0 0-.092-.009v-1.429c.138 0 .272.015.394.042l-.301 1.396zm-.092-.009c-.626 0-1.709.608-2.684 1.365l-.875-1.128c1.19-.926 2.603-1.666 3.56-1.666v1.43zm-2.684 1.365h-.003l-.435-.564.438.564zm-.003 0c-.967.751-1.784 1.608-1.897 2.12l-1.394-.307c.186-.84 1.222-2.012 2.421-2.941l.87 1.128zm-3.29 1.82v-.007l.696.153-.697-.145zm1.393.291c-.001.01-.004.024-.004.037h-1.429c0-.1.014-.211.04-.327l1.393.29zm-.004.037c0 .448.187.716.463.865l-.675 1.255c-.729-.395-1.217-1.056-1.217-2.12h1.43zm.463.865c.38.205.94.27 1.51.27v1.43c-.77 0-1.558-.106-2.185-.445l.675-1.255zm1.51.27c.463 0 .877-.267 1.23-.494l.77 1.2c-.518.332-1.123.723-2 .723v-1.43zm1.23-.494c.423-.273.796-.515 1.292-.515v1.43c-.083 0-.29.134-.523.284l-.769-1.199zm1.292-.515c.415 0 .832.093 1.245.185l-.306 1.397c-.34-.076-.682-.152-.94-.152v-1.43zm1.245.185c.341.075.684.152.94.152v1.43c-.414 0-.83-.094-1.246-.185l.306-1.397zm.94.152h.016v1.43h-.015v-1.43zm.018 1.43h-.002v-.715l.002.714zm-.005-1.43c.32-.001 1.008-.085 1.71-.164l.157 1.416c-.755.086-1.494.175-1.862.177l-.005-1.429zm1.71-.164c.76-.086 1.537-.173 1.975-.173v1.43c-.396 0-1.116.08-1.818.16l-.157-1.417zm1.975-.173c1.433 0 1.403.71 1.365 1.681l-1.43-.05c.004-.115.122-.201.065-.201v-1.43zm1.365 1.681c-.015.384-.036.871.316 1.223l-1.01 1.004c-.795-.797-.762-1.623-.735-2.277l1.429.05zm-.694 2.23v-.003l.505-.502-.505.504zm1.01-1.01c.094.094.409.08.713.066l.061 1.43c-.614.027-1.242.055-1.784-.487l1.01-1.009zm.713.066c.723-.032 1.43-.065 1.917.745l-1.227.73c-.043-.071-.334-.059-.629-.046l-.06-1.43zm1.917.745.025.047-.639.318.614-.365zm.025.047c.27.541.498 1.043.639 1.56l-1.379.375c-.11-.406-.306-.832-.538-1.298l1.278-.637zm.639 1.56c.15.554.2 1.115.097 1.731l-1.406-.228a2.6 2.6 0 0 0-.07-1.128l1.379-.374zm-1.32 1.617.01-.114.704.114h-.714zm1.429 0c0 1.003.452 1.34.784 1.592l-.852 1.143c-.579-.434-1.361-1.021-1.361-2.735h1.429zm.784 1.592c.57.427.994.747.692 1.658l-1.356-.448c.019-.06-.092.005-.188-.067l.852-1.143zm-.69 1.32.026-.11.678.224-.703-.114zm1.407.228c-.148.89-.941 1.053-1.913.89l.227-1.406c.179.029.25.464.28.288l1.406.228zm-1.689-.516h.003l-.114.703.111-.703zm-.222 1.406c-.822-.135-1.778-.494-2.322-.695l.495-1.341c.51.188 1.402.523 2.05.63l-.223 1.406zm-2.322-.695-.004-.004.251-.667-.247.67zm-.004-.004c-.15-.056-.081-.095-.163-.095v-1.43c.147 0 .364.078.666.191l-.503 1.334zm-.163-.095-.162-.02.162-.695v.715zm-.162-.02c-2.763-.65-4.367-1.298-5.74-1.854l.536-1.323c1.33.538 2.884 1.167 5.528 1.788l-.324 1.389zm-5.207-3.177h.003l-.269.662.266-.662zm-.531 1.323c-1.46-.59-2.658-1.073-4.77-1.326l.162-1.417c2.307.277 3.585.792 5.139 1.42l-.531 1.323zm-4.645-2.747.037.004-.081.708.044-.712zm-.088 1.424-.09-.002.039-1.43c.024 0 .051.003.139.008l-.088 1.424zm-.056-1.431h.005l-.019.714.014-.714zm-.028 1.429c-1.491-.037-3.544 1.41-5.127 2.525l-.82-1.167c1.752-1.234 4.026-2.835 5.975-2.787l-.028 1.429zm-5.127 2.525c-.793.559-1.482 1.045-2.018 1.282l-.579-1.3c.4-.177 1.04-.629 1.777-1.149l.82 1.167zm-2.018 1.282-.023.012-.266-.662.29.65zm-.023.012-.038.015-.532-1.323.038-.016.532 1.324zm-.038.015-.01.005-.256-.667.266.662zm-.01.005c-.603.234-1.268.35-1.922.464l-.24-1.406c.578-.1 1.167-.204 1.65-.391l.513 1.333zm-1.922.464c-1.071.188-2.109.371-2.32 1.076l-1.366-.408c.464-1.55 1.931-1.81 3.445-2.074l.241 1.406zm-3.598 1.268-.185-.277.097-.323.683.204-.595.396zm1.19-.792c.002.004 1.262 1.371.74 2.68l-1.324-.532c.149-.37-.604-1.355-.606-1.356l1.19-.792zm-.61 2.219.026-.071.662.266-.687-.195zm1.375.39-.008.026-1.374-.39.008-.026 1.374.39zm-.008.026-.006.02-.68-.215.686.195zm-.006.02c-.21.661-.794 1.138-1.437 1.66l-.898-1.105c.467-.38.891-.726.974-.985l1.361.43zm-1.437 1.66c-.722.59-1.547 1.26-1.547 2.134h-1.43c0-1.545 1.107-2.45 2.079-3.239l.898 1.106zm-1.547 2.134v.02h-1.43v-.02h1.43zm-1.43.029v-.01h.715l-.714.01zm1.43-.018c.004.337.292.598.654.78l-.635 1.277c-.802-.403-1.436-1.056-1.448-2.04l1.429-.017zm.654.78c.472.233 1.048.34 1.463.343l-.01 1.43a5.12 5.12 0 0 1-2.088-.496l.635-1.278zm1.459 1.773h-.006l.006-.715v.715zm0-1.43h.03v1.43h-.03v-1.43zm.03 0c1.89 0 2.503-1.44 3.096-2.838l1.319.559c-.776 1.825-1.576 3.709-4.415 3.709v-1.43zm4.415-2.283v.004l-.66-.28.66.276zm-1.319-.552c.25-.588.5-1.176.839-1.708l1.204.764c-.268.422-.497.957-.724 1.496l-1.319-.552zm2.047-.95-.004.006-.602-.382.606.376zm-1.212-.753c.557-.892 1.057-.922 1.901-.97l.079 1.43c-.38.02-.608.035-.768.293l-1.212-.753zm1.901-.97h.003l.037.715-.04-.714zm.003 0c.744-.038 1.896-.105 4.04-1.445l.754 1.211c-2.46 1.54-3.835 1.616-4.72 1.664l-.074-1.43zm4.81-.245-.016.011-.377-.606.393.595zm-.786-1.189c.833-.554 1.23.08 1.737.88l-1.205.758c-.068-.109.635-.702.254-.449l-.786-1.189zm1.737.88c.271.432.618.98.94 1.026l-.2 1.412c-.972-.138-1.516-1-1.945-1.68l1.205-.759zm.771 2.44-.03-.002.1-.706-.07.709zm.14-1.416c.76.076 1.446-.62 2.003-1.189l1.014 1c-.771.786-1.717 1.748-3.157 1.606l.14-1.417zm2.003-1.189c.405-.412.767-.78 1.19-.95l.532 1.323c-.152.06-.414.328-.708.626l-1.014-.999zm1.19-.95.45-.028-.184.69-.266-.662zm.45-.028 5.042 1.346-.369 1.379-5.042-1.346.37-1.379zm4.744 2.739-.07-.014.184-.69-.114.704zm.228-1.407c.005 0 2.585.321 4.536.16l.111 1.424c-2.078.173-4.869-.177-4.875-.177l.228-1.407zm4.536.16.055-.003v.715l-.055-.712zm.055-.003c2.398 0-.495 2.893-.503 2.9l-1.01-1.009s2.565-.462 1.513-.462v-1.43zm-1.602 2.002.09-.11.504.504-.594-.394zm1.189.787c-.364.548-.81 1.083-1.265 1.581l-1.055-.966c.425-.466.827-.945 1.13-1.402l1.19.787zm-2.32.618v-.003l.528.483-.528-.48zm1.055.96c-.453.5-.922.967-1.346 1.39l-1.01-1.009c.415-.415.874-.874 1.301-1.341l1.055.96zm-2.408.44.053-.059.504.505-.557-.446zm1.115.893c-.993 1.242-1.808 1.793-2.742 2.425l-.797-1.184c.833-.563 1.562-1.056 2.424-2.134l1.115.893zm-2.742 2.425c-.382.258-.79.535-1.244.888l-.875-1.129c.48-.373.915-.667 1.322-.943l.797 1.184zm-2.144-.22.025-.02.438.564-.463-.544zm.925 1.087-.053.046-.926-1.088.054-.045.925 1.087zm-.053.046h-.002l-.46-.544.462.544zm-.002 0c-.836.706-1.788 1.293-2.708 1.86l-.749-1.217c.885-.546 1.8-1.11 2.536-1.73l.921 1.087zm-2.708 1.86c-1.652 1.019-3.206 1.976-3.38 3.198l-1.412-.2c.27-1.888 2.1-3.016 4.043-4.215l.749 1.216zm-3.38 3.198-.009.053-.697-.153.706.1zm-.009.053c-.091.415.199.704.498 1.002l-1.004 1.01c-.586-.582-1.147-1.145-.888-2.318l1.394.306zm.498 1.002c.506.503 1.033 1.029 1.033 2.04h-1.43c0-.426-.31-.734-.607-1.03l1.004-1.01zm1.033 2.04c0 1.052-.356 1.83-.718 2.622l-1.295-.592c.295-.644.583-1.277.583-2.03h1.43zm-.718 2.622c-.31.678-.627 1.372-.627 2.253h-1.43c0-1.18.385-2.023.762-2.845l1.295.592zm-.627 2.253v.023h-1.43v-.023h1.43zm-1.43.048v-.025h.715l-.715.024zm1.43-.05c.002.079-.027-.122-.02-.12l-.591 1.295c-.457-.207-.796-.565-.819-1.125l1.43-.05zm-.609 1.178-.002-.003.296-.647-.294.65zm.587-1.3c.12.053.293.08.45.082l-.027 1.43a2.677 2.677 0 0 1-1.01-.212l.587-1.3zm.437 1.511h-.014l.014-.714v.714zm0-1.43h.047v1.43h-.047v-1.43zm.047 0c1.949 0 2.423-2.036 2.858-3.906l1.39.323c-.559 2.401-1.167 5.013-4.248 5.013v-1.43zm4.247-3.585v.002l-.694-.162.694.16zm-1.389-.32c.105-.456.21-.905.32-1.29l1.374.389c-.116.406-.211.81-.305 1.22l-1.389-.318zm1.708-.956-.014.055-.687-.195.7.14zm-1.402-.279.008-.038 1.402.279-.008.038-1.402-.279zm1.41.233v.008l-.701-.14.7.132zm-1.402-.263c.028-.153.05-.319.075-.496l1.411.19c-.027.212-.055.412-.084.569l-1.402-.263zm.075-.496c.14-1.041.33-2.426 1.477-3l.635 1.278c-.473.237-.604 1.195-.7 1.912l-1.412-.19zm1.477-3 .052-.022.266.661-.318-.638zm.052-.022.025-.01.532 1.323-.026.01-.53-1.323zm.025-.01c.807-.325 1.636-.784 2.42-1.217l.685 1.25c-.819.453-1.685.933-2.573 1.29l-.532-1.323zm2.42-1.217c.81-.448 1.58-.874 2.278-1.136l.496 1.34c-.62.234-1.337.63-2.089 1.046l-.685-1.25zm2.797.196-.023.009-.248-.67.27.661zm-.542-1.323c1.508-.621 1.783-1.408 2.026-2.112l1.35.464c-.343.994-.728 2.103-2.834 2.971l-.542-1.323zm2.026-2.112.002-.002.673.234-.675-.232zm.002-.002c.205-.588.397-1.14.974-1.635l.926 1.087c-.286.245-.416.62-.554 1.016l-1.346-.468zm1.942-.587-.042.04-.463-.544.505.504zm-1.01-1.009.02-.02 1.009 1.01-.02.02-1.009-1.01zm.02-.02.01-.008.494.514-.505-.505zm.01-.008c.63-.608 1.75-.955 2.867-1.298l.418 1.361c-.953.293-1.908.588-2.298.964l-.986-1.027zm2.867-1.298c.664-.204 1.333-.41 1.828-.658l.635 1.278c-.58.29-1.314.517-2.045.741l-.418-1.36zm1.828-.658c.338-.168.534-.676.72-1.162l1.333.508c-.284.741-.582 1.513-1.418 1.932l-.635-1.278zm.72-1.162c.196-.51.387-1.007.774-1.394l1.01 1.01c-.174.172-.312.53-.451.892l-1.333-.508zm.774-1.394c.564-.564 1.99-.827 3.5-.943l.101 1.425c-1.218.094-2.317.253-2.592.527l-1.01-1.01zm3.5-.943c1.398-.106 2.88-.107 3.727-.107v1.43c-.834 0-2.295 0-3.626.102l-.101-1.425zm3.727-.107c2.084 0 2.64.556 3.193 1.11l-1.009 1.004c-.34-.342-.684-.685-2.184-.685v-1.43zm2.184 2.116v-.002l.505-.502-.505.504zm1.01-1.009c.173.173.347.348.614.461l-.559 1.319c-.516-.222-.792-.497-1.065-.77l1.01-1.01zm.14 1.807-.085-.027.28-.66-.195.687zm.39-1.373c.351.1.808-.047 1.26-.193l.434 1.357c-.66.212-1.321.427-2.084.21l.39-1.374zm1.697 1.164h-.003l-.217-.679.22.679zm-.44-1.357c.746-.242 1.498-.483 2.359-.113l-.564 1.313c-.373-.161-.867-.002-1.355.157l-.44-1.357zm1.85 1.219-.055-.02.282-.656-.226.676zm.453-1.352c.642.214 1.07.553 1.523.911l-.888 1.123c-.36-.284-.7-.553-1.087-.682l.452-1.352zm1.523.911c.354.28.734.58 1.22.787l-.56 1.318c-.663-.283-1.12-.644-1.548-.982l.888-1.123zm.94 2.161-.28-.056.28-.659v.715zm0-1.43h2.858v1.43h-2.858v-1.43zm3.175 1.354-.317.076v-.715l.317.64zm-.635-1.277.016-.008.635 1.278-.016.007-.635-1.277zm.016-.008.027-.012.29.65-.317-.638zm.027-.012c.232-.102.475-.127.725-.149l.129 1.425c-.14.01-.275.025-.275.025l-.579-1.3zm.725-.149c.083-.007.18.622.18.304h1.43c0 .98-.779 1.056-1.481 1.12l-.13-1.424zm.18.304v-.026h1.43v.026h-1.43zm1.43-.028v.002h-.716l.715-.002zm-1.43.005a3.729 3.729 0 0 0-.16-1.094l1.36-.425c.143.46.226.969.23 1.514l-1.43.005zm1.2-1.522v.003l-.68.212.68-.215zm-1.36.43a3.503 3.503 0 0 0-.143-.375l1.296-.592c.08.178.151.36.207.537l-1.36.43zm1.153-.97v.003l-.648.296.648-.299zm-1.296.597c-.268-.583-.69-1.005-1.15-1.237l.635-1.278c.737.37 1.4 1.026 1.81 1.918l-1.295.597zm-.629-2.56.114.045-.317.64.203-.685zm-.407 1.369c-1.187-.357-1.783-1.322-2.297-2.156l1.217-.749c.38.62.825 1.337 1.487 1.536l-.407 1.369zm-2.297-2.156c-.272-.441-.513-.83-.637-.851l.227-1.407c.776.13 1.174.774 1.627 1.51l-1.217.748zm-.607-2.263.197.005-.114.703-.083-.708zm.167 1.417-2.69.337-.166-1.417 2.689-.337.167 1.417zm-2.69.337h-.013l-.07-.71.084.71zm-.013 0c-.888.087-1.537.133-2.152.153l-.038-1.43c.643-.02 1.263-.062 2.05-.14l.14 1.417zm-2.152.153c-.629.02-1.27.021-2.12.021v-1.43c.83 0 1.453 0 2.082-.02l.038 1.429zm-2.12.021c-1.584 0-1.877-.33-2.335-.85l1.073-.944c.196.223.32.365 1.262.365v1.429zm-1.271-1.803.009.01-.537.471.528-.48zm-1.055.962c-.06-.065-.128-.143-.195-.21l1.01-1.01c.1.1.17.182.24.258l-1.055.962zm-.195-.21-.048-.056.553-.449-.505.505zm-.048-.056a2.346 2.346 0 0 1-.101-.133l1.189-.792c.012.02.018.027.018.027l-1.106.898zm1.085-.925h.003l-.594.397.591-.397zm-1.184.792c-.471-.706-.268-1.487.19-2.19l1.194.776c-.17.26-.277.506-.2.622l-1.184.792zm.19-2.19v-.003l.597.391-.597-.389zm0-.003c.363-.556.892-1.066 1.288-1.395l.916 1.1c-.323.268-.744.67-1.01 1.076l-1.194-.78zm2.204-.298v.003l-.458-.55.458.547zm-.916-1.093c.192-.161.358-.285.459-.352l.792 1.189a4.16 4.16 0 0 0-.335.256l-.916-1.093zm1.343.761-.092.076-.396-.595.488.519zm-.976-1.037.021-.02.976 1.037-.021.02-.976-1.037zm.021-.02.003-.004.485.522-.488-.519zm.003-.004c.261-.243.898-.935 1.795-1.942l1.065.949c-.928 1.04-1.596 1.764-1.889 2.037l-.971-1.044zm1.795-1.942a411.683 411.683 0 0 0 3.406-3.891l1.078.93a431.976 431.976 0 0 1-3.42 3.91l-1.064-.949zm3.406-3.891c6.725-7.772 17.405-20.36 17.405-20.693h1.429c0 .633-10.895 13.695-17.756 21.624l-1.078-.931zm17.405-20.693v-.008h1.429v.008H767zm1.429-.01v.002h-.715l.715-.002zm-1.43.005c-.003-.87-1.307-1.924-2.846-2.777l.693-1.244c1.937 1.072 3.575 2.54 3.583 4.016l-1.43.005zm-2.846-2.777c-1.638-.91-3.505-1.543-4.495-1.547l.005-1.43c1.196.006 3.35.715 5.183 1.733l-.693 1.244zm-4.493-2.976h.003l-.003.714v-.714zm0 1.43h-.012v-1.43h.012v1.43zm-.012 0h-.008v-1.43h.008v1.43zm-.024-1.43h.016v.714l-.016-.714zm.033 1.43c-.801.02-5.84 7.128-9.154 11.8l-1.16-.827c3.475-4.902 8.764-12.36 10.28-12.403l.034 1.43zm-9.154 11.8c-1.1 1.552-2.019 2.848-2.558 3.553l-1.133-.865c.525-.688 1.437-1.975 2.53-3.515l1.161.827zm-3.719 2.724.028-.036.567.433-.595-.397zm1.19.793a.72.72 0 0 1-.1.118l-1.009-1.01c.018-.017-.115.151-.08.1l1.189.792zm-1.16-.833.051-.058.505.505-.555-.447zm1.111.893c-1.015 1.259-2.485 3.856-4.05 6.617l-1.24-.703c1.594-2.813 3.092-5.459 4.18-6.807l1.11.893zm-4.05 6.617c-2.81 4.964-5.92 10.453-7.925 10.453v-1.429c1.178 0 4.07-5.108 6.686-9.727" style="fill:#cc2826;fill-opacity:1;fill-rule:nonzero;stroke:none" transform="translate(-533.582 -108.802)"/><path d="M762.17 423.057c2.52.168 7.73 1.176 12.94-3.195 2.353-1.85 4.537-5.548 5.21-6.052 0 .169-.84 5.883-1.008 7.06-.337 2.187-1.345 6.222-2.353 6.222-.673 0-1.512.672-2.185.672 1.01-1.345 1.344-2.186 1.849-3.867.671-1.681 1.176-4.707 1.176-4.707-.505 1.176-4.202 4.707-8.067 5.885-2.689.671-7.227-.169-7.227-.169-.84.504-1.68 1.85-2.353 1.681-.672-.168 1.176-3.027 2.018-3.53M782.673 352.949c1.441 0 2.043-1.292 2.306-2.84-.004-3.982-.005-7.962-.009-11.932-.48.095-1.12.248-1.96.482-5.043-3.867-4.371-17.654-5.043-17.99-.84 5.716-1.849 12.442-2.184 16.309 0 1.176-3.698-12.106-4.034-18.158-1.176 4.034-1.176 6.22-1.85 9.078-1.511.505-1.68-3.194-2.016-9.582-3.697 5.548-2.857 23.032 1.345 21.52 1.513-1.177 1.345-.337 2.185-4.708.672 5.549 1.008 14.29 4.202 14.29 1.68 0 1.344-5.548 2.352-8.238.672 4.371 1.345 11.6 4.706 11.769M783.513 303.353c-.335.335-.335 8.574-3.193 7.901-.84-.168-1.008-5.885-1.513-6.893-.336 1.681-1.848 4.372-2.857 4.203-.503 0-.84-3.866-1.344-5.379-.504 1.85-1.344 5.211-.336 6.724 2.353 3.53 3.53 0 3.53.505 0 1.681-1.009 5.38 2.52 6.556 1.177.337 4.537-1.345 4.202-4.202 0-.505-.673-9.415-1.01-9.415M784.69 359.338c0 1.345.167 13.617-3.698 10.928-.672-.505-2.017-9.415-2.688-13.45-1.01 1.68-.337 10.927-2.52 12.272-.674.337-2.69-5.211-3.195-6.724-.337 1.681 1.008 7.902 2.185 9.415 2.185 3.53 3.53-6.556 3.53-6.053 0 1.681.503 6.726 2.184 7.902 1.009.673 4.538-1.176 4.201-4.035 0-.672.505-10.087 0-10.255M785.002 385.229c-.553 1.057-1.349 1.486-2.497.672-.672-.504-1.513-5.044-3.025-9.079-.336 2.186.167 6.557-2.186 7.902-.503.337-2.52-5.211-3.024-6.724-.337 1.85 1.008 7.9 2.016 9.583 2.353 3.362 3.866-4.204 3.866-3.867 0 1.85.168 4.539 2.016 5.548.546.362 1.825-.011 2.835-.88l-.001-3.155M712.59 286.204c-4.37 0-9.916 2.353-9.411 4.875.335 1.01 0 2.69 3.864 3.194-3.192 1.85-4.369 2.523-4.032 5.213.168 2.69 5.714 5.38 8.235 5.716-3.53.84-6.555 4.034-4.203 6.557 1.345 1.512 3.026 2.69 7.732 2.354-3.53 2.52-3.866 6.22-2.353 8.069 1.85 1.345 4.706 1.85 8.403-.336-2.69 5.38-3.866 8.238-.672 11.937 2.017 1.68 7.395-.169 10.756-3.7-2.857 9.416-1.681 12.106-.84 12.778 2.353 1.01 4.874-1.513 7.395-5.38-1.008 5.38-1.513 16.309 2.185 16.644 4.873.505 6.721-7.06 8.234-13.113-.672 7.565 3.026 14.963 7.06 16.477 4.201-.337 8.066-11.433 6.217-21.016-.84 7.566-1.848 17.485-6.553 17.82-3.866-.84-5.043-14.794-5.882-21.182-1.682 4.875-4.54 18.157-8.237 17.484-4.032-.84-1.344-12.61-.671-19.334-2.521 3.867-5.379 8.406-7.563 8.406-1.176-.336-.84-8.07 2.184-14.458-3.36 3.53-10.756 7.06-12.94 5.548-2.017-4.035-.673-5.548 2.353-11.77-3.698 2.018-5.882 2.018-8.571 1.178-1.345-1.849 0-5.38 4.873-8.911-4.538 1.85-10.084 1.01-10.588-1.345-1.008-3.362 5.378-5.043 6.386-5.211-2.353-.337-10.084-3.363-9.748-6.053.169-2.857 5.379-3.53 7.059-4.54-2.016 0-7.059-1.681-7.227-3.53.841-1.85 3.026-2.858 6.555-4.37" style="fill:#fff;fill-opacity:1;fill-rule:evenodd;stroke:none" transform="translate(-533.582 -108.802)"/><path d="M697.26 437.585c-.203-2.046.54-2.639 2.219-3.943l.876 1.129c-1.249.97-1.805 1.41-1.678 2.675l-1.417.139zm2.219-3.943.068-.053.876 1.128-.068.054-.876-1.13zm.068-.053.042-.03.396.594-.438-.564zm.042-.03c.002-.002 1.481-.924 2.442-1.116l.278 1.402c-.716.142-1.925.901-1.928.903l-.792-1.19zm2.442-1.116.138-.014v.715l-.138-.701zm.138-.014h1.345v1.43h-1.345v-1.43zm1.345 0h.295l.21.21-.505.505v-.715zm.505.21c.002.002 1.051.846 1.051 2.69h-1.43c0-1.18-.63-1.68-.63-1.68l1.01-1.01zm1.051 2.69c0 1.442-3.377 3.306-3.386 3.31l-.709-1.239c.008-.004 2.666-1.496 2.666-2.07h1.429zm-3.386 3.31-1.069.612v-1.23h.715l.354.619zm-1.069-.619c0-.134-.015-.443-.162-.54l.787-1.19c.734.488.804 1.36.804 1.73h-1.429zm-.162-.54-.002-.003.395-.592-.393.595zm-.002-.003c-.245-.163-.83-.095-2.125.656l-.714-1.235c1.894-1.097 2.993-1.03 3.63-.605M711.417 457.266c-.276-.74-.464-1.491-.486-2.27l1.429-.033c.016.603.17 1.204.395 1.807l-1.338.496zm-.486-2.27a5.577 5.577 0 0 1 .502-2.469l1.305.575a4.222 4.222 0 0 0-.378 1.86l-1.43.034zm.502-2.469.002-.002.65.29-.652-.288zm.002-.002c.77-1.732 3.52-3.204 3.527-3.208l.635 1.278c-.006.002-2.287 1.218-2.861 2.51l-1.3-.58zm3.527-3.208.318-.076v.715l-.318-.639zm.318-.076c.005 0 1.734.002 2.204 1.887l-1.384.347c-.2-.803-.819-.804-.82-.804v-1.43zm.848 2.323-.028-.089.692-.173-.664.262zm1.328-.524c.415 1.041.014 2.668.014 2.67l-1.355-.448c0-.001.266-1.062.013-1.698l1.328-.524zm.014 2.67-.27.362-.408-.586.678.224zm-.27.362c-.583.407-1.14.664-1.682.912l-.591-1.295c.476-.22.965-.444 1.458-.788l.815 1.17zm-1.682.912c-.975.447-1.905.874-2.819 2.4l-1.227-.732c1.14-1.9 2.27-2.42 3.455-2.963M760.108 436.717c-.852-.053-1.607.152-2.31.343l-.374-1.379c.819-.222 1.696-.46 2.772-.393l-.088 1.429zm-2.31.343c-1.555.422-2.93.794-4.834-.855l.932-1.078c1.326 1.15 2.36.872 3.528.554l.374 1.379zm-4.834-.855-.038-.034.504-.505-.466.539zm-.038-.034c-.892-.892-1.596-1.947-1.603-1.958l1.189-.792c.006.01.635.952 1.423 1.74l-1.01 1.01zm-1.603-1.958-.742-1.111h1.336v.714l-.594.397zm.594-1.111h.018v1.43h-.018v-1.43zm.018 0c1.014-.003 3.166-.167 4.439-.034l-.144 1.416c-1.992-.207-3.284.046-4.295.047v-1.429zm4.439-.034c1.857.192 3.629.84 4.43 2.647l-1.305.575c-.538-1.21-1.862-1.66-3.27-1.806M710.256 415.524c.389-.193.615-.394.804-.561l.943 1.065c-.258.229-.564.502-1.112.774l-.635-1.278zm.804-.561c.556-.495.93-.825 2.435-.688l-.13 1.424c-.899-.083-1.085.083-1.362.329l-.943-1.065zm2.435-.688.158.033-.223.679.065-.712zm.158.033c.002 0 1.574.361 2.396.69l-.532 1.323c-.854-.341-2.307-.656-2.31-.656l.446-1.357zm1.935 2.038-.07-.025.265-.661-.195.686zm.39-1.373c1.353.385 2.66 1.692 2.662 1.695l-1.01 1.01c-.001-.004-1.045-1.048-2.042-1.332l.39-1.373zm2.662 1.695.63.63-.755.478-.38-.604.505-.504zm-.125 1.108-3.193 2.017-.759-1.206 3.193-2.018.76 1.207zm-3.193 2.017-.51.324-.402-.453.533-.474.38.603zm-.912-.129c-.404-.456-.644-.866-.857-1.233l1.232-.713c.175.3.373.64.69.998l-1.065.948zm-.857-1.233c-.423-.727-.722-1.242-3.074-1.562l.19-1.412c3.043.415 3.488 1.18 4.116 2.26M783.388 521.913v-1.387h2.94v1.387h-2.94zm0-1.387c-.001-45.925-.13-104.625-.19-163.403h2.94c.06 58.778.188 117.478.19 163.403h-2.94zm-.19-163.403c-.062-58.78-.06-117.646.19-163.898l2.94.012c-.25 46.25-.251 105.113-.19 163.886h-2.94zm.19-163.898.008-1.464h1.461v1.47l-1.47-.006zm1.47-1.464h.008v2.94h-.009v-2.94zm.008 0c46.194.003 88.029 18.493 118.317 48.537l-2.067 2.08c-29.75-29.511-70.855-47.676-116.25-47.677v-2.94zm118.317 48.537c30.282 30.041 49.019 71.635 49.024 117.844h-2.94c-.004-45.4-18.407-86.258-48.151-115.764l2.067-2.08zm49.024 117.844v.018h-2.94v-.018h2.94zm0 .018v.01h-2.94v-.01h2.94zm0 .01c-.003 46.218-18.745 87.525-49.037 117.275l-2.054-2.09c29.745-29.213 48.15-69.783 48.151-115.184h2.94zM903.17 475.446c-30.284 29.742-72.112 47.933-118.293 47.938v-2.94c45.39-.003 86.49-17.873 116.239-47.088l2.054 2.09zm-118.293 47.938h-.02v-2.94h.02" style="fill:#cc2826;fill-opacity:1;fill-rule:nonzero;stroke:none" transform="translate(-533.582 -108.802)"/><path d="M825.193 376.318c-3.53 0-5.714-.504-7.395-1.009-1.512-.505-2.353-1.008-3.024-1.008-5.043 0-15.295 16.476-18.151 29.085-1.177 5.38-.337 10.76 3.024 10.76 7.227 0 13.277-17.485 17.143-17.485 1.344 0 3.194-.168-.672 15.3l-8.235 32.952c-1.01 3.698-3.362 12.609-5.042 15.636-3.026 5.716-7.9 2.52-9.58 10.423-2.689 11.432 13.95 11.264 18.487 11.264 16.639 0 19.832-6.556 20.84-11.264 2.52-10.423-7.73-1.85-3.53-19.502l10.42-45.73c.17-1.177 1.682-9.079 5.211-9.079 4.538 0 .335 17.485 8.067 17.485 4.537 0 8.068-4.876 9.747-12.441 3.698-15.971-.84-27.404-4.368-27.404-1.682 0-2.522.503-3.866 1.008-1.513.505-3.361 1.01-7.227 1.01" style="fill:#173885;fill-opacity:1;fill-rule:evenodd;stroke:none" transform="translate(-533.582 -108.802)"/><path d="M825.193 377.788c-1.846 0-3.35-.134-4.615-.332l.448-2.905c1.13.177 2.485.298 4.167.298v2.94zm-4.615-.332a23.978 23.978 0 0 1-3.199-.74l.838-2.814a20.9 20.9 0 0 0 2.809.65l-.448 2.904zm-3.199-.74-.047-.018.466-1.389-.419 1.407zm-.047-.018c-.635-.211-1.126-.41-1.543-.577l1.09-2.722c.402.16.873.35 1.385.521l-.932 2.778zm-1.543-.577c-.506-.202-.875-.35-1.015-.35v-2.94c.69 0 1.285.24 2.105.568l-1.09 2.722zm-1.015-.35h-.014v-2.94h.014v2.94zm-.021-2.94h.007v1.47l-.007-1.47zm.013 2.94c-.403.001-.941.24-1.577.67l-1.642-2.433c1.114-.754 2.197-1.172 3.206-1.177l.013 2.94zm-1.577.67c-.777.525-1.634 1.31-2.532 2.295l-2.17-1.976c1.053-1.155 2.086-2.094 3.06-2.752l1.642 2.433zm-2.532 2.295c-4.875 5.348-10.597 16.13-12.6 24.971l-2.869-.643c2.105-9.292 8.145-20.65 13.299-26.304l2.17 1.976zm-15.469 24.34v-.012l1.435.322-1.435-.31zm2.87.62a19.57 19.57 0 0 0-.469 4.117h-2.94c0-1.491.185-3.117.54-4.737l2.868.62zm-.469 4.117c0 1.43.194 2.69.59 3.607l-2.697 1.158c-.56-1.295-.833-2.956-.833-4.765h2.94zm.59 3.607c.29.671.682 1.12 1.165 1.225l-.62 2.871c-1.503-.328-2.574-1.396-3.242-2.938l2.697-1.158zm1.165 1.225h.006l-.316 1.436.31-1.436zm.006 0c.09.019.19.03.297.03v2.94c-.322 0-.632-.034-.93-.099l.633-2.87zm.297.03h.014v2.94h-.014v-2.94zm.014 0c3.372-.01 6.917-5.473 9.908-10.087l2.457 1.596c-3.39 5.228-7.405 11.417-12.365 11.431v-2.94zm9.908-10.087c2.57-3.965 4.796-7.397 7.22-7.397v2.94c-.84 0-2.66 2.81-4.763 6.053l-2.457-1.596zm7.22-7.397h.061v2.94h-.06v-2.94zm.061 0c.285 0 .589.004.975.106l-.747 2.836c-.004-.002-.117-.002-.228-.002v-2.94zm.975.106c1.81.475 3.27 2.796-.284 17.02l-2.846-.711c2.93-11.73 2.83-13.356 2.383-13.473l.747-2.836zm-.284 17.02-8.235 32.95-2.846-.71 8.235-32.951 2.846.71zm-8.235 32.95-.005.03-1.418-.384 1.423.355zm-.005.03c-.07.265-.153.56-.238.875l-2.835-.768c.084-.315.166-.612.237-.876l2.836.77zm-.238.875c-1.12 4.127-3.288 12.107-4.942 15.089l-2.56-1.425c1.463-2.636 3.575-10.411 4.667-14.432l2.835.768zm-7.518 13.693.016-.029 1.28.713-1.296-.684zm2.593 1.367c-1.55 2.93-3.452 3.833-5.275 4.7l-1.252-2.651c1.39-.66 2.842-1.351 3.934-3.416l2.593 1.367zm-5.275 4.7c-1.732.823-3.375 1.607-4.168 5.338l-2.87-.597c1.1-5.162 3.379-6.247 5.786-7.392l1.252 2.651zm-4.168 5.338-.005.034-1.43-.332 1.435.298zm-.005.034c-1.235 5.252 2.668 7.569 7.027 8.592l-.666 2.859c-5.814-1.366-10.99-4.587-9.22-12.116l2.859.665zm7.027 8.592c3.536.832 7.424.87 9.529.87v2.94c-2.222-.001-6.328-.042-10.195-.951l.666-2.86zm9.529.87h.502v2.94h-.502v-2.94zm.502 0c7.954 0 12.629-1.518 15.408-3.58l1.746 2.366c-3.226 2.392-8.47 4.154-17.154 4.154v-2.94zm15.408-3.58c2.627-1.947 3.553-4.434 3.997-6.513l2.87.597c-.563 2.628-1.742 5.776-5.121 8.282l-1.746-2.366zm3.997-6.513.005-.046 1.43.345-1.435-.299zm.005-.046c.864-3.573-.074-4.242-1.137-5.001l1.698-2.388c1.925 1.375 3.626 2.59 2.298 8.078l-2.859-.689zm-1.137-5.001c-2.318-1.653-4.993-3.563-2.392-14.495l2.859.678c-2.146 9.018-.336 10.31 1.23 11.429l-1.697 2.388zm.472-13.834-.005.017-1.43-.339 1.435.322zm-2.869-.643 10.42-45.73 2.87.642-10.421 45.73-2.869-.642zm13.307-45.203-.017.115-1.435-.321 1.452.206zm-2.904-.412.015-.1 2.892.494-.003.018-2.904-.412zm2.913.365-.006.03-1.446-.247 1.452.217zm-2.904-.435c.033-.219.094-.569.18-.984l2.881.574c-.081.393-.133.683-.157.845l-2.904-.435zm.18-.984c.082-.402.2-.917.358-1.522l2.837.747c-.123.469-.23.943-.314 1.35l-2.882-.575zm.358-1.522c.834-3.175 2.667-7.767 6.115-7.767v2.94c-1.535 0-2.68 3.295-3.278 5.574l-2.837-.747zm6.115-7.767c3.295 0 3.681 3.914 4.116 8.343l-2.914.286c-.297-3.02-.56-5.689-1.202-5.689v-2.94zm4.116 8.343c.418 4.245.9 9.142 3.951 9.142v2.94c-5.704 0-6.327-6.317-6.865-11.796l2.914-.286zm3.951 9.142h.02v2.94h-.02v-2.94zm.02 0a4.733 4.733 0 0 0 1.66-.305l1.032 2.745a7.67 7.67 0 0 1-2.692.5v-2.94zm1.66-.305a5.685 5.685 0 0 0 1.294-.706l1.71 2.388a8.61 8.61 0 0 1-1.972 1.063l-1.032-2.745zm1.294-.706c2.38-1.705 4.248-5.36 5.339-10.277l2.869.633c-1.247 5.62-3.518 9.897-6.498 12.032l-1.71-2.388zm5.339-10.277.005-.01 1.43.327-1.435-.317zm.005-.01c.945-4.083 1.336-7.869 1.336-11.225h2.94c0 3.545-.415 7.55-1.417 11.88l-2.859-.656zm1.336-11.225c0-4.395-.673-8.026-1.642-10.611l2.755-1.022c1.078 2.876 1.826 6.863 1.826 11.633h-2.939zm-1.642-10.611c-.843-2.253-1.789-3.586-2.568-3.766l.655-2.859c1.73.401 3.466 2.391 4.668 5.603l-2.755 1.022zm-2.568-3.766a.437.437 0 0 0-.065-.005v-2.94c.23 0 .471.03.72.086l-.655 2.859zm-.065-.005c-1.079 0-1.767.278-2.586.61l-1.09-2.723c1.111-.449 2.045-.827 3.676-.827v2.94zm-2.586.61c-.29.116-.63.254-.77.306l-1.021-2.755c.378-.142.526-.204.7-.274l1.091 2.722zm-.77.306-.051.017-.46-1.395.512 1.378zm-.051.017c-.8.266-1.702.538-2.955.747l-.47-2.894a15.971 15.971 0 0 0 2.507-.643l.918 2.79zm-2.955.747h-.006l-.23-1.447.236 1.447zm-.006 0c-1.215.2-2.724.337-4.725.337v-2.939c1.865 0 3.215-.118 4.267-.292l.458 2.894zm-4.725.337h-21.85v-2.939h21.85" style="fill:#fff;fill-opacity:1;fill-rule:nonzero;stroke:none" transform="translate(-533.582 -108.802)"/><path d="M903.007 408.934c-2.185 9.078-6.218 16.476-11.932 16.476-4.874 0-3.361-3.362-2.521-6.557l5.042-22.192c.671-3.027 1.008-4.876 4.537-4.876 5.882 0 6.891 7.734 4.874 17.149zm-43.696 48.084c-2.858 12.273-8.068 7.23-10.084 15.299-2.185 9.75 10.924 9.919 14.79 9.919 3.865 0 16.805-.505 18.991-10.255 2.016-8.575-6.218-.841-2.186-19.334l1.85-8.742c.503-1.515 1.008-2.355 2.016-2.355 2.353 0 4.874.84 7.563.84 12.437 0 26.218-11.936 31.428-34.128 5.041-22.193-4.201-32.953-16.302-32.953-1.85 0-11.933 2.186-24.874 2.186-2.184 0-4.202-.168-6.554-.168-2.69 0-6.89 1.176-8.235 7.06-2.185 9.416 7.395 3.364 4.873 14.627" style="fill:#384f7a;fill-opacity:1;fill-rule:evenodd;stroke:none" transform="translate(-533.582 -108.802)"/><path d="M903.007 408.934c-2.185 9.078-6.218 16.476-11.932 16.476-4.874 0-3.361-3.362-2.521-6.557l5.042-22.192c.671-3.027 1.008-4.876 4.537-4.876 5.882 0 6.891 7.734 4.874 17.149zm-43.696 48.084c-2.858 12.273-8.068 7.23-10.084 15.299-2.185 9.75 10.924 9.919 14.79 9.919 3.865 0 16.805-.505 18.991-10.255 2.016-8.575-6.218-.841-2.186-19.334l1.85-8.742c.503-1.515 1.008-2.355 2.016-2.355 2.353 0 4.874.84 7.563.84 12.437 0 26.218-11.936 31.428-34.128 5.041-22.193-4.201-32.953-16.302-32.953-1.85 0-11.933 2.186-24.874 2.186-2.184 0-4.202-.168-6.554-.168-2.69 0-6.89 1.176-8.235 7.06-2.185 9.416 7.395 3.364 4.873 14.627" style="fill:#173885;fill-opacity:1;fill-rule:evenodd;stroke:none" transform="translate(-533.582 -108.802)"/><path d="m904.436 409.273-.007.031-2.859-.678.008-.031 2.858.678zm-.007.031a55.054 55.054 0 0 1-1.057 3.798l-2.8-.883c.365-1.148.7-2.354.998-3.593l2.859.678zm-1.057 3.798a43.06 43.06 0 0 1-1.286 3.524l-2.71-1.126a40.221 40.221 0 0 0 1.196-3.28l2.8.882zm-1.286 3.524c-2.531 6.058-6.207 10.254-11.011 10.254v-2.94c3.411 0 6.218-3.455 8.301-8.44l2.71 1.126zm-11.011 10.254c-3.81 0-4.89-1.613-4.89-3.909h2.94c0 .57.43.969 1.95.969v2.94zm-4.89-3.909c0-1.108.34-2.304.684-3.523l2.823.792c-.286 1.012-.568 2.005-.568 2.731h-2.94zm3.513-2.736-.006.005-1.411-.396 1.417.391zm-2.836-.782c.133-.478.248-.875.273-.973l2.837.746c-.2.757-.224.83-.274 1.009l-2.836-.782zm3.126-.278-.016.051-1.418-.373 1.434.322zm-2.869-.643 5.042-22.192 2.869.643-5.042 22.192-2.869-.643zm5.042-22.192.005-.006 1.43.327-1.435-.32zm.005-.006.041-.187 2.859.665c0 .004-.036.15-.041.177l-2.859-.655zm2.905.462-.005.016-1.43-.333 1.435.317zm-2.87-.633c.805-3.635 1.297-5.848 5.932-5.848v2.94c-2.277 0-2.575 1.34-3.062 3.54l-2.87-.632zm5.932-5.848c.528 0 1.036.055 1.522.158l-.597 2.872a4.469 4.469 0 0 0-.925-.09v-2.94zm1.522.158c2.1.45 3.588 1.783 4.532 3.766l-2.651 1.263c-.55-1.153-1.366-1.92-2.478-2.157l.597-2.872zm4.532 3.766c.846 1.775 1.239 4.082 1.239 6.723h-2.94c0-2.221-.303-4.1-.95-5.46l2.65-1.263zm1.239 6.723c0 2.476-.348 5.294-.985 8.27l-2.869-.597c.591-2.762.914-5.377.914-7.673M860.74 457.35c-1.715 7.373-4.287 9.032-6.608 10.53l-1.584-2.47c1.845-1.19 3.886-2.507 5.334-8.724l2.858.665zm-6.608 10.53c-1.42.915-2.725 1.756-3.482 4.792l-2.846-.711c1.04-4.163 2.81-5.306 4.744-6.551l1.584 2.47zm-6.34 4.12.012-.04 1.423.357-1.435-.317zm2.869.632c-.873 3.898 1.356 5.899 4.191 6.923l-1 2.756c-4.133-1.495-7.369-4.46-6.06-10.31l2.869.631zm4.191 6.923c3.238 1.172 7.31 1.211 9.164 1.211v2.94c-2.01 0-6.43-.046-10.164-1.395l1-2.756zm9.164 1.211c1.857 0 5.89-.12 9.66-1.39l.932 2.778c-4.21 1.418-8.584 1.552-10.591 1.552v-2.94zm9.66-1.39c3.569-1.202 6.945-3.466 7.898-7.716l2.869.642c-1.232 5.498-5.422 8.366-9.835 9.852l-.931-2.778zm7.898-7.716.005-.012 1.43.333-1.435-.321zm.005-.012c.621-2.644.038-3.173-.664-3.807l1.963-2.18c1.41 1.27 2.576 2.327 1.56 6.653l-2.86-.666zm-.664-3.807v-.005l.981-1.085-.981 1.09zm0-.005c-1.82-1.645-4.1-3.703-1.527-15.5l2.869.62c-2.213 10.15-.638 11.573.62 12.71l-1.962 2.17zm1.342-14.897v.017l-1.435-.31 1.435.293zm-2.87-.585 1.85-8.742 2.869.584-1.85 8.743-2.868-.585zm1.85-8.742.04-.167 1.395.46-1.435-.293zm.04-.167c.303-.916.627-1.65 1.06-2.198l2.307 1.826c-.195.247-.378.692-.577 1.29l-2.79-.918zm1.06-2.198c.603-.763 1.347-1.167 2.35-1.167v2.94l-.043.053-2.307-1.826zm2.35-1.167c1.236 0 2.48.208 3.765.422l-.47 2.894c-1.145-.19-2.257-.376-3.294-.376v-2.94zm3.765.422c1.231.206 2.509.419 3.8.419v2.939c-1.489 0-2.905-.236-4.27-.464l.47-2.894zm3.8.419h.017v2.939h-.018v-2.94zm.017 0c2.57-.002 5.213-.557 7.815-1.641l1.126 2.71c-2.967 1.235-5.99 1.868-8.941 1.87v-2.94zm7.815-1.641a26.14 26.14 0 0 0 4.45-2.402l1.63 2.433a29.123 29.123 0 0 1-4.954 2.678l-1.126-2.71zm4.45-2.402c7.633-5.1 14.417-14.896 17.715-28.949l2.86.666c-3.482 14.83-10.743 25.235-18.945 30.716l-1.63-2.433zm20.579-28.294-.005.01-1.43-.332 1.435.322zm-2.869-.643c.939-4.133 1.37-7.85 1.37-11.153h2.94c0 3.516-.453 7.448-1.441 11.796l-2.869-.643zm1.37-11.153c0-5.85-1.343-10.384-3.592-13.638l2.41-1.665c2.58 3.732 4.122 8.83 4.122 15.303h-2.94zm-3.592-13.638c-2.19-3.172-5.27-5.149-8.805-5.951l.643-2.871c4.239.962 7.936 3.339 10.572 7.157l-2.41 1.665zm-8.805-5.951a17.38 17.38 0 0 0-3.84-.42v-2.94c1.547 0 3.05.163 4.483.489l-.643 2.87zm-3.84-.42h-.008v-2.94h.008v2.94zm-.008 0c-.53.001-2.677.345-5.637.754l-.402-2.904c3.097-.428 5.08-.787 6.04-.79v2.94zm-5.637.754c-4.602.637-11.411 1.432-19.229 1.432v-2.94c7.69 0 14.339-.775 18.827-1.396l.402 2.904zm-19.229 1.432c-1.121 0-2.156-.042-3.206-.082l.104-2.94c1.05.04 2.083.082 3.102.082v2.94zm-3.206-.082c-1.09-.042-2.202-.086-3.348-.086v-2.94c1.248 0 2.362.044 3.452.086l-.104 2.94zm-3.348-.086h-.018v-2.94h.018v2.94zm-.018 0c-1.117 0-2.543.245-3.804 1.084l-1.619-2.446c1.835-1.221 3.854-1.576 5.423-1.578v2.94zm-3.804 1.084a5.99 5.99 0 0 0-.593.449l-1.918-2.216c.295-.256.596-.482.892-.68l1.619 2.447zm-.593.449c-1.023.885-1.908 2.272-2.391 4.385l-2.859-.655c.64-2.795 1.878-4.688 3.332-5.946l1.918 2.216zm-2.391 4.385c-.802 3.456.39 4.157 1.637 4.89l-1.48 2.527c-2.2-1.293-4.302-2.528-3.016-8.072l2.859.655zm1.637 4.89c2.334 1.37 4.789 2.813 3.242 9.725l-2.869-.632c1.083-4.84-.422-5.726-1.853-6.566l1.48-2.528zm3.242 9.725-.005.012-1.43-.328 1.435.316zm-.005.012-13.277 58.004-2.858-.656 13.276-58.004" style="fill:#fff;fill-opacity:1;fill-rule:nonzero;stroke:none" transform="translate(-533.582 -108.802)"/><path d="m713.766 198.275 5.715-2.353-16.135-40.014-5.209 2.017-6.555 12.106 4.706 2.52 3.865-7.733M737.128 190.037l6.723-1.681-1.681-6.726-6.724 1.682M774.438 183.648l6.218.168.336-19.67 15.966.337v-5.381l-15.966-.336.337-12.61 16.639.337.166-5.38-23.024-.505M807.715 184.994l6.05 1.176 3.698-19.335 15.798 3.028 1.008-5.212-15.798-3.195 2.52-12.273 16.304 3.194 1.176-5.38-22.521-4.371M884.52 164.483c-2.353-2.354-5.21-4.036-8.235-5.381-12.1-4.875-24.37-.336-29.41 11.937-5.043 12.777 0 24.21 12.604 29.421 2.353.841 6.218 2.186 9.748 2.186l1.848-5.716c-2.521.504-6.554-.337-9.412-1.513-8.234-3.362-12.605-12.273-8.739-21.688 3.53-9.078 12.437-13.113 21.68-9.414 2.857 1.176 5.379 3.025 7.227 5.548M609.567 479.042l2.688 3.867 23.697-16.476 5.882 8.406 3.363-2.354-14.455-20.848-3.36 2.522 5.881 8.407M663.179 491.314l-3.192-3.362-13.782 12.777c-4.538 4.204-9.076 5.717-13.277 1.346-4.202-4.54-2.353-8.911 2.353-13.281l13.613-12.779-3.194-3.362-14.116 13.113c-6.892 6.39-7.227 13.114-1.682 19.167 5.547 5.884 12.269 5.884 19.16-.337M645.868 519.728l3.698 2.858 8.907-11.769 2.185 1.681c2.016 1.513 3.36 2.523 2.52 6.053l-2.856 12.104 4.37 3.196 2.857-14.123c.504-2.354.336-3.363-.504-4.707 3.53 1.68 7.563 1.344 10.084-2.018 4.706-6.22.335-10.928-4.874-14.795l-6.555-4.876-19.832 26.396zm21.177-20.175 3.53 2.69c3.528 2.69 4.2 5.547 2.352 7.902-1.848 2.522-5.21 2.522-8.74-.169l-3.192-2.521M669.23 537.045l7.562 4.538c5.714 3.532 11.597 5.045 15.295-1.008 2.353-4.035 1.176-8.07-2.521-10.76l.167-.168c4.034 1.345 7.563.672 9.916-3.194 3.025-5.213.168-9.583-5.714-13.113l-7.731-4.54-16.975 28.245zm11.764-10.425 2.688 1.514c3.531 2.185 7.06 5.044 4.371 9.415-2.353 3.867-6.05 2.69-9.748.504l-3.025-1.85 5.714-9.583zm7.395-12.104 4.201 2.522c2.353 1.513 4.706 4.034 2.69 7.397-2.521 4.203-6.05 2.522-9.917.168l-2.352-1.345M695.448 551.503l4.369 1.849 13.445-30.094-4.369-2.018M708.053 557.051l4.537 1.344 8.403-25.722 5.882 30.43 5.715 1.85 10.251-31.439-4.537-1.513-8.235 25.386-5.715-29.757-6.05-2.018M741.833 566.634l18.319 2.86.673-4.036-13.614-2.186 1.68-10.76 12.437 2.018.673-4.203-12.437-1.85 1.513-9.583 13.614 2.186.671-4.204-18.319-2.858M784.522 542.088l4.033-.168c3.026 0 7.395 1.346 7.563 5.548.168 4.371-3.529 5.884-6.387 6.052l-4.705.168-.504-11.6zm-3.697 29.086 4.705-.168-.336-13.282 4.537-.168c6.05-.169 11.597-2.859 11.429-10.256-.336-7.566-6.05-9.75-12.773-9.416l-8.74.337M808.387 553.184c-1.177-6.725 1.513-13.45 8.74-14.458 7.057-1.177 11.596 4.371 12.604 11.096 1.177 6.39-1.176 13.114-8.57 14.458-7.564 1.178-11.766-4.707-12.774-11.096zm-5.042.673c1.513 9.92 8.403 15.971 18.319 14.458 10.084-1.513 14.621-9.415 13.11-19.334-1.513-9.75-8.403-15.971-18.32-14.459-9.915 1.681-14.622 9.752-13.11 19.335M850.235 560.581l4.537-1.513-8.906-27.403 9.747-3.195-1.344-4.035-24.034 7.902 1.345 3.866 9.747-3.193M869.898 517.374c-2.353.336-4.873 1.01-6.89 2.017-5.378 2.522-8.236 7.23-5.882 12.61 4.37 9.247 16.301 1.345 19.496 8.07 1.68 3.53-1.177 6.557-3.53 7.733-2.185 1.01-5.21 1.345-6.891 1.345l1.344 4.203c2.353-.336 4.706-.672 6.723-1.68 6.051-2.691 9.748-7.567 6.723-13.955-4.538-9.92-16.806-2.522-19.496-8.238-1.344-3.194 1.008-5.38 3.361-6.39 2.353-1.176 3.698-1.344 6.219-1.512M890.57 543.097l8.236-5.213c9.075-5.883 11.596-14.458 5.546-23.705-5.546-8.573-15.462-9.414-23.53-4.034l-8.235 5.379 17.983 27.573zm-11.764-26.732 4.706-3.025c5.713-3.7 12.605-2.69 16.805 3.698 4.54 7.23 2.858 12.946-3.864 17.316l-4.202 2.69M913.091 528.47l3.697-3.194-3.024-8.574 11.932-10.761 8.067 3.867 3.865-3.362-32.437-15.132-3.697 3.196 11.597 33.96zM922 504.092l-9.748 8.743-6.05-16.476M941.494 503.084l2.857-3.868-22.689-17.148v-.168l29.411 8.575 2.69-3.7-16.135-26.058 22.858 17.147 2.856-3.698-26.385-19.838-4.706 6.22 15.798 24.547-28.235-8.239-4.538 6.221M599.651 272.586l-.504-12.44 7.563 9.917 10.419-6.724-4.706 11.433 10.924 5.716-12.268 1.681.504 12.441-7.563-9.92-10.419 6.726 4.705-11.433-11.092-5.716M586.206 329.58l-.673-12.441 7.563 9.92 10.588-6.727-4.874 11.433 11.092 5.884-12.269 1.513.505 12.442-7.563-9.751-10.587 6.556 4.873-11.431-11.092-5.717M589.23 384.556l-.503-12.44 7.562 9.919 10.42-6.726-4.705 11.433 11.092 5.716-12.437 1.681.672 12.441-7.563-9.919-10.588 6.725 4.706-11.433-10.924-5.716M968.72 272.586l.504-12.44-7.562 9.917-10.42-6.724 4.705 11.433-10.924 5.716 12.269 1.681-.504 12.441 7.562-9.92 10.42 6.726-4.705-11.433 11.093-5.716M982.166 329.58l.671-12.441-7.561 9.92-10.59-6.727 4.706 11.433-10.924 5.884 12.269 1.513-.503 12.442 7.562-9.751 10.588 6.556-4.874-11.431 11.092-5.717M979.14 384.556l.505-12.44-7.564 9.919-10.419-6.726 4.706 11.433-11.093 5.716 12.437 1.681-.673 12.441 7.564-9.919 10.589 6.725-4.707-11.433 10.924-5.716" style="fill:#fff;fill-opacity:1;fill-rule:evenodd;stroke:none" transform="translate(-533.582 -108.802)"/><path d="M786.16 192.223v2.076h-2.94v-2.076h2.94zm0 2.076c0 45.878.087 105.22.127 164.623h-2.94c-.04-59.403-.126-118.745-.128-164.623h2.94zm.127 164.623c.039 59.403.038 118.873-.128 165.009h-2.94c.166-46.136.168-105.606.128-165.009" style="fill:#232b75;fill-opacity:1;fill-rule:nonzero;stroke:none" transform="translate(-533.582 -108.802)"/></svg>