<svg width="400" height="400" xml:space="preserve" xmlns="http://www.w3.org/2000/svg" xmlns:xlink="http://www.w3.org/1999/xlink"><style>.st3{fill:#e3051b}</style><g transform="translate(3.62 -.938) scale(1.5328)" stroke-width=".652"><defs><path id="SVGID_1_" d="M-1.7 1h257l1 260H-.7z"/></defs><clipPath id="SVGID_2_"><use width="100%" height="100%" xlink:href="#SVGID_1_"/></clipPath><g clip-path="url(#SVGID_2_)" style="clip-path:url(#SVGID_2_)"><path d="M128 7.3C59.6 7.3 4.1 62.8 4.1 131.2S59.6 255.1 128 255.1s123.9-55.5 123.9-123.9C251.8 62.8 196.4 7.3 128 7.3" style="fill:#fff"/><circle transform="rotate(-45.001 127.966 131.188)" cx="128" cy="131.2" r="123.9" style="fill:none;stroke:#fff;stroke-width:10;stroke-miterlimit:10"/><path class="st3" d="M97.2 97.4h34.4l35.5 35.7h25.8l-36.5-36.6c17.1-6.4 22.7-16.7 22.7-28.5 0-20.9-24.4-32.5-41.7-33.2-5.4-.2-9.4-.4-10.4-.4-15.4 0-33.8 6.5-48.2 13.2v99.1c6.4-5.4 12.6-11.2 18.3-16.6V97.4zm.1-38.3c8.9-3.8 19.4-6.2 28.2-6.2 1 0 4.7-.2 10.4.4 3.2.3 25.2 1.9 25.2 14 0 6.3-6.3 12.9-12.5 12.8H97.3z"/><path class="st3" d="M128 7.3C59.6 7.3 4.1 62.8 4.1 131.2S59.6 255.1 128 255.1s123.9-55.5 123.9-123.9C251.8 62.8 196.4 7.3 128 7.3m0 231.6c-59.5 0-107.7-48.2-107.7-107.7S68.5 23.5 128 23.5s107.7 48.2 107.7 107.7c-.1 59.5-48.3 107.7-107.7 107.7"/><path class="st3" d="m201.3 67.1-12.1 12.5c14.7 18.7 19.2 29.8 19.2 51 0 17.5-3.8 29.6-12.9 43l-67.6-67.7-66.9 67c-8.6-12.2-12.9-24.3-13.3-41.2-.5-21.8 5.3-35.4 19.6-52.5L55.2 67.1c-16.5 15-25.2 36.1-25.6 62.5-.4 29.9 7.2 50.5 30.8 70.3l67.8-67.8 67.9 68.2c20.8-18.5 30-38.2 30.7-66.9.7-27.7-10.4-49.4-25.5-66.3"/><path class="st3" d="M133.4 210.1c-15.4 1.2-25.3-1-38.7-8.7l4.4-4.4h36.6v-13.5h-23l16-16.1c4.9 4.9 15 14.7 15 14.7l12.6-13.6-27.3-27.2-64 64.4c18.1 14.6 42.2 26.8 71.5 24 23.8-2.2 44.4-10.1 55.8-25.5L177 188.9c-7.1 11-24.7 19.7-43.6 21.2"/></g></g></svg>