<?xml version="1.0" encoding="utf-8"?>
<!-- Generator: Adobe Illustrator 13.0.2, SVG Export Plug-In . SVG Version: 6.00 Build 14948)  -->
<!DOCTYPE svg PUBLIC "-//W3C//DTD SVG 1.1 Tiny//EN" "http://www.w3.org/Graphics/SVG/1.1/DTD/svg11-tiny.dtd">
<svg version="1.1" baseProfile="tiny" id="Ebene_1" xmlns="http://www.w3.org/2000/svg" xmlns:xlink="http://www.w3.org/1999/xlink"
	 x="0px" y="0px" width="494.055px" height="566px" viewBox="0 0 494.055 566" xml:space="preserve">
<path fill="#403A60" d="M247.014,0C86.453,4.947,2.646,19.513,2.56,19.531c-1.964,0.386-2.506,1.035-2.506,2.848
	c0,0-0.013,2.196-0.013,2.934v136.369v9.238c0,0.738-0.091,4.866,0,5.297C7.476,513.903,247.546,566,247.027,566
	s239.551-52.097,246.989-389.784c0.088-0.431,0-4.559,0-5.297v-9.238V25.313c0-0.738-0.016-2.934-0.016-2.934
	c0-1.813-0.542-2.462-2.509-2.848C491.405,19.513,407.574,4.947,247.014,0"/>
<path fill="#FFFFFF" d="M7.476,30.091c0-1.81,0.542-2.459,2.509-2.848c0.086-0.016,76.469-14.485,237.029-19.429
	c160.563,4.945,236.966,19.414,237.055,19.429c1.966,0.389,2.509,1.038,2.509,2.848v139.246c0,0.037-0.422,4.605,0,4.676
	c-7.488,320.378-228.66,382.552-239.564,385.411C236.11,556.564,14.961,494.39,7.476,174.012c0.42-0.07,0-4.639,0-4.676V30.091z"/>
<path fill="#403A60" d="M479.017,91.204c-0.055-0.01-86.22-14.758-231.636-16.357C101.968,76.445,15.18,91.274,15.122,91.285v-3.477
	c0.057-0.01,86.718-14.808,232.131-16.41C392.67,73,478.963,87.636,479.017,87.649V91.204z"/>
<path fill="#403A60" d="M247.014,552.955c-8.585-2.874-226.277-66.717-232.053-385.929c-0.057-0.271,0-3.273,0-3.734
	c0-0.462,0.026-62.553,0.026-63.014v-1.844c0-1.137,0.349-1.544,1.583-1.787c0.055-0.01,85.028-14.505,230.444-16.107
	c145.416,1.602,230.415,16.097,230.47,16.107c1.234,0.243,1.586,0.649,1.586,1.787v1.844c0,0.461,0.023,62.552,0.023,63.014
	c0,0.461,0.057,3.463,0,3.734C473.316,486.237,255.599,550.081,247.014,552.955"/>
<path fill="#FFFFFF" d="M104.472,186.4c-1.226-18.199-0.733-22.888-0.73-42.729c-0.057-0.269-0.091-41.889-0.042-44.265
	c-22.181,1.823-42.001,3.745-55.874,5.391c-0.047,2.374-0.055,44.915,0,45.188c-15.89,295.049,190.571,391.32,199.156,394.194
	c-5.023-1.682-55.738-47.888-94.991-137.425c-17.886-8.432-28.067-16.516-42.602-30.711c-22.082-21.604-38.653-49.886-40.549-94.623
	C67.431,248.063,80.791,215.797,104.472,186.4"/>
<path fill="#FFFFFF" d="M217.937,166.741c-0.125-14.552-0.362-11.746-0.36-27.295c-0.06-0.269,0.582-43.561,0.631-45.935
	c-21.386,0.292-44.44,1.241-57.008,2.128c-0.05,2.374-0.188,34.712-0.131,34.981c-0.063,1.56-0.422,5.482-0.477,7.031
	C190.486,145.022,203.721,152.83,217.937,166.741"/>
<path fill="#FFFFFF" d="M224.072,370.308c-10.607,14.816-24.445,24.942-40.14,35.627c23.897,94.756,58.283,135.79,63.053,138.179
	C242.194,540.94,231.189,488.386,224.072,370.308"/>
<path fill="#FFFFFF" d="M269.463,382.056c-7.148,109.875-17.849,159.017-22.478,162.086c4.593-2.306,38.525-41.783,61.697-130.83
	l-4.4,1.515L269.463,382.056z"/>
<path fill="#FFFFFF" d="M378.552,261.528c2.024-1.664,7.673-7.55,9.055-9.029c13.175-14.093,15.559-29.23,17.231-47.567
	c0.545-5.983-1.711-20.107-1.891-23.983l-12.836-7.091c0.707-14.049,0.12-15.507,0.117-30.49c0.055-0.271,0.089-41.892,0.04-44.265
	c22.181,1.82,42.001,3.742,55.871,5.388c0.052,2.376,0.06,44.917,0,45.186c15.361,295.359-190.568,391.594-199.156,394.465
	c5.062-1.693,56.507-43.767,96.367-141.53c10.469-3.411,17.155-6.374,23.592-10.468c9.83-6.249,20.408-12.743,28.98-23.589
	c7.97-10.087,12.563-21.341,14.12-33.901c1.08-8.719,1.351-17.698-1.348-26.484c-2.499-8.121-5.798-17.382-11.759-24.593
	c-5.55-6.721-13.697-12.216-19.391-15.81c-2.616-1.671-3.662-2.178-3.79-2.49C373.634,264.997,376.25,263.37,378.552,261.528"/>
<path fill="#FFFFFF" d="M168.446,400.51c-20.28-7.837-38.345-21.292-54.431-37.004c-21.414-20.947-32.409-47.272-32.994-78.975
	c-0.936-50.892,27.392-96.806,83.646-135.398c25.149,9.373,44.146,23.289,58.333,39.401c19.391,21.978,29.358,47.823,29.911,77.541
	c0.519,28.234-8.786,56.014-27.908,83.33C211.092,369.207,192.157,387.361,168.446,400.51"/>
<path fill="#403A60" d="M168.73,394.671c-18.879-7.6-35.807-19.012-50.785-34.245c-19.93-20.309-30.167-45.828-30.709-76.563
	c-0.871-49.34,24.875-92.711,77.238-130.125c23.409,9.089,41.714,21.438,54.924,37.06c18.047,21.305,27.327,46.362,27.84,75.172
	c0.482,27.371-8.176,54.301-25.976,80.785C208.311,365.952,190.802,381.923,168.73,394.671"/>
<path fill="#FFFFFF" d="M332.618,146.67c-0.13-4.601,0.047-6.356-0.139-11.053c0.055-0.274,0.336-37.579,0.285-39.952
	c-12.568-0.887-35.623-1.836-57.008-2.128c0.052,2.373,0.693,45.666,0.636,45.937c0.002,14.717,0.219,10.57,0.107,24.393
	l35.231-27.032L332.618,146.67z"/>
<path fill="#FFFFFF" d="M193.897,360.162c16.993-18.063,25.263-40.181,24.807-66.352c-0.287-16.208-3.576-31.22-9.872-45.042
	c-6.298-13.939-15.108-25.793-26.427-35.568c-14.333-12.119-30.495-20.306-48.477-24.562c-7.289,10.456-12.901,21.962-16.827,34.517
	c-3.936,12.437-5.79,24.718-5.576,36.84c0.493,27.973,11.595,52.097,33.304,72.376C157.247,343.808,173.602,353.074,193.897,360.162
	"/>
<path fill="#FFFFFF" d="M242.252,340.331l30.954-30.091l66.047,58.862c6.262-6.327,11.541-14.764,11.123-35.79
	c-0.388-19.573-4.861-31.277-14.785-43.386c-9.063-11.058-15.968-14.201-29.798-15.416c-3.97-0.347-7.822-0.628-15.695-0.732
	v-17.497c10.996-0.681,12.245-1.354,17.093-2.271c4.849-1.043,10.148-3.479,14.201-6.658c14.396-11.303,21.01-22.202,23.537-48.837
	c1.054-11.079-0.663-15.205-7.782-15.334c-2.413-0.042-4.416,2.214-7.584,4.034c-3.171,1.823-6.739,5.046-14.201,10.669
	l-32.813,24.786l-25.542-29.7l55.907-42.948l80.287,39.339c0.172,3.755,0.243,6.575,0.216,8.453
	c-0.352,20.394-6.337,39.505-19.114,53.169c-6.225,6.658-11.086,10.494-19.841,14.529c11.866,4.441,17.314,7.871,26.648,16.146
	c5.853,5.185,10.949,13.822,14.201,21.388c3.367,7.568,4.598,15.901,4.475,23.409c-0.206,11.885-4.866,23.952-12.643,33.698
	c-7.657,9.756-17.615,18.144-32.097,24.891c-9.621,4.587-25.772,9.934-48.454,16.039L242.252,340.331z"/>
<path fill="#403A60" d="M249.181,339.927l24.63-23.365l64.24,57.558c10.724-5.328,16.25-18.076,16.597-38.254
	c0.344-20.532-4.866-36.9-15.635-49.111c-8.883-10.25-19.719-15.491-34.871-15.765c-3.737-0.07-4.408-0.128-10.338,0l-0.195-11.937
	c6.882-0.305,10.492-0.551,13.694-1.312c4.869-0.871,8.71-3.046,12.941-5.375c18.61-10.114,28.153-29.275,28.636-57.493
	c0.177-10.682-3.072-16.086-9.744-16.211c-2.264-0.044-4.882,0.811-7.853,2.558c-2.971,1.75-7.952,5.323-14.944,10.719
	l-33.361,25.702l-19.959-24.145l50.211-38.726l75.23,37.753c0.165,3.607,0.229,6.311,0.206,8.113
	c-0.331,19.576-6.71,35.675-19.145,48.297c-6.794,6.846-15.995,12.445-27.608,16.795c14.868,4.115,26.86,10.575,35.993,19.39
	c5.344,5.141,9.537,11.342,12.586,18.605c3.156,7.263,4.673,14.495,4.556,21.701c-0.19,11.407-3.93,21.792-11.214,31.147
	c-7.177,9.36-17.552,17.281-31.121,23.756c-9.019,4.405-23.459,9.321-44.714,15.181L249.181,339.927z"/>
<path fill="#403A60" d="M192.924,353.851c15.393-17.168,21.331-36.295,20.916-61.167c-0.258-15.406-4.483-28.396-10.187-41.535
	c-5.701-13.249-14.287-23.021-24.541-32.31c-12.983-11.517-26.967-20.086-43.256-24.132c-6.601,9.939-10.489,18.893-14.046,30.821
	c-3.565,11.822-5.245,23.495-5.054,35.015c0.448,26.588,12.641,48.952,32.308,68.225
	C160.311,339.638,174.543,347.112,192.924,353.851"/>
<path fill="#FFFFFF" d="M162.862,219.579c1.145,47.708,3.054,76.836,8.909,112.302c4.968,3.036,14.85,7.443,20.488,9.751
	c10.117-16.457,11.953-32.076,11.582-48.532c-0.313-14.12-3.257-21.122-8.173-33.171c-4.916-12.148-10.546-20.621-19.388-29.139
	C172.91,227.617,166.414,222.224,162.862,219.579"/>
<path fill="#FFFFFF" d="M273.769,297.542l48.753,40.403c3.041-18.12,3.187-19.314,5.177-40.543
	c-5.534-5.24-9.738-9.744-21.529-11.924c-5.853-1.085-15.59-2.353-24.755-2.011v-35.224c12.135-0.712,21.638-3.145,26.262-4.866
	c7.743-2.702,13.009-7.587,17.275-12.743c3.02-3.648,6.608-11.814,6.666-11.527c0.644-14.284,0.43-4.115,0.498-19.635
	c-3.012,1.914-6.629,5.083-13.499,10.257l-35.706,27.799l-7.026-8.012C275.357,260.292,274.802,271.712,273.769,297.542"/>
<path fill="#403A60" d="M322.118,43.071l-0.002-0.13c5.597-0.793,7.902-5.221,7.86-10.294c-0.058-7.151-4.494-12.109-13.935-12.573
	l-19.94-0.986l0.282,48.289l20.047,0.389c10.998,0.542,15.207-5.06,15.142-13.342C331.531,49.481,328.792,44.004,322.118,43.071z
	 M309.269,28.547l3.195,0.159c2.697,0.133,4.204,2.478,4.228,5.148c0.019,2.54-1.453,4.733-4.146,4.603l-3.195-0.156L309.269,28.547
	z M313.202,58.521l-3.693-0.183l-0.091-11.621l3.69,0.18c2.415,0.12,4.7,2.303,4.729,5.978
	C317.87,56.75,315.614,58.641,313.202,58.521z"/>
<path fill="#403A60" d="M264.271,30.438c0.016-2.12,1.333-4.136,4.22-4.055c2.603,0.07,3.813,2.425,3.792,5.208l-0.01,1.127
	l12.2-0.193c0.081-10.14-4.499-14.177-16.201-14.506c-11.347-0.316-16.952,4.765-17.025,14.31
	c-0.133,16.772,21.002,12.722,20.932,22.066c-0.023,2.587-1.627,4.53-4.374,4.452c-2.6-0.071-4.397-1.581-4.363-5.623l0.008-1.126
	l-13.006-0.365l-0.013,1.656c-0.076,9.811,6.11,13.499,17.236,13.809c11.851,0.331,18.319-3.998,18.394-14.07
	C286.198,35.826,264.195,39.785,264.271,30.438z"/>
<path fill="#403A60" d="M466.88,52.235l-17.614-2.227v8.633l4.911,0.881c-0.039,8.476-1.713,10.043-4.564,9.824
	c-4.17-0.318-4.621-3.881-4.676-16.975c-0.058-13.092,0.368-16.589,4.827-16.248c1.606,0.125,2.637,0.949,3.153,2.342
	c0.516,1.33,0.743,3.247,0.756,5.691l13.207,1.507c-0.049-11.733-6.989-17.309-16.642-18.047
	c-16.086-1.231-19.411,7.467-19.343,23.683c0.068,16.013,1.351,25.266,15.17,26.32c4.606,0.355,9.425-0.362,11.238-4.363
	l0.146,0.013l0.313,4.295l9.211,0.704L466.88,52.235z"/>
<polygon fill="#403A60" points="355.855,58.059 355.761,48.613 372.079,49.875 372.079,40.15 355.696,38.739 355.696,31.069 
	372.919,32.104 372.919,22.322 342.646,20.459 342.583,68.877 374.317,70.838 374.132,59.741 "/>
<path fill="#403A60" d="M148.004,44.059v-0.138c5.639-1.46,8.015-6.212,8.041-11.353c0.034-7.229-4.363-11.728-13.843-11.084
	l-20.034,1.354l-0.235,48.25l20.032-1.356c11.05-0.749,15.356-6.919,15.397-15.296C157.388,49.437,154.704,44.213,148.004,44.059z
	 M135.385,30.996l3.208-0.217c2.71-0.183,4.194,2.011,4.181,4.718c-0.013,2.566-1.518,4.963-4.23,5.148l-3.208,0.216L135.385,30.996
	z M138.944,60.883l-3.706,0.253l0.055-11.759l3.708-0.25c2.423-0.164,4.694,1.779,4.679,5.492
	C143.659,58.539,141.367,60.719,138.944,60.883z"/>
<polygon fill="#403A60" points="183.115,57.042 183.092,47.418 199.337,46.628 199.314,36.733 183.066,37.521 183.045,29.249 
	200.391,28.409 200.3,17.979 169.406,19.179 169.531,68.006 201.147,66.47 201.121,56.168 "/>
<polygon fill="#403A60" points="225.837,17.846 212.575,18.099 213.511,66.657 243.329,65.817 243.519,55.865 226.63,56.288 "/>
<path fill="#403A60" d="M422.218,72.155c-0.665-1.002-0.673-4.235-0.681-6.731l-0.01-4.107c-0.016-6.4-2.008-10.417-8.62-11.548
	V49.63c6.236-0.315,8.945-4.249,8.927-10.646c-0.021-7.412-3.998-13.157-14.425-14.094l-21.367-1.919v48.621l13.814,1.176
	l-0.081-19.735l3.599,0.323c3.302,0.295,4.483,1.815,4.496,7.271l0.008,3.234c0.005,2.021,0.019,6.603,1.349,9.284l14.537,1.301
	l-0.002-0.673C422.881,73.292,422.583,72.726,422.218,72.155z M402.371,45.773l-2.72-0.242l-0.029-11.316l2.645,0.237
	c4.11,0.368,5.803,2.204,5.813,6.113C408.091,43.997,406.262,46.125,402.371,45.773z"/>
<path fill="#403A60" d="M82.57,25.49L69.585,75.013l13.804-1.212l2.42-8.894l9.871-1.194l1.393,9.032l15.81-1.242L99.011,24.231
	L82.57,25.49z M86.73,54.624l4.194-20.655l0.154-0.018l3.205,19.696L86.73,54.624z"/>
<path fill="#403A60" d="M52.169,51.171l-0.005-0.135c5.711-1.575,7.996-6.379,7.865-11.52c-0.18-7.235-4.806-11.65-14.469-10.818
	l-20.235,2.483l0.391,48.213l21.054-2.412c11.261-0.97,15.476-7.227,15.265-15.614C61.907,56.364,59.01,51.192,52.169,51.171z
	 M42.154,38.074c2.762-0.24,4.345,1.93,4.413,4.634c0.063,2.569-1.403,5-4.162,5.237l-3.271,0.282l-0.248-9.874L42.154,38.074z
	 M43.419,68.188l-4.713,0.391l0.042-12.039l4.378-0.117c2.467-0.214,4.705,1.766,4.799,5.485
	C48.025,65.828,45.891,67.977,43.419,68.188z"/>
</svg>
