<svg xmlns="http://www.w3.org/2000/svg" width="433.507" height="641.027" version="1.2" viewBox="0 0 325.13 480.77"><defs><clipPath id="c"><path d="M29 540.12h17v24.254H29z"/></clipPath><clipPath id="a"><path d="M0 0h9v11H0z"/></clipPath><clipPath id="b"><path d="M0 0h17v21H0z"/></clipPath></defs><g stroke-width=".05"><g clip-path="url(#c)" transform="translate(-583.45 -10707) scale(19.822)"><path d="M37.637 564.22c-2.148 0-4.168-.8-5.688-2.262-1.519-1.464-2.359-3.406-2.359-5.476v-16.2h16.09v16.2c0 2.07-.84 4.011-2.36 5.476-1.519 1.461-3.538 2.262-5.683 2.262"/><path fill="#fff" d="M45.836 540.12H29.434v16.355c0 1.066.219 2.106.648 3.078a7.875 7.875 0 0 0 1.758 2.512 8.176 8.176 0 0 0 2.606 1.687 8.453 8.453 0 0 0 3.187.621c1.106 0 2.18-.21 3.192-.62a8.22 8.22 0 0 0 2.605-1.688 7.886 7.886 0 0 0 1.762-2.512 7.644 7.644 0 0 0 .644-3.078zm-.316.316v16.04c0 4.187-3.532 7.581-7.887 7.581-4.352 0-7.883-3.394-7.883-7.582v-16.039h15.77"/></g><g fill="#fff"><path d="m106.296 370.525 20.131-56.911 10.53 34.147 25.397-90.283 23.616 90.283 14.866-33.295 16.647 56.059z"/><path d="M78.882 257.341H28.786v66.202c0 34.997 14.867 66.822 38.87 89.974 24.235 23.306 57.762 37.707 94.851 37.707 35.23 0 69.532-13.318 94.93-37.707 24.002-23.152 38.869-54.975 38.869-89.974V257.34H246.21v66.202c0 44.367-40.497 77.585-83.703 77.585-43.128 0-83.625-32.83-83.625-77.585zM262.85 209.174c-3.252 0-5.73 1.161-7.433 3.33-1.703 2.245-2.555 4.722-2.555 7.432 0 2.633.852 7.046 2.555 8.982 1.704 1.937 4.181 2.865 7.433 2.865 2.943 0 5.188-.93 6.66-2.71 1.47-1.857 2.4-3.872 2.632-6.117 0-3.252-.697-8.285-2.788-10.84-1.548-1.937-3.716-2.942-6.504-2.942m-10.762-9.137c8.75-8.285 24.236-7.201 34.147 1.548 5.343 4.723 6.891 12.544 7.124 19.745 0 7.82-2.4 14.634-7.124 20.208-4.8 5.653-10.376 8.44-19.357 8.44-1.936 0-3.95-.08-6.195-.31-2.168-.158-4.413-.618-6.659-1.16-5.885-1.549-11.382-4.956-16.338-10.376-4.955-5.343-7.433-14.247-7.433-26.713 0-1.548.078-3.174.155-4.8s.232-3.252.464-4.956c.93-8.285 3.64-15.95 8.13-22.918 4.492-6.891 12.157-11.924 23.075-11.924 1.472 0 3.562.159 6.04.386 2.555.232 5.11.853 7.82 1.858 3.64 1.239 7.046 3.33 10.144 6.194s5.187 8.672 6.117 14.17l-19.822.158c-.697-1.857-1.626-3.174-2.788-4.104-1.394-1.084-3.02-1.78-4.8-1.936-9.912-1.162-12.699 9.136-12.699 16.492m-97.096 9.447 34.998-43.748h20.363v46.46h10.22v19.666H210.51v15.641H187.9v-15.64h-32.908zm15.563 2.477h17.732v-22.84zm-81.147-7.046c-3.097-1.316-5.575-3.484-7.433-6.504-1.858-2.942-2.787-6.117-2.787-9.524 0-.463 0-1.007.077-1.548 0-.54.077-1.084.154-1.625.852-4.878 3.717-9.369 8.595-13.395 4.878-4.027 12.234-6.117 21.99-6.272h1.162c9.524 0 16.647 2.013 21.37 6.194 4.723 4.104 7.588 8.595 8.44 13.473.077.618.155 1.161.232 1.703v1.702c0 3.407-.774 6.504-2.478 9.447-1.626 2.865-4.103 5.033-7.355 6.349 3.794.852 6.891 3.175 9.291 7.123 2.323 3.794 3.485 8.053 3.485 12.622v1.161c0 .387 0 .698-.078 1.084-.62 5.653-3.407 10.763-8.362 15.331-4.956 4.569-13.008 6.892-24.003 6.892-11.537 0-20.054-2.323-25.475-6.892-5.42-4.568-8.44-9.678-9.137-15.33v-1.085c-.077-.386-.077-.775-.077-1.161v-.698c.077-3.95 1.239-7.743 3.484-11.305 2.323-3.64 5.265-6.194 8.905-7.743m21.99 7.743c-3.252 0-5.884.93-7.975 2.71-2.09 1.78-3.33 3.64-3.794 5.807 0 .232 0 .464-.077.775v.698c0 2.633.929 4.878 2.865 6.814 2.013 1.937 4.955 2.942 8.982 2.942 3.561 0 6.194-1.007 7.975-2.942 1.78-1.937 2.71-4.026 2.71-6.426 0-.232-.078-.544-.078-.776-.077-.309-.077-.618-.077-1.006-.387-2.091-1.549-4.027-3.407-5.808-1.936-1.857-4.258-2.787-7.123-2.787m.232-31.204c-3.02 0-5.497.698-7.356 2.09-1.858 1.317-3.02 2.866-3.639 4.57-.077.308-.154.54-.232.929v1.007c0 2.555.929 4.646 2.865 6.272 1.936 1.702 4.723 2.555 8.362 2.555 3.097 0 5.498-.775 7.124-2.4 1.626-1.549 2.478-3.33 2.71-5.343v-1.316c0-.232-.077-.464-.155-.698-.232-1.937-1.239-3.717-2.865-5.265-1.703-1.549-3.949-2.4-6.813-2.4m-85.328 2.71c11.537-2.091 20.52-5.42 21.99-18.429H65.33v81.766H43.417v-46.459H26.305zM38.921 57.734H29.32V23.2h24.468v6.659H38.922v8.052h13.782v6.66H38.922zM91.806 23.243V45.08c-.077 9.602-7.82 13.395-16.492 13.395-8.75 0-16.415-3.793-16.493-13.395V23.243h9.602v21.37c.077 4.414 2.4 7.124 6.891 7.124s6.814-2.71 6.891-7.124v-21.37zM117.139 33.352c0-1.393-.387-2.4-1.24-3.097-.85-.697-2.09-1.084-3.716-1.084-2.168 0-4.103 1.47-4.103 3.175 0 2.477 3.097 3.33 5.574 4.026 5.808 1.47 14.248 2.013 14.248 11.382 0 7.201-7.201 10.685-15.177 10.685-8.052 0-15.098-2.322-15.253-11.691h9.601c-.077 3.174 2.323 4.955 5.73 4.955 2.245 0 5.033-1.161 5.033-3.407 0-4.723-7.046-3.716-14.557-6.969-3.484-1.548-5.188-4.723-5.188-8.44.387-8.13 7.511-10.375 14.712-10.375 7.124 0 14.48 2.478 13.86 10.84zM151.907 33.352c0-1.393-.388-2.4-1.24-3.097-.851-.697-2.09-1.084-3.716-1.084-2.168 0-4.104 1.47-4.104 3.175 0 2.477 3.097 3.33 5.575 4.026 5.807 1.47 14.247 2.013 14.247 11.382 0 7.201-7.2 10.685-15.176 10.685-8.052 0-15.099-2.322-15.253-11.691h9.523c0 3.174 2.4 4.955 5.808 4.955 2.245 0 5.033-1.161 5.033-3.407 0-4.723-7.046-3.716-14.557-6.969-3.484-1.548-5.265-4.723-5.265-8.44.387-8.13 7.588-10.375 14.789-10.375 7.123 0 14.402 2.478 13.86 10.84zM183.344 50.994c2.4 0 4.182-1.393 4.182-3.562 0-1.936-1.317-3.716-3.485-3.871h-6.272v7.433zm-5.575-14.092 4.878-.08c2.556 0 4.259-.929 4.259-3.638 0-1.937-1.704-3.33-3.872-3.33h-5.265zm-9.524 20.829V23.197h16.493c6.504 0 12.002 2.942 12.002 8.982 0 4.259-3.64 6.891-7.511 7.588v.08c4.646.618 8.362 3.561 8.362 8.517 0 9.988-12.853 9.369-13.163 9.369zM223.603 44.255l-4.414-14.325h-.154l-4.647 14.325zM200.14 57.727l13.628-34.533h11.692l13.627 34.533h-10.84l-2.323-6.736h-13.937l-2.323 6.736zM242.89 57.734V23.2h9.6v27.796h15.642v6.737zM272.385 57.734V23.2h9.524v27.796h15.64v6.737zM203.384 75.772h30.431l16.57 51.103 18.428-51.103h28.726l-30.662 81.92H233.35zM119.062 129.291c.851 7.898 4.336 14.325 10.607 19.435 6.195 5.11 19.28 9.137 35.464 9.137 9.137 0 16.802-1.085 22.84-3.253 6.118-2.168 10.841-5.342 14.17-9.523 3.33-4.182 5.343-6.35 5.343-11.305 0-14.944-8.672-17.886-17.731-21.681-5.575-2.323-13.24-4.646-26.094-6.892-5.188-.93-8.44-1.857-9.833-2.864-1.394-1.007-2.168-2.091-2.168-3.33 0-6.581 15.098-7.046 19.434-4.026 2.4 1.548 3.33 2.864 4.027 6.426l29.578.159c-1.239-8.053-7.433-16.415-13.86-20.054-6.349-3.717-15.64-5.575-27.796-5.575-9.911 0-16.803 1.937-22.455 3.949-5.73 2.09-9.214 4.878-12.079 8.44-2.787 3.484-4.955 7.278-4.955 11.305 0 6.117 1.858 12.31 7.433 16.26 5.42 3.949 14.634 7.046 27.487 9.446 7.898 1.394 12.93 2.865 15.099 4.491 2.168 1.548 3.252 1.239 3.252 3.252 0 2.09-1.161 3.95-3.407 5.575-2.323 1.626-5.497 2.4-9.679 2.4-6.814 0-13.008-3.794-14.247-11.304zM24.61 129.291l30.43.464c1.24 7.51 7.434 11.304 14.247 11.304 4.182 0 7.434-.775 9.68-2.4 2.245-1.625 3.406-3.484 3.406-5.575 0-2.013-1.084-1.702-3.252-3.252-2.168-1.625-7.2-3.097-15.021-4.49-12.93-2.401-22.068-5.498-27.565-9.447-5.575-3.95-7.433-10.143-7.433-16.26 0-4.027 1.471-7.82 4.259-11.305 2.865-3.562 7.123-6.35 12.776-8.44 5.73-2.013 12.543-3.949 22.454-3.949 12.156 0 21.447 1.857 27.796 5.575 6.427 3.64 12.621 12.002 13.86 20.054l-29.5-.159c-.775-3.561-1.704-4.878-4.027-6.426-4.414-3.02-19.512-2.555-19.512 4.026 0 1.239.774 2.323 2.168 3.33 1.393 1.007 4.645 1.934 9.833 2.864 12.854 2.246 20.52 4.569 26.094 6.892 9.06 3.794 17.809 6.736 17.809 21.68 0 4.956-2.09 7.124-5.42 11.306-3.33 4.18-8.053 7.355-14.17 9.523-6.04 2.169-13.628 3.253-22.84 3.253-16.184 0-29.27-4.027-35.464-9.137-6.272-5.11-9.757-11.537-10.608-19.435"/></g></g></svg>