<svg xmlns="http://www.w3.org/2000/svg" xmlns:xlink="http://www.w3.org/1999/xlink" width="260.84" height="390.77" version="1.2" viewBox="0 0 195.63 293.08"><use x="151.53" y="56.884" width="100%" height="100%" xlink:href="#a" transform="translate(-238.67 -289.96)" fill="#211e1e"/><path d="m98.084 83.834 96.337-17.587v-7.973L98.084 75.86 1.815 58.274v7.973" fill="#d7171e" style="stroke-width:5.7501;fill:red"/><path d="M98.084 91.712 1.792 73.832v98.85c0 69.836 96.315 119.022 96.315 119.022s96.314-49.19 96.314-119.021v-98.85" fill="#68a8e1" style="stroke-width:5.7501;fill:#37b3f1;fill-opacity:1"/><path d="m128.1 22.71-22.395-.74L98.091.9l-7.614 21.07-22.394.74 17.7 13.747-6.245 21.518 18.554-12.578 18.553 12.578-6.222-21.518" fill="#ba8f30" style="stroke-width:5.7501;fill:#c3a145;fill-opacity:1"/><path d="m135.581 180.206-37.51 65.787-37.488-65.787-38.97-65.81 50.47 7.21 25.988 44.182 26.01-44.182 50.47-7.21M102.173 39.214h-8.266c0-4.133 1.326-5.48 2.875-7.009 2.359-2.336 2.494-2.47 2.494-3.638V26.77c0-.472-.068-1.37-1.146-1.37-1.235 0-1.325.83-1.325 1.505v1.886h-2.583V26.86c0-.697.023-1.865 1.055-2.74.944-.787 2.202-.832 2.763-.832 1.707 0 3.347.584 3.774 2.246.023.09.18.966.18 1.64v1.595c0 1.684-.405 2.268-2.27 4.133-2.448 2.47-2.695 2.718-2.785 3.93h5.234" fill="#fff" style="stroke-width:5.7501"/><g fill="#fff"><use x="104.06" y="522.538" width="100%" height="100%" xlink:href="#b" transform="translate(-238.67 -289.96)"/><use x="207.108" y="522.538" width="100%" height="100%" xlink:href="#b" transform="translate(-238.67 -289.96)"/><use x="226.556" y="522.538" width="100%" height="100%" xlink:href="#b" transform="translate(-238.67 -289.96)"/><use x="315.766" y="522.538" width="100%" height="100%" xlink:href="#b" transform="translate(-238.67 -289.96)"/></g></svg>