<?xml version="1.0" encoding="UTF-8"?>
<!-- Generator: Adobe Illustrator 19.1.0, SVG Export Plug-In . SVG Version: 6.00 Build 0)  -->
<svg width="316" height="316" version="1.1" viewBox="0 0 316 316" xml:space="preserve" xmlns="http://www.w3.org/2000/svg">
<style type="text/css">
	.st0{fill:#FFFFFF;}
	.st1{fill:#65B32E;}
</style>

<g transform="matrix(4.4009 0 0 4.4009 -29.259 -28.87)"><path class="st0" d="m78 42.6c0 19.6-15.9 35.4-35.5 35.4s-35.5-15.8-35.5-35.4 15.9-35.6 35.5-35.6 35.5 14.1 35.5 35.6z"/>
	<path class="st1" d="m7.7 42.5c0.6-21.6 15.5-30.4 25.3-33.5 4.5-1.4 8.4-1.5 8.4-0.9 0 0.4-3.4 0.1-8.1 1.8-8.3 3-20 10.4-20.7 29.4 0 17.5 14.2 31.6 31.7 31.6s31.6-14.2 31.6-31.6c0-3.7-0.6-6.7-1.5-9.2-1.5-4.5-3.4-6.6-2.6-6.6 0.6 0 2.3 3.5 3.5 6.8 1.4 3.8 2 7.3 2 12.3 0 19.2-15.6 34.8-34.8 34.8-19.2-0.1-34.8-15.6-34.8-34.9z"/>
	<path class="st1" d="m39 31.6c0-6.2 10.2-5.6 10.2-5.6v22c0 1.5 1 2.5 2.7 2.5 2.8 0 2.6-2.5 2.6-2.5v-22.7c0-5.5 10.1-5.5 10.1-5.5v31.2c-0.9 5.5-5.7 9.8-11.3 9.8-3.7 0-7-1.8-9.1-4.7-2.2 2.9-5.5 4.7-9.2 4.7-5.7 0-10.4-4.2-11.3-9.8l-0.1-1.8v-23.8c0-5.5 10.1-5.5 10.1-5.5v28.3c0 1.6 1.1 2.5 2.6 2.5s2.8-0.9 2.8-2.5c-0.1-0.2-0.1-11.4-0.1-16.6z"/>
</g>
</svg>