<svg width="505.55" height="515" version="1.2" viewBox="0 0 379.16 386.25" xmlns="http://www.w3.org/2000/svg"><g stroke-width=".235"><path d="m332.216 92.633 38.91-29.483-54.44-57.353s-21.102 12.954-127.274 12.954c-97.108 0-127.26-12.954-127.26-12.954L7.711 63.15l38.91 29.483v175.014s-.83 27.486 13.02 42.769c18.74 20.669 39.826 23.978 74.411 31.843 52.198 11.857 55.357 41.921 55.357 41.921s3.176-30.064 55.357-41.92c34.604-7.866 55.688-11.175 74.41-31.844 13.852-15.282 13.037-42.77 13.037-42.77z"/><path d="M51.005 238.644v29.15c-.017.25-.582 25.941 11.89 39.692 16.312 18.01 34.304 22.033 64.134 28.701 2.594.582 5.255 1.181 7.999 1.796 33.922 7.716 48.307 22.964 54.373 33.74 6.07-10.775 20.47-26.024 54.39-33.74 2.744-.615 5.404-1.214 7.982-1.796 29.831-6.668 47.839-10.692 64.151-28.7 12.472-13.752 11.89-39.443 11.89-39.693v-93.051z" fill="#fff"/><g fill="#e10226"><path d="M57.901 237.027s-.432 28.401 0 37.863c.35 7.865 2.91 20.486 9.861 28.152 4.972 5.487 10.11 9.528 15.83 12.754v-84.691zM295.224 182.24V315.8c5.72-3.225 10.841-7.266 15.83-12.753 6.95-7.666 9.512-20.287 9.86-28.153 1.098-24.61 0-98.572 0-98.572zM247.76 193.223V330.36c.847-.2 1.712-.382 2.543-.565 8.797-1.979 16.396-3.692 23.147-5.538v-136.97zM200.295 204.163v145.684c6.468-4.955 14.866-9.66 25.691-13.552V198.244zM152.83 215.104v121.172c10.826 3.891 19.206 8.597 25.692 13.553V209.185zM105.366 226.086v98.16c6.75 1.846 14.334 3.559 23.114 5.521.848.183 1.712.383 2.577.582V220.168z"/></g><path d="m327.831 90.462 1.73-1.314 35.003-26.523-48.938-51.564c-9.278 3.576-40.424 12.09-126.208 12.09-81.63 0-116.367-9.063-126.043-12.24L14.272 62.625l35.003 26.523 1.746 1.314v63.904z" fill="#5ca1d4"/><path d="M327.831 94.974 51.018 158.879v75.261l276.813-63.904z" fill="#fff"/><g fill="#e10226"><path d="M144.912 143.715c-.548.083-62.555 14.517-66.314 15.382-1.496.332-1.912.332-1.08 1.164l.183.183c.881.914 3.575 3.642 4.839 7.932 1.23 4.19-.666 21.667-.749 22.415l-.1.332s-2.194 4.424-3.458 6.934l35.552-8.596s.415-.117.3-.333c-.1-.2-.467-.365-.965-.499-1.447-.349-1.913-2.028-1.98-2.91l.35-11.939.682-.233c12.022-3.89 19.82-3.824 21.268-3.342.166.066.432.1.565-.034.166-.167.183-.416.183-.682-.05-2.029.133-6.419.133-7.533 0-.299-.017-.299-.167-.365-.166-.083-.398-.034-.582.034-7.017 2.328-20.503 5.221-21.118 5.32l-1.18.184.083-9.428.748-.183s10.543-2.727 18.624-4.889c7.383-1.945 13.569-.482 15.897.25.066 0 .1-.017.116-.732 0-1.763-.05-6.585-.166-7.932-.05-.765-1.18-.582-1.663-.499"/><path d="M146.743 152.187c-.017.715-.05.731-.116.731-2.328-.731-8.497-2.195-15.897-.233-8.082 2.129-18.624 4.873-18.624 4.873l-.749.183-.083 9.445 1.181-.2c.615-.1 14.101-2.993 21.118-5.321.183-.066.416-.116.582-.034.15.066.167.066.167.366 0 1.13-.183 5.504-.133 7.532 0 .266-.017.516-.183.682-.133.133-.4.1-.566.034-1.446-.482-9.245-.549-21.268 3.359l-.681.216-.35 11.94c.067.88.533 2.56 1.98 2.91.498.116.88.299.964.498.116.217-.3.333-.3.333l-35.551 8.597c1.263-2.511 3.458-6.934 3.458-6.934l.1-.35c.083-.731 1.979-18.208.748-22.398-1.263-4.29-3.957-7.017-4.838-7.932l-.184-.183c-.831-.815-.415-.831 1.081-1.164 3.758-.865 65.765-15.298 66.314-15.381.482-.083 1.613-.266 1.663.498.117 1.347.167 6.17.167 7.932M217.152 144.354c-2.794-.432-13.27 2.112-19.372 3.841-2.278.632-4.24 1.18-5.471 1.48-2.544.632-4.473.582-5.903-.133-1.28-.648-2.228-1.762-2.511-3.475-.649-3.891 3.192-5.305 3.359-5.388 1.58-1.047 26.572-6.8 27.936-6.767 1.895.066 3.442 1.596 3.741 2.012.632.831 1.247.465 1.214.066-.017-1.197-.034-7.483-.05-8.48 0-.533-.216-.832-.515-1.098a.878.878 0 0 0-.566-.233c-1.047.1-10.725 1.996-18.64 3.958-9.428 2.361-24.345 6.252-34.82 9.03-3.093.814-6.918 1.978-8.68 4.472-3.692 5.222-3.044 9.828-2.761 13.187.2 2.328.682 3.758 1.946 4.69 2.477 1.795 7.083.814 7.133.797.183-.05 17.976-4.772 22.582-5.836 3.06-.699 5.687-.466 7.4.648.964.632 1.563 1.514 1.762 2.545.699 3.724-2.045 5.487-3.575 5.903-11.756 2.86-31.544 7.565-32.392 7.632-1.43.1-2.345-1.03-2.877-1.879-.283-.449-1.13-.482-1.247-.083-.216.765-.665 7.932-.599 8.697.116 1.164 1.447 1.014 2.079.831l17.31-4.074c.382-.083 38.495-8.896 44.263-11.007 5.321-1.946 6.95-11.69 6.435-15.249-.565-3.957-4.123-5.603-7.183-6.086"/><path d="M217.918 165.681c-5.77 2.112-43.884 10.925-44.263 11.008l-17.294 4.074c-.648.183-1.978.332-2.095-.848-.066-.732.382-7.915.599-8.68.116-.4.964-.366 1.247.083.532.848 1.463 1.978 2.877 1.862.864-.05 20.636-4.756 32.392-7.616 1.53-.399 4.274-2.178 3.575-5.903-.2-1.031-.798-1.912-1.762-2.544-1.713-1.114-4.34-1.347-7.4-.649-4.606 1.065-22.399 5.787-22.582 5.837-.05.017-4.656 1.014-7.133-.798-1.264-.931-1.746-2.362-1.946-4.69-.283-3.359-.931-7.965 2.76-13.186 1.763-2.495 5.588-3.658 8.68-4.473 10.476-2.777 25.392-6.668 34.82-9.03 7.916-1.962 17.594-3.858 18.641-3.957.233 0 .45.116.566.233.299.282.515.565.515 1.097 0 .998.034 7.283.05 8.48.034.4-.582.765-1.214-.066-.3-.399-1.846-1.945-3.741-1.995-1.364-.05-26.356 5.703-27.936 6.75-.183.084-4.008 1.497-3.36 5.388.283 1.713 1.231 2.827 2.512 3.476 1.413.715 3.359.765 5.903.133 1.247-.3 3.192-.849 5.487-1.497 6.103-1.73 16.562-4.274 19.356-3.825 3.06.483 6.618 2.129 7.184 6.086.515 3.559-1.115 13.303-6.436 15.249M300.29 107.957l-17.028 3.925c.083.083.183.2.316.316 1.23 1.147 1.679 4.14 1.213 8.547-.532 5.204-8.097 19.538-8.447 20.154l-.848 1.496-.898-1.463c-.266-.433-6.834-10.393-8.63-15.349-1.546-4.306-1.064-6.052-.848-6.535.366-.848 1.297-1.646 1.18-2.112-.082-.332-.349-.582-.947-.432-.183.05-30.28 7.05-33.058 7.749-.382.1-.864.183-.93.449-.05.166 0 .316.515.665.781.532 2.86 2.86 3.209 3.492.25.466 12.837 24.427 14.8 27.836.448.749.715 1.597 1.446 1.746.499.083 2.112-.316 2.112-.316l7.233-1.696c5.72-1.214 16.862-3.691 18.292-4.107 1.03-.3 1.68-1.829 1.68-1.846 2.477-5.304 4.988-10.642 7.35-15.697 6.684-14.234 11.223-23.662 12.32-24.81.899-.947 1.065-1.48.849-1.879-.166-.332-.499-.216-.881-.132"/><path d="M300.332 110c-1.098 1.148-5.637 10.577-12.322 24.81-2.361 5.055-4.872 10.393-7.35 15.698 0 0-.648 1.546-1.68 1.845-1.43.416-12.57 2.894-18.29 4.124l-7.234 1.68s-1.613.415-2.112.316c-.731-.15-.998-.998-1.43-1.746-1.979-3.41-14.567-27.37-14.816-27.837-.35-.631-2.428-2.96-3.21-3.475-.531-.366-.565-.515-.515-.682.067-.282.532-.349.931-.449 2.777-.698 32.875-7.699 33.058-7.748.598-.15.864.1.948.432.132.465-.815 1.264-1.181 2.112-.216.499-.698 2.228.848 6.535 1.796 4.955 8.364 14.916 8.63 15.348l.898 1.48.848-1.513c.35-.615 7.915-14.95 8.464-20.154.449-4.407.017-7.4-1.23-8.547-.133-.116-.233-.233-.316-.316l17.027-3.924c.383-.083.715-.2.882.133.216.399.05.93-.848 1.879"/></g><path d="M146.743 152.187c-.017.715-.05.731-.116.731-2.328-.731-8.497-2.195-15.897-.233-8.082 2.129-18.624 4.873-18.624 4.873l-.749.183-.083 9.445 1.181-.2c.615-.1 14.101-2.993 21.118-5.321.183-.066.416-.116.582-.034.15.066.167.066.167.366 0 1.13-.183 5.504-.133 7.532 0 .266-.017.516-.183.682-.133.133-.4.1-.566.034-1.446-.482-9.245-.549-21.268 3.359l-.681.216-.35 11.94c.067.88.533 2.56 1.98 2.91.498.116.88.299.964.498.116.217-.3.333-.3.333l-35.551 8.597c1.263-2.511 3.458-6.934 3.458-6.934l.1-.35c.083-.731 1.979-18.208.748-22.398-1.263-4.29-3.957-7.017-4.838-7.932l-.184-.183c-.831-.815-.415-.831 1.081-1.164 3.758-.865 65.765-15.298 66.314-15.381.482-.083 1.613-.266 1.663.498.117 1.347.167 6.17.167 7.932m-2.195-10.426c-.632.15-62.692 14.467-66.446 15.415-1.28.316-2.794.831-3.126 2.045-.316 1.114.548 1.962 1.13 2.528l.15.166c.815.815 3.226 3.276 4.34 7.068.931 3.126-.233 16.362-.782 21.45-.432.849-2.427 4.84-3.525 7.018-.532 1.064-.183 1.729.083 2.045.383.432 1.015.599 1.796.615 1.18 0 30.13-7.017 34.92-8.165 1.63-.398 3.292-1.014 3.425-2.46.117-1.348-1.929-2.329-2.46-2.545-.998-.365-.865-1.68-.882-1.68l.3-9.96c11.955-3.79 18.989-3.275 19.621-3.06 1.513.516 2.777-.598 3.06-1.38 0 0 .183-7.366.2-8.846.016-1.746-1.181-2.544-2.229-2.394-1.78.283-17.11 4.54-20.802 5.171l.05-5.47c2.544-.666 11.074-2.894 17.875-4.69 7.417-1.962 13.237-.433 14.916.15.516.166 1.347.132 1.713-.233.615-.599.815-1.93.781-2.694 0-.25.167-6.103-.066-7.882-.266-1.862-2.228-2.461-4.04-2.212M154.235 179.942c-.066-.765.382-7.932.599-8.697.116-.4.964-.366 1.247.083.532.848 1.447 1.979 2.877 1.879.848-.067 20.636-4.773 32.392-7.633 1.53-.416 4.274-2.178 3.575-5.903-.2-1.03-.798-1.912-1.762-2.544-1.713-1.114-4.34-1.347-7.4-.649-4.606 1.065-22.399 5.787-22.582 5.837-.05.017-4.639.998-7.134-.798-1.263-.931-1.746-2.345-1.945-4.69-.283-3.358-.931-7.965 2.76-13.186 1.763-2.494 5.587-3.658 8.68-4.473 10.476-2.777 25.392-6.668 34.837-9.03 7.899-1.962 17.577-3.857 18.624-3.957.233 0 .433.116.566.233.299.266.515.565.515 1.097.017.998.034 7.283.05 8.48.034.4-.582.766-1.214-.066-.3-.398-1.846-1.945-3.741-2.012-1.364-.034-26.357 5.72-27.936 6.768-.167.083-4.008 1.497-3.36 5.388.283 1.712 1.215 2.826 2.512 3.458 1.43.732 3.359.782 5.903.15 1.247-.3 3.192-.848 5.47-1.48 6.103-1.73 16.563-4.273 19.373-3.841 3.06.482 6.618 2.128 7.183 6.086.516 3.559-1.114 13.303-6.435 15.248-5.77 2.112-43.884 10.925-44.263 11.008l-17.294 4.074c-.648.183-1.978.333-2.095-.831m63.224-37.58c-2.993-.483-11.408 1.396-20.237 3.89-2.262.632-4.174 1.181-5.404 1.464-2.029.499-3.559.499-4.523.017-.732-.366-1.247-1.031-1.447-2.129-.349-1.945 1.946-2.926 2.395-3.176 1.58-.814 25.225-6.435 26.921-6.485.532-.017 1.88.566 2.71 1.347.932.865 1.63 1.397 2.478 1.247 1.247-.216 1.73-1.396 1.763-1.795.183-2.295-.017-8.115-.017-9.213.017-.931-.433-1.929-1.164-2.61-.616-.55-1.347-.815-2.112-.749-1.414.133-12.305 2.694-17.876 4.008-6.468 1.513-26.24 6.501-36.416 9.079-7.55 1.929-9.113 4.49-10.227 6.767-3.359 6.901-2.993 16.18.532 19.107 3.293 2.71 8.647 1.197 8.863 1.13.183-.034 17.942-4.755 22.532-5.803 2.477-.582 4.606-.449 5.82.366.499.315.765.748.898 1.213.715 2.844-1.863 3.51-2.112 3.592-12.205 2.96-30.796 7.483-31.844 7.55-.715.05-1.097-.6-1.646-1.214-.948-1.048-1.946-1.048-2.511-.948-1.23.2-1.83.632-1.896 1.446-.216 2.594-.315 10.36-.315 10.36 0 1.064.548 1.613.88 1.846.433.282.965.399 1.48.399 1.298 0 19.09-4.39 19.09-4.39 1.58-.366 38.628-8.93 44.498-11.091 6.302-2.312 8.347-12.705 7.749-17.427-.483-3.825-3.925-7.017-8.863-7.799M253.42 158.146s-1.612.416-2.111.316c-.732-.15-.998-.998-1.447-1.746-1.962-3.409-14.55-27.37-14.8-27.836-.348-.632-2.427-2.96-3.209-3.492-.515-.35-.548-.499-.515-.649.066-.282.549-.365.931-.465 2.777-.699 32.875-7.7 33.058-7.75.598-.148.864.1.947.433.133.466-.814 1.264-1.197 2.112-.2.482-.682 2.228.865 6.535 1.796 4.956 8.364 14.916 8.63 15.349l.898 1.463.848-1.497c.349-.615 7.915-14.949 8.447-20.154.466-4.406.017-7.383-1.214-8.547a2.82 2.82 0 0 1-.315-.315l17.027-3.925c.382-.083.715-.2.881.133.217.399.067.931-.848 1.88-1.097 1.146-5.637 10.575-12.321 24.809-2.361 5.055-4.872 10.393-7.35 15.697 0 .017-.649 1.547-1.68 1.846-1.43.416-12.587 2.893-18.291 4.107zm46.742-52.18-.217.016c-.632.133-15.63 3.442-17.127 3.941-.948.3-1.762.566-1.962 1.414-.183.864.615 1.463 1.314 2.36.848 1.065 1.53 2.562.848 6.802-.665 4.157-4.906 13.32-7.55 18.208-1.845-3.06-6.052-10.326-7.682-13.934-1.812-3.991-.615-5.505-.515-5.637l1.114-1.713c.615-.931.365-1.613.166-1.946-.682-1.114-2.46-1.23-3.558-.947-1.264.299-30.93 7.233-33.723 7.948-.516.133-2.112.532-2.345 1.846-.166.881.366 1.746 1.513 2.527.383.25 1.93 1.647 2.894 3.06 1.23 1.83 12.804 24.494 14.8 27.836 1.014 1.696 1.795 2.378 2.643 2.594.699.183 1.514.1 2.179-.066l8.131-1.846c.782-.166 16.595-3.642 18.474-4.157 1.58-.432 2.944-3.093 2.944-3.093a3892.956 3892.956 0 0 0 7.3-15.514c5.52-11.756 9.494-22.715 11.772-24.694.865-.748 1.38-2.41 1.397-3.359 0-1.147-.998-1.895-2.81-1.646"/><g fill="#191719"><path d="M108.473 215.146a1107.24 1107.24 0 0 0 10.127-17.792v-.083c-3.06.665-6.152 1.33-9.229 1.995v-3.176c4.59-.981 9.179-1.979 13.752-2.96.017.898.017 1.33.034 2.228a1118.187 1118.187 0 0 1-9.744 17.51v.1c3.325-.748 6.651-1.513 9.994-2.262 0 1.248.017 1.88.017 3.143-4.972 1.13-9.96 2.278-14.95 3.409zM140.017 210.08c-1.546-6.535-3.06-13.07-4.606-19.588 1.397-.3 2.079-.449 3.442-.748.599 2.976 1.197 5.97 1.796 8.946.432 2.295.848 4.59 1.23 6.884.018 0 .035 0 .05-.017.3-2.494.749-4.972 1.164-7.45.582-3.225 1.164-6.451 1.73-9.677 1.297-.283 1.962-.432 3.242-.715.616 3.01 1.23 6.02 1.83 9.03.415 2.21.781 4.423 1.114 6.667.017-.017.034-.017.05-.017.282-2.46.648-4.905 1.047-7.333.532-3.192 1.048-6.385 1.563-9.594 1.23-.266 1.83-.4 3.043-.665-1.33 7.133-2.76 14.25-4.107 21.384-1.297.299-1.946.449-3.26.748-.648-3.076-1.28-6.136-1.912-9.212a100.416 100.416 0 0 1-1.047-6.27c-.017 0-.034 0-.05.017a117.654 117.654 0 0 1-1.031 6.735l-1.846 10.077c-1.363.316-2.045.482-3.442.798M171.05 182.58c.15 6.752.2 13.52.332 20.271l-2.86.665c-.133-6.767-.2-13.519-.332-20.287a233.03 233.03 0 0 1 2.86-.648M194.676 196.884c-.649.582-2.145 1.364-3.925 1.83-5.304 1.363-7.898-4.008-7.932-8.415-.034-5.055 2.511-11.374 8.065-12.571 1.813-.382 3.126-.183 3.708.083-.216 1.247-.332 1.862-.548 3.093-.732-.25-1.763-.383-2.994-.1-3.857.882-5.288 5.155-5.271 8.63 0 3.093 1.563 6.984 5.388 6.053 1.08-.266 2.261-.831 3.01-1.43l.498 2.827M205.956 174.62c1.115-.266 1.68-.382 2.81-.648.035 3.093.05 6.202.05 9.295.034 0 .034 0 .067-.017.365-.848.765-1.646 1.13-2.427 1.38-2.678 2.744-5.371 4.075-8.082 1.396-.316 2.111-.482 3.541-.815a936.284 936.284 0 0 1-5.404 9.878c1.93 3.425 3.841 6.85 5.77 10.26-1.346.316-2.012.465-3.358.781-1.464-2.76-2.944-5.504-4.424-8.264-.565.981-.848 1.48-1.397 2.46 0 2.379.017 4.757.05 7.135-1.114.266-1.68.399-2.777.648-.1-6.734-.05-13.47-.133-20.204M232.69 182.921a250.215 250.215 0 0 0-1.43 6.103c-1.247.3-1.863.432-3.093.715 1.68-7.183 3.658-14.284 5.404-21.45 1.563-.366 2.345-.55 3.924-.915 1.846 6.319 3.575 12.654 5.404 18.973-1.363.299-2.045.465-3.392.765-.515-1.796-1.014-3.609-1.513-5.421-1.78.415-3.542.815-5.305 1.23m4.84-3.89c-.516-1.83-.766-2.761-1.264-4.607-.316-1.147-.582-2.46-.815-3.591-.034.017-.034.017-.05.017-.266 1.23-.549 2.71-.832 3.957-.448 1.746-.914 3.492-1.363 5.222 1.713-.383 2.577-.582 4.323-.998M258.785 162.488c-.017 3.925-.1 7.85-.2 11.79.133 2.295.615 5.653 3.741 4.888 3.01-.748 4.157-3.857 4.19-6.717.117-3.925.217-7.85.234-11.79 1.43-.332 2.145-.499 3.608-.831a537.103 537.103 0 0 1-.25 11.556c-.034 5.072-2.86 9.645-7.915 10.842s-7.1-2.843-7-7.383c.1-3.858.183-7.716.2-11.59 1.346-.3 2.028-.466 3.392-.765"/></g><path d="M284.156 63.388c-.5-.366-4.09 3.542-7.017 5.171-.882.482-1.397.665-1.78.765 0 0 .183-.333.665-1.247.799-1.497 1.264-3.176 1.697-4.623.398-1.347 2.294-12.654-.217-13.502-1.23-.433-2.644 4.69-5.753 7.2-1.73 1.397-5.454 2.744-7.45 2.843-.2.017-.382.017-.598.017-1.48 0-3.576-.2-5.804-.398-2.677-.25-5.438-.516-7.948-.533h-.217c-5.986 0-11.024 1.447-14.666 4.407.15-.582 1.78-6.984 2.411-11.324.765-5.305-.532-9.295-3.957-12.189-4.889-4.14-12.488-5.554-15.531-5.97a26.134 26.134 0 0 0-3.293-.232c-3.758 0-6.07 1.08-7.5 2.444-.282.283-.498.582-.714.865v-.05s-.034.05-.067.133c-.15.2-.282.415-.398.615a.466.466 0 0 0-.117.133c-.216.166-.964.449-1.83.748-2.527.882-8.014 3.41-8.014 3.41s-1.397.581-1.413.93c-.035.316.731.45.731.45l4.573.83-3.708 2.08s-.965.482-.882.83c.1.55 1.065.466 1.065.466s2.777-.15 5.121-.382a19.13 19.13 0 0 1 4.457.116l2.078.699c2.029 1.38 4.457 1.63 5.887 1.63.465 0 .914-.018 1.33-.067 1.164-.133 2.195-.333 3.509-.582.715-.133 1.53-.266 2.51-.45 3.26-.614 4.174.15 4.357.583.15.316-.017.765-.034 1.064-.133 1.48-.898 4.323-1.28 5.687-.632 2.378-1.896 5.77-2.994 8.763-.764 2.079-1.496 4.04-1.962 5.538-.681 2.145-1.33 4.622-.698 7.333-2.328-.599-5.122-1.098-8.78-1.098h-.582c-3.841.05-7.383.832-10.442 2.279.05-.6.1-1.198.166-1.796.316-3.559.648-7.234.615-10.06-.1-5.621-1.846-8.065-3.242-10.011-.133-.2-.266-.383-.4-.566-2.111-3.06-7.682-6.884-10.758-8.264-2.977-1.364-5.57-2.079-8.148-2.295-.25-.017-.582-.034-.965-.034-4.722 0-8.081 2.029-9.195 5.288-.3.116-.649.25-1.031.382-2.545.882-8.015 2.561-8.015 2.561s-1.23.2-1.314.649c-.083.449.399.632.632.731 1.896.865 5.52 1.065 5.52 1.065l-4.655 2.677s-.964.5-.88.865c.099.532 1.063.449 1.063.449s5.887.034 8.215.432c2.045.35 3.774.599 5.171.799 1.463.515 2.96.631 4.157.631.4 0 .782-.017 1.131-.034l.466-.017h.382c.566 0 1.247-.017 1.996-.017 2.71 0 3.658.183 3.94.266 1.281.366 2.428 1.131 3.143 1.963.632.715.732 3.209.566 5.487-.1 1.164-.466 3.326-.898 5.587-.366-.017-2.578-.133-5.587-.831-1.53-.366-3.077-.798-4.723-1.247-4.806-1.33-9.761-2.71-15.198-2.71h-.2c-5.903.033-10.975 1.895-14.45 5.27a35.963 35.963 0 0 1 .017-3.01c.565-14.35-1.214-24.393-5.255-29.847-3.425-4.64-11.024-6.835-15.015-7.134a13.133 13.133 0 0 0-.865-.034c-3.691 0-7.682 1.43-9.628 4.49-.116.1-.2.2-.282.266-.217.166-.965.449-1.83.748-2.527.881-9.61 1.946-9.61 1.946s-1.464.216-1.464.648c0 .466.831.865.831.865l4.14 2.328-1.961 1.363s-1.364.865-1.28 1.23c.099.533 1.064.433 1.064.433s3.408.034 5.753-.2a18.592 18.592 0 0 1 4.457.133l1.18.383c1.164 1.247 2.744 2.178 4.723 2.66.549.15 1.147.2 1.813.2 1.097 0 2.228-.166 3.408-.349 1.214-.183 2.461-.365 3.625-.365.266 0 .533 0 .799.034 1.114.1 2.477 1.13 2.777 1.63.332.565.897 2.477.93 8.746.018 3.193-.847 8.913-1.546 13.519-.332 2.245-.665 4.373-.864 6.053-.283 2.394-.383 6.485.034 10.227.93 8.297 6.485 13.95 15.231 15.53 1.497.267 3.26.4 5.255.4 7.1 0 17.427-1.797 22.399-4.79l.449-.282c2.976-1.78 5.686-3.426 8.297-7.516.034.582.083 1.147.15 1.68 1.53 10.16 9.462 13.086 12.438 14.2 3.193 1.18 7.483 1.862 11.74 1.862 2.012 0 4.024-.15 6.02-.449 8.314-1.214 14.682-3.808 20.037-8.165 3.16-2.544 7.416-6.435 9.91-9.677.133-.183.216-.35.333-.516 11.058 1.114 16.695-.781 20.885-2.76 4.14-1.962 11.158-6.302 14.783-13.336 3.708-7.2 4.639-15.165 3.874-15.747"/><g fill="#fff"><path d="M217.663 37.378c-3.609-.499-8.714-.449-9.262 3.841-.665 5.122 4.639 5.504 6.635 5.272 1.646-.2 3.076-.533 5.836-1.015 2.694-.465 5.87.217 7.217 1.447 1.164 1.048 1.064 2.411.948 3.725-.15 1.762-.948 4.722-1.38 6.285-1.115 4.174-3.842 10.826-4.99 14.434-.764 2.361-1.18 4.407-.348 6.552 1.197 3.01 8.48 3.741 11.673 3.724 1.979-.017 5.055-.698 5.055-.698s1.148-.3 1.347.133c.216.532-.166 1.214-.349 1.563-.565 1.064-1.83 2.977-2.395 4.19-.282.616-.565 1.414-.1 1.913.516.548 2.545.332 3.343.2 1.696-.283 3.758-.682 4.989-1.015.316-.1.765-.133.964.166.183.266-.15.898-.15.898l-1.064 1.98s-.465.714-.183 1.047c.233.266.732.25 1.048.266 8.946.116 14.383-1.48 18.64-3.509 3.725-1.763 8.265-3.957 12.555-10.725 1.064-1.663 3.06-5.122 3.741-6.967.216-.582.682-1.796.233-1.946-1.047-.332-6.535 3.924-9.378 5.039-.965.382-1.746.349-1.996 0-.282-.366-.066-1.065.35-1.863 1.296-2.644 3.175-6.718 4.04-9.695.25-.848.466-2.46 0-2.81-.3-.233-1.214.067-2.361.682-2.312 1.28-4.74 2.744-7.732 2.893-3.26.167-7.134-.598-11.973-.798-4.29-.183-7.998-.15-12.571 1.73-3.292 1.347-9.062 4.672-9.062 4.672s2.66-12.255 3.359-17.194c.648-4.639-.583-7.333-2.827-9.212-3.858-3.243-10.194-4.706-13.852-5.205"/><path d="M169.986 53.427c-.25 6.302 5.188 5.686 7.532 5.653 1.83-.034 5.521-.15 7.267.366 1.929.549 3.974 1.962 4.855 3.11 1.28 1.629 1.38 5.803 1.23 7.765-.249 3.342-2.41 13.17-2.41 13.17s-1.663 9.162-.915 14.134c1.147 7.716 6.535 10.193 10.31 11.59 3.242 1.197 9.245 2.261 16.146 1.247 9.046-1.314 14.467-4.224 18.441-7.45 2.71-2.211 6.934-6.003 9.362-9.145.266-.333.731-1.048.465-1.364-.349-.432-1.546-.133-2.111-.05-1.647.217-3.46.483-5.189.433-.316-.017-1.563 0-1.979-.566-.398-.565.416-1.795.416-1.795s1.647-2.794 2.312-3.858c.316-.516 1.197-1.813.964-2.212-.216-.399-.598-.365-2.793-.25-2.561.134-5.554-.415-11.059-1.912-3.259-.88-6.884-2.46-13.302-2.377-4.54.066-8.664 1.08-12.439 4.024-.382.299-1.812 1.297-1.812 1.297s.05-.998.25-3.825c.332-4.556 1.064-10.442.997-14.317-.083-5.122-1.68-6.785-3.043-8.747-1.68-2.427-6.734-5.936-9.412-7.15-2.261-1.014-4.606-1.796-7.067-1.995-1.413-.117-6.868-.017-7.017 4.223"/><path d="M117.881 44.36c.366-4.274 5.737-5.155 8.132-4.973 3.608.283 10.027 2.295 12.62 5.82 4.108 5.538 5.355 16.413 4.606 27.77-.498 7.915 1.298 10.343 1.298 10.343s2.31-3.16 3.641-4.49c3.559-3.558 7.05-4.673 12.82-4.706 6.852-.05 13.303 2.444 19.34 3.858 3.708.881 5.97 1.23 5.97 1.23s-.35 3.393-1.38 6.585c-3.692 11.424-6.652 12.804-11.275 15.598-5.005 3.01-18.49 5.188-25.358 3.958-5.853-1.048-11.64-4.59-12.538-12.655-.365-3.242-.332-7.117-.05-9.478.616-5.189 2.461-14.95 2.428-19.971-.017-2.627-.066-8.115-1.363-10.376-.815-1.414-3.143-3.076-5.338-3.26-3.509-.315-7.15 1.065-9.162.566-1.78-.432-4.74-1.78-4.39-5.82M124.011 92.59l-.034-.25a28.975 28.975 0 0 0-.632-3.408 30.839 30.839 0 0 0-9.179-15.515l-.232-.216a7.315 7.315 0 0 0-.533-.482 19.662 19.662 0 0 0-1.33-1.064 11.416 11.416 0 0 0-.715-.532 25.254 25.254 0 0 0-1.546-1.048l-.482-.316a30.968 30.968 0 0 0-34.687 1.713 31.317 31.317 0 0 0-6.386 6.452 31.366 31.366 0 0 0-4.24 8.015c-.25.715-.482 1.446-.632 2.095l-.066.166c-.715 2.694-1.081 5.404-1.081 8.032a30.58 30.58 0 0 0 3.093 13.435l.183.383c.316.648.665 1.28 1.03 1.895l.2.333c2.096 3.458 4.806 6.435 8.115 8.896 5.387 3.974 11.74 6.07 18.374 6.07.217 0 .433-.018.649-.035.133 0 .266-.017.399-.017 3.259-.116 6.452-.715 9.495-1.829l.233-.083c9.195-3.409 16.295-11.058 19.006-20.47.282-.98.499-1.862.665-2.71l.05-.399.066-.366c.116-.681.233-1.38.3-2.095.1-.998.149-2.012.149-3.01 0-1.114-.083-2.311-.233-3.641"/></g><path d="m118.18 88.248-2.894-10.027.565-.682a29.414 29.414 0 0 1 5.77 11.324zm-3.51 18.059 5.82.848c-1.928 4.789-5.088 8.946-9.062 12.105l-2.677-6.451zm-19.621-5.272 5.304-5.77 9.595 2.112 2.927 7.366-6.17 6.751-7.782-.897zm-1.297 24.56c-.167 0-.333.018-.516.018-5.637 0-10.908-1.63-15.381-4.407l2.76-3.559 10.61 2.561zm-2.295-7.782-10.26-2.494-2.91-7.549 6.585-7.633 7.849 1.53 3.908 9.611zm-4.855-35.036-5.637 5.72-9.479-2.028-2.344-6.934a29.483 29.483 0 0 1 7.316-7.334l7.117 1.38zm18.191-5.022 8.248 1.314 2.827 9.76-5.554 6.187-9.545-2.112-2.212-7.533zm-1.812-1.546-6.353 7.749-7.699-1.746-3.076-9.379 5.354-5.836c.682-.05 1.347-.1 2.029-.1 2.295 0 4.506.283 6.651.781zM66.149 105.99l-.4.466a28.976 28.976 0 0 1-1.845-9.644zm-.283-11.224 5.055-5.986 9.395 2.029 2.71 7.815-6.717 7.782-7.866-1.114zm58.15-2.161-.035-.25a32.053 32.053 0 0 0-.632-3.409 30.839 30.839 0 0 0-9.179-15.514l-.232-.216a7.315 7.315 0 0 0-.532-.482 27.084 27.084 0 0 0-1.33-1.081c-.234-.167-.466-.35-.716-.532-.499-.35-1.014-.699-1.53-1.048l-.498-.3a30.968 30.968 0 0 0-34.687 1.713 30.83 30.83 0 0 0-6.37 6.452 30.038 30.038 0 0 0-4.24 7.998 22.901 22.901 0 0 0-.648 2.112l-.066.167c-.715 2.693-1.081 5.387-1.081 8.031a30.58 30.58 0 0 0 3.093 13.436l.183.382c.316.649.665 1.28 1.03 1.896l.2.332c2.096 3.459 4.806 6.435 8.115 8.896 5.387 3.974 11.74 6.07 18.374 6.07.217 0 .433-.017.649-.034.133 0 .266-.017.399-.017a31.219 31.219 0 0 0 9.495-1.83l.233-.082c9.195-3.41 16.295-11.059 19.006-20.487.282-.964.499-1.846.665-2.694l.05-.399.066-.365c.116-.682.233-1.38.3-2.095.1-1.015.149-2.03.149-3.01 0-1.114-.067-2.312-.233-3.642"/></g></svg>