<?xml version="1.0" encoding="UTF-8"?>
<svg id="uuid-796321dc-0d21-4ffb-936b-2118521526c1" data-name="Ebene 1" xmlns="http://www.w3.org/2000/svg" width="316" height="316" xmlns:xlink="http://www.w3.org/1999/xlink" viewBox="0 0 256 256">
  <defs>
    <clipPath id="uuid-89dd6a31-3012-468d-b549-4e4ba6f2f9f9">
      <rect width="256" height="256" style="fill: none;"/>
    </clipPath>
    <clipPath id="uuid-9ea2ef22-cd70-4ab4-885a-40b1c02d3995">
      <rect width="256" height="256" style="fill: none;"/>
    </clipPath>
  </defs>
  <g style="clip-path: url(#uuid-89dd6a31-3012-468d-b549-4e4ba6f2f9f9);">
    <g style="clip-path: url(#uuid-9ea2ef22-cd70-4ab4-885a-40b1c02d3995);">
      <path d="M248.06,128c0,66.31-53.75,120.06-120.06,120.06S7.94,194.31,7.94,128,61.69,7.94,128,7.94s120.06,53.75,120.06,120.06" style="fill: #ffe900;"/>
      <path d="M128,7.94c66.31,0,120.06,53.75,120.06,120.06s-53.75,120.06-120.06,120.06S7.94,194.31,7.94,128,61.69,7.94,128,7.94M128,0C93.81,0,61.67,13.31,37.49,37.49S0,93.81,0,128s13.31,66.33,37.49,90.51c24.18,24.18,56.32,37.49,90.51,37.49s66.33-13.31,90.51-37.49c24.18-24.18,37.49-56.32,37.49-90.51s-13.31-66.33-37.49-90.51C194.33,13.31,162.19,0,128,0m-58.49,105.96c7.51,7.51,7.51,19.7,0,27.21l-10.91,10.91c-5.84,5.84-15.32,5.84-21.16,0l-15.6-15.6c-2.21-2.21-3.35-5.27-3.11-8.38,.92-11.87,4.61-23.74,4.61-23.74v11.89c0,2.84,1.13,5.55,3.13,7.56l21.1,21.1c2.09,2.09,5.47,2.09,7.56,0l7.37-7.37c2.09-2.09,2.09-5.47,0-7.56l-7.04-7.04-24.96-24.96v-11.23c9.9-19.21,23.15-30.58,23.15-30.58l14.24,15v16.16l-16.85-16.85c-4.52,4.69-10.45,14.57-10.45,14.57l28.93,28.93Zm43.19-13.7l.02,32.81-11.77,12.37-9.99-10.11v20.14c0,20.32-14.02,32.29-14.02,32.29,0,0,3.94-8.11,3.94-14.57V96.73c0-2.84-1.13-5.55-3.13-7.56l-.6-.6,6.61-6.61,6.09,6.09,9.33-9.33,13.52,13.52Zm-9.93,2.32l-6.16-6.13-5.69,5.66,.04,25.15,8.94,8.94,2.88-2.88v-30.75Zm133.34,38.14l-23.12,23.01-14.15-14.15,7-7.42,11.4,11.4,8.42-8.49-6.93-6.93s-17.37,.37-17.37-23.08c0-25.17,17.61-24.43,17.61-24.43l8.37,8.37h5.04l-4.13,4.12v29.63l7.87,7.97Zm-17.38-37.67l-4.32-4.32s-7.38-.67-7.38,13.72,4.69,16.91,11.7,18.17v-27.57ZM138.07,19.52v8.04c13.32,20.59,14.55,34.45,14.55,57.62,0,46.47-22.4,81.5-22.4,81.5h0V33.62l-13.93-13.92-15.42,15.42,18.26,18.26v113.18c0,5.65-1.01,7.58-2.79,9.26l25.2,25.2c-5.42-5.42,1.78-28.98,6.01-42.05,4.23-13.09,12.84-52.55,12.84-77.52,0-27.31-4.68-57.32-4.96-58.95-8.54-2.3-17.38-2.99-17.38-2.99m61.22,113.2l-23.12,23.01-14.15-14.15,7-7.42,11.4,11.4,8.42-8.49-6.93-6.93s-17.37,.37-17.37-23.08c0-25.17,17.61-24.43,17.61-24.43l8.37,8.37h5.04l-4.13,4.12v29.63l7.87,7.97Zm-17.38-37.67l-4.32-4.32s-7.38-.67-7.38,13.72,4.69,16.91,11.7,18.17v-27.57ZM52.11,187.86c.46-1.05,.53-2.23,.22-3.53,.81,.56,1.77,.83,2.84,.82,1.38-.02,2.8-.51,4.23-1.46,2.16-1.44,3.37-3.11,3.6-4.97,.22-1.84-.52-4.05-2.2-6.57l-4.22-6.34-23.94,15.92-.31,.21,4.93,7.42c1.38,2.07,3.13,3.31,5.2,3.66,.4,.07,.8,.1,1.21,.1,1.69,0,3.45-.6,5.24-1.79,1.57-1.05,2.65-2.22,3.2-3.48m-6.15-1.91c-1.1,.73-2.04,1.06-2.81,1-.75-.06-1.37-.5-1.92-1.32l-1.27-1.91,5.99-3.98,1.22,1.84c1.12,1.69,.73,3.07-1.22,4.37m9.37-12.44l1.03,1.55c.56,.84,.78,1.57,.66,2.18-.12,.61-.63,1.22-1.52,1.81-.91,.6-1.71,.89-2.36,.85-.62-.04-1.21-.48-1.76-1.3l-1.14-1.71,5.09-3.38Zm16.94,12.4l-24.67,17.27,4.56,3.98,5.94-4.32,5.12,4.48-3.49,6.47,4.57,4,13.8-26.77-5.83-5.1Zm-1.3,7.4c-.17,.28-.35,.59-.54,.93-.83,1.43-1.34,2.32-1.53,2.68l-2.98,5.55-3.33-2.91c3.72-2.7,6.14-4.49,7.19-5.31,.41-.32,.81-.64,1.2-.95m24.46,8.31l5.68,2.83-13.96,12.54-5.2,10.45-5.32-2.65,5.11-10.26,1.7-18.88,5.71,2.84-1.5,10.88,7.78-7.75Zm18.17,5.5l-7.18-1.25-4.99,28.69,5.94,1.03,1.89-10.88,1.24,.22,2.53,11.65,6.37,1.11-3.3-13.43c2.57-1.09,4.18-3.43,4.79-6.94,.5-2.89,.16-5.21-1.03-6.89-1.19-1.68-3.29-2.79-6.26-3.31m-2.15,5.01l.93,.16c1.07,.19,1.82,.59,2.23,1.2,.41,.62,.5,1.61,.27,2.93-.22,1.29-.64,2.22-1.23,2.76-.56,.52-1.41,.68-2.5,.49l-.97-.17,1.28-7.38Zm33.75,18.87l.51,5.34-13.48,1.28-2.77-28.99,13.48-1.28,.5,5.28-7.48,.71,.57,5.98,6.94-.66,.51,5.3-6.94,.66,.68,7.09,7.48-.71Zm28.42-14.48c1.29,3.2,1.56,5.99,.78,8.29-.78,2.32-2.58,4.06-5.35,5.18-1.33,.54-2.6,.81-3.8,.81s-2.4-.29-3.48-.87c-2.1-1.12-3.83-3.35-5.16-6.62l-6.99-17.3,5.55-2.24,7.14,17.66c1.27,3.15,2.87,4.28,4.87,3.47,.92-.37,1.46-1.02,1.65-1.97,.2-1,0-2.27-.6-3.76l-7.18-17.77,5.55-2.24,7.02,17.37Zm10.31-23.4l14.84,18.53-4.69,3.75-14.84-18.53-4.24,3.4-3.37-4.2,13.17-10.55,3.36,4.2-4.24,3.4Zm25.74-12.5l-3.54,5.12,10.23,7.08-3.43,4.95-23.95-16.57,3.43-4.95,9.27,6.42,3.54-5.12-9.27-6.42,3.43-4.95,23.95,16.58-3.43,4.95-10.23-7.08Z"/>
    </g>
  </g>
</svg>