<?xml version="1.0" encoding="utf-8"?>
<!DOCTYPE svg PUBLIC "-//W3C//DTD SVG 1.1//EN" "http://www.w3.org/Graphics/SVG/1.1/DTD/svg11.dtd" [
<!ENTITY ns_svg "http://www.w3.org/2000/svg">
<!ENTITY ns_xlink "http://www.w3.org/1999/xlink">
]>
<svg  version="1.1" id="Layer_1" xmlns="&ns_svg;" xmlns:xlink="&ns_xlink;" width="169.211" height="169.213"
viewBox="0 0 169.211 169.213" overflow="visible" enable-background="new 0 0 169.211 169.213" xml:space="preserve">
<path fill="#FFFFFF" d="M84.606,168.153c46.142,0,83.547-37.405,83.547-83.547c0-46.144-37.405-83.548-83.547-83.548
S1.058,38.462,1.058,84.606C1.058,130.748,38.465,168.153,84.606,168.153"/>
<path fill="#832026" d="M118.508,50.705c-2.653-2.652-5.542-4.926-8.6-6.824l-6.634,6.632c0.59,1.231,1.126,2.535,1.53,3.873
c0.604,1.996,0.925,4.07,0.717,6.098c-0.49,4.743-1.333,9.412-2.519,14.015c-0.903,3.514-2.014,6.994-3.314,10.45l25.644-25.643
C123.433,56.247,121.159,53.356,118.508,50.705"/>
<path d="M84.606,167.521c-45.668,0-82.914-37.247-82.914-82.915c0-45.666,37.246-82.913,82.914-82.913
c45.667,0,82.912,37.247,82.912,82.913C167.519,130.273,130.273,167.521,84.606,167.521 M84.606,0C38.007,0,0,38.007,0,84.605
c0,46.603,38.007,84.607,84.606,84.607c46.598,0,84.604-38.005,84.604-84.607C169.211,38.007,131.204,0,84.606,0"/>
<path d="M84.606,165.266c-44.424,0-80.657-36.234-80.657-80.659c0-44.425,36.233-80.657,80.657-80.657
c44.425,0,80.657,36.232,80.657,80.657C165.264,129.031,129.031,165.266,84.606,165.266 M84.606,3.384
c-44.736,0-81.222,36.486-81.222,81.222c0,44.735,36.486,81.222,81.222,81.222c44.734,0,81.222-36.486,81.222-81.222
C165.828,39.871,129.341,3.384,84.606,3.384"/>
<path fill="#832026" d="M84.606,159.624c-41.32,0-75.018-33.699-75.018-75.018c0-41.318,33.698-75.019,75.018-75.019
c41.318,0,75.016,33.701,75.016,75.019C159.622,125.925,125.925,159.624,84.606,159.624 M84.606,4.512
c-44.115,0-80.094,35.98-80.094,80.094c0,44.114,35.979,80.093,80.094,80.093c44.113,0,80.095-35.979,80.095-80.093
C164.701,40.493,128.72,4.512,84.606,4.512"/>
<path d="M78.568,94.6c0.566,1.216,3.505,4.819,6.236,6.098c-1.532,2.727-2.608,5.923-2.65,8.758
c-0.039,2.575,1.708,4.894,2.063,7.445c0.104,0.763-0.042,1.839-0.722,2.198c-1.795,0.956-3.737,2.252-5.726,3.741
c-2.367,1.772-3.501,2.932-8.212,2.97c-1.637,0.014-3.502-0.217-5.133-0.817c-0.144,0.156-0.387,0.268-0.773,0.249
c-1.072-0.05-1.179,0.07-1.675,0.264c-0.495,0.193,0.13-0.748,0.814-1.133c0.052-0.026,0.102-0.055,0.151-0.08
c-0.172-0.103-0.338-0.213-0.5-0.326c-0.146,0.116-0.368,0.195-0.686,0.187c-1.075-0.033-1.182,0.087-1.675,0.29
c-0.491,0.199,0.119-0.751,0.798-1.146c0.181-0.104,0.363-0.189,0.542-0.256c-0.141-0.163-0.269-0.333-0.387-0.51
c-0.142,0.08-0.336,0.13-0.595,0.12c-1.072-0.032-1.178,0.09-1.671,0.289c-0.492,0.203,0.117-0.749,0.797-1.146
c0.328-0.19,0.674-0.32,0.973-0.375c-0.028-0.188-0.023-0.378,0.013-0.564c-0.095-0.002-0.198-0.017-0.314-0.043
c-1.041-0.264-1.171-0.169-1.695-0.077c-0.523,0.094,0.274-0.706,1.024-0.947c0.619-0.198,1.247-0.212,1.552-0.049
c0.972-1.202,2.929-2.188,4.329-2.583c1.237-0.35,3.013,0.102,4.382-0.354c0.509-0.169,1.058-0.491,0.85-0.983
c-1.041-2.475-1.88-5.057-1.887-7.512C68.782,103.569,74.068,97.49,78.568,94.6"/>
<polygon fill="#832026" points="58.092,122.797 58.595,122.873 58.594,122.873 "/>
<path fill="#832026" d="M59.571,121.794l-0.255-0.439L59.571,121.794z"/>
<polygon fill="#832026" points="61.023,122.537 61.023,122.537 61.021,122.535 "/>
<path fill="#832026" d="M60.608,122.87c0.004-0.004,0.009-0.007,0.012-0.011l0,0C60.622,122.858,60.613,122.863,60.608,122.87"/>
<path fill="#832026" d="M60.761,123.142l0.078,0.102L60.761,123.142z"/>
<path fill="#832026" d="M68.284,108.306c0-0.113,0.001-0.222,0.008-0.323c0.03-0.709,0.167-1.442,0.392-2.185
c0.222-0.729,0.531-1.475,0.907-2.216c1.853-3.634,5.402-7.252,8.592-9.334c-0.148-0.282-0.294-0.572-0.43-0.874
c-1.442-3.187-2.199-7.287-2.494-11.151c-1.339,0.057-2.626,0.134-3.905,0.212l-27.472,27.474c1.899,3.059,4.172,5.949,6.824,8.598
c2.65,2.653,5.54,4.927,8.6,6.826l0.416-0.415c-0.261-0.122-0.359-0.337-0.316-0.621v-0.002c0.017-0.102,0.062-0.217,0.129-0.338
c0.128-0.231,0.385-0.543,0.686-0.802c-0.641-0.006-0.806,0.062-1.072,0.179c-0.03,0.012-0.043,0.019-0.185,0.076
c-0.203,0.084-0.38,0.085-0.53,0.022c-0.283-0.119-0.386-0.342-0.34-0.635v-0.004c0.016-0.1,0.061-0.216,0.129-0.34
c0.182-0.329,0.626-0.826,1.092-1.096c0.012-0.007-0.022,0.014-0.015,0.007l0.019-0.009c0.063-0.038,0.116-0.066,0.158-0.088l0,0
c0.062-0.031,0.111-0.055,0.153-0.073c-0.403-0.073-0.563-0.042-0.802,0.003c-0.063,0.014-0.131,0.027-0.196,0.039
c-0.213,0.034-0.386,0-0.522-0.094l0,0c-0.248-0.175-0.304-0.415-0.195-0.694l0,0c0.04-0.101,0.108-0.203,0.196-0.304v-0.003
c0.25-0.283,0.788-0.673,1.303-0.838c0,0,0.012-0.003,0.043-0.015v0.003c0.113-0.036,0.212-0.062,0.294-0.08
c0.088-0.02,0.187-0.04,0.291-0.055c0.33-0.05,0.642-0.043,0.908,0.007c0.093-0.099,0.188-0.196,0.289-0.29
c0.188-0.175,0.389-0.34,0.595-0.494c1.06-0.793,2.419-1.413,3.478-1.711v-0.002h0.002h0.002c0.654-0.185,1.384-0.173,2.137-0.159
c0.225,0.003,0.45,0.006,0.675,0.003l1.632-1.629c-0.345-0.892-0.654-1.792-0.897-2.695
C68.507,110.885,68.289,109.58,68.284,108.306"/>
<path d="M78.642,64.365c-1.277,1.668-2.406,3.539-2.953,5.815c-0.06-0.021-0.737-0.3-0.799-0.322
c-7.639-2.87-13.608-9.828-13.438-14.436c-0.183,0.021-0.381-0.034-0.572-0.218c-0.592-0.571-0.74-0.541-1.166-0.654
c-0.427-0.11,0.606-0.456,1.279-0.381c0.236,0.024,0.453,0.078,0.635,0.146c0.026-0.089,0.055-0.176,0.086-0.262
c-0.12-0.026-0.245-0.09-0.368-0.206c-0.596-0.564-0.742-0.533-1.169-0.641c-0.428-0.109,0.602-0.464,1.275-0.396
c0.327,0.033,0.62,0.119,0.831,0.231c0.044-0.054,0.089-0.106,0.134-0.157c-0.087-0.039-0.172-0.097-0.255-0.185
c-0.574-0.586-0.722-0.561-1.145-0.686c-0.425-0.124,0.618-0.439,1.289-0.345c0.488,0.068,0.892,0.251,1.063,0.454
c0.06-0.029,0.119-0.053,0.183-0.075c-0.342-0.527-0.496-0.553-0.845-0.75c-0.383-0.219,0.703-0.285,1.335-0.039
c0.531,0.206,0.919,0.535,0.969,0.793c1.531,0.459,3.125,2.188,3.836,4.166c0.739,2.056,2.067,4.014,3.72,5.44
C74.035,62.933,76.873,63.563,78.642,64.365"/>
<polygon fill="#832026" points="59.633,54.406 59.319,54.04 59.649,54.426 "/>
<polygon fill="#832026" points="60.955,51.888 60.955,51.89 60.641,51.49 "/>
<polygon fill="#832026" points="61.458,52.812 61.465,52.75 61.46,52.792 "/>
<path fill="#832026" d="M62.114,51.151c0.01-0.198,0.134-0.348,0.349-0.448c0.088-0.043,0.198-0.071,0.319-0.087
c0.354-0.048,0.991-0.002,1.442,0.174l0.009,0.002c0.003,0.002-0.007-0.004,0.015,0.007c0.085,0.034,0.165,0.068,0.236,0.104
c0.085,0.041,0.163,0.084,0.231,0.125c0.293,0.176,0.519,0.396,0.656,0.619c0.174,0.063,0.349,0.137,0.519,0.223
c0.234,0.124,0.47,0.271,0.701,0.441c0.718,0.525,1.393,1.26,1.929,2.109l17.688-17.689c-12.811-0.425-25.762,4.231-35.504,13.974
c-9.744,9.742-14.399,22.693-13.974,35.505l25.773-25.773c-0.94-1.604-1.495-3.184-1.551-4.59c-0.145-0.058-0.288-0.146-0.424-0.278
c-0.415-0.398-0.547-0.43-0.778-0.485l0,0c-0.03-0.007-0.064-0.016-0.163-0.041c-0.193-0.051-0.326-0.148-0.405-0.281
c-0.163-0.274-0.103-0.517,0.137-0.72l0.004-0.004c0.069-0.059,0.168-0.115,0.284-0.163v-0.002c0.139-0.057,0.328-0.11,0.538-0.152
c-0.028-0.007-0.057-0.013-0.092-0.021c-0.194-0.05-0.326-0.146-0.409-0.279c-0.163-0.273-0.105-0.516,0.133-0.722
c0.073-0.063,0.172-0.12,0.285-0.169c0.142-0.06,0.338-0.116,0.553-0.161c-0.057-0.046-0.102-0.098-0.135-0.158
c-0.155-0.279-0.087-0.521,0.156-0.716l0.002-0.002c0.075-0.06,0.175-0.113,0.292-0.157C61.208,51.229,61.688,51.142,62.114,51.151"
/>
<polygon fill="#832026" points="64.225,50.789 64.043,51.263 64.047,51.255 "/>
<path d="M96.96,46.038c-0.081,0.026-0.201-0.163-0.137-0.22c0.455-0.397,0.951-0.783,1.52-0.989c0.218-0.08,0.51,0.026,0.668,0.196
c0.121,0.128,0.188,0.521,0.012,0.529C98.346,45.585,97.643,45.826,96.96,46.038 M87.789,48.202
c-0.308,0.086-0.396-0.08-0.713-0.128c-0.283-0.044-0.839,0.019-1.042-0.184c-0.611-0.612-0.243-1.276-0.33-1.704
c-0.035-0.182-0.34-0.189-0.438-0.347c-0.045-0.07-0.008-0.23,0.073-0.239c0.432-0.039,0.81,0.09,1.024,0.532
c0.278,0.574,0.871,0.973,1.353,1.392c0.122,0.105,0.405,0.008,0.44,0.166C88.204,47.909,88.004,48.14,87.789,48.202
M108.859,114.245c-3.479-3.587-5.082-7.345-5.079-11.639c0.011-8.706-2.755-12.372-5.821-14.647
c3.703-8.949,6.087-18.104,7.06-27.525c0.399-3.905-1.248-8.034-3.05-11.375c0.135-0.757,0.268-1.512,0.402-2.271
c0.46-4.002-3.609-4.524-6.024-2.373c-0.147-1.341,1.001-1.717,1.841-1.818c1.824-0.22-0.776-2.017-2.073-1.89
c-1.326,0.13-2.865,1.639-3.819,1.742c-1.473,0.161-4.138-0.038-5.507,0.53c-1.154,0.477-2.009,1.973-3.156,2.469
c-1.535,0.664-3.471,0.348-5.083,0.797c-0.535,0.148-1.008,0.464-1.254,0.96c-0.153,0.307,0.544,0.356,0.555,0.699
c0.069,2.499,0.936,3.877,4.054,3.882c1.75,0.005,2.573-0.767,4.505-0.621c1.318,0.099,3,0.324,3.014,1.467
c0.036,2.936-7.313,1.33-7.324,2.71c-0.005,0.546,0.945,0.518,1.001,0.622c0.443,0.797,1.26,1.594,2.152,1.692
c0.868,0.098,1.664-0.674,2.503-0.691c0.637-0.015,1.278,0.215,1.336,0.847c0.097,1.105-5.704,2.236-7.693,4.06
c-3.084,2.826-5.241,5.644-5.669,10.914c-3.234,1.412-7.334,2.847-11.333,3.985c-0.057,0.017-5.81-3.064-8.479-1.834
c-0.243-0.074-0.59-0.09-0.964-0.024c-0.668,0.112-1.566,0.729-1.126,0.72c0.399-0.011,0.546-0.067,1.105,0.206
c-0.03,0.056-0.06,0.112-0.087,0.173c-0.244-0.103-0.701-0.054-1.172,0.146c-0.621,0.264-1.356,1.069-0.928,0.958
c0.426-0.11,0.541-0.208,1.334,0c0.184,0.048,0.335,0.038,0.46-0.011c-0.012,0.082-0.022,0.162-0.032,0.241
c-0.256-0.021-0.616,0.058-0.98,0.229c-0.611,0.288-1.313,1.122-0.89,0.994c0.421-0.128,0.531-0.229,1.332-0.052
c0.237,0.054,0.422,0.011,0.562-0.081c0.019,0.109,0.04,0.215,0.066,0.318c-0.225,0.021-0.494,0.094-0.764,0.219
c-0.617,0.283-1.324,1.11-0.9,0.987c0.424-0.125,0.533-0.225,1.335-0.041c0.341,0.08,0.577-0.043,0.728-0.227
c0.966,1.591,3.063,2.252,4.103,2.354c5.564,0.549,11.043-0.146,16.632-0.351c0.363,5.493,1.666,11.571,4.561,14.758
c1.976,2.175,4.111,3.384,6.168,5.076c0.911,0.75,0.248,2.96,0.352,4.138c0.699,8.015,4.6,10.596,9.528,10.409
c0.753-0.029,1.614,1.093,1.277,1.766c-0.438,0.868-1.207,1.232-2.125,1.529c-2.355,0.753-6.134,2.793-7.037,5.01
c-0.34,0.057-0.788,0.271-1.188,0.597c-0.613,0.493-1.069,1.529-0.614,1.254c0.456-0.276,0.543-0.411,1.608-0.541
c0.009-0.004,0.016-0.004,0.023-0.004c0.03,0.15,0.077,0.297,0.142,0.434c-0.188,0.149-0.381,0.336-0.555,0.551
c-0.491,0.615-0.718,1.725-0.33,1.356c0.385-0.365,0.44-0.515,1.454-0.873c0.092-0.031,0.17-0.066,0.24-0.104
c0.15,0.109,0.314,0.213,0.493,0.313c-0.113,0.106-0.225,0.226-0.328,0.355c-0.491,0.614-0.718,1.722-0.332,1.355
c0.389-0.366,0.443-0.517,1.456-0.875c0.227-0.079,0.383-0.183,0.488-0.299c0.168,0.053,0.345,0.104,0.522,0.152
c-0.033,0.037-0.066,0.073-0.098,0.113c-0.502,0.606-0.745,1.713-0.352,1.352c0.392-0.36,0.448-0.51,1.467-0.85
c0.233-0.078,0.394-0.186,0.5-0.302c3.178,0.496,6.956,0.213,8.054-0.43c3.948-2.305,5.436-8.308,7.441-11.567
C108.891,115.812,109.315,114.717,108.859,114.245"/>
<path fill="#E61408" d="M85.782,52.102c-2.597-0.193-4.887,2.207-7.453,2.356c-1.124,0.063-2.335-0.477-3.144-1.302
c-0.456-0.464-0.803-0.059-0.374,0.471c0.866,1.067,2.31,1.695,3.644,1.71c3.095,0.033,5.322-2.127,7.454-1.94
c0.748,0.067,1.447,0.153,2.118,0.261c0.475-0.186,0.802-0.455,0.869-0.85C87.904,52.402,86.795,52.177,85.782,52.102"/>
<path fill="#832026" d="M132.481,83.003l-26.507,26.507c0.789,1.499,1.86,2.95,3.242,4.376h0.002l0,0l0.007,0.007
c0.114,0.123,0.199,0.263,0.255,0.413c0.05,0.133,0.074,0.279,0.083,0.433c0.033,0.64-0.3,1.433-0.586,1.896v0.002
c-0.585,0.951-1.13,2.15-1.706,3.423c-1.409,3.103-3.003,6.619-5.911,8.317l0,0h-0.005c-0.189,0.112-0.433,0.21-0.72,0.297
c-0.27,0.08-0.583,0.149-0.931,0.21c-1.678,0.293-4.219,0.343-6.501,0.017c-0.133,0.097-0.291,0.183-0.491,0.25
c-0.783,0.261-0.913,0.383-1.143,0.604c-0.054,0.048-0.111,0.108-0.146,0.138l0,0c-0.162,0.148-0.328,0.21-0.491,0.203
c-0.302-0.013-0.477-0.188-0.535-0.482c-0.023-0.104-0.021-0.23,0-0.361c0.021-0.146,0.073-0.327,0.146-0.519
c-0.64,0.235-0.771,0.36-0.984,0.57c-0.069,0.069-0.138,0.136-0.143,0.14h-0.002c-0.16,0.149-0.325,0.217-0.486,0.21
c-0.304-0.009-0.483-0.179-0.546-0.474c-0.022-0.1-0.022-0.227-0.004-0.359c0.038-0.27,0.172-0.668,0.37-1.027
c-0.417,0.171-0.54,0.288-0.718,0.464c-0.072,0.07-0.141,0.137-0.144,0.142h-0.003c-0.158,0.15-0.322,0.217-0.483,0.212
c-0.163-0.007-0.286-0.059-0.38-0.146l-4.019,4.019c12.812,0.424,25.761-4.231,35.503-13.976
C128.25,108.766,132.906,95.814,132.481,83.003"/>
<path d="M133.363,116.666l1.868,0.385v-3.186l-1.868-0.366V116.666z M50.126,30.997l1.821,2.917
c0.367-0.819,0.573-1.501,0.618-2.049c0.059-0.711-0.118-1.399-0.531-2.06c-0.188-0.301-0.413-0.562-0.676-0.786
c-0.262-0.224-0.55-0.405-0.864-0.537c-0.652-0.283-1.265-0.311-1.839-0.081c0.318,0.579,0.6,1.085,0.843,1.521
C49.743,30.359,49.951,30.718,50.126,30.997 M120.035,129.702c-0.937-0.122-1.664,0.088-2.182,0.63
c-0.514,0.516-0.832,1.252-0.95,2.212c-0.236,1.894,0.233,3.534,1.408,4.921c1.172,1.318,2.694,2.101,4.568,2.346
c0.766,0.102,1.331-0.075,1.693-0.528c0.278-0.343,0.476-0.956,0.585-1.835c0.245-1.974-0.071-3.668-0.954-5.085
C123.272,130.831,121.882,129.945,120.035,129.702 M27.535,87.979c-0.173-0.037-0.33-0.066-0.466-0.087
c-0.133-0.021-0.251-0.028-0.348-0.021c-0.803,0.057-1.477,0.378-2.022,0.968c-0.524,0.536-0.856,1.219-0.994,2.049
c-0.04,0.1-0.122,0.178-0.24,0.236l-0.278-0.055c-0.028-0.045-0.072-0.112-0.133-0.192c-0.06-0.081-0.125-0.168-0.193-0.263
c-0.028-0.07-0.055-0.123-0.083-0.156c-0.328-0.48-0.698-0.83-1.111-1.053c-0.412-0.22-0.885-0.313-1.419-0.276
c-0.524,0.038-1.006,0.316-1.445,0.836c-0.441,0.506-0.645,1.022-0.606,1.546c0.005,0.086,0.023,0.176,0.053,0.271l0.676-0.049
c0.062-0.003,0.135-0.008,0.218-0.015c0.086-0.005,0.176-0.005,0.276,0l6.806-0.475c0.145-0.011,0.315-0.023,0.51-0.037
c0.182-0.014,0.388-0.033,0.618-0.062c0.062-0.005,0.128-0.01,0.202-0.015s0.151-0.017,0.236-0.033
c0.034-0.396,0.054-0.75,0.063-1.069c0.008-0.318,0.003-0.599-0.015-0.843C27.813,88.809,27.712,88.405,27.535,87.979 M22.36,71.085
l3.336,0.831c-0.305-0.843-0.631-1.477-0.978-1.902c-0.451-0.553-1.056-0.922-1.813-1.112c-0.343-0.085-0.688-0.117-1.033-0.097
c-0.343,0.021-0.675,0.092-0.995,0.213c-0.666,0.249-1.124,0.657-1.379,1.222c0.629,0.194,1.186,0.364,1.664,0.508
C21.643,70.893,22.042,71.005,22.36,71.085 M50.37,131.314c-0.279-0.602-0.666-1.199-1.159-1.794
c-0.14,0.165-0.335,0.401-0.582,0.71c-0.248,0.308-0.558,0.688-0.931,1.139c-0.365,0.441-0.681,0.831-0.949,1.164
c-0.265,0.332-0.486,0.615-0.663,0.85l-1.391,1.846c-0.1,0.132-0.335,0.475-0.701,1.027l0.01-0.015
c-0.051,0.088-0.111,0.178-0.18,0.27c-0.062,0.08-0.122,0.163-0.183,0.243c0.215,0.307,0.43,0.573,0.643,0.796
c0.213,0.226,0.428,0.419,0.642,0.578c0.864,0.651,1.779,0.854,2.745,0.611c0.826-0.208,1.599-0.789,2.319-1.745
c0.881-1.168,1.212-2.465,0.969-3.888C50.855,132.512,50.65,131.916,50.37,131.314 M32.83,112.767l1.866,0.421v-3.186l-1.866-0.475
V112.767z M88.416,145.224l2.569-0.207l-1.494-3.051L88.416,145.224z M150.6,89.52c-0.06-0.005-0.133-0.01-0.218-0.015
c-0.087-0.007-0.177-0.019-0.273-0.036l-6.806-0.477c-0.145-0.01-0.314-0.023-0.509-0.037c-0.184-0.013-0.392-0.02-0.623-0.024
c-0.061-0.004-0.129-0.009-0.2-0.016c-0.073-0.003-0.153-0.003-0.238,0.004c-0.088,0.385-0.158,0.734-0.212,1.049
c-0.053,0.313-0.086,0.592-0.103,0.835c-0.027,0.378,0.018,0.791,0.131,1.237c0.169,0.06,0.318,0.111,0.45,0.151
c0.132,0.038,0.245,0.062,0.343,0.07c0.803,0.055,1.516-0.168,2.138-0.677c0.594-0.459,1.018-1.089,1.269-1.89
c0.055-0.094,0.146-0.16,0.27-0.202l0.269,0.092c0.021,0.052,0.057,0.12,0.106,0.21c0.047,0.09,0.101,0.183,0.153,0.284
c0.019,0.075,0.038,0.132,0.062,0.169c0.257,0.521,0.575,0.919,0.953,1.194c0.376,0.277,0.834,0.435,1.367,0.473
c0.524,0.035,1.041-0.172,1.549-0.626c0.507-0.44,0.779-0.923,0.814-1.446c0.009-0.085,0-0.177-0.017-0.276L150.6,89.52z
M119.707,29.153l-2.7,1.87l2.084,1.323L119.707,29.153z M152.735,90.458c-0.083,1.179-0.323,2.151-0.718,2.918
c-0.575,1.063-1.404,1.552-2.486,1.478c-1.253-0.087-2.157-0.805-2.71-2.15c-0.906,1.427-2.024,2.095-3.349,2.002
c-1.483-0.104-2.653-1.126-3.508-3.068c-0.128-0.267-0.256-0.609-0.385-1.036c-0.051-0.149-0.084-0.27-0.104-0.356
c-0.019-0.086-0.026-0.13-0.026-0.13l0.356-4.318c0.121,0.02,0.262,0.038,0.418,0.055c0.158,0.019,0.284,0.037,0.381,0.057
l-0.018-0.003c0.629,0.08,1.022,0.126,1.181,0.138l7.17,0.502c0.099,0.006,0.207,0.013,0.328,0.022
c0.135,0.011,0.293,0.016,0.477,0.016c0.085,0.007,0.17,0.008,0.255,0.008s0.179,0.004,0.274,0.011
c0.099,0.006,0.193,0.01,0.283,0.01c0.092,0,0.182,0.003,0.267,0.01c0.17,0,0.337,0.007,0.493,0.017
c0.17,0.012,0.304,0.021,0.403,0.028c0.019,0.073,0.045,0.165,0.081,0.271c0.034,0.106,0.067,0.21,0.097,0.309
c0.062,0.175,0.13,0.378,0.205,0.611c0.075,0.231,0.158,0.489,0.247,0.777C152.629,89.521,152.757,90.13,152.735,90.458
M143.687,110.736l4.249,0.841v6.005l-3.187,2.343l-4.761-1.063v-9.72l2.858-2.381l5.51,0.842l-2.691,2.618l-2.637-0.475v1.757
L143.687,110.736z M139.969,80.329c-0.236-0.335-0.491-0.647-0.76-0.943c0.061-0.972,0.352-1.904,0.853-2.811
c0.62-1.113,1.353-1.716,2.214-1.791c0.267-0.022,0.598-0.046,0.994-0.068c0.396-0.022,0.863-0.045,1.397-0.066
c0.538-0.024,1.003-0.042,1.401-0.06c0.396-0.016,0.726-0.036,0.994-0.058c0.728-0.065,1.469-0.149,2.219-0.249
c0.749-0.103,1.517-0.221,2.302-0.35l0.228,0.09l0.403,2.719l-0.144,0.253c-0.192,0.04-0.402,0.08-0.633,0.117
c-0.229,0.039-0.489,0.071-0.781,0.098c-0.34,0.029-0.763,0.058-1.268,0.083c-0.506,0.025-1.107,0.057-1.802,0.093
c-0.692,0.035-1.294,0.068-1.799,0.094c-0.506,0.025-0.93,0.054-1.27,0.083c-2.003,0.176-2.911,1.356-2.718,3.543
c0.007,0.085,0.019,0.156,0.037,0.217l3.541-0.219c1.098-0.066,2.203-0.213,3.329-0.354s2.262-0.299,3.409-0.473l0.248,0.089
l0.475,2.711l-0.107,0.231c-1.097,0.058-2.299,0.136-3.606,0.231c-1.306,0.096-2.706,0.21-4.2,0.34l-2.296,0.2
c-0.353,0.031-0.751,0.068-1.194,0.114c-0.44,0.045-0.905,0.089-1.392,0.132l-0.16-0.151c-0.066-0.473-0.14-0.937-0.224-1.396
c-0.081-0.457-0.164-0.878-0.248-1.263l0.227-0.147l1.045-0.02C140.445,81.003,140.209,80.663,139.969,80.329 M134.022,110.736
l4.246,0.841v6.005l-3.185,2.343l-4.759-1.063v-9.72l2.854-2.381l5.51,0.842l-2.691,2.618l-2.635-0.475v1.757L134.022,110.736z
M128.123,135.925c-0.082,0.666-0.177,1.116-0.286,1.344c-0.054,0.13-0.367,0.508-0.935,1.138c-0.784,0.886-1.647,1.702-2.585,2.445
c-0.658,0.51-1.253,0.885-1.777,1.122c-0.524,0.233-0.976,0.328-1.353,0.278c-2.187-0.286-3.969-1.204-5.35-2.753
c-1.464-1.614-2.056-3.555-1.772-5.823c0.09-0.719,0.245-1.382,0.465-1.992c0.065-0.086,0.142-0.176,0.234-0.272
c0.091-0.097,0.221-0.23,0.385-0.396c0.736-0.703,1.543-1.333,2.419-1.889c0.874-0.557,1.827-1.031,2.854-1.426
c0.151-0.047,0.281-0.089,0.394-0.12c0.108-0.033,0.196-0.059,0.267-0.076c0.135-0.023,0.444-0.004,0.924,0.06
c1.99,0.26,3.579,1.206,4.762,2.838C127.927,132.058,128.378,133.899,128.123,135.925 M114.979,146.314l-0.376,0.144l-2.422,0.992
l-0.253-0.13c-0.057-0.182-0.142-0.42-0.257-0.72c-0.114-0.296-0.239-0.622-0.376-0.979c-1.067-2.782-1.995-4.882-2.787-6.298
c-0.187,2.037-0.326,3.862-0.421,5.483c-0.095,1.618-0.144,3.027-0.148,4.229l-0.576,0.203c-0.439-0.473-0.947-1.006-1.522-1.596
c-0.574-0.591-1.209-1.224-1.905-1.898l-3.073-2.995l0.628,2.809c0.142,0.616,0.292,1.192,0.45,1.73s0.326,1.034,0.498,1.485
c0.102,0.262,0.218,0.538,0.35,0.828c0.132,0.291,0.288,0.6,0.468,0.926l-0.132,0.297l-2.068,0.794l-0.314-0.126
c-0.039-0.708-0.13-1.511-0.271-2.41c-0.142-0.903-0.328-1.909-0.564-3.019c-0.085-0.471-0.179-0.936-0.28-1.396
s-0.2-0.923-0.298-1.389c-0.226-1.047-0.448-1.951-0.672-2.709c-0.303-0.293-0.572-0.532-0.806-0.716
c-0.33-0.255-0.675-0.408-1.036-0.461l-0.123-0.587c0.341-0.104,0.657-0.201,0.951-0.295c0.293-0.09,0.521-0.168,0.688-0.233
c0.037-0.013,0.09-0.036,0.167-0.073c0.074-0.034,0.176-0.078,0.308-0.13c0.144-0.053,0.328-0.123,0.553-0.209
c0.226-0.087,0.467-0.188,0.725-0.3c0.688,0.759,1.555,1.679,2.602,2.756c1.048,1.076,2.292,2.317,3.728,3.716
c0.152-1.027,0.275-2.298,0.368-3.813c0.096-1.516,0.181-3.292,0.259-5.327l2.21-0.85l0.348,0.215
c0.025,0.099,0.063,0.224,0.113,0.375c0.052,0.15,0.115,0.326,0.193,0.53c0.15,0.391,0.368,0.905,0.653,1.538
c0.283,0.635,0.638,1.383,1.064,2.242c0.614,1.279,1.207,2.504,1.778,3.675c0.573,1.172,1.124,2.291,1.657,3.354L114.979,146.314z
M97.448,152.256l-2.887,0.56c-0.278-0.705-0.647-1.577-1.109-2.617c-0.461-1.039-1.021-2.238-1.677-3.601l-3.883,0.34l-1.948,6.423
l-2.171,0.419l-0.291-0.263l4.507-13.845l3.609-0.348c1.076,2.13,2.039,4.313,3.05,6.474c0.89,1.899,1.879,3.97,2.97,6.213
L97.448,152.256z M81.278,143.168c-0.182,0.965-0.361,1.94-0.536,2.934l-0.215,1.223c-0.229,1.29-0.408,2.438-0.576,3.438
c-0.172,0.998-0.302,1.832-0.395,2.5l-0.175,0.125l-2.11-0.14l-0.186-0.17c-0.329-1.194-0.907-2.615-1.73-4.261
c-0.822-1.646-1.89-3.539-3.206-5.687c-0.041,0.161-0.075,0.316-0.104,0.467c-0.022,0.138-0.045,0.277-0.071,0.414
c-0.104,0.538-0.198,1.018-0.273,1.444c-0.074,0.415-0.136,0.777-0.192,1.093l-0.299,1.692c-0.121,0.689-0.22,1.322-0.296,1.896
c-0.075,0.575-0.117,1.102-0.124,1.581l-0.239,0.149l-2.757-0.312l-0.168-0.261l1.173-5.983l0.764-4.345l0.282-2.257l0.173-0.204
l1.954-0.197l0.213,0.114c0.3,0.727,0.68,1.554,1.141,2.488c0.463,0.937,1.006,1.989,1.626,3.16l1.298,2.438
c0.198,0.378,0.406,0.73,0.604,1.077c0.198,0.345,0.399,0.671,0.604,0.979c0.053-0.313,0.106-0.63,0.154-0.942
c0.049-0.313,0.102-0.635,0.16-0.96c0.066-0.378,0.134-0.756,0.2-1.129c0.068-0.39,0.125-0.776,0.182-1.152
c0.138-0.88,0.267-1.706,0.371-2.476c0.102-0.77,0.191-1.485,0.27-2.146l0.187-0.18c0.139,0.025,0.28,0.054,0.422,0.085
c0.144,0.032,0.267,0.052,0.364,0.073c0.237,0.052,0.448,0.099,0.639,0.134c0.199,0.033,0.381,0.064,0.544,0.095
c0.125,0.023,0.238,0.043,0.339,0.06c0.113,0.019,0.26,0.033,0.441,0.037l0.107,0.255C81.65,141.255,81.462,142.204,81.278,143.168
M61.887,141.768l-2.665,6.129l-0.323,0.067l-2.565-1.143l-0.097-0.252c0.368-0.671,0.725-1.36,1.066-2.065
c0.343-0.706,0.668-1.407,0.979-2.106c0.046-0.104,0.1-0.227,0.163-0.365c0.062-0.14,0.123-0.295,0.185-0.461
c0.025-0.059,0.049-0.118,0.068-0.181c0.021-0.06,0.043-0.119,0.07-0.176c-0.236-1.166-0.521-2.372-0.854-3.625
c-0.337-1.249-0.722-2.562-1.154-3.94l0.111-0.2l0.16-0.076c0.423,0.05,0.902,0.093,1.438,0.128
c0.534,0.035,1.131,0.066,1.789,0.095c0.145,1.083,0.345,2.149,0.603,3.198c0.26,1.048,0.573,2.094,0.944,3.138
c1.872-0.979,3.626-2.087,5.265-3.322l1.1,1.24l-0.045,0.337c-1.396,0.756-2.62,1.436-3.666,2.035
C63.408,140.823,62.553,141.338,61.887,141.768 M54.385,134.875c-0.141,0.885-0.502,1.713-1.083,2.485
c-1.143,1.516-2.7,2.375-4.679,2.526c-1.324,0.102-3.126-0.178-5.403-0.794l-3.29-2.622l1.909-2.342l3.37-4.469l1.92-2.739
l1.902,0.333c0.336,0.06,0.663,0.069,0.97,0.109c0.307,0.039,0.604,0.063,0.897,0.078c1.577,1.335,2.639,2.862,3.194,4.586
C54.421,133.043,54.524,133.992,54.385,134.875 M37.735,117.307l-3.459,2.618l-5.126-1.355l2.323-2.379l3.223,0.878v-1.957
l-0.969,0.97l-3.936-1.008v-6.151l3.441-2.343l4.504,1.117V117.307z M20.985,94.448c-0.099,0.007-0.207,0.017-0.33,0.025
c-0.133,0.01-0.29,0.028-0.471,0.052c-0.087,0.006-0.172,0.015-0.255,0.026c-0.085,0.012-0.175,0.023-0.273,0.026
c-0.096,0.007-0.193,0.017-0.283,0.032c-0.09,0.012-0.178,0.02-0.265,0.026c-0.168,0.024-0.332,0.041-0.49,0.053
c-0.17,0.012-0.305,0.021-0.401,0.028c-0.028-0.073-0.07-0.158-0.12-0.26c-0.048-0.1-0.095-0.196-0.138-0.293
c-0.085-0.163-0.182-0.356-0.289-0.573c-0.106-0.22-0.225-0.464-0.354-0.737c-0.4-0.838-0.611-1.424-0.636-1.751
c-0.082-1.181,0.021-2.178,0.306-2.991c0.422-1.129,1.173-1.732,2.255-1.809c1.254-0.087,2.247,0.496,2.983,1.752
c0.7-1.539,1.711-2.354,3.038-2.448c1.482-0.104,2.783,0.746,3.899,2.55c0.163,0.245,0.34,0.57,0.526,0.972
c0.07,0.143,0.122,0.256,0.153,0.34c0.03,0.083,0.043,0.124,0.043,0.124l0.25,4.327c-0.124-0.003-0.265-0.003-0.423,0.002
c-0.16,0.005-0.286,0.005-0.385,0l0.019-0.002c-0.635,0.009-1.031,0.019-1.189,0.028L20.985,94.448z M26.973,119.612h-3.04v-9.226
l-1.72,1.171v-2.325l4.76-3.422V119.612z M16.574,81.339c0.157-0.954,0.28-1.922,0.365-2.905c0.015-0.17,0.028-0.43,0.042-0.777
c0.012-0.348,0.017-0.791,0.015-1.328l0.315-0.249l1.822,1.409c-0.1,0.431-0.191,0.899-0.278,1.406
c-0.087,0.507-0.17,1.063-0.248,1.668l3.281,0.286l0.059-0.691c0.077-0.876,0.117-1.735,0.117-2.579l0.276-0.215l1.589,0.929
c-0.012,0.134-0.028,0.291-0.05,0.474c-0.023,0.182-0.048,0.362-0.075,0.544c-0.035,0.242-0.065,0.499-0.097,0.772
c-0.028,0.271-0.065,0.571-0.105,0.898c0.265,0.036,0.585,0.066,0.955,0.093c0.372,0.026,0.799,0.061,1.286,0.104
c0.548,0.048,1.103,0.089,1.663,0.121c0.028-0.592,0.103-1.351,0.096-1.807c-0.006-0.513-0.026-0.991-0.058-1.433l2.021-1.108
l0.271,0.294c-0.085,0.532-0.148,0.97-0.19,1.316c-0.043,0.345-0.07,0.604-0.08,0.772c-0.068,1.044-0.106,2.121-0.1,3.037
l-0.003,0.026c-0.002,0.012-0.002,0.021-0.002,0.034c-0.025,0.278-0.048,0.538-0.07,0.782c-0.015,0.183-0.03,0.363-0.048,0.546
c-0.013,0.171-0.021,0.335-0.023,0.494l-0.22,0.2c-0.796-0.13-1.622-0.245-2.475-0.345c-0.854-0.099-1.726-0.188-2.613-0.264
l-2.277-0.2c-0.484-0.042-1.079-0.073-1.782-0.093c-0.701-0.018-1.511-0.018-2.432-0.001c-0.148-0.404-0.301-0.785-0.458-1.142
c-0.16-0.356-0.318-0.688-0.475-0.995L16.574,81.339z M18.07,70.684c0.06-0.595,0.126-1.04,0.2-1.335
c0.152-0.604,0.348-1.144,0.591-1.615c0.243-0.474,0.548-0.886,0.911-1.233c0.846-0.871,1.854-1.159,3.023-0.868
c0.83,0.207,1.466,0.655,1.909,1.345c0.136,0.21,0.281,0.487,0.433,0.832c0.153,0.346,0.305,0.745,0.457,1.197
c0.641-0.153,1.449-0.43,2.422-0.829c0.973-0.397,2.117-0.916,3.431-1.556l0.301,0.226c0,0.503,0.025,0.989,0.07,1.46
c0.047,0.471,0.104,0.927,0.168,1.369c-1.896,0.598-3.401,1.188-4.516,1.777c-0.103,0.063-0.248,0.146-0.438,0.249
c-0.19,0.104-0.421,0.229-0.696,0.374l1.046,0.261c1.337,0.332,2.44,0.569,3.311,0.711l0.123,0.258
c-0.097,0.29-0.187,0.573-0.268,0.848s-0.157,0.549-0.223,0.82c-0.027,0.107-0.062,0.242-0.102,0.407
c-0.04,0.155-0.077,0.335-0.115,0.538l-0.168,0.146c-1.111-0.34-2.05-0.625-2.823-0.854c-0.771-0.23-1.364-0.398-1.779-0.5
c-1.454-0.363-2.778-0.674-3.971-0.934c-1.191-0.259-2.265-0.465-3.22-0.615l-0.16-0.114l-0.066-0.11
C17.958,72.029,18.008,71.277,18.07,70.684 M21.558,58.951l0.321-0.066c0.688,0.317,1.686,0.755,2.995,1.309
c1.306,0.555,2.933,1.225,4.876,2.011c0.215,0.087,0.786,0.299,1.716,0.635l-0.017-0.008c0.118,0.034,0.233,0.074,0.346,0.12
c0.102,0.041,0.215,0.087,0.34,0.136c0.138-0.471,0.25-0.871,0.338-1.203c0.088-0.333,0.15-0.608,0.205-0.824
c0.103-0.404,0.191-0.795,0.247-1.174c0.055-0.378,0.083-0.752,0.088-1.118l0.459-0.109l1.509,2.068
c-0.173,0.365-0.34,0.73-0.503,1.099c-0.162,0.368-0.316,0.715-0.459,1.039c-0.023,0.055-0.073,0.193-0.155,0.409
c-0.08,0.219-0.192,0.508-0.323,0.875c-0.1,0.276-0.222,0.602-0.367,0.978c-0.145,0.375-0.298,0.781-0.459,1.214l-0.238,0.101
c-0.53-0.252-1.064-0.498-1.605-0.736c-0.543-0.239-1.083-0.468-1.627-0.688c-1.752-0.708-3.31-1.314-4.679-1.819
c-1.366-0.508-2.551-0.918-3.556-1.23l-0.124-0.229L21.558,58.951z M25.482,50.504l0.33-0.032c0.768,0.478,1.476,0.905,2.124,1.284
s1.229,0.707,1.746,0.98l3.294,1.752c0.106,0.057,0.376,0.192,0.808,0.409c0.431,0.215,1.021,0.513,1.777,0.882
c0.198,0.098,0.418,0.197,0.651,0.315c0.233,0.118,0.473,0.233,0.714,0.351l0.085,0.229l-1.139,2.378l-0.248,0.115
c-1.048-0.681-1.889-1.189-2.523-1.526l-5.586-2.971c-0.625-0.333-1.172-0.614-1.644-0.845c-0.471-0.229-0.876-0.406-1.209-0.528
l-0.108-0.264L25.482,50.504z M28.508,45.86l0.197-0.125c0.745,0.087,1.616,0.153,2.613,0.2c0.998,0.047,2.13,0.082,3.398,0.106
l2.645,0.045c0.408,0.002,0.803-0.001,1.182-0.006c0.38-0.005,0.748-0.022,1.1-0.052c-0.237-0.191-0.475-0.38-0.716-0.568
c-0.24-0.188-0.483-0.38-0.729-0.58c-0.285-0.23-0.57-0.46-0.853-0.69c-0.294-0.237-0.586-0.467-0.877-0.688
c-0.673-0.529-1.308-1.013-1.904-1.458c-0.596-0.443-1.153-0.851-1.669-1.223l-0.063-0.241c0.083-0.104,0.172-0.208,0.265-0.314
c0.095-0.104,0.171-0.194,0.233-0.271c0.155-0.172,0.29-0.33,0.403-0.472c0.123-0.151,0.236-0.29,0.334-0.412
c0.077-0.096,0.147-0.181,0.208-0.255c0.068-0.086,0.146-0.204,0.235-0.35l0.263,0.023c0.696,0.595,1.404,1.192,2.125,1.793
c0.723,0.601,1.458,1.203,2.207,1.81l0.923,0.749c0.984,0.78,1.854,1.474,2.611,2.079c0.756,0.604,1.394,1.1,1.912,1.489
l0.022,0.205l-1.096,1.702l-0.227,0.077c-1.156-0.278-2.613-0.454-4.37-0.529c-1.761-0.077-3.843-0.061-6.251,0.044
c0.115,0.11,0.229,0.21,0.345,0.302c0.103,0.085,0.208,0.169,0.312,0.254c0.401,0.34,0.761,0.64,1.083,0.901
c0.313,0.251,0.586,0.476,0.824,0.666l1.279,1.037c0.521,0.421,1.006,0.799,1.451,1.127c0.446,0.331,0.868,0.609,1.266,0.837
l0.015,0.271l-1.541,2.164l-0.298,0.02L32.9,51.77l-3.285-2.657l-1.759-1.286l-0.092-0.237L28.508,45.86z M38.548,35.414
c0.14-0.366,0.263-0.711,0.368-1.04l0.045-0.061c0.784-0.564,1.554-1.165,2.308-1.801c0.13-0.111,0.323-0.283,0.577-0.522
c0.255-0.237,0.573-0.547,0.951-0.931l0.396,0.047l0.3,2.284c-0.376,0.235-0.772,0.503-1.192,0.8s-0.87,0.633-1.351,1.007
l2.12,2.518l0.531-0.448c0.671-0.565,1.306-1.146,1.902-1.745l0.347,0.042l0.47,1.781c-0.102,0.085-0.227,0.186-0.37,0.298
c-0.144,0.113-0.29,0.224-0.437,0.333c-0.195,0.148-0.4,0.306-0.613,0.479c-0.215,0.172-0.45,0.36-0.711,0.563
c0.165,0.213,0.37,0.459,0.613,0.741c0.243,0.28,0.523,0.607,0.838,0.981c0.353,0.419,0.718,0.838,1.091,1.258
c0.438-0.399,1.028-0.885,1.343-1.211c0.358-0.369,0.683-0.721,0.973-1.056l2.211,0.64l-0.013,0.401
c-0.437,0.317-0.791,0.583-1.064,0.798c-0.275,0.215-0.477,0.379-0.604,0.491c-0.783,0.69-1.571,1.428-2.212,2.081l-0.022,0.018
c-0.008,0.006-0.017,0.013-0.025,0.02c-0.215,0.182-0.415,0.35-0.601,0.507c-0.14,0.118-0.28,0.235-0.42,0.354
c-0.131,0.11-0.253,0.221-0.366,0.332l-0.296-0.012c-0.473-0.655-0.976-1.321-1.513-1.992c-0.533-0.673-1.087-1.351-1.661-2.032
l-1.474-1.75c-0.313-0.372-0.713-0.814-1.196-1.322c-0.484-0.508-1.058-1.081-1.722-1.719C38.25,36.155,38.41,35.778,38.548,35.414
M45.645,29.246c0.658-0.626,1.216-1.133,1.671-1.519c0.458-0.385,0.814-0.659,1.073-0.82c0.528-0.331,1.042-0.58,1.547-0.752
c0.505-0.17,1.008-0.255,1.515-0.254c1.21-0.039,2.137,0.454,2.776,1.478c0.451,0.725,0.598,1.486,0.439,2.29
c-0.048,0.248-0.137,0.547-0.269,0.9c-0.13,0.356-0.298,0.749-0.503,1.178c0.568,0.335,1.341,0.698,2.317,1.087
c0.976,0.389,2.16,0.81,3.551,1.264l0.059,0.372c-0.347,0.361-0.67,0.729-0.963,1.098c-0.293,0.37-0.569,0.739-0.831,1.102
c-1.777-0.889-3.271-1.507-4.482-1.857c-0.118-0.027-0.279-0.068-0.488-0.126c-0.209-0.056-0.461-0.127-0.761-0.215l0.573,0.915
c0.729,1.17,1.358,2.106,1.885,2.812l-0.088,0.271c-0.271,0.14-0.533,0.282-0.781,0.423c-0.251,0.142-0.494,0.287-0.731,0.435
c-0.093,0.058-0.211,0.133-0.356,0.223c-0.135,0.083-0.288,0.186-0.456,0.308l-0.224-0.013c-0.563-1.014-1.041-1.872-1.436-2.575
c-0.396-0.701-0.706-1.233-0.933-1.595c-0.796-1.272-1.53-2.415-2.207-3.43c-0.678-1.014-1.308-1.908-1.891-2.679l-0.035-0.194
L45.645,29.246z M62.354,20.957c0.267-0.286,0.51-0.561,0.731-0.825l0.064-0.04c0.938-0.228,1.879-0.495,2.816-0.799
c0.163-0.053,0.406-0.142,0.731-0.267c0.324-0.124,0.734-0.293,1.229-0.506l0.351,0.195l-0.582,2.227
c-0.437,0.079-0.906,0.176-1.406,0.294c-0.5,0.117-1.043,0.259-1.631,0.425l1.018,3.129l0.661-0.215
c0.835-0.271,1.641-0.572,2.419-0.901l0.305,0.17l-0.233,1.825c-0.128,0.043-0.279,0.089-0.454,0.138
c-0.177,0.052-0.354,0.099-0.531,0.145c-0.235,0.063-0.485,0.135-0.746,0.213c-0.264,0.079-0.554,0.164-0.87,0.254
c0.07,0.26,0.167,0.563,0.288,0.916c0.118,0.352,0.255,0.76,0.405,1.224c0.182,0.555,0.375,1.115,0.574,1.678
c0.203,0.563,0.411,1.117,0.626,1.663l-0.114,0.23c-0.271,0.075-0.547,0.157-0.824,0.248c-0.269,0.087-0.517,0.169-0.75,0.244
c-0.173,0.057-0.348,0.113-0.521,0.169c-0.161,0.053-0.314,0.109-0.463,0.171l-0.27-0.125c-0.191-0.783-0.408-1.588-0.649-2.413
c-0.243-0.824-0.502-1.662-0.776-2.507l-0.708-2.174c-0.15-0.465-0.354-1.022-0.611-1.676c-0.257-0.654-0.574-1.4-0.949-2.239
C61.798,21.532,62.088,21.242,62.354,20.957 M71.097,17.961l2.703-0.498l0.257,0.135c0.047,0.191,0.095,0.401,0.142,0.628
c0.045,0.227,0.087,0.486,0.122,0.778c0.041,0.337,0.084,0.76,0.128,1.263c0.043,0.505,0.097,1.104,0.154,1.796
c0.063,0.693,0.113,1.291,0.158,1.795c0.042,0.505,0.085,0.927,0.127,1.266c0.245,1.997,1.457,2.862,3.636,2.594
c0.085-0.01,0.157-0.025,0.215-0.045l-0.341-3.533c-0.134-1.088-0.29-2.193-0.472-3.314c-0.18-1.12-0.378-2.251-0.591-3.39
l0.079-0.25l2.693-0.57l0.233,0.101c0.097,1.093,0.217,2.292,0.358,3.595c0.142,1.303,0.303,2.698,0.486,4.187l0.281,2.288
c0.043,0.352,0.095,0.747,0.155,1.187c0.06,0.442,0.121,0.904,0.18,1.388l-0.146,0.166c-0.469,0.082-0.931,0.172-1.386,0.271
c-0.454,0.098-0.872,0.196-1.256,0.292l-0.154-0.22l-0.054-1.044c-0.338,0.25-0.669,0.5-0.994,0.749
c-0.326,0.249-0.631,0.514-0.918,0.795c-0.973-0.029-1.918-0.281-2.838-0.758c-1.138-0.573-1.761-1.289-1.867-2.147
c-0.031-0.267-0.068-0.597-0.104-0.993c-0.036-0.394-0.074-0.859-0.116-1.395c-0.04-0.535-0.076-1.001-0.106-1.396
c-0.03-0.395-0.062-0.727-0.094-0.993c-0.09-0.725-0.198-1.462-0.326-2.208c-0.128-0.747-0.271-1.507-0.428-2.287L71.097,17.961z
M83.063,26.932l1.835-1.413l0.349,0.06c0.51,0.778,0.944,1.31,1.308,1.597c0.517,0.41,1.116,0.622,1.799,0.634
c0.062,0.002,0.132-0.101,0.208-0.307c0.076-0.23,0.115-0.425,0.118-0.583c0.017-0.903-0.404-1.617-1.261-2.145
c-0.097-0.062-0.205-0.127-0.326-0.197c-0.12-0.068-0.247-0.142-0.38-0.216c-0.241-0.138-0.507-0.288-0.796-0.444
c-0.292-0.157-0.61-0.343-0.962-0.557c-0.949-0.772-1.412-1.811-1.389-3.115c0.003-0.244,0.031-0.5,0.087-0.768
c0.052-0.266,0.137-0.539,0.25-0.818c0.579-0.393,1.294-0.812,2.144-1.26c0.543-0.307,0.994-0.529,1.357-0.662
c0.362-0.135,0.652-0.2,0.872-0.196c0.207,0.004,0.45,0.07,0.729,0.196c0.277,0.127,0.596,0.335,0.957,0.622
c0.615,0.448,1.106,0.902,1.476,1.361l-0.06,0.346l-1.832,1.302l-0.348-0.023c-0.856-1.285-1.725-1.933-2.601-1.948
c-0.097-0.001-0.185,0.101-0.263,0.305c-0.037,0.097-0.063,0.195-0.077,0.292c-0.015,0.097-0.021,0.189-0.023,0.274
c-0.017,0.939,0.385,1.701,1.204,2.29l2.445,1.359c0.928,0.638,1.383,1.518,1.362,2.64c-0.01,0.585-0.133,1.034-0.371,1.348
c-0.05,0.083-0.153,0.21-0.309,0.379c-0.154,0.167-0.369,0.37-0.641,0.61h0.019c-0.412,0.396-0.727,0.694-0.95,0.897
c-0.221,0.205-0.346,0.317-0.369,0.341l0.017-0.018c-0.592,0.44-1.158,0.657-1.694,0.647c-1.353-0.024-2.675-0.839-3.964-2.447
L83.063,26.932z M91.896,27.387l2.034-1.107l0.333,0.112c0.381,0.848,0.729,1.441,1.041,1.782c0.446,0.486,1.006,0.79,1.679,0.908
c0.06,0.012,0.144-0.079,0.253-0.271c0.11-0.215,0.18-0.4,0.208-0.556c0.157-0.889-0.146-1.661-0.909-2.316
c-0.085-0.077-0.183-0.159-0.291-0.246c-0.11-0.087-0.222-0.179-0.342-0.273c-0.217-0.175-0.456-0.363-0.718-0.562
c-0.263-0.202-0.55-0.436-0.861-0.701c-0.817-0.911-1.112-2.009-0.886-3.293c0.041-0.241,0.111-0.49,0.205-0.744
c0.095-0.255,0.22-0.513,0.378-0.77c0.635-0.297,1.404-0.601,2.313-0.91c0.583-0.22,1.064-0.366,1.442-0.441
c0.38-0.077,0.676-0.096,0.893-0.057c0.205,0.036,0.433,0.139,0.689,0.308c0.253,0.168,0.536,0.422,0.85,0.762
c0.536,0.541,0.951,1.064,1.244,1.574l-0.113,0.333l-2.016,1.001l-0.338-0.078c-0.646-1.401-1.399-2.179-2.264-2.33
c-0.097-0.017-0.198,0.07-0.308,0.261c-0.052,0.09-0.094,0.183-0.122,0.276c-0.028,0.094-0.05,0.182-0.064,0.267
c-0.165,0.924,0.113,1.741,0.829,2.449l2.203,1.726c0.816,0.776,1.128,1.715,0.935,2.82c-0.103,0.576-0.296,1.001-0.579,1.271
c-0.063,0.078-0.184,0.184-0.363,0.326c-0.18,0.144-0.423,0.311-0.729,0.504l0.019,0.003c-0.467,0.326-0.825,0.573-1.078,0.739
c-0.253,0.165-0.392,0.259-0.421,0.28l0.021-0.016c-0.654,0.343-1.246,0.467-1.772,0.374c-1.334-0.234-2.512-1.248-3.532-3.037
L91.896,27.387z M103.877,22.874c0.049-0.125,0.101-0.274,0.155-0.45c0.03-0.08,0.057-0.16,0.083-0.242
c0.023-0.082,0.054-0.169,0.089-0.259c0.034-0.092,0.066-0.181,0.093-0.268c0.028-0.088,0.057-0.172,0.087-0.251
c0.05-0.163,0.103-0.32,0.159-0.469c0.063-0.158,0.11-0.283,0.146-0.375c0.076,0.003,0.172,0.003,0.283,0.001
c0.111-0.003,0.22-0.003,0.323-0.003c0.187-0.007,0.401-0.012,0.645-0.017c0.243-0.005,0.516-0.009,0.815-0.01
c0.932-0.008,1.551,0.046,1.857,0.166c1.106,0.422,1.966,0.937,2.582,1.539c0.846,0.861,1.074,1.797,0.686,2.811
c-0.449,1.172-1.4,1.826-2.85,1.961c1.1,1.284,1.413,2.547,0.937,3.789c-0.535,1.388-1.854,2.207-3.961,2.456
c-0.291,0.046-0.658,0.066-1.103,0.066c-0.156,0.005-0.281,0.003-0.37-0.006c-0.088-0.006-0.131-0.012-0.131-0.012l-4.028-1.603
c0.056-0.111,0.113-0.237,0.177-0.384c0.062-0.145,0.117-0.262,0.163-0.348l-0.006,0.018c0.26-0.58,0.419-0.944,0.476-1.092
l2.577-6.71C103.794,23.091,103.834,22.988,103.877,22.874 M122.892,28.372c-0.486,2.227-0.979,4.453-1.451,6.684
c-0.411,1.963-0.849,4.115-1.308,6.46l-0.271,0.089l-2.526-1.235c0.191-0.699,0.411-1.579,0.656-2.64
c0.247-1.061,0.512-2.301,0.795-3.72l-3.163-1.977l-5.191,3.787l-1.9-0.928l-0.072-0.368l11.423-8.001L122.892,28.372z
M128.539,33.441l0.259-0.036l2.358,1.625l-0.054,0.326c-0.541,0.529-1.306,1.303-2.292,2.327c-0.987,1.021-2.195,2.299-3.626,3.832
c-0.158,0.17-0.561,0.628-1.207,1.376l0.014-0.013c-0.075,0.096-0.153,0.19-0.237,0.28c-0.074,0.08-0.156,0.168-0.248,0.267
c0.39,0.297,0.725,0.545,1.003,0.747c0.28,0.202,0.512,0.363,0.694,0.486c0.338,0.248,0.673,0.466,1.008,0.651
c0.333,0.188,0.671,0.348,1.013,0.483l-0.062,0.467l-2.474,0.668c-0.278-0.292-0.56-0.58-0.846-0.863
c-0.287-0.283-0.554-0.551-0.803-0.8c-0.047-0.041-0.153-0.14-0.328-0.293c-0.174-0.154-0.407-0.358-0.701-0.616
c-0.224-0.191-0.481-0.42-0.78-0.69c-0.3-0.27-0.622-0.558-0.969-0.864l-0.009-0.26c0.425-0.402,0.847-0.815,1.265-1.234
c0.414-0.42,0.822-0.844,1.223-1.272c1.289-1.382,2.415-2.62,3.376-3.715C127.079,35.226,127.887,34.265,128.539,33.441
M133.115,84.606c0,26.718-21.793,48.507-48.509,48.507c-26.718,0-48.507-21.789-48.507-48.507s21.789-48.507,48.507-48.507
C111.322,36.099,133.115,57.889,133.115,84.606 M135.465,40.285l0.26,0.001l2.11,1.939l-0.097,0.314
c-0.611,0.449-1.476,1.108-2.595,1.983c-1.121,0.875-2.495,1.972-4.124,3.292c-0.179,0.147-0.643,0.544-1.386,1.193l0.014-0.011
c-0.087,0.086-0.179,0.169-0.273,0.246c-0.085,0.068-0.179,0.145-0.283,0.229c0.345,0.348,0.642,0.642,0.89,0.881
c0.246,0.237,0.459,0.426,0.621,0.577c0.305,0.287,0.602,0.554,0.906,0.785c0.305,0.232,0.617,0.438,0.936,0.619l-0.126,0.454
l-2.542,0.319c-0.236-0.33-0.475-0.654-0.718-0.973c-0.245-0.321-0.472-0.624-0.685-0.905c-0.037-0.049-0.134-0.159-0.283-0.335
c-0.151-0.178-0.354-0.414-0.609-0.708c-0.191-0.22-0.418-0.484-0.677-0.793c-0.258-0.309-0.538-0.64-0.839-0.993l0.026-0.255
c0.478-0.342,0.952-0.689,1.426-1.048c0.47-0.358,0.933-0.721,1.388-1.089c1.469-1.189,2.756-2.258,3.86-3.208
C133.771,41.85,134.704,41.011,135.465,40.285 M140.278,54.822c0.385-0.153,0.776-0.295,1.173-0.426l5.2,2.235l0.333,0.713
c0.364,0.785,0.579,1.519,0.643,2.202l0.017-0.007c0.03,0.295,0.023,0.651-0.017,1.068c-0.042,0.413-0.116,0.883-0.223,1.404
c-0.28-0.112-0.687-0.259-1.215-0.442c-0.531-0.183-1.093-0.365-1.688-0.545c0.415-1.216,0.277-2.565-0.413-4.045l-0.1-0.215
c-1.337,0.22-2.548,0.581-3.631,1.086c-1.414,0.66-2.267,1.501-2.555,2.524c-0.288,0.969-0.102,2.164,0.564,3.59
c0.04,0.089,0.135,0.269,0.279,0.535c0.146,0.271,0.362,0.639,0.648,1.111l-0.29,0.417l-2.946-0.866
c-0.781-1.788-1.228-3.181-1.343-4.177c-0.168-1.4,0.219-2.591,1.163-3.568c0.329-0.356,0.765-0.707,1.304-1.052
c0.54-0.346,1.185-0.692,1.934-1.044C139.506,55.142,139.892,54.975,140.278,54.822 M149.119,63.821l1.187,2.607l-0.214,0.253
c-0.737,0.172-1.792,0.443-3.164,0.811c-1.371,0.369-3.064,0.842-5.08,1.42c-0.224,0.064-0.807,0.249-1.744,0.558l0.017-0.005
c-0.113,0.044-0.229,0.083-0.347,0.117c-0.104,0.031-0.223,0.065-0.352,0.101c0.182,0.456,0.34,0.842,0.476,1.159
c0.135,0.315,0.251,0.574,0.346,0.774c0.16,0.386,0.337,0.745,0.528,1.077c0.189,0.331,0.396,0.643,0.619,0.935l-0.293,0.37
l-2.467-0.701c-0.086-0.394-0.18-0.786-0.279-1.177c-0.099-0.389-0.19-0.755-0.278-1.1c-0.015-0.059-0.059-0.198-0.128-0.418
c-0.068-0.222-0.165-0.52-0.283-0.891c-0.094-0.278-0.197-0.608-0.315-0.994c-0.114-0.386-0.243-0.799-0.383-1.24l0.125-0.227
c0.573-0.126,1.146-0.262,1.719-0.408c0.575-0.145,1.143-0.298,1.706-0.459c1.815-0.521,3.417-1.002,4.809-1.445
c1.387-0.442,2.574-0.85,3.559-1.22L149.119,63.821z M84.606,10.152c-41.008,0-74.455,33.446-74.455,74.454
c0,41.007,33.446,74.453,74.455,74.453c41.007,0,74.453-33.446,74.453-74.453C159.06,43.598,125.613,10.152,84.606,10.152
M105.635,31.619c0.353,0.136,0.761,0.215,1.223,0.236c0.106-0.142,0.197-0.27,0.274-0.384c0.075-0.117,0.132-0.219,0.168-0.309
c0.287-0.75,0.28-1.499-0.023-2.241c-0.267-0.703-0.742-1.291-1.438-1.767c-0.073-0.08-0.111-0.186-0.113-0.317l0.169-0.23
c0.053-0.005,0.13-0.019,0.229-0.039c0.099-0.021,0.205-0.041,0.316-0.063c0.08,0.003,0.139,0,0.182-0.01
c0.571-0.094,1.046-0.282,1.421-0.562s0.658-0.672,0.851-1.171c0.188-0.49,0.141-1.044-0.145-1.663
c-0.274-0.614-0.654-1.016-1.146-1.203c-0.079-0.031-0.17-0.053-0.269-0.065l-0.241,0.633c-0.023,0.057-0.05,0.125-0.08,0.205
c-0.03,0.078-0.07,0.162-0.115,0.249l-2.446,6.368c-0.05,0.137-0.112,0.297-0.182,0.478c-0.066,0.17-0.135,0.366-0.207,0.588
c-0.021,0.057-0.046,0.119-0.071,0.188c-0.026,0.068-0.05,0.143-0.068,0.229c0.343,0.196,0.656,0.365,0.941,0.508
C105.149,31.417,105.406,31.531,105.635,31.619 M143.028,116.666l1.867,0.385v-3.186l-1.867-0.366V116.666z"/>
</svg>
