<?xml version="1.0" encoding="UTF-8"?>
<svg width="514" height="767" version="1.2" viewBox="0 0 385.5 575.25" xmlns="http://www.w3.org/2000/svg">
 <g transform="matrix(.37653 0 0 .37653 6.4595 6.4595)">
  <g>
   <path d="m0 0h1e3v1309.6c-165.9 60.211-331.87 120.23-497.77 180.44h-0.96094c-163.11-58.66-326.18-117.38-489.28-176.06-3.9883-1.4922-8.0391-2.793-11.988-4.3828v-1309.6m29.25 245.99c313.83 0.0234 627.67 0.0234 941.5 0-0.0195-71.84 0.0391-143.67-0.0312-215.5-313.8 0.011719-627.61 0.042969-941.42-0.019531-0.12891 71.84-0.011719 143.68-0.050781 215.52m470.82 30.25v0.28125c-156.91-0.0898-313.83 0.0508-470.74-0.0703-0.1875 245.18-0.01953 490.36-0.07813 735.54 156.93 0.043 313.86-0.01 470.79 0.023 156.97 0.039 313.94 0.01 470.91 0.01-0.0195-245.25 0.082-490.51-0.0508-735.76-156.94-0.0899-313.88-0.0625-470.83-0.0234m-470.88 766.36c0.11719 73.859 0.04687 147.73 0.03906 221.59 313.84 0.1289 627.68 0.039 941.52 0.047-0.0195-73.918 0.0508-147.84-0.0391-221.76-186.92 0.039-373.85 0.01-560.77 0.02-126.91 0.07-253.83-0.1406-380.75 0.1016m18.488 252.31c6.5508 2.9882 13.512 4.9609 20.23 7.5195 143.99 51.34 287.96 102.76 431.97 154.08v0.6172c4.4297 0.031 8.332-2.4297 12.5-3.6172 144.21-51.793 288.43-103.6 432.65-155.39 2.6602-1.0703 5.6094-1.6211 7.9297-3.4297-38.32-0.4023-76.652-0.051-114.97-0.1719-112.71 0.082-225.43-0.1484-338.14 0.1211-97.621 0.2578-195.25 0.031-292.87 0.1094-53.102 0.1094-106.21-0.2187-159.3 0.1602m388.52-1221.7c10.691-12.812 27.742-18.043 43.84-19.383 18.859-1.2891 38.93 0.72266 55.27 10.973 10.582 6.5 18.422 16.68 23.422 27.93-10.121 6.418-20.191 12.918-30.281 19.379-3.8008-7.8711-8.7383-15.59-16.371-20.219-9.2578-5.8398-20.637-6.1914-31.219-5.3711-4.8789 0.55078-10.078 1.2383-14.148 4.2383-4.5195 3.25-5.1797 9.8711-3.1211 14.703 2.5508 4.3281 7.9609 5.457 12.449 6.6797 20.621 4.5781 42.582 5.2305 61.621 15.23 10.852 5.5274 19.418 15.598 22.148 27.578 2.9922 13.02 2.6133 27.648-4.5195 39.332-5.4688 9-14.699 15.09-24.52 18.449-11.781 4.1484-24.379 5.1289-36.781 5.3008-17.797-0.25-36.418-3.3125-51.258-13.781-11.219-7.6289-18.809-19.762-22.051-32.832 10.859-4.7891 21.691-9.668 32.512-14.559 3.0469 5.7695 5.3789 12.109 10.07 16.832 6.4688 7.1094 16.207 10.02 25.527 10.68 8.0625 0.53906 16.32 0.47656 24.172-1.6602 4.5273-1.3008 9.4102-3.9414 10.859-8.7617 1.168-4.8086 0.41797-10.77-3.9219-13.801-5.5195-3.8398-12.379-4.8984-18.789-6.3906-17.848-3.8086-36.82-4.6602-53.18-13.508-9.7891-5.1289-17.48-14.359-19.949-25.23-3.4102-14.191-1.4609-30.398 8.2188-41.809m180.75-9.4102c16.609-9.4219 36.41-11.691 55.16-9.6406 14.941 1.6289 29.902 7.3203 40.609 18.141 7.2695 6.957 12.371 15.84 16.133 25.109-10.66 5.9609-21.383 11.789-32.07 17.668-3.0625-8.3672-6.8711-17.238-14.633-22.297-9.0586-6.043-20.609-6.4023-31.09-5.3008-9.0976 1.1797-18.059 5.4883-23.609 12.961-7.4297 9.7891-9.4609 22.539-9.4688 34.539 0.0195 12.25 1.2383 25.289 8.1992 35.758 5.5 8.3008 15.242 12.742 24.922 13.703 11.137 1.0664 23.398 0.27735 32.699-6.6016 6.4492-4.7188 9.9492-12.691 9.6875-20.609-10.91 0.0781-21.816 0.0273-32.727 0.0273-0.0234-10.66-0.0234-21.316 0-31.988 22.41-0.0117 44.816 0.0117 67.227 0 0.0234 30.66 0.0117 61.328 0.0117 91.988-7.0703 0.0234-14.129 0-21.199 0.0117-1.5312-4.6602-2.9922-9.3398-4.582-13.98-13.688 12.66-33.32 15.52-51.25 14.512-16.738-0.73041-33.719-6.082-46.418-17.312-14.031-12.238-21.551-30.43-23.84-48.609-2.2109-18.078-1.1719-37.008 6.0273-53.937 5.9531-14.281 16.641-26.633 30.211-34.141m-349.95-7.7812c26.352 0 52.699-0.01172 79.051 0 14.277 0.21094 29.41 3.7695 40.008 13.898 11.551 10.723 15.262 27.98 12.012 43.043-1.75 8.5469-7.3789 15.957-14.801 20.43 8.3516 4.0078 15.352 11.129 18.25 20.027 3.2109 10 2.8398 20.941 0.12109 31.012-2.8594 10.441-10.289 19.418-19.949 24.262-10.051 5.1289-21.531 6.7891-32.711 6.5898-27.332-0.0312-54.652 0-81.969-0.0234-0.02344-53.078-0.01172-106.16-0.01172-159.24m35.238 33.02c0.0234 9.5703-8e-3 19.152 0.0234 28.73 13.918 0.0117 27.848 0 41.777 0.0117 4.3711-0.082 8.9922-0.48047 12.77-2.8828 3.3398-2.0195 4.9219-6.0195 5.1406-9.7695 0.26172-3.8984 0.22265-8.3281-2.5391-11.418-3.6289-3.9414-9.3711-4.582-14.43-4.7031-14.25 0.03125-28.492-0.0078-42.742 0.03125m0 61.762c0.10156 10.598-0.16797 21.199 0.14063 31.797 15.191-0.19921 30.383-8e-3 45.562-0.0898 5.1797-0.16797 10.898-0.98828 14.77-4.7773 4.8086-4.7617 4.9375-12.652 2.3789-18.57-2.4688-5.832-9.1602-8.3906-15.121-8.3906-15.91 0.0195-31.82-0.0391-47.73 0.0312m252.84 160.62c10.551-0.92969 21.184-2.168 31.762-0.82032 19.352 1.2109 39.449 7.0938 53.582 20.992 11.469 11.031 17.617 26.602 19.199 42.238 2.0391 20.652-2.6328 41.402-10.082 60.582-13.25 33.23-35.289 62.539-61.82 86.34-25.391 22.609-55.277 40.391-87.688 50.809-16.621 5.0391-33.633 9.0117-50.961 10.59-18.391 1.8594-36.969 1.3828-55.289-0.95704-9.9805 43.52-14.941 88.188-14.781 132.84 0.51172 39.707 4.8203 79.809 17.5 117.62 6.4609 18.973 15.199 37.402 27.75 53.133 10.41 13.117 23.859 24.109 39.531 30.258 27.66 10.699 60.879 7.4414 84.988-10.25 22.719-16.359 36.98-41.711 46.531-67.5 6.668-18.168 11.129-37.09 14.168-56.18 2.9219-19.84 5.5195-40.07 3.0312-60.102 23.68-0.0273 47.359 0.0625 71.039-0.0195 0.19922 34.859-3.2305 69.883-11.84 103.71-7.5977 29.742-19.371 58.75-37.328 83.789-13.371 18.762-30.402 35.012-50.359 46.609-25.293 14.902-54.781 21.691-83.973 22.07-22.359 0.65234-44.91-2.668-65.961-10.309-25.719-9.3203-48.688-25.66-66.418-46.441-22.551-26.199-37.199-58.32-46.5-91.398-11.672-41.879-15.191-85.691-13.73-129.02 1.6406-45.289 8.9219-90.32 21.109-133.95-37.438-14.203-71.578-36.109-101.96-62.02 12.383-11.293 24.762-22.582 37.184-33.832 24.449 19.852 51.25 37.09 80.477 49 17.742-46.168 41.363-90.578 73.711-128.24 22.781-26.402 50.16-49.52 82.082-64.02 17.488-7.7734 36-13.344 55.047-15.523m-55.078 76.332c-19.609 14.348-35.84 32.848-49.262 53.008-19.098 28.883-33.109 60.863-43.84 93.703 31.941 2.5586 64.582-3.6524 93.191-18.113 4.8906-1.9766 9.4219-4.7188 13.941-7.418 17.25-10.441 32.75-23.68 46.039-38.84 13.578-15.711 25.008-33.609 31.648-53.379 3.332-10.762 5.8906-22.43 2.9531-33.582-1.6836-7.1602-6.6836-13.641-13.621-16.34-7.9609-3.3477-16.801-2.1094-25.16-1.5195-20.191 2.3906-39.531 10.5-55.891 22.48m296.38 697.76c12.242-7.0899 26.582-10.027 40.633-9.7578 14.75-0.051 30.02 3.3711 42.008 12.328 9.5117 6.9414 16.172 17.141 20.41 28.012-9.8516 5.418-19.691 10.84-29.531 16.27-2.5586-6.9414-5.5391-14.148-11.398-18.969-6.7188-5.6797-15.941-6.8828-24.43-6.7813-9.0195 0.1915-18.5 2.8594-24.891 9.5586-7.4688 7.6797-10.199 18.66-10.852 29.07-0.36718 10.98 0.0234 22.441 4.6016 32.621 3.1211 7.1993 9.332 13.039 16.832 15.449 8.1602 2.6914 17.047 2.8125 25.457 1.3515 7.3398-1.4414 14.762-5.1992 18.582-11.891 2.1797-3.6016 2.8477-7.8398 3.0586-11.98-10.059-0.1601-20.141 0.1993-30.199-0.1797 0.21093-9.7812 0.0195-19.558 0.10156-29.34 20.609 0.1016 41.227-0.2109 61.84 0.1484-0.23047 28.031-0.0234 56.062-0.11328 84.09-6.5078 0.023-13.027 0.012-19.539 0-1.3711-4.207-2.6875-8.418-4.1211-12.598-8.0391 7.2578-18.539 11.309-29.219 12.52-18.508 2.0195-38.469-0.059-54.188-10.809-15.23-10.082-24.152-27.492-26.992-45.191-2.7695-17.66-2.1094-36.352 4.9297-52.988 5.332-12.883 14.902-24 27.02-30.934m-690.62-7.4766c11.078-0.0234 22.16-0.0117 33.238-0.0117 0.0117 38.25-0.0195 76.512 0.0195 114.76 25.32-0.012 50.652-0.012 75.969 0 0.0117 10.328 0.0234 20.66 0 30.988-36.41-0.012-72.816 0-109.22 0-0.0391-48.578-0.0195-97.16-8e-3 -145.74m126-0.012c38.078-0.012 76.16 0 114.24 0 0 10.41 0.0117 20.828-0.0117 31.238-26.91 0.023-53.816-0.01-80.738 0.023-0.0195 8.3086 0.0117 16.629-0.0117 24.949 22.832 0.098 45.672 0.01 68.512 0.039v30.5c-22.84 0.051-45.691-0.1016-68.52 0.07 0.0508 9.3008 0 18.609 0.0195 27.93 28.078 0.012 56.16-0.012 84.238 0.012 0.0117 10.328 0.043 20.668-0.0195 31-39.219-0.012-78.438-0.031-117.66 0.01-0.1289-48.59-0.0273-97.18-0.0469-145.77m139.24-0.0014c11.16-0.012 22.328 0 33.488 0-0.0586 48.602 0.17188 97.219-0.10937 145.82-11.117-0.1601-22.238-0.039-33.367-0.059-0.0312-48.59 0-97.172-0.0117-145.76m62.25 0.012c24.93 0 49.871-0.051 74.801 0.02 13.777 0.2382 28.309 4.6679 37.559 15.379 8.4492 9.6015 11.09 23.141 9.4492 35.578-1.1094 10.082-5.6992 19.973-13.59 26.512-8.9688 7.5898-20.93 10.551-32.457 10.98-14.09 0.09-28.184-0.059-42.273 0.07 0.0234 19.059 0.0117 38.129 0 57.199h-33.477c-0.0234-48.578 0-97.16-0.0117-145.74m33.52 31.238c-0.0391 8.9883-0.0312 17.988-8e-3 26.988 13.066-0.01 26.148 0.062 39.219-0.027 5.3711-0.062 11.789-1.6093 14.148-7.0312 1.7226-4.7891 1.8906-10.84-1.3086-15.07-3.3711-3.8906-8.8711-4.711-13.742-4.8281-12.77-0.082-25.539-0.012-38.309-0.031m101.47-31.238c39.59-0.031 79.172 0 118.76-0.012-0.23047 9.1797 0.46875 18.512-0.32813 27.59-25.512 29.43-51.594 58.398-77.043 87.879 25.352 0.051 50.711 0.043 76.07 0.012 0.10156 10.078 0.0195 20.168 0.0508 30.258-40.172 0.012-80.328 0.012-120.5 0.012-0.0117-9.5117 0.0195-19.012-0.0117-28.52 25.59-29 51.273-57.93 76.84-86.961-24.609-0.059-49.219 0.012-73.828-0.031-0.0117-10.078 0.0117-20.148-0.0117-30.227m138.27-0.0129c11.16 0 22.316-0.012 33.488 0-0.0117 48.59 0.0195 97.172-0.0117 145.75-11.129 0.031-22.25-0.078-33.367 0.07-0.26953-48.609-0.0625-97.219-0.10937-145.82" fill="#fdc72b"/>
   <path d="m29.25 245.99c0.03906-71.84-0.07813-143.68 0.05078-215.52 313.81 0.0625 627.62 0.03125 941.42 0.01953 0.0703 71.832 0.0117 143.66 0.0312 215.5-313.83 0.0234-627.67 0.0234-941.5 0m406.95-172.8c-9.6797 11.41-11.629 27.617-8.2188 41.809 2.4688 10.871 10.16 20.102 19.949 25.23 16.359 8.8476 35.332 9.6992 53.18 13.508 6.4102 1.4922 13.27 2.5508 18.789 6.3906 4.3398 3.0312 5.0898 8.9922 3.9219 13.801-1.4492 4.8203-6.332 7.4609-10.859 8.7617-7.8516 2.1367-16.109 2.1992-24.172 1.6602-9.3203-0.66015-19.059-3.5703-25.527-10.68-4.6914-4.7226-7.0234-11.062-10.07-16.832-10.82 4.8906-21.652 9.7695-32.512 14.559 3.2422 13.07 10.832 25.203 22.051 32.832 14.84 10.469 33.461 13.531 51.258 13.781 12.402-0.17188 25-1.1524 36.781-5.3008 9.8203-3.3594 19.051-9.4492 24.52-18.449 7.1328-11.684 7.5117-26.312 4.5195-39.332-2.7305-11.98-11.297-22.051-22.148-27.578-19.039-10-41-10.652-61.621-15.23-4.4883-1.2226-9.8984-2.3516-12.449-6.6797-2.0586-4.832-1.3984-11.453 3.1211-14.703 4.0703-3 9.2695-3.6875 14.148-4.2383 10.582-0.82031 21.961-0.46875 31.219 5.3711 7.6328 4.6289 12.57 12.348 16.371 20.219 10.09-6.4609 20.16-12.961 30.281-19.379-5-11.25-12.84-21.43-23.422-27.93-16.34-10.25-36.41-12.262-55.27-10.973-16.098 1.3398-33.148 6.5703-43.84 19.383m180.75-9.4102c-13.57 7.5078-24.258 19.859-30.211 34.141-7.1992 16.93-8.2383 35.859-6.0273 53.937 2.2891 18.18 9.8086 36.371 23.84 48.609 12.699 11.23 29.68 16.582 46.418 17.312 17.93 1.0078 37.562-1.8516 51.25-14.512 1.5898 4.6406 3.0508 9.3203 4.582 13.98 7.0703-0.0117 14.129 0.0117 21.199-0.0117 0-30.66 0.0117-61.328-0.0117-91.988-22.41 0.0117-44.816-0.0117-67.227 0-0.0234 10.672-0.0234 21.328 0 31.988 10.91 0 21.816 0.0508 32.727-0.0273 0.26172 7.918-3.2383 15.891-9.6875 20.609-9.3008 6.8789-21.562 7.668-32.699 6.6016-9.6797-0.96093-19.422-5.4023-24.922-13.703-6.961-10.469-8.1797-23.508-8.1992-35.758 8e-3 -12 2.0391-24.75 9.4688-34.539 5.5508-7.4727 14.512-11.781 23.609-12.961 10.48-1.1016 22.031-0.74219 31.09 5.3008 7.7617 5.0586 11.57 13.93 14.633 22.297 10.688-5.8789 21.41-11.707 32.07-17.668-3.7617-9.2695-8.8633-18.152-16.133-25.109-10.707-10.82-25.668-16.512-40.609-18.141-18.75-2.0508-38.551 0.21875-55.16 9.6406m-349.95-7.7812c0 53.078-0.0117 106.16 0.0117 159.24 27.316 0.0234 54.637-8e-3 81.969 0.0234 11.18 0.19922 22.66-1.4609 32.711-6.5898 9.6602-4.8438 17.09-13.82 19.949-24.262 2.7188-10.07 3.0898-21.012-0.12109-31.012-2.8984-8.8984-9.8984-16.02-18.25-20.027 7.4219-4.4726 13.051-11.883 14.801-20.43 3.25-15.063-0.46094-32.32-12.012-43.043-10.598-10.129-25.73-13.687-40.008-13.898-26.352-0.011719-52.699 0-79.051 0m35.238 33.02c14.25-0.03906 28.492 0 42.742-0.03125 5.0586 0.12109 10.801 0.76172 14.43 4.7031 2.7617 3.0898 2.8008 7.5195 2.5391 11.418-0.21875 3.75-1.8008 7.75-5.1406 9.7695-3.7773 2.4023-8.3984 2.8008-12.77 2.8828-13.93-0.0117-27.859 0-41.777-0.0117-0.0312-9.5781 0-19.16-0.0234-28.73m0 61.762c15.91-0.0703 31.82-0.0117 47.73-0.0312 5.9609 0 12.652 2.5586 15.121 8.3906 2.5586 5.918 2.4297 13.809-2.3789 18.57-3.8711 3.7891-9.5898 4.6094-14.77 4.7773-15.18 0.082-30.371-0.10937-45.562 0.0898-0.3086-10.598-0.0391-21.199-0.14063-31.797m-272.99 861.21c0.05859-245.18-0.10938-490.36 0.07813-735.54 156.91 0.12109 313.83-0.0195 470.74 0.0703-0.082 16.801-0.0117 33.602-0.0391 50.402-31.922 14.5-59.301 37.617-82.082 64.02-32.348 37.66-55.969 82.07-73.711 128.24-29.227-11.91-56.027-29.148-80.477-49-12.422 11.25-24.801 22.539-37.184 33.832 30.383 25.91 64.523 47.816 101.96 62.02-12.188 43.629-19.469 88.66-21.109 133.95-1.4609 43.328 2.0586 87.141 13.73 129.02 9.3008 33.078 23.949 65.199 46.5 91.398 17.73 20.781 40.699 37.121 66.418 46.441 21.051 7.6406 43.602 10.961 65.961 10.309-8e-3 11.621 0 23.242 0 34.863-156.93-0.031-313.86 0.019-470.79-0.023m421.49-571.25c13.422-20.16 29.652-38.66 49.262-53.008 0.12109 42.859-0.0586 85.73 0.0898 128.6-28.609 14.461-61.25 20.672-93.191 18.113 10.73-32.84 24.742-64.82 43.84-93.703m-1.668 141.39c17.328-1.5781 34.34-5.5508 50.961-10.59 0.0586 29.262-0.10156 58.512 0.0781 87.77 4.332-3.1484 8.6211-6.418 13.539-8.6289 14.121-6.8789 30.531-7.0078 45.723-4.2812 14.207 2.5117 27.051 11.023 35.391 22.742 10.887 15.078 15.59 33.629 17.738 51.848 2.4883 20.031-0.10938 40.262-3.0312 60.102-3.0391 19.09-7.5 38.012-14.168 56.18-9.5508 25.789-23.812 51.141-46.531 67.5-24.109 17.691-57.328 20.949-84.988 10.25-15.672-6.1484-29.121-17.141-39.531-30.258-12.551-15.73-21.289-34.16-27.75-53.133-12.68-37.809-16.988-77.91-17.5-117.62-0.16016-44.652 4.8008-89.32 14.781-132.84 18.32 2.3398 36.898 2.8164 55.289 0.95704m21.988 14.742c-19.168 3.0781-38.637 3.8086-58.02 3-6.9492 38.258-9 77.258-8.8476 116.09 0.79687 32.598 3.3398 65.438 11.848 97.051 5.1524 18.637 12.359 37.09 24.23 52.547 9.8203 12.852 23.531 23.062 39.352 27.051 17.039 4.1524 35.84 2.8203 51.391-5.6797 13.898-7.5 24.566-19.871 32.469-33.359 13.18-23.141 19.789-49.352 24.109-75.441 3.0898-19.457 5.4414-39.301 2.6602-58.949-2.0703-15.379-6.4219-31.508-17.512-42.961-7.9883-8.0898-19.707-10.98-30.789-10.348-11.688-0.82031-23.469 4.0508-31.301 12.738-11.168 11.992-17.27 27.539-23.707 42.352-0.57032 0.98828-1.25 1.918-2.0312 2.7695-3.6289-0.8711-3.2188-4.8008-3.4609-7.6914-2.2891-39.969-3.0586-80.008-2.9609-120.04-2.5 0.12109-4.9688 0.44141-7.4297 0.87109m-441.87 445.73c126.92-0.2422 253.84-0.031 380.75-0.1016 186.92-0.012 373.85 0.02 560.77-0.02 0.0898 73.918 0.0195 147.84 0.0391 221.76-313.84-0.01-627.68 0.082-941.52-0.047 0.0078-73.863 0.07813-147.73-0.03906-221.59m767.19 42.887c-12.117 6.9336-21.688 18.051-27.02 30.934-7.0391 16.637-7.6992 35.328-4.9297 52.988 2.8398 17.699 11.762 35.109 26.992 45.191 15.719 10.75 35.68 12.828 54.188 10.809 10.68-1.211 21.18-5.2618 29.219-12.52 1.4336 4.1797 2.75 8.3907 4.1211 12.598 6.5117 0.012 13.031 0.023 19.539 0 0.0898-28.027-0.11719-56.059 0.11328-84.09-20.613-0.3593-41.23-0.047-61.84-0.1484-0.082 9.7813 0.10937 19.559-0.10156 29.34 10.059 0.379 20.141 0.02 30.199 0.1797-0.21093 4.1407-0.8789 8.3789-3.0586 11.98-3.8203 6.6914-11.242 10.449-18.582 11.891-8.4102 1.461-17.297 1.3399-25.457-1.3515-7.5-2.4102-13.711-8.25-16.832-15.449-4.5781-10.18-4.9688-21.641-4.6016-32.621 0.65235-10.41 3.3828-21.391 10.852-29.07 6.3906-6.6992 15.871-9.3671 24.891-9.5586 8.4883-0.1015 17.711 1.1016 24.43 6.7813 5.8594 4.8203 8.8398 12.027 11.398 18.969 9.8398-5.4296 19.68-10.852 29.531-16.27-4.2383-10.871-10.898-21.07-20.41-28.012-11.988-8.957-27.258-12.379-42.008-12.328-14.051-0.2696-28.391 2.6679-40.633 9.7578m-690.62-7.4766c-0.0117 48.578-0.0312 97.16 8e-3 145.74 36.402 0 72.809-0.012 109.22 0 0.0234-10.328 0.0117-20.66 0-30.988-25.316-0.012-50.648-0.012-75.969 0-0.0391-38.25-8e-3 -76.512-0.0195-114.76-11.078 0-22.16-0.012-33.238 0.012m126-0.012c0.0195 48.59-0.082 97.18 0.0469 145.77 39.223-0.039 78.441-0.02 117.66-0.01 0.0625-10.332 0.0312-20.672 0.0195-31-28.078-0.023-56.16 0-84.238-0.012-0.0195-9.3203 0.0312-18.629-0.0195-27.93 22.828-0.1719 45.68-0.02 68.52-0.07v-30.5c-22.84-0.031-45.68 0.059-68.512-0.039 0.0234-8.3203-8e-3 -16.641 0.0117-24.949 26.922-0.031 53.828 0 80.738-0.023 0.0232-10.408 0.0115-20.826 0.0115-31.236-38.078 0-76.16-0.012-114.24 0m139.24 0c0.0117 48.59-0.0195 97.172 0.0117 145.76 11.129 0.02 22.25-0.1015 33.367 0.059 0.28125-48.602 0.0508-97.219 0.10937-145.82-11.16 0-22.328-0.012-33.488 0m62.25 0.012c0.0117 48.578-0.0117 97.16 0.0117 145.74h33.477c0.0117-19.07 0.0234-38.141 0-57.199 14.09-0.1289 28.184 0.02 42.273-0.07 11.527-0.4297 23.488-3.3907 32.457-10.98 7.8906-6.5391 12.48-16.43 13.59-26.512 1.6406-12.438-1-25.977-9.4492-35.578-9.25-10.711-23.781-15.141-37.559-15.379-24.93-0.07-49.871-0.02-74.801-0.02m134.99 0c0.0234 10.078 0 20.148 0.0117 30.227 24.609 0.043 49.219-0.027 73.828 0.031-25.566 29.031-51.25 57.961-76.84 86.961 0.0312 9.5078 0 19.008 0.0117 28.52 40.172 0 80.328 0 120.5-0.012-0.0312-10.09 0.0508-20.18-0.0508-30.258-25.359 0.031-50.719 0.039-76.07-0.012 25.449-29.48 51.531-58.449 77.043-87.879 0.79688-9.0781 0.0977-18.41 0.32813-27.59-39.59 0.012-79.172-0.02-118.76 0.012m138.27-0.0118c0.0469 48.602-0.16016 97.211 0.10937 145.82 11.117-0.1484 22.238-0.039 33.367-0.07 0.0312-48.578 0-97.16 0.0117-145.75-11.172-0.012-22.328 0-33.488 0m-239.74 31.25c12.77 0.02 25.539-0.051 38.309 0.031 4.8711 0.1171 10.371 0.9375 13.742 4.8281 3.1992 4.2304 3.0312 10.281 1.3086 15.07-2.3594 5.4219-8.7774 6.9687-14.148 7.0312-13.07 0.09-26.152 0.02-39.219 0.027-0.0234-9-0.0312-18 8e-3 -26.988m-419.09 185.66c53.09-0.3789 106.2-0.051 159.3-0.1602 97.621-0.078 195.25 0.1484 292.87-0.1094 0.0703 53.949 0.0195 107.91 0.0274 161.87-144.01-51.32-287.98-102.74-431.97-154.08-6.7188-2.5586-13.68-4.5313-20.23-7.5195" fill="#ffffff"/>
   <path d="m500.07 276.24c156.95-0.0391 313.89-0.0664 470.83 0.0234 0.13281 245.25 0.0312 490.51 0.0508 735.76-156.97 0-313.94 0.031-470.91-0.01 0-11.621-8e-3 -23.242 0-34.863 29.191-0.37891 58.68-7.168 83.973-22.07 19.957-11.598 36.988-27.848 50.359-46.609 17.957-25.039 29.73-54.047 37.328-83.789 8.6094-33.828 12.039-68.852 11.84-103.71-23.68 0.082-47.359-8e-3 -71.039 0.0195-2.1484-18.219-6.8516-36.77-17.738-51.848-8.3398-11.719-21.184-20.23-35.391-22.742-15.191-2.7266-31.602-2.5977-45.723 4.2812-4.918 2.2109-9.207 5.4805-13.539 8.6289-0.17968-29.258-0.0195-58.508-0.0781-87.77 32.41-10.418 62.297-28.199 87.688-50.809 26.531-23.801 48.57-53.109 61.82-86.34 7.4492-19.18 12.121-39.93 10.082-60.582-1.582-15.637-7.7305-31.207-19.199-42.238-14.133-13.898-34.23-19.781-53.582-20.992-10.578-1.3476-21.211-0.10937-31.762 0.82032-19.047 2.1797-37.559 7.75-55.047 15.523 0.0273-16.801-0.043-33.602 0.0391-50.402v-0.28125m-0.07039 111.49c16.359-11.98 35.699-20.09 55.891-22.48 8.3594-0.58984 17.199-1.8281 25.16 1.5195 6.9375 2.6992 11.938 9.1797 13.621 16.34 2.9375 11.152 0.37891 22.82-2.9531 33.582-6.6406 19.77-18.07 37.668-31.648 53.379-13.289 15.16-28.789 28.398-46.039 38.84-4.5195 2.6992-9.0508 5.4414-13.941 7.418-0.14843-42.867 0.0312-85.738-0.0898-128.6m-28.941 209.14c2.4609-0.42968 4.9297-0.75 7.4297-0.87109-0.0977 40.031 0.67188 80.07 2.9609 120.04 0.24219 2.8906-0.16797 6.8203 3.4609 7.6914 0.78125-0.85156 1.4609-1.7812 2.0312-2.7695 6.4375-14.812 12.539-30.359 23.707-42.352 7.832-8.6875 19.613-13.559 31.301-12.738 11.082-0.63281 22.801 2.2578 30.789 10.348 11.09 11.453 15.441 27.582 17.512 42.961 2.7812 19.648 0.42969 39.492-2.6602 58.949-4.3203 26.09-10.93 52.301-24.109 75.441-7.9024 13.488-18.57 25.859-32.469 33.359-15.551 8.5-34.352 9.832-51.391 5.6797-15.82-3.9883-29.531-14.199-39.352-27.051-11.871-15.457-19.078-33.91-24.23-52.547-8.5078-31.613-11.051-64.453-11.848-97.051-0.15235-38.832 1.8984-77.832 8.8476-116.09 19.383 0.8086 38.852 0.0781 58.02-3m28.793 697.77c112.71-0.2695 225.43-0.039 338.14-0.1211 38.32 0.1211 76.652-0.2304 114.97 0.1719-2.3203 1.8086-5.2695 2.3594-7.9297 3.4297-144.22 51.789-288.44 103.6-432.65 155.39-4.168 1.1875-8.0703 3.6485-12.5 3.6172v-0.6172c-8e-3 -53.961 0.043-107.92-0.0274-161.87" fill="#009130"/>
  </g>
 </g>
</svg>
