<svg width="430pt" height="430pt" version="1.2" viewBox="0 0 430 430" xmlns="http://www.w3.org/2000/svg" xmlns:xlink="http://www.w3.org/1999/xlink"><defs><clipPath id="a"><path d="M28.969 164.95H94v64.879H28.969z"/></clipPath><clipPath id="b"><path d="M30 166h62v62H30z"/></clipPath><clipPath id="c"><path d="M30.492 197.2c0 16.973 13.758 30.727 30.727 30.727 16.59 0 30.109-13.145 30.707-29.59v-2.273c-.598-16.441-14.117-29.586-30.707-29.586-16.969 0-30.727 13.754-30.727 30.723m8.05.039c0-12.586 10.204-22.793 22.794-22.793 12.586 0 22.793 10.207 22.793 22.793 0 12.59-10.207 22.793-22.793 22.793-12.59 0-22.793-10.203-22.793-22.793"/></clipPath><clipPath id="e"><path d="M38 174h46v46H38z"/></clipPath><clipPath id="f"><path d="M38.797 197.2c0 12.387 10.039 22.422 22.422 22.422s22.422-10.035 22.422-22.422c0-12.383-10.039-22.422-22.422-22.422S38.797 184.817 38.797 197.2"/></clipPath><clipPath id="h"><path d="M47 183h28v32H47z"/></clipPath><clipPath id="i"><path d="M61.043 184.61s-.914-.05-1.195.035c-.242.078-.328.457-.418.54-.09.077-1.188.081-1.211.12l-.043.203c0 .102.015.352.078.352h.043l-.04.18c-.007.082-.066.578 0 .863.063.285.18.293.18.293l.102.031c.05.082.145.254.23.442l-.148.008c-1.363.09-2.199-.829-2.199-1.516 0 0-1.133.402-.543 1.48.262.477.848.75 1.3.778.493.027.907.004 1.595-.121-.047.133-.098.289-.114.386h-.004c-.14 0-.23.004-.238.098-.008.094-.035.43.008.906 0 0 .031.106.137.125.105.02.402.028.453.118.035.07-.031.496-.168.656-.094.113-.317.2-.637.183-.863-.05-3.676-.652-5.183-2.988 0 0 1.015-.68 1.015-1.558 0-.883-.316-1.461-1.476-1.735 0 0 .257.172.257.781 0 0-1.43.258-.918 2.012 0 0-.293-.101-.53-.414 0 0 .179-1.61-.884-1.89-1.488-.391-1.992 1.07-1.992 1.07s.39-.29.781-.051c0 0-.332 1.094 1.313 1.402 0 0-2.613.793-1.711 3.074 0 0 .078-.523.289-.902 0 0 1.672.953 1.941-.68 0 0 .801.192.91.801.11.61-.09 1.121-.59 1.34 0 0 3.188.496 5.52 1.937 0 0-3.21 1.203-6.015 1.223 0 0 .238-.75-.66-1.32-.25-.16-.82-.192-1.18-.032-.61.27-.973.723-1.035 1.02 0 0 .324-.277.683-.16 0 0 .059.832 1.031 1.332 0 0-1.312-.078-1.875.992-.558 1.07.094 1.793.094 1.793s.059-.563.461-.711c0 0 1.121.57 1.648-.691 0 0 .122 1.87 1.504 2.273 0 0-.293-.434-.242-.852 0 0 1.32-.3.692-1.593 0 0 1.636-.778 2.027 1.257 0 0 .86-.273.832-1.273 0 0 2.812-.8 5.996 2.504 0 0-2.637-.395-3.578 1-.668.992-.035 2.96-.035 2.96s-1.156 1.368-2.88 1.36c0 0 .571-1.273-.66-2.004s-1.972.422-1.972.422.531-.113.762.238c0 0-.762.883.55 1.582 0 0-1.293-.41-2.101.262-.52.43-.473 1.211-.473 1.211s.262-.383.684-.32c0 0-.063.718.672.91.726.191 1.097-.371 1.097-.371s-.32 1.453 1.192 2.12c0 0-.18-.21-.18-.71 0 0 .57-.117.8-.5.231-.379.141-1.02-.151-1.309 0 0 1.277-.285 1.976 1.075 0 0 .602-.258.645-1.11 0 0 2.922.383 3.812-.969 0 0-.62-.53-.39-1.593.23-1.063 1.43-.91 1.43-.91s-.509.46-.4 1.511.438 2-.472 2.66c0 0 1.531.211 1.863-1 0 0 1.082 3.063-1.128 5.293 0 0-.18-1.527-1.598-1.382-1.418.144-1.305 1.601-1.305 1.601s.25-.422.742-.445c0 0-.336.515.457 1.172 0 0-1.398 1.105-.8 2.582 0 0 .09-.563.468-.676 0 0 .649.613 1.356.195.71-.422.719-.843.719-.843s.675 1.437 1.91 1.757c0 0-.344-.523-.055-.855 0 0 .984-.602-.062-1.848 0 0 2.207-2.238 3.37-4.371 0 0-1.687-2.71-1.148-5.004 1.031 1.192 2.281 1.75 2.465 1.863.055.028.008.258.07.48.067.22.297.407.383.474.086.062.492.515.367.918-.168.53-.574.515-.574.515s1.016.547 1.563-.293c.547-.847.09-1.488.09-1.488s.98.121 1.62-.227c1.196-.644 1.09-1.379 1.09-1.379-.586.559-1.242.262-1.242.262.164-.062.43-.387.574-.683.145-.297.258-.934.336-1.34.075-.406.164-.707.575-1.344.414-.637 1.265-.758 1.265-.758-.316-.223-.847-.355-1.594-.223-.746.137-1.175.844-1.175.844-.598-1.031-1.051-1.664-1.223-2.02a.665.665 0 0 1 .023-.62c.149-.25.368-.543.79-.856.804-.594 1.648-.68 2.343-1.074 1.422-.8.887-2.254.887-2.254-.242.512-.55.906-1.285 1.203-.84.34-1.453.281-2.5 1.047-.707.516-1.11 1.238-1.11 1.238s-.144-.16-.254-.375c-.113-.218.008-.586.145-.812.34-.55.945-1.29 2.176-1.719.61-.21 1.46-.344 2.16-1.031.789-.781.566-2.082.566-2.082-.066.629-.851 1.094-1.394 1.344-.559.261-1.238.43-1.688.55a4.432 4.432 0 0 0-1.558.774 4.99 4.99 0 0 0-1.309 1.59c-.074-.137-.164-.25-.191-.36a1.153 1.153 0 0 1 .18-.925c.843-1.305 2.109-1.805 2.464-1.934.528-.195 1.434-.48 2.223-.914 1.719-.938 1.117-2.508 1.117-2.508-.457.82-1.414 1.309-2.457 1.7-.871.327-1.55.605-2.379 1.054-1.058.574-1.773 1.691-1.773 1.691-.02-1.246.762-2.062 1.187-2.382 1.012-.762 2.653-1.274 3.235-1.52.574-.25 1.84-.77 1.922-2.191.062-1.118-.758-1.782-1.743-1.977-.64-.125-1.187-.187-2.128-.07-.434.05-.797.136-.86.129-.11-.012-.523-.235-.7-.325-.343-.175-1.046-.414-1.53-.011-.586.484-.528.918-.512 1.336 0 0 .367-.485 1.082-.403.145.02.273.055.387.102-.098.062-.278.223-.442.621-.238.59-.52.645-.52.645s.356.199 1.009.148l.336-.07c-.114.355-.243.746-.583.894-.285.121-.628-.074-.628-.074s.293.777 1.093.73c.805-.043 1.196-.77 1.352-1.054.16-.282.363-1.211.363-1.211s.473.402.305 1.289c0 0 .332-.227.64-.57s.618-.7.938-.672c.434.035.766.39.348.953-.426.578-1.586 1.031-2.383 1.363-.793.324-2.145 1.028-2.8 2.012-.653.98-1.161 2.426-.43 4.562.39 1.145 1.32 2.239 1.32 2.239s-.64-.137-.992.172c0 0 1.39.527 2.351 1.734.961 1.207 1.727 2.98.742 3.707-.703.523-2.277-.57-2.64-.883-.535-.46-1.313-1.273-2.778-4.12-.855-1.661-1.457-4.161-1.457-4.161s1.348 1.125 2.211-.188c0 0-1.86-.347-1.941-2.082 0 0 .187.235.469.2.355-.043.984.12.941.742 0 0 .781-1.102-.308-1.985 0 0 1.367.262 1.519-1.011 0 0-.605.254-1.473-.285-.28-.18-.379-.383-.379-.383s1.141.199 1.442-.82c0 0-.992.023-1.434-.715 0 0 .176-.95-.074-1.653-.25-.7-1.191-.91-1.309-.93-.12-.023-.586-.402-.691-.82 0 0-1.031.32-1.21.848m-.946 1.035c-.04-.07-.117-.082.05-.164.067-.031.247-.121 1.07-.25l.075.035c0 .031-.086.117-.133.238-.082.215-.183.395-.48.457l-.117.016c-.29 0-.418-.254-.465-.332m.14 1.41.137-.07c.172-.023.754.008.934.539-.258.016-.73.04-1.293.074.07-.18.164-.422.222-.543m-1.082.254h.02c.11 0 .32-.004.426-.02.043.067.129.2.199.32-.227.017-.59.032-.828.044.058-.11.125-.242.183-.344m.766.805a2.729 2.729 0 0 1 1.379.238.531.531 0 0 1-.29.317c-.105.043-.23.07-.566.07h-.015a6.78 6.78 0 0 1-.508-.625m-.672.59c-.059-.075-.207-.262-.305-.442.133-.027.407-.055.563-.09.101-.02.2-.035.289-.047-.055.165-.137.426-.148.586-.094 0-.313-.004-.399-.008"/></clipPath><clipPath id="l"><path d="M0 0h595.27v841.89H0z"/></clipPath><clipPath id="m"><path d="M0 0h1v841.89H0z"/></clipPath><radialGradient id="d" cx="0" cy="0" r="30.726" gradientTransform="translate(61.199 197.2)" gradientUnits="userSpaceOnUse"><stop stop-color="#127bc9" offset="0"/><stop stop-color="#127bc9" offset=".5"/><stop stop-color="#127bc9" offset=".625"/><stop stop-color="#127bc9" offset=".672"/><stop stop-color="#127ac9" offset=".711"/><stop stop-color="#127ac8" offset=".719"/><stop stop-color="#1279c7" offset=".734"/><stop stop-color="#1279c7" offset=".738"/><stop stop-color="#1279c7" offset=".742"/><stop stop-color="#1278c6" offset=".75"/><stop stop-color="#1278c5" offset=".758"/><stop stop-color="#1277c5" offset=".762"/><stop stop-color="#1277c4" offset=".766"/><stop stop-color="#1276c4" offset=".77"/><stop stop-color="#1276c3" offset=".773"/><stop stop-color="#1276c3" offset=".777"/><stop stop-color="#1275c3" offset=".781"/><stop stop-color="#1275c2" offset=".785"/><stop stop-color="#1275c2" offset=".789"/><stop stop-color="#1274c1" offset=".793"/><stop stop-color="#1274c1" offset=".797"/><stop stop-color="#1273c0" offset=".801"/><stop stop-color="#1373c0" offset=".805"/><stop stop-color="#1372bf" offset=".809"/><stop stop-color="#1372be" offset=".813"/><stop stop-color="#1371bd" offset=".816"/><stop stop-color="#1371bd" offset=".824"/><stop stop-color="#1370bc" offset=".828"/><stop stop-color="#136fbb" offset=".832"/><stop stop-color="#136fbb" offset=".836"/><stop stop-color="#136fba" offset=".84"/><stop stop-color="#136eba" offset=".844"/><stop stop-color="#136db9" offset=".848"/><stop stop-color="#136db8" offset=".852"/><stop stop-color="#136cb7" offset=".855"/><stop stop-color="#136cb7" offset=".859"/><stop stop-color="#136bb6" offset=".863"/><stop stop-color="#136ab5" offset=".867"/><stop stop-color="#136ab5" offset=".871"/><stop stop-color="#1369b4" offset=".875"/><stop stop-color="#1369b3" offset=".879"/><stop stop-color="#1368b2" offset=".883"/><stop stop-color="#1368b2" offset=".887"/><stop stop-color="#1367b1" offset=".891"/><stop stop-color="#1366b0" offset=".895"/><stop stop-color="#1366af" offset=".898"/><stop stop-color="#1365ae" offset=".902"/><stop stop-color="#1365ae" offset=".906"/><stop stop-color="#1364ad" offset=".91"/><stop stop-color="#1363ac" offset=".914"/><stop stop-color="#1363ab" offset=".918"/><stop stop-color="#1362ab" offset=".922"/><stop stop-color="#1361aa" offset=".926"/><stop stop-color="#1361a9" offset=".93"/><stop stop-color="#1360a8" offset=".934"/><stop stop-color="#1360a8" offset=".938"/><stop stop-color="#135fa7" offset=".941"/><stop stop-color="#145ea6" offset=".945"/><stop stop-color="#145da5" offset=".949"/><stop stop-color="#145da4" offset=".953"/><stop stop-color="#145ca3" offset=".957"/><stop stop-color="#145ba2" offset=".961"/><stop stop-color="#145ba1" offset=".965"/><stop stop-color="#145aa0" offset=".969"/><stop stop-color="#14599f" offset=".973"/><stop stop-color="#14599e" offset=".977"/><stop stop-color="#14589e" offset=".98"/><stop stop-color="#14579d" offset=".984"/><stop stop-color="#14579c" offset=".988"/><stop stop-color="#14569b" offset=".992"/><stop stop-color="#14559a" offset=".996"/><stop stop-color="#145599" offset="1"/></radialGradient><radialGradient id="g" cx="0" cy="0" r="22.794" gradientTransform="translate(61.22 197.2)" gradientUnits="userSpaceOnUse"><stop stop-color="#fee81b" offset="0"/><stop stop-color="#fee81b" offset=".5"/><stop stop-color="#fee71a" offset=".75"/><stop stop-color="#fde61a" offset=".754"/><stop stop-color="#fde619" offset=".758"/><stop stop-color="#fde519" offset=".762"/><stop stop-color="#fde419" offset=".766"/><stop stop-color="#fde318" offset=".77"/><stop stop-color="#fde218" offset=".773"/><stop stop-color="#fde118" offset=".777"/><stop stop-color="#fde017" offset=".781"/><stop stop-color="#fde017" offset=".785"/><stop stop-color="#fddf17" offset=".789"/><stop stop-color="#fdde17" offset=".793"/><stop stop-color="#fddd16" offset=".797"/><stop stop-color="#fddc16" offset=".801"/><stop stop-color="#fddb16" offset=".805"/><stop stop-color="#fcda15" offset=".809"/><stop stop-color="#fcda15" offset=".813"/><stop stop-color="#fcd915" offset=".816"/><stop stop-color="#fcd815" offset=".82"/><stop stop-color="#fcd714" offset=".824"/><stop stop-color="#fcd614" offset=".828"/><stop stop-color="#fcd514" offset=".832"/><stop stop-color="#fcd414" offset=".836"/><stop stop-color="#fcd413" offset=".84"/><stop stop-color="#fcd313" offset=".844"/><stop stop-color="#fcd213" offset=".848"/><stop stop-color="#fcd113" offset=".852"/><stop stop-color="#fcd013" offset=".855"/><stop stop-color="#fccf12" offset=".859"/><stop stop-color="#fccf12" offset=".863"/><stop stop-color="#fbce11" offset=".867"/><stop stop-color="#fbcd11" offset=".871"/><stop stop-color="#fbcc11" offset=".875"/><stop stop-color="#fbcb11" offset=".879"/><stop stop-color="#fbca11" offset=".883"/><stop stop-color="#fbc910" offset=".887"/><stop stop-color="#fbc910" offset=".891"/><stop stop-color="#fbc810" offset=".895"/><stop stop-color="#fbc710" offset=".898"/><stop stop-color="#fbc60f" offset=".902"/><stop stop-color="#fbc50f" offset=".906"/><stop stop-color="#fbc40f" offset=".91"/><stop stop-color="#fbc40f" offset=".914"/><stop stop-color="#fbc30f" offset=".918"/><stop stop-color="#fac20e" offset=".922"/><stop stop-color="#fac10e" offset=".926"/><stop stop-color="#fac00e" offset=".93"/><stop stop-color="#fabf0d" offset=".934"/><stop stop-color="#fabf0d" offset=".938"/><stop stop-color="#fabe0d" offset=".941"/><stop stop-color="#fabd0d" offset=".945"/><stop stop-color="#fabc0d" offset=".949"/><stop stop-color="#fabb0c" offset=".953"/><stop stop-color="#faba0c" offset=".957"/><stop stop-color="#faba0c" offset=".961"/><stop stop-color="#fab90c" offset=".965"/><stop stop-color="#fab80c" offset=".969"/><stop stop-color="#fab70b" offset=".973"/><stop stop-color="#fab60b" offset=".977"/><stop stop-color="#f9b50b" offset=".98"/><stop stop-color="#f9b50b" offset=".984"/><stop stop-color="#f9b40b" offset=".988"/><stop stop-color="#f9b30a" offset=".992"/><stop stop-color="#f9b20a" offset=".996"/><stop stop-color="#f9b20a" offset="1"/></radialGradient><radialGradient id="j" cx="0" cy="0" r="15.234" gradientTransform="matrix(.95078 0 0 1.0492 61.219 199.13)" gradientUnits="userSpaceOnUse"><stop stop-color="#ec1b24" offset="0"/><stop stop-color="#ec1b24" offset=".25"/><stop stop-color="#ec1b24" offset=".344"/><stop stop-color="#ec1b24" offset=".383"/><stop stop-color="#ec1c24" offset=".398"/><stop stop-color="#ec1c24" offset=".406"/><stop stop-color="#eb1c24" offset=".414"/><stop stop-color="#eb1c24" offset=".43"/><stop stop-color="#ea1c24" offset=".438"/><stop stop-color="#ea1c24" offset=".445"/><stop stop-color="#e91c24" offset=".453"/><stop stop-color="#e81c24" offset=".461"/><stop stop-color="#e81c24" offset=".477"/><stop stop-color="#e71c24" offset=".484"/><stop stop-color="#e71c24" offset=".492"/><stop stop-color="#e61c24" offset=".5"/><stop stop-color="#e61c24" offset=".508"/><stop stop-color="#e51d24" offset=".512"/><stop stop-color="#e51d24" offset=".516"/><stop stop-color="#e41d24" offset=".527"/><stop stop-color="#e41d24" offset=".539"/><stop stop-color="#e41d25" offset=".543"/><stop stop-color="#e31d25" offset=".547"/><stop stop-color="#e31d25" offset=".551"/><stop stop-color="#e31d25" offset=".555"/><stop stop-color="#e31d25" offset=".559"/><stop stop-color="#e21d25" offset=".563"/><stop stop-color="#e21d25" offset=".574"/><stop stop-color="#e11d25" offset=".586"/><stop stop-color="#e11d25" offset=".59"/><stop stop-color="#e11d25" offset=".594"/><stop stop-color="#e01d25" offset=".598"/><stop stop-color="#e01d25" offset=".602"/><stop stop-color="#e01d25" offset=".605"/><stop stop-color="#df1d25" offset=".609"/><stop stop-color="#df1d25" offset=".613"/><stop stop-color="#df1d25" offset=".625"/><stop stop-color="#de1e25" offset=".637"/><stop stop-color="#dd1e25" offset=".645"/><stop stop-color="#dd1e25" offset=".652"/><stop stop-color="#dc1e25" offset=".66"/><stop stop-color="#dc1e25" offset=".668"/><stop stop-color="#dc1e25" offset=".676"/><stop stop-color="#db1e25" offset=".684"/><stop stop-color="#db1e26" offset=".691"/><stop stop-color="#da1e26" offset=".699"/><stop stop-color="#d91e26" offset=".707"/><stop stop-color="#d91e26" offset=".715"/><stop stop-color="#d81e26" offset=".73"/><stop stop-color="#d81e26" offset=".738"/><stop stop-color="#d71f26" offset=".746"/><stop stop-color="#d71f26" offset=".754"/><stop stop-color="#d61f26" offset=".758"/><stop stop-color="#d61f26" offset=".762"/><stop stop-color="#d61f26" offset=".766"/><stop stop-color="#d51f26" offset=".777"/><stop stop-color="#d51f26" offset=".789"/><stop stop-color="#d41f26" offset=".793"/><stop stop-color="#d41f26" offset=".797"/><stop stop-color="#d41f26" offset=".801"/><stop stop-color="#d41f26" offset=".805"/><stop stop-color="#d31f26" offset=".809"/><stop stop-color="#d31f26" offset=".813"/><stop stop-color="#d31f26" offset=".824"/><stop stop-color="#d21f27" offset=".832"/><stop stop-color="#d21f27" offset=".84"/><stop stop-color="#d11f27" offset=".848"/><stop stop-color="#d02027" offset=".855"/><stop stop-color="#d02027" offset=".863"/><stop stop-color="#cf2027" offset=".879"/><stop stop-color="#cf2027" offset=".883"/><stop stop-color="#cf2027" offset=".887"/><stop stop-color="#cf2027" offset=".891"/><stop stop-color="#ce2027" offset=".895"/><stop stop-color="#ce2027" offset=".898"/><stop stop-color="#ce2027" offset=".902"/><stop stop-color="#cd2027" offset=".906"/><stop stop-color="#cd2027" offset=".91"/><stop stop-color="#cc2027" offset=".918"/><stop stop-color="#cc2027" offset=".926"/><stop stop-color="#cb2027" offset=".941"/><stop stop-color="#cb2027" offset=".945"/><stop stop-color="#cb2027" offset=".949"/><stop stop-color="#cb2027" offset=".953"/><stop stop-color="#ca2027" offset=".957"/><stop stop-color="#ca2028" offset=".965"/><stop stop-color="#c92128" offset=".98"/><stop stop-color="#c92128" offset=".988"/><stop stop-color="#c82128" offset=".992"/><stop stop-color="#c82128" offset="1"/></radialGradient></defs><g stroke-width=".153"><g clip-path="url(#a)" transform="translate(-187.25 -1076.4) scale(6.5477)"><path d="M28.969 197.2c0 17.812 14.438 32.254 32.25 32.254s32.254-14.441 32.254-32.254-14.441-32.25-32.254-32.25-32.25 14.438-32.25 32.25" fill="#fff"/></g><g clip-path="url(#b)" transform="translate(-187.25 -1076.4) scale(6.5477)"><g clip-path="url(#c)"><path d="M30.492 166.48v61.449h61.434V166.48z" fill="url(#d)"/></g></g><g fill="#fff"><path d="M60.744 214.806c0 84.433 68.443 152.85 152.85 152.85 84.432 0 152.85-68.417 152.85-152.85 0-84.406-68.418-152.85-152.85-152.85-84.407 0-152.85 68.444-152.85 152.85"/><path d="m341.81 322.45 5.346-6.65-3.222-2.608-8.62 10.691 12.098 9.77 3.223-3.99c-.946-.767-2.046-2.225-1.074-3.427 1.509-1.892 4.246.537 5.601 1.612 2.84 2.301 3.94 3.53 2.635 5.166-.537.64-1.075.844-1.663.767l-1.714-.92-3.325 4.143c3.632 3.12 6.804 2.123 9.54-1.279 3.377-4.169 3.428-7.494-2.148-11.995-4.527-3.658-7.673-4.553-10.384-1.177-.972 1.177-1.458 2.635-.997 4.093h-.103zm-4.808 28.749c3.453 3.709 6.446 2.992 9.694-.179 5.5-5.37.665-10.487-3.964-15.192-5.244-5.397-9.643-9.95-15.219-4.502-4.22 4.118-2.378 8.261 1.305 12.046 2.48 2.533 6.164 4.093 9.054 1.28 1.202-1.177 1.867-2.584 1.893-4.298 4.45 4.553 6.19 5.909 4.297 7.75l-1.714.512-1.586-1.1zm-5.14-12.303c-1.152-1.202-3.326-3.427-1.689-5.013 1.611-1.585 3.734.486 4.91 1.688 1.152 1.177 3.25 3.479 1.638 5.065-1.611 1.585-3.709-.563-4.86-1.74m.154 25.142c3.862-3.12 4.552-6.47 1.38-10.384-2.07-2.583-4.143-4.399-7.57-3.222l-.025-.053c1.816-2.48.946-4.63-.844-6.829-3.044-3.81-6.42-3.964-10.18-.92-3.785 3.043-4.348 6.368-1.279 10.154 1.765 2.225 3.683 3.53 6.497 2.276l.05.052c-1.866 3.07-.536 5.5 1.536 8.083 3.146 3.913 6.573 3.964 10.435.844M317.232 345.7c1.432-1.177 2.992.384 3.81 1.407.845 1.074 2.098 2.916.64 4.118-1.458 1.176-3.018-.46-3.862-1.535-.818-.997-2.02-2.839-.588-3.99m7.059 8.747c1.842-1.483 3.76.998 4.757 2.25.972 1.203 2.098 3.019.512 4.298-1.586 1.279-3.12-.205-4.067-1.407-1.023-1.253-3.043-3.657-1.202-5.14m-20.845 7.851c.818-1.535 1.56-3.223 2.072-4.936l11.33 17.213 4.758-3.12-14.758-22.38-4.22 2.787c-.128 2.251-.972 4.323-1.944 6.241zm-6.752 18.108 2.353 4.476 3.99-2.122-2.353-4.476zm-8.901 9.72 6.087-2.686-4.552-28.262-5.116 2.25 3.734 20.36-.05.026-11.945-16.753-5.422 2.353zm-14.272.052 1.714 4.783 4.245-1.483-1.688-4.783zm-2.635 6.394-1.125-4.092-9.105 2.455-2.123-7.8 8.133-2.226-1.125-4.092-8.133 2.2-1.79-6.6 8.823-2.403-1.1-4.118-14.322 3.887 7.264 26.754zm-49.695-19.029.409 4.604 6.292-.562 2.046 23.019 5.653-.511-2.047-23.02 6.292-.562-.409-4.578zm-14.477 11.1.154-11.1-5.678-.076-.358 27.725 5.678.077.153-12.379 6.522.077-.153 12.379 5.678.076.358-27.725-5.704-.077-.127 11.1zm-21.203 15.193c5.243.87 8.492-1.023 9.694-8.337l-5.525-.896c-.435 2.149-.895 5.55-3.504 5.141-3.146-.537-3.043-3.632-1.892-10.64 1.176-7.008 2.071-9.974 5.243-9.437 1.662.281 2.072 1.739 1.458 5.37l5.499.921c1.202-5.831-.563-9.437-6.292-10.384-9.234-1.534-10.384 5.346-11.586 12.584-1.177 7.162-2.328 14.119 6.905 15.679m-17.75-14.605-5.192-1.56 5.908-10.717h.077zm-10.742 7.648 3.248-5.448 7.418 2.225-.307 6.318 5.729 1.713.844-28.671-7.162-2.149-15.141 24.426zm-15.576-18.032 1.355.588c3.99 1.74 2.584 4.195 1.28 7.213-.742 1.663-1.638 3.325-1.612 5.167l5.09 2.225c-.026-1.253 1.97-6.087 2.685-7.699 1.995-4.578-1.253-6.343-2.327-6.982l.025-.053c3.632.921 5.934-.972 7.341-4.22 1.918-4.322.64-7.648-2.89-9.182l-9.618-4.22-11.125 25.398 5.192 2.276zm4.808-10.972 2.302.997c1.663.742 2.277 2.097 1.202 4.502-.716 1.637-2.225 3.478-4.297 2.583l-2.301-1.023zM124.87 351.66l-2.353 3.964 5.448 3.223-11.766 19.899 4.886 2.864 11.765-19.873 5.448 3.223 2.328-3.965zM94.05 363.4l12.328-16.088.077.052-6.471 20.59 5.934 4.578 16.88-21.996-4.22-3.249-11.663 15.244-.076-.052 5.96-19.618-6.088-4.68-16.88 21.996zm-8.824-7.597 18.901-20.283-4.169-3.887-18.876 20.282zm-8.415-7.903 3.197-2.84-6.267-7.058 6.037-5.371 5.601 6.317 3.197-2.839-5.601-6.317 5.115-4.528 6.062 6.855 3.197-2.839-9.847-11.075-20.718 18.39zM364.165 308.308c2.378 1.406 5.447.69 6.854-1.714 1.433-2.379.563-5.397-1.816-6.804-2.404-1.432-5.447-.716-6.88 1.688-1.407 2.38-.563 5.423 1.842 6.83m4.476-42.304 19.028 7.238v.077l-21.714-.282-2.66 7.034 26.037 9.898 1.893-4.988-18.032-6.854.026-.077 20.615.077 2.736-7.213-26.037-9.899zm2.48-8.67 27.06 6.623 1.356-5.55-27.085-6.599zm2.098-8.16 4.22.69 1.56-9.36 8.032 1.33-1.382 8.363 4.22.69 1.382-8.337 6.778 1.125-1.51 9.054 4.247.69 2.43-14.68-27.496-4.553zm14.91-29.004-.05 1.483c-.18 4.374-2.967 3.965-6.292 3.837-1.816-.077-3.683-.282-5.422.409l-.205 5.576c1.177-.486 6.42-.384 8.185-.333 5.013.204 5.473-3.504 5.678-4.732h.076c.486 3.735 3.07 5.192 6.625 5.32 4.757.18 7.391-2.225 7.545-6.113l.383-10.537-27.827-1.049-.23 5.704zm12.047.46-.102 2.532c-.077 1.816-1.125 2.865-3.785 2.762-1.765-.052-4.067-.792-3.965-3.069l.077-2.532zm-23.556-9.822 4.271-.256-.614-9.463 8.134-.511.537 8.44 4.271-.281-.537-8.44 6.855-.436.588 9.183 4.271-.282-.946-14.885-27.802 1.765zm-3.555-30.487 1.253 6.573 28.723 1.842-1.05-5.525-20.793-.87-.026-.076 19.106-7.954-1.125-5.832zm19.157-33.812-4.4 1.432 1.97 6.036-22.099 7.188 1.765 5.422 22.099-7.162 1.944 6.036 4.399-1.432zm-21.536-8.108.614 1.33c1.867 3.964-.819 4.885-3.837 6.292-1.637.767-3.402 1.432-4.63 2.839l2.38 5.064c.818-.972 5.524-3.3 7.135-4.041 4.527-2.123 3.248-5.602 2.865-6.804l.076-.026c2.123 3.095 5.116 3.197 8.313 1.688 4.322-1.995 5.55-5.346 3.913-8.875l-4.45-9.566-25.245 11.791 2.404 5.192zm10.896-5.116 1.074 2.302c.767 1.663.332 3.07-2.072 4.195-1.611.742-3.99 1.15-4.936-.895l-1.074-2.302zm-30.77-5.831c5.193 7.852 11.127 3.964 17.214-.053 6.139-4.04 12.021-7.903 6.83-15.78-5.167-7.853-11.05-3.99-17.188.052-6.088 4.015-12.021 7.903-6.855 15.78m3.478-2.301c-1.765-2.66.589-4.732 6.548-8.645 5.96-3.939 8.773-5.269 10.538-2.583 1.765 2.685-.588 4.731-6.548 8.645-5.96 3.913-8.772 5.268-10.538 2.583m-20.896-21.28 3.683 4.348 8.645-7.315 2.737 3.222c4.322 5.116 8.747 2.584 11.151.537 3.888-3.299 5.064-6.957 1.688-10.921l-6.65-7.878zm21.664-10.87 1.867 2.199c1.662 1.97.588 3.683-1.151 5.14-1.432 1.203-3.632 1.51-4.732.231l-2.046-2.43zm-18.441 3.094c5.96-6.42-2.763-13.888.818-17.776 1.33-1.406 2.84-1.406 4.195-.153 1.688 1.56.486 3.35-.921 4.885l4.067 3.786c4.246-4.016 3.964-7.75-.103-11.535-5.09-4.758-8.977-3.607-11.918-.41-5.678 6.062 2.532 14.119-.896 17.802-1.278 1.381-2.839 1.663-4.245.359-2.302-2.149-.844-3.863.946-5.806l-4.17-3.888c-3.503 3.325-5.421 7.34-.255 12.15 3.197 2.966 7.545 5.882 12.481.587m-26.549-19.132-2.992 4.118 3.657 2.686 3.019-4.118zm4.042-24.605-9.847 16.677c-1.56 2.66-3.402 3.555-5.55 2.276-1.791-1.074-2.354-2.967-.589-5.908l9.847-16.676-4.91-2.916-10.053 17.009c-2.685 4.527-1.764 8.926 3.632 12.123 6.01 3.53 10.231.921 12.328-2.66l10.078-17.008zm-38.263-1.764-1.484 3.657 8.569 3.504 1.483-3.632zm-22.175 6.036 5.32-19.669.076.026 1.868 21.613 7.264 1.97 7.264-26.908-5.141-1.38-5.039 18.62-.077-.027-1.97-20.512-7.442-2.02-7.264 26.88zm-17.879-15.09 1.484.204c4.322.613 3.632 3.35 3.171 6.624-.256 1.816-.665 3.657-.128 5.448l5.525.767c-.358-1.228.256-6.42.512-8.185.69-4.961-2.942-5.78-4.144-6.112v-.077c3.76-.102 5.474-2.532 5.96-6.062.664-4.706-1.458-7.57-5.32-8.108l-10.436-1.458-3.862 27.598 5.652.792zm1.663-11.92 2.532.333c1.79.256 2.737 1.407 2.379 4.041-.256 1.765-1.228 3.965-3.453 3.658l-2.507-.358zm-17.802-5.729-.23 19.362c-.051 3.095-1.202 4.783-3.709 4.732-2.072-.027-3.504-1.382-3.453-4.809l.256-19.387-5.73-.077-.23 19.771c-.076 5.243 2.916 8.594 9.182 8.67 6.957.103 9.336-4.27 9.387-8.44l.23-19.77zm-36.473 2.02.512 4.58 6.317-.717 2.635 23.096 5.678-.665-2.635-23.07 6.292-.716-.511-4.604zm-19.08 21.306 1.432-.409c4.246-1.125 4.68 1.663 5.55 4.86.46 1.765.819 3.632 1.995 5.064l5.397-1.458c-.819-.972-2.302-6.01-2.762-7.724-1.305-4.86-4.962-4.17-6.216-4.016l-.025-.052c3.427-1.586 4.04-4.502 3.12-7.929-1.228-4.578-4.322-6.368-8.082-5.37l-10.18 2.761 7.29 26.882 5.499-1.483zm-3.146-11.637 2.455-.665c1.74-.46 3.07.205 3.76 2.788.46 1.714.46 4.118-1.74 4.706l-2.43.665zm-1.842 25.22-1.637-3.965-8.772 3.58-3.095-7.519 7.852-3.197-1.612-3.99-7.852 3.223-2.609-6.369 8.518-3.478-1.612-3.965-13.811 5.653 10.563 25.781zm-26.83-9.566c-2.558-5.243-7.162-6.343-12.047-3.607-8.159 4.553-4.962 10.948-1.535 17.086 5.167 9.234 8.083 12.226 16.472 7.545 1.995-1.125 5.09-3.555 6.292-4.578l-6.906-12.328-7.673 4.297 2.071 3.734 2.712-1.51 3.018 5.397c-.614.691-1.382 1.382-2.2 1.842-2.865 1.586-4.323.64-8.594-6.957-2.634-4.732-5.013-9.003-1.918-10.742 2.634-1.458 4.118.333 5.345 2.609zm-9.31 27.879-15.884-22.892-4.68 3.249 15.857 22.891zm-7.06 4.655-2.762-3.274-7.264 6.138-5.243-6.215 6.47-5.473-2.762-3.274-6.47 5.473-4.451-5.243 7.033-5.934-2.762-3.274-11.382 9.618 17.98 21.28zm-32.022 31.434 4.092-4.63-12.098-17.06.051-.076L94.02 103.77l4.195-4.706-16.83-23.045-3.709 4.195 12.38 15.55-.052.053-17.34-9.95-4.476 5.04 11.765 16.215-.05.053-16.984-10.308-3.888 4.374zm-25.347 8.338-9.463-5.909-3.018 4.86 23.608 14.732 3.043-4.834-10.538-6.573 3.453-5.55 10.538 6.573 3.018-4.834-23.608-14.758-3.043 4.834 9.463 5.909zm6.932 23.915c2.123-4.886 1.1-8.518-5.73-11.51l-2.25 5.167c1.995.946 5.217 2.225 4.143 4.655-1.279 2.966-4.271 2.097-10.819-.768s-9.207-4.476-7.903-7.417c.69-1.56 2.2-1.586 5.602-.102l2.25-5.141c-5.396-2.609-9.335-1.765-11.689 3.58-3.76 8.62 2.686 11.434 9.438 14.4 6.676 2.916 13.172 5.755 16.958-2.864m-12.61 8.772c-8.415-2.506-11.254 8.645-16.318 7.136-1.842-.537-2.532-1.893-1.995-3.658.665-2.225 2.788-1.943 4.783-1.355l1.585-5.32c-5.473-2.02-8.696-.102-10.281 5.218-1.995 6.675.741 9.617 4.936 10.87 7.954 2.353 11.535-8.568 16.318-7.136 1.816.537 2.762 1.816 2.225 3.658-.895 3.018-3.069 2.48-5.627 1.714l-1.637 5.473c4.553 1.663 9.004 1.611 10.999-5.166 1.253-4.17 1.918-9.387-4.988-11.433m-1.023 36.78-20.103-3.326v-.076l21.33-4.016 1.228-7.443-27.495-4.552-.87 5.269 19.03 3.145v.077l-20.231 4.016-1.254 7.622 27.495 4.527zm-29.157 14.246 19.387.23c3.069.053 4.757 1.202 4.731 3.709-.025 2.072-1.406 3.504-4.834 3.453l-19.361-.256-.077 5.704 19.745.256c5.244.076 8.62-2.916 8.696-9.182.077-6.957-4.271-9.336-8.44-9.387l-19.771-.256zm18.133 24.503.614 5.396-12.251-1.227-.026-.077zm11.306 6.88-6.318-.844-.87-7.724 5.96-2.2-.69-5.985-26.831 10.538.844 7.468 28.544 4.348zm-7.315 21.408-.333-1.433c-1.049-4.271 1.765-4.63 4.988-5.422 1.764-.435 3.631-.742 5.09-1.867l-1.305-5.448c-1.023.793-6.087 2.148-7.801 2.583-4.885 1.177-4.297 4.86-4.17 6.113h-.05c-1.484-3.453-4.4-4.143-7.852-3.3-4.604 1.126-6.471 4.17-5.55 7.93l2.48 10.256 27.06-6.6-1.329-5.55zm-11.69 2.864-.613-2.48c-.41-1.766.307-3.07 2.89-3.684 1.714-.435 4.118-.358 4.655 1.867l.614 2.456zm28.289 10.794c-.921-2.251-3.479-7.7-10-5.04-3.556 1.459-5.602 3.454-4.63 7.418l-.051.026c-1.74-2.634-4.476-3.197-7.443-1.995-5.499 2.251-5.32 6.062-3.683 10.078l3.837 9.387L65.22 283.04zm-20.155 12.967-1.33-3.248c-.742-1.79.128-3.606 2.02-4.4 2.507-.997 3.965.282 4.425 1.433l1.433 3.53zm10.538-4.297-1.279-3.095c-1.074-2.634-.025-4.066 2.25-4.987 3.607-1.483 4.681 1.023 5.142 2.148l1.202 2.942zm8.415 21.817c-2.353 1.458-3.146 4.502-1.662 6.88 1.457 2.354 4.552 2.993 6.905 1.51 2.354-1.458 3.12-4.502 1.663-6.88-1.483-2.354-4.553-2.993-6.906-1.51"/></g><g clip-path="url(#e)" transform="translate(-187.25 -1076.4) scale(6.5477)"><g clip-path="url(#f)"><path d="M38.797 174.78v44.844h44.844V174.78z" fill="url(#g)"/></g></g><path d="M317.486 121.567h-209.35v1.56l.026 3.914c.025 5.473.051 15.525.051 23.198 0 86.351 30.743 145.817 106.119 205.231l.972.793.997-.818c73.89-61.385 102.668-118.907 102.668-205.205 0-1.535.051-23.505.077-27.112v-1.56z" fill="#fff"/><g clip-path="url(#h)" transform="translate(-187.25 -1076.4) scale(6.5477)"><g clip-path="url(#i)"><path d="M47.344 183.77v30.738h27.855V183.77z" fill="url(#j)"/></g></g></g><g fill="#211e1e"><use x="84.301" y="283.638" width="100%" height="100%" xlink:href="#k" transform="translate(-28.969 -164.95)"/><use x="84.122" y="474.755" width="100%" height="100%" xlink:href="#k" transform="translate(-28.969 -164.95)"/><use x="80.495" y="520.259" width="100%" height="100%" xlink:href="#k" transform="translate(-28.969 -164.95)"/><use x="104.143" y="674.972" width="100%" height="100%" xlink:href="#k" transform="translate(-28.969 -164.95)"/><use x="285.252" y="292.784" width="100%" height="100%" xlink:href="#k" transform="translate(-28.969 -164.95)"/><use x="320.914" y="429.238" width="100%" height="100%" xlink:href="#k" transform="translate(-28.969 -164.95)"/><use x="325.782" y="574.851" width="100%" height="100%" xlink:href="#k" transform="translate(-28.969 -164.95)"/><use x="326.691" y="574.851" width="100%" height="100%" xlink:href="#k" transform="translate(-28.969 -164.95)"/><use x="340.537" y="684.034" width="100%" height="100%" xlink:href="#k" transform="translate(-28.969 -164.95)"/><use x="518.815" y="320.047" width="100%" height="100%" xlink:href="#k" transform="translate(-28.969 -164.95)"/><use x="426.356" y="420.155" width="100%" height="100%" xlink:href="#k" transform="translate(-28.969 -164.95)"/><use x="488.164" y="429.256" width="100%" height="100%" xlink:href="#k" transform="translate(-28.969 -164.95)"/><use x="442.613" y="438.357" width="100%" height="100%" xlink:href="#k" transform="translate(-28.969 -164.95)"/><use x="492.167" y="620.373" width="100%" height="100%" xlink:href="#k" transform="translate(-28.969 -164.95)"/><use x="455.789" y="647.675" width="100%" height="100%" xlink:href="#k" transform="translate(-28.969 -164.95)"/><use x="466.567" y="656.776" width="100%" height="100%" xlink:href="#k" transform="translate(-28.969 -164.95)"/></g><g transform="translate(-28.969 -164.95)" clip-path="url(#l)"><path d="M-606.61.625h-15v-1.25h15zm1213.2-1.25h15v1.25h-15zm-1213.2 843.14h-15v-1.25h15zm1213.2-1.25h15v1.25h-15zm-1202.5-867.6h1.25v15h-1.25zm1.25 894.57h-1.25v-15h1.25zm1189.3-894.57h1.25v15h-1.25zm1.25 894.57h-1.25v-15h1.25z" fill="#fff"/><path d="M-606.61.125h-15v-.25h15zm1213.2-.25h15v.25h-15zm-1213.2 842.14h-15v-.25h15zm1213.2-.25h15v.25h-15zm-1202-868.1h.25v15h-.25zm.25 894.57h-.25v-15h.25zm1190.3-894.57h.25v15h-.25zm.25 894.57h-.25v-15h.25z" fill="#211e1e"/></g><g transform="translate(-28.969 -164.95)" clip-path="url(#m)"><path d="M-.625-32.336h1.25v15h-1.25zm1.25 906.56h-1.25v-15h1.25zm-1.25-906.56h1.25v15h-1.25zm1.25 906.56h-1.25v-15h1.25zm-1.25-902.81h1.25v11.25h-1.25zm1.25 899.06h-1.25v-11.25h1.25z" fill="#fff"/><path d="M-.125-32.336h.25v15h-.25zm.25 906.56h-.25v-15h.25zm-.25-906.56h.25v15h-.25zm.25 906.56h-.25v-15h.25zm-.25-902.81h.25v11.25h-.25zm.25 899.06h-.25v-11.25h.25z" fill="#211e1e"/></g></svg>