<?xml version="1.0" encoding="utf-8"?>
<!-- Generator: Adobe Illustrator 16.0.4, SVG Export Plug-In . SVG Version: 6.00 Build 0)  -->
<!DOCTYPE svg PUBLIC "-//W3C//DTD SVG 1.1//EN" "http://www.w3.org/Graphics/SVG/1.1/DTD/svg11.dtd">
<svg version="1.1" id="Ebene_1" xmlns="http://www.w3.org/2000/svg" xmlns:xlink="http://www.w3.org/1999/xlink" x="0px" y="0px"
	 width="170.621px" height="170.652px" viewBox="0 0 170.621 170.652" enable-background="new 0 0 170.621 170.652"
	 xml:space="preserve">
<g>
	<path fill="#FFDD00" d="M-17.578,110.923"/>
	<path fill="none" stroke="#FFFFFF" stroke-width="3" d="M-17.578,110.923"/>
	<path fill="#FFDD00" d="M-17.578,110.923"/>
	<path fill="#FFE100" d="M85.607,170.652c0,0-11.771-11.702-23.652-12.643C-1.122,153.014-5.259,106.14,3.369,89.159
		c11.012-21.673,17.339-32.521,17.679-39.053c0.469-9.008-10.533-20.473-10.533-20.473L47.995,0c0,0,21.478,14.756,37.316,14.893
		C101.149,14.756,122.626,0,122.626,0l37.481,29.633c0,0-10.81,11.465-10.342,20.473c0.341,6.532,6.476,17.38,17.487,39.053
		c8.627,16.981,4.491,63.855-58.586,68.851C96.784,158.95,85.607,170.652,85.607,170.652"/>
	<path fill="#0054A0" d="M162.213,101.473H87.796l-0.001-78.596c0,0,1.194-0.332,2.089-0.305
		c9.734,0.299,32.536-13.153,32.536-13.153l27.146,20.269c0,0-8.206,12.144-7.324,20.891c1.367,13.562,9.28,27.888,14.927,36.709
		C163.37,96.979,162.213,101.473,162.213,101.473"/>
	<path fill="#1A1A18" d="M8.225,101.286h74.402V22.689c0,0-0.993-0.145-1.889-0.117C71.007,22.871,48.009,9.231,48.009,9.231
		L20.625,30.298c0,0,6.74,9.175,7.77,17.279c0.795,6.258-3.206,19.394-7.142,26.131c-2.498,4.276-4.241,8.282-6.224,11.425
		C8.72,95.134,8.225,101.286,8.225,101.286"/>
	<path fill="#1A1A18" d="M28.95,106.121h12.731v39.002c0,0-4.235-1.313-6.863-2.385c-2.33-0.948-5.868-2.7-5.868-2.7V106.121z"/>
	<path fill="#0054A0" d="M46.103,106.121h12.731v43.769c0,0-3.203-0.318-6.863-1.113c-2.364-0.513-5.868-2.064-5.868-2.064V106.121z
		"/>
	<path fill="#0054A0" d="M79.138,106.121h12.731v50.601c0,0-1.525,0-6.559,3.496c-4.422-3.496-6.173-3.496-6.173-3.496V106.121z"/>
	<path fill="#1A1A18" d="M108.083,106.121H95.352v48.535c0,0,4.729-2.384,8.387-3.178c2.365-0.514,4.345-0.477,4.345-0.477V106.121z
		"/>
	<path fill="#1A1A18" d="M62.786,106.121h12.731v48.534c0,0-4.727-2.383-8.388-3.177c-2.364-0.513-4.343-0.477-4.343-0.477V106.121z
		"/>
	<path fill="#0054A0" d="M125.074,106.121h-12.731v43.769c0,0,3.203-0.318,6.863-1.113c2.365-0.513,5.868-2.064,5.868-2.064V106.121
		z"/>
	<path fill="#1A1A18" d="M141.8,106.121h-12.73v39.002c0,0,4.234-1.313,6.863-2.385c2.329-0.949,5.867-2.7,5.867-2.7V106.121z"/>
	<path fill="#0054A0" d="M162.076,106.121h-16.638v31.375c0,0,5.562-6.674,8.845-11.165
		C161.183,116.888,162.076,106.121,162.076,106.121"/>
	<path fill="#FFE100" d="M44.382,27.513h28.28l4.757,9.913l-9.25-5.507H53.104v11.067l1.322,0.774l5.021-5.232l-3.965,11.6
		l-2.622-1.589l-0.021,7.888h5.551c0,0-5.815-12.116,6.343-12.392c1.34-0.03,3.436,0,3.436,0l3.7-2.203v9.639
		c0,0-7.871-6.791-8.722-1.343c-1.585,10.154,5.815,4.647,5.815,4.647l3.964,10.189l-6.079-4.406c0,0,1.86,5.072,3.172,8.261
		c6.343,15.421-11.894,22.306-11.894,22.306v-8.537c0,0,6.608,6.609,7.401-6.058c0.424-6.787-6.079-16.248-6.079-16.248h-6.871
		l-0.001,15.263c0,0,2.809,0.527,8.195-1.753c-2.357,6.663-7.931,7.695-7.931,7.695l0.265,13.218l-8.986-6.334
		c0,0,1.429-1.335,1.85-2.478c0.543-1.477,0-4.057,0-4.057s-16.94,0.057-16.508-20.452c0.162-7.698,3.196-13.65,9.9-17.073
		c2.486-1.269,6.872-1.853,6.872-1.853V31.919L44.382,27.513z"/>
	<path fill="#1A1A18" d="M45.704,74.493V48.014c0,0-9.169-0.351-9.515,13.921C35.917,73.185,45.704,74.493,45.704,74.493"/>
	<path fill="#FFE100" d="M39.899,39.428c0-0.978,0.761-1.771,1.7-1.771s1.7,0.793,1.7,1.771s-0.761,1.771-1.7,1.771
		S39.899,40.406,39.899,39.428"/>
	<path fill="#FFE100" d="M37.441,28.564l-5.525,5.402l0.68,1.328l1.955-0.974c0,0-0.152,4.482,0.085,6.111
		c0.425,2.922,2.618,1.399,4.165,0.797c0,0-2.125-5.314-0.17-12.487C38.759,28.271,37.441,28.564,37.441,28.564"/>
</g>
<rect x="130.61" y="37.398" fill="#FFE100" width="9.436" height="3.371"/>
<rect x="133.711" y="34.168" fill="#FFE100" width="3.234" height="9.829"/>
<rect x="143.415" y="92.303" fill="#FFE100" width="9.435" height="3.371"/>
<rect x="146.515" y="89.075" fill="#FFE100" width="3.234" height="9.829"/>
<rect x="92.735" y="77.979" fill="#FFE100" width="9.435" height="3.37"/>
<rect x="95.835" y="74.75" fill="#FFE100" width="3.235" height="9.829"/>
<rect x="94.893" y="29.556" fill="#FFE100" width="9.436" height="3.37"/>
<rect x="97.992" y="26.327" fill="#FFE100" width="3.235" height="9.829"/>
<g>
	<path fill="#FFE100" d="M134.414,88.4l-0.348-4.538l1.916-2.178l-2.439-0.726l-1.219-2.359l-4.355-2.723
		c0,0-0.139-2.295,1.741-2.723c9.128-2.08,2.055-15.065,2.055-15.065s-2.229-7.96-0.029-7.96c0.647,0,2.112,0.743,2.502,5.063
		c0.278,3.073,1.874,5.11,2.268,3.985c0.521-1.487,1.422-2.551,1.373-3.905c-0.219-6.206-6.221-10.609-8.342-5.143
		c-1.069,2.759,0.697,7.597,0.697,7.597l2.265,7.26c0,0,1.045,11.072-7.49,2.178c-2.837-2.955-5.227-10.528-5.227-10.528
		l-3.136,0.364l1.045-3.268l1.394,1.997l1.567-4.356l2.265-2.36l-0.174-3.267l1.742,0.181l-0.522-1.271l-0.696-2.904l1.045-2.904
		l-0.174-2.541l-1.568-0.182l-0.523-1.815L121,35.58l-1.045-1.815l-4.181-1.997l-1.045,0.908l1.393,1.452l-2.787-0.545l-1.916,1.634
		l0.871,1.633l2.439,0.182c0,0,3.979,6.232-1.742,5.445c-0.621-0.085-0.349,1.634-0.349,1.634l4.354,0.363l-4.528,2.723
		l-3.484-0.364l-4.007,0.545l0.696,1.815l-2.612,0.935l0.871-3.839c0,0-6.366-2.619-5.924-4.719
		c0.265-1.255,2.515-0.818,2.438-2.101c-0.192-3.201-2.304-2.401-2.304-2.401l-3.071,3.001c0,0,0.796-3.061-0.446-3.4
		c-1.34-0.366-1.668,3.267-1.668,3.267s-0.963,1.03-0.871,1.815c0.151,1.296,3.136,0.726,3.136,0.726l0.522,2.905l2.961,2.904
		l0.697,1.842l2.614,0.88l-1.221,2.36l1.916,1.27l-0.871,2.179l2.266,0.726l-1.219,0.726l1.219,0.726l2.962-2.904l-1.917-0.908
		l2.091-3.086l-0.174-1.27h1.568l-0.001,1.27l-1.742,2.179h3.31c0,0-7.069,9.396-11.148,10.164
		c-1.229,0.232-2.266-2.359-2.266-2.359l-1.567,1.815l-2.091-0.726l-1.22,1.452l1.046,1.633l-0.175,2.179l1.742,0.363l1.917-1.634
		l2.613,1.815l1.741-2.178h1.916l1.568-2.178l1.917-0.726l1.219-1.815h3.484l-0.697-2.723l3.484,0.726l-0.696,1.815l-2.613,1.997
		c0,0,3.676,1.125,6.098,1.27c5.089,0.307,3.657,12.706,3.657,12.706l1.395,1.997l0.997,2.806l3.357-0.265l3.658,1.452l1.395,5.264
		l-1.045,1.452l-2.439-1.452l-0.871,1.634l-1.567,1.27l0.348,1.452l3.659-0.726l-1.221,1.814l1.568,1.089l1.568-1.633l2.091-2.541
		l1.219,1.452l1.742-0.182l-1.568-2.541V88.4z"/>
	<path fill="#FFE100" d="M114.374,39.456c-0.541-2.207-3.266-0.03-5.44-1.417c-4.165-2.657-3.4,0.266-3.4,0.266
		s1.433,2.49,2.551,1.948C114.729,37.032,114.985,41.95,114.374,39.456"/>
</g>
<polygon fill="#FFE100" points="116.329,30.866 121.599,33.523 124.574,32.46 121.599,31.929 120.919,29.006 118.199,30.246 
	115.904,27.767 "/>
<g>
	<path fill="#FFE100" d="M117.604,70.894l-1.189-1.948l-1.955,2.479l-3.91,1.506l-4.846,5.756l1.701,0.797l0.085,2.834l-2.211,3.631
		c0,0-3.563,1.904-2.634,1.239c4.334-3.099,3.4-6.199,3.4-6.199s-2.125,4.074-4.506,4.251c-0.632,0.047-1.614-0.177-1.614-0.177
		l-1.105,1.86l-1.529,0.266l-0.766,1.506h1.36l1.104,1.948l0.085,1.062l1.53-0.177l1.529-2.303l2.125-0.354l1.956,0.62l2.039-0.975
		l1.359-1.594l2.295-0.089l0.681-1.24l2.21,0.355l-0.34-6.377l4.08-4.604l0.255-2.037L117.604,70.894z"/>
	<path fill="none" stroke="#0054A0" stroke-width="0.209" stroke-miterlimit="3.864" d="M116.771,37.797
		c-0.001,2.231,1.436,2.603,1.006,4.556"/>
</g>
<polygon fill="#0054A0" points="115.6,48.393 116.609,47.239 117.907,47.734 119.062,46.581 119.782,45.427 119.782,48.063 
	118.485,48.887 117.187,50.455 "/>
<polygon fill="none" stroke="#0054A0" stroke-width="0.209" stroke-miterlimit="3.864" points="115.6,48.393 116.609,47.239 
	117.907,47.734 119.062,46.581 119.782,45.427 119.782,48.063 118.485,48.887 117.187,50.455 "/>
<g>
	<path fill="#0054A0" d="M8.227,106.121h16.638v31.375c0,0-5.562-6.674-8.845-11.165C9.121,116.888,8.227,106.121,8.227,106.121"/>
</g>
</svg>

