<?xml version="1.0" encoding="UTF-8"?>
<svg width="301" height="332" enable-background="new 0 0 368.9 227.8" version="1.1" viewBox="0 0 301 332" xml:space="preserve" xmlns="http://www.w3.org/2000/svg">
<g transform="matrix(2.8108 0 0 2.8108 2.2375 3.3047)"><g transform="translate(-132.47 .0057073)"><g clip-rule="evenodd" fill-rule="evenodd">
	<path d="m135.9 8.5c30.8-10.5 64.8-12.4 98.4 0.7 12.1 47.3-3.3 83.7-49.1 107-50.5-22.3-58.8-61.7-49.3-107.7zm0.4 0.4c30.6-10.4 64.3-12.3 97.6 0.7 12 46.9-3.3 83.1-48.7 106.1-50.1-22.1-58.3-61.2-48.9-106.8z" fill="#ff0000"/>
	<path d="m136.3 8.9c30.6-10.4 64.3-12.3 97.6 0.7 12 46.9-3.3 83.1-48.7 106.1-50.1-22.1-58.3-61.2-48.9-106.8zm2.2 2.2c29.2-10 61.4-11.8 93.2 0.7 11.4 44.8-3.1 79.3-46.5 101.3-47.8-21.1-55.6-58.4-46.7-102z" fill="#ffffff"/>
	<path d="m138.5 11.1c29.2-10 61.4-11.8 93.2 0.7 11.4 44.8-3.1 79.3-46.5 101.3-47.8-21.1-55.6-58.4-46.7-102zm2.1 2.1c27.9-9.5 58.7-11.2 89.1 0.7 10.9 42.8-3 75.8-44.5 96.9-45.7-20.3-53.2-56-44.6-97.6z" fill="#e11419"/>
	<path d="m191.1 30.7c0.3 0.5 0.6 1.1 1.4 1 0.6-0.1 1-0.9 1.2-1.5zm17 31.5c0.1 0 1.4 0.3 1.7 0.3 2.6 0.4 3.1-0.4 5.7 0 3.3 0.4 3.4 3 1.9 4.3-1.5 1.2-7.9 1.6-8.5 0.7-0.6-0.8-0.9-4.4-0.8-5.3zm-15.9-27.4h0.1-0.1c0 0.1-0.1 0.1-0.2 0.2-0.6 0.1-1.1 0-1.8 0.2-0.5 0.1-1.4 0.3-1.8 0.5 0 0.3 0.3 0.5 0.6 0.6 0.7 0.3 2.9 0 5 0.8 0.6 0.2 1.3 0.7 1.5 0.7 0 1.3-0.8 2.1-2.2 2.1-1.7 0.1-2.1 0.1-3.5 0.8-0.8 0.4-1.8 1.3-2.4 1.9l-0.5 0.5-0.8 0.9c-0.3 0.3-0.5 0.8-0.7 0.9-1.1 0.1-1.8-0.7-2.2-1.3-0.4-0.7-0.8-1.5-1.2-2.3-0.8-1.4-1.8-2.9-2.4-4.5-0.6-1.4-1.8-3.7-1-5.4 0.5-1 0.8-1.5 0.4-2.7-0.2-0.7-0.6-1.3-1.3-1.3-0.2 0-0.6 0-0.7 0.1-0.1 0.5 0.1 0.5 0.2 0.8s0.1 0.6 0 0.9c-0.1 1 0 1.3 0 1.9-0.2-0.1-0.3-0.5-0.4-0.7-0.5-1.1-0.2-1-1.2-2.2-0.3-0.4-1-0.6-1.7-0.5-0.6 0.1-1 0.6-1.1 1.2 0.4 0.2 0.8 0.3 1 0.6s0 0.5 0.5 1.1 1.4 0.5 1.5 1.6v0.1h-0.1c-0.6-0.2-1-0.6-1.2-1-0.7-0.9-0.7-0.9-1.4-0.9-1 0-1.9 0.2-2.2 1.2-0.1 0.4-0.1 0.6-0.1 1v0.1h0.1c0.3 0 0.5-0.1 0.8 0 0.2 0 0.4 0.2 0.5 0.3 0.7 0.6 0.5 0.2 1.3 0.2 0.7 0 2.1 0.8 2.2 1.2 0.4 1-0.7 1.7-1 2.3-0.2 0.3-1 2.2-1 2.4 1.2 0.3 1.6-0.2 2.3-0.8 1.2-0.9 0.5-1.8 1-2.2 0.7 0.7 1.6 5.1 1.9 6.4 0.3 1.1 0.5 2.2 0.9 3.2 0.3 0.7 0.7 1.1 1.1 1.5 0.1 0.1 0.2 0.1 0.1 0.3-0.1 0.3-0.2 0.6-0.2 0.8 0.4 0 0.7-0.2 1.1 0 0.1 0.5-0.2 0.8 0.4 0.9 0.4 0 0.8 0 1.2 0.1 0.5 0.1 1.4 0.5 1.6 0.9-0.2 0.1-0.6 0.2-0.8 0.4 0.1 0.5 0.7 0.4 1 0.9h-0.1c-0.5 0.3-6 1.4-6.7 1.5-2.3 0.4-2.4 0.6-4.5-0.3-1.7-0.7-0.7-1.9-3.4-2.1-1.2-0.1-1.5 1-1.4 1.2 1.6 0.2 1.2 0.3 1.7 0.7 0.4 0.3 1.3 0.5 1.5 0.9-1.2 0-1.5-0.8-2.9-0.2-0.5 0.2-0.8 0.4-1.1 0.7-0.4 0.4-0.4 0.7-0.6 1.1v0.4c0.1 0.2 0.1 0.4 0.3 0.4 0.2 0.1 0.5 0 0.6-0.1 0.2-0.3 0.5-0.4 1-0.4s0.8 0 1.3-0.2c0.4-0.1 0.7-0.3 1.2-0.2-0.3 0.6-1.1 0.6-1.8 0.7-0.1 0.2-0.4 0.8-0.5 1.1-0.2 0.4-0.3 0.7-0.4 1.1-0.3 0.9-0.1 1.7 1 1.8 0.1-0.4 0.3-0.7 0.5-0.9s0.5-0.7 0.7-0.8c0.4-0.2 0.7-0.2 0.9-0.5s0.4-0.6 0.6-0.8c0.5-0.4 1.5-0.7 2.3-0.4 0.8 0.4 0.6 1.4 1.1 1.8 0.3 0.2 0.7 0.2 1.1 0.4s0.5 0.4 0.6 0.8c0.2 0.6 0.6 0.6 0.7 0.3 0.2-0.3 0.2-0.8 0.2-1.2-0.1-0.9-0.5-1.5-0.9-2-0.3-0.3-0.6-0.6-1-0.9-0.1-0.1-0.5-0.3-0.5-0.6 0.9-0.2 2.6 0.1 3.6 0.1 1.2 0.1 2.5 0 3.7 0 1.2 0.1 2.5 0.1 3.7 0.1 0.9 0 2.8-0.2 3.6-0.1l0.3 0.6c0.2 0.6 0.7 1.2 1.1 1.6 0.6 0.5 1.3 1 2.2 1.4 1 0.4 4.4 1.5 4.8 2.5-0.6 0.7-7.4 0.6-9.7 1.4-0.7 0.3-1.2 0.6-2.1 0.7-2.2 0.3-2.2 0.4-4 1.5-0.8 0.5-1.5 0.4-2 0.7 0 0.8 0.7 0.9 1.4 0.9 0.4 0 0.7-0.1 1-0.1 0.3-0.1 0.7-0.2 1-0.2 0.1 3.4 1.6 4.7 1.4 5.9-0.2 1.4-3.8 1.7-5.2 2.1-2.8 0.8-3.1 1.8-4.9-0.6-1.1-1.4-4.5-2.1-4.8-0.2 0.1 0.1 0.3 0.2 0.5 0.2 0.2 0.1 0.4 0.1 0.6 0.1 0.4 0.1 0.5 0.3 0.7 0.7 0.2 0.5 0.1 0.6 0.6 0.8 0.3 0.1 0.8 0.2 1 0.4-0.8 0-1.8-0.1-2.6-0.2-0.4 0-0.4 0.1-0.6 0.4-0.5 0.9-1.8 0.9-1.7 2.7 0 0.8 0.4 1.6 1.1 1.6 0.2-0.3 0.3-1 0.6-1.2 0.3-0.3 1 0 1.4 0.1 0.1 0.9 0 1.9 0.2 2.8 0.2 0.8 0.7 1.4 1.6 1.4 0.3-0.1 0.2-1.1 0.3-1.4 0.1-0.7 0.4-0.5 0.9-0.8 0.8-0.4 0.7-1.6 1.6-1.8 0.3 0.3 0 0.6 0.6 1 0.1 0.1 0.3 0.1 0.4 0.2 0.2 0.1 0.2 0.6 0.2 0.8 0.1 0.5 0 0.4 0.2 0.8 1.5 0 1.5-1.3 1.9-2.4 0.2-0.6 0.1-0.6 0.1-1.2 0.7-0.3 1 0.4 1.6 0.4 0.5 0 1.3-0.3 1.8-0.4 1.1-0.3 2.2-0.7 3.3-1 2-0.6 5.6-0.8 5.9-2.8 0.2-1.2-0.8-2.2-1-3.3-0.3-1.3 0.6-2.4 1.2-3 1.5-1.5 4-2.6 6.1-2.6 0.3 1.2-0.8 2.6-1.2 3.4-0.3 0.5-0.3 1.2-0.6 1.7-0.5 0.9-1.2 0.4-1.1 1.2 0.5 0.3 1.2 0.3 1.7 0 0.5-0.2 0.7-0.6 0.9-1.2 0.1-0.3 0.6-0.8 0.8-0.7 0.1 0 0.3 0.1 0.3 0.2 0.5 0.4 0.1 0.7-0.3 1.2-0.2 0.2-0.8 0.9-1 1-0.7 0.7-1.3 1.3-1.8 2.2-0.2 0.4-0.5 0.9-0.7 1.3-0.5 0.8-1 1.9-1.6 2.5-1 1.1-1.5 1.1-3 0.9-1.6-0.3-2 0.3-3.3 0.6-0.9 0.2-1-0.2-1.6-0.4-0.4-0.1-0.6 0.1-0.4 0.5 0.1 0.2 0.3 0.4 0.3 0.6-0.7 0-3.2-1.1-3.4 0.4 0.2 0.2 1.2 0.2 1.5 0.4 0.6 0.3 1.3 0.9 2.3 1.5 0.5 0.2 1 0.3 1.4 0.5 0 0.6-0.7 0.7-0.4 1.6 0.3 0 0.5-0.1 0.7-0.2 0.6-0.4 1.6-0.2 2.3-0.2 1.2 0.1 1.7-0.4 2.5-1 0.2-0.1 0.3-0.3 0.4-0.4 1-1 1.6-2.5 2.2-3.8 0.8-1.7 1.7-3 2.7-4.2 0.4-0.5 1.4-1.8 1.8-2.1l0.2-0.2c0.4-0.5 0.9-0.9 1.7-0.9 0.7 0 1.9 0.8 2.4 1.1 0.6 0.4 1.5 1 1.6 1.9 0.1 1.1-0.5 1.8-1 2.5-0.6 1.1-1.2 2.3-2 3.2-0.3 0.3-0.5 0.6-0.9 0.9-1 0.7-1.6 0.3-2.8 0.2-1.6-0.2-4.7 0.3-4 2.6 0.6 0.2 0.9-0.3 1.7-0.2 0.3 0.1 0.4 0.2 0.8 0.2 0.2 0 0.7-0.1 0.9 0.1-0.1 0.1-0.6 0.3-0.8 0.4-1 0.3-1.2 0-1.5 1.9-0.2 1.3 0.2 1.6 0.9 2.4 0.1 0.1 0.5 0.4 0.8 0.2 0.1-0.1 0.1-0.9 0.2-1.1 0.1-0.6 0.3-0.3 0.7-0.6 1-0.6 0.4-1.3 1.1-1.4 0.2 0.9-1 0.7-0.5 2.5 0.1 0.4 0.3 0.8 0.5 1.1 0.4 0.6 0.4 0.4 0.9 0.7h0.4c0.4-0.2 0.7-0.1 0.6-0.8-0.1-0.5-0.1-0.7 0.1-1.2 0.2-0.4 0.4-0.6 0.2-1.1-0.1-0.5-0.2-0.7 0.2-1 0.2 0 0.3 0.1 0.3 0.3 0.1 0.4 0.7 0.6 1 0.7 0.5 0.2 0.7 0.8 0.9 1.4 1.1-0.1 1.2-1.1 1.2-2-0.1-0.8 0.1-1 0.1-1.4 0-0.5-0.5-0.6-0.7-0.9 0.8-0.9 1.5-0.4 2.1-1 0.4-0.4 0.8-1.5 1.1-2.1 0.7-1.5 1.5-2.8 2.2-4.1 0.4-0.7 0.8-1.3 1.2-2 0.4-0.6 0.9-1.5 0.5-2.4s-1.8-1.5-2.6-2.1c-0.3-0.2-0.7-0.4-0.8-0.8 0.1-0.2 0.2-0.2 0.5-0.2 0.5-0.1 1.4-0.1 1.9-0.1 2.3-0.1 4.5-0.4 6.2-1.9 2-1.8 0.9-6-1.6-7.2-3-1.3-6.6 0.6-9.5-0.9-1.2-0.6-2-1.6-2.7-2.7-0.3-0.5-0.7-1.2-0.9-1.8-0.2-0.5-0.7-1.5-0.5-2.1 0.5 0.1 0.9 0.9 1.1 1.3 0.3 0.5 0.7 1 1 1.4 0.7 0.9 1.3 1.7 3 1.8-0.1-0.7-0.9-1.7-1.2-2.2-0.2-0.4-1-1.9-1-2.4 1-0.1 1.6 1.2 2.3 2.1 0.5 0.7 1.5 1.7 2.4 2 0.6 0.3 1.7 0.5 2.5 0.3-0.1-0.3-0.7-1.1-0.9-1.3-0.4-0.6-2.8-3.5-2.6-3.9 0.9-0.1 1.4 0.9 2.2 1.6s1.7 1.8 2.5 2.3c0.6 0.4 1.1 0.8 1.8 1.1 1 0.3 2.5 0.3 3-0.4-0.2-0.5-1.6-1.8-2.2-2.3l-0.8-0.8c-0.6-0.5-1.3-1.2-1.9-1.7-0.3-0.2-0.5-0.6-0.8-0.9s-0.6-0.4-0.6-1c1-0.2 3.5 3 6.8 3.3 1 0.1 2.3 0.1 2.8-0.5-0.1-0.4-0.4-0.7-0.7-0.8-0.7-0.4-0.8-0.3-1.5-0.9-0.3-0.3-3.8-2.3-4.4-2.7-0.3-0.2-0.8-0.3-0.7-0.9 0.8-0.1 3.8 0.7 5 0.8 1.6 0.1 4-0.3 4-1.9-0.3-0.1-0.6-0.2-0.9-0.3-1.4-0.3-6.1-0.7-6.4-1.5 3.1-0.1 7.7 0.1 7.7-3.4-1.7 0.1-5.1 1-6.6 0.6v-0.7c0.2-0.1 2-0.4 2.3-0.5 1.4-0.3 2.9-0.7 3.8-1.8 0.5-0.6 0.9-1 0.7-2-1 0-2.2 0.3-3.2 0.5l-1.5 0.3c-0.4 0.1-1.2 0.2-1.6 0.1l-0.2-0.1c0.4-0.6 4.1-0.9 5.9-3.2 0.7-0.9 0.8-1 0.8-2.1v0h-0.1c-0.8 0-2.5 0.8-3.3 1.1-0.9 0.3-2.4 0.9-3.4 0.9h-0.1v-0.1l0.4-0.4c0.2-0.1 0.3-0.2 0.5-0.3 0.4-0.2 0.7-0.3 1.1-0.5 0.7-0.3 1.5-0.6 2.2-1 0.9-0.5 1.2-0.7 1.9-1.3 1-1 0.9-1.8 1-2.2v-0.5l-0.1-0.2c-1.7 0.1-5.1 2-7.1 2.2l0.2-1-1.5 0.6h-0.1l0.1-0.1c0-0.3 0.2-0.5 0.3-0.7-0.9-0.1-3.1 1.2-4.3 1.7-2.4 0.8-5.2 0.9-7.4 1.5-0.8 0.2-1.4 0.5-1.8 1.2-1 1.8 0.1 3.2 1.2 3.9 0.6 0.4 1.3 0.7 1.8 1.1 0.3 0.3 1.2 1.2 0.9 2-0.2 0.7-1.7 3.1-2.1 3.8-0.8 1.5-1.2 2.5-2.8 3.1s-3.5 0-5.1-0.3c-0.1-0.2-0.1-0.4 0-0.6 0-0.1 0.2-0.3 0.3-0.4 0.6 0 1.9 0.9 2.3 0.8 0.2-0.3-0.3-1.6-0.3-2 0-1.3 0.7-3.5 0.5-6.7-0.1-1.6-0.2-2.8-0.8-4.1-0.3-0.6-1.1-1.6-1.6-2.1-0.1-0.1-0.5-0.4-0.7-0.5 0-0.9 0.2-1.9 0-2.7-0.1-0.6-0.4-1-0.8-1.3l-0.4-0.2-0.1-0.1h-0.2l-0.2 0.2c-0.2 0.2-0.3 0.8-0.5 1.2-0.2 0.5-0.5 0.9-1.1 0.9-0.3-0.9-1.1-2.4-2.4-2-0.2 0.4 0.3 1.1 0.1 1.5-0.4 0.3-1.7 0-2.5 0.6-1.1 0.8-3.5 0.8-4.1 2-0.5 0.8-0.1 1.8 0.3 2.3 0.5-0.1 0.7-0.6 1.5-0.6 0.6-0.1 1.4 0 2.1 0s1.4 0 2 0.1c0.4 0.1 1.2 0.4 1.5 0.6v0.2c-0.5-0.1-0.8-0.3-1.3-0.5-3-0.8-5.8 1.2-7.8 0.2-1.2-0.6-0.2-1.7-0.2-2.6-0.6-0.2-1.4 0.1-1.7 0.4-0.6 0.6-0.6 1.7-0.2 2.6 0.4 0.7 1 1.2 1.9 1.4 1.9 0.5 3.7-0.6 5.6-1 1.4 0.4 1.9 0.4 2.6 0.4z" fill="#e11419"/>
	<path d="m183.3 105.4h0.1c0.7 0.2 1.9 0.3 2.6 0.2h0.4c1.1-0.1 2.3-0.5 3.4-1h0.1c0.5-0.2 1-0.6 1.4-0.9 0.1-0.1 0.2-0.1 0.3-0.2 0.6-0.5 1.2-1 1.7-1.7 1.1-1.5 1.8-3.3 2-5.2v-1.7c-0.1-1.2-0.6-3-1.3-4-0.2-0.3-0.4-0.6-0.6-1-0.1-0.1-0.1-0.2-0.2-0.3-0.7-0.8-0.2-0.4-1-0.4-0.3 0-0.6-0.1-0.9-0.1 0 0.2 0.1 0.7 0.1 0.9 0.6 0.2 1.2 0.5 1.8 0.8 0.3 0.2 0.4 0.4 0.6 0.8 0.3 0.5 0.5 1.1 0.6 1.6 0.1 0.3 0.3 1 0.2 1.3-0.2 0.3-1.5 1.5-1.8 1.8-0.2 0.2-0.1 0.3 0 0.5 0.2 1 0.4 3.4-0.2 4.1-0.5 0.6-1.1 1.2-1.8 1.6l-0.2 0.2c-0.2 0.1-0.3 0.2-0.5 0.2-0.4 0.2-1.1 0.6-1.5 0.6 0.2-0.2 0.4-0.5 0.5-0.7l0.4-0.6c0.2-0.3-0.1-0.3-0.6-0.5-0.3-0.1-0.4-0.2-0.7-0.4l-1.3-0.8c-0.5 0.4-1.2 0.7-1.8 0.9-0.3 0.1-0.7 0.2-1 0.3-0.4 0.1-0.7 0.2-1 0.2-0.1 0.4 0.3 1.1 0.4 1.5-1.7-0.5-3-1.3-4-2.6-0.2-0.3-0.7-0.8-0.8-1.1l1 0.3c0.3 0.1 0.7 0.1 1 0.2 0.1-0.2 0.1-0.3 0.1-0.5 0.1-0.9 0.4-1.9 0.6-2.8 0.1-0.4 0.3-0.7 0.4-1.1-0.2-0.1-0.3-0.2-0.5-0.3-0.9-0.6-1.8-1.4-2.6-2.1l-0.4-0.4c-0.1 0.2-0.1 0.1-0.2 0.2s-0.1 0.2-0.2 0.3-0.1 0.1-0.2 0.3c-0.1 0.1-0.1 0.2-0.3 0.2 0.4-1.2 0.3-1.8 1-3.1 0.3-0.6 0.7-1.2 1.2-1.7 0.1-0.2 0.3-0.4 0.5-0.4 0 0.2 0.1 0.5 0.1 0.7l2.2-0.5c0.4-0.1 0.8-0.1 1.1-0.1 1.7-0.1 1 0.1 1.8-1.5 0.1-0.2 0.2-0.3 0.2-0.5-0.3-0.2-0.4-0.2-0.7-0.6-0.1-0.2-0.2-0.2-0.4-0.2-0.7 0.1-1.2-0.4-1.4-0.4-0.5 0-2 0.7-2.4 0.9-0.5 0.3-0.9 0.6-1.4 0.9-4 3.1-5.1 9-2.2 13.4 1 1.5 2.4 2.8 4.1 3.5 0.7 0.5 1.5 0.7 2.2 1z" fill="#ff0000"/>
	<path d="m185.6 90.4c-0.3 0.9-0.6 1.5-0.9 2.4-0.2 0.6-0.9 1.9-1 2.2l0.3 0.3c0.3 0.4 1.3 1.3 1.7 1.6l0.8 0.6c0.2 0.1 1 0.8 1.2 0.7s1.4-0.6 1.6-0.8c0.1-0.1 0.2-0.1 0.4-0.2 0.1-0.1 0.2-0.1 0.3-0.2 0.3-0.2 1.3-0.9 1.4-1.1 0-0.1 0-0.3 0.1-0.5v-1-0.4c0-0.3-0.2-1.1-0.2-1.4l-0.3-0.9c-0.4-0.9-0.3-0.7-1-1-0.9-0.3-1.5-0.3-2.3-0.4-0.7 0-1.6 0-2.1 0.1z" fill="#e11419"/>
	<path d="m147.8 27.3v48.1c-7.1-13.5-8.7-29.1-6.9-46 2.3-0.8 4.6-1.5 6.9-2.1zm17.7-3.6v72.5c-3.3-2.6-6.2-5.3-8.8-8.2v-62.8c2.9-0.6 5.8-1.1 8.8-1.5z" fill="#e11419"/>
	<path d="m140.6 13.2c27.9-9.5 58.7-11.2 89.1 0.7 10.9 42.8-3 75.8-44.5 96.9-45.7-20.3-53.2-56-44.6-97.6zm7.2 14.1v48.1c-7.1-13.5-8.7-29.1-6.9-46 2.3-0.8 4.6-1.5 6.9-2.1zm17.7-3.6v72.5c-3.3-2.6-6.2-5.3-8.8-8.2v-62.8c2.9-0.6 5.8-1.1 8.8-1.5zm-20-0.7 0.6-0.3c0.2-0.1 0.3-0.2 0.5-0.4v-1.3l-0.7 0.2h-0.2c-0.1 0-0.1-0.1-0.1-0.2v-1l2.5-0.9v3.6l-0.6 0.6c-0.2 0.2-0.4 0.4-0.6 0.5-0.2 0.2-0.5 0.3-0.7 0.4-0.3 0.1-0.5 0.2-0.8 0.3-0.5 0.2-1 0.2-1.4 0.2-0.4-0.1-0.8-0.2-1.1-0.5s-0.6-0.6-0.8-1.1-0.3-1-0.3-1.6 0.1-1.2 0.3-1.8 0.4-1.1 0.8-1.6c0.3-0.5 0.7-0.9 1.2-1.3s1-0.7 1.6-0.9c0.3-0.1 0.6-0.2 0.8-0.2h0.7c0.2 0 0.4 0.1 0.6 0.2s0.3 0.2 0.5 0.3l-0.5 1c0 0.1-0.1 0.2-0.2 0.2-0.1 0.1-0.1 0.1-0.2 0.1h-0.3c-0.1 0-0.3-0.1-0.4-0.1h-0.4-0.4c-0.1 0-0.3 0.1-0.4 0.1-0.3 0.1-0.6 0.3-0.8 0.5s-0.5 0.5-0.6 0.8c-0.2 0.3-0.3 0.6-0.4 1s-0.1 0.8-0.1 1.2 0.1 0.8 0.2 1.1 0.2 0.6 0.4 0.7c0.2 0.2 0.4 0.3 0.7 0.3 0 0 0.3 0 0.6-0.1zm4.9-3.2v3.1l-1.7 0.5v-8.5l2.3-0.7c0.5-0.1 1-0.2 1.3-0.2 0.4 0 0.7 0.1 0.9 0.3s0.4 0.4 0.5 0.7 0.2 0.6 0.2 1c0 0.3 0 0.5-0.1 0.8s-0.2 0.5-0.3 0.8c-0.1 0.2-0.3 0.5-0.5 0.7l-0.6 0.6c0.1 0 0.2 0.1 0.3 0.2l0.3 0.3 1.5 2.5-1.5 0.4c-0.3 0.1-0.5 0-0.6-0.2l-1.2-2.1c-0.1-0.1-0.1-0.2-0.2-0.2h-0.3zm0-1.4 0.7-0.2 0.6-0.3c0.2-0.1 0.3-0.2 0.4-0.4 0.1-0.1 0.2-0.3 0.2-0.5s0.1-0.4 0.1-0.5c0-0.4-0.1-0.6-0.3-0.8s-0.5-0.2-1 0l-0.7 0.2zm9.3-6.3v1.5l-3 0.7v2l2.3-0.6v1.5l-2.3 0.6v2l3-0.7v1.5l-4.7 1.1v-8.5zm2.4 8.1-1.7 0.3v-8.5l1.7-0.3zm5.7-9.3v1.5l-3 0.5v2.1l2.5-0.4v1.5l-2.5 0.4v3.3l-1.7 0.3v-8.5zm4.6 1.1c-0.1 0.1-0.1 0.2-0.2 0.2-0.1 0.1-0.1 0.1-0.2 0.1s-0.2 0-0.2-0.1c-0.1 0-0.2-0.1-0.3-0.1-0.1-0.1-0.2-0.1-0.4-0.1h-0.5c-0.3 0-0.6 0.2-0.7 0.3-0.2 0.2-0.2 0.4-0.2 0.7 0 0.2 0 0.3 0.1 0.4s0.2 0.2 0.4 0.2c0.2 0.1 0.3 0.1 0.5 0.1s0.4 0.1 0.6 0.1c0.2 0.1 0.4 0.1 0.6 0.2s0.4 0.2 0.5 0.4c0.2 0.2 0.3 0.3 0.4 0.6 0.1 0.2 0.1 0.5 0.1 0.9s-0.1 0.8-0.2 1.1c-0.1 0.4-0.3 0.7-0.5 1s-0.5 0.5-0.8 0.7-0.7 0.3-1.1 0.4h-0.7c-0.2 0-0.5-0.1-0.7-0.1l-0.6-0.3c-0.2-0.1-0.4-0.2-0.5-0.4l0.5-1c0-0.1 0.1-0.1 0.2-0.2s0.1-0.1 0.2-0.1 0.2 0 0.3 0.1 0.2 0.1 0.3 0.2 0.3 0.1 0.4 0.2c0.2 0.1 0.4 0.1 0.6 0 0.3 0 0.6-0.2 0.7-0.3 0.2-0.2 0.3-0.4 0.3-0.8 0-0.2 0-0.4-0.1-0.5s-0.2-0.2-0.4-0.3-0.3-0.1-0.5-0.1-0.4-0.1-0.6-0.1-0.4-0.1-0.6-0.2-0.4-0.2-0.5-0.4c-0.2-0.2-0.3-0.4-0.4-0.6-0.1-0.3-0.1-0.6-0.1-1 0-0.3 0.1-0.6 0.2-1 0.1-0.3 0.3-0.6 0.5-0.9s0.5-0.5 0.8-0.7 0.7-0.3 1.1-0.4h0.7c0.2 0 0.4 0 0.6 0.1s0.4 0.1 0.5 0.2c0.2 0.1 0.3 0.2 0.4 0.3zm0.5-1.8 1.4-0.1c0.1 0 0.3 0 0.4 0.1s0.2 0.2 0.2 0.3l1 4.4c0 0.1 0.1 0.3 0.1 0.5s0.1 0.3 0.1 0.5c0-0.2 0.1-0.4 0.1-0.5 0-0.2 0.1-0.3 0.1-0.5l1.2-4.5c0-0.1 0.1-0.2 0.2-0.3s0.2-0.1 0.4-0.2h0.5c0.1 0 0.3 0 0.4 0.1s0.2 0.2 0.2 0.3l1.2 4.3c0 0.1 0.1 0.3 0.1 0.4 0 0.2 0.1 0.3 0.1 0.5 0-0.2 0.1-0.3 0.1-0.5s0.1-0.3 0.1-0.4l1-4.5c0-0.1 0.1-0.2 0.2-0.3s0.2-0.1 0.4-0.1l1.4-0.1-2.3 8.6-1.6 0.1-1.4-5.2c0-0.1 0-0.2-0.1-0.3 0-0.1-0.1-0.2-0.1-0.3 0 0.1 0 0.2-0.1 0.3 0 0.1-0.1 0.2-0.1 0.3l-1.4 5.3-1.6 0.1zm17.2 8.2-1.3-0.1c-0.1 0-0.3-0.1-0.4-0.1-0.1-0.1-0.2-0.2-0.2-0.3l-0.4-1.5-2.8-0.1-0.4 1.5c0 0.1-0.1 0.2-0.2 0.3s-0.2 0.1-0.4 0.1l-1.3-0.1 2.9-8.4 1.8 0.1zm-4.8-3.4 2 0.1-0.7-2.3c0-0.1-0.1-0.3-0.2-0.5s-0.1-0.4-0.2-0.7c-0.1 0.2-0.1 0.5-0.2 0.7s-0.1 0.4-0.2 0.5zm6.7 1.9 2.7 0.2v1.6l-4.5-0.3v-8.5l1.8 0.1zm10-1.7c0 0.6-0.1 1.2-0.3 1.7s-0.4 0.9-0.8 1.2c-0.3 0.3-0.7 0.6-1.2 0.7s-1 0.2-1.6 0.1l-2.9-0.4v-8.5l2.9 0.4c0.6 0.1 1.1 0.3 1.6 0.5 0.5 0.3 0.9 0.6 1.2 1.1 0.3 0.4 0.6 0.9 0.8 1.4 0.2 0.7 0.3 1.2 0.3 1.8zm-1.8-0.2c0-0.4 0-0.8-0.1-1.2s-0.2-0.7-0.4-0.9c-0.2-0.3-0.4-0.5-0.7-0.6-0.3-0.2-0.5-0.3-0.9-0.3l-1.1-0.2v5.5l1.1 0.2c0.3 0 0.6 0 0.9-0.1s0.5-0.2 0.7-0.4 0.3-0.5 0.4-0.8c0.1-0.4 0.1-0.8 0.1-1.2zm6.9-3.2v1.5l-3-0.5v2l2.3 0.4v1.5l-2.3-0.4v2l3 0.5v1.5l-4.7-0.8v-8.5zm2.3 5.7v3.1l-1.7-0.3v-8.5l2.4 0.5c0.5 0.1 1 0.3 1.4 0.5s0.7 0.4 0.9 0.7 0.4 0.6 0.5 0.9 0.2 0.7 0.2 1 0 0.5-0.1 0.8l-0.3 0.6c-0.1 0.2-0.3 0.3-0.5 0.5l-0.6 0.3 0.3 0.3c0.1 0.1 0.2 0.3 0.3 0.4l1.6 3.3-1.5-0.3c-0.3-0.1-0.5-0.2-0.6-0.5l-1.2-2.7c-0.1-0.1-0.1-0.2-0.2-0.3s-0.2-0.1-0.3-0.1zm0-1.3 0.7 0.1c0.2 0 0.4 0.1 0.6 0 0.2 0 0.3-0.1 0.4-0.2s0.2-0.2 0.2-0.4 0.1-0.3 0.1-0.5c0-0.4-0.1-0.7-0.3-0.9-0.2-0.3-0.5-0.4-1-0.5l-0.7-0.1zm11.5-1v1.5l-3-0.8v2.1l2.5 0.7v1.5l-2.5-0.7v3.3l-1.7-0.5v-8.5zm5.3 8.1s0.1 0 0.1 0.1l0.1 0.1 0.7 1c-0.3 0.3-0.6 0.6-1.1 0.6-0.4 0.1-0.9 0-1.5-0.2-0.5-0.2-1-0.5-1.4-0.8-0.4-0.4-0.8-0.8-1.1-1.3s-0.5-1-0.7-1.6-0.2-1.2-0.2-1.8 0.1-1.2 0.3-1.6c0.2-0.5 0.4-0.8 0.8-1.1 0.3-0.3 0.7-0.4 1.2-0.5s1 0 1.5 0.2c0.3 0.1 0.5 0.2 0.8 0.3 0.2 0.1 0.5 0.3 0.7 0.5l0.6 0.6c0.2 0.2 0.3 0.4 0.5 0.6l-0.6 0.7-0.1 0.1h-0.2c-0.1 0-0.1-0.1-0.2-0.1s-0.1-0.1-0.2-0.2l-0.4-0.4c-0.1-0.1-0.2-0.2-0.3-0.2-0.1-0.1-0.3-0.1-0.5-0.2-0.3-0.1-0.6-0.1-0.8-0.1s-0.5 0.1-0.6 0.3c-0.2 0.2-0.3 0.4-0.4 0.7s-0.1 0.7-0.1 1.1 0.1 0.8 0.1 1.2c0.1 0.4 0.2 0.7 0.4 1s0.4 0.5 0.6 0.7 0.5 0.3 0.7 0.4c0.1 0.1 0.3 0.1 0.4 0.1h0.3c0.1 0 0.2 0 0.3-0.1 0.1 0 0.2-0.1 0.3-0.2 0 0 0.1 0 0.1-0.1-0.2 0.1-0.2 0.1-0.1 0.2zm-35.1 7.4c0.3 0.5 0.6 1.1 1.4 1 0.6-0.1 1-0.9 1.2-1.5zm17 31.5c0.1 0 1.4 0.3 1.7 0.3 2.6 0.4 3.1-0.4 5.7 0 3.3 0.4 3.4 3 1.9 4.3-1.5 1.2-7.9 1.6-8.5 0.7-0.6-0.8-0.9-4.4-0.8-5.3zm-15.9-27.4h0.1-0.1c0 0.1-0.1 0.1-0.2 0.2-0.6 0.1-1.1 0-1.8 0.2-0.5 0.1-1.4 0.3-1.8 0.5 0 0.3 0.3 0.5 0.6 0.6 0.7 0.3 2.9 0 5 0.8 0.6 0.2 1.3 0.7 1.5 0.7 0 1.3-0.8 2.1-2.2 2.1-1.7 0.1-2.1 0.1-3.5 0.8-0.8 0.4-1.8 1.3-2.4 1.9l-0.5 0.5-0.8 0.9c-0.3 0.3-0.5 0.8-0.7 0.9-1.1 0.1-1.8-0.7-2.2-1.3-0.4-0.7-0.8-1.5-1.2-2.3-0.8-1.4-1.8-2.9-2.4-4.5-0.6-1.4-1.8-3.7-1-5.4 0.5-1 0.8-1.5 0.4-2.7-0.2-0.7-0.6-1.3-1.3-1.3-0.2 0-0.6 0-0.7 0.1-0.1 0.5 0.1 0.5 0.2 0.8s0.1 0.6 0 0.9c-0.1 1 0 1.3 0 1.9-0.2-0.1-0.3-0.5-0.4-0.7-0.5-1.1-0.2-1-1.2-2.2-0.3-0.4-1-0.6-1.7-0.5-0.6 0.1-1 0.6-1.1 1.2 0.4 0.2 0.8 0.3 1 0.6s0 0.5 0.5 1.1 1.4 0.5 1.5 1.6v0.1h-0.1c-0.6-0.2-1-0.6-1.2-1-0.7-0.9-0.7-0.9-1.4-0.9-1 0-1.9 0.2-2.2 1.2-0.1 0.4-0.1 0.6-0.1 1v0.1h0.1c0.3 0 0.5-0.1 0.8 0 0.2 0 0.4 0.2 0.5 0.3 0.7 0.6 0.5 0.2 1.3 0.2 0.7 0 2.1 0.8 2.2 1.2 0.4 1-0.7 1.7-1 2.3-0.2 0.3-1 2.2-1 2.4 1.2 0.3 1.6-0.2 2.3-0.8 1.2-0.9 0.5-1.8 1-2.2 0.7 0.7 1.6 5.1 1.9 6.4 0.3 1.1 0.5 2.2 0.9 3.2 0.3 0.7 0.7 1.1 1.1 1.5 0.1 0.1 0.2 0.1 0.1 0.3-0.1 0.3-0.2 0.6-0.2 0.8 0.4 0 0.7-0.2 1.1 0 0.1 0.5-0.2 0.8 0.4 0.9 0.4 0 0.8 0 1.2 0.1 0.5 0.1 1.4 0.5 1.6 0.9-0.2 0.1-0.6 0.2-0.8 0.4 0.1 0.5 0.7 0.4 1 0.9h-0.1c-0.5 0.3-6 1.4-6.7 1.5-2.3 0.4-2.4 0.6-4.5-0.3-1.7-0.7-0.7-1.9-3.4-2.1-1.2-0.1-1.5 1-1.4 1.2 1.6 0.2 1.2 0.3 1.7 0.7 0.4 0.3 1.3 0.5 1.5 0.9-1.2 0-1.5-0.8-2.9-0.2-0.5 0.2-0.8 0.4-1.1 0.7-0.4 0.4-0.4 0.7-0.6 1.1v0.4c0.1 0.2 0.1 0.4 0.3 0.4 0.2 0.1 0.5 0 0.6-0.1 0.2-0.3 0.5-0.4 1-0.4s0.8 0 1.3-0.2c0.4-0.1 0.7-0.3 1.2-0.2-0.3 0.6-1.1 0.6-1.8 0.7-0.1 0.2-0.4 0.8-0.5 1.1-0.2 0.4-0.3 0.7-0.4 1.1-0.3 0.9-0.1 1.7 1 1.8 0.1-0.4 0.3-0.7 0.5-0.9s0.5-0.7 0.7-0.8c0.4-0.2 0.7-0.2 0.9-0.5s0.4-0.6 0.6-0.8c0.5-0.4 1.5-0.7 2.3-0.4 0.8 0.4 0.6 1.4 1.1 1.8 0.3 0.2 0.7 0.2 1.1 0.4s0.5 0.4 0.6 0.8c0.2 0.6 0.6 0.6 0.7 0.3 0.2-0.3 0.2-0.8 0.2-1.2-0.1-0.9-0.5-1.5-0.9-2-0.3-0.3-0.6-0.6-1-0.9-0.1-0.1-0.5-0.3-0.5-0.6 0.9-0.2 2.6 0.1 3.6 0.1 1.2 0.1 2.5 0 3.7 0 1.2 0.1 2.5 0.1 3.7 0.1 0.9 0 2.8-0.2 3.6-0.1l0.3 0.6c0.2 0.6 0.7 1.2 1.1 1.6 0.6 0.5 1.3 1 2.2 1.4 1 0.4 4.4 1.5 4.8 2.5-0.6 0.7-7.4 0.6-9.7 1.4-0.7 0.3-1.2 0.6-2.1 0.7-2.2 0.3-2.2 0.4-4 1.5-0.8 0.5-1.5 0.4-2 0.7 0 0.8 0.7 0.9 1.4 0.9 0.4 0 0.7-0.1 1-0.1 0.3-0.1 0.7-0.2 1-0.2 0.1 3.4 1.6 4.7 1.4 5.9-0.2 1.4-3.8 1.7-5.2 2.1-2.8 0.8-3.1 1.8-4.9-0.6-1.1-1.4-4.5-2.1-4.8-0.2 0.1 0.1 0.3 0.2 0.5 0.2 0.2 0.1 0.4 0.1 0.6 0.1 0.4 0.1 0.5 0.3 0.7 0.7 0.2 0.5 0.1 0.6 0.6 0.8 0.3 0.1 0.8 0.2 1 0.4-0.8 0-1.8-0.1-2.6-0.2-0.4 0-0.4 0.1-0.6 0.4-0.5 0.9-1.8 0.9-1.7 2.7 0 0.8 0.4 1.6 1.1 1.6 0.2-0.3 0.3-1 0.6-1.2 0.3-0.3 1 0 1.4 0.1 0.1 0.9 0 1.9 0.2 2.8 0.2 0.8 0.7 1.4 1.6 1.4 0.3-0.1 0.2-1.1 0.3-1.4 0.1-0.7 0.4-0.5 0.9-0.8 0.8-0.4 0.7-1.6 1.6-1.8 0.3 0.3 0 0.6 0.6 1 0.1 0.1 0.3 0.1 0.4 0.2 0.2 0.1 0.2 0.6 0.2 0.8 0.1 0.5 0 0.4 0.2 0.8 1.5 0 1.5-1.3 1.9-2.4 0.2-0.6 0.1-0.6 0.1-1.2 0.7-0.3 1 0.4 1.6 0.4 0.5 0 1.3-0.3 1.8-0.4 1.1-0.3 2.2-0.7 3.3-1 2-0.6 5.6-0.8 5.9-2.8 0.2-1.2-0.8-2.2-1-3.3-0.3-1.3 0.6-2.4 1.2-3 1.5-1.5 4-2.6 6.1-2.6 0.3 1.2-0.8 2.6-1.2 3.4-0.3 0.5-0.3 1.2-0.6 1.7-0.5 0.9-1.2 0.4-1.1 1.2 0.5 0.3 1.2 0.3 1.7 0 0.5-0.2 0.7-0.6 0.9-1.2 0.1-0.3 0.6-0.8 0.8-0.7 0.1 0 0.3 0.1 0.3 0.2 0.5 0.4 0.1 0.7-0.3 1.2-0.2 0.2-0.8 0.9-1 1-0.7 0.7-1.3 1.3-1.8 2.2-0.2 0.4-0.5 0.9-0.7 1.3-0.5 0.8-1 1.9-1.6 2.5-1 1.1-1.5 1.1-3 0.9-1.6-0.3-2 0.3-3.3 0.6-0.9 0.2-1-0.2-1.6-0.4-0.4-0.1-0.6 0.1-0.4 0.5 0.1 0.2 0.3 0.4 0.3 0.6-0.7 0-3.2-1.1-3.4 0.4 0.2 0.2 1.2 0.2 1.5 0.4 0.6 0.3 1.3 0.9 2.3 1.5 0.5 0.2 1 0.3 1.4 0.5 0 0.6-0.7 0.7-0.4 1.6 0.3 0 0.5-0.1 0.7-0.2 0.6-0.4 1.6-0.2 2.3-0.2 1.2 0.1 1.7-0.4 2.5-1 0.2-0.1 0.3-0.3 0.4-0.4 1-1 1.6-2.5 2.2-3.8 0.8-1.7 1.7-3 2.7-4.2 0.4-0.5 1.4-1.8 1.8-2.1l0.2-0.2c0.4-0.5 0.9-0.9 1.7-0.9 0.7 0 1.9 0.8 2.4 1.1 0.6 0.4 1.5 1 1.6 1.9 0.1 1.1-0.5 1.8-1 2.5-0.6 1.1-1.2 2.3-2 3.2-0.3 0.3-0.5 0.6-0.9 0.9-1 0.7-1.6 0.3-2.8 0.2-1.6-0.2-4.7 0.3-4 2.6 0.6 0.2 0.9-0.3 1.7-0.2 0.3 0.1 0.4 0.2 0.8 0.2 0.2 0 0.7-0.1 0.9 0.1-0.1 0.1-0.6 0.3-0.8 0.4-1 0.3-1.2 0-1.5 1.9-0.2 1.3 0.2 1.6 0.9 2.4 0.1 0.1 0.5 0.4 0.8 0.2 0.1-0.1 0.1-0.9 0.2-1.1 0.1-0.6 0.3-0.3 0.7-0.6 1-0.6 0.4-1.3 1.1-1.4 0.2 0.9-1 0.7-0.5 2.5 0.1 0.4 0.3 0.8 0.5 1.1 0.4 0.6 0.4 0.4 0.9 0.7h0.4c0.4-0.2 0.7-0.1 0.6-0.8-0.1-0.5-0.1-0.7 0.1-1.2 0.2-0.4 0.4-0.6 0.2-1.1-0.1-0.5-0.2-0.7 0.2-1 0.2 0 0.3 0.1 0.3 0.3 0.1 0.4 0.7 0.6 1 0.7 0.5 0.2 0.7 0.8 0.9 1.4 1.1-0.1 1.2-1.1 1.2-2-0.1-0.8 0.1-1 0.1-1.4 0-0.5-0.5-0.6-0.7-0.9 0.8-0.9 1.5-0.4 2.1-1 0.4-0.4 0.8-1.5 1.1-2.1 0.7-1.5 1.5-2.8 2.2-4.1 0.4-0.7 0.8-1.3 1.2-2 0.4-0.6 0.9-1.5 0.5-2.4s-1.8-1.5-2.6-2.1c-0.3-0.2-0.7-0.4-0.8-0.8 0.1-0.2 0.2-0.2 0.5-0.2 0.5-0.1 1.4-0.1 1.9-0.1 2.3-0.1 4.5-0.4 6.2-1.9 2-1.8 0.9-6-1.6-7.2-3-1.3-6.6 0.6-9.5-0.9-1.2-0.6-2-1.6-2.7-2.7-0.3-0.5-0.7-1.2-0.9-1.8-0.2-0.5-0.7-1.5-0.5-2.1 0.5 0.1 0.9 0.9 1.1 1.3 0.3 0.5 0.7 1 1 1.4 0.7 0.9 1.3 1.7 3 1.8-0.1-0.7-0.9-1.7-1.2-2.2-0.2-0.4-1-1.9-1-2.4 1-0.1 1.6 1.2 2.3 2.1 0.5 0.7 1.5 1.7 2.4 2 0.6 0.3 1.7 0.5 2.5 0.3-0.1-0.3-0.7-1.1-0.9-1.3-0.4-0.6-2.8-3.5-2.6-3.9 0.9-0.1 1.4 0.9 2.2 1.6s1.7 1.8 2.5 2.3c0.6 0.4 1.1 0.8 1.8 1.1 1 0.3 2.5 0.3 3-0.4-0.2-0.5-1.6-1.8-2.2-2.3l-0.8-0.8c-0.6-0.5-1.3-1.2-1.9-1.7-0.3-0.2-0.5-0.6-0.8-0.9s-0.6-0.4-0.6-1c1-0.2 3.5 3 6.8 3.3 1 0.1 2.3 0.1 2.8-0.5-0.1-0.4-0.4-0.7-0.7-0.8-0.7-0.4-0.8-0.3-1.5-0.9-0.3-0.3-3.8-2.3-4.4-2.7-0.3-0.2-0.8-0.3-0.7-0.9 0.8-0.1 3.8 0.7 5 0.8 1.6 0.1 4-0.3 4-1.9-0.3-0.1-0.6-0.2-0.9-0.3-1.4-0.3-6.1-0.7-6.4-1.5 3.1-0.1 7.7 0.1 7.7-3.4-1.7 0.1-5.1 1-6.6 0.6v-0.7c0.2-0.1 2-0.4 2.3-0.5 1.4-0.3 2.9-0.7 3.8-1.8 0.5-0.6 0.9-1 0.7-2-1 0-2.2 0.3-3.2 0.5l-1.5 0.3c-0.4 0.1-1.2 0.2-1.6 0.1l-0.2-0.1c0.4-0.6 4.1-0.9 5.9-3.2 0.7-0.9 0.8-1 0.8-2.1v0h-0.1c-0.8 0-2.5 0.8-3.3 1.1-0.9 0.3-2.4 0.9-3.4 0.9h-0.1v-0.1l0.4-0.4c0.2-0.1 0.3-0.2 0.5-0.3 0.4-0.2 0.7-0.3 1.1-0.5 0.7-0.3 1.5-0.6 2.2-1 0.9-0.5 1.2-0.7 1.9-1.3 1-1 0.9-1.8 1-2.2v-0.5l-0.1-0.2c-1.7 0.1-5.1 2-7.1 2.2l0.2-1-1.5 0.6h-0.1l0.1-0.1c0-0.3 0.2-0.5 0.3-0.7-0.9-0.1-3.1 1.2-4.3 1.7-2.4 0.8-5.2 0.9-7.4 1.5-0.8 0.2-1.4 0.5-1.8 1.2-1 1.8 0.1 3.2 1.2 3.9 0.6 0.4 1.3 0.7 1.8 1.1 0.3 0.3 1.2 1.2 0.9 2-0.2 0.7-1.7 3.1-2.1 3.8-0.8 1.5-1.2 2.5-2.8 3.1s-3.5 0-5.1-0.3c-0.1-0.2-0.1-0.4 0-0.6 0-0.1 0.2-0.3 0.3-0.4 0.6 0 1.9 0.9 2.3 0.8 0.2-0.3-0.3-1.6-0.3-2 0-1.3 0.7-3.5 0.5-6.7-0.1-1.6-0.2-2.8-0.8-4.1-0.3-0.6-1.1-1.6-1.6-2.1-0.1-0.1-0.5-0.4-0.7-0.5 0-0.9 0.2-1.9 0-2.7-0.1-0.6-0.4-1-0.8-1.3l-0.4-0.2-0.1-0.1h-0.2l-0.2 0.2c-0.2 0.2-0.3 0.8-0.5 1.2-0.2 0.5-0.5 0.9-1.1 0.9-0.3-0.9-1.1-2.4-2.4-2-0.2 0.4 0.3 1.1 0.1 1.5-0.4 0.3-1.7 0-2.5 0.6-1.1 0.8-3.5 0.8-4.1 2-0.5 0.8-0.1 1.8 0.3 2.3 0.5-0.1 0.7-0.6 1.5-0.6 0.6-0.1 1.4 0 2.1 0s1.4 0 2 0.1c0.4 0.1 1.2 0.4 1.5 0.6v0.2c-0.5-0.1-0.8-0.3-1.3-0.5-3-0.8-5.8 1.2-7.8 0.2-1.2-0.6-0.2-1.7-0.2-2.6-0.6-0.2-1.4 0.1-1.7 0.4-0.6 0.6-0.6 1.7-0.2 2.6 0.4 0.7 1 1.2 1.9 1.4 1.9 0.5 3.7-0.6 5.6-1 1.4 0.4 1.9 0.4 2.6 0.4zm-8.9 70.6h0.1c0.7 0.2 1.9 0.3 2.6 0.2h0.4c1.1-0.1 2.3-0.5 3.4-1h0.1c0.5-0.2 1-0.6 1.4-0.9 0.1-0.1 0.2-0.1 0.3-0.2 0.6-0.5 1.2-1 1.7-1.7 1.1-1.5 1.8-3.3 2-5.2v-1.7c-0.1-1.2-0.6-3-1.3-4-0.2-0.3-0.4-0.6-0.6-1-0.1-0.1-0.1-0.2-0.2-0.3-0.7-0.8-0.2-0.4-1-0.4-0.3 0-0.6-0.1-0.9-0.1 0 0.2 0.1 0.7 0.1 0.9 0.6 0.2 1.2 0.5 1.8 0.8 0.3 0.2 0.4 0.4 0.6 0.8 0.3 0.5 0.5 1.1 0.6 1.6 0.1 0.3 0.3 1 0.2 1.3-0.2 0.3-1.5 1.5-1.8 1.8-0.2 0.2-0.1 0.3 0 0.5 0.2 1 0.4 3.4-0.2 4.1-0.5 0.6-1.1 1.2-1.8 1.6l-0.2 0.2c-0.2 0.1-0.3 0.2-0.5 0.2-0.4 0.2-1.1 0.6-1.5 0.6 0.2-0.2 0.4-0.5 0.5-0.7l0.4-0.6c0.2-0.3-0.1-0.3-0.6-0.5-0.3-0.1-0.4-0.2-0.7-0.4l-1.3-0.8c-0.5 0.4-1.2 0.7-1.8 0.9-0.3 0.1-0.7 0.2-1 0.3-0.4 0.1-0.7 0.2-1 0.2-0.1 0.4 0.3 1.1 0.4 1.5-1.7-0.5-3-1.3-4-2.6-0.2-0.3-0.7-0.8-0.8-1.1l1 0.3c0.3 0.1 0.7 0.1 1 0.2 0.1-0.2 0.1-0.3 0.1-0.5 0.1-0.9 0.4-1.9 0.6-2.8 0.1-0.4 0.3-0.7 0.4-1.1-0.2-0.1-0.3-0.2-0.5-0.3-0.9-0.6-1.8-1.4-2.6-2.1l-0.4-0.4c-0.1 0.2-0.1 0.1-0.2 0.2s-0.1 0.2-0.2 0.3-0.1 0.1-0.2 0.3c-0.1 0.1-0.1 0.2-0.3 0.2 0.4-1.2 0.3-1.8 1-3.1 0.3-0.6 0.7-1.2 1.2-1.7 0.1-0.2 0.3-0.4 0.5-0.4 0 0.2 0.1 0.5 0.1 0.7l2.2-0.5c0.4-0.1 0.8-0.1 1.1-0.1 1.7-0.1 1 0.1 1.8-1.5 0.1-0.2 0.2-0.3 0.2-0.5-0.3-0.2-0.4-0.2-0.7-0.6-0.1-0.2-0.2-0.2-0.4-0.2-0.7 0.1-1.2-0.4-1.4-0.4-0.5 0-2 0.7-2.4 0.9-0.5 0.3-0.9 0.6-1.4 0.9-4 3.1-5.1 9-2.2 13.4 1 1.5 2.4 2.8 4.1 3.5 0.7 0.5 1.5 0.7 2.2 1zm2.3-15c-0.3 0.9-0.6 1.5-0.9 2.4-0.2 0.6-0.9 1.9-1 2.2l0.3 0.3c0.3 0.4 1.3 1.3 1.7 1.6l0.8 0.6c0.2 0.1 1 0.8 1.2 0.7s1.4-0.6 1.6-0.8c0.1-0.1 0.2-0.1 0.4-0.2 0.1-0.1 0.2-0.1 0.3-0.2 0.3-0.2 1.3-0.9 1.4-1.1 0-0.1 0-0.3 0.1-0.5v-1-0.4c0-0.3-0.2-1.1-0.2-1.4l-0.3-0.9c-0.4-0.9-0.3-0.7-1-1-0.9-0.3-1.5-0.3-2.3-0.4-0.7 0-1.6 0-2.1 0.1z" fill="#ffffff"/>
	</g><path d="m145.5 23 0.6-0.3c0.2-0.1 0.3-0.2 0.5-0.4v-1.3l-0.7 0.2h-0.2c-0.1 0-0.1-0.1-0.1-0.2v-1l2.5-0.9v3.6l-0.6 0.6c-0.2 0.2-0.4 0.4-0.6 0.5-0.2 0.2-0.5 0.3-0.7 0.4-0.3 0.1-0.5 0.2-0.8 0.3-0.5 0.2-1 0.2-1.4 0.2-0.4-0.1-0.8-0.2-1.1-0.5s-0.6-0.6-0.8-1.1-0.3-1-0.3-1.6 0.1-1.2 0.3-1.8 0.4-1.1 0.8-1.6c0.3-0.5 0.7-0.9 1.2-1.3s1-0.7 1.6-0.9c0.3-0.1 0.6-0.2 0.8-0.2h0.7c0.2 0 0.4 0.1 0.6 0.2s0.3 0.2 0.5 0.3l-0.5 1c0 0.1-0.1 0.2-0.2 0.2-0.1 0.1-0.1 0.1-0.2 0.1h-0.3c-0.1 0-0.3-0.1-0.4-0.1h-0.4-0.4c-0.1 0-0.3 0.1-0.4 0.1-0.3 0.1-0.6 0.3-0.8 0.5s-0.5 0.5-0.6 0.8c-0.2 0.3-0.3 0.6-0.4 1s-0.1 0.8-0.1 1.2 0.1 0.8 0.2 1.1 0.2 0.6 0.4 0.7c0.2 0.2 0.4 0.3 0.7 0.3 0 0 0.3 0 0.6-0.1zm4.9-3.2v3.1l-1.7 0.5v-8.5l2.3-0.7c0.5-0.1 1-0.2 1.3-0.2 0.4 0 0.7 0.1 0.9 0.3s0.4 0.4 0.5 0.7 0.2 0.6 0.2 1c0 0.3 0 0.5-0.1 0.8s-0.2 0.5-0.3 0.8c-0.1 0.2-0.3 0.5-0.5 0.7l-0.6 0.6c0.1 0 0.2 0.1 0.3 0.2l0.3 0.3 1.5 2.5-1.5 0.4c-0.3 0.1-0.5 0-0.6-0.2l-1.2-2.1c-0.1-0.1-0.1-0.2-0.2-0.2h-0.3zm0-1.4 0.7-0.2 0.6-0.3c0.2-0.1 0.3-0.2 0.4-0.4 0.1-0.1 0.2-0.3 0.2-0.5s0.1-0.4 0.1-0.5c0-0.4-0.1-0.6-0.3-0.8s-0.5-0.2-1 0l-0.7 0.2zm9.3-6.3v1.5l-3 0.7v2l2.3-0.6v1.5l-2.3 0.6v2l3-0.7v1.5l-4.7 1.1v-8.5zm2.4 8.1-1.7 0.3v-8.5l1.7-0.3zm5.7-9.3v1.5l-3 0.5v2.1l2.5-0.4v1.5l-2.5 0.4v3.3l-1.7 0.3v-8.5zm4.6 1.1c-0.1 0.1-0.1 0.2-0.2 0.2-0.1 0.1-0.1 0.1-0.2 0.1s-0.2 0-0.2-0.1c-0.1 0-0.2-0.1-0.3-0.1-0.1-0.1-0.2-0.1-0.4-0.1h-0.5c-0.3 0-0.6 0.2-0.7 0.3-0.2 0.2-0.2 0.4-0.2 0.7 0 0.2 0 0.3 0.1 0.4s0.2 0.2 0.4 0.2c0.2 0.1 0.3 0.1 0.5 0.1s0.4 0.1 0.6 0.1c0.2 0.1 0.4 0.1 0.6 0.2s0.4 0.2 0.5 0.4c0.2 0.2 0.3 0.3 0.4 0.6 0.1 0.2 0.1 0.5 0.1 0.9s-0.1 0.8-0.2 1.1c-0.1 0.4-0.3 0.7-0.5 1s-0.5 0.5-0.8 0.7-0.7 0.3-1.1 0.4h-0.7c-0.2 0-0.5-0.1-0.7-0.1l-0.6-0.3c-0.2-0.1-0.4-0.2-0.5-0.4l0.5-1c0-0.1 0.1-0.1 0.2-0.2s0.1-0.1 0.2-0.1 0.2 0 0.3 0.1 0.2 0.1 0.3 0.2 0.3 0.1 0.4 0.2c0.2 0.1 0.4 0.1 0.6 0 0.3 0 0.6-0.2 0.7-0.3 0.2-0.2 0.3-0.4 0.3-0.8 0-0.2 0-0.4-0.1-0.5s-0.2-0.2-0.4-0.3-0.3-0.1-0.5-0.1-0.4-0.1-0.6-0.1-0.4-0.1-0.6-0.2-0.4-0.2-0.5-0.4c-0.2-0.2-0.3-0.4-0.4-0.6-0.1-0.3-0.1-0.6-0.1-1 0-0.3 0.1-0.6 0.2-1 0.1-0.3 0.3-0.6 0.5-0.9s0.5-0.5 0.8-0.7 0.7-0.3 1.1-0.4h0.7c0.2 0 0.4 0 0.6 0.1s0.4 0.1 0.5 0.2c0.2 0.1 0.3 0.2 0.4 0.3zm0.5-1.8 1.4-0.1c0.1 0 0.3 0 0.4 0.1s0.2 0.2 0.2 0.3l1 4.4c0 0.1 0.1 0.3 0.1 0.5s0.1 0.3 0.1 0.5c0-0.2 0.1-0.4 0.1-0.5 0-0.2 0.1-0.3 0.1-0.5l1.2-4.5c0-0.1 0.1-0.2 0.2-0.3s0.2-0.1 0.4-0.2h0.5c0.1 0 0.3 0 0.4 0.1s0.2 0.2 0.2 0.3l1.2 4.3c0 0.1 0.1 0.3 0.1 0.4 0 0.2 0.1 0.3 0.1 0.5 0-0.2 0.1-0.3 0.1-0.5s0.1-0.3 0.1-0.4l1-4.5c0-0.1 0.1-0.2 0.2-0.3s0.2-0.1 0.4-0.1l1.4-0.1-2.3 8.6-1.6 0.1-1.4-5.2c0-0.1 0-0.2-0.1-0.3 0-0.1-0.1-0.2-0.1-0.3 0 0.1 0 0.2-0.1 0.3 0 0.1-0.1 0.2-0.1 0.3l-1.4 5.3-1.6 0.1zm17.2 8.2-1.3-0.1c-0.1 0-0.3-0.1-0.4-0.1-0.1-0.1-0.2-0.2-0.2-0.3l-0.4-1.5-2.8-0.1-0.4 1.5c0 0.1-0.1 0.2-0.2 0.3s-0.2 0.1-0.4 0.1l-1.3-0.1 2.9-8.4 1.8 0.1zm-4.8-3.4 2 0.1-0.7-2.3c0-0.1-0.1-0.3-0.2-0.5s-0.1-0.4-0.2-0.7c-0.1 0.2-0.1 0.5-0.2 0.7s-0.1 0.4-0.2 0.5zm6.7 1.9 2.7 0.2v1.6l-4.5-0.3v-8.5l1.8 0.1zm10-1.7c0 0.6-0.1 1.2-0.3 1.7s-0.4 0.9-0.8 1.2c-0.3 0.3-0.7 0.6-1.2 0.7s-1 0.2-1.6 0.1l-2.9-0.4v-8.5l2.9 0.4c0.6 0.1 1.1 0.3 1.6 0.5 0.5 0.3 0.9 0.6 1.2 1.1 0.3 0.4 0.6 0.9 0.8 1.4 0.2 0.7 0.3 1.2 0.3 1.8zm-1.8-0.2c0-0.4 0-0.8-0.1-1.2s-0.2-0.7-0.4-0.9c-0.2-0.3-0.4-0.5-0.7-0.6-0.3-0.2-0.5-0.3-0.9-0.3l-1.1-0.2v5.5l1.1 0.2c0.3 0 0.6 0 0.9-0.1s0.5-0.2 0.7-0.4 0.3-0.5 0.4-0.8c0.1-0.4 0.1-0.8 0.1-1.2zm6.9-3.2v1.5l-3-0.5v2l2.3 0.4v1.5l-2.3-0.4v2l3 0.5v1.5l-4.7-0.8v-8.5zm2.3 5.7v3.1l-1.7-0.3v-8.5l2.4 0.5c0.5 0.1 1 0.3 1.4 0.5s0.7 0.4 0.9 0.7 0.4 0.6 0.5 0.9 0.2 0.7 0.2 1 0 0.5-0.1 0.8l-0.3 0.6c-0.1 0.2-0.3 0.3-0.5 0.5l-0.6 0.3 0.3 0.3c0.1 0.1 0.2 0.3 0.3 0.4l1.6 3.3-1.5-0.3c-0.3-0.1-0.5-0.2-0.6-0.5l-1.2-2.7c-0.1-0.1-0.1-0.2-0.2-0.3s-0.2-0.1-0.3-0.1zm0-1.3 0.7 0.1c0.2 0 0.4 0.1 0.6 0 0.2 0 0.3-0.1 0.4-0.2s0.2-0.2 0.2-0.4 0.1-0.3 0.1-0.5c0-0.4-0.1-0.7-0.3-0.9-0.2-0.3-0.5-0.4-1-0.5l-0.7-0.1zm11.5-1v1.5l-3-0.8v2.1l2.5 0.7v1.5l-2.5-0.7v3.3l-1.7-0.5v-8.5zm5.3 8.1s0.1 0 0.1 0.1l0.1 0.1 0.7 1c-0.3 0.3-0.6 0.6-1.1 0.6-0.4 0.1-0.9 0-1.5-0.2-0.5-0.2-1-0.5-1.4-0.8-0.4-0.4-0.8-0.8-1.1-1.3s-0.5-1-0.7-1.6-0.2-1.2-0.2-1.8 0.1-1.2 0.3-1.6c0.2-0.5 0.4-0.8 0.8-1.1 0.3-0.3 0.7-0.4 1.2-0.5s1 0 1.5 0.2c0.3 0.1 0.5 0.2 0.8 0.3 0.2 0.1 0.5 0.3 0.7 0.5l0.6 0.6c0.2 0.2 0.3 0.4 0.5 0.6l-0.6 0.7-0.1 0.1h-0.2c-0.1 0-0.1-0.1-0.2-0.1s-0.1-0.1-0.2-0.2l-0.4-0.4c-0.1-0.1-0.2-0.2-0.3-0.2-0.1-0.1-0.3-0.1-0.5-0.2-0.3-0.1-0.6-0.1-0.8-0.1s-0.5 0.1-0.6 0.3c-0.2 0.2-0.3 0.4-0.4 0.7s-0.1 0.7-0.1 1.1 0.1 0.8 0.1 1.2c0.1 0.4 0.2 0.7 0.4 1s0.4 0.5 0.6 0.7 0.5 0.3 0.7 0.4c0.1 0.1 0.3 0.1 0.4 0.1h0.3c0.1 0 0.2 0 0.3-0.1 0.1 0 0.2-0.1 0.3-0.2 0 0 0.1 0 0.1-0.1-0.2 0.1-0.2 0.1-0.1 0.2z" fill="#e11419"/>
</g></g>


</svg>
