<svg width="364.95" height="455.15" xml:space="preserve" xmlns="http://www.w3.org/2000/svg"><g stroke-width=".897"><path fill="#fff" d="M42.379 451.164h280.03l37.556-43.5V48.468L322.488 5.004H42.428L5.005 48.514l.019 359.038z"/><path d="M317.937 14.944H46.984L14.94 52.202l.019 351.674 31.99 37.343h270.908l32.166-37.257V52.154zm22.145 385.326c-3.72 4.31-22.284 25.81-26.776 31.016H51.522c-4.492-5.243-22.94-26.782-26.624-31.08L24.88 55.895c3.701-4.302 22.176-25.781 26.666-31.003h261.83c4.489 5.21 22.984 26.665 26.7 30.97v344.414z"/><path d="M113.384 418.616h-11.675v-37.3H87.238v-8.79c8.146.153 15.618-2.64 16.856-11.43h9.289zM160.621 387.63c5.41-1.961 8.379-6.555 8.379-12.245 0-5.592-4.933-15.439-19.23-15.439-9.359 0-19.393 5.336-19.393 15.686 0 5.685 2.882 10.278 8.468 11.85v.149c-6.747 1.643-10.852 6.826-10.852 14.14 0 12.42 10.767 17.997 21.865 17.997 10.68 0 21.521-5.997 21.521-18.077-.002-7.234-3.942-12.488-10.758-14.06zm-10.852-18.89c7.227 0 8.634 5.023 8.634 7.974 0 4.928-3.863 7.557-8.634 7.557-4.686 0-8.79-2.545-8.79-7.557 0-5.092 4.105-7.975 8.79-7.975zm.086 42.237c-5.592 0-10.196-3.868-10.196-9.775 0-5.92 4.52-9.119 10.196-9.119 5.421 0 9.855 3.697 9.855 9.201 0 5.755-4.272 9.693-9.855 9.693zM219.046 385.902c-3.283-3.604-8.298-5.916-13.237-5.916-5.594 0-9.78 1.89-12.977 6.402l-.168-.15c.327-6.415 2.536-17.509 11.013-17.509 4.03 0 6.987 3.277 7.73 7.152h11.084c-1.305-10.118-8.703-15.942-18.646-15.942-16.356 0-22.607 16.021-22.607 30.079 0 14.548 4.685 29.74 22.122 29.74 11.986 0 20.118-9.274 20.118-21.03-.003-4.521-1.386-9.29-4.432-12.826zm-16.032 24.243c-5.832 0-9.287-5.334-9.287-10.68 0-5.663 3.048-10.677 9.287-10.677 5.993 0 8.804 5.421 8.804 10.851 0 5.17-3.213 10.506-8.804 10.506zM255.765 359.946c-11.34 0-21.033 7.232-21.033 29.674 0 22.917 9.694 30.145 21.033 30.145 11.504 0 21.208-7.228 21.208-30.145 0-22.442-9.703-29.674-21.208-29.674zm0 50.205c-9.374 0-9.374-14.042-9.374-20.53 0-6.015 0-20.069 9.374-20.069 9.54 0 9.54 14.056 9.54 20.068-.002 6.489-.002 20.53-9.54 20.53zM311.825 130.587c-15.035-12.42-29.885-14.553-43.183-10.455-22.477-41.775 1.854-59.415 13.363-58.927 10.932.438 12.086 5.651 12.086 5.651-7.664 16.03-3.418 22.866-.473 31.898 2.381 7.317-3.858 12.7-3.858 12.7 6.973-.7 10.427-7.46 10.427-7.46 1.744 3.494-.395 11.684-.395 11.684 4.87-2.087 6.573-9.587 6.573-9.587 1.56 7.326 7.335 11.308 7.335 11.308s-1.364-6.602-.318-12.526c1.054-5.93 5.234-24.773-2.817-36.927-22.33-33.684-84.018-10.853-50.35 55.318-18.692 9.768-30.218 32.639-24.24 53.759 4.247 14.991 17.31 29.099 42.884 37.013-8.875 13.994-24.413 17.572-31.56 17.684-4.98.086-6.971-2.834-7.739-4.74-.066-.245-.096-.489-.183-.744-5.675-17.601-26.094-35.218-26.094-35.218 6.104-7.225 4.738-10.278 4.738-10.278-14.215 6.256-16.61 1.023-12.923-3.718h.004c1.2-1.545 3.042-3.033 5.324-4.059 9.346-4.176 8.993-9.172 8.993-9.172-14.91 1.566-8.903-8.577-1.056-13.637 7.851-5.064 9.324-8.104 9.324-8.104-11.29 1.133-13.13-7.523.263-15.435 13.355-7.905 11.5-10.937 11.5-10.937s-2.694.611-5.057.281c-4.574-.633-3.932-2.721-3.575-6.459 1.417-15.237-3.004-23.039-3.004-23.039 8.718-6.199 7.403-10.257 7.403-10.257-6.716 2.095-11.735-1.155-8.681-8.056 3.054-6.883 4.784-15.597 4.784-15.597-5.408-2.106-13.989.212-13.989.212-2.37-6.785-5.078-7.627-5.078-7.627-1.39 2.1-4.608 4.837-4.608 4.837-24.669-11.588-33.986 4.355-35.83 6.43-1.66 1.871-4.211 2.02-5.945 2.664-8.923 3.294-8.471 7.692-10.11 9.499-.865.976-4.951 2.496-4.894 4.343.16 5.103 3.837 4.413 5.314 8.33 1.925 5.052 2.644 4.872 4.61 5.465 4.016 1.248 7.313-2.112 13.971-2.612 3.438-.255 8.359 3.75 7.455 8.291a276.579 276.579 0 0 0-5.768-2.054c-13.605-4.613-22.797 4.093-33.954 4.363-17.616.4-20.485-10.036-17.678-15.814 1.495-3.052 4.505-4.308 3.406-5.94-2.43-3.618-14.596 5.548-10.255 16.77 5.615 14.527 26.126 11.501 42.842 4.64 6.53-2.688 14.001-.565 19.323 1.819-5.322 6.273-10.674 1.255-13.93-.048-3.493-1.394-8.08 3.392-4.192 6.785 3.028 2.663 9.2 3.944 8.38 6.261 0 0 .352 1.873-10.734.464-14.587-1.841-23.562 2.519-23.562 2.519-33.665-11.098-44.966-47.757-43.772-49.545C93.66 60.617 98.08 52.02 88.586 46.6c-1.017-.574-1.615-.887-2.481-1.146-3.605-6.51-11.747-2.906-11.747-2.906 2.509.878 3.956 1.39 5.273 4.006-2.45 2.143-3.21 5.807-3.21 5.807s-3.92-8.97-13.07-6.08c-11.49 3.651-11.633 15.813-11.633 15.813s5.399-6.568 8.58-4.429c1.994 1.343 1.529 3.243.906 4.489-5.437 4.313-5.718 7.824-4.347 10.61-3.559 7.226 1.732 10.903 1.732 10.903 0-3.283 1.198-5.08 2.472-6.069.132.11.26.234.391.355 3.481 3.134 8.155 3.909 8.155 3.909s-1.216.935-1.836 3.209c-.383 1.428 1.37 3.541-.261 4.93-1.63 1.404-4.313-1.45-4.313-1.45.988 10.034 10.584 7.593 12.499 6.43.73-.447 2.243-1.565 3.733-2.319 1.517-.767 2.783-.977 3.669-.083 3.361 3.39-5.246 6.716 1.143 13.798 0 0-.632-2.493 3.663-2.728 2.668-.144 4.884.31 8.486 5.883 3.615 5.58 8.93 16.62 5.094 19.635-.907.706-2.024.988-3.193 1.016-3.806.033-8.232-2.717-8.232-2.717s.87 11.442 13.99 14.16c-7.444 2.567-13.634-.509-13.634-.509 1.86 7.791 8.796 10.364 8.796 10.364-4.42 2.677-9.972 9.56-9.972 9.56-1.387-1.977-6.52-1.575-6.52-1.575-2.089-9.412-8.763-9.838-11.065-10.157-1.193-.17-2.169.43-2.754.43-.509-1.453-1.537-2.873-3.492-3.946-6.975-3.833-11.533 3.08-11.533 3.08s2.792-.199 4.549.11c2.417.413 6.294 5.761-2.927 6.672-5.93.602-10.086 4.665-9.541 9.014-4.945 3.42-5.75 9.199-4.443 12.346l.266.004h-.266c.041.095.084.193.13.287 0 0 .066-.107.188-.287h.001c.8-1.187 4.021-5.573 7.183-4.367.354.27 1.842 1.185 2.332 1.393 2.703 1.198 3.94.927 3.94.927a15.59 15.59 0 0 0-1.903 2.047h-.002c-2.859 3.738-2.208 7.039-1.618 8.694.731 2.051 1.68 2.686 2.713 3.572-.17.8-1.747 7.202 5.579 10.798 0 0-.814-1.034-.577-4.296.11-1.529 1.042-3.373 3.023-3.605 4.05.261 6.795-2.177 6.795-2.177 2.206-1.984 4.25-.845 2.043 2.866-2.315 3.891 2.673 5.944 2.673 5.944-1.51 3.476-4.813 4.187-4.813 4.187s5.388 3.94 11.94-2.098c6.508-5.994 4.314-16.9 4.314-16.9 5.24 3.017 13 2.505 13 2.505 4.068 9.535 13.109 8.867 13.109 8.867-3.136-3.262-7.127-10.396-2.71-13.185 4.418-2.783 7.128 7.55 12.132 14.65 4.997 7.081 9.07 5.919 9.07 5.919-7.68-9.999-.78-11.023-2.231-10.533 1.807-.611 3.043.534 5.446 4.903 3.059 5.606 5.915 4.066 5.915 4.066s-1-.879-1.49-4.671c-1.291-10.039 3.864-5.153 6.267-.172 1.07 2.233 4.61 5.477 9.225 8.324 4.532 2.785 10.1 5.176 15.44 5.86 11.971 1.523 12.572 3.77 12.572 3.77-4.425 1.283-6.813 5.068-6.813 5.068 8.018.23 14.593 1.417 16.833 2.175 2.235.754 16.674 7.678-2.604 6.577-6.686-.379-12.165.256-16.246 1.122-3.639.767-6.164 1.71-7.399 2.274-3.443 1.557-5.153 4.26-13.026 1.888-6.312-1.888-8.226-2-15.528-1.697-7.295.294-29.054 10.317-34.173 5.777-5.122-4.532 6.821-11.82 6.821-11.82-11.75-4.19-20.464 6.705-20.464 6.705-17.26-15.081-45.859-7.989-41.34 17.202.193 1.078.44 2.07.73 2.989v.002c3.876 12.204 15.73 10.866 15.73 10.866-2.038-1.828-6.25-4.33-7.58-10.863v-.003a19.442 19.442 0 0 1-.264-1.678c-1.047-9.054 7.02-11.254 6.901-7.002-.116 4.184 1.36 4.21 1.36 4.21 1.502-6.62 3.707-8.597 11.39-7.205 4.888.882 6.494 4.994 6.494 4.994s-5.156 1.551-7.955 6.679v.002c-1.112 2.039-1.85 4.647-1.743 7.948.29 9.092 11.575 9.224 11.575 9.224s-7.378-5.603-3.542-11.42c3.838-5.829 8.397-4.089 10.845-.14 2.434 3.955 5.038 3.802 5.038 3.802s-2.807 2.641-2.122 8.532c.899 7.56 7.07 8.012 7.07 8.012-3.481-10.928 6.705-10.208 6.705-10.208 2.329 13.837 10.366 13.221 15.624 13.909 5.263.663 6.973 3.687 3.777 6.759-2.473 2.37-9.102 2.37-16.325 15.034-11.388 19.937-16.26 5.09-16.61 3.23-.349-1.86-1.787-3.43-1.787-3.43 9.18-5.582 2.6-17.464-9.282-19.302-2.397-.36-4.663-.231-6.442.324-1.436.407-3.667 1.783-4.814 2.62-.887.09-2.39.197-2.958.291-7.151 1.279-7.68 8.428-7.68 8.428 3.057-3.252 6.585-2.06 8.592-1.87.755 2.82 3.131 4.989 6.088 5.499 1.268.816.625 2.002-.345 2.079-.948.095-3.513-1.522-7.178-.3-4.611 1.533-6.642 4.45-6.287 9.426-1.506 1.524-4.626 3.979-3.997 8.363.683 4.882 5.166 6.856 5.166 6.856s-1.68-8.29 2.452-7.486c1.03 1.298 2.494 1.358 3.886 1.672 3.208.733 4.009-2.081 6.126.06 1.017 1.035 2.1 3.372 2.1 3.372s-3.984 1.918-5.783 5.566c-4.68 9.479 2.607 13.78 2.607 13.78s-.576-3.363.674-6.408c2.661-6.453 4.61-1.988 8.672-1.744 4.07.229 7.059-3.849 7.059-3.849s.726 1.21 2.568 2.871c1.84 1.663 5.596 1.093 5.596 1.093s-1.542 1.303-1.657 3.49c-.117 2.424.528 4.286 1.64 5.685-.86 1.324-2.816 3.455-6.286 3.3 0 0 5.586 4.767 12.786-.045 2.921.395 5.932-.162 7.667-1.3 4.308-2.783 1.865-9.398 1.522-14.598-.35-5.182 15.155-9.18 18.145-10.195 2.988-1.008 5.328-3.637 5.328-3.637 5.238 10.232 12.234 9.552 12.234 9.552-2.21-3.485-.512-7.463-.512-7.463 8.826 2.56 13.638-.94 13.638-.94-7.335-2.652-7.567-10.8-1.76-12.44 6.658-1.848 7.99-6.674 7.99-6.674 2.794 1.743 4.95 1.047 4.95 1.047s-1.25-1.093-.863-3.338c1.597-9.082-4.112-12.534-7.127-13.452-3.032-.93-7.158-9.768 1.915-21.41 6.237-8.018 15.63-9.663 21.948-9.663 3.815 0 6.446.548 6.446.548a34.75 34.75 0 0 0-2.819 4.093c-7.535 12.933-1.198 23.306-1.198 23.306-7.088 5.58-5.015 11.95-5.015 11.95 3.026-2.571 6.828-2.524 6.828-2.524-8.229 18.101 8.685 25.601 8.685 25.601s-3.366-15.87 6.636-12.03c10.612 4.069 12.206 2.106 12.206 2.106-2.795-2.21-1.662-4.535-1.662-4.535a56.426 56.426 0 0 0 6.669-1.338c15.686-4.255 22.82-14.16 22.82-14.16.349 2.312.265 3.489 5.163 11.974 4.882 8.485 2.58 20.266-2.832 22.407-3.662 1.428-6.292 1.717-8.313 1.362-5.06-.907-5.927-4.56-10.396-7.247-6.054-3.648-12.842-1.033-15.22 5.93-.744 2.162-.541 2.107-.9 3.734-4.402 2.56-5.46 9.58-.542 14.87 0 0-.674-5.29 3.061-7.173 3.118 2.509 7.826 2.28 7.826 2.28s-.677 2.115-1.532 2.913c-8.21 7.806 2.302 15.619 2.302 15.619-1.403-4.65.638-6.814.638-6.814s3.246 6.128 9.738 4.5c6.535-1.638 5.07-10.99 5.07-10.99 4.383-1.022 5.082 2.92 7.522 6.07 1.932 2.489 4.274 3.36 6.368 3.524 1.505 2.081 4.221 4.244 9.073 4.092 2.107-.058 2.259-1.096 2.259-1.096s-2.765-.764-4.923-4.46c2.187-1.55 4.95-7.094 1.792-11.492-3.492-4.893 1.004-4.872 2.978-2.777 1.987 2.094 3.133 3.348 4.427 4.653 2.179 2.208 6.224 1.486 6.224 1.486-.121 4.184-4.089 8.06-4.089 8.06 10.708-.302 10.084-9.977 10.084-9.977 3.255-1.278 8.715-7.36 6.153-12.94-2.553-5.581-13.276-3.314-13.276-3.314 5.833-7.316 6.074-15.266 6.074-15.266 3.257.115 6.535 6.81 6.535 6.81 3.24-6.731-.651-12.809-.651-12.809 3.834-1.163 4.367-5.362 4.367-5.362s-7.28-.247-6.347-4.897c.93-4.652 8.45-1.52 8.45-1.52-.233-6.396-6.669-5.619-6.093-9.712.669-4.802 8.301-1.71 8.301-1.71s1.929-6.29-5.053-10.437c-12.16-7.222-5.129-13.41.79-12.091 6.083 1.366 9.917 10.463 9.917 10.463s3.033-6.157-1.102-12.189v-.006c-.795-1.155-1.856-2.311-3.257-3.419-13.171-10.425-25.528 2.626-25.528 2.626-7.68-6.63-13.492-3.029-19.988-1.236-12.564 3.492-20.454-6.272-3.462-10.147 28.893-6.57 47.396-27.805 40.801-63.37v-.003c-2.637-14.228-9.295-30.753-20.911-49.552-.041-.057-.076-.133-.137-.203 9.554-2.162 20.458-.232 31.176 7.994l1.077 1.132c-5.237 8.88-4.112 18.256-1.883 26.69-.958 3.972-1.84 9.284-1.29 13.944l.035.282s.071-.107.2-.287h-.052.053c.956-1.354 4.987-6.885 3.95-2.574a25.66 25.66 0 0 0-.474 2.569v.003a23.832 23.832 0 0 0 .739 9.811c.442 1.49 2.544-8.354 5.645-4.693l.523.676c3.872 5.882 5.106 8.201 5.106 8.201 1.013 1.441 1.88.088 1.57-.783-1.069-5.437-.88-7.692 1.326-13.213l.07-.177c1.483-3.694 14.894-27.44-7.852-46.25zM185.428 68.776c-1.833-1.14-5.628-2.321-5.628-2.321-.79-.307-1.034-1.22-.35-1.785.536-.388 1.54-.43 2.503-.887 2.053-1.03 3.6-1.762 5.227-.245 1.477 1.487.878 2.44 1.913 4.928.351 1.478-.511 2.246-3.665.31zm98.516 108.25c2.423 11.844 1.706 21.278-1.083 28.788-21.977-5.741-33.764-16.755-38.31-28.788v-.004c-6.886-18.226 2.848-38.795 18.942-46.914.273.479 1.134.944 1.41 1.432 10.57 18.147 16.516 33.127 19.041 45.485z"/></g></svg>