<?xml version="1.0" encoding="UTF-8"?>
<svg width="416" height="240" version="1.2" viewBox="0 0 312 180" xmlns="http://www.w3.org/2000/svg">
 <g transform="matrix(.27086 0 0 .27086 -4.9202 -23.673)">
  <path d="m594.09 92.57c-22.73 0-45.449 0.21094-67.992 3.5703-12.801 1.9062-25.633 3.7617-38.305 6.3633-31.777 6.5273-62.73 15.844-92.512 28.816-41.781 18.199-80.637 41.352-116.42 69.562-21.055 16.598-40.875 34.633-60.516 52.879-26.367 24.504-53.055 48.664-79.516 73.07-14.305 13.195-29.438 25.383-44.816 37.27-11.707 9.0469-23.617 17.828-35.492 26.656-7.8906 5.8672-15.797 11.73-23.852 17.375-6.0977 4.2695-8.0039 16.375-0.03125 22.324 2.8203 2.1016 5.5938 4.2695 8.4609 6.3125 19.609 13.969 38.855 28.422 57.852 43.215 12.695 9.8867 25.082 20.113 36.914 31.016 6.0586 5.582 12.156 11.125 18.227 16.691 20.402 18.703 40.941 37.266 61.164 56.16 17.715 16.555 35.66 32.852 54.445 48.172 27.652 22.555 57.254 42.199 88.973 58.641 23.668 12.262 47.973 23.016 73.305 31.34 7.8086 2.5664 15.801 4.582 23.715 6.8242 20.484 5.8086 41.328 9.9102 62.414 12.762 9.3398 1.2656 18.723 2.2812 28.109 3.168 6.2852 0.59375 12.609 1.0274 18.918 1.0781 16.078 0.13281 32.16 0.17968 48.238-0.0703 10.309-0.16015 20.629-0.63671 30.906-1.4688 8.6719-0.70703 17.312-1.9648 25.922-3.2773 9.7148-1.4766 19.461-2.918 29.047-5.0352 20.668-4.5664 41.195-9.6914 61.188-16.805 10.922-3.8867 21.746-7.9922 32.336-12.695 19.223-8.543 38.094-17.828 56.156-28.609 28.211-16.84 54.859-35.891 79.664-57.488 14.848-12.922 29.32-26.242 43.762-39.617 25.23-23.375 50.766-46.426 76.051-69.742 14.484-13.359 29.793-25.723 45.449-37.633 16.738-12.734 33.797-25.043 50.703-37.551 2.5742-1.9023 5.0742-3.8984 7.6328-5.8125 6.6719-4.9922 6.1758-16.863-0.1211-21.516-2.4453-1.8047-4.8086-3.7188-7.2773-5.4883-20.156-14.441-40.024-29.262-59.566-44.527-12.742-9.9531-25.188-20.242-37.102-31.172-6.2461-5.7305-12.496-11.457-18.754-17.18-18.176-16.633-36.484-33.125-54.508-49.926-17.438-16.258-34.941-32.422-53.195-47.773-31.039-26.102-64.531-48.461-100.66-66.91-25.258-12.895-51.293-23.836-78.488-31.914-15.09-4.4844-30.285-8.6289-45.777-11.477-12.414-2.2813-24.879-4.3594-37.383-6.0586-9.7344-1.3203-19.551-2.2734-29.363-2.7422-12.617-0.59766-25.266-0.54688-37.902-0.77734" fill="#fff"/>
  <path d="m43.84 419.12c0.64062 0.53125 1.0391 0.89453 1.4688 1.2188 17.148 12.723 34.363 25.359 51.43 38.195 9.9687 7.4961 19.895 15.07 29.484 23.039 9.4062 7.8164 18.453 16.07 27.492 24.316 27.66 25.23 55.293 50.488 82.832 75.848 23.492 21.629 47.238 42.93 73.574 61.137 13.688 9.4609 27.441 18.801 42.16 26.617 17.289 9.1836 34.574 18.355 52.656 25.953 17.113 7.1953 34.594 13.324 52.438 18.359 27.051 7.625 54.598 12.762 82.578 15.523 13.938 1.3789 27.906 2.1797 41.91 2.2774 5.6758 0.0391 11.355 4e-3 17.039-0.0586 16.633-0.18359 33.258-0.38671 49.828-2.2383 14.781-1.6523 29.496-3.7031 44.109-6.457 33.508-6.3203 65.871-16.461 97.051-30.176 20.637-9.082 40.723-19.387 59.98-31.125 28.473-17.359 55.098-37.285 79.789-59.727 19.117-17.379 37.988-35.035 57.188-52.324 24.43-22 48.066-44.871 73.172-66.117 6.8946-5.8359 13.859-11.621 21.078-17.043 20.531-15.414 41.207-30.625 61.824-45.926 0.4804-0.35547 0.9062-0.78515 1.4765-1.2812-0.7265-0.5664-1.2734-1.0156-1.8437-1.4297-9.9649-7.2383-20.02-14.352-29.871-21.738-14.906-11.18-29.727-22.48-44.465-33.879-5.75-4.4492-11.359-9.1172-16.734-14.016-34.398-31.371-68.754-62.797-103.04-94.285-22.465-20.625-45.281-40.805-70.449-58.148-10.402-7.168-20.656-14.594-31.715-20.723-12.93-7.1641-25.953-14.172-39.121-20.895-18.395-9.3867-37.633-16.734-57.207-23.297-24.16-8.0977-48.867-13.84-73.992-17.848-9.3047-1.4844-18.68-2.6133-28.062-3.5312-9.1445-0.89062-18.328-1.5703-27.512-1.8711-11.59-0.375-23.195-0.32813-34.793-0.36719-17.531-0.0625-35.031 0.73828-52.426 2.9297-11.332 1.4297-22.641 3.1367-33.883 5.1523-19.277 3.457-38.254 8.168-56.906 14.234-17.492 5.6914-34.738 12.012-51.367 19.867-11.051 5.2188-21.895 10.895-32.699 16.613-7.7656 4.1094-15.512 8.3203-22.934 13.012-25.93 16.402-50.707 34.41-73.457 55.039-33.184 30.09-66.207 60.359-99.199 90.664-17.504 16.07-34.961 32.207-53.957 46.512-20.508 15.438-40.75 31.246-61.895 45.824-0.96875 0.67188-1.9141 1.3711-3.0273 2.168m550.25-326.55c12.637 0.23047 25.285 0.17969 37.906 0.77734 9.8086 0.46484 19.625 1.4219 29.355 2.7422 12.508 1.6992 24.973 3.7773 37.387 6.0586 15.492 2.8476 30.688 6.9922 45.777 11.477 27.195 8.0781 53.23 19.02 78.488 31.914 36.129 18.449 69.621 40.809 100.66 66.91 18.254 15.352 35.758 31.516 53.199 47.773 18.02 16.801 36.324 33.293 54.504 49.926 6.2578 5.7226 12.508 11.449 18.754 17.18 11.914 10.93 24.359 21.219 37.102 31.172 19.543 15.266 39.41 30.086 59.566 44.527 2.4687 1.7695 4.8359 3.6836 7.2773 5.4883 6.2969 4.6524 6.793 16.523 0.1211 21.516-2.5586 1.9141-5.0586 3.9102-7.6328 5.8125-16.906 12.508-33.965 24.816-50.703 37.551-15.656 11.914-30.965 24.273-45.449 37.633-25.285 23.32-50.82 46.367-76.055 69.742-14.434 13.375-28.914 26.695-43.758 39.621-24.805 21.594-51.453 40.645-79.664 57.484-18.062 10.781-36.934 20.066-56.16 28.605-10.586 4.707-21.41 8.8125-32.332 12.699-19.992 7.1133-40.52 12.238-61.188 16.805-9.5859 2.1172-19.332 3.5586-29.047 5.0352-8.6094 1.3125-17.25 2.5742-25.922 3.2773-10.277 0.83204-20.598 1.3086-30.906 1.4688-16.078 0.25-32.16 0.20313-48.238 0.0703-6.3086-0.0508-12.633-0.48438-18.918-1.0781-9.3867-0.88672-18.77-1.9023-28.113-3.168-21.082-2.8516-41.926-6.9492-62.41-12.762-7.9141-2.2422-15.906-4.2578-23.715-6.8242-25.332-8.3242-49.637-19.078-73.305-31.34-31.719-16.441-61.32-36.086-88.973-58.641-18.785-15.32-36.73-31.617-54.445-48.172-20.223-18.895-40.762-37.457-61.164-56.16-6.0703-5.5664-12.168-11.109-18.227-16.691-11.832-10.902-24.219-21.129-36.914-31.016-18.996-14.793-38.242-29.246-57.852-43.215-2.8672-2.043-5.6406-4.2109-8.4609-6.3125-7.9727-5.9492-6.0664-18.059 0.03125-22.324 8.0547-5.6445 15.961-11.508 23.852-17.375 11.875-8.8281 23.785-17.609 35.492-26.656 15.379-11.887 30.512-24.074 44.816-37.27 26.461-24.406 53.148-48.566 79.516-73.066 19.641-18.25 39.461-36.285 60.516-52.883 35.785-28.211 74.641-51.363 116.42-69.562 29.781-12.973 60.734-22.289 92.512-28.816 12.668-2.6016 25.504-4.457 38.305-6.3633 22.543-3.3594 45.262-3.5703 67.992-3.5703" fill="#0f2b5c"/>
  <path d="m56.109 419.18c2.2852 1.7422 4.1367 3.2578 6.0898 4.6289 20.289 14.266 39.891 29.445 59.43 44.703 15.957 12.461 30.844 26.191 45.754 39.879 27.574 25.316 55.133 50.652 82.699 75.98 13.078 12.02 26.43 23.715 40.426 34.668 23.273 18.219 47.461 35.031 73.676 48.824 23.293 12.254 47.043 23.461 71.98 31.988 16.645 5.6914 33.656 10.117 50.84 13.824 18.676 4.0312 37.508 7.1992 56.57 8.7969 10.598 0.88671 21.195 1.7773 31.84 1.7578 8.2422-0.0156 16.484 0.0234 24.723-0.043 13.598-0.10938 27.207 0.0234 40.754-1.3438 10.016-1.0117 20.043-2.0625 29.996-3.5391 16.367-2.4219 32.574-5.707 48.578-9.9297 12.82-3.3828 25.664-6.6836 38.047-11.508 7.5156-2.9336 15.168-5.5352 22.574-8.7227 8.6523-3.7227 17.137-7.8555 25.637-11.934 18.902-9.0742 37.223-19.207 54.641-30.891 25.949-17.406 50.402-36.73 73.422-57.867 25.863-23.75 51.73-47.5 77.613-71.234 10.789-9.8906 21.516-19.852 32.457-29.574 18.734-16.645 38.824-31.598 58.793-46.691 8.293-6.2695 16.809-12.238 25.203-18.371 1.3945-1.0195 2.6914-2.168 4.2773-3.4531-1.043-0.78516-1.7734-1.3711-2.5391-1.9024-21.699-15.047-42.555-31.227-63.355-47.465-15.707-12.262-30.344-25.789-45.02-39.258-29.227-26.832-58.437-53.676-87.684-80.492-16.164-14.824-33.031-28.797-50.684-41.824-15.715-11.598-31.816-22.617-48.902-32.082-14.469-8.0117-29.203-15.52-44.242-22.449-12.434-5.7344-25.227-10.52-38.105-15.016-17.961-6.2617-36.434-10.848-55.07-14.672-14.094-2.8906-28.258-5.4219-42.582-6.8594-9.1445-0.91797-18.309-1.8555-27.484-2.1875-20.547-0.7461-41.105-0.66016-61.664-0.13672-11.125 0.28515-22.219 1.0976-33.223 2.6289-12.336 1.7188-24.668 3.6445-36.883 6.0586-22.586 4.4648-44.859 10.145-66.469 18.254-11.371 4.2695-22.723 8.5664-33.695 13.785-20.008 9.5117-39.727 19.582-58.41 31.531-22.805 14.586-44.559 30.637-64.879 48.527-17.586 15.488-34.828 31.367-52.137 47.164-21.801 19.898-43.43 39.984-65.312 59.793-10.137 9.1758-20.387 18.273-31.117 26.727-20.977 16.531-42.121 32.863-64.086 48.082-0.70703 0.48828-1.3789 1.0234-2.4766 1.8438m-12.27-0.0586c1.1133-0.79687 2.0586-1.4961 3.0273-2.168 21.145-14.578 41.387-30.387 61.895-45.824 18.996-14.305 36.453-30.441 53.957-46.512 32.992-30.305 66.016-60.574 99.199-90.664 22.75-20.629 47.523-38.637 73.457-55.039 7.4219-4.6914 15.168-8.9023 22.934-13.012 10.805-5.7188 21.648-11.395 32.699-16.613 16.629-7.8555 33.875-14.176 51.367-19.867 18.652-6.0664 37.629-10.777 56.906-14.234 11.242-2.0156 22.551-3.7227 33.883-5.1523 17.395-2.1914 34.895-2.9922 52.426-2.9297 11.598 0.0391 23.203-8e-3 34.793 0.36719 9.1836 0.30078 18.367 0.98047 27.512 1.8711 9.3828 0.91797 18.758 2.0469 28.062 3.5312 25.125 4.0078 49.832 9.75 73.992 17.848 19.574 6.5625 38.816 13.91 57.207 23.297 13.164 6.7227 26.191 13.73 39.121 20.895 11.059 6.1289 21.312 13.555 31.715 20.723 25.168 17.344 47.984 37.523 70.449 58.148 34.289 31.488 68.644 62.914 103.04 94.285 5.375 4.8984 10.984 9.5664 16.734 14.016 14.738 11.398 29.558 22.699 44.465 33.879 9.8477 7.3867 19.91 14.5 29.871 21.738 0.5703 0.41407 1.1172 0.86329 1.8437 1.4297-0.5703 0.4961-0.9961 0.92578-1.4765 1.2812-20.613 15.301-41.293 30.512-61.824 45.926-7.2188 5.4219-14.184 11.207-21.078 17.043-25.105 21.246-48.742 44.117-73.172 66.117-19.199 17.289-38.07 34.945-57.191 52.324-24.688 22.441-51.309 42.367-79.785 59.727-19.258 11.738-39.344 22.043-59.98 31.125-31.18 13.715-63.539 23.855-97.051 30.176-14.609 2.7539-29.328 4.8047-44.109 6.457-16.57 1.8516-33.195 2.0547-49.828 2.2383-5.6797 0.0625-11.363 0.0977-17.043 0.0586-14-0.0977-27.969-0.89844-41.906-2.2774-27.98-2.7617-55.527-7.8984-82.578-15.523-17.844-5.0352-35.32-11.168-52.438-18.359-18.082-7.5976-35.367-16.77-52.656-25.953-14.719-7.8164-28.473-17.156-42.16-26.617-26.336-18.207-50.082-39.508-73.574-61.137-27.539-25.359-55.172-50.617-82.832-75.848-9.0391-8.2461-18.086-16.5-27.492-24.316-9.5898-7.9688-19.52-15.543-29.488-23.039-17.062-12.836-34.273-25.473-51.422-38.195-0.43359-0.32422-0.83203-0.6875-1.4727-1.2188" fill="#fff"/>
  <path d="m223.82 400.21c0.14453-6.1875-4.9844-11.645-11.141-11.863-6.5703-0.23047-11.699 4.7539-11.914 11.422-0.28125 8.707 6.1133 11.809 11.457 12.008 6.2773 0.23438 11.445-5.0039 11.598-11.566m763.84-0.17188c-0.0547-6.6406-5.2031-11.781-11.715-11.699-6.2188 0.082-11.555 5.6016-11.461 11.855 0.0977 6.6016 5.2852 11.773 11.875 11.539 5.7383-0.20703 11.344-3.7031 11.301-11.695m-528.73 179.86c-0.82422-0.0391-1.3672-0.0937-1.9141-0.0937-9.3555-4e-3 -18.711 0.0586-28.066-0.0508-2.1445-0.0234-3.7578 0.55469-5.3633 1.9727-10.426 9.2109-20.926 18.336-31.395 27.496-0.32813 0.28516-0.58203 0.65625-1.0859 1.2305 0.69141 0.0781 1.0625 0.15625 1.4375 0.16016 7.7539 8e-3 15.512-0.0156 23.266 0.0273 1.1524 8e-3 1.9492-0.48047 2.7656-1.168 5.0625-4.2891 10.145-8.5586 15.227-12.824 0.50391-0.42187 1.0781-0.75781 2.1133-1.4766v63.281c3.375 0.51563 21.332 0.36328 23.016-0.15234zm243.44 78.508c0.75 0.11718 0.98829 0.18359 1.2227 0.1875 7.6797 0.0391 15.359 0.0351 23.039 0.13671 1.3633 0.0195 1.9805-0.66796 2.6328-1.6445 13.004-19.492 26.023-38.973 39.055-58.445 0.64453-0.96484 0.98828-1.9375 0.97657-3.125-0.0508-4.4766-0.0156-8.957-0.0312-13.438 0-0.69531-0.10547-1.3906-0.16797-2.1367h-87.836v16.812c1.1797 0 2.1992-4e-3 3.2188 0 17.84 0.0352 35.68 0.0742 53.516 0.11719 0.82032 0 1.6406 0.0859 2.8438 0.14844-12.797 20.738-25.957 40.66-38.469 61.387m-55.23-29.535c0.5039 2.3594 0.44531 6.1406-0.0664 8.0547-1.1602 4.3359-5.0039 7.7539-9.4648 7.8164-9.6719 0.13672-19.352 0.0937-29.027-0.0273-4.2891-0.0547-7.4141-2.2031-9.2383-6.1445-0.23047-0.48828-0.53516-0.94141-0.75391-1.3242h-24.398c0.78125 2.3789 1.4102 4.5 2.1719 6.5703 1.7188 4.668 4.7695 8.2461 8.9922 10.887 4.3242 2.7031 9 3.957 14.102 3.9414 15.918-0.043 31.84-0.0391 47.758 0.0195 3.6875 0.0156 7.125-0.77344 10.406-2.3906 8.3594-4.1172 13.238-10.715 13.809-20.086 0.67578-11.102 0.63281-22.23 0.0234-33.34-0.67969-12.395-10.863-22.648-23.555-22.574-5.2812 0.0312-10.559-0.0703-15.84-0.0586-11.918 0.0234-23.836 0.043-35.758 0.14453-4.7109 0.043-8.957 1.6562-12.578 4.6523-7.7109 6.375-10.535 14.594-8.8672 24.41 1.5352 9.0742 9.3906 17.117 18.469 18.512 4.0117 0.61719 8.1172 0.82812 12.18 0.86328 12.961 0.11719 25.918 0.0625 38.879 0.0742zm-86.902-12.762c0.33594-0.51562 0.78906-1.2578 1.2774-1.9727 7.5898-11.094 2.9883-22.461-3.5977-28.738-3.0742-2.9258-6.8633-4.6953-11.141-5.0938-3.0195-0.28125-6.0625-0.44531-9.0976-0.45312-12.797-0.043-25.594-0.0234-38.387 0.0195-2.7188 8e-3 -5.4648-8e-3 -8.1406 0.36719-5.0976 0.71875-9.6914 2.5976-13.211 6.5976-7.0898 8.0508-7.6445 18.012-1.9609 27.516 1.3008 2.1758 1.3672 2.1719-0.15625 4.1953-2.4883 3.2969-4.2812 6.9219-5.2695 10.934-1.8477 7.4922 0.12109 14.305 4.7812 20.008 4.8906 5.9844 11.488 9.2656 19.508 9.1484 6.1562-0.0898 12.316 0.0352 18.473-4e-3 10.395-0.0664 20.793-0.26172 31.188-0.24219 4.0938 8e-3 7.6445-1.3516 11.098-3.3047 11.391-6.4453 14.477-20.402 9.7812-30.117-1.4141-2.9258-3.2578-5.6406-5.1445-8.8594m72.328-374.48c-0.625-0.0742-0.9375-0.14453-1.2461-0.14453-16.16 0.125-32.316 0.23437-48.473 0.42578-1.4844 0.0195-3.0195 0.39453-4.4375 0.8789-10.5 3.6172-17.418 14.297-17.406 24.367 0.0469 48.234-0.0469 96.473-0.11328 144.71-0.0391 28.719-0.1211 57.434-0.17188 86.152 0 1.0898 0.0937 2.1797 0.15625 3.5078h10.512c3.5195 0 7.043 0.0273 10.559-8e-3 3.3906-0.0391 6.7969 0.17578 10.398-0.17187v-164.38c6.8555 0 13.477 0.0234 20.098-4e-3 6.6875-0.0274 13.379 0.11328 20.078-0.0899v-28.227c-6.8008 0-13.422 0.0234-20.043-8e-3 -6.6836-0.0312-13.367 0.13281-20.102-0.10157-0.043-0.8164-0.10156-1.3711-0.0977-1.9219 0.0312-7.7578 0.0547-15.52 0.11719-23.277 0.0117-1.3555 0.1211-2.7188 0.28516-4.0664 0.5625-4.5938 4.375-8.457 8.9726-8.9922 2.1406-0.24609 4.3047-0.34375 6.4609-0.35937 7.2812-0.0547 14.559-0.043 21.84-0.0586h2.6133zm-117.11 28.148c-0.10938 1.9492-0.16407 3.4648-0.28125 4.9726-0.39454 5.0234-0.8086 10.043-1.2188 15.062-0.69141 8.4453-1.1914 16.914-2.1211 25.336-1.3711 12.387-2.6094 24.785-4.5664 37.113-1.7305 10.902-3.7461 21.738-6.2656 32.465-3.0469 12.984-6.707 25.797-11.438 38.32-4.3672 11.559-9.3008 22.789-15.816 33.289-3.332 5.3672-6.8203 10.633-10.246 15.941-0.25781 0.39843-0.55469 0.78515-0.89062 1.1211-2.5781 2.6016-6.207 2.5312-8.5859-0.24609-1.1445-1.3281-2.1992-2.75-3.1602-4.2188-2.7969-4.2812-5.6211-8.5508-8.2695-12.922-5.5234-9.1133-10.148-18.684-13.969-28.629-5.5312-14.418-9.9609-29.172-13.309-44.258-2.0938-9.4375-4.4141-18.82-5.5781-28.445-1.0312-8.4883-2.3398-16.941-3.3203-25.438-1.207-10.48-2.2578-20.98-3.2617-31.48-0.68359-7.1641-1.1875-14.344-1.7383-21.516-0.15625-2.0469-0.19922-4.1055-0.30859-6.4414h14.625c2.4023 0 4.8008 0.0234 7.1992-4e-3 2.3633-0.0273 4.7344 0.12891 7.0274-0.0976 0.53125-4.3086 0.32031-26.348-0.23438-28.023h-61.293c0 1.0352-0.0351 1.9023 4e-3 2.7656 0.53516 12.145 1.043 24.285 1.6406 36.426 0.21093 4.3125 0.57421 8.6172 0.98828 12.914 1.0195 10.504 2.0938 21 3.1719 31.496 0.66406 6.4414 1.1641 12.906 2.1172 19.305 1.5352 10.27 3.1992 20.531 5.1445 30.73 3.1289 16.41 7.082 32.625 12.398 48.492 5.1875 15.492 11.293 30.555 19.422 44.781 6.3281 11.074 13.594 21.473 21.387 31.539 0.86328 1.1172 1.8398 1.3359 3.0977 1.332 13.598-0.0195 27.199-0.0312 40.797 0.0156 1.5078 8e-3 2.5312-0.41406 3.4258-1.6641 3.4375-4.8125 6.9531-9.5703 10.465-14.332 5.5664-7.5508 10.375-15.594 14.602-23.93 10.379-20.477 18.004-42.016 23.227-64.344 2.9609-12.668 5.3008-25.496 7.5742-38.316 1.6133-9.1211 2.7852-18.328 3.9024-27.527 1.0508-8.6484 1.875-17.328 2.6055-26.008 1.0039-11.949 1.9062-23.91 2.6992-35.879 0.58594-8.8555 0.92578-17.727 1.3633-26.59 0.0195-0.37109-0.0859-0.75-0.14843-1.2188h-61.543v28.109zm135.9 231.59c0.83594 0.0586 1.6133 0.15625 2.3867 0.15625 36.555-0.0898 73.109-0.1914 109.66-0.28125 4.3438-0.0117 8.6094-0.65625 12.801-1.7148 16.453-4.1445 28.953-13.902 38.41-27.68 5.332-7.7695 8.8828-16.453 11.129-25.602 1.8516-7.5625 2.4609-15.277 2.1602-23.082-0.44921-11.652-2.7422-22.812-8.207-33.215-8.9023-16.934-21.637-30.598-36.293-42.629-0.54296-0.44531-1.0781-0.89453-1.8633-1.5469 0.9961-1.0469 1.8359-1.9726 2.7148-2.8594 7.0781-7.0859 13.805-14.453 18.98-23.109 7.7226-12.914 12.051-26.766 11.699-41.914-0.14843-6.4297-1.0703-12.727-3.6836-18.695-1.9883-4.543-5.0078-8.1211-9.3438-10.594-6.1406-3.5039-12.789-5.5469-19.75-6.1836-6.5195-0.59375-13.098-0.71484-19.648-0.73437-36.234-0.11328-72.469-0.13281-108.7-0.17578-0.77735 0-1.5508 0.0898-2.4531 0.14062zm-595.23-82.191c1.0977-0.82032 1.7695-1.3555 2.4766-1.8438 21.965-15.219 43.109-31.551 64.086-48.082 10.73-8.4531 20.98-17.551 31.117-26.727 21.879-19.809 43.512-39.895 65.312-59.793 17.309-15.797 34.551-31.676 52.137-47.164 20.32-17.891 42.074-33.941 64.879-48.527 18.684-11.949 38.402-22.02 58.406-31.531 10.977-5.2188 22.328-9.5156 33.699-13.785 21.609-8.1094 43.883-13.789 66.469-18.254 12.215-2.4141 24.547-4.3398 36.883-6.0586 11.008-1.5312 22.098-2.3438 33.223-2.6289 20.559-0.52344 41.117-0.60938 61.664 0.13672 9.1758 0.33203 18.34 1.2695 27.484 2.1875 14.324 1.4375 28.488 3.9688 42.582 6.8594 18.637 3.8242 37.109 8.4102 55.07 14.676 12.879 4.4922 25.672 9.2773 38.109 15.012 15.035 6.9297 29.77 14.438 44.238 22.449 17.086 9.4648 33.188 20.484 48.902 32.082 17.652 13.027 34.52 27 50.684 41.824 29.242 26.812 58.457 53.66 87.684 80.492 14.676 13.469 29.312 26.996 45.02 39.258 20.801 16.238 41.656 32.418 63.355 47.465 0.7657 0.53125 1.4961 1.1172 2.5391 1.9024-1.5859 1.2852-2.8828 2.4336-4.2773 3.4531-8.3946 6.1328-16.91 12.102-25.203 18.367-19.969 15.098-40.059 30.051-58.793 46.695-10.941 9.7188-21.668 19.684-32.457 29.574-25.883 23.73-51.75 47.48-77.613 71.234-23.02 21.137-47.473 40.461-73.422 57.867-17.418 11.684-35.738 21.816-54.641 30.891-8.5 4.0781-16.984 8.2109-25.637 11.934-7.4062 3.1875-15.059 5.793-22.574 8.7188-12.383 4.8281-25.227 8.1289-38.047 11.512-16.004 4.2227-32.211 7.5078-48.578 9.9297-9.9531 1.4766-19.98 2.5273-29.996 3.5391-13.547 1.3672-27.16 1.2305-40.754 1.3438-8.2383 0.0664-16.48 0.0273-24.719 0.043-10.648 0.0195-21.246-0.8711-31.844-1.7578-19.062-1.5977-37.895-4.7656-56.57-8.7969-17.184-3.707-34.195-8.1328-50.84-13.824-24.938-8.5273-48.688-19.734-71.98-31.988-26.215-13.793-50.402-30.605-73.676-48.824-13.996-10.953-27.348-22.648-40.426-34.668-27.566-25.328-55.125-50.664-82.699-75.98-14.91-13.688-29.797-27.418-45.754-39.879-19.539-15.258-39.141-30.441-59.43-44.703-1.9531-1.3711-3.8047-2.8867-6.0898-4.6289" fill="#0f2b5c"/>
  <g fill="#fff">
   <path d="m682.87 472.72c0.78125 0.043 1.4102 0.11328 2.043 0.10937 22.797-0.0312 45.598-0.0273 68.395-0.15234 3.9844-0.0195 7.9766-0.47657 11.945-0.91797 4.9297-0.55469 9.1211-2.668 12.66-6.2109 4.3828-4.3867 8.1602-9.2031 11.238-14.586 2.6562-4.6406 4.293-9.6289 5.1016-14.883 1.3594-8.832 0.78515-17.594-1.8008-26.109-5.7226-18.832-16.758-33.793-33.277-44.613-0.32812-0.21093-0.70312-0.35156-1.2266-0.60937-18.531 12.02-38.09 21.422-60.926 22.375v-28.07c1.9023-0.33985 3.7969-0.57813 5.6406-1.0234 4.8828-1.1797 9.9727-1.8945 14.574-3.7812 21.109-8.6406 38.832-22.117 53.828-39.172 7.7852-8.8516 11.242-19.531 11.867-31.227 0.22266-4.1836-1.3906-7.625-3.6602-10.895-1.1055-1.5938-2.6328-2.5703-4.5938-2.7109-2.2305-0.15234-4.4648-0.32422-6.6992-0.32812-27.598-0.0508-55.195-0.0703-82.793-0.0977h-2.3164zm-31.531 28.648v-259.72c0.90235-0.0508 1.6758-0.14062 2.4531-0.14062 36.234 0.043 72.469 0.0625 108.7 0.17578 6.5508 0.0195 13.129 0.14062 19.648 0.73437 6.9609 0.63672 13.609 2.6797 19.75 6.1836 4.3359 2.4726 7.3555 6.0508 9.3438 10.594 2.6133 5.9648 3.5352 12.266 3.6836 18.699 0.34766 15.145-3.9766 28.996-11.699 41.91-5.1758 8.6562-11.902 16.023-18.977 23.109-0.88281 0.88672-1.7226 1.8125-2.7188 2.8633 0.78516 0.64844 1.3203 1.0977 1.8633 1.543 14.656 12.031 27.391 25.695 36.293 42.629 5.4609 10.402 7.7578 21.562 8.207 33.211 0.30079 7.8086-0.30859 15.523-2.1641 23.086-2.2422 9.1484-5.793 17.828-11.125 25.602-9.457 13.773-21.957 23.535-38.41 27.68-4.1914 1.0586-8.457 1.7031-12.801 1.7148-36.555 0.0899-73.109 0.19141-109.66 0.28125-0.77344 4e-3 -1.5508-0.0976-2.3867-0.15625"/>
   <path d="m515.44 269.79h-28.68v-28.105h61.543c0.0625 0.46484 0.16797 0.84375 0.14843 1.2148-0.4375 8.8633-0.77734 17.734-1.3633 26.594-0.79297 11.965-1.6953 23.926-2.6992 35.875-0.73046 8.6797-1.5547 17.359-2.6055 26.008-1.1172 9.1992-2.2891 18.406-3.9024 27.527-2.2734 12.82-4.6133 25.648-7.5742 38.32-5.2226 22.324-12.848 43.863-23.227 64.34-4.2266 8.3359-9.0352 16.379-14.602 23.93-3.5117 4.7578-7.0274 9.5195-10.465 14.332-0.89453 1.2539-1.918 1.6719-3.4258 1.668-13.598-0.0508-27.199-0.0391-40.797-0.0195-1.2578 4e-3 -2.2344-0.21875-3.0977-1.332-7.793-10.066-15.059-20.465-21.387-31.539-8.1289-14.227-14.234-29.289-19.422-44.777-5.3164-15.871-9.2695-32.082-12.398-48.496-1.9453-10.199-3.6094-20.457-5.1445-30.73-0.95313-6.3984-1.4531-12.863-2.1172-19.305-1.0781-10.496-2.1523-20.996-3.1719-31.496-0.41407-4.2969-0.77735-8.6016-0.98828-12.914-0.59766-12.141-1.1055-24.281-1.6406-36.426-0.0391-0.86328-4e-3 -1.7266-4e-3 -2.7656h61.293c0.55469 1.6758 0.76563 23.715 0.23438 28.02-2.293 0.23047-4.6641 0.0742-7.0274 0.10156-2.3984 0.0274-4.7969 4e-3 -7.1992 4e-3h-14.625c0.10937 2.3398 0.15234 4.3945 0.30859 6.4414 0.55078 7.1758 1.0547 14.355 1.7383 21.516 1.0039 10.504 2.0547 21 3.2617 31.48 0.98047 8.4961 2.2891 16.949 3.3203 25.438 1.1641 9.625 3.4844 19.008 5.5781 28.445 3.3476 15.086 7.7773 29.84 13.309 44.258 3.8203 9.9453 8.4453 19.516 13.969 28.629 2.6484 4.3711 5.4727 8.6406 8.2695 12.922 0.96094 1.4688 2.0156 2.8906 3.1602 4.2188 2.3789 2.7773 6.0078 2.8476 8.5859 0.24609 0.33593-0.33594 0.63281-0.72266 0.89062-1.1211 3.4258-5.3086 6.9141-10.578 10.246-15.941 6.5156-10.5 11.449-21.73 15.816-33.289 4.7305-12.523 8.3906-25.332 11.438-38.32 2.5195-10.723 4.5352-21.562 6.2656-32.465 1.957-12.328 3.1953-24.727 4.5664-37.113 0.92969-8.4219 1.4297-16.891 2.1211-25.336 0.41015-5.0195 0.82421-10.039 1.2188-15.062 0.11718-1.5078 0.17187-3.0234 0.28125-4.9726"/>
   <path d="m632.55 241.64v28.234h-2.6133c-7.2812 0.0156-14.559 4e-3 -21.84 0.0586-2.1523 0.0195-4.3203 0.11328-6.4609 0.35937-4.5976 0.53516-8.4102 4.3984-8.9726 8.9922-0.16406 1.3477-0.27344 2.7109-0.28516 4.0664-0.0586 7.7578-0.0859 15.52-0.11719 23.277-4e-3 0.55078 0.0547 1.1055 0.10157 1.9219 6.7305 0.23438 13.418 0.0742 20.098 0.10157 6.6211 0.0312 13.242 8e-3 20.043 8e-3v28.227c-6.6992 0.20313-13.391 0.0625-20.078 0.0899-6.6211 0.0234-13.242 4e-3 -20.102 4e-3v164.38c-3.5976 0.35156-7.0039 0.13672-10.395 0.17578-3.5195 0.0352-7.0391 8e-3 -10.559 8e-3h-10.512c-0.0625-1.3281-0.16016-2.418-0.15625-3.5078 0.0547-28.719 0.13281-57.434 0.17188-86.152 0.0664-48.238 0.16015-96.477 0.11328-144.71-0.0117-10.07 6.9062-20.75 17.406-24.367 1.418-0.48828 2.9531-0.86328 4.4375-0.8789 16.156-0.19141 32.316-0.30078 48.473-0.42578 0.3086 0 0.6211 0.0703 1.2461 0.14453"/>
   <path d="m518.78 609.57v8e-3c5.4375 0 10.875 0.0586 16.309-0.0156 5.3125-0.0703 8.3789-3.5742 7.9062-8.8672-0.30469-3.4453-2.8359-6.0391-6.3242-6.4258-1.4297-0.15625-2.8711-0.28125-4.3086-0.28907-9.5938-0.0508-19.188-0.0703-28.781-0.0937-0.55859-4e-3 -1.1211 8e-3 -1.6797 0.0547-4.5156 0.38281-7.7734 3.9336-7.6133 8.293 0.14843 4.082 3.5117 7.2617 7.9414 7.3164 5.5156 0.0742 11.031 0.0195 16.551 0.0195m-0.53906 14.047c0 0.14844-4e-3 0.30078-4e-3 0.44922-4.793 0-9.5859-0.0234-14.375 0.0195-0.9414 8e-3 -1.9336 0.14063-2.8086 0.46094-6.0352 2.1953-8.6289 9.9648-5.1094 15.324 1.9844 3.0195 4.6172 5 8.4688 4.9961 7.75-4e-3 15.496 0.10157 23.246 0.10938 2.3164 0 4.6289-0.13281 6.9414-0.28906 0.77343-0.0508 1.6055-0.22266 2.2891-0.57813 5.1406-2.6992 7.2656-7.2852 5.7266-12.828-1.2148-4.3906-4.8164-7.2031-8.8086-7.2812-5.1914-0.0977-10.379-0.25391-15.566-0.38282m41.988-7.5078c1.8867 3.2188 3.7305 5.9336 5.1445 8.8594 4.6953 9.7148 1.6094 23.672-9.7812 30.117-3.4531 1.9531-7.0039 3.3125-11.098 3.3047-10.395-0.0195-20.793 0.17578-31.188 0.24219-6.1562 0.0391-12.316-0.0859-18.473 4e-3 -8.0195 0.11719-14.617-3.1641-19.508-9.1484-4.6602-5.7031-6.6289-12.516-4.7812-20.004 0.98828-4.0156 2.7812-7.6406 5.2695-10.938 1.5234-2.0234 1.457-2.0195 0.15625-4.1953-5.6836-9.5039-5.1289-19.465 1.9609-27.516 3.5195-4 8.1133-5.8789 13.211-6.5976 2.6758-0.375 5.4219-0.35938 8.1406-0.36719 12.793-0.043 25.59-0.0625 38.387-0.0195 3.0352 8e-3 6.0781 0.17187 9.0976 0.45312 4.2774 0.39844 8.0664 2.168 11.141 5.0977 6.5859 6.2695 11.188 17.641 3.5977 28.734-0.48829 0.71485-0.94141 1.457-1.2774 1.9727"/>
   <path d="m623.18 614.93v-0.0234c4.4766 0 8.9492-0.0859 13.422 0.0274 3.4102 0.0859 5.8594-1.5312 8.2344-3.7344 3.6211-3.3672 3.1992-11.344-0.97656-14.621-2.582-2.0234-5.4062-2.5781-8.4922-2.5898-8.5469-0.0352-17.098-0.0664-25.648-0.0859-0.71875 0-1.4453 0.0117-2.1484 0.13672-3.1211 0.55859-5.7461 1.9922-7.4648 4.7226-4.3633 6.918 0.45703 15.91 8.6953 16.141 4.7891 0.13672 9.5859 0.0273 14.379 0.0273m23.953 13.949h-2.7578c-12.961-0.0117-25.918 0.043-38.879-0.0742-4.0625-0.0352-8.168-0.24609-12.18-0.86328-9.0781-1.3945-16.93-9.4375-18.469-18.512-1.668-9.8164 1.1523-18.035 8.8672-24.41 3.6211-2.9922 7.8672-4.6094 12.578-4.6523 11.918-0.10156 23.84-0.12109 35.758-0.14453 5.2812-0.0156 10.562 0.0898 15.84 0.0586 12.691-0.0742 22.875 10.176 23.555 22.574 0.60937 11.109 0.65234 22.238-0.0234 33.344-0.57031 9.3672-5.4492 15.965-13.809 20.082-3.2812 1.6172-6.7188 2.4062-10.406 2.3906-15.918-0.0586-31.84-0.0625-47.758-0.0195-5.1016 0.0156-9.7773-1.2383-14.102-3.9453-4.2227-2.6367-7.2734-6.2148-8.9922-10.883-0.76172-2.0742-1.3906-4.1914-2.1719-6.5703h24.398c0.21875 0.38281 0.52344 0.83594 0.75 1.3242 1.8281 3.9414 4.9531 6.0898 9.2422 6.1445 9.6758 0.12109 19.355 0.16406 29.027 0.0273 4.4609-0.0625 8.3086-3.4805 9.4648-7.8164 0.51172-1.9141 0.57031-5.6953 0.0664-8.0547"/>
   <path d="m702.36 658.41c12.508-20.727 25.668-40.648 38.465-61.387-1.2031-0.0625-2.0234-0.14844-2.8398-0.14844-17.84-0.043-35.68-0.082-53.52-0.11719-1.0195-4e-3 -2.0391 0-3.2188 0v-16.812h87.836c0.0625 0.7461 0.16797 1.4414 0.16797 2.1367 0.0156 4.4805-0.0195 8.9609 0.0312 13.438 0.0117 1.1875-0.33204 2.1602-0.97657 3.125-13.031 19.473-26.051 38.953-39.055 58.445-0.65235 0.97657-1.2695 1.6641-2.6328 1.6445-7.6797-0.10156-15.359-0.0977-23.039-0.13671-0.23437-4e-3 -0.46875-0.0703-1.2188-0.1875"/>
   <path d="m458.92 579.91v78.395c-1.6836 0.52344-19.641 0.67188-23.016 0.15625v-63.281c-1.0352 0.71875-1.6094 1.0547-2.1133 1.4766-5.082 4.2656-10.164 8.5312-15.227 12.82-0.81641 0.6914-1.6133 1.1797-2.7656 1.1719-7.7539-0.043-15.512-0.0195-23.266-0.0273-0.375 0-0.74609-0.0781-1.4375-0.16016 0.50391-0.57422 0.75781-0.94531 1.0859-1.2305 10.469-9.1602 20.969-18.285 31.395-27.496 1.6055-1.418 3.2188-1.9961 5.3633-1.9727 9.3555 0.10938 18.711 0.0469 28.066 0.0508 0.54687 0 1.0898 0.0547 1.9141 0.0977"/>
   <path d="m987.65 400.04c0.043 7.9922-5.5625 11.488-11.301 11.695-6.5898 0.23438-11.777-4.9375-11.879-11.539-0.0937-6.2539 5.2461-11.773 11.465-11.855 6.5117-0.082 11.66 5.0586 11.715 11.699"/>
   <path d="m223.82 400.21c-0.15235 6.5625-5.3203 11.801-11.598 11.566-5.3438-0.19922-11.738-3.3008-11.457-12.008 0.21484-6.668 5.3438-11.652 11.914-11.422 6.1562 0.21875 11.285 5.6758 11.141 11.863"/>
  </g>
  <g fill="#0f2b5c">
   <path d="m682.87 472.72v-202.9h2.3164c27.598 0.0274 55.195 0.0469 82.793 0.0977 2.2344 4e-3 4.4688 0.17578 6.6992 0.32812 1.9609 0.14063 3.4883 1.1172 4.5938 2.7109 2.2695 3.2695 3.8828 6.7109 3.6602 10.895-0.625 11.695-4.082 22.375-11.867 31.227-14.996 17.055-32.719 30.531-53.828 39.172-4.6016 1.8867-9.6914 2.6016-14.574 3.7812-1.8438 0.44531-3.7383 0.68359-5.6406 1.0234v28.07c22.836-0.95313 42.395-10.355 60.926-22.375 0.52344 0.25781 0.89844 0.39844 1.2266 0.60937 16.52 10.82 27.555 25.781 33.277 44.613 2.5859 8.5156 3.1602 17.277 1.8008 26.109-0.8086 5.2539-2.4453 10.242-5.1016 14.883-3.0781 5.3828-6.8555 10.199-11.238 14.586-3.5391 3.543-7.7305 5.6562-12.66 6.2109-3.9688 0.4414-7.9609 0.89844-11.945 0.91797-22.797 0.125-45.598 0.12109-68.395 0.15234-0.63281 4e-3 -1.2617-0.0664-2.043-0.10937"/>
   <path d="m518.24 623.62c5.1875 0.12891 10.379 0.28516 15.566 0.38282 3.9922 0.0781 7.5938 2.8906 8.8086 7.2812 1.5391 5.543-0.58594 10.129-5.7266 12.824-0.6836 0.35938-1.5156 0.53125-2.2891 0.58204-2.3086 0.15625-4.6289 0.28906-6.9414 0.28906-7.7461-8e-3 -15.496-0.11328-23.246-0.10938-3.8516 4e-3 -6.4844-1.9766-8.4727-4.9961-3.5195-5.3594-0.92188-13.129 5.1133-15.324 0.875-0.32031 1.8672-0.45312 2.8047-0.46094 4.793-0.043 9.5859-0.0195 14.379-0.0195 4e-3 -0.14844 4e-3 -0.30078 4e-3 -0.44922"/>
   <path d="m518.78 609.57c-5.5195 0-11.035 0.0547-16.551-0.0195-4.4297-0.0547-7.793-3.2344-7.9414-7.3164-0.16016-4.3594 3.0976-7.9102 7.6133-8.293 0.55859-0.0469 1.1211-0.0586 1.6797-0.0547 9.5938 0.0234 19.188 0.043 28.781 0.0937 1.4375 8e-3 2.8789 0.13282 4.3086 0.28907 3.4883 0.38672 6.0195 2.9805 6.3242 6.4258 0.47265 5.293-2.5938 8.7969-7.9062 8.8672-5.4336 0.0742-10.871 0.0156-16.309 0.0156z"/>
   <path d="m623.18 614.93c-4.793 0-9.5898 0.10938-14.379-0.0273-8.2383-0.23047-13.059-9.2227-8.6953-16.141 1.7188-2.7305 4.3438-4.1641 7.4648-4.7226 0.70312-0.125 1.4297-0.13672 2.1484-0.13672 8.5508 0.0195 17.102 0.0508 25.648 0.0859 3.0859 0.0117 5.9102 0.56641 8.4922 2.5898 4.1758 3.2773 4.5976 11.254 0.97656 14.621-2.375 2.2031-4.8242 3.8203-8.2344 3.7344-4.4727-0.11328-8.9453-0.0274-13.422-0.0274z"/>
  </g>
 </g>
</svg>
