<svg width="427.627" height="514.56" version="1.2" viewBox="0 0 320.72 385.92" xmlns="http://www.w3.org/2000/svg" xmlns:xlink="http://www.w3.org/1999/xlink"><defs><clipPath id="a"><path d="M0 0h1112v613H0z"/></clipPath><clipPath id="b"><path d="M0 0h1112v613H0z"/></clipPath></defs><g fill="#211e1e"><use x="257.5" y="74.669" width="100%" height="100%" xlink:href="#c" transform="translate(-519.9 133.23)"/><use x="168.123" y="108.554" width="100%" height="100%" xlink:href="#d" transform="translate(-519.9 133.23)"/><use x="208.018" y="108.554" width="100%" height="100%" xlink:href="#d" transform="translate(-519.9 133.23)"/><use x="248.291" y="108.554" width="100%" height="100%" xlink:href="#d" transform="translate(-519.9 133.23)"/><use x="168.322" y="136.018" width="100%" height="100%" xlink:href="#d" transform="translate(-519.9 133.23)"/><use x="209.755" y="136.018" width="100%" height="100%" xlink:href="#d" transform="translate(-519.9 133.23)"/><use x="248.867" y="136.018" width="100%" height="100%" xlink:href="#d" transform="translate(-519.9 133.23)"/><use x="168.331" y="163.194" width="100%" height="100%" xlink:href="#d" transform="translate(-519.9 133.23)"/><use x="209.762" y="163.194" width="100%" height="100%" xlink:href="#d" transform="translate(-519.9 133.23)"/><use x="248.875" y="163.194" width="100%" height="100%" xlink:href="#d" transform="translate(-519.9 133.23)"/><use x="168.946" y="190.658" width="100%" height="100%" xlink:href="#d" transform="translate(-519.9 133.23)"/><use x="209.298" y="190.658" width="100%" height="100%" xlink:href="#d" transform="translate(-519.9 133.23)"/><use x="248.411" y="190.658" width="100%" height="100%" xlink:href="#d" transform="translate(-519.9 133.23)"/><use x="168.306" y="217.874" width="100%" height="100%" xlink:href="#d" transform="translate(-519.9 133.23)"/><use x="209.906" y="217.874" width="100%" height="100%" xlink:href="#d" transform="translate(-519.9 133.23)"/><use x="250.042" y="217.874" width="100%" height="100%" xlink:href="#d" transform="translate(-519.9 133.23)"/><use x="126.691" y="240.442" width="100%" height="100%" xlink:href="#d" transform="translate(-519.9 133.23)"/><use x="167.85" y="245.442" width="100%" height="100%" xlink:href="#d" transform="translate(-519.9 133.23)"/><use x="209.786" y="245.442" width="100%" height="100%" xlink:href="#d" transform="translate(-519.9 133.23)"/><use x="250.13" y="245.442" width="100%" height="100%" xlink:href="#d" transform="translate(-519.9 133.23)"/><use x="79.842" y="267.538" width="100%" height="100%" xlink:href="#d" transform="translate(-519.9 133.23)"/><use x="80.963" y="267.538" width="100%" height="100%" xlink:href="#d" transform="translate(-519.9 133.23)"/><use x="1078.415" y="74.669" width="100%" height="100%" xlink:href="#c" transform="translate(-519.9 133.23)"/><use x="1069.62" y="107.739" width="100%" height="100%" xlink:href="#d" transform="translate(-519.9 133.23)"/><use x="1070.108" y="133.395" width="100%" height="100%" xlink:href="#d" transform="translate(-519.9 133.23)"/><use x="1070.1" y="158.339" width="100%" height="100%" xlink:href="#d" transform="translate(-519.9 133.23)"/><use x="1071.044" y="208.371" width="100%" height="100%" xlink:href="#d" transform="translate(-519.9 133.23)"/><use x="1071.204" y="285.323" width="100%" height="100%" xlink:href="#d" transform="translate(-519.9 133.23)"/><use x="904.692" y="356.955" width="100%" height="100%" xlink:href="#d" transform="translate(-519.9 133.23)"/><use x="905.812" y="356.955" width="100%" height="100%" xlink:href="#d" transform="translate(-519.9 133.23)"/><use x="256.525" y="405.897" width="100%" height="100%" xlink:href="#e" transform="translate(-519.9 133.23)"/><use x="184.544" y="414.899" width="100%" height="100%" xlink:href="#e" transform="translate(-519.9 133.23)"/><use x="256.524" y="462.227" width="100%" height="100%" xlink:href="#f" transform="translate(-519.9 133.23)"/><use x="256.525" y="512.898" width="100%" height="100%" xlink:href="#e" transform="translate(-519.9 133.23)"/><use x="256.539" y="512.898" width="100%" height="100%" xlink:href="#e" transform="translate(-519.9 133.23)"/><use x="54.721" y="521.9" width="100%" height="100%" xlink:href="#e" transform="translate(-519.9 133.23)"/><use x="32.467" y="305.319" width="100%" height="100%" xlink:href="#g" transform="translate(-519.9 133.23)"/><use x="37.346" y="305.319" width="100%" height="100%" xlink:href="#g" transform="translate(-519.9 133.23)"/><use x="262.184" y="305.319" width="100%" height="100%" xlink:href="#g" transform="translate(-519.9 133.23)"/></g><g fill="#fff"><use x="779.18" y="500.959" width="100%" height="100%" xlink:href="#h" transform="translate(-519.9 133.23)"/><use x="780.588" y="500.961" width="100%" height="100%" xlink:href="#h" transform="translate(-519.9 133.23)"/><use x="795.313" y="542.462" width="100%" height="100%" xlink:href="#h" transform="translate(-519.9 133.23)"/><use x="796.719" y="542.465" width="100%" height="100%" xlink:href="#h" transform="translate(-519.9 133.23)"/></g><use x="1076.049" y="540.959" width="100%" height="100%" xlink:href="#i" transform="translate(-519.9 133.23)" fill="#211e1e"/><use x="1076.017" y="549.961" width="100%" height="100%" xlink:href="#i" transform="translate(-519.9 133.23)" fill="#211e1e"/><g stroke-width=".227"><path d="M160.313 384.065c87.686 0 158.77-85.673 158.77-191.357S247.999 1.35 160.313 1.35C72.645 1.35 1.562 87.023 1.562 192.708s71.083 191.357 158.751 191.357" fill="#fff"/><path d="M160.401 385.915c-88.408 0-160.35-86.549-160.35-192.96C.05 86.564 71.993-.008 160.4-.008c88.426 0 160.369 86.567 160.369 192.961 0 106.408-71.943 192.961-160.369 192.961m0-382.72C73.746 3.196 3.25 88.319 3.25 192.956 3.249 297.59 73.746 382.73 160.4 382.73c86.673 0 157.17-85.14 157.17-189.777 0-104.636-70.497-189.758-157.17-189.758" fill="#211e1e"/><path d="M160.401 373.493c81.114 0 146.863-80.805 146.863-180.486 0-99.68-65.749-180.486-146.863-180.486S13.54 93.326 13.54 193.007c0 99.681 65.749 180.486 146.862 180.486" fill="#fff"/><path d="M160.401 375.123c-81.853 0-148.461-81.682-148.461-182.085S78.548 10.953 160.4 10.953c81.872 0 148.462 81.682 148.462 182.085s-66.59 182.085-148.462 182.085m0-360.968c-80.1 0-145.263 80.255-145.263 178.883 0 98.632 65.163 178.883 145.263 178.883s145.264-80.255 145.264-178.883c0-98.632-65.163-178.883-145.264-178.883" fill="#211e1e"/><path d="M24.507 260.857c21.99 65.904 74.56 112.293 135.903 112.293 81.132 0 146.898-81.15 146.898-181.275 0-23.608-3.648-46.151-10.29-66.833 0 0-272.541 136.401-272.506 135.815" fill="#211e1e"/><g fill="#fff"><path d="m180.709 328.959-5.094 2.53-11.7-23.437c-.843 3.08-2.254 5.765-4.233 8.002l-2.822-5.644c1.136-1.29 2.082-3.046 2.874-5.283.774-2.237.98-4.456.619-6.693l4.113-2.048zM183.352 318.255l4.611-3.115c1.428 2.289 2.994 3.011 4.68 2.168 1.136-.568 1.756-1.634 1.893-3.183.12-1.566-.636-4.233-2.254-8.001-.19 1.221-.568 2.254-1.136 3.114a5.804 5.804 0 0 1-2.305 1.996c-2.03 1.015-4.302.947-6.814-.206-2.53-1.17-4.578-3.339-6.178-6.54-1.703-3.423-2.22-6.52-1.565-9.308.654-2.77 2.185-4.766 4.594-5.954 2.684-1.342 5.54-1.187 8.535.482 3.011 1.652 5.97 5.403 8.878 11.253 2.977 5.954 4.199 10.703 3.683 14.213s-2.22 5.989-5.11 7.434c-1.997.998-3.993 1.17-5.955.499-1.961-.671-3.82-2.289-5.557-4.853m4.8-19.323c-1.015-2.03-2.185-3.407-3.493-4.113-1.308-.705-2.46-.808-3.424-.327-.947.465-1.514 1.308-1.686 2.513-.19 1.221.258 2.873 1.29 4.973 1.05 2.082 2.15 3.44 3.321 4.078 1.187.636 2.254.688 3.27.189.963-.482 1.548-1.36 1.772-2.615.223-1.274-.138-2.84-1.05-4.698M219.957 309.4l-5.093 2.547-11.684-23.453c-.843 3.097-2.254 5.747-4.25 8.001l-2.822-5.643c1.136-1.274 2.1-3.046 2.874-5.283.774-2.237.98-4.456.62-6.676l4.112-2.065zM231.234 273.147l-4.612 3.132c-1.428-2.288-2.994-3.011-4.697-2.15-1.119.533-1.738 1.617-1.859 3.182-.137 1.584.62 4.25 2.255 8.019.189-1.239.55-2.254 1.118-3.115a5.55 5.55 0 0 1 2.237-1.978c2.082-1.05 4.388-.981 6.917.189 2.512 1.153 4.577 3.355 6.177 6.573 1.704 3.424 2.237 6.505 1.549 9.258-.671 2.77-2.203 4.766-4.629 5.97-2.667 1.326-5.506 1.154-8.517-.481-3.012-1.67-5.971-5.42-8.896-11.27-2.96-5.954-4.182-10.686-3.665-14.214.516-3.51 2.185-5.988 5.041-7.399 1.962-.98 3.958-1.153 5.971-.482 2.03.654 3.889 2.237 5.61 4.766m-4.784 19.358c1.015 2.048 2.185 3.424 3.493 4.113 1.308.705 2.444.808 3.407.327.947-.465 1.514-1.308 1.704-2.53.172-1.204-.241-2.839-1.256-4.887-1.067-2.116-2.169-3.493-3.339-4.13-1.17-.636-2.254-.705-3.252-.206-.998.499-1.583 1.377-1.807 2.65-.223 1.256.138 2.822 1.05 4.663M74.812 285.746l2.306-1.463c.774 1.239 1.583 2.117 2.41 2.598.808.5 1.754.757 2.838.775 1.067.017 2.134-.241 3.2-.775 1.532-.774 2.53-1.738 3.012-2.908.465-1.17.396-2.357-.19-3.561-.36-.689-.808-1.222-1.376-1.584-.568-.378-1.256-.567-2.048-.585-.774-.035-2.357.173-4.714.585-2.1.379-3.683.482-4.732.327-1.05-.172-2.013-.55-2.857-1.187-.86-.637-1.548-1.48-2.082-2.547-.963-1.927-1.135-3.802-.499-5.627.62-1.84 1.996-3.303 4.096-4.353 1.445-.723 2.839-1.067 4.215-1.032a6.926 6.926 0 0 1 3.752 1.187c1.135.757 2.082 1.858 2.856 3.286l-2.357 1.463c-.912-1.48-1.945-2.392-3.115-2.736-1.153-.344-2.46-.155-3.889.568-1.462.723-2.409 1.6-2.839 2.633-.447 1.05-.395 2.082.12 3.114.483.964 1.136 1.566 1.962 1.807.81.24 2.34.155 4.578-.293 2.185-.43 3.768-.636 4.732-.636 1.497.017 2.787.361 3.871 1.032 1.101.688 1.996 1.72 2.684 3.08.671 1.36.981 2.753.895 4.182a7.239 7.239 0 0 1-1.308 3.854c-.808 1.118-1.978 2.065-3.527 2.839-2.392 1.205-4.68 1.445-6.831.723-2.151-.74-3.872-2.323-5.163-4.766"/></g><path d="m74.812 285.746 2.306-1.463c.774 1.239 1.583 2.117 2.41 2.598.808.5 1.754.757 2.838.775 1.067.017 2.134-.241 3.2-.775 1.532-.774 2.53-1.738 3.012-2.908.465-1.17.413-2.357-.19-3.561-.36-.689-.808-1.222-1.376-1.6-.568-.362-1.256-.551-2.03-.586-.792-.017-2.375.19-4.732.602-2.1.379-3.683.482-4.732.327a6.572 6.572 0 0 1-2.856-1.187c-.86-.637-1.55-1.48-2.083-2.547-.963-1.927-1.135-3.802-.499-5.643.62-1.841 1.996-3.287 4.096-4.336 1.445-.723 2.839-1.067 4.215-1.033a6.926 6.926 0 0 1 3.752 1.187c1.135.757 2.082 1.859 2.856 3.287l-2.357 1.463c-.912-1.48-1.945-2.392-3.115-2.736-1.153-.344-2.46-.155-3.889.55-1.462.74-2.409 1.618-2.839 2.65-.447 1.033-.395 2.082.12 3.115.483.963 1.137 1.565 1.962 1.806.81.241 2.34.155 4.578-.292 2.185-.43 3.768-.637 4.732-.637 1.497.018 2.787.361 3.871 1.033 1.101.688 1.996 1.72 2.684 3.08.671 1.359.981 2.753.895 4.181a7.239 7.239 0 0 1-1.308 3.854c-.808 1.119-1.978 2.065-3.527 2.84-2.392 1.204-4.68 1.445-6.831.722-2.151-.74-3.872-2.323-5.162-4.766z" fill="none" stroke="#fff" stroke-width=".118935"/><path d="m97.63 283.896-4.37-27.463 2.736-1.376 19.84 19.719-2.943 1.463-5.868-6.04-8.173 4.095 1.48 8.225zm.706-12.527 6.624-3.321-5.316-5.558c-1.635-1.704-2.908-3.115-3.838-4.216.517 1.635.912 3.321 1.205 5.059z" fill="#fff"/><path d="m97.63 283.896-4.37-27.463 2.736-1.376 19.84 19.719-2.943 1.463-5.85-6.04-8.191 4.095 1.48 8.242zm.706-12.527 6.624-3.321-5.316-5.558c-1.635-1.704-2.908-3.097-3.838-4.216.517 1.635.912 3.321 1.205 5.059z" fill="none" stroke="#fff" stroke-width=".118935"/><path d="m120.404 272.487-11.873-23.694 2.633-1.325 19.564 13.542-9.343-18.653 2.46-1.239 11.873 23.711-2.632 1.308-19.548-13.542 9.344 18.653z" fill="#fff"/><path d="m120.404 272.487-11.873-23.712 2.633-1.325 19.564 13.542-9.343-18.652 2.46-1.24 11.873 23.712-2.632 1.308-19.548-13.525 9.344 18.636z" fill="none" stroke="#fff" stroke-width=".118935"/><path d="M142.473 261.43 130.6 237.72l6.71-3.356c1.653-.825 2.995-1.307 3.993-1.462 1.325-.19 2.65.018 3.992.602 1.325.585 2.615 1.532 3.837 2.822s2.358 2.977 3.407 5.076c1.342 2.684 2.082 5.162 2.237 7.416.155 2.272-.19 4.095-1.032 5.506-.844 1.394-2.272 2.599-4.268 3.58zm1.17-4.095 4.13-2.065c1.669-.843 2.805-1.738 3.39-2.719.602-.98.826-2.185.67-3.63-.189-1.91-.842-3.975-1.96-6.23-1.205-2.391-2.479-4.13-3.82-5.179-1.343-1.032-2.633-1.531-3.89-1.497-.843.035-2.03.43-3.527 1.17l-4.06 2.048z" fill="#fff"/><path d="M142.473 261.43 130.6 237.72l6.71-3.356c1.653-.825 2.995-1.324 3.993-1.462 1.325-.19 2.65.018 3.992.602 1.325.585 2.615 1.532 3.837 2.822s2.358 2.977 3.407 5.076c1.342 2.684 2.082 5.162 2.237 7.416.155 2.272-.19 4.095-1.032 5.506-.844 1.394-2.254 2.599-4.268 3.58zm1.17-4.095 4.13-2.065c1.669-.843 2.805-1.755 3.39-2.719.602-.98.826-2.185.67-3.63-.189-1.91-.842-3.975-1.96-6.23-1.205-2.409-2.479-4.13-3.82-5.179-1.343-1.032-2.633-1.549-3.89-1.497-.843.035-2.03.43-3.527 1.17l-4.06 2.048z" fill="none" stroke="#fff" stroke-width=".118935"/><path d="m164.542 250.374-11.873-23.695 2.581-1.29 4.87 9.739 10.1-5.059-4.869-9.739 2.564-1.29 11.873 23.711-2.564 1.29-5.61-11.167-10.1 5.041 5.592 11.185z" fill="#fff"/><path d="m164.542 250.374-11.873-23.695 2.581-1.29 4.87 9.739 10.1-5.059-4.869-9.739 2.564-1.29 11.873 23.711-2.564 1.273-5.61-11.167-10.1 5.058 5.61 11.185z" fill="none" stroke="#fff" stroke-width=".118935"/><path d="m184.497 240.374-4.37-27.462 2.752-1.377 19.823 19.72-2.943 1.48-5.85-6.04-8.173 4.095 1.48 8.225zm.705-12.527 6.625-3.303-5.317-5.558c-1.634-1.704-2.908-3.115-3.82-4.233a41.566 41.566 0 0 1 1.188 5.058z" fill="#fff" stroke="#fff" stroke-width=".118935"/><path d="m207.227 199.32 2.58-1.274 6.85 13.697c1.152 2.289 1.875 4.285 2.167 5.988.293 1.687.052 3.252-.705 4.698-.74 1.445-2.03 2.615-3.837 3.527-2.581 1.29-4.87 1.497-6.918.585-2.047-.877-4.026-3.269-5.97-7.158l-6.866-13.697 2.564-1.29 6.848 13.68c1.084 2.15 2.03 3.613 2.84 4.422.808.791 1.72 1.239 2.735 1.359 1.015.137 2.065-.103 3.15-.637 1.84-.929 2.907-2.099 3.217-3.544.292-1.463-.293-3.665-1.79-6.66z" fill="#fff"/><path d="m207.227 199.32 2.58-1.274 6.85 13.697c1.152 2.289 1.875 4.285 2.167 5.988.293 1.687.052 3.252-.705 4.698-.74 1.445-2.03 2.615-3.837 3.527-2.581 1.29-4.87 1.497-6.918.585-2.047-.877-4.026-3.269-5.97-7.158l-6.866-13.697 2.564-1.29 6.848 13.697c1.084 2.133 2.03 3.613 2.84 4.405.808.791 1.72 1.239 2.735 1.359 1.015.137 2.065-.086 3.15-.637 1.84-.912 2.907-2.099 3.217-3.544.292-1.463-.293-3.665-1.79-6.66z" fill="none" stroke="#fff" stroke-width=".118935"/><path d="m223.437 211.345 2.306-1.48c.774 1.24 1.583 2.117 2.409 2.599.826.499 1.772.757 2.839.774 1.067.018 2.134-.24 3.2-.774 1.532-.775 2.53-1.738 3.012-2.908.464-1.17.395-2.358-.19-3.545-.36-.705-.808-1.239-1.376-1.6-.568-.379-1.24-.568-2.03-.585-.792-.018-2.375.172-4.733.602-2.099.361-3.682.482-4.731.31a6.185 6.185 0 0 1-2.857-1.188c-.86-.636-1.548-1.48-2.082-2.546-.963-1.91-1.135-3.786-.499-5.627.62-1.84 1.996-3.286 4.095-4.336 1.429-.74 2.84-1.084 4.216-1.05a6.803 6.803 0 0 1 3.751 1.205c1.136.757 2.082 1.841 2.857 3.27l-2.358 1.462c-.912-1.463-1.944-2.375-3.097-2.719-1.17-.361-2.478-.172-3.906.55-1.463.724-2.409 1.618-2.84 2.65-.447 1.033-.395 2.066.121 3.098.482.964 1.119 1.566 1.945 1.807.843.24 2.357.155 4.594-.293 2.185-.43 3.768-.636 4.732-.636 1.48.017 2.787.36 3.889 1.032 1.084.688 1.978 1.72 2.667 3.08.688 1.36.98 2.753.894 4.181a7.19 7.19 0 0 1-1.307 3.855c-.809 1.118-1.98 2.082-3.528 2.856-2.391 1.205-4.68 1.428-6.831.706-2.15-.723-3.872-2.323-5.162-4.75" fill="#fff"/><path d="m223.437 211.345 2.306-1.48c.774 1.24 1.583 2.117 2.409 2.616s1.772.757 2.839.757c1.067.035 2.134-.24 3.2-.774 1.532-.757 2.53-1.738 3.012-2.908.464-1.17.395-2.358-.19-3.545-.36-.705-.808-1.222-1.376-1.6-.568-.361-1.24-.55-2.03-.585-.792-.018-2.375.172-4.733.602-2.099.361-3.682.482-4.731.31a6.185 6.185 0 0 1-2.857-1.188c-.86-.636-1.548-1.48-2.082-2.546-.963-1.91-1.135-3.786-.499-5.627.62-1.84 1.996-3.286 4.095-4.336 1.429-.723 2.84-1.067 4.216-1.05a6.803 6.803 0 0 1 3.751 1.205c1.136.757 2.082 1.858 2.857 3.287l-2.358 1.462c-.912-1.48-1.944-2.392-3.097-2.736-1.17-.344-2.478-.172-3.906.55-1.463.74-2.409 1.618-2.84 2.65-.447 1.033-.395 2.066.121 3.098.482.964 1.119 1.566 1.945 1.807.843.258 2.357.155 4.594-.276 2.185-.43 3.768-.653 4.732-.653 1.497.017 2.787.36 3.889 1.05 1.084.67 1.978 1.703 2.667 3.062.688 1.377.98 2.77.894 4.199a7.182 7.182 0 0 1-1.307 3.837c-.809 1.135-1.98 2.082-3.528 2.856-2.391 1.205-4.68 1.428-6.831.706-2.15-.723-3.872-2.306-5.162-4.75z" fill="none" stroke="#fff" stroke-width=".118935"/><path d="m248.59 208.306-11.873-23.711 14.058-7.038 1.394 2.804-11.478 5.748 3.631 7.244 10.754-5.386 1.394 2.787-10.737 5.386 4.027 8.07 11.941-5.97 1.394 2.787z" fill="#fff" stroke="#fff" stroke-width=".118935"/><path d="m268.5 198.306-11.873-23.694 2.633-1.325 19.564 13.525-9.343-18.652 2.46-1.222 11.873 23.694-2.632 1.325-19.547-13.542 9.343 18.653z" fill="#fff"/><path d="m268.5 198.306-11.873-23.71 2.633-1.308 19.564 13.524-9.343-18.652 2.46-1.222 11.873 23.694-2.632 1.325-19.547-13.542 9.343 18.653z" fill="none" stroke="#fff" stroke-width=".118935"/><path d="m192.91 156.988-79.58-75.075 20.097-10.238 57.851 56.093-12.148-79.391 19.668-10.014L212.7 146.906z" fill="#211e1e"/><path d="m192.91 156.988-79.598-75.075 20.098-10.255 57.868 56.11-12.148-79.39 19.668-10.032L212.7 146.907z" fill="none" stroke="#211e1e" stroke-width="1.35674"/><path d="m64.328 184.21 17.139-10.943c4.164 5.489 8.637 8.827 13.404 9.962 4.766 1.153 9.963.293 15.607-2.58 5.97-3.046 9.825-6.59 11.563-10.67 1.738-4.06 1.738-7.794.018-11.167-1.102-2.168-2.685-3.7-4.732-4.577-2.048-.86-4.939-1.067-8.69-.568-2.564.344-8.173 1.532-16.88 3.545-11.185 2.598-19.702 3.132-25.535 1.583-8.225-2.185-14.161-6.9-17.861-14.161-2.392-4.68-3.287-9.722-2.719-15.142.585-5.42 2.822-10.462 6.728-15.143 3.889-4.663 9.378-8.792 16.433-12.389 11.511-5.867 21.474-7.76 29.87-5.678 8.398 2.082 14.902 7.261 19.48 15.538l-18.12 10.255c-3.2-4.302-6.624-6.831-10.29-7.571-3.647-.74-8.087.223-13.317 2.89-5.386 2.736-9.034 5.989-10.944 9.757-1.24 2.426-1.256 4.818-.052 7.192 1.101 2.185 2.977 3.562 5.592 4.181 3.338.775 10.067-.086 20.167-2.546 10.1-2.46 17.878-3.665 23.367-3.58 5.49.07 10.445 1.446 14.901 4.148 4.44 2.701 8.157 6.951 11.116 12.767 2.667 5.248 3.717 10.927 3.132 17-.585 6.075-2.977 11.598-7.176 16.554-4.198 4.955-10.29 9.463-18.273 13.524-11.598 5.902-21.87 7.778-30.835 5.575-8.948-2.185-16.64-8.122-23.092-17.757" fill="#211e1e"/><path d="m64.328 184.21 17.139-10.943c4.164 5.506 8.637 8.827 13.404 9.98 4.766 1.135 9.963.275 15.607-2.599 5.97-3.045 9.825-6.59 11.563-10.65 1.738-4.079 1.755-7.796.035-11.186-1.118-2.168-2.684-3.682-4.749-4.56-2.047-.877-4.938-1.084-8.69-.585-2.546.361-8.173 1.532-16.88 3.562-11.184 2.598-19.702 3.115-25.535 1.566-8.225-2.168-14.179-6.9-17.878-14.161-2.375-4.68-3.286-9.722-2.701-15.142.567-5.42 2.804-10.462 6.71-15.143 3.906-4.663 9.395-8.81 16.45-12.389 11.512-5.884 21.475-7.777 29.871-5.695s14.902 7.278 19.496 15.555l-18.136 10.255c-3.2-4.302-6.625-6.831-10.29-7.571-3.665-.74-8.104.223-13.318 2.89-5.386 2.736-9.034 5.989-10.944 9.757-1.256 2.426-1.256 4.818-.051 7.192 1.1 2.185 2.96 3.562 5.592 4.181 3.338.775 10.066-.086 20.166-2.546 10.101-2.46 17.896-3.665 23.368-3.58 5.489.07 10.444 1.446 14.9 4.148s8.157 6.951 11.116 12.767c2.685 5.248 3.734 10.927 3.15 17-.586 6.092-2.978 11.615-7.193 16.57-4.199 4.957-10.29 9.465-18.257 13.526-11.614 5.901-21.887 7.76-30.852 5.575-8.947-2.203-16.639-8.122-23.092-17.775z" fill="none" stroke="#211e1e" stroke-width="1.35674"/></g><use x="338.452" y="200.66" width="100%" height="100%" xlink:href="#j" transform="translate(-519.9 133.23)" fill="#3d787f"/></svg>