<?xml version="1.0" encoding="UTF-8"?>
<svg width="257" height="390" version="1.1" xmlns="http://www.w3.org/2000/svg">
 <g transform="matrix(.60881 0 0 .60881 1.0257 2.5643)">
  <path d="M 208.677,0 0,315.364 208.677,633.187 417.912,315.364 208.677,0" fill="#00a768"/>
  <path d="m208.69 18.177-196.71 297.26 196.71 299.58 197.2-299.58-197.2-297.26" fill="#fff"/>
  <path d="m208.69 39.848-180.66 275.58 180.66 275.58 180.66-275.58-180.66-275.58" fill="#00a768"/>
  <path d="m95.98 273.12c0-15.068 1.76-35.204 11.166-54.042 6.406-12.838 18.52-25.64 37.291-24.646 6.823 0.36 27.574 5.235 27.73 28.552 0.052 10.88-6.438 30.787-35.542 30.787 0 0-3.615 29.104-3.615 44.276 0 13.49 0.271 74.04 22.397 121.66l52.916-118.69 50.417 118.98s21.312-52.932 21.312-98.415c0-44.83-12.364-75.057-22.708-91.063-14.781-22.896-33.803-30.849-42.595-30.229 0 0-9.53 9.41-24.093 8.375-17.73-1.266-28.583-13.943-28.812-30.511-0.219-13.765 8.99-29.12 22.959-38.14 13.134-8.485 36.5-7.677 51.53-2.953 24.219 7.609 44.97 34.244 55.698 53.614 10.146 18.307 20.772 55 20.844 102.91 0.084 39.853-14.282 100.48-32.552 146.59-17.875 45.093-28.406 63.541-28.406 63.541l-43.594-88.906-43.146 88.99s-41.385-88.276-52.354-128.64c-10.98-40.368-16.844-87.707-16.844-102.04" fill="#fff"/>
 </g>
</svg>