<svg xmlns="http://www.w3.org/2000/svg" width="356.25" height="356.25" xml:space="preserve"><defs><clipPath id="a"><path d="M0 285h285V0H0v285z"/></clipPath></defs><g clip-path="url(#a)" transform="matrix(1.25 0 0 -1.25 0 356.25)"><path d="M0 0c78.063 0 141.731-63.669 141.731-141.732S78.063-283.464 0-283.464c-78.064 0-141.733 63.669-141.733 141.732S-78.064 0 0 0" style="fill:#fff;fill-opacity:1;fill-rule:evenodd;stroke:none" transform="translate(142.441 284.173)"/><path d="M0 0c75.46 0 137.008-61.547 137.008-137.008 0-75.46-61.548-137.007-137.008-137.007-75.461 0-137.009 61.547-137.009 137.007C-137.009-61.547-75.461 0 0 0m-99.559-143.417-28.661 1.297.986 21.779 5.878-.265-.653-14.447 5.06-.229.597 13.198 5.74-.26-.598-13.198 6.124-.277.674 14.911 5.859-.265-1.006-22.244zm1.873 27.648-27.011 9.668 2.676 7.48 10.704 1.925c1.737.318 3.453.592 5.134.832 1.688.237 3.334.438 4.956.606a297.28 297.28 0 0 0-5.819 1.835 187.455 187.455 0 0 0-4.741 1.611l-6.911 2.474 2.388 6.673 27.012-9.667-2.671-7.46-11.031-2.035c-1.3-.24-2.75-.484-4.346-.739-1.603-.26-3.327-.519-5.171-.777 1.807-.498 3.482-.984 5.017-1.47 1.537-.48 2.895-.93 4.065-1.349l8.143-2.914-2.394-6.693zm11.057 28.686-22.789 17.43 4.826 6.311 10.781-1.424a131.204 131.204 0 0 0 10.05-1.701 298.876 298.876 0 0 0-4.985 3.519 180.374 180.374 0 0 0-4.025 2.979l-5.83 4.458 4.306 5.63 22.788-17.429-4.814-6.295-11.127 1.42c-1.312.167-2.768.376-4.365.619-1.607.24-3.328.519-5.163.834a140.192 140.192 0 0 0 4.332-2.928 104.345 104.345 0 0 0 3.461-2.522l6.871-5.255-4.317-5.646zm19.601 23.97-18.284 22.109 5.646 4.669 18.284-22.109-5.646-4.669zm3.424 16.231 6.309 3.157c.779-1.438 1.757-2.323 2.941-2.653 1.184-.33 2.557-.102 4.127.683 1.331.667 2.256 1.404 2.767 2.21.511.807.567 1.615.165 2.418a2.526 2.526 0 0 1-.806.957 1.958 1.958 0 0 1-1.096.35c-.604.018-1.972-.162-4.104-.551-2.129-.383-3.964-.639-5.497-.767-2.209-.192-4.098.075-5.657.797-1.558.722-2.742 1.884-3.543 3.484-1.226 2.449-1.28 4.86-.166 7.225 1.121 2.367 3.247 4.34 6.398 5.917 3.087 1.544 5.917 2.009 8.492 1.395 2.577-.615 4.506-2.213 5.804-4.805l-6.183-3.096c-.736 1.127-1.601 1.802-2.585 2.015-.993.217-2.146-.003-3.472-.667-1.053-.527-1.806-1.178-2.248-1.943-.442-.764-.499-1.484-.16-2.161.569-1.136 2.683-1.424 6.335-.861.662.102 1.165.183 1.516.239l.3.039c3.779.576 6.241.738 7.38.498a7.709 7.709 0 0 0 3.075-1.436c.886-.701 1.606-1.605 2.165-2.723 1.277-2.55 1.294-5.033.049-7.433-1.246-2.4-3.628-4.486-7.16-6.253-3.336-1.669-6.256-2.18-8.763-1.524-2.507.656-4.633 2.484-6.383 5.489m-32.594-115.085-22.382-4.679 1.682-8.044-5.7-1.192-4.868 23.279 5.701 1.191 1.682-8.044 22.38 4.681 1.505-7.192zm195.695 31.368 28.682.712.18-7.324-28.679-.712-.183 7.324zm4.911 29.779 1.267-6.94c-1.599-.346-2.724-1.038-3.37-2.083-.648-1.044-.814-2.426-.499-4.153.267-1.465.717-2.558 1.348-3.275.631-.716 1.393-.996 2.275-.834.445.081.826.252 1.144.506.312.259.531.576.644.955.186.575.396 1.937.617 4.094.229 2.15.497 3.985.802 5.493.434 2.174 1.218 3.913 2.346 5.207 1.129 1.294 2.577 2.106 4.335 2.428 2.696.492 5.026-.13 6.985-1.86 1.959-1.739 3.258-4.333 3.891-7.8.62-3.393.275-6.241-1.035-8.542-1.309-2.301-3.385-3.707-6.235-4.228l-1.243 6.802c1.286.391 2.176 1.032 2.656 1.918.485.893.597 2.063.33 3.522-.212 1.156-.626 2.062-1.237 2.7-.61.638-1.284.894-2.031.758-1.25-.228-2.117-2.178-2.595-5.841-.089-.665-.151-1.169-.195-1.523l-.047-.298c-.504-3.79-1.038-6.199-1.587-7.226a7.68 7.68 0 0 0-2.238-2.55c-.921-.657-1.989-1.094-3.218-1.318-2.807-.513-5.196.166-7.151 2.032-1.956 1.866-3.292 4.738-4.002 8.623-.671 3.669-.344 6.616.987 8.838 1.331 2.224 3.681 3.755 7.056 4.595m-13.38 26.71 3.064-6.355c-1.452-.758-2.352-1.723-2.698-2.902-.348-1.178-.143-2.555.62-4.136.646-1.342 1.369-2.277 2.169-2.801.797-.523 1.605-.591 2.415-.201.405.196.728.462.967.791.232.333.359.696.369 1.093.026.603-.133 1.973-.492 4.11-.349 2.135-.579 3.973-.683 5.508-.158 2.212.137 4.096.882 5.644.745 1.547 1.924 2.713 3.537 3.49 2.468 1.189 4.88 1.207 7.226.058 2.351-1.156 4.29-3.313 5.821-6.488 1.498-3.108 1.92-5.946 1.266-8.511-.651-2.565-2.28-4.472-4.891-5.73l-3.002 6.229c1.136.719 1.825 1.573 2.053 2.554.232.99.029 2.147-.615 3.482-.511 1.06-1.15 1.822-1.908 2.276-.758.454-1.477.521-2.16.193-1.144-.552-1.462-2.661-.954-6.321.09-.664.164-1.167.215-1.519l.034-.301c.519-3.787.644-6.251.386-7.387a7.686 7.686 0 0 0-1.481-3.053c-.715-.876-1.629-1.582-2.755-2.124-2.568-1.239-5.053-1.218-7.434.063-2.38 1.281-4.428 3.696-6.144 7.254-1.618 3.36-2.085 6.288-1.391 8.783.694 2.497 2.553 4.596 5.584 6.301m-69.4 49.152c-.734-2.832-.723-5.149.038-6.953.76-1.811 2.213-2.991 4.362-3.548 2.162-.561 4.018-.239 5.576.972 1.555 1.204 2.696 3.223 3.43 6.055.729 2.812.711 5.132-.06 6.947-.774 1.814-2.238 3.004-4.401 3.564-2.149.557-3.991.231-5.536-.983-1.542-1.207-2.678-3.228-3.409-6.054m-7.222 1.873c1.169 4.511 3.342 7.753 6.519 9.725 3.17 1.974 6.895 2.41 11.169 1.302 4.286-1.111 7.35-3.306 9.193-6.586 1.835-3.285 2.173-7.171 1.008-11.67-1.169-4.505-3.353-7.737-6.552-9.717-3.203-1.971-6.947-2.403-11.234-1.291-4.274 1.107-7.319 3.297-9.13 6.562-1.819 3.267-2.144 7.156-.973 11.675m44.657-5.674-3.627-6.371 2.328-1.325c1.432-.816 2.653-1.171 3.666-1.06 1.012.112 1.815.69 2.407 1.729.637 1.116.704 2.168.203 3.149-.494.977-1.61 1.96-3.336 2.943l-1.641.935zm-4.001 8.066 9.88-5.627c3.289-1.872 5.429-3.794 6.41-5.767.985-1.977.854-4.053-.387-6.232-.918-1.612-2.087-2.694-3.52-3.253-1.434-.56-3.04-.562-4.823-.013 1.029-1.219 1.309-3.173.828-5.864l-.011-.017-1.716-9.933-6.91 3.933 1.692 8.051c.269 1.293.224 2.323-.138 3.09-.372.765-1.196 1.511-2.479 2.242l-.962.547-5.528-9.708-6.49 3.696 14.154 24.855zm28.61-18.486 5.01-5.208-12.914-12.422c-1.422-1.369-2.176-2.61-2.263-3.728-.083-1.121.472-2.304 1.666-3.545 1.18-1.226 2.329-1.817 3.446-1.769 1.114.049 2.383.753 3.807 2.122l12.914 12.422 5.065-5.265-12.281-11.814c-1.728-1.664-3.27-2.823-4.623-3.479-1.358-.651-2.765-.934-4.222-.84-1.52.105-2.989.518-4.395 1.242-1.411.728-2.768 1.765-4.077 3.126-1.305 1.356-2.288 2.753-2.961 4.191a11.207 11.207 0 0 0-1.071 4.44c-.037 1.478.296 2.887.995 4.232.703 1.341 1.913 2.836 3.623 4.482l12.281 11.813zM-8.96-20.35l5.891.288c1.248.062 2.168.34 2.749.828.588.487.859 1.207.813 2.137-.042.869-.361 1.514-.954 1.937-.594.416-1.448.6-2.563.547l-6.202-.306.266-5.431zm.578-11.749 5.545.273c1.746.086 2.963.392 3.637.911.673.519.984 1.359.928 2.508-.051 1.043-.422 1.803-1.118 2.295-.691.492-1.699.709-3.021.644l-6.281-.309.31-6.322zm-6.746-6.043-1.409 28.655 13.913.684c3.334.163 5.82-.313 7.467-1.437 1.645-1.124 2.533-2.931 2.656-5.422.075-1.54-.214-2.833-.876-3.87-.653-1.044-1.697-1.874-3.118-2.489 1.681-.344 2.986-1.052 3.925-2.117.937-1.066 1.443-2.42 1.524-4.066.078-1.608-.215-3.079-.882-4.41a7.67 7.67 0 0 0-2.94-3.167c-.866-.536-1.931-.94-3.195-1.209-1.258-.268-3.212-.471-5.855-.6l-11.21-.552zM126.169-158.44l-1.455-7.893-30.051-4.755 1.431 7.754 5.491.773 1.737 9.422-4.875 2.568 1.38 7.488 26.342-15.357zm-17.319 2.504-1.138-6.172 10.309 1.35-9.171 4.822zm-46.711-93.482-16.114 23.735 6.574 4.463 9.778-4.757a134.555 134.555 0 0 0 4.639-2.356c1.501-.804 2.95-1.614 4.358-2.433a286.562 286.562 0 0 0-3.617 4.913 171.575 171.575 0 0 0-2.877 4.099l-4.123 6.072 5.863 3.98 16.113-23.736-6.556-4.451-10.107 4.863a180.714 180.714 0 0 0-3.947 1.966 247.138 247.138 0 0 0-4.635 2.423 142.387 142.387 0 0 0 3.186-4.147 104.832 104.832 0 0 0 2.486-3.486l4.86-7.156-5.881-3.992zm-129.192 24.647 4.701-3.561c.996-.755 1.878-1.132 2.638-1.131.764-.004 1.434.374 1.997 1.115.525.694.695 1.391.512 2.098-.187.7-.723 1.389-1.613 2.064l-4.95 3.75-3.285-4.335zm-7.102-9.374 4.425-3.353c1.393-1.056 2.522-1.603 3.371-1.637.85-.034 1.629.409 2.323 1.326.63.832.835 1.653.618 2.476-.213.822-.848 1.635-1.903 2.435l-5.012 3.798-3.822-5.045zm-9.052-.299 17.325 22.867 11.102-8.412c2.661-2.015 4.26-3.978 4.8-5.897s.06-3.875-1.447-5.862c-.931-1.229-1.982-2.033-3.156-2.404-1.172-.38-2.506-.346-3.99.095 1.068-1.343 1.615-2.725 1.648-4.144.034-1.418-.447-2.781-1.442-4.094-.973-1.283-2.144-2.223-3.509-2.815a7.673 7.673 0 0 0-4.287-.538c-1.008.146-2.083.52-3.226 1.126-1.137.603-2.764 1.702-4.874 3.301l-8.944 6.777zm30.126-19.201 9.885 26.933 20.467-7.511-2.029-5.525-13.575 4.983-1.746-4.756 12.404-4.552-1.98-5.392-12.403 4.551-2.111-5.754 14.012-5.143-2.021-5.505-20.903 7.671zm35.681 18.467 11.328-.974c3.772-.323 6.52-1.173 8.235-2.555 1.723-1.381 2.473-3.322 2.259-5.82-.159-1.848-.769-3.32-1.836-4.428-1.066-1.109-2.524-1.783-4.373-2.032 1.445-.676 2.516-2.332 3.206-4.977l-.002-.021 2.481-9.623-7.801.447-1.836 8.136c-.29 1.288-.767 2.207-1.419 2.748-.655.543-1.719.872-3.191.998l-1.102.095-1.071-11.248-7.766.755 2.888 28.499zm7.011-5.65-.628-7.304 2.669-.229c1.644-.141 2.901.047 3.774.572.872.526 1.359 1.386 1.462 2.578.11 1.28-.267 2.264-1.132 2.945-.86.681-2.285 1.106-4.263 1.276l-1.882.162zm24.88-24.082-5.215 28.212 7.239 1.337 4.085-22.097 13.657 2.524 1.129-6.113-20.895-3.863zm30.081 7.075L33.49-231.373l6.758 2.831 11.082-26.464-6.758-2.829zM0-45.827c50.221 0 91.181-40.96 91.181-91.181 0-50.22-40.96-91.181-91.181-91.181s-91.182 40.961-91.182 91.181c0 50.221 40.961 91.181 91.182 91.181m-93.149-148.14 10.115 3.04-5.554-8.987 6.017-8.68-10.263 2.506-6.396-8.406-.816 10.543-9.944 3.479 9.776 4.006.235 10.559 6.83-8.06zm181.737-5.943-5.555 8.984 10.117-3.039 6.829 8.057.235-10.561 9.774-4.003-9.972-3.517-.787-10.505-6.398 8.407-10.262-2.507" style="fill:#5c1a73;fill-opacity:1;fill-rule:evenodd;stroke:none" transform="translate(142.441 279.449)"/><path d="M0 0c-1.09-.963-2.495-.857-4.271.548-.846-1.799-2.555-3.073-4.461-3.957-4.353-2.016-10.277-1.643-13.188 1.706-1.153-1.342-2.824-1.913-4.714-1.591-2.152.366-4.864 2.239-6.99 3.797-2.645 1.94-4.552 3.734-5.302 5.479v.02c-.465 1.083-.649 2.134-.588 3.137.049.815.254 1.589.596 2.312-.619.971-.981 1.987-1.178 3.653h-.002a26.915 26.915 0 0 0-.15 1.807c-.137 2.939.07 7.291.313 9.047l.001-.001c.043.313.086.543.128.704-2.971.048-5.966.958-9.054 2.808-2.909 1.743-3.132 6.126-.403 8.141.345.254.68.505 1.011.751-3.117.409-5.984 1.666-8.411 3.787a16.634 16.634 0 0 0-2.631 2.923c-1.672 2.368-.675 6.065 1.959 7.277.46.212 1.852.842 4.128 1.88.764.347 1.497.683 2.202 1.006-3.101.968-5.737 2.815-7.686 5.549-1.029 1.443-1.842 3.115-2.4 5.011-.799 2.708 1.251 5.864 4.05 6.241 3.184.427 6.317.921 9.204 1.668-.401.185-.791.381-1.171.589-4.318 2.361-7.261 6.03-7.557 11.229-.017.303-.021.67-.013 1.097.058 2.829 2.982 5.225 5.78 4.723 2.15-.386 4.264-.732 6.267-.969a16.02 16.02 0 0 0-1.861 1.388c-3.096 2.7-4.517 6.085-4.148 10.114.059.634.142 1.198.248 1.686.528 2.4 3.452 4.283 5.857 3.745 1.972-.442 3.832-.838 5.566-1.159-1.357 1.333-2.424 2.885-3.128 4.644-.758 1.897-1.063 3.963-.818 6.17.254 2.286 2.796 4.483 5.088 4.377 1.855-.085 3.147-.172 4.417-.256 3.964-.266 7.725-.518 11.748-.09l.086.009c3.59.384 7.078.948 10.187 1.451 3.563.575 6.682 1.08 8.802 1.201.743.043 1.485.033 2.193-.03 1.773-.156 3.768-.703 5.605-1.487.694-.296 1.359-.552 1.976-1.066-.124.484-.23.923-.289 1.441-.545 4.816-.311 8.079 1.624 10.684 1.6 2.154 3.79 3.256 6.966 3.671l.025.046c1.876 3.41 5.388 6.555 10.854 6.359 4.232-.152 6.769-1.072 9.043-1.895.932-.337 1.947-.824 2.706-1.03.383-.103 2.104-.184 3.194.324 2.289 1.066 4.972 1.315 6.986.416 1.264-.564 3.5-2.762 3.543-4.728.09-4.15-2.093-5.816-4.35-8.633-.935-1.166-3.258-3.849-3.171-5.328.063-1.066.353-1.2 1.007-2.413.178-.33.355-.658.526-.983 1.068 1.353 2.528 2.391 4.154 3.135a17.575 17.575 0 0 0 5.749 1.496c3.598.282 7.359-.616 10.85-1.18 3.136-.507 6.656-1.076 10.275-1.46 4.023-.428 7.783-.176 11.747.09 1.27.084 2.562.171 4.417.256 2.292.106 4.835-2.091 5.088-4.377.246-2.207-.059-4.273-.817-6.17-.704-1.759-1.775-3.312-3.132-4.644 1.736.321 3.598.717 5.57 1.159 2.405.538 5.329-1.345 5.857-3.745.106-.487.189-1.052.248-1.686.369-4.029-1.055-7.415-4.149-10.114a16.12 16.12 0 0 0-1.862-1.388c2.001.237 4.119.583 6.268.969 2.798.502 5.723-1.893 5.78-4.723a15.11 15.11 0 0 0-.012-1.097c-.297-5.198-3.239-8.868-7.556-11.229-.38-.208-.773-.404-1.173-.589 2.887-.747 6.02-1.241 9.204-1.668 2.8-.377 4.85-3.533 4.052-6.241-.56-1.896-1.371-3.568-2.401-5.011-1.948-2.734-4.587-4.581-7.688-5.549l2.203-1.005c2.241-1.023 3.5-1.591 4.129-1.881 2.634-1.212 3.63-4.909 1.958-7.277a16.553 16.553 0 0 0-2.631-2.922c-2.426-2.121-5.296-3.378-8.412-3.788l1.013-.751c2.728-2.015 2.506-6.398-.403-8.141-3.088-1.85-6.086-2.76-9.057-2.807.043-.162.086-.392.129-.706l.004.001c.483-3.498.578-7.334.162-10.854h-.002c-.156-1.317-.464-2.528-1.179-3.653a6.255 6.255 0 0 0 .598-2.312c.059-1.003-.123-2.053-.588-3.137v-.02c-1.558-3.624-8.916-8.455-12.007-9.295l-.066-.013c-1.883-.489-3.762.26-4.935 1.622a7.922 7.922 0 0 0-2.225-1.775c-4.086-2.233-8.837-1.01-11.651.438-.528.272-1.021.57-1.445.865-1.076.743-1.901 1.525-2.33 2.725-1.965-1.555-3.477-1.517-4.611-.201-.365-2.507-1.617-4.696-4.857-6.089a3.813 3.813 0 0 0-1.278-.278c.297-.223.603-.448.913-.67 2.502-1.795 2.636-5.8.27-7.758-4.745-3.922-9.222-3.774-14.12-3.332a17.46 17.46 0 0 0-.613-1.712c-1.366-3.213-3.623-5.652-7.446-5.751-4.381-.114-7.309 3.071-8.849 7.341-3.927-.444-9.38-.392-13.708 2.906-.203.156-.367.286-.489.388-2.289 1.921-2.205 5.847.173 7.662.598.456.308.238.487.373.332.251.711.538 1.123.862-.632-.016-1.217.057-1.645.24C1.8-4.083.44-2.158 0 0" style="fill:#fff;fill-opacity:1;fill-rule:evenodd;stroke:none" transform="translate(114.732 79.443)"/><path d="M0 0c-3.441 8.874-3.703 19.609-2.132 30.797l.399 2.842 2.841.18c7.256.458 14.569.689 21.955.689 7.386 0 14.699-.231 21.954-.689l2.841-.18.399-2.842C49.829 19.609 49.566 8.874 46.125 0c-3.585-9.248-10.48-16.367-22.078-19.803l-.984-.292-.984.292C10.48-16.367 3.586-9.248 0 0" style="fill:#fff;fill-opacity:1;fill-rule:evenodd;stroke:none" transform="translate(119.378 126.508)"/><path d="M0 0c-2.994-21.309.887-40.597 21.736-46.772C42.583-40.597 46.464-21.309 43.472 0 28.958.918 14.512.918 0 0" style="fill:#5c1a73;fill-opacity:1;fill-rule:evenodd;stroke:none" transform="translate(120.706 156.827)"/><path d="M0 0c0-3.273-2.165-5.642-5.135-6.968 1.248-.862 2.254-1.817 3.067-3.199 2.284-3.882.594-9.864-2.497-12.759-1.905-1.781-4.454-2.553-7.069-2.553a9.78 9.78 0 0 0-3.56.684c-1.125.455-2.517 1.286-3.431 2.235-.616-.921-1.132-1.419-1.971-1.9-.864-.494-2.105-.791-3.114-.791-1.443 0-3.387.278-5.217 2.313 1.037 1.069 2.351 2.621 2.768 4.466 1.307 5.791 2.255 11.583 3.57 17.373.19.837.444 1.727.732 2.523.287.798.606 1.632.956 2.353-.824-.312-1.633-.61-2.435-1.094-2.335-1.41-4.034-3.095-4.166-5.848-.066-1.381.389-2.274 1.231-2.762-.539-1.526-2.473-2.879-4.305-2.622-2.226.313-3.161 2.024-3.304 4.034-.417 5.845 6.81 10.507 13.108 11.946 2.263.517 4.365.812 6.516.812 4.512 0 10.167-.13 13.108-4.145C-.239 2.857 0 1.519 0 0m-10.355-9.33c-1.444 1.729-5.35 2.177-5.871-.523l-1.637-8.471a4.012 4.012 0 0 1 1.906-1.904c1.017-.475 2.622-.253 3.499.25 1.355.78 2.347 2.194 2.77 3.728.663 2.408.748 5.223-.667 6.92m2.903 11.168c-.224 1.789-1.416 2.745-2.781 2.88-.995.099-1.816-.177-2.615-.966-.772-.764-1.042-1.734-1.328-3.146-.342-1.686-.698-3.36-1.01-5.179h2.988c1.176 0 2.84.64 3.785 2.072.961 1.455 1.177 2.618.961 4.339" style="fill:#fff;fill-opacity:1;fill-rule:evenodd;stroke:none" transform="translate(158.254 145.405)"/><path d="M0 0c3.709-5.421 3.709-10.469 4.105-12.488 1.525 1.157 4.144 3.01 5.311 3.814.979-.559 5.239-4.265 5.779-5.524-1.425-.67-3.154-1.215-4.682-1.781-1.196-.699-1.648-.797-1.638-5.043.003-1.502-.249-6.693.448-5.853.867 1.043 2.838 3.434 5.031 4.936 2.822 1.93 5.956 2.698 6.952.473 1.793-4.01-3.2-7.644-6.034-9.179.874-.973 5.333-3.264 8.543-1.51 2.886 1.577 2.107 8.518 7.081 6.992 2.311-.709 1.566-4.053 1.193-6.388 1.148.308 3.434 1.926 5.888 3.571 3.953 2.649 3.629 4.65 1.738 5.463-3.815 1.639-7.176 3.246-8.677 5.9 1.137 2.124 4.682 2.114 6.449.78.642-.483 3.797-3.142 4.005-2.497.566 1.749.349 8.527.055 10.65-.161 1.165-2.326.907-3.718.518-4.157-1.16-9.579-3.416-13.317-4.39-2.951-.769-7.782 5.286-9.743 7.395 1.02 1.02 3.015 1.593 4.088 2.7C13.749.014 9.075 3.308 5.387 6.487c-.626.539-3.223 3.012-4.899 4.627a32.069 32.069 0 0 0-3.752-5.901C-2.236 3.553-.436.637 0 0m-33.276-5.877c-.94-1.192-1.939-2.324-2.984-3.281-4.047-3.705-8.422-5.749-9.71-6.504.068-5.078 2.61-5.523 2.53-7.6.747-3.106-2.808-8.86 1.421-10.674 4.428 4.036 4.706 9.328 7.369 13.29.874 1.333 4.548 6.618 7.57 7.041.343-3.34-.151-5.093-.619-9.208-1.438-12.629-10.042-18.579-13.228-21.011 4.884-4.115 13.422-1.58 14.79-1.536.455-4.024 2.188-8.024 4.996-7.95 2.872.076 3.826 4.682 4.307 7.771 5.593-.253 10.458-1.749 14.863 1.893-6.869 4.931-10.754 9.94-12.734 18.543-.693 3.01-1.753 10.274-1.343 11.551 5.554-2.072 9.084-8.987 11.58-15.155.876-2.165 2.537-3.74 3.783-5.5 3.929 1.688.615 8.838 1.581 12.271.771 1.274 2.036 2.815 2.555 6.208C-2.831-12.74-6.25-9.837-9.234-5.774c-.125.176-1.228 1.584-2.246 3.097-.097.218-.181.426-.256.622-2.509-1.47-5.346-2.697-8.538-3.642l-.985-.292-.984.292c-3.201.947-6.042 2.176-8.555 3.652a61.112 61.112 0 0 0-.272-.613c-.986-1.536-2.037-2.985-2.206-3.219M-42.519 0c-3.709-5.421-3.707-10.469-4.104-12.488-1.525 1.157-4.145 3.01-5.312 3.814-.979-.559-5.238-4.265-5.778-5.524 1.425-.67 3.153-1.215 4.682-1.781 1.196-.699 1.648-.797 1.637-5.043-.002-1.502.25-6.693-.448-5.853-.866 1.043-2.837 3.434-5.032 4.936-2.82 1.93-5.954 2.698-6.949.473-1.794-4.01 3.198-7.644 6.032-9.179-.874-.973-5.334-3.264-8.543-1.51-2.885 1.577-2.106 8.518-7.08 6.992-2.312-.709-1.566-4.053-1.193-6.388-1.149.308-3.435 1.926-5.888 3.571-3.953 2.649-3.63 4.65-1.738 5.463 3.814 1.639 7.176 3.246 8.676 5.9-1.137 2.124-4.681 2.114-6.449.78-.642-.483-3.796-3.142-4.005-2.497-.566 1.749-.348 8.527-.054 10.65.162 1.165 2.326.907 3.718.518 4.157-1.16 9.578-3.416 13.316-4.39 2.951-.769 7.782 5.286 9.744 7.395-1.021 1.02-3.016 1.593-4.089 2.7 5.108 1.475 9.782 4.769 13.471 7.948.625.539 3.223 3.012 4.9 4.626a32.115 32.115 0 0 1 3.753-5.902C-40.28 3.551-42.083.636-42.519 0m79.308 55.065c4.297-3.8 13.14-2.473 21.252-1.439.333-9.124-9.257-10.795-18.086-10.291 5.233-6.151 13.875-7.857 22.814-9.058-2.805-9.521-13.631-9.694-24.474-1.966 1.394-7.182 9.231-12.243 22.559-17.448-5.456-7.728-16.399-5.362-25.749 5.33C34.79 16.07 38.295 9.961 51.878.67c-7.706-4.616-14.414-1.099-22.44 8.267-2.249 2.623-4.437 5.682-6.978 9.175-1.291-7.695 3.198-13.137 9.712-19.173-9.983-2.307-16.168 4.312-19.152 16.637-1.562-1.086-2.699-3.45-2.425-6.763-5.139 2.797-6.741 6.05-6.741 11.204 0 .741.086 1.782.2 3.004 1.084 6.796.869 14.261-.21 21.94l-.401 2.841-2.839.18a348.29 348.29 0 0 1-21.955.689c-7.386 0-14.699-.231-21.954-.689l-2.842-.18-.398-2.841c-1.073-7.632-1.29-15.053-.228-21.816.122-1.314.216-2.412.216-3.128 0-5.154-1.605-8.408-6.74-11.204.274 3.313-.736 6.95-2.425 6.763-2.983-12.325-9.169-18.944-19.152-16.637 6.515 6.036 11.003 11.478 9.712 19.173-2.54-3.493-4.729-6.553-6.977-9.175C-80.166-.429-86.874-3.946-94.58.67c13.583 9.291 17.088 15.4 16.772 19.523-9.349-10.692-20.292-13.058-25.749-5.33 13.329 5.205 21.165 10.266 22.56 17.448-10.842-7.728-21.668-7.555-24.474 1.966 8.939 1.201 17.58 2.907 22.815 9.058-8.829-.504-18.42 1.167-18.087 10.291 8.113-1.034 16.958-2.361 21.255 1.439.843.747 1.511 1.69 1.965 2.873-13.513.283-17.648 5.125-17.048 11.695 12.228-2.739 20.632-3.842 23.212 2.763-8.769-.004-16.424 4.239-15.657 11.14 6.019-.765 11.113-1.414 17.24-.765 7.394.786 14.365 2.843 18.49 3.08 3.266.188 8.544-1.435 8.538-4.707-.009-4.556-3.315-6.772-6.141-7.529.372-4.333.806-7.444 1.503-9.564 1.298-3.954 3.775-3.954 7.769-3.334.041.006-.011.04 0 0 .717-2.819 1.99-4.212 4.195-3.938 2.205.274 2.848 1.726 3.057 2.933.274 1.597.073 3.235-.466 4.757 5.469.046 4.5 3.95-.854 3.17-.527 4.066 1.469 5.456 3.097 7.666.843 1.145 2.267 4.052.858 5.276-1.209 1.051-4.169 1.042-4.25 6.44 2.278.023 4.192-.635 6.54-.233 2.729.468 2.76 3.402 4.511 4.616-.595.413-1.226.421-1.599.24-2.326-1.127-4.962-.998-7.966-.606-1.461.191-2.676.196-4.78-.846-.436 7.933 1.774 8.367 6.857 9.107.354 2.304 2.92 6.236 7.378 6.3 5.654.082 8.658-2.817 11.976-3.339 1.209-.19 2.209.276 3.199.792.516.269 1.12.67 1.652.883 1.174.468 2.746.696 3.552-.424.719-.998.485-2.01.055-2.813-.412-.767-1.155-1.532-1.958-2.282-2.862-2.678-5.449-5.846-5.536-9.984-.073-3.445 3.582-5.932 3.157-8.574-.317-1.97-2.523-1.886-2.674-3.671-.293-3.44 3.65-6.006 3.295-8.64-.31-2.307-2.936-1.915-3.127-4.293-.063-.778-.031-1.67.107-2.537h.002c.333-2.085 1.294-4.03 3.105-3.956 1.907.078 3.271 2.123 3.271 3.956 3.701-.62 6.386-.619 7.654 3.334.681 2.125 1.128 5.189 1.496 9.564-2.827.757-6.132 2.973-6.141 7.529-.007 3.272 5.271 4.895 8.538 4.707 4.125-.237 11.097-2.294 18.491-3.08 6.126-.65 11.22 0 17.239.765.767-6.901-6.888-11.144-15.657-11.14 2.581-6.605 10.984-5.502 23.212-2.763.6-6.57-3.534-11.412-17.048-11.695.453-1.183 1.122-2.126 1.965-2.873h.003zm-60.094 45.529c1.254-.049 4.406-1.074 4.231-2.472-.155-1.225-2.35-1.101-4.176-.967-1.393.102-3.524.038-3.144 1.892.306 1.495 2.092 1.586 3.089 1.547" style="fill:#000;fill-opacity:1;fill-rule:evenodd;stroke:none" transform="translate(163.7 112.402)"/></g></svg>