<?xml version="1.0" encoding="utf-8"?>
<!-- Generator: Adobe Illustrator 24.2.2, SVG Export Plug-In . SVG Version: 6.00 Build 0)  -->
<svg version="1.1" id="Ebene_1" xmlns="http://www.w3.org/2000/svg" xmlns:xlink="http://www.w3.org/1999/xlink" x="0px" y="0px"
	 viewBox="0 0 182.2 269.3" style="enable-background:new 0 0 182.2 269.3;" xml:space="preserve">
<style type="text/css">
	.st0{fill:#FFFFFF;}
	.st1{fill:#1A407F;}
	.st2{fill:#020203;}
</style>
<g>
	<polygon class="st0" points="179.2,130.5 177.8,128.6 176.4,126.6 175.1,124.7 173.7,122.7 172.4,120.8 106.3,26 103.4,21.9 
		100.5,17.7 97.6,13.6 94.7,9.5 91.8,5.3 90.7,3.7 89.5,5.3 86.6,9.5 83.8,13.6 80.9,17.8 78.1,22 75.2,26.1 9.7,121.2 8.4,123.2 
		7.1,125.1 5.7,127.1 4.4,129 3.1,130.9 2.5,131.7 3,132.5 4.3,134.5 5.6,136.5 6.9,138.4 8.2,140.4 9.5,142.4 75,241.7 77.9,246.1 
		80.8,250.5 83.7,254.9 86.6,259.3 89.5,263.7 90.7,265.5 91.9,263.7 94.8,259.3 97.7,254.9 100.7,250.5 103.6,246.1 106.5,241.7 
		172.6,142.1 173.9,140.1 175.2,138.1 176.5,136.1 177.9,134.1 179.2,132.1 179.7,131.3 	"/>
	<g>
		<path class="st1" d="M180.9,129.4l-1.4-2l-1.4-2l-1.4-2l-1.4-2l-1.4-2L108,24.8l-2.9-4.1l-2.9-4.1l-2.9-4.1l-2.9-4.1l-2.9-4.1
			L90.6,0l-2.9,4.2l-2.9,4.2l-2.9,4.2l-2.9,4.2l-2.9,4.2l-2.9,4.2L8,120.1L6.7,122l-1.3,1.9L4,125.9l-1.3,1.9l-1.3,1.9L0,131.7
			l1.3,2l1.3,2l1.3,2l1.3,2l1.3,2l1.3,2l65.5,99.3l2.9,4.4l2.9,4.4L82,256l2.9,4.4l2.9,4.4l2.9,4.4l2.9-4.4l2.9-4.4l2.9-4.4l2.9-4.4
			l2.9-4.4l2.9-4.4l66.1-99.7l1.3-2l1.3-2l1.3-2l1.3-2l1.3-2l1.3-2L180.9,129.4z M176.7,133.3l-1.3,2l-1.3,2l-1.3,2l-1.3,2
			l-66.1,99.6l-2.9,4.4l-2.9,4.4l-2.9,4.4l-2.9,4.4l-2.9,4.4l-2.9-4.4l-2.9-4.4l-2.9-4.4l-2.9-4.4l-2.9-4.4l-65.5-99.3l-1.3-2
			l-1.3-2l-1.3-2l-1.3-2l-1.3-2l1.3-1.9l1.3-1.9l1.3-1.9l1.3-1.9l1.3-1.9l65.5-95.1l2.9-4.2l2.9-4.2l2.9-4.2l2.9-4.2l2.9-4.2
			l2.9,4.1l2.9,4.1l2.9,4.1l2.9,4.1l2.9,4.1l66.1,94.8l1.4,2l1.4,2l1.4,2l1.4,2l1.4,2L176.7,133.3z"/>
		<path class="st1" d="M171.1,127.5l-1.4-2l-1.4-2l-66.1-94.8l-2.9-4.1l-2.9-4.1l-2.9-4.1l-2.9-4.1l-2.9,4.2L85,20.6l-2.9,4.2
			l-2.9,4.2L13.8,124l-1.3,1.9l-1.3,1.9l-1.3,1.9l-1.3,1.9l1.3,2l1.3,2l1.3,2l1.3,2L79.1,239l2.9,4.4l2.9,4.4l2.9,4.4l2.9,4.4
			l2.9-4.4l2.9-4.4l2.9-4.4l2.9-4.4l66.1-99.7l1.3-2l1.3-2l1.3-2l1.3-2l-1.4-2L171.1,127.5z M168.2,133.4l-1.3,2l-1.3,2l-66.1,99.6
			l-2.9,4.4l-2.9,4.4l-2.9,4.4l-2.9-4.4l-2.9-4.4L82,237l-65.5-99.3l-1.3-2l-1.3-2l-1.3-2l1.3-1.9l1.3-1.9l1.3-1.9l65.5-95.1
			l2.9-4.2l2.9-4.2l2.9-4.2l2.9,4.1l2.9,4.1l2.9,4.1l66.1,94.8l1.4,2l1.4,2l1.4,2L168.2,133.4z"/>
		<path class="st1" d="M162.6,127.6L96.5,32.8l-2.9-4.1l-2.9-4.1l-2.9,4.2L85,32.9L19.6,128l-1.3,1.9l-1.3,1.9l1.3,2l1.3,2
			l65.5,99.3l2.9,4.4l2.9,4.4l2.9-4.4l2.9-4.4l66.1-99.6l1.3-2l1.3-2l-1.4-2L162.6,127.6z M159.8,133.5l-66.1,99.6l-2.9,4.4
			l-2.9-4.4l-65.5-99.3l-1.3-2l1.3-1.9l65.5-95.1l2.9-4.2l2.9,4.1l66.1,94.8l1.4,2L159.8,133.5z"/>
		<path class="st1" d="M25.3,132c12.3,12,37.4,20.2,66.3,19.9c28.3-0.2,52.9-8.4,65.3-20.3L90.8,36.8L25.3,132z M117.9,84.5
			l8.6,12.4l-8.3,11.8l-8.7,12.4l-8.2,11.7l-1.9,2.8L90.8,148l-8.7-12.4l-1.9-2.8L72,121.1l-8.7-12.4l-8.1-11.6l8.7-12.4L72,96.4
			l8.7,12.4l8.2,11.7l1.9,2.8l1.9-2.8l8.2-11.7l8.7-12.4L117.9,84.5z M90.8,45.6l8.7,12.5l-8.4,12l8.3,11.9l8.2,11.7L99,106
			l-8.2,11.7l-8.7-12.4l8.2-11.7l-8.2-11.7l-8.2-11.7L90.8,45.6z"/>
		<path class="st1" d="M46.4,164.1l44.4,67.2l45.2-68.1c-12.6,4.9-28.2,7.9-45,8C74.4,171.3,59,168.6,46.4,164.1z M95.8,192v-5.2h9
			l2.3-5.1h-5.1c-1.4,0.2-1.7,1.3-2,1.9h-4.3v-7.4h20.4l-4.9,10.7h2.6v5.2h-5l-6.6,14.4h-6.5l6.6-14.4H95.8z M93.1,194.3
			c0,9.3-3.3,12.7-9,12.7c-8.6,0-9-6-9-12.7v-6.7c0-8.5,3.2-12.6,9-12.6c5.9,0,9,3.2,9,12.6V194.3z"/>
		<path class="st1" d="M84.1,180c-0.8,0-1.3,0.2-1.6,0.6c-0.3,0.4-0.5,1.5-0.5,2.5v15.7c0,1,0.1,2.4,0.5,2.8
			c0.3,0.4,0.8,0.6,1.6,0.6c0.8,0,1.4-0.2,1.7-0.6c0.3-0.4,0.5-1.7,0.5-2.8v-15.7c0-1-0.2-2.1-0.5-2.5C85.4,180.2,84.8,180,84.1,180
			z"/>
		<polygon class="st2" points="64.8,160.8 68.3,161.4 67.4,156.3 		"/>
		<path class="st2" d="M28.5,136.9l16.3,24.7c12.7,5,28.7,7.9,46.1,7.7c17.7-0.1,34-3.4,46.8-8.8l15.9-24
			c-13.6,10.2-36.3,16.9-62,17.1C65.4,153.9,42.2,147.2,28.5,136.9z M52.7,163.2l0.2-10.2l-5.3,8.8l-2.8-0.8l0.6-13.6l2.6,0.8
			l-0.6,9.3l4.8-8.1l3.1,0.9l-0.3,9.5l4.5-8.3l2.6,0.7l-6.7,11.8L52.7,163.2z M69.4,166.9l-0.6-3.2l-5.2-0.9l-1.6,2.8l-2.8-0.5
			l7.4-12.1l2.8,0.5l2.9,14L69.4,166.9z M84.8,168.3l-9.5-0.6l0.9-13.4l2.7,0.2l-0.8,11.1l6.8,0.5L84.8,168.3z M137.7,146.2l0.7,2.1
			l-6,2.1l1,2.9l5.2-1.8l0.7,2.1l-5.2,1.8l1.8,5.3l-2.5,0.9l-4.3-12.4L137.7,146.2z M115.8,155.9c0.2-0.7,0.4-1.4,0.8-2
			c0.4-0.6,0.9-1.1,1.4-1.5c0.7-0.5,1.6-0.8,2.7-1.1c1.9-0.4,3.5-0.1,4.9,0.9c1.4,0.9,2.3,2.5,2.7,4.6c0.4,2.1,0.2,3.8-0.7,5.2
			c-0.9,1.4-2.3,2.3-4.2,2.6c-1.9,0.4-3.5,0.1-4.9-0.8c-1.4-0.9-2.2-2.4-2.6-4.5C115.6,158,115.6,156.9,115.8,155.9z M104,154.3
			l0.7,5.3l5.3-0.7l-0.6-5.3l2.7-0.3l1.7,13.3l-2.7,0.3l-0.7-5.8l-5.3,0.7l0.7,5.8L103,168l-1.7-13.3L104,154.3z M95.2,155.1
			c0.8,0.2,1.5,0.7,2,1.3c0.6,0.6,1,1.3,1.3,2.2c0.3,0.9,0.4,1.9,0.4,3.2c0,1.1-0.1,2.1-0.4,2.9c-0.3,1-0.8,1.8-1.5,2.4
			c-0.5,0.5-1.1,0.8-1.9,1.1c-0.6,0.2-1.4,0.3-2.4,0.3l-5.2,0l0-13.6l5,0C93.8,154.9,94.6,154.9,95.2,155.1z"/>
		<path class="st2" d="M94.1,166c0.4-0.1,0.8-0.3,1.1-0.6c0.3-0.3,0.5-0.7,0.7-1.3c0.2-0.6,0.3-1.4,0.3-2.5c0-1-0.1-1.9-0.3-2.4
			c-0.2-0.6-0.4-1-0.8-1.3c-0.3-0.3-0.8-0.5-1.3-0.6c-0.4-0.1-1.1-0.1-2.3-0.1l-1.2,0l0,9l2,0C93.2,166.2,93.7,166.1,94.1,166z"/>
		<path class="st2" d="M120.2,161.8c0.8,0.6,1.7,0.8,2.8,0.6c1-0.2,1.8-0.7,2.3-1.6c0.5-0.9,0.6-2.1,0.3-3.5
			c-0.3-1.5-0.8-2.5-1.6-3.1c-0.8-0.6-1.7-0.8-2.8-0.6c-1.1,0.2-1.9,0.7-2.4,1.6c-0.5,0.9-0.6,2-0.3,3.5
			C118.8,160.2,119.4,161.2,120.2,161.8z"/>
	</g>
</g>
</svg>
